<svg width="21" height="22" viewBox="0 0 21 22" fill="none" xmlns="http://www.w3.org/2000/svg">
<path d="M1.3125 15.9219C1.3125 16.531 1.55449 17.1153 1.98524 17.546C2.41599 17.9768 3.00021 18.2188 3.60938 18.2188H17.3906C17.9998 18.2188 18.584 17.9768 19.0148 17.546C19.4455 17.1153 19.6875 16.531 19.6875 15.9219V9.60547H1.3125V15.9219ZM4.01953 12.8047C4.01953 12.4783 4.14917 12.1654 4.37993 11.9346C4.61068 11.7039 4.92366 11.5742 5.25 11.5742H7.21875C7.54509 11.5742 7.85807 11.7039 8.08882 11.9346C8.31958 12.1654 8.44922 12.4783 8.44922 12.8047V13.625C8.44922 13.9513 8.31958 14.2643 8.08882 14.4951C7.85807 14.7258 7.54509 14.8555 7.21875 14.8555H5.25C4.92366 14.8555 4.61068 14.7258 4.37993 14.4951C4.14917 14.2643 4.01953 13.9513 4.01953 13.625V12.8047ZM17.3906 3.78125H3.60938C3.00021 3.78125 2.41599 4.02324 1.98524 4.45399C1.55449 4.88474 1.3125 5.46896 1.3125 6.07812V7.14453H19.6875V6.07812C19.6875 5.46896 19.4455 4.88474 19.0148 4.45399C18.584 4.02324 17.9998 3.78125 17.3906 3.78125Z" fill="#6E778A"/>
</svg>
