<svg width="21" height="22" viewBox="0 0 21 22" fill="none" xmlns="http://www.w3.org/2000/svg">
<path d="M17.0625 2.14062H5.90625C5.12303 2.14063 4.37189 2.45176 3.81808 3.00558C3.26426 3.55939 2.95313 4.31053 2.95312 5.09375V18.875C2.95312 19.1361 3.05684 19.3865 3.24144 19.5711C3.42605 19.7557 3.67643 19.8594 3.9375 19.8594H15.75C16.0111 19.8594 16.2615 19.7557 16.4461 19.5711C16.6307 19.3865 16.7344 19.1361 16.7344 18.875C16.7344 18.6139 16.6307 18.3635 16.4461 18.1789C16.2615 17.9943 16.0111 17.8906 15.75 17.8906H4.92188V17.5625C4.92188 17.3014 5.02559 17.051 5.21019 16.8664C5.3948 16.6818 5.64518 16.5781 5.90625 16.5781H17.0625C17.3236 16.5781 17.574 16.4744 17.7586 16.2898C17.9432 16.1052 18.0469 15.8548 18.0469 15.5938V3.125C18.0469 2.86393 17.9432 2.61355 17.7586 2.42894C17.574 2.24434 17.3236 2.14062 17.0625 2.14062ZM16.0781 14.6094H5.90625C5.57085 14.6087 5.23786 14.6659 4.92188 14.7784V5.09375C4.92188 4.83268 5.02559 4.5823 5.21019 4.39769C5.3948 4.21309 5.64518 4.10938 5.90625 4.10938H16.0781V14.6094Z" fill="#6E778A"/>
</svg>
