<svg width="120" height="120" viewBox="0 0 120 120" fill="none" xmlns="http://www.w3.org/2000/svg">
<g clip-path="url(#clip0_309_39)">
<path d="M0 0H119.69V119.69H0V0Z" fill="url(#paint0_linear_309_39)"/>
<path d="M79.733 43.3341L71.3797 33.3194C70.6138 32.4139 69.6078 31.7433 68.4775 31.3843V43.7585H80.0221C79.9347 43.6205 79.8415 43.472 79.733 43.3341Z" fill="white"/>
<path d="M68.4773 48.0023C67.3518 48.0023 66.2722 47.5548 65.4766 46.7594C64.6807 45.9634 64.2337 44.8843 64.2337 43.7587V31.0281H45.1374C43.4492 31.0281 41.8304 31.6988 40.6365 32.8922C39.4431 34.0861 38.7725 35.7054 38.7725 37.3931V84.0718C38.7725 85.76 39.4431 87.3788 40.6365 88.5727C41.8305 89.7661 43.4492 90.4368 45.1374 90.4368H74.8425C76.5307 90.4368 78.1495 89.7661 79.3434 88.5727C80.5368 87.3788 81.2075 85.76 81.2075 84.0718V48.0018L68.4773 48.0023ZM49.381 45.8803H53.6245C54.3826 45.8803 55.0832 46.2846 55.4623 46.9416C55.8414 47.598 55.8414 48.4066 55.4623 49.063C55.0833 49.7195 54.3826 50.1238 53.6245 50.1238H49.381C48.623 50.1238 47.9229 49.7195 47.5438 49.063C47.1647 48.4066 47.1647 47.598 47.5438 46.9416C47.9228 46.2846 48.623 45.8803 49.381 45.8803ZM70.5985 80.7199C69.3309 80.7162 68.1238 80.1766 67.2758 79.2344C67.1694 79.1238 67.0547 79.0217 66.932 78.929C66.7704 78.9985 66.6251 79.1028 66.5077 79.2344C65.6596 80.1777 64.4504 80.7168 63.1817 80.7168C61.9135 80.7168 60.7043 80.1777 59.8562 79.2344C59.7478 79.1244 59.6314 79.0222 59.5082 78.929C59.3414 78.9954 59.1924 79.1001 59.0729 79.2344C58.2232 80.1767 57.015 80.7163 55.7463 80.7199C54.9883 80.7199 54.2876 80.3156 53.9085 79.6586C53.5295 79.0022 53.5295 78.1936 53.9085 77.5371C54.2876 76.8807 54.9882 76.4764 55.7463 76.4764C55.8932 76.4001 56.0253 76.2979 56.1364 76.1747C56.9855 75.2319 58.1947 74.6939 59.4635 74.6939C60.7323 74.6939 61.9414 75.2319 62.7906 76.1747C62.8985 76.2848 63.0138 76.3869 63.1365 76.4806C63.2996 76.4132 63.4455 76.309 63.5608 76.1747C64.4083 75.2319 65.6165 74.6934 66.8846 74.6934C68.1522 74.6934 69.3609 75.2319 70.2079 76.1747C70.3137 76.2858 70.428 76.3879 70.5496 76.4806C71.115 76.479 71.6572 76.7012 72.0588 77.0991C72.46 77.4966 72.6874 78.0372 72.6905 78.602C72.6948 79.1606 72.4763 79.6975 72.0836 80.095C71.6914 80.4919 71.1571 80.7167 70.5985 80.7199ZM70.5985 69.2201H49.381C48.623 69.2201 47.9229 68.8153 47.5438 68.1588C47.1647 67.5023 47.1647 66.6938 47.5438 66.0373C47.9228 65.3809 48.623 64.9766 49.381 64.9766H70.5985C71.3566 64.9766 72.0572 65.3809 72.4358 66.0373C72.8148 66.6938 72.8148 67.5024 72.4358 68.1588C72.0573 68.8153 71.3566 69.2201 70.5985 69.2201ZM70.5985 60.7329H49.381C48.623 60.7329 47.9229 60.3281 47.5438 59.6717C47.1647 59.0152 47.1647 58.2066 47.5438 57.5502C47.9228 56.8937 48.623 56.4894 49.381 56.4894H70.5985C71.3566 56.4894 72.0572 56.8937 72.4358 57.5502C72.8148 58.2066 72.8148 59.0152 72.4358 59.6717C72.0573 60.3281 71.3566 60.7329 70.5985 60.7329Z" fill="white"/>
</g>
<defs>
<linearGradient id="paint0_linear_309_39" x1="59.845" y1="119.69" x2="59.845" y2="0" gradientUnits="userSpaceOnUse">
<stop stop-color="#E11D48"/>
<stop offset="0.58" stop-color="#BE123C"/>
</linearGradient>
<clipPath id="clip0_309_39">
<rect width="119.69" height="119.69" rx="59.845" fill="white"/>
</clipPath>
</defs>
</svg>
