<svg width="21" height="22" viewBox="0 0 21 22" fill="none" xmlns="http://www.w3.org/2000/svg">
<path d="M9.625 13.625H14.875V15.375H9.625V13.625ZM7.875 6.625H6.125V8.375H7.875V6.625ZM9.625 11.875H14.875V10.125H9.625V11.875ZM9.625 8.375H14.875V6.625H9.625V8.375ZM7.875 10.125H6.125V11.875H7.875V10.125ZM18.375 4.875V17.125C18.375 18.0875 17.5875 18.875 16.625 18.875H4.375C3.4125 18.875 2.625 18.0875 2.625 17.125V4.875C2.625 3.9125 3.4125 3.125 4.375 3.125H16.625C17.5875 3.125 18.375 3.9125 18.375 4.875ZM16.625 4.875H4.375V17.125H16.625V4.875ZM7.875 13.625H6.125V15.375H7.875V13.625Z" fill="#6E778A"/>
</svg>
