<svg width="21" height="22" viewBox="0 0 21 22" fill="none" xmlns="http://www.w3.org/2000/svg">
<path d="M15.3125 14.0625C15.3125 15.0337 14.5337 15.8125 13.5625 15.8125C12.5913 15.8125 11.8125 15.0337 11.8125 14.0625C11.8125 13.0913 12.6 12.3125 13.5625 12.3125C14.525 12.3125 15.3125 13.1 15.3125 14.0625ZM7.4375 12.3125C6.475 12.3125 5.6875 13.1 5.6875 14.0625C5.6875 15.025 6.475 15.8125 7.4375 15.8125C8.4 15.8125 9.1875 15.0337 9.1875 14.0625C9.1875 13.0913 8.40875 12.3125 7.4375 12.3125ZM20.125 13.625V16.25C20.125 16.7312 19.7313 17.125 19.25 17.125H18.375V18C18.375 18.9713 17.5963 19.75 16.625 19.75H4.375C3.91087 19.75 3.46575 19.5656 3.13756 19.2374C2.80937 18.9092 2.625 18.4641 2.625 18V17.125H1.75C1.26875 17.125 0.875 16.7312 0.875 16.25V13.625C0.875 13.1438 1.26875 12.75 1.75 12.75H2.625C2.625 9.36375 5.36375 6.625 8.75 6.625H9.625V5.51375C9.1 5.21625 8.75 4.6475 8.75 4C8.75 3.0375 9.5375 2.25 10.5 2.25C11.4625 2.25 12.25 3.0375 12.25 4C12.25 4.6475 11.9 5.21625 11.375 5.51375V6.625H12.25C15.6362 6.625 18.375 9.36375 18.375 12.75H19.25C19.7313 12.75 20.125 13.1438 20.125 13.625ZM18.375 14.5H16.625V12.75C16.625 10.335 14.665 8.375 12.25 8.375H8.75C6.335 8.375 4.375 10.335 4.375 12.75V14.5H2.625V15.375H4.375V18H16.625V15.375H18.375V14.5Z" fill="#6E778A"/>
</svg>