<svg width="21" height="22" viewBox="0 0 21 22" fill="none" xmlns="http://www.w3.org/2000/svg">
<path d="M18.3299 3.78709C18.3205 3.62654 18.2525 3.47502 18.1388 3.36131C18.0251 3.24759 17.8736 3.17959 17.713 3.17021C11.468 2.80353 6.4657 4.68369 4.33289 8.21103C3.5936 9.41764 3.22929 10.8166 3.28617 12.2306C3.3233 13.1347 3.50727 14.0269 3.83086 14.872C3.84987 14.924 3.88174 14.9703 3.92349 15.0067C3.96525 15.0431 4.01553 15.0683 4.06965 15.08C4.12378 15.0917 4.17999 15.0895 4.23304 15.0737C4.2861 15.0578 4.33427 15.0288 4.37309 14.9893L11.3457 7.90998C11.4067 7.84901 11.4791 7.80064 11.5588 7.76764C11.6384 7.73464 11.7238 7.71766 11.81 7.71766C11.8963 7.71766 11.9817 7.73464 12.0613 7.76764C12.141 7.80064 12.2134 7.84901 12.2743 7.90998C12.3353 7.97095 12.3837 8.04333 12.4167 8.123C12.4497 8.20266 12.4667 8.28805 12.4667 8.37427C12.4667 8.4605 12.4497 8.54589 12.4167 8.62555C12.3837 8.70521 12.3353 8.7776 12.2743 8.83857L4.65445 16.5733L3.49043 17.7373C3.36937 17.8552 3.2971 18.0143 3.28798 18.183C3.27886 18.3517 3.33356 18.5176 3.44121 18.6479C3.50016 18.7161 3.57256 18.7715 3.65387 18.8106C3.73519 18.8496 3.82368 18.8715 3.91382 18.8748C4.00396 18.8781 4.09381 18.8628 4.17777 18.8298C4.26173 18.7968 4.33799 18.7469 4.4018 18.6831L5.7791 17.3058C6.93902 17.8669 8.10961 18.1729 9.27035 18.2139C9.36168 18.2172 9.45273 18.2188 9.54351 18.2188C10.8654 18.2222 12.1621 17.8581 13.2891 17.1672C16.8164 15.0344 18.6974 10.0329 18.3299 3.78709Z" fill="#6E778A"/>
</svg>
