<svg width="40" height="40" viewBox="0 0 40 40" fill="none" xmlns="http://www.w3.org/2000/svg">
<path d="M0 20C0 8.95431 8.95431 0 20 0V0C31.0457 0 40 8.95431 40 20V20C40 31.0457 31.0457 40 20 40V40C8.95431 40 0 31.0457 0 20V20Z" fill="url(#paint0_linear_301_2)"/>
<mask id="mask0_301_2" style="mask-type:luminance" maskUnits="userSpaceOnUse" x="4" y="4" width="32" height="32">
<path d="M35.5 4.5H4.5V35.5H35.5V4.5Z" fill="white"/>
</mask>
<g mask="url(#mask0_301_2)">
<mask id="mask1_301_2" style="mask-type:luminance" maskUnits="userSpaceOnUse" x="4" y="7" width="32" height="26">
<path d="M4.74756 7.28516H35.2517V32.7148H4.74756V7.28516Z" fill="white"/>
</mask>
<g mask="url(#mask1_301_2)">
<path fill-rule="evenodd" clip-rule="evenodd" d="M8.03959 12.4936C7.77966 12.6119 7.55663 12.8067 7.42395 13.0721L4.88195 18.1536C4.55769 18.8018 4.84032 19.5894 5.50255 19.8839L7.2899 20.6783V26.3506C7.2899 26.8529 7.58553 27.3082 8.04461 27.5124L19.4862 32.5964C19.8142 32.7419 20.1884 32.7419 20.5164 32.5964L31.9555 27.5124C32.4144 27.3083 32.7103 26.8529 32.71 26.3504V20.6781L34.4974 19.8837C35.1596 19.5892 35.4422 18.8017 35.118 18.1534L32.576 13.0719C32.4442 12.8087 32.2233 12.6148 31.9653 12.496L20.5165 7.39707C20.3609 7.32801 20.1927 7.29088 20.0224 7.2878C19.837 7.28449 19.6532 7.32186 19.4836 7.39707L8.03959 12.4936ZM20 9.9516V17.3341L11.6912 13.6426L20 9.9516ZM9.15426 15.2937L18.2672 19.3451L16.8623 22.1527L7.74939 18.1039L9.15426 15.2937ZM30.8458 15.2937L32.2509 18.1039L23.138 22.1527L21.7329 19.3451L30.8458 15.2937ZM9.83238 21.8079L16.9424 24.9679C17.5628 25.2425 18.2893 24.9811 18.593 24.3747L18.7297 24.1016V29.4784L9.83237 25.524L9.83238 21.8079ZM30.1683 21.8079V25.5242L21.2709 29.4786V24.1018L21.4074 24.3749C21.711 24.9816 22.4379 25.2427 23.0582 24.9683L30.1683 21.8079Z" fill="white"/>
</g>
</g>
<defs>
<linearGradient id="paint0_linear_301_2" x1="20" y1="40" x2="20" y2="0" gradientUnits="userSpaceOnUse">
<stop stop-color="#1D76F2"/>
<stop offset="1" stop-color="#3730A3"/>
</linearGradient>
</defs>
</svg>
