<svg width="21" height="22" viewBox="0 0 21 22" fill="none" xmlns="http://www.w3.org/2000/svg">
<g clip-path="url(#clip0_1362_1104)">
<path d="M14.3436 8.20841L14.233 8.20771C14.2181 8.20748 14.2106 8.21471 14.2106 8.22941L14.2096 8.60321C14.2098 8.61113 14.2128 8.61872 14.218 8.62462C14.2233 8.63052 14.2305 8.63434 14.2384 8.6354C14.2462 8.63645 14.2542 8.63467 14.2609 8.63037C14.2675 8.62608 14.2724 8.61955 14.2747 8.61196C14.3342 8.39006 14.5809 8.38131 14.6331 8.61021C14.6347 8.61794 14.6392 8.62478 14.6456 8.6294C14.652 8.63403 14.6599 8.63611 14.6677 8.63523C14.6756 8.63436 14.6828 8.6306 14.6881 8.62468C14.6933 8.61876 14.6962 8.61111 14.6961 8.60321L14.6975 8.22871C14.6975 8.21471 14.6904 8.20771 14.6761 8.20771L14.5519 8.20841C14.5374 8.20864 14.5302 8.20153 14.5302 8.18706L14.5291 6.97256C14.529 6.96705 14.5311 6.96172 14.535 6.95773C14.5389 6.95373 14.5442 6.95139 14.5498 6.95121L14.6835 6.94876C14.6898 6.94867 14.6959 6.94681 14.7011 6.94339C14.7064 6.93997 14.7106 6.93513 14.7133 6.92941C14.7159 6.92369 14.7169 6.91732 14.7162 6.91103C14.7154 6.90474 14.713 6.89877 14.709 6.89381L14.5144 6.65266C14.5063 6.64286 14.5053 6.63236 14.5116 6.62116C14.5499 6.55279 14.5565 6.47952 14.5316 6.40136C14.5299 6.39576 14.5264 6.39085 14.5217 6.38733C14.517 6.3838 14.5112 6.38185 14.5053 6.38176L14.3146 6.38001C14.3022 6.38001 14.2923 6.37522 14.2848 6.36566L13.0378 4.81446C13.0341 4.80978 13.0292 4.80615 13.0236 4.80394C13.018 4.80173 13.0119 4.80101 13.0059 4.80186C12.2005 4.91153 11.3951 5.02154 10.5899 5.13191C10.5559 5.13681 10.4964 5.13121 10.4642 5.16131C10.4616 5.16378 10.4595 5.16675 10.458 5.17004C10.4565 5.17334 10.4557 5.1769 10.4556 5.18051C10.4555 5.18413 10.4561 5.18773 10.4574 5.1911C10.4587 5.19447 10.4607 5.19755 10.4632 5.20016L10.9794 5.73356C10.984 5.73815 10.9897 5.74146 10.996 5.74318C11.0022 5.7449 11.0088 5.74496 11.0151 5.74336C12.1495 5.45286 13.3052 5.96246 13.9264 6.93301C13.933 6.94304 13.9422 6.94806 13.9541 6.94806L14.3408 6.94876C14.3579 6.94876 14.3664 6.95739 14.3664 6.97466L14.3639 8.18811C14.3639 8.20164 14.3572 8.20841 14.3436 8.20841Z" stroke="#B5A6DE" stroke-width="2"/>
<path d="M11.1517 5.96037L10.9172 6.54102C10.9114 6.55572 10.9161 6.56143 10.9315 6.55817C11.914 6.34257 12.8754 6.70587 13.4015 7.56197C13.4029 7.56435 13.4049 7.56627 13.4074 7.56753C13.4098 7.56878 13.4126 7.56931 13.4154 7.56905C13.4181 7.5688 13.4208 7.56777 13.4231 7.56608C13.4253 7.5644 13.427 7.56212 13.4281 7.55952L13.6636 6.97117C13.6676 6.96145 13.669 6.95085 13.6676 6.94037C13.6663 6.92989 13.6623 6.91989 13.6559 6.91132C13.0819 6.13782 12.1705 5.75737 11.2049 5.91767C11.1931 5.91969 11.1821 5.92467 11.1728 5.93214C11.1635 5.93961 11.1562 5.94932 11.1517 5.96037Z" stroke="#B5A6DE" stroke-width="2"/>
<path d="M7.27284 11.6548C7.26792 11.6548 7.2632 11.6529 7.25972 11.6494C7.25624 11.6459 7.25429 11.6412 7.25429 11.6363C7.25452 10.3688 7.25452 9.09938 7.25429 7.82795C7.25429 7.67862 7.23924 7.56113 7.20914 7.4755C7.07194 7.0877 6.72824 6.82485 6.30999 6.81855C6.29669 6.81832 6.29004 6.82485 6.29004 6.83815C6.29027 8.44115 6.29109 10.0443 6.29249 11.6475C6.29284 12.1956 6.71984 12.6033 7.26269 12.6117C7.48856 12.6152 7.71431 12.6172 7.93994 12.6177C8.22461 12.6186 8.42399 12.5996 8.53809 12.5606C8.90454 12.435 9.18664 12.0741 9.18874 11.6723C9.18874 11.66 9.18256 11.6538 9.17019 11.6538L7.27284 11.6548Z" stroke="#B5A6DE" stroke-width="2"/>
<path d="M8.82765 12.6244C9.2144 12.5855 9.61515 12.6944 9.9809 12.532C10.2415 12.4163 10.4178 12.2205 10.5098 11.9447C10.5387 11.8581 10.5532 11.7458 10.5532 11.6076C10.552 10.6437 10.5548 9.67995 10.5616 8.71629C10.5632 8.46919 10.6492 8.2579 10.8195 8.08244C11.2255 7.66419 11.8933 7.68799 12.2717 8.13389C12.6801 8.61514 12.5128 9.33194 11.9553 9.61579C11.9203 9.63375 11.8339 9.66187 11.6963 9.70014C11.2675 9.81984 10.9483 10.2062 10.9637 10.6658C10.9639 10.671 10.9661 10.6759 10.9698 10.6794C10.9735 10.683 10.9785 10.685 10.9837 10.685C11.2476 10.6857 11.5437 10.7004 11.7841 10.663C12.5352 10.5464 13.1313 10.0487 13.3654 9.33019C13.6843 8.35264 13.1509 7.30089 12.2027 6.94284C11.1048 6.52879 9.90355 7.17209 9.64 8.31799C9.60874 8.45379 9.5931 8.6443 9.5931 8.88954C9.59334 9.67167 9.5945 10.4538 9.5966 11.2359C9.59754 11.5817 9.5805 11.8137 9.5455 11.9317C9.4461 12.2687 9.2053 12.4919 8.8231 12.6013C8.82041 12.6022 8.81816 12.6041 8.81674 12.6066C8.81533 12.6091 8.81486 12.612 8.81541 12.6148C8.81596 12.6176 8.8175 12.6201 8.81975 12.6219C8.822 12.6236 8.8248 12.6245 8.82765 12.6244Z" stroke="#B5A6DE" stroke-width="2"/>
<path d="M11.2655 14.1241C11.4072 14.1122 11.5871 14.1143 11.7026 14.1899C11.8734 14.3015 11.8871 14.5584 11.7537 14.7093C11.711 14.7576 11.6543 14.7726 11.5955 14.7971C11.4534 14.857 11.3649 14.9483 11.353 15.1114C11.352 15.1238 11.3577 15.1303 11.3701 15.131C11.8139 15.1541 12.1972 14.8976 12.1604 14.4146C12.1345 14.08 11.8811 13.8241 11.5248 13.8133C11.3015 13.8066 11.0873 13.7594 10.9561 13.9743C10.9262 14.0228 10.9113 14.0912 10.9113 14.1794C10.9103 14.7935 10.9105 15.4089 10.9116 16.0256C10.9116 16.0394 10.9185 16.0454 10.9323 16.0435C11.2042 16.0078 11.2459 15.8258 11.2448 15.5717C11.2434 15.1057 11.2428 14.6312 11.2431 14.1482C11.2431 14.1421 11.2454 14.1362 11.2495 14.1318C11.2537 14.1273 11.2594 14.1245 11.2655 14.1241Z" stroke="#B5A6DE" stroke-width="2"/>
<path d="M4.15512 15.7099C4.15162 15.2626 4.15104 14.8155 4.15337 14.3684C4.15512 14.0677 4.16737 13.891 3.86077 13.8017C3.85624 13.8004 3.85146 13.8001 3.8468 13.801C3.84215 13.8018 3.83774 13.8037 3.83394 13.8066C3.83013 13.8094 3.82704 13.8131 3.82489 13.8174C3.82274 13.8217 3.82161 13.8264 3.82157 13.8311C3.82064 14.4271 3.82006 15.0274 3.81982 15.6322C3.81982 16.0638 4.11032 16.0694 4.46067 16.0421C4.63882 16.0281 4.77847 15.9469 4.80367 15.767C4.80764 15.7397 4.79586 15.7262 4.76832 15.7264L4.17507 15.7295C4.16177 15.7295 4.15512 15.723 4.15512 15.7099Z" stroke="#B5A6DE" stroke-width="2"/>
<path d="M5.27867 15.375L6.25552 15.3754C6.26555 15.3754 6.27104 15.3705 6.27197 15.3607C6.30767 14.9837 6.11342 14.6036 5.70567 14.5609C5.42241 14.5313 5.20972 14.6152 5.06762 14.8126C4.85902 15.1027 4.87092 15.5637 5.10857 15.8367C5.18884 15.9288 5.28252 15.9877 5.38962 16.0134C5.77906 16.1067 6.07306 15.9872 6.27162 15.6547C6.27956 15.6416 6.27687 15.6313 6.26357 15.6239L6.03152 15.493C6.02615 15.49 6.01984 15.4892 6.01391 15.4908C6.00797 15.4923 6.00287 15.4961 5.99967 15.5014C5.91042 15.647 5.80752 15.7614 5.62657 15.7555C5.41482 15.7481 5.27797 15.5994 5.26467 15.3897C5.26397 15.3799 5.26864 15.375 5.27867 15.375Z" stroke="#B5A6DE" stroke-width="2"/>
<path d="M7.59069 15.8969L7.58474 15.9872C7.58381 16.0005 7.58999 16.0071 7.60329 16.0071L7.88994 16.0085C7.90207 16.0085 7.90814 16.0023 7.90814 15.99L7.90674 14.6103C7.90651 14.5984 7.90055 14.5924 7.88889 14.5924H7.60469C7.59092 14.5922 7.58439 14.599 7.58509 14.6127L7.59034 14.7195C7.59052 14.7224 7.58989 14.7253 7.58851 14.728C7.58714 14.7306 7.58508 14.7327 7.58255 14.7343C7.58002 14.7358 7.57713 14.7366 7.57418 14.7366C7.57124 14.7365 7.56835 14.7357 7.56584 14.7342C7.51614 14.7041 7.46889 14.6498 7.42164 14.6278C6.58269 14.2323 6.13539 15.4961 6.79969 15.9392C7.03372 16.0951 7.28934 16.0764 7.56654 15.8832C7.58404 15.8711 7.59209 15.8756 7.59069 15.8969Z" stroke="#B5A6DE" stroke-width="2"/>
<path d="M13.7651 15.375L14.7266 15.3757C14.7382 15.3757 14.7448 15.3698 14.7462 15.3579C14.7819 15.0635 14.6629 14.7391 14.3818 14.6155C14.1683 14.5217 13.9013 14.5343 13.7039 14.6617C13.468 14.8136 13.3738 15.1269 13.4057 15.4006C13.4921 16.1457 14.3983 16.2749 14.7507 15.6526C14.7575 15.6404 14.7548 15.6309 14.7427 15.6239L14.5113 15.493C14.5065 15.4903 14.5008 15.4894 14.4954 15.4905C14.49 15.4916 14.4852 15.4946 14.4819 15.4989C14.442 15.5511 14.4032 15.6165 14.3622 15.6557C14.1316 15.8762 13.7557 15.7229 13.7515 15.3887C13.7512 15.3796 13.7558 15.375 13.7651 15.375Z" stroke="#B5A6DE" stroke-width="2"/>
<path d="M15.4982 15.0894C15.1734 14.9595 15.4863 14.6998 15.612 14.9543C15.6132 14.9569 15.615 14.9591 15.6172 14.961C15.6193 14.9628 15.6218 14.9642 15.6246 14.9651C15.6273 14.9659 15.6301 14.9662 15.633 14.9659C15.6358 14.9656 15.6386 14.9648 15.641 14.9634L15.8671 14.8433C15.8762 14.8384 15.8789 14.8312 15.8752 14.8216C15.7565 14.5259 15.3834 14.4688 15.1734 14.676C15.0089 14.8381 14.997 15.1597 15.2179 15.2857C15.2639 15.3119 15.372 15.3667 15.5423 15.4502C15.655 15.5055 15.68 15.5922 15.6172 15.7103C15.6114 15.721 15.6028 15.7283 15.5913 15.732C15.4385 15.7838 15.3311 15.7377 15.269 15.5937C15.2625 15.5786 15.2517 15.5744 15.2368 15.5811L14.9995 15.6868C14.9864 15.6927 14.9826 15.7021 14.9879 15.7152C15.2322 16.3144 16.1716 16.0169 15.9469 15.4128C15.8913 15.263 15.6368 15.145 15.4982 15.0894Z" stroke="#B5A6DE" stroke-width="2"/>
<path d="M16.8293 15.1513C16.7432 15.1132 16.5566 15.0565 16.5612 14.9371C16.5626 14.9014 16.5774 14.876 16.6056 14.8608C16.6907 14.8146 16.7813 14.879 16.8177 14.9571C16.8188 14.9593 16.8202 14.9614 16.8221 14.963C16.824 14.9647 16.8261 14.966 16.8285 14.9667C16.8309 14.9675 16.8334 14.9678 16.8358 14.9676C16.8383 14.9674 16.8407 14.9667 16.8429 14.9655L17.0729 14.8419C17.0817 14.837 17.0843 14.8298 17.0806 14.8202C16.9346 14.4713 16.445 14.4713 16.2945 14.7887C16.2123 14.9614 16.2313 15.1071 16.3515 15.2259C16.4716 15.3449 16.7533 15.396 16.8328 15.5328C16.964 15.7593 16.5853 15.8527 16.4726 15.5962C16.4712 15.5929 16.4691 15.59 16.4665 15.5876C16.464 15.5851 16.4609 15.5832 16.4576 15.5819C16.4543 15.5807 16.4507 15.5801 16.4472 15.5802C16.4436 15.5803 16.4402 15.5811 16.4369 15.5825L16.2024 15.6879C16.1905 15.6932 16.1871 15.702 16.1923 15.7141C16.3732 16.1513 17.0179 16.1635 17.1684 15.7012C17.2615 15.4163 17.062 15.2546 16.8293 15.1513Z" stroke="#B5A6DE" stroke-width="2"/>
<path d="M8.47144 14.7275L8.46934 14.6554C8.46887 14.643 8.46257 14.637 8.45044 14.6372L8.17604 14.639C8.16041 14.6392 8.15259 14.6471 8.15259 14.6628V16.018C8.15259 16.0341 8.16064 16.0421 8.17674 16.0421L8.44974 16.0435C8.45231 16.0435 8.45486 16.043 8.45724 16.042C8.45962 16.041 8.46178 16.0395 8.4636 16.0377C8.46542 16.0358 8.46686 16.0336 8.46785 16.0312C8.46883 16.0288 8.46934 16.0262 8.46934 16.0236C8.4705 15.7914 8.47202 15.5576 8.47389 15.3222C8.47564 15.0639 8.59884 14.7755 8.90824 14.9631C8.91944 14.9698 8.92795 14.9674 8.93379 14.9557L9.06224 14.6988C9.06761 14.6878 9.06527 14.6791 9.05524 14.6726C8.92737 14.5893 8.79344 14.5735 8.65344 14.6253C8.59254 14.6477 8.54984 14.6985 8.49734 14.7398C8.49499 14.7416 8.49219 14.7427 8.48924 14.743C8.4863 14.7433 8.48332 14.7428 8.48065 14.7415C8.47797 14.7403 8.47569 14.7383 8.47407 14.7358C8.47244 14.7333 8.47153 14.7305 8.47144 14.7275Z" stroke="#B5A6DE" stroke-width="2"/>
<path d="M9.63052 14.7342L9.62877 14.6628C9.62872 14.6595 9.62805 14.6564 9.62677 14.6534C9.6255 14.6505 9.62366 14.6478 9.62135 14.6455C9.61904 14.6433 9.61631 14.6415 9.61332 14.6403C9.61033 14.6392 9.60714 14.6386 9.60392 14.6386L9.32777 14.6393C9.31564 14.6393 9.30957 14.6453 9.30957 14.6572L9.31027 16.0141C9.31027 16.0314 9.31902 16.04 9.33652 16.04L9.60777 16.0411C9.61057 16.0411 9.61336 16.0406 9.61597 16.0395C9.61857 16.0385 9.62095 16.0369 9.62297 16.035C9.62498 16.033 9.62659 16.0306 9.62771 16.028C9.62883 16.0254 9.62942 16.0226 9.62947 16.0197C9.6318 15.7815 9.63145 15.5432 9.62842 15.305C9.62562 15.0611 9.72747 14.8241 10.0141 14.885C10.1867 14.9218 10.1975 15.1311 10.1975 15.2725C10.1971 15.52 10.1976 15.769 10.1993 16.0194C10.1995 16.0327 10.2063 16.0394 10.2196 16.0397L10.4996 16.0421C10.5044 16.0421 10.5091 16.0402 10.5126 16.0369C10.516 16.0336 10.518 16.029 10.5181 16.0243C10.5207 15.7725 10.5208 15.5206 10.5185 15.2686C10.5166 15.0705 10.4991 14.9333 10.466 14.857C10.3284 14.5382 9.89197 14.5228 9.65607 14.745C9.65395 14.7471 9.65126 14.7485 9.64834 14.749C9.64543 14.7496 9.64242 14.7492 9.63969 14.7481C9.63696 14.7469 9.63463 14.745 9.633 14.7425C9.63137 14.74 9.63051 14.7371 9.63052 14.7342Z" stroke="#B5A6DE" stroke-width="2"/>
<path d="M12.7063 14.7268L12.7042 14.6596C12.704 14.6536 12.7014 14.648 12.697 14.6438C12.6926 14.6397 12.6868 14.6374 12.6807 14.6375L12.399 14.6393C12.3871 14.6393 12.3811 14.6452 12.3811 14.6571V16.0221C12.3811 16.0272 12.3831 16.0321 12.3867 16.0358C12.3904 16.0394 12.3952 16.0414 12.4004 16.0414L12.6818 16.0438C12.6967 16.0438 12.7042 16.0365 12.7042 16.0218C12.7065 15.7887 12.7073 15.5555 12.7066 15.3221C12.7061 15.1796 12.7163 15.0913 12.7371 15.0572C12.8353 14.8962 12.9678 14.8642 13.1347 14.9613C13.1468 14.9681 13.1559 14.9653 13.162 14.9529L13.2887 14.6988C13.2952 14.6857 13.292 14.6756 13.2792 14.6683C13.0736 14.551 12.8897 14.5733 12.7273 14.7352C12.7256 14.7369 12.7234 14.7381 12.721 14.7386C12.7187 14.7391 12.7162 14.7389 12.714 14.738C12.7117 14.7371 12.7098 14.7356 12.7084 14.7336C12.707 14.7316 12.7063 14.7292 12.7063 14.7268Z" stroke="#B5A6DE" stroke-width="2"/>
<path d="M14.5194 6.49517C14.5194 6.48217 14.5142 6.46971 14.505 6.46052C14.4958 6.45133 14.4834 6.44617 14.4704 6.44617C14.4574 6.44617 14.4449 6.45133 14.4357 6.46052C14.4265 6.46971 14.4214 6.48217 14.4214 6.49517C14.4214 6.50816 14.4265 6.52063 14.4357 6.52982C14.4449 6.539 14.4574 6.54417 14.4704 6.54417C14.4834 6.54417 14.4958 6.539 14.505 6.52982C14.5142 6.52063 14.5194 6.50816 14.5194 6.49517Z" stroke="#B5A6DE" stroke-width="2"/>
<path d="M14.455 6.81049C14.455 6.78292 14.444 6.75648 14.4245 6.73699C14.405 6.71749 14.3786 6.70654 14.351 6.70654C14.3235 6.70654 14.297 6.71749 14.2775 6.73699C14.258 6.75648 14.2471 6.78292 14.2471 6.81049C14.2471 6.83806 14.258 6.8645 14.2775 6.884C14.297 6.90349 14.3235 6.91444 14.351 6.91444C14.3786 6.91444 14.405 6.90349 14.4245 6.884C14.444 6.8645 14.455 6.83806 14.455 6.81049Z" stroke="#B5A6DE" stroke-width="2"/>
<path d="M5.30059 15.1097L5.92919 15.1111C5.9303 15.1111 5.93137 15.1107 5.93216 15.1099C5.93294 15.1091 5.93339 15.108 5.93339 15.1069V15.1055C5.93356 15.0381 5.90087 14.9734 5.84252 14.9256C5.78417 14.8779 5.70493 14.8509 5.62224 14.8507H5.60894C5.56798 14.8506 5.5274 14.8571 5.48953 14.8698C5.45165 14.8825 5.41722 14.9011 5.3882 14.9246C5.35917 14.9482 5.33613 14.9761 5.32037 15.0069C5.30462 15.0377 5.29647 15.0707 5.29639 15.1041V15.1055C5.29639 15.1066 5.29683 15.1077 5.29762 15.1085C5.2984 15.1093 5.29947 15.1097 5.30059 15.1097Z" stroke="#B5A6DE" stroke-width="2"/>
<path d="M7.20584 15.7593C7.31286 15.7598 7.41576 15.7121 7.49189 15.6265C7.56802 15.5409 7.61114 15.4245 7.61178 15.3029C7.61242 15.1813 7.57051 15.0645 7.49528 14.9781C7.42005 14.8917 7.31767 14.8429 7.21064 14.8423C7.10361 14.8417 7.00072 14.8895 6.92459 14.9751C6.84846 15.0607 6.80533 15.1771 6.80469 15.2987C6.80406 15.4203 6.84596 15.5371 6.92119 15.6235C6.99642 15.7099 7.09881 15.7587 7.20584 15.7593Z" stroke="#B5A6DE" stroke-width="2"/>
<path d="M13.7758 15.11H14.4135C14.4137 15.11 14.4139 15.11 14.414 15.1098C14.4142 15.1097 14.4142 15.1095 14.4142 15.1093V15.1072C14.4142 15.0391 14.3811 14.9738 14.322 14.9256C14.2629 14.8774 14.1828 14.8503 14.0992 14.8503H14.0901C14.0066 14.8503 13.9265 14.8774 13.8674 14.9256C13.8083 14.9738 13.7751 15.0391 13.7751 15.1072V15.1093C13.7751 15.1095 13.7752 15.1097 13.7754 15.1098C13.7755 15.11 13.7757 15.11 13.7758 15.11Z" stroke="#B5A6DE" stroke-width="2"/>
<path d="M10.2946 0.5H10.6407C12.1765 0.527767 13.6123 0.856183 14.9481 1.48525C18.5615 3.1873 20.8772 6.7363 21 10.7424V11.1844C20.9293 13.626 20.1378 15.7791 18.6256 17.6437C16.695 20.0234 13.8205 21.4041 10.7674 21.5H10.2998C7.17955 21.423 4.26685 20.0072 2.33135 17.594C0.84175 15.7367 0.0646333 13.5985 0 11.1796V10.7371C0.0996333 8.08112 1.03075 5.79235 2.79335 3.87085C4.71695 1.77365 7.4431 0.57035 10.2946 0.5ZM14.3437 8.2084L14.2331 8.2077C14.2182 8.20747 14.2107 8.2147 14.2107 8.2294L14.2096 8.6032C14.2098 8.61112 14.2128 8.61871 14.2181 8.62461C14.2234 8.63051 14.2306 8.63433 14.2385 8.63539C14.2463 8.63644 14.2543 8.63466 14.2609 8.63036C14.2676 8.62607 14.2725 8.61954 14.2748 8.61195C14.3343 8.39005 14.581 8.3813 14.6331 8.6102C14.6348 8.61793 14.6393 8.62477 14.6457 8.62939C14.6521 8.63402 14.66 8.6361 14.6678 8.63522C14.6757 8.63435 14.6829 8.63059 14.6882 8.62467C14.6934 8.61875 14.6962 8.6111 14.6962 8.6032L14.6975 8.2287C14.6975 8.2147 14.6904 8.2077 14.6762 8.2077L14.5519 8.2084C14.5375 8.20863 14.5302 8.20152 14.5302 8.18705L14.5292 6.97255C14.5291 6.96704 14.5312 6.96171 14.5351 6.95772C14.5389 6.95373 14.5443 6.95138 14.5498 6.9512L14.6836 6.94875C14.6898 6.94866 14.696 6.9468 14.7012 6.94338C14.7065 6.93996 14.7107 6.93512 14.7133 6.9294C14.716 6.92368 14.717 6.91732 14.7163 6.91102C14.7155 6.90473 14.713 6.89877 14.7091 6.8938L14.5145 6.65265C14.5063 6.64285 14.5054 6.63235 14.5117 6.62115C14.55 6.55278 14.5566 6.47952 14.5317 6.40135C14.5299 6.39575 14.5265 6.39084 14.5218 6.38732C14.5171 6.3838 14.5113 6.38185 14.5054 6.38175L14.3146 6.38C14.3023 6.38 14.2924 6.37522 14.2849 6.36565L13.0379 4.81445C13.0341 4.80977 13.0292 4.80614 13.0236 4.80393C13.0181 4.80172 13.012 4.801 13.006 4.80185C12.2005 4.91152 11.3952 5.02153 10.59 5.1319C10.556 5.1368 10.4965 5.1312 10.4643 5.1613C10.4617 5.16377 10.4595 5.16674 10.458 5.17004C10.4566 5.17333 10.4558 5.17689 10.4557 5.18051C10.4556 5.18412 10.4562 5.18772 10.4575 5.19109C10.4588 5.19446 10.4607 5.19754 10.4633 5.20015L10.9795 5.73355C10.9841 5.73814 10.9898 5.74145 10.9961 5.74317C11.0023 5.74489 11.0089 5.74495 11.0152 5.74335C12.1496 5.45285 13.3052 5.96245 13.9265 6.933C13.933 6.94303 13.9423 6.94805 13.9542 6.94805L14.3409 6.94875C14.3579 6.94875 14.3665 6.95738 14.3665 6.97465L14.364 8.1881C14.364 8.20163 14.3572 8.2084 14.3437 8.2084ZM11.1517 5.96035L10.9172 6.541C10.9114 6.5557 10.9161 6.56142 10.9315 6.55815C11.914 6.34255 12.8754 6.70585 13.4015 7.56195C13.4029 7.56433 13.4049 7.56626 13.4074 7.56751C13.4098 7.56876 13.4126 7.56929 13.4154 7.56904C13.4181 7.56878 13.4208 7.56775 13.4231 7.56607C13.4253 7.56438 13.4271 7.56211 13.4281 7.5595L13.6637 6.97115C13.6676 6.96144 13.669 6.95083 13.6676 6.94035C13.6663 6.92988 13.6623 6.91987 13.656 6.9113C13.082 6.1378 12.1706 5.75735 11.2049 5.91765C11.1931 5.91967 11.1821 5.92465 11.1728 5.93212C11.1635 5.93959 11.1562 5.9493 11.1517 5.96035ZM7.273 11.6548C7.26808 11.6548 7.26336 11.6529 7.25988 11.6494C7.2564 11.6459 7.25445 11.6412 7.25445 11.6363C7.25468 10.3688 7.25468 9.09938 7.25445 7.82795C7.25445 7.67862 7.2394 7.56113 7.2093 7.4755C7.0721 7.0877 6.7284 6.82485 6.31015 6.81855C6.29685 6.81832 6.2902 6.82485 6.2902 6.83815C6.29043 8.44115 6.29125 10.0443 6.29265 11.6475C6.293 12.1956 6.72 12.6033 7.26285 12.6117C7.48872 12.6152 7.71447 12.6172 7.9401 12.6177C8.22477 12.6186 8.42415 12.5996 8.53825 12.5606C8.9047 12.435 9.1868 12.0741 9.1889 11.6723C9.1889 11.66 9.18272 11.6538 9.17035 11.6538L7.273 11.6548ZM8.8277 12.6244C9.21445 12.5855 9.6152 12.6943 9.98095 12.5319C10.2416 12.4162 10.4179 12.2204 10.5098 11.9446C10.5387 11.8581 10.5532 11.7457 10.5532 11.6076C10.552 10.6437 10.5548 9.67992 10.5616 8.71625C10.5632 8.46915 10.6492 8.25787 10.8196 8.0824C11.2256 7.66415 11.8933 7.68795 12.2717 8.13385C12.6801 8.6151 12.5128 9.3319 11.9553 9.61575C11.9203 9.63372 11.834 9.66183 11.6963 9.7001C11.2675 9.8198 10.9484 10.2062 10.9638 10.6658C10.9639 10.6709 10.9661 10.6758 10.9698 10.6794C10.9736 10.683 10.9785 10.685 10.9837 10.685C11.2476 10.6857 11.5437 10.7004 11.7842 10.6629C12.5353 10.5464 13.1313 10.0487 13.3654 9.33015C13.6843 8.3526 13.1509 7.30085 12.2027 6.9428C11.1048 6.52875 9.9036 7.17205 9.64005 8.31795C9.60878 8.45375 9.59315 8.64427 9.59315 8.8895C9.59338 9.67163 9.59455 10.4538 9.59665 11.2359C9.59758 11.5817 9.58055 11.8136 9.54555 11.9317C9.44615 12.2686 9.20535 12.4918 8.82315 12.6013C8.82046 12.6022 8.8182 12.6041 8.81679 12.6066C8.81538 12.6091 8.81491 12.612 8.81546 12.6148C8.81601 12.6176 8.81755 12.6201 8.8198 12.6218C8.82204 12.6236 8.82485 12.6245 8.8277 12.6244ZM11.2654 14.1241C11.4072 14.1122 11.5871 14.1143 11.7026 14.1899C11.8734 14.3016 11.8871 14.5585 11.7537 14.7093C11.711 14.7576 11.6543 14.7726 11.5955 14.7971C11.4534 14.857 11.3648 14.9484 11.3529 15.1115C11.352 15.1238 11.3577 15.1304 11.3701 15.1311C11.8139 15.1542 12.1972 14.8976 12.1604 14.4146C12.1345 14.08 11.8811 13.8242 11.5248 13.8133C11.3015 13.8067 11.0873 13.7594 10.9561 13.9743C10.9262 14.0228 10.9113 14.0912 10.9113 14.1794C10.9103 14.7935 10.9104 15.4089 10.9116 16.0256C10.9116 16.0394 10.9185 16.0454 10.9323 16.0435C11.2042 16.0078 11.2459 15.8258 11.2448 15.5717C11.2434 15.1057 11.2428 14.6313 11.2431 14.1483C11.243 14.1421 11.2453 14.1362 11.2495 14.1318C11.2537 14.1273 11.2594 14.1245 11.2654 14.1241ZM4.1552 15.71C4.1517 15.2627 4.15112 14.8155 4.15345 14.3684C4.1552 14.0677 4.16745 13.891 3.86085 13.8017C3.85632 13.8004 3.85154 13.8001 3.84688 13.801C3.84222 13.8018 3.83782 13.8037 3.83401 13.8066C3.83021 13.8094 3.82711 13.8131 3.82497 13.8174C3.82282 13.8217 3.82169 13.8264 3.82165 13.8312C3.82072 14.4271 3.82013 15.0275 3.8199 15.6323C3.8199 16.0638 4.1104 16.0694 4.46075 16.0421C4.6389 16.0281 4.77855 15.9469 4.80375 15.767C4.80772 15.7397 4.79593 15.7262 4.7684 15.7264L4.17515 15.7296C4.16185 15.7296 4.1552 15.723 4.1552 15.71ZM5.2787 15.375L6.25555 15.3754C6.26558 15.3754 6.27107 15.3704 6.272 15.3606C6.3077 14.9837 6.11345 14.6036 5.7057 14.5609C5.42243 14.5313 5.20975 14.6151 5.06765 14.8125C4.85905 15.1027 4.87095 15.5637 5.1086 15.8367C5.18887 15.9288 5.28255 15.9877 5.38965 16.0134C5.77908 16.1067 6.07308 15.9871 6.27165 15.6546C6.27958 15.6416 6.2769 15.6313 6.2636 15.6238L6.03155 15.4929C6.02618 15.49 6.01987 15.4892 6.01394 15.4908C6.008 15.4923 6.0029 15.4961 5.9997 15.5013C5.91045 15.6469 5.80755 15.7614 5.6266 15.7554C5.41485 15.7481 5.278 15.5994 5.2647 15.3897C5.264 15.3799 5.26867 15.375 5.2787 15.375ZM7.5908 15.8969L7.58485 15.9871C7.58392 16.0004 7.5901 16.0071 7.6034 16.0071L7.89005 16.0085C7.90218 16.0085 7.90825 16.0023 7.90825 15.99L7.90685 14.6102C7.90662 14.5983 7.90067 14.5924 7.889 14.5924H7.6048C7.59103 14.5922 7.5845 14.5989 7.5852 14.6127L7.59045 14.7194C7.59063 14.7224 7.59 14.7253 7.58863 14.7279C7.58725 14.7305 7.58519 14.7327 7.58266 14.7342C7.58014 14.7358 7.57724 14.7365 7.57429 14.7365C7.57135 14.7365 7.56846 14.7357 7.56595 14.7342C7.51625 14.7041 7.469 14.6498 7.42175 14.6277C6.5828 14.2322 6.1355 15.4961 6.7998 15.9392C7.03383 16.0951 7.28945 16.0764 7.56665 15.8832C7.58415 15.8711 7.5922 15.8756 7.5908 15.8969ZM13.7652 15.375L14.7266 15.3757C14.7383 15.3757 14.7448 15.3698 14.7462 15.3579C14.7819 15.0635 14.6629 14.739 14.3819 14.6155C14.1684 14.5217 13.9013 14.5343 13.7039 14.6617C13.468 14.8136 13.3738 15.1269 13.4057 15.4006C13.4921 16.1457 14.3983 16.2748 14.7508 15.6525C14.7575 15.6404 14.7548 15.6308 14.7427 15.6238L14.5113 15.4929C14.5065 15.4903 14.5009 15.4894 14.4955 15.4905C14.4901 15.4916 14.4853 15.4946 14.4819 15.4989C14.442 15.5511 14.4032 15.6165 14.3623 15.6557C14.1316 15.8762 13.7557 15.7229 13.7515 15.3887C13.7513 15.3796 13.7558 15.375 13.7652 15.375ZM15.4983 15.0894C15.1735 14.9595 15.4864 14.6999 15.6121 14.9543C15.6134 14.9569 15.6151 14.9591 15.6173 14.961C15.6194 14.9628 15.622 14.9642 15.6247 14.9651C15.6274 14.9659 15.6303 14.9662 15.6331 14.9659C15.6359 14.9656 15.6387 14.9648 15.6412 14.9634L15.8673 14.8433C15.8764 14.8384 15.879 14.8312 15.8753 14.8217C15.7566 14.5259 15.3836 14.4689 15.1736 14.6761C15.0091 14.8381 14.9971 15.1598 15.218 15.2858C15.264 15.3119 15.3721 15.3667 15.5425 15.4502C15.6552 15.5055 15.6801 15.5922 15.6173 15.7103C15.6115 15.721 15.6029 15.7283 15.5915 15.732C15.4386 15.7838 15.3312 15.7377 15.2691 15.5938C15.2626 15.5786 15.2518 15.5744 15.2369 15.5812L14.9996 15.6869C14.9865 15.6927 14.9827 15.7021 14.9881 15.7152C15.2324 16.3144 16.1718 16.0169 15.9471 15.4128C15.8914 15.263 15.6369 15.145 15.4983 15.0894ZM16.8294 15.1513C16.7433 15.1132 16.5567 15.0565 16.5613 14.9371C16.5627 14.9014 16.5775 14.876 16.6058 14.8608C16.6908 14.8146 16.7815 14.879 16.8179 14.9571C16.8189 14.9594 16.8204 14.9614 16.8222 14.963C16.8241 14.9647 16.8263 14.966 16.8286 14.9668C16.831 14.9675 16.8335 14.9678 16.836 14.9676C16.8385 14.9674 16.8409 14.9667 16.8431 14.9655L17.073 14.8419C17.0819 14.837 17.0844 14.8298 17.0807 14.8202C16.9347 14.4713 16.4451 14.4713 16.2946 14.7888C16.2125 14.9614 16.2315 15.1071 16.3517 15.2259C16.4717 15.3449 16.7535 15.396 16.8329 15.5329C16.9642 15.7593 16.5854 15.8528 16.4727 15.5962C16.4713 15.593 16.4692 15.59 16.4667 15.5876C16.4641 15.5851 16.4611 15.5832 16.4577 15.582C16.4544 15.5807 16.4509 15.5801 16.4473 15.5802C16.4438 15.5803 16.4403 15.5811 16.4371 15.5825L16.2025 15.6879C16.1906 15.6933 16.1873 15.702 16.1924 15.7142C16.3734 16.1513 17.0181 16.1636 17.1686 15.7012C17.2617 15.4163 17.0621 15.2546 16.8294 15.1513ZM8.4714 14.7275L8.4693 14.6554C8.46883 14.643 8.46253 14.637 8.4504 14.6372L8.176 14.639C8.16037 14.6392 8.15255 14.6471 8.15255 14.6627V16.0179C8.15255 16.034 8.1606 16.0421 8.1767 16.0421L8.4497 16.0435C8.45227 16.0435 8.45482 16.043 8.4572 16.042C8.45958 16.041 8.46174 16.0395 8.46356 16.0377C8.46538 16.0358 8.46682 16.0336 8.46781 16.0312C8.46879 16.0288 8.4693 16.0262 8.4693 16.0236C8.47047 15.7914 8.47198 15.5576 8.47385 15.3221C8.4756 15.0638 8.5988 14.7755 8.9082 14.9631C8.9194 14.9698 8.92792 14.9674 8.93375 14.9557L9.0622 14.6988C9.06757 14.6878 9.06523 14.6791 9.0552 14.6725C8.92733 14.5892 8.7934 14.5735 8.6534 14.6253C8.5925 14.6477 8.5498 14.6985 8.4973 14.7398C8.49495 14.7416 8.49215 14.7427 8.48921 14.743C8.48626 14.7433 8.48329 14.7428 8.48061 14.7415C8.47793 14.7403 8.47565 14.7383 8.47403 14.7358C8.4724 14.7333 8.47149 14.7305 8.4714 14.7275ZM9.6306 14.7342L9.62885 14.6627C9.6288 14.6595 9.62813 14.6564 9.62685 14.6534C9.62558 14.6504 9.62373 14.6478 9.62143 14.6455C9.61912 14.6433 9.61639 14.6415 9.6134 14.6403C9.61041 14.6391 9.60722 14.6386 9.604 14.6386L9.32785 14.6393C9.31572 14.6393 9.30965 14.6452 9.30965 14.6571L9.31035 16.0141C9.31035 16.0314 9.3191 16.04 9.3366 16.04L9.60785 16.0411C9.61065 16.0411 9.61344 16.0406 9.61605 16.0395C9.61865 16.0385 9.62103 16.0369 9.62305 16.0349C9.62506 16.033 9.62667 16.0306 9.62779 16.028C9.62891 16.0254 9.6295 16.0225 9.62955 16.0197C9.63188 15.7815 9.63153 15.5432 9.6285 15.305C9.6257 15.0611 9.72755 14.8241 10.0142 14.885C10.1867 14.9218 10.1976 15.1311 10.1976 15.2725C10.1971 15.52 10.1977 15.769 10.1994 16.0194C10.1996 16.0327 10.2063 16.0394 10.2196 16.0396L10.4996 16.0421C10.5045 16.0421 10.5092 16.0402 10.5126 16.0369C10.5161 16.0336 10.5181 16.029 10.5182 16.0242C10.5208 15.7725 10.5209 15.5206 10.5186 15.2686C10.5167 15.0705 10.4992 14.9333 10.4661 14.857C10.3285 14.5382 9.89205 14.5228 9.65615 14.745C9.65403 14.7471 9.65134 14.7485 9.64842 14.749C9.64551 14.7496 9.6425 14.7492 9.63977 14.7481C9.63704 14.7469 9.63471 14.745 9.63308 14.7425C9.63145 14.74 9.63059 14.7371 9.6306 14.7342ZM12.7064 14.7268L12.7043 14.6596C12.7041 14.6536 12.7016 14.648 12.6972 14.6438C12.6928 14.6397 12.6869 14.6375 12.6808 14.6375L12.3991 14.6393C12.3872 14.6393 12.3813 14.6452 12.3813 14.6571V16.0221C12.3813 16.0273 12.3833 16.0322 12.3869 16.0358C12.3905 16.0394 12.3954 16.0414 12.4005 16.0414L12.6819 16.0438C12.6968 16.0438 12.7043 16.0365 12.7043 16.0218C12.7066 15.7887 12.7074 15.5555 12.7067 15.3221C12.7063 15.1796 12.7164 15.0913 12.7372 15.0572C12.8354 14.8962 12.968 14.8642 13.1348 14.9613C13.1469 14.9681 13.156 14.9653 13.1621 14.9529L13.2888 14.6988C13.2953 14.6857 13.2922 14.6756 13.2794 14.6683C13.0738 14.551 12.8898 14.5733 12.7274 14.7352C12.7257 14.7369 12.7235 14.7381 12.7212 14.7386C12.7188 14.7391 12.7163 14.7389 12.7141 14.738C12.7119 14.7371 12.7099 14.7356 12.7086 14.7336C12.7072 14.7316 12.7064 14.7292 12.7064 14.7268Z" fill="#6E778A"/>
<path d="M14.3639 8.18811L14.3664 6.97466C14.3664 6.95739 14.3579 6.94876 14.3408 6.94876L13.9541 6.94806C13.9422 6.94806 13.933 6.94304 13.9264 6.93301C13.3052 5.96246 12.1495 5.45286 11.0151 5.74336C11.0088 5.74496 11.0022 5.7449 10.996 5.74318C10.9897 5.74146 10.984 5.73815 10.9794 5.73356L10.4632 5.20016C10.4607 5.19755 10.4587 5.19447 10.4574 5.1911C10.4561 5.18773 10.4555 5.18413 10.4556 5.18051C10.4557 5.1769 10.4565 5.17334 10.458 5.17004C10.4595 5.16675 10.4616 5.16378 10.4642 5.16131C10.4964 5.13121 10.5559 5.13681 10.5899 5.13191C11.3951 5.02154 12.2005 4.91153 13.0059 4.80186C13.0119 4.80101 13.018 4.80173 13.0236 4.80394C13.0292 4.80615 13.0341 4.80978 13.0378 4.81446L14.2848 6.36566C14.2923 6.37522 14.3022 6.38001 14.3146 6.38001L14.5053 6.38176C14.5112 6.38185 14.517 6.3838 14.5217 6.38733C14.5264 6.39085 14.5299 6.39576 14.5316 6.40136C14.5565 6.47952 14.5499 6.55279 14.5116 6.62116C14.5053 6.63236 14.5063 6.64286 14.5144 6.65266L14.709 6.89381C14.713 6.89877 14.7154 6.90474 14.7162 6.91103C14.7169 6.91732 14.7159 6.92369 14.7133 6.92941C14.7106 6.93513 14.7064 6.93997 14.7011 6.94339C14.6959 6.94681 14.6898 6.94867 14.6835 6.94876L14.5498 6.95121C14.5442 6.95139 14.5389 6.95373 14.535 6.95773C14.5311 6.96172 14.529 6.96705 14.5291 6.97256L14.5302 8.18706C14.5302 8.20153 14.5374 8.20864 14.5519 8.20841L14.6761 8.20771C14.6904 8.20771 14.6975 8.21471 14.6975 8.22871L14.6961 8.60321C14.6962 8.61111 14.6933 8.61876 14.6881 8.62468C14.6828 8.6306 14.6756 8.63436 14.6677 8.63523C14.6599 8.63611 14.652 8.63403 14.6456 8.6294C14.6392 8.62478 14.6347 8.61794 14.6331 8.61021C14.5809 8.38131 14.3342 8.39006 14.2747 8.61196C14.2724 8.61955 14.2675 8.62608 14.2609 8.63037C14.2542 8.63467 14.2462 8.63645 14.2384 8.6354C14.2305 8.63434 14.2233 8.63052 14.218 8.62462C14.2128 8.61872 14.2098 8.61113 14.2096 8.60321L14.2106 8.22941C14.2106 8.21471 14.2181 8.20748 14.233 8.20771L14.3436 8.20841C14.3572 8.20841 14.3639 8.20164 14.3639 8.18811ZM14.5193 6.49516C14.5193 6.48216 14.5142 6.4697 14.505 6.46051C14.4958 6.45132 14.4833 6.44616 14.4703 6.44616C14.4573 6.44616 14.4449 6.45132 14.4357 6.46051C14.4265 6.4697 14.4213 6.48216 14.4213 6.49516C14.4213 6.50815 14.4265 6.52062 14.4357 6.52981C14.4449 6.539 14.4573 6.54416 14.4703 6.54416C14.4833 6.54416 14.4958 6.539 14.505 6.52981C14.5142 6.52062 14.5193 6.50815 14.5193 6.49516ZM14.4549 6.81051C14.4549 6.78294 14.444 6.7565 14.4245 6.737C14.405 6.71751 14.3785 6.70656 14.351 6.70656C14.3234 6.70656 14.297 6.71751 14.2775 6.737C14.258 6.7565 14.247 6.78294 14.247 6.81051C14.247 6.83808 14.258 6.86452 14.2775 6.88401C14.297 6.90351 14.3234 6.91446 14.351 6.91446C14.3785 6.91446 14.405 6.90351 14.4245 6.88401C14.444 6.86452 14.4549 6.83808 14.4549 6.81051Z" fill="white"/>
<path d="M10.9172 6.54102L11.1517 5.96037C11.1562 5.94932 11.1635 5.93961 11.1728 5.93214C11.1821 5.92467 11.1931 5.91969 11.2049 5.91767C12.1705 5.75737 13.0819 6.13782 13.6559 6.91132C13.6623 6.91989 13.6663 6.92989 13.6676 6.94037C13.669 6.95085 13.6676 6.96145 13.6636 6.97117L13.4281 7.55952C13.427 7.56212 13.4253 7.5644 13.4231 7.56608C13.4208 7.56777 13.4181 7.5688 13.4154 7.56905C13.4126 7.56931 13.4098 7.56878 13.4074 7.56753C13.4049 7.56627 13.4029 7.56435 13.4015 7.56197C12.8754 6.70587 11.914 6.34257 10.9315 6.55817C10.9161 6.56143 10.9114 6.55572 10.9172 6.54102Z" fill="white"/>
<path d="M14.4704 6.54417C14.4974 6.54417 14.5194 6.52223 14.5194 6.49517C14.5194 6.4681 14.4974 6.44617 14.4704 6.44617C14.4433 6.44617 14.4214 6.4681 14.4214 6.49517C14.4214 6.52223 14.4433 6.54417 14.4704 6.54417Z" fill="#6B4DBC"/>
<path d="M14.351 6.91444C14.4084 6.91444 14.455 6.8679 14.455 6.81049C14.455 6.75308 14.4084 6.70654 14.351 6.70654C14.2936 6.70654 14.2471 6.75308 14.2471 6.81049C14.2471 6.8679 14.2936 6.91444 14.351 6.91444Z" fill="#6B4DBC"/>
<path d="M7.27308 11.6548L9.17043 11.6538C9.1828 11.6538 9.18898 11.66 9.18898 11.6723C9.18688 12.0741 8.90478 12.435 8.53833 12.5606C8.42423 12.5996 8.22485 12.6186 7.94018 12.6177C7.71455 12.6172 7.4888 12.6152 7.26293 12.6117C6.72008 12.6033 6.29308 12.1956 6.29273 11.6475C6.29133 10.0443 6.29052 8.44115 6.29028 6.83815C6.29028 6.82485 6.29693 6.81832 6.31023 6.81855C6.72848 6.82485 7.07218 7.0877 7.20938 7.4755C7.23948 7.56113 7.25453 7.67862 7.25453 7.82795C7.25477 9.09938 7.25477 10.3688 7.25453 11.6363C7.25453 11.6412 7.25649 11.6459 7.25997 11.6494C7.26345 11.6529 7.26816 11.6548 7.27308 11.6548Z" fill="white"/>
<path d="M9.9809 12.5319C9.61515 12.6943 9.2144 12.5855 8.82765 12.6243C8.8248 12.6245 8.822 12.6236 8.81975 12.6218C8.8175 12.62 8.81596 12.6175 8.81541 12.6147C8.81486 12.6119 8.81533 12.609 8.81674 12.6066C8.81816 12.6041 8.82041 12.6022 8.8231 12.6012C9.2053 12.4918 9.4461 12.2686 9.5455 11.9317C9.5805 11.8136 9.59754 11.5817 9.5966 11.2359C9.5945 10.4537 9.59334 9.67161 9.5931 8.88948C9.5931 8.64424 9.60874 8.45373 9.64 8.31793C9.90355 7.17203 11.1048 6.52873 12.2027 6.94278C13.1509 7.30083 13.6843 8.35258 13.3654 9.33013C13.1313 10.0487 12.5352 10.5464 11.7841 10.6629C11.5437 10.7004 11.2476 10.6857 10.9837 10.685C10.9785 10.685 10.9735 10.683 10.9698 10.6794C10.9661 10.6758 10.9639 10.6709 10.9637 10.6657C10.9483 10.2062 11.2675 9.81978 11.6963 9.70008C11.8339 9.66181 11.9203 9.63369 11.9553 9.61573C12.5128 9.33188 12.6801 8.61508 12.2717 8.13383C11.8933 7.68793 11.2255 7.66413 10.8195 8.08238C10.6492 8.25784 10.5632 8.46913 10.5616 8.71623C10.5548 9.67989 10.552 10.6437 10.5532 11.6076C10.5532 11.7457 10.5387 11.8581 10.5098 11.9446C10.4178 12.2204 10.2415 12.4162 9.9809 12.5319Z" fill="white"/>
<path d="M11.2655 14.1241C11.2594 14.1245 11.2537 14.1273 11.2495 14.1318C11.2454 14.1362 11.2431 14.1421 11.2431 14.1482C11.2428 14.6312 11.2434 15.1057 11.2448 15.5717C11.2459 15.8258 11.2042 16.0078 10.9323 16.0435C10.9185 16.0454 10.9116 16.0394 10.9116 16.0256C10.9105 15.4089 10.9103 14.7935 10.9113 14.1794C10.9113 14.0912 10.9262 14.0228 10.9561 13.9743C11.0873 13.7594 11.3015 13.8066 11.5248 13.8133C11.8811 13.8241 12.1345 14.08 12.1604 14.4146C12.1972 14.8976 11.8139 15.1541 11.3701 15.131C11.3577 15.1303 11.352 15.1238 11.353 15.1114C11.3649 14.9483 11.4534 14.857 11.5955 14.7971C11.6543 14.7726 11.711 14.7576 11.7537 14.7093C11.8871 14.5584 11.8734 14.3015 11.7026 14.1899C11.5871 14.1143 11.4072 14.1122 11.2655 14.1241Z" fill="white"/>
<path d="M4.17507 15.7295L4.76832 15.7264C4.79586 15.7262 4.80764 15.7397 4.80367 15.767C4.77847 15.9469 4.63882 16.0281 4.46067 16.0421C4.11032 16.0694 3.81982 16.0638 3.81982 15.6322C3.82006 15.0274 3.82064 14.4271 3.82157 13.8311C3.82161 13.8264 3.82274 13.8217 3.82489 13.8174C3.82704 13.8131 3.83013 13.8094 3.83394 13.8066C3.83774 13.8037 3.84215 13.8018 3.8468 13.801C3.85146 13.8001 3.85624 13.8004 3.86077 13.8017C4.16737 13.891 4.15512 14.0677 4.15337 14.3684C4.15104 14.8155 4.15162 15.2626 4.15512 15.7099C4.15512 15.723 4.16177 15.7295 4.17507 15.7295Z" fill="white"/>
<path d="M5.26467 15.3897C5.27797 15.5994 5.41482 15.7481 5.62657 15.7555C5.80752 15.7614 5.91042 15.647 5.99967 15.5014C6.00287 15.4961 6.00797 15.4923 6.01391 15.4908C6.01984 15.4892 6.02615 15.49 6.03152 15.493L6.26357 15.6239C6.27687 15.6313 6.27956 15.6416 6.27162 15.6547C6.07306 15.9872 5.77906 16.1067 5.38962 16.0134C5.28252 15.9877 5.18884 15.9288 5.10857 15.8367C4.87092 15.5637 4.85902 15.1027 5.06762 14.8126C5.20972 14.6152 5.42241 14.5313 5.70567 14.5609C6.11342 14.6036 6.30767 14.9837 6.27197 15.3607C6.27104 15.3705 6.26555 15.3754 6.25552 15.3754L5.27867 15.375C5.26864 15.375 5.26397 15.3799 5.26467 15.3897ZM5.30072 15.1097L5.92932 15.1111C5.93044 15.1111 5.9315 15.1107 5.93229 15.1099C5.93308 15.1091 5.93352 15.108 5.93352 15.1069V15.1055C5.93369 15.0381 5.90101 14.9734 5.84265 14.9257C5.7843 14.8779 5.70507 14.8509 5.62237 14.8507H5.60907C5.56811 14.8506 5.52754 14.8571 5.48966 14.8698C5.45179 14.8825 5.41736 14.9011 5.38833 14.9246C5.35931 14.9482 5.33626 14.9761 5.32051 15.0069C5.30476 15.0377 5.2966 15.0707 5.29652 15.1041V15.1055C5.29652 15.1066 5.29696 15.1077 5.29775 15.1085C5.29854 15.1093 5.29961 15.1097 5.30072 15.1097Z" fill="white"/>
<path d="M7.59069 15.8969C7.59209 15.8756 7.58404 15.8711 7.56654 15.8832C7.28934 16.0764 7.03372 16.0951 6.79969 15.9392C6.13539 15.4961 6.58269 14.2323 7.42164 14.6278C7.46889 14.6498 7.51614 14.7041 7.56584 14.7342C7.56835 14.7357 7.57124 14.7365 7.57418 14.7366C7.57713 14.7366 7.58002 14.7358 7.58255 14.7343C7.58508 14.7327 7.58714 14.7306 7.58851 14.728C7.58989 14.7253 7.59052 14.7224 7.59034 14.7195L7.58509 14.6127C7.58439 14.599 7.59092 14.5922 7.60469 14.5924H7.88889C7.90055 14.5924 7.90651 14.5984 7.90674 14.6103L7.90814 15.99C7.90814 16.0023 7.90207 16.0085 7.88994 16.0085L7.60329 16.0071C7.58999 16.0071 7.58381 16.0005 7.58474 15.9872L7.59069 15.8969ZM7.20574 15.7593C7.31276 15.7599 7.41566 15.7121 7.49179 15.6265C7.56792 15.5409 7.61104 15.4245 7.61168 15.3029C7.61232 15.1813 7.57041 15.0645 7.49518 14.9781C7.41996 14.8917 7.31757 14.8429 7.21054 14.8423C7.10351 14.8418 7.00062 14.8895 6.92449 14.9751C6.84836 15.0607 6.80523 15.1771 6.8046 15.2987C6.80396 15.4203 6.84586 15.5371 6.92109 15.6235C6.99632 15.7099 7.09871 15.7588 7.20574 15.7593Z" fill="white"/>
<path d="M13.7515 15.3887C13.7557 15.7229 14.1316 15.8762 14.3622 15.6557C14.4032 15.6165 14.442 15.5511 14.4819 15.4989C14.4852 15.4946 14.49 15.4916 14.4954 15.4905C14.5008 15.4894 14.5065 15.4903 14.5113 15.493L14.7427 15.6239C14.7548 15.6309 14.7575 15.6404 14.7507 15.6526C14.3983 16.2749 13.4921 16.1457 13.4057 15.4006C13.3738 15.1269 13.468 14.8136 13.7039 14.6617C13.9013 14.5343 14.1683 14.5217 14.3818 14.6155C14.6629 14.7391 14.7819 15.0635 14.7462 15.3579C14.7448 15.3698 14.7382 15.3757 14.7266 15.3757L13.7651 15.375C13.7558 15.375 13.7512 15.3796 13.7515 15.3887ZM13.776 15.1101H14.4137C14.4139 15.1101 14.414 15.11 14.4142 15.1099C14.4143 15.1097 14.4144 15.1096 14.4144 15.1094V15.1073C14.4144 15.0391 14.3812 14.9738 14.3221 14.9256C14.263 14.8774 14.1829 14.8504 14.0994 14.8504H14.0903C14.0067 14.8504 13.9266 14.8774 13.8675 14.9256C13.8085 14.9738 13.7753 15.0391 13.7753 15.1073V15.1094C13.7753 15.1096 13.7753 15.1097 13.7755 15.1099C13.7756 15.11 13.7758 15.1101 13.776 15.1101Z" fill="white"/>
<path d="M15.612 14.9543C15.4863 14.6998 15.1734 14.9595 15.4982 15.0894C15.6368 15.145 15.8913 15.263 15.9469 15.4128C16.1716 16.0169 15.2322 16.3144 14.9879 15.7152C14.9826 15.7021 14.9864 15.6927 14.9995 15.6868L15.2368 15.5811C15.2517 15.5744 15.2625 15.5786 15.269 15.5937C15.3311 15.7377 15.4385 15.7838 15.5913 15.732C15.6028 15.7283 15.6114 15.721 15.6172 15.7103C15.68 15.5922 15.655 15.5055 15.5423 15.4502C15.372 15.3667 15.2639 15.3119 15.2179 15.2857C14.997 15.1597 15.0089 14.8381 15.1734 14.676C15.3834 14.4688 15.7565 14.5259 15.8752 14.8216C15.8789 14.8312 15.8762 14.8384 15.8671 14.8433L15.641 14.9634C15.6386 14.9648 15.6358 14.9656 15.633 14.9659C15.6301 14.9662 15.6273 14.9659 15.6246 14.9651C15.6218 14.9642 15.6193 14.9628 15.6172 14.961C15.615 14.9591 15.6132 14.9569 15.612 14.9543Z" fill="white"/>
<path d="M16.8295 15.1513C17.0623 15.2546 17.2618 15.4163 17.1687 15.7012C17.0182 16.1635 16.3735 16.1513 16.1925 15.7141C16.1874 15.702 16.1908 15.6932 16.2027 15.6879L16.4372 15.5825C16.4404 15.5811 16.4439 15.5803 16.4474 15.5802C16.451 15.5801 16.4545 15.5807 16.4578 15.5819C16.4612 15.5832 16.4642 15.5851 16.4668 15.5876C16.4693 15.59 16.4714 15.5929 16.4729 15.5962C16.5856 15.8527 16.9643 15.7593 16.833 15.5328C16.7536 15.396 16.4718 15.3449 16.3518 15.2259C16.2316 15.1071 16.2126 14.9614 16.2947 14.7887C16.4452 14.4713 16.9349 14.4713 17.0808 14.8202C17.0845 14.8298 17.082 14.837 17.0731 14.8419L16.8432 14.9655C16.841 14.9667 16.8386 14.9674 16.8361 14.9676C16.8336 14.9678 16.8311 14.9675 16.8287 14.9667C16.8264 14.966 16.8242 14.9647 16.8223 14.963C16.8205 14.9614 16.819 14.9593 16.818 14.9571C16.7816 14.879 16.6909 14.8146 16.6059 14.8608C16.5776 14.876 16.5628 14.9014 16.5614 14.9371C16.5569 15.0565 16.7434 15.1132 16.8295 15.1513Z" fill="white"/>
<path d="M8.49734 14.7398C8.54984 14.6985 8.59254 14.6477 8.65344 14.6253C8.79344 14.5735 8.92737 14.5893 9.05524 14.6726C9.06527 14.6791 9.06761 14.6878 9.06224 14.6988L8.93379 14.9557C8.92795 14.9674 8.91944 14.9698 8.90824 14.9631C8.59884 14.7755 8.47564 15.0639 8.47389 15.3222C8.47202 15.5576 8.4705 15.7914 8.46934 16.0236C8.46934 16.0262 8.46883 16.0288 8.46785 16.0312C8.46686 16.0336 8.46542 16.0358 8.4636 16.0377C8.46178 16.0395 8.45962 16.041 8.45724 16.042C8.45486 16.043 8.45231 16.0435 8.44974 16.0435L8.17674 16.0421C8.16064 16.0421 8.15259 16.0341 8.15259 16.018V14.6628C8.15259 14.6471 8.16041 14.6392 8.17604 14.639L8.45044 14.6372C8.46257 14.637 8.46887 14.643 8.46934 14.6554L8.47144 14.7275C8.47153 14.7305 8.47244 14.7333 8.47407 14.7358C8.47569 14.7383 8.47797 14.7403 8.48065 14.7415C8.48332 14.7428 8.4863 14.7433 8.48924 14.743C8.49219 14.7427 8.49499 14.7416 8.49734 14.7398Z" fill="white"/>
<path d="M9.63052 14.7342C9.63051 14.7371 9.63137 14.74 9.633 14.7425C9.63463 14.745 9.63696 14.7469 9.63969 14.7481C9.64242 14.7492 9.64543 14.7496 9.64834 14.749C9.65126 14.7485 9.65395 14.7471 9.65607 14.745C9.89197 14.5228 10.3284 14.5382 10.466 14.857C10.4991 14.9333 10.5166 15.0705 10.5185 15.2686C10.5208 15.5206 10.5207 15.7725 10.5181 16.0243C10.518 16.029 10.516 16.0336 10.5126 16.0369C10.5091 16.0402 10.5044 16.0421 10.4996 16.0421L10.2196 16.0397C10.2063 16.0394 10.1995 16.0327 10.1993 16.0194C10.1976 15.769 10.1971 15.52 10.1975 15.2725C10.1975 15.1311 10.1867 14.9218 10.0141 14.885C9.72747 14.8241 9.62562 15.0611 9.62842 15.305C9.63145 15.5432 9.6318 15.7815 9.62947 16.0197C9.62942 16.0226 9.62883 16.0254 9.62771 16.028C9.62659 16.0306 9.62498 16.033 9.62297 16.035C9.62095 16.0369 9.61857 16.0385 9.61597 16.0395C9.61336 16.0406 9.61057 16.0411 9.60777 16.0411L9.33652 16.04C9.31902 16.04 9.31027 16.0314 9.31027 16.0141L9.30957 14.6572C9.30957 14.6453 9.31564 14.6393 9.32777 14.6393L9.60392 14.6386C9.60714 14.6386 9.61033 14.6392 9.61332 14.6403C9.61631 14.6415 9.61904 14.6433 9.62135 14.6455C9.62366 14.6478 9.6255 14.6505 9.62677 14.6534C9.62805 14.6564 9.62872 14.6595 9.62877 14.6628L9.63052 14.7342Z" fill="white"/>
<path d="M12.7065 14.7268C12.7065 14.7292 12.7073 14.7316 12.7087 14.7336C12.71 14.7356 12.712 14.7371 12.7142 14.738C12.7164 14.7389 12.7189 14.7391 12.7213 14.7386C12.7236 14.7381 12.7258 14.7369 12.7275 14.7352C12.8899 14.5733 13.0739 14.551 13.2794 14.6683C13.2923 14.6756 13.2954 14.6857 13.2889 14.6988L13.1622 14.9529C13.1561 14.9653 13.147 14.9681 13.1349 14.9613C12.9681 14.8642 12.8355 14.8962 12.7373 15.0572C12.7165 15.0913 12.7064 15.1796 12.7068 15.3221C12.7075 15.5555 12.7067 15.7887 12.7044 16.0218C12.7044 16.0365 12.6969 16.0438 12.682 16.0438L12.4006 16.0414C12.3955 16.0414 12.3906 16.0394 12.387 16.0358C12.3834 16.0321 12.3813 16.0272 12.3813 16.0221V14.6571C12.3813 14.6452 12.3873 14.6393 12.3992 14.6393L12.6809 14.6375C12.687 14.6374 12.6929 14.6397 12.6973 14.6438C12.7017 14.648 12.7042 14.6536 12.7044 14.6596L12.7065 14.7268Z" fill="white"/>
<path d="M5.30083 15.1097C5.29972 15.1097 5.29865 15.1093 5.29786 15.1085C5.29707 15.1077 5.29663 15.1066 5.29663 15.1055V15.1041C5.29671 15.0707 5.30487 15.0377 5.32062 15.0069C5.33637 14.9761 5.35942 14.9482 5.38844 14.9246C5.41747 14.9011 5.4519 14.8825 5.48977 14.8698C5.52765 14.8571 5.56822 14.8506 5.60918 14.8507H5.62248C5.70518 14.8509 5.78441 14.8779 5.84276 14.9256C5.90111 14.9734 5.9338 15.0381 5.93363 15.1055V15.1069C5.93363 15.108 5.93319 15.1091 5.9324 15.1099C5.93161 15.1107 5.93054 15.1111 5.92943 15.1111L5.30083 15.1097Z" fill="#6B4DBC"/>
<path d="M6.80477 15.2987C6.80344 15.5519 6.98304 15.7581 7.20591 15.7593C7.42878 15.7605 7.61053 15.5561 7.61186 15.3029C7.61318 15.0497 7.43358 14.8435 7.21071 14.8423C6.98784 14.8411 6.80609 15.0455 6.80477 15.2987Z" fill="#6B4DBC"/>
<path d="M13.7761 15.11C13.7759 15.11 13.7757 15.11 13.7756 15.1098C13.7755 15.1097 13.7754 15.1095 13.7754 15.1093V15.1072C13.7754 15.0391 13.8086 14.9738 13.8677 14.9256C13.9267 14.8774 14.0068 14.8503 14.0904 14.8503H14.0995C14.183 14.8503 14.2632 14.8774 14.3222 14.9256C14.3813 14.9738 14.4145 15.0391 14.4145 15.1072V15.1093C14.4145 15.1095 14.4144 15.1097 14.4143 15.1098C14.4142 15.11 14.414 15.11 14.4138 15.11H13.7761Z" fill="#6B4DBC"/>
</g>
<defs>
<clipPath id="clip0_1362_1104">
<rect width="21" height="21" fill="white" transform="translate(0 0.5)"/>
</clipPath>
</defs>
</svg>
