<svg width="21" height="22" viewBox="0 0 21 22" fill="none" xmlns="http://www.w3.org/2000/svg">
<path fill-rule="evenodd" clip-rule="evenodd" d="M4.59375 3.78125V18.2188H16.4062V3.78125H4.59375ZM3.9375 1.8125C3.5894 1.8125 3.25556 1.95078 3.00942 2.19692C2.76328 2.44306 2.625 2.7769 2.625 3.125V18.875C2.625 19.2231 2.76328 19.5569 3.00942 19.8031C3.25556 20.0492 3.5894 20.1875 3.9375 20.1875H17.0625C17.4106 20.1875 17.7444 20.0492 17.9906 19.8031C18.2367 19.5569 18.375 19.2231 18.375 18.875V3.125C18.375 2.7769 18.2367 2.44306 17.9906 2.19692C17.7444 1.95078 17.4106 1.8125 17.0625 1.8125H3.9375ZM10.5 14.9375C10.5 14.6764 10.6037 14.426 10.7883 14.2414C10.9729 14.0568 11.2233 13.9531 11.4844 13.9531H13.7812C14.0423 13.9531 14.2927 14.0568 14.4773 14.2414C14.6619 14.426 14.7656 14.6764 14.7656 14.9375C14.7656 15.1986 14.6619 15.449 14.4773 15.6336C14.2927 15.8182 14.0423 15.9219 13.7812 15.9219H11.4844C11.2233 15.9219 10.9729 15.8182 10.7883 15.6336C10.6037 15.449 10.5 15.1986 10.5 14.9375ZM7.875 16.25C8.2231 16.25 8.55694 16.1117 8.80308 15.8656C9.04922 15.6194 9.1875 15.2856 9.1875 14.9375C9.1875 14.5894 9.04922 14.2556 8.80308 14.0094C8.55694 13.7633 8.2231 13.625 7.875 13.625C7.5269 13.625 7.19306 13.7633 6.94692 14.0094C6.70078 14.2556 6.5625 14.5894 6.5625 14.9375C6.5625 15.2856 6.70078 15.6194 6.94692 15.8656C7.19306 16.1117 7.5269 16.25 7.875 16.25ZM10.5 11C10.5 10.7389 10.6037 10.4885 10.7883 10.3039C10.9729 10.1193 11.2233 10.0156 11.4844 10.0156H13.7812C14.0423 10.0156 14.2927 10.1193 14.4773 10.3039C14.6619 10.4885 14.7656 10.7389 14.7656 11C14.7656 11.2611 14.6619 11.5115 14.4773 11.6961C14.2927 11.8807 14.0423 11.9844 13.7812 11.9844H11.4844C11.2233 11.9844 10.9729 11.8807 10.7883 11.6961C10.6037 11.5115 10.5 11.2611 10.5 11ZM7.875 12.3125C8.2231 12.3125 8.55694 12.1742 8.80308 11.9281C9.04922 11.6819 9.1875 11.3481 9.1875 11C9.1875 10.6519 9.04922 10.3181 8.80308 10.0719C8.55694 9.82578 8.2231 9.6875 7.875 9.6875C7.5269 9.6875 7.19306 9.82578 6.94692 10.0719C6.70078 10.3181 6.5625 10.6519 6.5625 11C6.5625 11.3481 6.70078 11.6819 6.94692 11.9281C7.19306 12.1742 7.5269 12.3125 7.875 12.3125ZM10.5 7.0625C10.5 6.80143 10.6037 6.55105 10.7883 6.36644C10.9729 6.18184 11.2233 6.07812 11.4844 6.07812H13.7812C14.0423 6.07812 14.2927 6.18184 14.4773 6.36644C14.6619 6.55105 14.7656 6.80143 14.7656 7.0625C14.7656 7.32357 14.6619 7.57395 14.4773 7.75856C14.2927 7.94316 14.0423 8.04688 13.7812 8.04688H11.4844C11.2233 8.04688 10.9729 7.94316 10.7883 7.75856C10.6037 7.57395 10.5 7.32357 10.5 7.0625ZM7.875 8.375C8.2231 8.375 8.55694 8.23672 8.80308 7.99058C9.04922 7.74444 9.1875 7.4106 9.1875 7.0625C9.1875 6.7144 9.04922 6.38056 8.80308 6.13442C8.55694 5.88828 8.2231 5.75 7.875 5.75C7.5269 5.75 7.19306 5.88828 6.94692 6.13442C6.70078 6.38056 6.5625 6.7144 6.5625 7.0625C6.5625 7.4106 6.70078 7.74444 6.94692 7.99058C7.19306 8.23672 7.5269 8.375 7.875 8.375Z" fill="#6E778A"/>
</svg>
