<svg width="21" height="18" viewBox="0 0 21 18" fill="none" xmlns="http://www.w3.org/2000/svg">
<path d="M11.795 15.8739L9.21191 13.2881L14.7608 7.6825L17.3917 10.3127L11.795 15.8739Z" fill="#6E778A"/>
<path d="M11.8135 4.73649L9.1833 2.10559L3.6064 7.68249C2.87982 8.40839 2.87913 9.58474 3.60504 10.3113C3.60572 10.312 3.6064 10.3127 3.6064 10.3127L9.1833 15.8896L11.7636 13.2977L7.54899 9.00101L11.8135 4.73649Z" fill="#6E778A"/>
<path d="M17.3904 7.68251L11.8135 2.10561C11.0869 1.37902 9.90923 1.37902 9.18264 2.10561C8.45605 2.8322 8.45605 4.00992 9.18264 4.73582L14.763 10.3127C15.4895 11.0393 16.6673 11.0393 17.3932 10.3127C18.1198 9.58613 18.1198 8.40841 17.3932 7.68251H17.3904Z" fill="#6E778A"/>
<path d="M10.478 16.4399C11.4961 16.4399 12.3215 15.6145 12.3215 14.5964C12.3215 13.5783 11.4961 12.7529 10.478 12.7529C9.45987 12.7529 8.63452 13.5783 8.63452 14.5964C8.63452 15.6145 9.45987 16.4399 10.478 16.4399Z" fill="#6E778A"/>
</svg>