<svg width="63" height="63" viewBox="0 0 63 63" fill="none" xmlns="http://www.w3.org/2000/svg">
<path d="M27.4999 13.4062C28.325 13.7368 29.2901 14.0542 29.9036 14.7288C31.7069 16.7118 31.0053 20.6167 30.8837 23.1159L31.0015 23.1138C32.7736 23.0857 34.3796 23.0873 35.7389 24.416C36.3132 24.9773 36.72 25.7364 36.7238 26.5528C36.7274 27.3191 36.3728 28.0533 35.8351 28.5879C34.4413 29.9733 32.7452 29.9094 30.9247 29.9044C30.9274 32.822 30.7355 35.9455 31.1577 38.8246C31.8349 43.4438 34.7491 41.4359 37.4426 43.4699C38.2855 44.1066 38.4388 45.0232 38.573 45.9994C38.4377 46.4835 38.2991 46.9968 38.0693 47.4455C37.4042 48.7446 35.9786 49.0595 34.6975 49.4816C33.2508 49.1438 31.8252 48.805 30.4908 48.1292C27.8982 46.8163 25.9186 44.677 25.0122 41.8945C24.0784 39.0284 23.6057 17.5595 24.9342 15.0525C25.4445 14.0896 26.5297 13.7096 27.4999 13.4062Z" fill="#6E778A"/>
<path d="M0 0H26.3045H35.4839C37.892 1.18459 40.9481 1.49583 43.5051 2.50688C51.3533 5.61006 57.776 13.1387 60.4619 21.0191C63.1973 29.0448 62.2344 37.63 58.5296 45.1427C57.8614 46.4976 56.6961 48.7788 55.1728 49.2789C54.5919 49.4696 54.0982 49.3723 53.5707 49.0954C52.945 48.7669 52.5501 48.1477 52.354 47.4902C51.8981 45.9621 55.7244 39.2653 56.2403 37.0755C58.8469 26.0122 53.7491 13.7755 43.7259 8.26617C37.5064 4.84748 30.6524 3.96555 23.7995 5.95942C23.3882 6.07666 22.98 6.20395 22.5749 6.34128C22.1698 6.47862 21.7684 6.62583 21.3705 6.78292C20.9727 6.94001 20.579 7.10679 20.1894 7.28325C19.7998 7.45972 19.4148 7.64566 19.0343 7.84108C18.6538 8.03649 18.2784 8.24115 17.908 8.45504C17.5376 8.66893 17.1727 8.8918 16.8132 9.12365C16.4538 9.3555 16.1003 9.59605 15.7527 9.8453C15.4051 10.0946 15.0639 10.3522 14.729 10.6183C14.3941 10.8843 14.0659 11.1584 13.7445 11.4406C13.423 11.7228 13.1087 12.0127 12.8016 12.3103C12.4944 12.608 12.1948 12.9131 11.9026 13.2254C11.6105 13.5379 11.3262 13.8573 11.0498 14.1837C10.7734 14.5101 10.5051 14.8431 10.2451 15.1827C9.98508 15.5223 9.73355 15.868 9.49053 16.22C9.24752 16.572 9.01331 16.9298 8.78789 17.2933C8.56248 17.6567 8.34615 18.0256 8.13889 18.3997C4.89771 24.3083 4.19053 31.8958 6.08131 38.3358C6.19622 38.7413 6.32117 39.1438 6.45616 39.5431C6.59114 39.9424 6.73599 40.3381 6.89072 40.7302C7.04543 41.1223 7.20983 41.5103 7.38391 41.8941C7.55798 42.278 7.74152 42.6573 7.93451 43.0321C8.1275 43.4068 8.32972 43.7765 8.54115 44.1412C8.75258 44.5058 8.97297 44.8649 9.20232 45.2186C9.43167 45.5723 9.66969 45.92 9.91638 46.2617C10.1631 46.6035 10.4181 46.9389 10.6816 47.268C10.945 47.597 11.2164 47.9193 11.496 48.2349C11.7755 48.5504 12.0626 48.8587 12.3575 49.1599C12.6524 49.4611 12.9546 49.7548 13.2641 50.0409C13.5736 50.327 13.8901 50.6052 14.2134 50.8756C14.5369 51.146 14.8668 51.4081 15.2033 51.662C15.5398 51.9158 15.8823 52.1612 16.231 52.398C16.5798 52.6348 16.9342 52.8627 17.2943 53.0818C17.6544 53.3009 18.0197 53.5109 18.3902 53.7118C24.6575 57.1261 31.775 57.9355 38.6468 55.9248C40.7979 55.2953 45.0032 52.1221 47.0783 53.2441C47.2215 53.3226 47.3559 53.4141 47.4816 53.5185C47.6072 53.6229 47.7217 53.7384 47.8252 53.8648C47.9286 53.9912 48.019 54.1264 48.0965 54.2703C48.1739 54.4141 48.2369 54.564 48.2854 54.72C48.4553 55.2794 48.4051 55.8645 48.1215 56.3776C46.8761 58.6298 41.4359 60.2754 39.0566 60.9438C31.1468 63.1662 22.6328 61.8721 15.4991 57.868C8.82376 54.121 3.24622 47.2713 1.17074 39.8577C0.8058 38.5541 0.70326 36.8651 0 35.7128V26.3266V0ZM0 0V26.3266C0.042669 26.2666 0.0808151 26.2051 0.118867 26.1423C0.495218 25.5213 0.600327 24.422 0.797266 23.701C3.34042 14.3903 9.16915 6.27389 18.3692 2.55169C20.849 1.54843 24.0523 1.28256 26.3045 0H0Z" fill="#6E778A"/>
</svg>
