<svg width="21" height="22" viewBox="0 0 21 22" fill="none" xmlns="http://www.w3.org/2000/svg">
<g clip-path="url(#clip0_958_1665)">
<path d="M1.94864 4.75C1.69204 4.75011 1.43798 4.80088 1.20105 4.8994C0.964107 4.99791 0.748949 5.14224 0.567911 5.32409C0.386872 5.50594 0.243516 5.72174 0.146063 5.95912C0.0486106 6.19649 -0.00102066 6.45077 1.59077e-05 6.70737V13.2322C-9.90905e-05 13.4893 0.0504514 13.7439 0.148778 13.9814C0.247105 14.219 0.391279 14.4348 0.573061 14.6166C0.754843 14.7984 0.970668 14.9425 1.2082 15.0409C1.44573 15.1392 1.70031 15.1897 1.95739 15.1896H10.0538L13.7541 17.2502L12.9124 15.1896H19.0426C20.1241 15.1896 21 14.3146 21 13.2322V6.70737C21 5.62587 20.125 4.75 19.0426 4.75H1.94864ZM9.01864 5.89713C9.19004 5.90056 9.35515 5.96229 9.48677 6.07213C9.56355 6.13005 9.62702 6.20375 9.6729 6.28828C9.71879 6.3728 9.74602 6.46618 9.75277 6.56212C9.76425 6.7046 9.73448 6.84736 9.66702 6.97337C9.33277 7.592 9.05802 8.63062 8.83489 10.0726C8.61964 11.4726 8.54264 12.5629 8.59426 13.3442C8.61177 13.5586 8.57677 13.7467 8.49102 13.9104C8.44871 13.9971 8.38445 14.0712 8.30463 14.1254C8.22481 14.1796 8.13221 14.2119 8.03602 14.2192C7.81289 14.2367 7.58102 14.1335 7.35789 13.9025C6.55902 13.0861 5.92377 11.8672 5.46002 10.245C5.04083 11.0654 4.62869 11.8894 4.22364 12.7169C3.71789 13.6881 3.28827 14.1851 2.92777 14.2114C2.69589 14.2289 2.49902 14.0311 2.32664 13.619C1.88914 12.4937 1.41664 10.322 0.910016 7.102C0.883766 6.87888 0.927516 6.682 1.04739 6.52713C1.16727 6.36437 1.34839 6.27863 1.58814 6.26113C2.02564 6.22613 2.27502 6.43262 2.33539 6.87888C2.60139 8.6735 2.89364 10.1934 3.20252 11.4376L5.08289 7.85887C5.25439 7.5325 5.46877 7.36013 5.72689 7.3435C6.10402 7.31725 6.33589 7.55788 6.43039 8.0645C6.64564 9.20638 6.92039 10.1768 7.24589 11.001C7.46902 8.8205 7.84702 7.249 8.37902 6.27863C8.50852 6.03888 8.69664 5.91812 8.94602 5.9015C8.97044 5.89914 8.99497 5.89798 9.01952 5.898L9.01864 5.89713ZM12.2859 6.82725C12.432 6.82725 12.586 6.84475 12.7496 6.87975C13.0377 6.93446 13.3101 7.05197 13.5475 7.22392C13.7849 7.39588 13.9816 7.61805 14.1234 7.87463C14.3981 8.33838 14.5346 8.89663 14.5346 9.566C14.5424 10.4225 14.3106 11.2642 13.8653 11.9959C13.3508 12.8542 12.6805 13.2839 11.8484 13.2839C11.6924 13.2827 11.537 13.2654 11.3846 13.2322C10.7748 13.1036 10.3198 12.7772 10.0109 12.2365C9.73614 11.764 9.59877 11.1979 9.59877 10.5364C9.59877 9.65263 9.82189 8.845 10.2681 8.11525C10.7923 7.25688 11.4616 6.82725 12.2859 6.82725ZM17.6689 6.82725C17.815 6.82725 17.969 6.84475 18.1326 6.87975C18.7416 7.0075 19.1966 7.33475 19.5064 7.87463C19.7811 8.33838 19.9176 8.89663 19.9176 9.566C19.9254 10.4225 19.6936 11.2642 19.2483 11.9959C18.7338 12.8542 18.0635 13.2839 17.2314 13.2839C17.0754 13.2827 16.92 13.2654 16.7676 13.2322C16.1578 13.1036 15.7028 12.7772 15.3939 12.2365C15.1191 11.764 14.9818 11.1979 14.9818 10.5364C14.9818 9.65263 15.2049 8.845 15.6511 8.11525C16.1753 7.25688 16.8446 6.82725 17.6689 6.82725ZM12.3253 8.26663C12.0566 8.26488 11.795 8.4425 11.5474 8.81087C11.328 9.11714 11.1731 9.46486 11.0924 9.83288C11.0498 10.0389 11.0295 10.249 11.032 10.4594C11.032 10.7079 11.0845 10.9747 11.1869 11.2407C11.3155 11.575 11.487 11.7561 11.6935 11.799C11.9079 11.8419 12.1398 11.7465 12.3891 11.5234C12.7068 11.2407 12.9211 10.8199 13.041 10.2529C13.0848 10.056 13.1014 9.84162 13.1014 9.61762C13.0985 9.34992 13.0463 9.08503 12.9474 8.83625C12.8179 8.502 12.6464 8.32175 12.4399 8.27888C12.4021 8.27127 12.3638 8.26717 12.3253 8.26663ZM17.7083 8.26663C17.4396 8.26488 17.178 8.4425 16.9304 8.81087C16.711 9.11714 16.5561 9.46486 16.4754 9.83288C16.4325 10.0297 16.415 10.2441 16.415 10.4594C16.415 10.7079 16.4675 10.9747 16.5699 11.2407C16.6985 11.575 16.8709 11.7561 17.0765 11.799C17.2909 11.8419 17.5228 11.7465 17.7721 11.5234C18.0898 11.2407 18.3041 10.8199 18.424 10.2529C18.459 10.056 18.4853 9.84162 18.4853 9.61762C18.4821 9.34986 18.4296 9.08498 18.3304 8.83625C18.2009 8.502 18.0294 8.32175 17.8229 8.27888C17.7851 8.27127 17.7468 8.26717 17.7083 8.26663Z" fill="#6E778A"/>
</g>
<defs>
<clipPath id="clip0_958_1665">
<rect width="21" height="21" fill="white" transform="translate(0 0.5)"/>
</clipPath>
</defs>
</svg>
