<svg width="19" height="20" viewBox="0 0 19 20" fill="none" xmlns="http://www.w3.org/2000/svg">
<path d="M2.57747 2C2.36974 2.00009 2.16408 2.04071 1.97227 2.11952C1.78047 2.19833 1.60629 2.31378 1.45974 2.45926C1.31318 2.60474 1.19713 2.77738 1.11824 2.96727C1.03935 3.15717 0.999174 3.36059 1.00001 3.56587V8.78566C0.99992 8.99132 1.04084 9.19498 1.12044 9.38501C1.20004 9.57503 1.31675 9.74768 1.46391 9.89311C1.61106 10.0385 1.78578 10.1539 1.97807 10.2325C2.17035 10.3112 2.37644 10.3516 2.58455 10.3515H9.13876L12.1343 12L11.4529 10.3515H16.4155C17.291 10.3515 18 9.65155 18 8.78566V3.56587C18 2.70069 17.2917 2 16.4155 2H2.57747ZM8.3008 2.91768C8.43955 2.92043 8.57321 2.96981 8.67976 3.05768C8.74191 3.10401 8.7933 3.16298 8.83044 3.2306C8.86759 3.29822 8.88963 3.37292 8.89509 3.44967C8.90438 3.56365 8.88029 3.67786 8.82567 3.77866C8.55509 4.27355 8.33267 5.10444 8.15205 6.25801C7.9778 7.37799 7.91547 8.25018 7.95726 8.87526C7.97142 9.04676 7.94309 9.19726 7.87367 9.32815C7.83942 9.39751 7.78741 9.45681 7.72279 9.50016C7.65818 9.5435 7.58321 9.56939 7.50534 9.57525C7.32472 9.58925 7.13701 9.50665 6.95638 9.32185C6.30968 8.66877 5.79543 7.69369 5.42001 6.39591C5.08067 7.05223 4.74703 7.7114 4.41914 8.37337C4.00972 9.15036 3.66193 9.54795 3.37009 9.56895C3.18239 9.58295 3.02301 9.42475 2.88347 9.09506C2.5293 8.19488 2.1468 6.45751 1.73668 3.88156C1.71543 3.70307 1.75085 3.54557 1.84789 3.42167C1.94493 3.29147 2.09155 3.22288 2.28564 3.20888C2.6398 3.18088 2.84168 3.34607 2.89055 3.70307C3.10589 5.13874 3.34247 6.35461 3.59251 7.34999L5.11472 4.48705C5.25355 4.22596 5.42709 4.08806 5.63605 4.07476C5.94134 4.05376 6.12905 4.24626 6.20555 4.65155C6.3798 5.56503 6.60222 6.34131 6.86572 7.0007C7.04634 5.25634 7.35234 3.99916 7.78301 3.22288C7.88784 3.03108 8.04013 2.93448 8.24201 2.92118C8.26178 2.9193 8.28164 2.91836 8.30151 2.91838L8.3008 2.91768ZM10.9457 3.66177C11.064 3.66177 11.1887 3.67577 11.3211 3.70377C11.5543 3.74753 11.7748 3.84154 11.967 3.9791C12.1592 4.11666 12.3184 4.29439 12.4332 4.49965C12.6556 4.87064 12.7661 5.31723 12.7661 5.85272C12.7724 6.53793 12.5847 7.21123 12.2243 7.79658C11.8078 8.48327 11.2652 8.82696 10.5915 8.82696C10.4653 8.826 10.3395 8.81216 10.2161 8.78566C9.72242 8.68277 9.35409 8.42167 9.10405 7.98908C8.88163 7.61109 8.77042 7.1582 8.77042 6.62901C8.77042 5.92202 8.95105 5.27593 9.3123 4.69215C9.73659 4.00546 10.2785 3.66177 10.9457 3.66177ZM15.3034 3.66177C15.4217 3.66177 15.5463 3.67577 15.6788 3.70377C16.1718 3.80596 16.5401 4.06776 16.7909 4.49965C17.0133 4.87064 17.1238 5.31723 17.1238 5.85272C17.1301 6.53793 16.9424 7.21123 16.5819 7.79658C16.1654 8.48327 15.6228 8.82696 14.9492 8.82696C14.823 8.826 14.6972 8.81216 14.5738 8.78566C14.0801 8.68277 13.7118 8.42167 13.4617 7.98908C13.2393 7.61109 13.1281 7.1582 13.1281 6.62901C13.1281 5.92202 13.3087 5.27593 13.67 4.69215C14.0943 4.00546 14.6361 3.66177 15.3034 3.66177ZM10.9776 4.81324C10.7601 4.81184 10.5483 4.95394 10.3479 5.24864C10.1702 5.49364 10.0449 5.77182 9.97955 6.06622C9.94505 6.23106 9.92866 6.39909 9.93067 6.56741C9.93067 6.76621 9.97317 6.9797 10.056 7.1925C10.1602 7.45989 10.299 7.60479 10.4662 7.63909C10.6397 7.67339 10.8274 7.59709 11.0293 7.41859C11.2864 7.1925 11.46 6.8558 11.557 6.40221C11.5924 6.24472 11.6059 6.07322 11.6059 5.89402C11.6035 5.67986 11.5613 5.46796 11.4812 5.26894C11.3764 5.00154 11.2375 4.85734 11.0704 4.82304C11.0398 4.81696 11.0088 4.81368 10.9776 4.81324ZM15.3353 4.81324C15.1178 4.81184 14.906 4.95394 14.7055 5.24864C14.5279 5.49364 14.4026 5.77182 14.3372 6.06622C14.3025 6.22372 14.2883 6.39521 14.2883 6.56741C14.2883 6.76621 14.3308 6.9797 14.4137 7.1925C14.5178 7.45989 14.6574 7.60479 14.8238 7.63909C14.9974 7.67339 15.1851 7.59709 15.387 7.41859C15.6441 7.1925 15.8176 6.8558 15.9147 6.40221C15.943 6.24472 15.9643 6.07322 15.9643 5.89402C15.9617 5.67982 15.9192 5.46791 15.8389 5.26894C15.734 5.00154 15.5952 4.85734 15.428 4.82304C15.3975 4.81696 15.3664 4.81368 15.3353 4.81324Z" fill="#6E778A"/>
<path d="M5.38281 14.3189C5.36387 14.1508 5.28575 14.0206 5.14844 13.9283C5.01113 13.8348 4.83831 13.788 4.62997 13.788C4.48082 13.788 4.3518 13.8117 4.2429 13.859C4.134 13.9052 4.04936 13.9691 3.98899 14.0508C3.92981 14.1313 3.90021 14.223 3.90021 14.326C3.90021 14.4124 3.92034 14.487 3.96058 14.5497C4.00201 14.6125 4.05587 14.6651 4.12216 14.7077C4.18963 14.7492 4.26184 14.7841 4.33878 14.8125C4.41572 14.8397 4.4897 14.8622 4.56072 14.88L4.91584 14.9723C5.03184 15.0007 5.1508 15.0392 5.27273 15.0877C5.39465 15.1362 5.50769 15.2002 5.61186 15.2795C5.71603 15.3588 5.80007 15.457 5.86399 15.5742C5.9291 15.6914 5.96165 15.8317 5.96165 15.995C5.96165 16.201 5.90838 16.3839 5.80185 16.5437C5.6965 16.7035 5.54321 16.8295 5.34197 16.9219C5.14193 17.0142 4.89986 17.0604 4.61577 17.0604C4.34351 17.0604 4.10795 17.0172 3.90909 16.9308C3.71023 16.8443 3.55457 16.7218 3.44212 16.5632C3.32966 16.4034 3.26752 16.214 3.25568 15.995H3.80611C3.81676 16.1264 3.85938 16.2359 3.93395 16.3235C4.00971 16.4099 4.10618 16.4744 4.22337 16.517C4.34174 16.5585 4.47135 16.5792 4.61222 16.5792C4.76728 16.5792 4.90518 16.5549 5.02592 16.5064C5.14785 16.4567 5.24373 16.388 5.31357 16.3004C5.3834 16.2116 5.41832 16.1081 5.41832 15.9897C5.41832 15.882 5.38755 15.7938 5.32599 15.7251C5.26563 15.6565 5.18336 15.5997 5.07919 15.5547C4.97621 15.5097 4.85961 15.4701 4.7294 15.4357L4.29972 15.3185C4.00852 15.2392 3.7777 15.1226 3.60724 14.9688C3.43797 14.8149 3.35334 14.6113 3.35334 14.358C3.35334 14.1484 3.41016 13.9656 3.52379 13.8093C3.63743 13.6531 3.79131 13.5317 3.98544 13.4453C4.17957 13.3577 4.39856 13.3139 4.6424 13.3139C4.88861 13.3139 5.10582 13.3571 5.29403 13.4435C5.48343 13.5299 5.63258 13.6489 5.74148 13.8004C5.85038 13.9508 5.9072 14.1236 5.91193 14.3189H5.38281ZM8.30229 15.869V14.2727H8.83496V17H8.31294V16.5277H8.28453C8.2218 16.6733 8.12118 16.7946 7.98269 16.8917C7.84538 16.9876 7.67433 17.0355 7.46955 17.0355C7.29436 17.0355 7.13929 16.997 7.00435 16.9201C6.87059 16.842 6.76524 16.7266 6.6883 16.5739C6.61254 16.4212 6.57466 16.2324 6.57466 16.0075V14.2727H7.10556V15.9435C7.10556 16.1294 7.15705 16.2773 7.26003 16.3874C7.36301 16.4975 7.49677 16.5526 7.66131 16.5526C7.76074 16.5526 7.85958 16.5277 7.95783 16.478C8.05726 16.4283 8.13953 16.3531 8.20463 16.2525C8.27092 16.1519 8.30347 16.024 8.30229 15.869ZM9.59091 17V13.3636H10.1218V14.7148H10.1538C10.1845 14.658 10.2289 14.5923 10.2869 14.5178C10.3449 14.4432 10.4254 14.3781 10.5284 14.3224C10.6314 14.2656 10.7675 14.2372 10.9368 14.2372C11.157 14.2372 11.3535 14.2929 11.5263 14.4041C11.6991 14.5154 11.8346 14.6758 11.9329 14.8853C12.0323 15.0948 12.082 15.3469 12.082 15.6417C12.082 15.9364 12.0329 16.1892 11.9347 16.3999C11.8364 16.6094 11.7015 16.771 11.5298 16.8846C11.3582 16.997 11.1623 17.0533 10.9421 17.0533C10.7764 17.0533 10.6409 17.0254 10.5355 16.9698C10.4313 16.9142 10.3497 16.8491 10.2905 16.7745C10.2313 16.6999 10.1857 16.6336 10.1538 16.5756H10.1094V17H9.59091ZM10.1112 15.6364C10.1112 15.8281 10.139 15.9962 10.1946 16.1406C10.2502 16.285 10.3307 16.3981 10.4361 16.4798C10.5414 16.5603 10.6705 16.6005 10.8232 16.6005C10.9818 16.6005 11.1143 16.5585 11.2209 16.4744C11.3274 16.3892 11.4079 16.2738 11.4624 16.1282C11.518 15.9826 11.5458 15.8187 11.5458 15.6364C11.5458 15.4564 11.5186 15.2949 11.4641 15.1516C11.4109 15.0084 11.3304 14.8954 11.2227 14.8125C11.1161 14.7296 10.983 14.6882 10.8232 14.6882C10.6693 14.6882 10.5391 14.7279 10.4325 14.8072C10.3272 14.8865 10.2473 14.9972 10.1928 15.1392C10.1384 15.2812 10.1112 15.447 10.1112 15.6364ZM14.7219 14.9386L14.2407 15.0238C14.2206 14.9622 14.1886 14.9036 14.1448 14.848C14.1022 14.7924 14.0442 14.7468 13.9708 14.7113C13.8974 14.6758 13.8057 14.658 13.6956 14.658C13.5452 14.658 13.4198 14.6918 13.3192 14.7592C13.2185 14.8255 13.1682 14.9113 13.1682 15.0167C13.1682 15.1078 13.202 15.1812 13.2694 15.2369C13.3369 15.2925 13.4458 15.3381 13.5961 15.3736L14.0294 15.473C14.2803 15.531 14.4674 15.6204 14.5905 15.7411C14.7136 15.8619 14.7751 16.0187 14.7751 16.2116C14.7751 16.375 14.7278 16.5206 14.6331 16.6484C14.5396 16.7751 14.4088 16.8745 14.2407 16.9467C14.0738 17.0189 13.8802 17.055 13.6601 17.055C13.3547 17.055 13.1055 16.9899 12.9126 16.8597C12.7196 16.7283 12.6012 16.5419 12.5574 16.3004L13.0706 16.2223C13.1025 16.3561 13.1682 16.4573 13.2677 16.5259C13.3671 16.5934 13.4967 16.6271 13.6565 16.6271C13.8305 16.6271 13.9696 16.591 14.0738 16.5188C14.1779 16.4454 14.23 16.3561 14.23 16.2507C14.23 16.1655 14.1981 16.0939 14.1341 16.0359C14.0714 15.9779 13.9749 15.9341 13.8447 15.9045L13.3831 15.8033C13.1286 15.7453 12.9404 15.6529 12.8184 15.5263C12.6977 15.3996 12.6373 15.2392 12.6373 15.0451C12.6373 14.8841 12.6823 14.7433 12.7723 14.6225C12.8622 14.5018 12.9865 14.4077 13.1452 14.3402C13.3038 14.2715 13.4855 14.2372 13.6903 14.2372C13.985 14.2372 14.217 14.3011 14.3863 14.429C14.5555 14.5556 14.6674 14.7255 14.7219 14.9386Z" fill="#6E778A"/>
</svg>