<?xml version="1.0" encoding="UTF-8" standalone="no"?>
<!DOCTYPE svg PUBLIC "-//W3C//DTD SVG 1.1//EN" "http://www.w3.org/Graphics/SVG/1.1/DTD/svg11.dtd">
<svg xmlns="http://www.w3.org/2000/svg" version="1.1" viewBox="0.00 0.00 2560.00 278.00">
<path fill="#df392e" d="
  M 155.87 0.00
  L 291.86 0.00
  L 441.48 278.00
  L 335.96 278.00
  L 311.94 234.33
  Q 311.72 233.93 311.26 233.93
  L 137.26 233.93
  A 0.73 0.72 -75.0 0 0 136.63 234.30
  L 112.06 278.00
  L 2.08 278.00
  L 155.87 0.00
  Z
  M 176.83 162.16
  A 0.31 0.31 0.0 0 0 177.10 162.62
  L 269.84 162.62
  A 0.31 0.31 0.0 0 0 270.11 162.16
  L 223.39 80.31
  A 0.31 0.31 0.0 0 0 222.85 80.31
  L 176.83 162.16
  Z"
/>
<path fill="#df392e" d="
  M 457.94 0.00
  L 553.55 0.00
  L 553.55 98.59
  Q 553.55 99.08 554.04 99.08
  L 591.23 99.07
  Q 591.73 99.07 592.11 98.74
  L 703.78 0.00
  L 843.96 0.00
  L 684.73 142.13
  A 0.35 0.34 42.9 0 0 684.75 142.65
  L 851.42 278.00
  L 708.69 278.00
  L 591.12 180.82
  A 1.38 1.38 0.0 0 0 590.25 180.51
  L 558.01 180.51
  Q 557.50 180.51 557.50 181.02
  L 557.49 278.00
  L 457.94 278.00
  L 457.94 0.00
  Z"
/>
<path fill="#df392e" d="
  M 874.29 0.00
  L 1162.00 0.00
  C 1188.39 4.06 1211.71 23.24 1219.51 49.00
  C 1227.73 76.16 1222.82 120.09 1198.69 138.54
  Q 1198.24 138.88 1198.74 139.13
  C 1222.35 150.98 1229.69 188.27 1228.86 211.25
  C 1227.91 237.75 1214.97 264.82 1191.12 278.00
  L 874.90 278.00
  L 874.29 0.00
  Z
  M 964.49 72.49
  L 964.49 101.77
  A 0.49 0.49 0.0 0 0 964.98 102.26
  L 1112.77 102.26
  A 15.78 15.07 0.0 0 0 1128.55 87.19
  L 1128.55 87.07
  A 15.78 15.07 -0.0 0 0 1112.77 72.00
  L 964.98 72.00
  A 0.49 0.49 0.0 0 0 964.49 72.49
  Z
  M 964.47 174.24
  L 964.47 202.74
  A 0.73 0.73 0.0 0 0 965.20 203.47
  L 1116.44 203.47
  A 16.29 14.89 -0.0 0 0 1132.73 188.58
  L 1132.73 188.40
  A 16.29 14.89 0.0 0 0 1116.44 173.51
  L 965.20 173.51
  A 0.73 0.73 0.0 0 0 964.47 174.24
  Z"
/>
<path fill="#df392e" d="
  M 1396.10 0.00
  L 1531.21 0.00
  L 1680.83 278.00
  L 1575.65 278.00
  L 1551.79 235.27
  A 0.91 0.89 75.0 0 0 1551.01 234.81
  L 1377.26 234.82
  A 1.01 1.00 15.0 0 0 1376.39 235.32
  L 1352.28 278.00
  L 1242.33 278.00
  L 1396.10 0.00
  Z
  M 1417.24 162.16
  A 0.31 0.31 0.0 0 0 1417.51 162.62
  L 1510.59 162.62
  A 0.31 0.31 0.0 0 0 1510.86 162.16
  L 1463.80 80.30
  A 0.31 0.31 0.0 0 0 1463.26 80.31
  L 1417.24 162.16
  Z"
/>
<path fill="#df392e" d="
  M 1700.25 0.00
  L 1853.94 0.00
  L 1999.32 196.19
  Q 1999.79 196.82 1999.79 196.04
  L 1999.78 0.00
  L 2099.03 0.00
  L 2099.03 278.00
  L 1941.22 278.00
  L 1801.10 92.87
  A 0.18 0.18 0.0 0 0 1800.77 92.98
  L 1800.77 278.00
  L 1700.25 278.00
  L 1700.25 0.00
  Z"
/>
<path fill="#df392e" d="
  M 2157.08 0.00
  L 2252.78 0.00
  L 2252.78 98.59
  Q 2252.78 99.07 2253.27 99.07
  L 2290.03 99.07
  A 1.46 1.45 24.1 0 0 2290.99 98.71
  L 2402.55 0.00
  L 2542.83 0.00
  L 2383.86 142.19
  A 0.26 0.26 0.0 0 0 2383.87 142.59
  L 2550.22 278.00
  L 2407.55 278.00
  L 2290.02 180.87
  Q 2289.59 180.51 2289.03 180.51
  L 2256.76 180.51
  A 0.50 0.50 0.0 0 0 2256.26 181.01
  L 2256.26 278.00
  L 2157.07 278.00
  L 2157.08 0.00
  Z"
/>
</svg>
