<?xml version="1.0" encoding="UTF-8" standalone="no"?>
<!DOCTYPE svg PUBLIC "-//W3C//DTD SVG 1.1//EN" "http://www.w3.org/Graphics/SVG/1.1/DTD/svg11.dtd">
<svg xmlns="http://www.w3.org/2000/svg" version="1.1" viewBox="0.00 0.00 201.00 30.00">
<path fill="#e3000f" d="
  M 79.00 0.00
  L 81.39 0.00
  L 81.49 2.99
  A 0.46 0.46 0.0 0 1 81.04 3.47
  L 79.29 3.51
  Q 78.89 3.52 78.91 3.12
  L 79.00 0.00
  Z"
/>
<path fill="#e3000f" d="
  M 85.43 0.00
  L 87.84 0.00
  L 87.85 3.11
  A 0.37 0.37 0.0 0 1 87.48 3.48
  L 85.68 3.50
  A 0.39 0.39 0.0 0 1 85.28 3.09
  L 85.43 0.00
  Z"
/>
<path fill="#181815" d="
  M 160.09 30.00
  L 159.21 30.00
  L 159.19 2.36
  A 0.25 0.24 -90.0 0 1 159.43 2.11
  L 159.85 2.12
  A 0.28 0.28 0.0 0 1 160.13 2.40
  L 160.09 30.00
  Z"
/>
<path fill="#e3000f" d="
  M 97.4379 20.7654
  A 6.65 6.65 0.0 0 1 90.7996 27.4270
  L 75.9196 27.4530
  A 6.65 6.65 0.0 0 1 69.2580 20.8146
  L 69.2421 11.6946
  A 6.65 6.65 0.0 0 1 75.8804 5.0330
  L 90.7604 5.0070
  A 6.65 6.65 0.0 0 1 97.4220 11.6454
  L 97.4379 20.7654
  Z
  M 94.4820 11.6405
  A 4.17 4.17 0.0 0 0 90.3047 7.4778
  L 76.2848 7.5022
  A 4.17 4.17 0.0 0 0 72.1220 11.6795
  L 72.1380 20.8195
  A 4.17 4.17 0.0 0 0 76.3153 24.9822
  L 90.3352 24.9578
  A 4.17 4.17 0.0 0 0 94.4980 20.7805
  L 94.4820 11.6405
  Z"
/>
<path fill="#e3000f" d="
  M 9.42 23.66
  L 7.62 27.09
  A 0.30 0.30 0.0 0 1 7.36 27.25
  L 0.52 27.25
  A 0.30 0.30 0.0 0 1 0.26 26.81
  L 11.85 5.41
  A 0.30 0.30 0.0 0 1 12.12 5.25
  L 20.53 5.25
  A 0.30 0.30 0.0 0 1 20.80 5.41
  L 32.54 26.81
  A 0.30 0.30 0.0 0 1 32.27 27.25
  L 25.48 27.25
  A 0.30 0.30 0.0 0 1 25.21 27.09
  L 23.35 23.66
  A 0.30 0.30 0.0 0 0 23.08 23.50
  L 9.68 23.50
  A 0.30 0.30 0.0 0 0 9.42 23.66
  Z
  M 12.28 18.27
  A 0.34 0.34 0.0 0 0 12.58 18.77
  L 20.15 18.73
  A 0.34 0.34 0.0 0 0 20.45 18.23
  L 16.63 10.77
  A 0.34 0.34 0.0 0 0 16.02 10.78
  L 12.28 18.27
  Z"
/>
<path fill="#e3000f" d="
  M 42.74 19.05
  L 42.74 26.93
  A 0.31 0.31 0.0 0 1 42.43 27.24
  L 36.30 27.25
  A 0.31 0.31 0.0 0 1 35.99 26.94
  L 35.99 5.55
  A 0.31 0.31 0.0 0 1 36.30 5.24
  L 42.43 5.26
  A 0.31 0.31 0.0 0 1 42.74 5.57
  L 42.74 12.95
  A 0.31 0.31 0.0 0 0 43.05 13.26
  L 45.79 13.27
  A 0.31 0.31 0.0 0 0 46.00 13.19
  L 54.35 5.33
  A 0.31 0.31 0.0 0 1 54.56 5.25
  L 62.76 5.25
  A 0.31 0.31 0.0 0 1 62.97 5.79
  L 51.92 15.77
  A 0.31 0.31 0.0 0 0 51.93 16.24
  L 64.29 26.69
  A 0.31 0.31 0.0 0 1 64.09 27.24
  L 55.60 27.25
  A 0.31 0.31 0.0 0 1 55.39 27.17
  L 45.83 18.82
  A 0.31 0.31 0.0 0 0 45.62 18.74
  L 43.05 18.74
  A 0.31 0.31 0.0 0 0 42.74 19.05
  Z"
/>
<path fill="#e3000f" d="
  M 119.40 12.79
  L 119.35 5.72
  Q 119.35 5.29 119.78 5.28
  L 121.46 5.23
  Q 121.96 5.21 121.96 5.71
  L 121.96 26.77
  Q 121.96 27.26 121.48 27.25
  L 120.20 27.24
  Q 119.56 27.23 119.52 26.59
  Q 119.49 26.10 119.64 25.67
  Q 120.02 24.63 119.17 25.45
  C 116.05 28.48 109.48 27.76 105.74 26.57
  C 101.43 25.20 102.10 20.74 102.42 16.77
  C 102.98 9.87 112.13 11.10 117.25 11.97
  Q 117.74 12.06 118.12 12.37
  L 118.92 13.02
  Q 119.40 13.41 119.40 12.79
  Z
  M 119.3383 17.2639
  A 3.82 3.82 0.0 0 0 115.4786 13.4841
  L 108.5589 13.5566
  A 3.82 3.82 0.0 0 0 104.7791 17.4163
  L 104.8217 21.4761
  A 3.82 3.82 0.0 0 0 108.6814 25.2559
  L 115.6011 25.1834
  A 3.82 3.82 0.0 0 0 119.3809 21.3237
  L 119.3383 17.2639
  Z"
/>
<path fill="#181815" d="
  M 191.66 16.28
  A 5.04 5.04 0.0 0 1 186.62 21.32
  A 5.04 5.04 0.0 0 1 181.58 16.28
  A 5.04 5.04 0.0 0 1 186.62 11.24
  A 5.04 5.04 0.0 0 1 191.66 16.28
  Z
  M 189.62 16.37
  A 3.00 3.00 0.0 0 0 186.62 13.37
  A 3.00 3.00 0.0 0 0 183.62 16.37
  A 3.00 3.00 0.0 0 0 186.62 19.37
  A 3.00 3.00 0.0 0 0 189.62 16.37
  Z"
/>
<path fill="#181815" d="
  M 201.00 18.38
  Q 201.01 18.47 201.00 18.57
  Q 198.94 22.89 194.33 20.66
  Q 193.20 20.11 193.02 18.54
  Q 192.95 18.00 193.49 18.00
  L 194.05 18.00
  Q 194.67 18.00 195.03 18.51
  Q 196.35 20.44 197.81 19.53
  Q 200.31 17.98 197.39 17.54
  Q 196.53 17.41 195.49 17.04
  C 192.43 15.95 192.54 11.93 195.80 11.46
  C 197.62 11.20 200.60 11.58 200.74 13.94
  A 0.77 0.77 0.0 0 1 199.46 14.57
  C 198.41 13.66 197.19 11.93 195.66 13.53
  A 1.00 1.00 0.0 0 0 196.30 15.22
  C 198.39 15.39 200.54 15.74 201.00 18.38
  Z"
/>
<path fill="#e3000f" d="
  M 130.54 20.00
  Q 129.02 20.00 129.35 21.47
  L 129.69 22.98
  A 2.39 2.39 0.0 0 0 131.77 24.84
  C 135.87 25.29 143.26 26.42 143.81 23.06
  Q 143.91 22.46 144.51 22.48
  L 146.00 22.54
  Q 146.61 22.56 146.52 23.16
  C 145.67 28.83 137.31 27.58 132.76 27.24
  C 126.25 26.76 126.58 22.14 126.78 17.24
  Q 126.99 11.94 132.25 11.59
  C 138.10 11.21 146.77 9.84 146.56 19.24
  Q 146.54 20.00 145.78 20.00
  L 130.54 20.00
  Z
  M 129.62 17.75
  L 143.74 17.75
  A 0.28 0.28 0.0 0 0 144.02 17.47
  L 144.02 17.30
  A 4.09 3.79 0.0 0 0 139.93 13.51
  L 133.43 13.51
  A 4.09 3.79 -0.0 0 0 129.34 17.30
  L 129.34 17.47
  A 0.28 0.28 0.0 0 0 129.62 17.75
  Z"
/>
<path fill="#181815" d="
  M 174.87 19.45
  L 174.92 20.78
  Q 174.94 21.26 174.47 21.25
  L 173.28 21.25
  Q 172.81 21.25 172.81 20.78
  L 172.81 11.99
  Q 172.80 11.51 173.29 11.50
  C 175.47 11.47 178.72 11.02 180.01 13.32
  C 181.99 16.84 178.48 18.30 175.53 18.67
  Q 174.84 18.75 174.87 19.45
  Z
  M 174.83 13.61
  L 174.85 16.37
  A 0.39 0.39 0.0 0 0 175.25 16.75
  L 176.26 16.74
  A 2.24 1.64 -0.5 0 0 178.48 15.08
  L 178.48 14.82
  A 2.24 1.64 -0.5 0 0 176.22 13.20
  L 175.21 13.21
  A 0.39 0.39 0.0 0 0 174.83 13.61
  Z"
/>
</svg>
