<?xml version="1.0" encoding="UTF-8" standalone="no"?>
<!DOCTYPE svg PUBLIC "-//W3C//DTD SVG 1.1//EN" "http://www.w3.org/Graphics/SVG/1.1/DTD/svg11.dtd">
<svg xmlns="http://www.w3.org/2000/svg" version="1.1" viewBox="0.00 0.00 300.00 90.00">
<path fill="#f78e1e" d="
  M 245.19 55.42
  Q 250.44 40.45 255.66 25.41
  Q 256.69 22.44 256.22 20.50
  C 254.73 14.34 246.08 13.41 243.48 19.30
  Q 242.83 20.77 242.80 23.81
  Q 242.69 37.99 242.88 51.61
  Q 242.90 52.81 242.27 51.79
  Q 237.30 43.76 232.41 35.87
  Q 229.07 30.47 228.25 26.67
  C 224.43 8.87 243.73 -6.30 260.46 3.25
  C 268.37 7.76 272.89 16.82 271.08 25.92
  Q 270.25 30.08 265.77 37.53
  Q 257.93 50.56 250.22 63.50
  Q 249.88 64.07 249.53 63.50
  L 245.32 56.69
  Q 244.95 56.09 245.19 55.42
  Z"
/>
<path fill="#e31837" d="
  M 282.32 34.48
  Q 276.61 50.97 271.30 66.01
  C 269.90 69.96 273.26 74.35 277.38 74.66
  C 281.72 74.97 284.69 71.53 284.70 67.25
  Q 284.74 52.66 284.64 38.15
  Q 284.64 37.20 285.14 38.01
  Q 289.50 45.11 294.02 52.41
  Q 298.45 59.56 299.32 63.62
  C 303.42 82.99 280.46 97.25 264.60 85.15
  C 257.92 80.06 254.46 71.01 256.64 62.72
  Q 257.45 59.63 261.04 53.63
  Q 269.13 40.08 277.29 26.51
  A 0.41 0.41 0.0 0 1 277.99 26.51
  L 282.20 33.35
  Q 282.53 33.89 282.32 34.48
  Z"
/>
<path fill="#696a6d" d="
  M 42.70 77.24
  C 42.69 80.60 45.15 83.15 48.52 83.02
  Q 49.29 82.99 49.29 83.75
  L 49.30 88.74
  Q 49.30 89.45 48.60 89.51
  C 41.31 90.19 34.36 87.31 34.26 79.00
  Q 34.05 61.10 34.07 43.43
  Q 34.07 42.99 34.51 42.98
  L 42.29 42.97
  Q 42.76 42.97 42.76 43.44
  Q 42.77 60.13 42.70 77.24
  Z"
/>
<path fill="#696a6d" d="
  M 77.07 64.33
  Q 85.76 67.88 85.21 76.39
  C 84.17 92.49 64.37 89.74 53.86 89.63
  A 0.25 0.25 0.0 0 1 53.61 89.38
  L 53.62 43.53
  Q 53.62 43.08 54.07 43.07
  Q 66.71 42.74 70.60 43.11
  C 81.59 44.16 87.31 57.41 77.03 63.87
  Q 76.60 64.14 77.07 64.33
  Z
  M 62.33 50.52
  L 62.27 61.92
  A 0.36 0.36 0.0 0 0 62.63 62.28
  L 67.25 62.31
  A 6.26 5.82 0.3 0 0 73.54 56.52
  L 73.54 56.04
  A 6.26 5.82 0.3 0 0 67.31 50.19
  L 62.69 50.16
  A 0.36 0.36 0.0 0 0 62.33 50.52
  Z
  M 62.30 69.86
  L 62.30 81.96
  A 0.35 0.35 0.0 0 0 62.65 82.31
  L 69.03 82.31
  A 7.41 6.14 -0.0 0 0 76.44 76.17
  L 76.44 75.65
  A 7.41 6.14 0.0 0 0 69.03 69.51
  L 62.65 69.51
  A 0.35 0.35 0.0 0 0 62.30 69.86
  Z"
/>
<path fill="#696a6d" d="
  M 179.68 68.61
  L 191.82 55.39
  A 0.32 0.32 0.0 0 1 192.06 55.29
  L 201.71 55.29
  A 0.32 0.32 0.0 0 1 201.94 55.83
  L 190.44 68.04
  A 0.32 0.32 0.0 0 0 190.40 68.43
  L 202.99 89.03
  A 0.32 0.32 0.0 0 1 202.72 89.52
  L 193.12 89.52
  A 0.32 0.32 0.0 0 1 192.85 89.36
  L 184.38 75.19
  A 0.32 0.32 0.0 0 0 183.87 75.14
  L 179.21 80.12
  A 0.32 0.32 0.0 0 0 179.12 80.34
  L 179.19 89.19
  A 0.32 0.32 0.0 0 1 178.87 89.51
  L 170.62 89.52
  A 0.32 0.32 0.0 0 1 170.30 89.20
  L 170.30 43.39
  A 0.32 0.32 0.0 0 1 170.62 43.07
  L 178.83 43.06
  A 0.32 0.32 0.0 0 1 179.15 43.38
  L 179.12 68.40
  A 0.32 0.32 0.0 0 0 179.68 68.61
  Z"
/>
<path fill="#696a6d" d="
  M 0.00 80.59
  L 0.00 76.79
  C 2.44 67.41 12.26 67.83 19.60 67.60
  Q 20.14 67.58 20.12 67.03
  C 19.81 60.36 11.54 60.21 6.99 61.96
  Q 6.73 62.06 6.73 61.79
  L 6.72 55.76
  A 0.31 0.31 0.0 0 1 6.95 55.46
  C 13.37 53.90 23.85 53.29 27.39 60.11
  Q 28.75 62.71 28.76 69.60
  C 28.78 75.94 28.47 82.25 29.38 88.55
  Q 29.44 88.99 28.99 88.99
  L 22.78 88.94
  A 0.93 0.92 -11.5 0 1 21.95 88.40
  L 21.19 86.71
  A 0.59 0.58 59.5 0 0 20.31 86.48
  C 13.44 91.68 1.88 90.83 0.00 80.59
  Z
  M 8.78 79.72
  C 10.44 83.99 16.60 83.30 19.61 81.11
  Q 20.02 80.81 20.02 80.29
  L 20.02 74.26
  Q 20.02 73.77 19.53 73.70
  C 16.38 73.26 6.41 73.58 8.78 79.72
  Z"
/>
<path fill="#696a6d" d="
  M 107.17 67.04
  C 107.50 61.13 98.91 59.88 94.95 61.71
  Q 93.85 62.22 93.86 61.01
  L 93.87 56.67
  Q 93.88 55.47 95.05 55.21
  C 103.82 53.28 115.93 54.09 115.79 66.00
  Q 115.65 77.21 116.32 88.41
  Q 116.35 88.98 115.77 88.98
  L 109.93 88.95
  Q 109.29 88.95 109.04 88.36
  L 108.31 86.66
  A 0.55 0.55 0.0 0 0 107.47 86.43
  C 99.39 92.63 85.63 89.60 87.29 77.26
  C 88.64 67.21 99.59 68.19 106.65 67.59
  Q 107.15 67.54 107.17 67.04
  Z
  M 106.53 73.52
  C 103.27 73.57 98.14 73.38 96.30 76.13
  C 94.62 78.64 96.40 82.03 99.39 82.61
  Q 103.45 83.40 106.79 81.10
  Q 107.24 80.79 107.24 80.24
  L 107.24 74.22
  A 0.70 0.70 0.0 0 0 106.53 73.52
  Z"
/>
<path fill="#696a6d" d="
  M 156.71 86.44
  C 151.99 90.26 144.51 90.90 139.87 86.96
  C 134.60 82.49 135.18 73.25 141.84 69.92
  C 146.64 67.51 151.32 67.77 155.89 67.60
  Q 156.39 67.58 156.42 67.08
  C 156.81 61.08 148.26 59.95 144.23 61.71
  Q 143.15 62.18 143.15 61.01
  L 143.15 56.63
  Q 143.15 55.54 144.21 55.28
  C 149.62 53.94 157.92 53.78 162.26 57.86
  Q 165.33 60.75 165.26 65.00
  Q 165.05 76.71 165.55 88.42
  Q 165.57 88.97 165.02 88.97
  L 159.13 88.96
  Q 158.58 88.96 158.36 88.46
  L 157.57 86.65
  A 0.56 0.55 58.3 0 0 156.71 86.44
  Z
  M 155.81 73.55
  C 152.75 73.57 147.81 73.36 145.81 75.87
  C 144.01 78.13 145.29 81.73 148.26 82.47
  Q 152.49 83.53 155.98 81.18
  Q 156.46 80.85 156.46 80.26
  L 156.47 74.20
  Q 156.47 73.54 155.81 73.55
  Z"
/>
<path fill="#696a6d" d="
  M 222.67 86.39
  C 216.28 91.61 205.19 90.79 202.75 82.08
  Q 201.74 78.50 202.72 75.44
  C 205.25 67.56 215.35 67.76 221.84 67.60
  A 0.58 0.58 0.0 0 0 222.41 67.00
  C 222.12 60.34 213.89 60.27 209.22 61.89
  Q 208.98 61.97 208.98 61.72
  L 208.97 55.78
  Q 208.97 55.53 209.22 55.46
  C 218.12 53.27 230.56 53.41 230.92 65.76
  C 231.14 73.17 230.56 81.29 231.61 88.56
  Q 231.67 88.99 231.24 88.99
  L 225.05 88.95
  A 0.95 0.95 0.0 0 1 224.19 88.37
  L 223.42 86.57
  Q 223.17 85.98 222.67 86.39
  Z
  M 211.24 80.09
  C 212.81 84.06 218.99 83.05 221.86 81.11
  Q 222.31 80.81 222.31 80.27
  L 222.33 74.00
  A 0.50 0.50 0.0 0 0 221.80 73.50
  C 218.61 73.65 208.54 73.22 211.24 80.09
  Z"
/>
<path fill="#696a6d" d="
  M 138.50 62.59
  C 134.05 60.97 129.52 62.79 129.61 68.02
  Q 129.79 78.88 129.87 89.25
  Q 129.88 89.66 129.46 89.66
  L 121.50 89.65
  Q 121.06 89.65 121.06 89.20
  Q 121.04 77.94 121.17 66.26
  C 121.29 56.63 130.47 53.88 138.43 55.83
  Q 138.73 55.91 138.73 56.22
  L 138.74 62.42
  A 0.18 0.18 0.0 0 1 138.50 62.59
  Z"
/>
</svg>
