<?xml version="1.0" encoding="UTF-8" standalone="no"?>
<!DOCTYPE svg PUBLIC "-//W3C//DTD SVG 1.1//EN" "http://www.w3.org/Graphics/SVG/1.1/DTD/svg11.dtd">
<svg xmlns="http://www.w3.org/2000/svg" version="1.1" viewBox="0.00 0.00 1366.00 350.00">
<path fill="#323edd" d="
  M 565.03 141.30
  Q 564.94 194.89 565.01 248.51
  C 565.02 254.86 562.16 257.42 556.11 257.46
  Q 544.31 257.53 532.50 257.50
  C 525.88 257.48 524.75 252.17 524.75 246.40
  Q 524.76 193.83 524.75 141.26
  Q 524.75 140.70 524.19 140.71
  C 514.10 140.88 504.88 143.15 504.78 131.13
  Q 504.71 122.82 504.76 114.51
  C 504.79 108.65 509.27 107.51 514.44 107.51
  Q 519.34 107.51 524.25 107.49
  Q 524.81 107.49 524.80 106.94
  Q 524.71 94.32 524.57 81.76
  Q 524.40 65.71 532.59 53.11
  C 543.44 36.40 563.63 28.79 583.26 28.79
  C 589.93 28.80 591.44 32.20 591.49 38.41
  Q 591.56 48.37 591.46 58.32
  C 591.40 63.42 589.91 66.72 584.45 66.74
  C 573.87 66.78 565.08 72.45 564.99 84.01
  Q 564.90 95.48 565.05 106.99
  Q 565.06 107.49 565.56 107.49
  Q 573.18 107.52 580.74 107.51
  C 587.26 107.50 588.71 110.72 588.73 116.80
  Q 588.76 123.23 588.76 129.64
  C 588.76 137.93 586.58 140.73 578.37 140.73
  Q 571.97 140.73 565.56 140.76
  Q 565.03 140.76 565.03 141.30
  Z"
/>
<path fill="#323edd" d="
  M 662.56 143.28
  Q 662.44 195.64 662.32 248.00
  C 662.30 255.85 659.62 257.49 652.11 257.49
  Q 639.80 257.50 627.49 257.41
  C 621.71 257.37 620.77 253.66 620.77 248.51
  Q 620.74 195.90 620.75 143.29
  Q 620.75 142.76 620.23 142.76
  C 613.72 142.68 603.84 144.41 603.60 134.88
  Q 603.26 120.98 603.59 115.00
  C 604.09 105.71 613.77 107.54 620.21 107.49
  Q 620.74 107.49 620.74 106.96
  Q 620.78 87.59 620.73 68.24
  C 620.72 63.02 621.82 58.71 627.38 57.86
  Q 640.28 55.88 653.22 53.98
  C 661.66 52.75 662.61 58.83 662.57 65.75
  Q 662.47 86.35 662.50 106.95
  Q 662.50 107.48 663.03 107.49
  Q 670.69 107.54 678.28 107.50
  Q 683.06 107.47 685.06 108.52
  Q 688.64 110.41 688.92 115.07
  Q 689.12 118.50 688.98 131.50
  C 688.90 139.23 687.25 142.75 678.88 142.74
  Q 670.99 142.73 663.08 142.76
  Q 662.56 142.76 662.56 143.28
  Z"
/>
<path fill="#323edd" d="
  M 1128.52 143.30
  Q 1128.45 195.50 1128.50 247.70
  C 1128.51 253.36 1127.34 257.43 1121.01 257.45
  Q 1107.24 257.52 1093.50 257.36
  C 1087.49 257.28 1086.92 252.78 1086.91 248.00
  Q 1086.76 195.64 1086.72 143.27
  Q 1086.72 142.76 1086.21 142.76
  C 1079.84 142.69 1070.01 144.27 1069.83 134.99
  Q 1069.55 120.38 1069.81 115.00
  C 1070.26 105.80 1079.88 107.52 1086.22 107.49
  Q 1086.75 107.49 1086.75 106.96
  Q 1086.76 86.59 1086.76 66.25
  Q 1086.75 58.80 1094.75 57.64
  Q 1107.00 55.84 1119.26 53.98
  C 1127.05 52.80 1128.45 57.25 1128.47 63.97
  Q 1128.53 85.60 1128.49 107.18
  Q 1128.49 107.50 1128.80 107.50
  Q 1136.43 107.52 1144.09 107.49
  C 1150.51 107.46 1154.84 108.64 1155.06 115.76
  Q 1155.32 123.99 1155.22 132.25
  C 1155.13 139.11 1153.21 142.70 1145.83 142.72
  Q 1137.45 142.74 1129.06 142.75
  Q 1128.52 142.76 1128.52 143.30
  Z"
/>
<path fill="#323edd" d="
  M 146.50 152.46
  C 131.15 141.35 112.09 138.47 96.42 149.08
  C 70.00 166.97 71.52 211.39 104.86 221.13
  C 120.18 225.61 133.19 220.27 147.06 213.96
  C 150.77 212.28 152.76 212.20 155.16 215.59
  Q 162.00 225.23 168.66 235.04
  C 171.24 238.85 169.75 241.57 166.34 244.10
  C 132.95 268.92 87.48 266.13 59.24 234.89
  C 25.05 197.07 36.62 135.72 82.09 112.84
  C 104.10 101.75 129.86 101.41 151.76 112.87
  C 156.77 115.49 168.06 120.43 168.37 126.79
  Q 168.47 128.92 166.48 132.30
  Q 161.73 140.32 157.09 148.40
  C 154.47 152.96 151.73 156.25 146.50 152.46
  Z"
/>
<path fill="#323edd" d="
  M 1221.22 197.30
  C 1221.55 207.52 1230.40 216.58 1239.17 220.85
  C 1254.73 228.41 1270.96 223.90 1285.12 214.84
  C 1288.09 212.94 1291.74 211.85 1293.85 215.17
  Q 1299.96 224.80 1305.94 234.52
  C 1308.83 239.23 1305.97 242.17 1302.02 245.23
  C 1267.46 272.02 1218.06 263.98 1192.94 228.30
  C 1175.87 204.08 1173.49 172.58 1187.51 146.29
  C 1208.89 106.18 1258.15 91.11 1296.60 117.63
  C 1314.16 129.73 1325.42 149.09 1326.49 170.50
  Q 1326.88 178.13 1325.56 187.97
  C 1324.47 196.13 1319.81 196.78 1312.30 196.77
  Q 1267.01 196.71 1221.74 196.76
  Q 1221.20 196.77 1221.22 197.30
  Z
  M 1263.36 140.70
  C 1244.60 135.63 1225.15 147.19 1221.08 166.52
  A 0.40 0.40 0.0 0 0 1221.47 167.00
  L 1285.76 167.00
  Q 1286.32 167.00 1286.30 166.44
  C 1285.68 153.60 1275.16 143.89 1263.36 140.70
  Z"
/>
<path fill="#323edd" d="
  M 441.09 240.18
  C 438.73 243.31 436.20 246.84 433.61 249.31
  C 421.35 261.04 403.57 262.26 387.67 259.38
  C 346.66 251.94 323.77 212.98 328.26 173.24
  C 333.06 130.72 365.14 101.99 408.79 105.67
  C 423.18 106.88 433.71 115.33 442.43 126.33
  A 0.31 0.31 0.0 0 0 442.98 126.21
  Q 444.80 118.97 446.80 112.00
  Q 448.23 107.00 453.24 107.03
  Q 463.01 107.08 472.74 107.52
  Q 477.00 107.71 479.17 111.18
  Q 480.50 113.31 480.50 117.59
  Q 480.49 182.40 480.51 247.20
  Q 480.51 251.73 479.42 253.62
  C 477.69 256.61 474.54 257.39 470.96 257.44
  Q 455.36 257.65 450.97 257.49
  C 442.67 257.19 442.95 246.31 441.73 240.32
  Q 441.57 239.54 441.09 240.18
  Z
  M 370.93 165.95
  C 366.04 178.26 366.42 194.77 373.54 206.24
  Q 385.42 225.40 408.95 223.15
  C 451.83 219.03 451.49 148.01 408.96 143.00
  C 391.93 140.99 377.34 149.82 370.93 165.95
  Z"
/>
<path fill="#323edd" d="
  M 1006.26 240.12
  C 1003.38 243.83 1000.44 248.04 997.06 250.84
  Q 986.69 259.42 972.80 260.38
  C 932.99 263.12 900.92 237.35 894.17 198.48
  C 886.71 155.56 909.47 113.26 954.75 106.21
  Q 967.02 104.30 978.49 106.27
  C 990.08 108.27 1000.17 116.99 1007.24 126.05
  Q 1007.88 126.88 1008.15 125.86
  Q 1009.89 119.07 1011.73 112.50
  Q 1013.29 106.92 1018.49 106.98
  Q 1028.26 107.07 1037.99 107.55
  Q 1042.04 107.75 1044.17 111.08
  Q 1045.50 113.15 1045.50 117.21
  Q 1045.50 183.18 1045.50 249.13
  C 1045.50 255.40 1041.50 257.39 1035.93 257.45
  Q 1020.63 257.63 1015.97 257.49
  C 1007.90 257.25 1007.85 246.19 1006.86 240.27
  Q 1006.74 239.51 1006.26 240.12
  Z
  M 936.41 164.94
  C 925.59 190.39 938.99 224.32 970.25 223.44
  Q 989.20 222.91 998.81 208.53
  C 1014.44 185.15 1004.22 143.90 971.42 142.70
  C 955.70 142.12 942.63 150.32 936.41 164.94
  Z"
/>
<path fill="#323edd" d="
  M 244.70 127.25
  C 257.19 110.03 277.57 100.49 298.56 108.31
  C 305.32 110.83 313.59 114.76 318.45 120.06
  Q 321.39 123.27 318.99 127.26
  Q 312.43 138.14 305.52 148.80
  C 301.23 155.41 294.15 150.71 289.19 147.38
  C 273.22 136.65 253.89 146.95 248.71 164.02
  Q 247.52 167.93 247.52 174.61
  Q 247.49 210.88 247.49 247.15
  C 247.49 252.62 246.55 257.47 240.25 257.49
  Q 218.38 257.55 212.76 257.48
  C 207.00 257.40 205.75 253.63 205.75 248.42
  Q 205.76 182.89 205.75 117.36
  C 205.75 110.56 208.51 108.11 214.98 108.04
  Q 224.24 107.94 233.50 108.05
  C 237.67 108.10 239.35 110.55 240.67 114.74
  Q 242.59 120.90 244.22 127.16
  A 0.27 0.27 0.0 0 0 244.70 127.25
  Z"
/>
<path fill="#323edd" d="
  M 826.51 126.12
  Q 827.93 118.92 830.41 111.97
  Q 831.89 107.85 836.24 107.80
  Q 844.55 107.69 852.85 107.77
  C 861.71 107.86 864.76 110.30 864.76 119.07
  Q 864.74 182.16 864.75 245.25
  C 864.77 308.72 805.92 334.64 751.52 314.97
  C 743.95 312.23 727.80 304.46 728.93 295.26
  Q 729.25 292.62 731.97 288.98
  Q 737.65 281.40 743.32 273.81
  C 747.53 268.19 752.30 270.52 757.09 274.12
  C 764.86 279.96 774.62 281.69 784.00 281.88
  Q 798.33 282.19 809.87 273.89
  C 820.92 265.93 821.11 253.09 821.43 240.93
  Q 821.46 239.63 820.79 240.75
  Q 810.07 258.85 788.51 260.19
  C 757.35 262.13 729.43 244.04 717.44 215.43
  C 697.49 167.81 723.85 111.14 777.99 105.87
  C 798.45 103.87 812.68 111.72 826.17 126.21
  A 0.20 0.19 29.3 0 0 826.51 126.12
  Z
  M 754.17 200.06
  C 760.61 217.43 777.00 225.70 795.00 222.81
  C 833.54 216.61 834.11 154.07 798.01 144.06
  C 786.56 140.89 772.80 143.35 763.85 151.80
  C 751.08 163.85 748.19 183.95 754.17 200.06
  Z"
/>
</svg>
