<?xml version="1.0" encoding="UTF-8" standalone="no"?>
<!DOCTYPE svg PUBLIC "-//W3C//DTD SVG 1.1//EN" "http://www.w3.org/Graphics/SVG/1.1/DTD/svg11.dtd">
<svg xmlns="http://www.w3.org/2000/svg" version="1.1" viewBox="0.00 0.00 2560.00 563.00">
<g stroke-width="2.00" fill="none" stroke-linecap="butt">
<path stroke="#e78b9d" vector-effect="non-scaling-stroke" d="
  M 2262.19 484.32
  C 2262.26 499.17 2262.81 514.41 2261.82 529.20
  C 2260.83 544.11 2276.00 556.29 2290.22 551.46
  Q 2304.04 546.76 2305.61 532.00
  C 2305.85 529.73 2305.28 527.18 2305.26 524.98
  Q 2305.18 513.78 2305.28 483.98
  Q 2305.29 483.49 2305.77 483.44
  Q 2362.22 476.93 2406.59 441.84
  A 0.44 0.43 -40.8 0 1 2407.17 441.88
  Q 2420.69 455.58 2434.31 469.19
  C 2436.06 470.93 2438.00 473.80 2440.34 475.49
  C 2463.33 492.11 2488.93 460.70 2468.01 441.49
  C 2457.56 431.90 2447.82 421.34 2437.87 411.27
  A 0.39 0.39 0.0 0 1 2437.85 410.75
  Q 2473.83 365.56 2480.84 307.98
  Q 2480.90 307.44 2481.45 307.44
  Q 2498.68 307.39 2515.93 307.44
  Q 2524.77 307.47 2528.92 306.07
  Q 2540.38 302.21 2544.30 289.39
  C 2547.52 278.86 2537.34 268.09 2528.64 265.20
  Q 2524.70 263.88 2517.23 263.92
  Q 2499.47 264.01 2481.57 263.94
  Q 2481.07 263.94 2481.01 263.44
  Q 2475.52 215.38 2448.95 175.04
  Q 2446.81 171.80 2439.77 162.26
  Q 2439.45 161.83 2439.83 161.45
  Q 2453.49 147.39 2467.13 133.32
  C 2473.29 126.96 2476.82 121.63 2476.42 113.22
  Q 2475.50 94.24 2456.28 93.29
  C 2447.92 92.87 2442.47 96.79 2436.29 103.08
  Q 2422.59 117.01 2408.87 130.83
  A 0.38 0.37 -48.0 0 1 2408.37 130.86
  Q 2363.37 94.70 2305.76 88.02
  Q 2305.28 87.97 2305.27 87.48
  Q 2305.20 68.36 2305.26 49.25
  C 2305.28 45.35 2305.90 41.13 2305.50 37.93
  C 2303.13 18.93 2279.65 12.27 2267.15 26.31
  Q 2261.37 32.80 2261.88 42.50
  C 2262.66 57.38 2262.25 72.52 2262.19 87.49
  Q 2262.19 87.97 2261.71 88.02
  Q 2204.49 94.49 2159.62 130.18
  Q 2159.19 130.53 2158.80 130.14
  Q 2143.74 115.22 2128.90 100.07
  Q 2124.02 95.09 2120.42 93.27
  Q 2108.94 87.47 2097.02 94.25
  C 2088.22 99.26 2087.82 114.05 2091.44 121.64
  Q 2093.34 125.61 2099.93 132.22
  Q 2114.30 146.63 2128.63 161.06
  A 0.46 0.46 0.0 0 1 2128.67 161.67
  Q 2093.73 206.64 2087.28 263.46
  Q 2087.23 263.94 2086.74 263.94
  C 2071.48 263.98 2056.11 264.26 2040.85 263.83
  Q 2023.91 263.36 2016.67 278.14
  C 2010.85 290.03 2020.33 302.34 2030.93 305.94
  Q 2034.79 307.26 2041.71 307.24
  Q 2064.22 307.20 2086.49 307.24
  A 1.14 1.14 0.0 0 1 2087.62 308.24
  Q 2094.52 365.84 2130.48 411.07
  Q 2130.82 411.50 2130.44 411.89
  Q 2116.53 426.15 2102.45 440.24
  Q 2096.23 446.47 2094.36 450.33
  C 2090.70 457.86 2091.19 467.65 2096.60 474.96
  Q 2097.78 476.55 2099.41 477.54
  Q 2111.49 484.83 2123.02 478.98
  Q 2126.95 476.99 2133.02 470.84
  Q 2147.19 456.52 2161.44 442.37
  Q 2161.65 442.16 2161.89 442.34
  Q 2205.95 476.86 2261.71 483.79
  Q 2262.18 483.85 2262.19 484.32"
/>
<path stroke="#e78b9d" vector-effect="non-scaling-stroke" d="
  M 2364.68 183.59
  C 2345.24 167.78 2321.44 157.78 2296.47 155.30
  Q 2295.96 155.25 2295.96 155.77
  L 2295.96 220.02
  Q 2295.96 220.65 2296.57 220.77
  Q 2308.39 223.10 2318.47 229.65
  Q 2318.95 229.96 2319.35 229.56
  L 2364.71 184.19
  A 0.41 0.40 -48.1 0 0 2364.68 183.59"
/>
<path stroke="#e78b9d" vector-effect="non-scaling-stroke" d="
  M 2249.63 229.02
  C 2254.24 226.13 2259.11 224.04 2264.30 222.21
  Q 2264.80 222.03 2264.80 221.50
  L 2264.80 156.75
  Q 2264.80 156.20 2264.25 156.26
  C 2242.47 158.76 2220.30 169.28 2203.36 182.87
  Q 2203.17 183.02 2203.34 183.19
  L 2248.83 228.93
  Q 2249.20 229.30 2249.63 229.02"
/>
<path stroke="#e78b9d" vector-effect="non-scaling-stroke" d="
  M 2181.77 206.19
  C 2167.49 224.81 2158.45 247.07 2155.89 270.37
  Q 2155.85 270.75 2156.23 270.75
  L 2220.25 270.99
  A 0.63 0.61 -82.8 0 0 2220.85 270.51
  Q 2223.09 261.14 2227.86 252.78
  Q 2228.11 252.34 2227.76 251.98
  L 2182.31 206.16
  A 0.36 0.35 41.6 0 0 2181.77 206.19"
/>
<path stroke="#e78b9d" vector-effect="non-scaling-stroke" d="
  M 2411.85 270.17
  C 2409.37 247.38 2400.58 225.04 2386.72 206.67
  Q 2386.44 206.29 2386.11 206.63
  L 2340.62 252.64
  Q 2340.22 253.05 2340.49 253.55
  Q 2344.74 261.34 2346.75 269.99
  Q 2346.89 270.58 2347.50 270.58
  L 2411.47 270.59
  Q 2411.89 270.59 2411.85 270.17"
/>
<path stroke="#e78b9d" vector-effect="non-scaling-stroke" d="
  M 2155.35 301.83
  C 2158.43 325.24 2167.73 347.79 2182.58 366.15
  Q 2182.97 366.62 2183.40 366.19
  L 2228.63 320.92
  A 0.63 0.63 0.0 0 0 2228.71 320.13
  Q 2223.22 311.63 2220.67 301.83
  A 0.54 0.54 0.0 0 0 2220.15 301.43
  L 2155.71 301.42
  A 0.37 0.36 86.5 0 0 2155.35 301.83"
/>
<path stroke="#e78b9d" vector-effect="non-scaling-stroke" d="
  M 2346.28 302.27
  C 2344.26 308.22 2342.23 313.44 2338.94 318.88
  Q 2338.68 319.33 2339.04 319.69
  L 2384.73 365.41
  A 0.22 0.21 -48.4 0 0 2385.05 365.39
  Q 2406.73 337.26 2411.57 301.95
  A 0.35 0.34 -86.3 0 0 2411.23 301.56
  L 2346.98 301.77
  Q 2346.45 301.77 2346.28 302.27"
/>
<path stroke="#e78b9d" vector-effect="non-scaling-stroke" d="
  M 2264.82 347.89
  L 2251.67 342.26
  Q 2251.24 342.07 2250.91 342.41
  L 2205.62 388.09
  Q 2205.26 388.45 2205.67 388.76
  Q 2232.05 408.83 2264.93 413.75
  A 0.23 0.23 0.0 0 0 2265.19 413.52
  L 2264.97 348.11
  A 0.24 0.24 0.0 0 0 2264.82 347.89"
/>
<path stroke="#e78b9d" vector-effect="non-scaling-stroke" d="
  M 2316.20 342.11
  C 2310.20 345.40 2304.45 347.89 2296.60 349.61
  Q 2296.10 349.72 2296.10 350.24
  L 2296.11 414.13
  A 0.36 0.36 0.0 0 0 2296.51 414.49
  Q 2333.33 410.48 2362.44 387.85
  A 0.37 0.36 -41.5 0 0 2362.48 387.30
  L 2317.05 342.23
  Q 2316.67 341.86 2316.20 342.11"
/>
</g>
<path fill="#ffffff" d="
  M 2271.38 0.00
  L 2295.73 0.00
  Q 2315.92 7.86 2320.84 27.51
  Q 2322.06 32.40 2321.99 41.57
  Q 2321.88 55.12 2322.00 68.70
  Q 2322.01 69.20 2322.50 69.29
  Q 2369.99 78.06 2409.41 105.81
  Q 2409.80 106.09 2410.15 105.75
  Q 2420.29 95.85 2430.33 85.83
  C 2457.91 58.27 2502.82 83.84 2495.38 121.09
  C 2493.56 130.21 2489.22 136.43 2482.70 142.99
  Q 2473.65 152.10 2464.58 161.33
  Q 2464.19 161.73 2464.50 162.19
  Q 2490.83 201.01 2499.24 247.24
  Q 2499.33 247.72 2499.81 247.72
  Q 2510.47 247.80 2521.06 247.75
  Q 2530.94 247.71 2535.82 248.97
  Q 2551.37 253.00 2560.00 267.61
  L 2560.00 305.67
  Q 2550.89 320.41 2535.29 324.20
  Q 2530.30 325.41 2518.39 325.29
  Q 2509.09 325.19 2499.75 325.31
  Q 2499.24 325.32 2499.13 325.81
  Q 2498.02 330.89 2496.86 335.98
  Q 2487.40 377.69 2463.07 412.87
  Q 2462.77 413.30 2463.13 413.68
  Q 2470.64 421.54 2478.10 429.44
  Q 2484.51 436.22 2486.96 440.78
  C 2501.87 468.52 2479.37 501.98 2447.91 497.79
  Q 2435.50 496.14 2425.93 486.80
  Q 2416.58 477.67 2407.25 468.38
  Q 2406.90 468.03 2406.48 468.30
  Q 2401.86 471.28 2397.18 474.18
  Q 2362.34 495.74 2321.98 503.09
  Q 2321.47 503.18 2321.47 503.69
  Q 2321.32 519.20 2321.50 534.49
  Q 2321.71 550.97 2308.64 563.00
  L 2257.26 563.00
  Q 2248.46 554.66 2245.73 543.62
  Q 2244.53 538.79 2244.63 524.78
  Q 2244.72 513.45 2244.58 502.09
  Q 2244.57 501.56 2244.05 501.46
  Q 2198.83 492.77 2160.94 466.75
  Q 2160.48 466.44 2160.08 466.83
  Q 2145.35 481.29 2140.96 485.96
  C 2128.93 498.76 2110.00 502.68 2094.39 494.39
  C 2071.15 482.04 2066.47 451.03 2084.98 432.24
  Q 2094.90 422.16 2104.81 412.08
  Q 2105.18 411.70 2104.89 411.26
  C 2086.86 384.40 2074.69 356.18 2068.90 324.26
  Q 2068.81 323.76 2068.29 323.76
  Q 2049.31 323.68 2030.51 323.78
  C 2019.86 323.83 2009.61 318.92 2002.34 311.10
  C 1982.83 290.15 1992.83 254.92 2020.88 247.49
  Q 2026.15 246.09 2040.22 246.18
  Q 2052.50 246.26 2064.77 246.19
  C 2066.30 246.18 2067.48 246.84 2068.97 247.22
  Q 2069.50 247.36 2069.60 246.82
  C 2075.31 215.41 2087.14 188.45 2104.36 161.74
  Q 2104.64 161.29 2104.27 160.92
  Q 2096.54 153.12 2088.84 145.36
  Q 2078.52 134.99 2075.77 130.31
  C 2065.03 112.07 2071.24 88.21 2089.41 77.37
  C 2105.48 67.78 2124.66 71.06 2137.74 84.52
  Q 2147.84 94.92 2158.09 105.22
  Q 2158.48 105.61 2158.94 105.30
  Q 2197.99 78.58 2244.70 70.50
  Q 2245.16 70.42 2245.16 69.96
  Q 2245.30 57.68 2245.18 45.45
  Q 2245.05 32.29 2246.32 27.15
  C 2249.57 14.01 2258.64 5.13 2271.38 0.00
  Z
  M 2262.19 484.32
  C 2262.26 499.17 2262.81 514.41 2261.82 529.20
  C 2260.83 544.11 2276.00 556.29 2290.22 551.46
  Q 2304.04 546.76 2305.61 532.00
  C 2305.85 529.73 2305.28 527.18 2305.26 524.98
  Q 2305.18 513.78 2305.28 483.98
  Q 2305.29 483.49 2305.77 483.44
  Q 2362.22 476.93 2406.59 441.84
  A 0.44 0.43 -40.8 0 1 2407.17 441.88
  Q 2420.69 455.58 2434.31 469.19
  C 2436.06 470.93 2438.00 473.80 2440.34 475.49
  C 2463.33 492.11 2488.93 460.70 2468.01 441.49
  C 2457.56 431.90 2447.82 421.34 2437.87 411.27
  A 0.39 0.39 0.0 0 1 2437.85 410.75
  Q 2473.83 365.56 2480.84 307.98
  Q 2480.90 307.44 2481.45 307.44
  Q 2498.68 307.39 2515.93 307.44
  Q 2524.77 307.47 2528.92 306.07
  Q 2540.38 302.21 2544.30 289.39
  C 2547.52 278.86 2537.34 268.09 2528.64 265.20
  Q 2524.70 263.88 2517.23 263.92
  Q 2499.47 264.01 2481.57 263.94
  Q 2481.07 263.94 2481.01 263.44
  Q 2475.52 215.38 2448.95 175.04
  Q 2446.81 171.80 2439.77 162.26
  Q 2439.45 161.83 2439.83 161.45
  Q 2453.49 147.39 2467.13 133.32
  C 2473.29 126.96 2476.82 121.63 2476.42 113.22
  Q 2475.50 94.24 2456.28 93.29
  C 2447.92 92.87 2442.47 96.79 2436.29 103.08
  Q 2422.59 117.01 2408.87 130.83
  A 0.38 0.37 -48.0 0 1 2408.37 130.86
  Q 2363.37 94.70 2305.76 88.02
  Q 2305.28 87.97 2305.27 87.48
  Q 2305.20 68.36 2305.26 49.25
  C 2305.28 45.35 2305.90 41.13 2305.50 37.93
  C 2303.13 18.93 2279.65 12.27 2267.15 26.31
  Q 2261.37 32.80 2261.88 42.50
  C 2262.66 57.38 2262.25 72.52 2262.19 87.49
  Q 2262.19 87.97 2261.71 88.02
  Q 2204.49 94.49 2159.62 130.18
  Q 2159.19 130.53 2158.80 130.14
  Q 2143.74 115.22 2128.90 100.07
  Q 2124.02 95.09 2120.42 93.27
  Q 2108.94 87.47 2097.02 94.25
  C 2088.22 99.26 2087.82 114.05 2091.44 121.64
  Q 2093.34 125.61 2099.93 132.22
  Q 2114.30 146.63 2128.63 161.06
  A 0.46 0.46 0.0 0 1 2128.67 161.67
  Q 2093.73 206.64 2087.28 263.46
  Q 2087.23 263.94 2086.74 263.94
  C 2071.48 263.98 2056.11 264.26 2040.85 263.83
  Q 2023.91 263.36 2016.67 278.14
  C 2010.85 290.03 2020.33 302.34 2030.93 305.94
  Q 2034.79 307.26 2041.71 307.24
  Q 2064.22 307.20 2086.49 307.24
  A 1.14 1.14 0.0 0 1 2087.62 308.24
  Q 2094.52 365.84 2130.48 411.07
  Q 2130.82 411.50 2130.44 411.89
  Q 2116.53 426.15 2102.45 440.24
  Q 2096.23 446.47 2094.36 450.33
  C 2090.70 457.86 2091.19 467.65 2096.60 474.96
  Q 2097.78 476.55 2099.41 477.54
  Q 2111.49 484.83 2123.02 478.98
  Q 2126.95 476.99 2133.02 470.84
  Q 2147.19 456.52 2161.44 442.37
  Q 2161.65 442.16 2161.89 442.34
  Q 2205.95 476.86 2261.71 483.79
  Q 2262.18 483.85 2262.19 484.32
  Z"
/>
<path fill="#ce163a" d="
  M 2261.71 483.79
  Q 2205.95 476.86 2161.89 442.34
  Q 2161.65 442.16 2161.44 442.37
  Q 2147.19 456.52 2133.02 470.84
  Q 2126.95 476.99 2123.02 478.98
  Q 2111.49 484.83 2099.41 477.54
  Q 2097.78 476.55 2096.60 474.96
  C 2091.19 467.65 2090.70 457.86 2094.36 450.33
  Q 2096.23 446.47 2102.45 440.24
  Q 2116.53 426.15 2130.44 411.89
  Q 2130.82 411.50 2130.48 411.07
  Q 2094.52 365.84 2087.62 308.24
  A 1.14 1.14 0.0 0 0 2086.49 307.24
  Q 2064.22 307.20 2041.71 307.24
  Q 2034.79 307.26 2030.93 305.94
  C 2020.33 302.34 2010.85 290.03 2016.67 278.14
  Q 2023.91 263.36 2040.85 263.83
  C 2056.11 264.26 2071.48 263.98 2086.74 263.94
  Q 2087.23 263.94 2087.28 263.46
  Q 2093.73 206.64 2128.67 161.67
  A 0.46 0.46 0.0 0 0 2128.63 161.06
  Q 2114.30 146.63 2099.93 132.22
  Q 2093.34 125.61 2091.44 121.64
  C 2087.82 114.05 2088.22 99.26 2097.02 94.25
  Q 2108.94 87.47 2120.42 93.27
  Q 2124.02 95.09 2128.90 100.07
  Q 2143.74 115.22 2158.80 130.14
  Q 2159.19 130.53 2159.62 130.18
  Q 2204.49 94.49 2261.71 88.02
  Q 2262.19 87.97 2262.19 87.49
  C 2262.25 72.52 2262.66 57.38 2261.88 42.50
  Q 2261.37 32.80 2267.15 26.31
  C 2279.65 12.27 2303.13 18.93 2305.50 37.93
  C 2305.90 41.13 2305.28 45.35 2305.26 49.25
  Q 2305.20 68.36 2305.27 87.48
  Q 2305.28 87.97 2305.76 88.02
  Q 2363.37 94.70 2408.37 130.86
  A 0.38 0.37 -48.0 0 0 2408.87 130.83
  Q 2422.59 117.01 2436.29 103.08
  C 2442.47 96.79 2447.92 92.87 2456.28 93.29
  Q 2475.50 94.24 2476.42 113.22
  C 2476.82 121.63 2473.29 126.96 2467.13 133.32
  Q 2453.49 147.39 2439.83 161.45
  Q 2439.45 161.83 2439.77 162.26
  Q 2446.81 171.80 2448.95 175.04
  Q 2475.52 215.38 2481.01 263.44
  Q 2481.07 263.94 2481.57 263.94
  Q 2499.47 264.01 2517.23 263.92
  Q 2524.70 263.88 2528.64 265.20
  C 2537.34 268.09 2547.52 278.86 2544.30 289.39
  Q 2540.38 302.21 2528.92 306.07
  Q 2524.77 307.47 2515.93 307.44
  Q 2498.68 307.39 2481.45 307.44
  Q 2480.90 307.44 2480.84 307.98
  Q 2473.83 365.56 2437.85 410.75
  A 0.39 0.39 0.0 0 0 2437.87 411.27
  C 2447.82 421.34 2457.56 431.90 2468.01 441.49
  C 2488.93 460.70 2463.33 492.11 2440.34 475.49
  C 2438.00 473.80 2436.06 470.93 2434.31 469.19
  Q 2420.69 455.58 2407.17 441.88
  A 0.44 0.43 -40.8 0 0 2406.59 441.84
  Q 2362.22 476.93 2305.77 483.44
  Q 2305.29 483.49 2305.28 483.98
  Q 2305.18 513.78 2305.26 524.98
  C 2305.28 527.18 2305.85 529.73 2305.61 532.00
  Q 2304.04 546.76 2290.22 551.46
  C 2276.00 556.29 2260.83 544.11 2261.82 529.20
  C 2262.81 514.41 2262.26 499.17 2262.19 484.32
  Q 2262.18 483.85 2261.71 483.79
  Z
  M 2364.68 183.59
  C 2345.24 167.78 2321.44 157.78 2296.47 155.30
  Q 2295.96 155.25 2295.96 155.77
  L 2295.96 220.02
  Q 2295.96 220.65 2296.57 220.77
  Q 2308.39 223.10 2318.47 229.65
  Q 2318.95 229.96 2319.35 229.56
  L 2364.71 184.19
  A 0.41 0.40 -48.1 0 0 2364.68 183.59
  Z
  M 2249.63 229.02
  C 2254.24 226.13 2259.11 224.04 2264.30 222.21
  Q 2264.80 222.03 2264.80 221.50
  L 2264.80 156.75
  Q 2264.80 156.20 2264.25 156.26
  C 2242.47 158.76 2220.30 169.28 2203.36 182.87
  Q 2203.17 183.02 2203.34 183.19
  L 2248.83 228.93
  Q 2249.20 229.30 2249.63 229.02
  Z
  M 2181.77 206.19
  C 2167.49 224.81 2158.45 247.07 2155.89 270.37
  Q 2155.85 270.75 2156.23 270.75
  L 2220.25 270.99
  A 0.63 0.61 -82.8 0 0 2220.85 270.51
  Q 2223.09 261.14 2227.86 252.78
  Q 2228.11 252.34 2227.76 251.98
  L 2182.31 206.16
  A 0.36 0.35 41.6 0 0 2181.77 206.19
  Z
  M 2411.85 270.17
  C 2409.37 247.38 2400.58 225.04 2386.72 206.67
  Q 2386.44 206.29 2386.11 206.63
  L 2340.62 252.64
  Q 2340.22 253.05 2340.49 253.55
  Q 2344.74 261.34 2346.75 269.99
  Q 2346.89 270.58 2347.50 270.58
  L 2411.47 270.59
  Q 2411.89 270.59 2411.85 270.17
  Z
  M 2155.35 301.83
  C 2158.43 325.24 2167.73 347.79 2182.58 366.15
  Q 2182.97 366.62 2183.40 366.19
  L 2228.63 320.92
  A 0.63 0.63 0.0 0 0 2228.71 320.13
  Q 2223.22 311.63 2220.67 301.83
  A 0.54 0.54 0.0 0 0 2220.15 301.43
  L 2155.71 301.42
  A 0.37 0.36 86.5 0 0 2155.35 301.83
  Z
  M 2346.28 302.27
  C 2344.26 308.22 2342.23 313.44 2338.94 318.88
  Q 2338.68 319.33 2339.04 319.69
  L 2384.73 365.41
  A 0.22 0.21 -48.4 0 0 2385.05 365.39
  Q 2406.73 337.26 2411.57 301.95
  A 0.35 0.34 -86.3 0 0 2411.23 301.56
  L 2346.98 301.77
  Q 2346.45 301.77 2346.28 302.27
  Z
  M 2264.82 347.89
  L 2251.67 342.26
  Q 2251.24 342.07 2250.91 342.41
  L 2205.62 388.09
  Q 2205.26 388.45 2205.67 388.76
  Q 2232.05 408.83 2264.93 413.75
  A 0.23 0.23 0.0 0 0 2265.19 413.52
  L 2264.97 348.11
  A 0.24 0.24 0.0 0 0 2264.82 347.89
  Z
  M 2316.20 342.11
  C 2310.20 345.40 2304.45 347.89 2296.60 349.61
  Q 2296.10 349.72 2296.10 350.24
  L 2296.11 414.13
  A 0.36 0.36 0.0 0 0 2296.51 414.49
  Q 2333.33 410.48 2362.44 387.85
  A 0.37 0.36 -41.5 0 0 2362.48 387.30
  L 2317.05 342.23
  Q 2316.67 341.86 2316.20 342.11
  Z"
/>
<path fill="#004c91" d="
  M 0.00 154.15
  Q 48.62 154.15 97.25 154.22
  Q 105.26 154.23 120.20 156.75
  Q 190.35 168.60 218.87 232.67
  C 224.76 245.91 229.00 260.72 231.66 275.54
  Q 240.50 324.92 232.26 374.72
  C 222.26 435.17 185.18 490.20 119.00 493.85
  Q 115.91 494.02 99.00 494.03
  Q 49.49 494.05 0.00 494.01
  L 0.00 154.15
  Z
  M 137.69 376.85
  C 150.38 348.76 150.21 315.19 141.89 285.61
  C 135.13 261.55 119.14 234.30 89.82 236.96
  Q 89.49 236.99 89.49 237.31
  L 89.49 409.49
  Q 89.49 409.96 89.96 409.99
  C 112.50 411.89 128.98 396.12 137.69 376.85
  Z"
/>
<path fill="#004c91" d="
  M 1207.19 319.90
  C 1235.10 332.22 1253.42 358.67 1255.62 389.01
  C 1256.04 394.86 1255.61 401.68 1255.34 408.00
  C 1253.12 459.94 1218.96 493.61 1167.00 493.82
  Q 1096.17 494.12 1025.34 494.02
  Q 1024.83 494.02 1024.83 493.51
  L 1025.34 154.35
  A 0.17 0.17 0.0 0 1 1025.51 154.18
  Q 1084.25 154.15 1143.03 154.19
  Q 1154.64 154.19 1161.89 155.46
  C 1202.31 162.54 1238.36 190.76 1246.49 232.24
  Q 1249.65 248.34 1247.41 267.51
  C 1244.48 292.57 1228.42 307.56 1207.17 319.40
  A 0.28 0.28 0.0 0 0 1207.19 319.90
  Z
  M 1149.33 247.19
  C 1144.34 233.76 1126.77 236.11 1115.74 236.33
  A 0.42 0.41 -90.0 0 0 1115.33 236.75
  L 1115.32 283.76
  Q 1115.32 284.32 1115.87 284.35
  C 1130.11 285.24 1147.04 285.60 1150.48 268.55
  Q 1152.87 256.72 1149.33 247.19
  Z
  M 1160.24 374.25
  C 1155.14 354.42 1131.68 355.60 1115.88 356.20
  Q 1115.35 356.22 1115.36 356.74
  L 1116.04 412.45
  Q 1116.05 412.82 1116.42 412.84
  C 1133.61 413.54 1156.31 414.22 1160.56 393.00
  Q 1162.53 383.19 1160.24 374.25
  Z"
/>
<path fill="#ffffff" d="
  M 2296.47 155.30
  C 2321.44 157.78 2345.24 167.78 2364.68 183.59
  A 0.41 0.40 -48.1 0 1 2364.71 184.19
  L 2319.35 229.56
  Q 2318.95 229.96 2318.47 229.65
  Q 2308.39 223.10 2296.57 220.77
  Q 2295.96 220.65 2295.96 220.02
  L 2295.96 155.77
  Q 2295.96 155.25 2296.47 155.30
  Z"
/>
<path fill="#004c91" d="
  M 1826.74 374.99
  A 0.23 0.23 0.0 0 0 1826.30 375.06
  L 1826.19 493.54
  Q 1826.19 494.03 1825.71 494.03
  L 1740.76 494.03
  Q 1740.23 494.03 1740.23 493.50
  L 1740.23 156.71
  A 0.31 0.31 0.0 0 1 1740.54 156.40
  L 1823.99 156.47
  A 0.42 0.42 0.0 0 1 1824.41 156.89
  Q 1824.42 248.59 1824.42 340.48
  Q 1824.42 343.33 1825.45 345.82
  Q 1827.39 350.50 1829.61 355.04
  Q 1829.91 355.66 1830.16 355.01
  L 1868.22 255.20
  Q 1868.37 254.79 1868.81 254.79
  L 1966.47 254.79
  Q 1966.97 254.79 1966.72 255.22
  L 1904.96 360.67
  Q 1904.75 361.04 1904.93 361.42
  L 1968.24 493.71
  A 0.23 0.22 -12.3 0 1 1968.03 494.03
  L 1867.31 494.03
  Q 1866.79 494.03 1866.63 493.54
  L 1826.74 374.99
  Z"
/>
<path fill="#ffffff" d="
  M 2264.30 222.21
  C 2259.11 224.04 2254.24 226.13 2249.63 229.02
  Q 2249.20 229.30 2248.83 228.93
  L 2203.34 183.19
  Q 2203.17 183.02 2203.36 182.87
  C 2220.30 169.28 2242.47 158.76 2264.25 156.26
  Q 2264.80 156.20 2264.80 156.75
  L 2264.80 221.50
  Q 2264.80 222.03 2264.30 222.21
  Z"
/>
<rect fill="#004c91" x="713.09" y="159.46" width="75.22" height="73.52" rx="0.26"/>
<path fill="#ffffff" d="
  M 2155.89 270.37
  C 2158.45 247.07 2167.49 224.81 2181.77 206.19
  A 0.36 0.35 41.6 0 1 2182.31 206.16
  L 2227.76 251.98
  Q 2228.11 252.34 2227.86 252.78
  Q 2223.09 261.14 2220.85 270.51
  A 0.63 0.61 -82.8 0 1 2220.25 270.99
  L 2156.23 270.75
  Q 2155.85 270.75 2155.89 270.37
  Z"
/>
<path fill="#ffffff" d="
  M 2386.72 206.67
  C 2400.58 225.04 2409.37 247.38 2411.85 270.17
  Q 2411.89 270.59 2411.47 270.59
  L 2347.50 270.58
  Q 2346.89 270.58 2346.75 269.99
  Q 2344.74 261.34 2340.49 253.55
  Q 2340.22 253.05 2340.62 252.64
  L 2386.11 206.63
  Q 2386.44 206.29 2386.72 206.67
  Z"
/>
<path fill="#004c91" d="
  M 330.54 394.43
  C 330.40 406.49 330.81 427.42 343.80 433.68
  Q 347.97 435.69 352.78 434.77
  C 362.06 432.99 366.73 423.94 367.86 415.42
  A 0.42 0.41 -86.0 0 1 368.27 415.06
  L 450.02 415.07
  Q 450.55 415.07 450.47 415.59
  Q 450.21 417.54 449.60 420.27
  C 437.41 475.62 383.62 509.47 328.51 496.70
  C 279.85 485.43 253.59 443.82 249.24 396.25
  C 246.70 368.47 249.76 339.49 260.31 313.51
  C 274.48 278.62 304.21 251.57 343.17 249.51
  C 365.16 248.35 386.73 254.58 404.46 267.64
  C 443.41 296.33 455.97 347.60 453.54 393.42
  Q 453.52 393.94 452.99 393.94
  L 331.04 393.94
  Q 330.55 393.94 330.54 394.43
  Z
  M 334.66 323.70
  Q 330.30 333.23 330.64 343.93
  Q 330.66 344.33 331.06 344.33
  L 369.49 344.33
  Q 370.01 344.33 370.01 343.82
  C 370.15 333.78 366.45 320.58 357.18 315.31
  C 348.37 310.31 338.62 315.06 334.66 323.70
  Z"
/>
<path fill="#004c91" d="
  M 561.09 292.96
  L 561.99 292.99
  A 1.12 1.11 16.0 0 0 562.96 292.46
  C 577.30 268.99 592.43 246.19 624.25 249.74
  C 670.03 254.86 678.37 311.20 678.41 346.75
  Q 678.50 420.14 678.47 493.53
  Q 678.47 494.03 677.97 494.03
  L 594.77 494.03
  Q 594.26 494.03 594.26 493.52
  Q 594.25 434.29 594.23 375.13
  C 594.23 367.60 593.88 361.20 592.26 354.75
  C 590.64 348.26 585.30 342.10 577.99 343.55
  C 565.64 345.99 565.76 364.16 565.76 373.50
  Q 565.79 433.51 565.74 493.52
  Q 565.74 494.03 565.23 494.03
  L 482.04 494.03
  Q 481.54 494.03 481.54 493.54
  L 481.54 255.00
  A 0.21 0.21 0.0 0 1 481.75 254.79
  L 563.30 254.79
  Q 563.82 254.79 563.77 255.30
  L 560.53 292.34
  Q 560.47 292.95 561.09 292.96
  Z"
/>
<path fill="#004c91" d="
  M 1398.55 282.43
  L 1396.02 255.28
  Q 1395.97 254.79 1396.47 254.79
  L 1485.79 254.79
  Q 1486.29 254.79 1486.29 255.29
  L 1486.29 493.50
  Q 1486.29 494.03 1485.75 494.03
  L 1396.50 494.03
  Q 1395.97 494.03 1396.01 493.50
  L 1398.38 463.12
  Q 1398.42 462.63 1397.94 462.53
  C 1397.07 462.36 1396.47 462.48 1395.95 463.25
  C 1388.65 474.11 1380.03 485.66 1368.93 492.44
  C 1349.42 504.36 1325.21 500.65 1308.53 485.22
  Q 1297.25 474.79 1290.08 461.16
  C 1269.41 421.91 1266.85 373.66 1274.59 330.76
  C 1279.55 303.22 1291.82 270.06 1318.18 256.10
  C 1347.48 240.60 1382.09 252.29 1396.25 282.14
  Q 1396.60 282.89 1397.10 283.05
  Q 1397.57 283.20 1398.14 283.03
  Q 1398.59 282.90 1398.55 282.43
  Z
  M 1360.04 342.15
  Q 1348.15 371.56 1358.59 401.55
  Q 1361.61 410.23 1367.70 417.05
  C 1373.75 423.83 1383.54 424.28 1388.83 416.26
  C 1397.19 403.58 1398.63 383.81 1398.14 369.01
  C 1397.77 357.99 1391.52 328.85 1376.99 326.81
  C 1369.05 325.69 1362.67 335.64 1360.04 342.15
  Z"
/>
<path fill="#004c91" d="
  M 1598.33 292.85
  Q 1599.62 293.37 1600.18 292.42
  C 1611.55 273.19 1625.81 251.83 1650.25 249.61
  C 1704.17 244.73 1715.72 307.06 1715.74 346.00
  Q 1715.76 419.91 1715.75 493.76
  A 0.27 0.27 0.0 0 1 1715.48 494.03
  L 1631.74 494.03
  Q 1631.36 494.03 1631.36 493.65
  Q 1631.38 434.49 1631.47 375.25
  C 1631.48 367.26 1631.19 357.46 1627.64 350.13
  C 1623.87 342.37 1613.30 340.98 1608.08 347.82
  C 1603.87 353.33 1603.22 362.47 1603.20 370.51
  Q 1603.04 432.01 1602.99 493.52
  Q 1602.99 494.03 1602.48 494.03
  L 1512.52 494.03
  Q 1512.00 494.03 1512.00 493.51
  L 1512.00 255.27
  Q 1512.00 254.79 1512.48 254.79
  L 1600.28 254.79
  A 0.45 0.45 0.0 0 1 1600.73 255.28
  L 1597.84 292.07
  Q 1597.80 292.64 1598.33 292.85
  Z"
/>
<rect fill="#004c91" x="708.52" y="254.77" width="84.40" height="239.24" rx="0.27"/>
<path fill="#004c91" d="
  M 878.56 327.15
  C 871.12 328.11 863.61 330.00 856.06 330.02
  Q 838.06 330.08 820.00 330.01
  Q 819.49 330.01 819.49 329.49
  L 819.49 255.28
  Q 819.49 254.79 819.97 254.79
  L 997.50 254.79
  Q 998.01 254.79 998.02 255.30
  Q 998.12 260.61 998.06 265.86
  Q 998.04 268.24 996.97 270.43
  Q 973.76 317.95 950.58 365.49
  C 942.41 382.27 935.82 399.98 928.69 417.24
  Q 928.25 418.31 928.52 420.00
  Q 928.59 420.48 929.07 420.41
  C 936.57 419.36 943.82 417.89 951.37 417.88
  Q 972.47 417.86 993.50 417.88
  A 0.34 0.34 0.0 0 1 993.84 418.22
  L 993.84 493.47
  Q 993.84 494.03 993.28 494.03
  L 811.52 494.03
  Q 811.08 494.03 811.07 493.58
  Q 810.88 486.82 811.09 480.17
  Q 811.18 477.53 812.32 475.04
  Q 845.95 402.01 879.68 328.67
  Q 880.49 326.90 878.56 327.15
  Z"
/>
<path fill="#ffffff" d="
  M 2182.58 366.15
  C 2167.73 347.79 2158.43 325.24 2155.35 301.83
  A 0.37 0.36 86.5 0 1 2155.71 301.42
  L 2220.15 301.43
  A 0.54 0.54 0.0 0 1 2220.67 301.83
  Q 2223.22 311.63 2228.71 320.13
  A 0.63 0.63 0.0 0 1 2228.63 320.92
  L 2183.40 366.19
  Q 2182.97 366.62 2182.58 366.15
  Z"
/>
<path fill="#ffffff" d="
  M 2338.94 318.88
  C 2342.23 313.44 2344.26 308.22 2346.28 302.27
  Q 2346.45 301.77 2346.98 301.77
  L 2411.23 301.56
  A 0.35 0.34 -86.3 0 1 2411.57 301.95
  Q 2406.73 337.26 2385.05 365.39
  A 0.22 0.21 -48.4 0 1 2384.73 365.41
  L 2339.04 319.69
  Q 2338.68 319.33 2338.94 318.88
  Z"
/>
<path fill="#ffffff" d="
  M 2251.67 342.26
  L 2264.82 347.89
  A 0.24 0.24 0.0 0 1 2264.97 348.11
  L 2265.19 413.52
  A 0.23 0.23 0.0 0 1 2264.93 413.75
  Q 2232.05 408.83 2205.67 388.76
  Q 2205.26 388.45 2205.62 388.09
  L 2250.91 342.41
  Q 2251.24 342.07 2251.67 342.26
  Z"
/>
<path fill="#ffffff" d="
  M 2296.60 349.61
  C 2304.45 347.89 2310.20 345.40 2316.20 342.11
  Q 2316.67 341.86 2317.05 342.23
  L 2362.48 387.30
  A 0.37 0.36 -41.5 0 1 2362.44 387.85
  Q 2333.33 410.48 2296.51 414.49
  A 0.36 0.36 0.0 0 1 2296.11 414.13
  L 2296.10 350.24
  Q 2296.10 349.72 2296.60 349.61
  Z"
/>
</svg>
