<svg xmlns="http://www.w3.org/2000/svg" xmlns:xlink="http://www.w3.org/1999/xlink" width="75" zoomAndPan="magnify" viewBox="0 0 56.25 56.249997" height="75" preserveAspectRatio="xMidYMid meet" version="1.0"><defs><clipPath id="3c4cf0c541"><path d="M 2.777344 1.777344 L 53.105469 1.777344 L 53.105469 52.105469 L 2.777344 52.105469 Z M 2.777344 1.777344 " clip-rule="nonzero"/></clipPath></defs><g clip-path="url(#3c4cf0c541)"><path fill="#004aad" d="M 27.941406 1.777344 C 27.117188 1.777344 26.292969 1.816406 25.472656 1.898438 C 24.652344 1.976562 23.839844 2.097656 23.03125 2.261719 C 22.222656 2.421875 21.421875 2.621094 20.636719 2.859375 C 19.847656 3.097656 19.070312 3.375 18.308594 3.691406 C 17.546875 4.007812 16.804688 4.359375 16.078125 4.746094 C 15.351562 5.136719 14.644531 5.558594 13.960938 6.015625 C 13.273438 6.476562 12.613281 6.964844 11.976562 7.488281 C 11.339844 8.011719 10.730469 8.5625 10.144531 9.148438 C 9.5625 9.730469 9.011719 10.339844 8.488281 10.976562 C 7.964844 11.613281 7.472656 12.273438 7.015625 12.960938 C 6.558594 13.644531 6.136719 14.351562 5.746094 15.078125 C 5.359375 15.804688 5.007812 16.550781 4.691406 17.3125 C 4.375 18.070312 4.097656 18.847656 3.859375 19.636719 C 3.621094 20.425781 3.417969 21.222656 3.257812 22.03125 C 3.097656 22.839844 2.976562 23.652344 2.898438 24.472656 C 2.816406 25.292969 2.777344 26.117188 2.777344 26.941406 C 2.777344 27.765625 2.816406 28.585938 2.898438 29.40625 C 2.976562 30.226562 3.097656 31.042969 3.257812 31.851562 C 3.417969 32.660156 3.621094 33.457031 3.859375 34.246094 C 4.097656 35.035156 4.375 35.808594 4.691406 36.570312 C 5.007812 37.332031 5.359375 38.078125 5.746094 38.804688 C 6.136719 39.53125 6.558594 40.234375 7.015625 40.921875 C 7.472656 41.605469 7.964844 42.269531 8.488281 42.90625 C 9.011719 43.542969 9.5625 44.152344 10.144531 44.734375 C 10.730469 45.316406 11.339844 45.871094 11.976562 46.394531 C 12.613281 46.917969 13.273438 47.40625 13.960938 47.863281 C 14.644531 48.320312 15.351562 48.746094 16.078125 49.132812 C 16.804688 49.523438 17.546875 49.875 18.308594 50.191406 C 19.070312 50.503906 19.847656 50.78125 20.636719 51.023438 C 21.421875 51.261719 22.222656 51.460938 23.03125 51.621094 C 23.839844 51.78125 24.652344 51.902344 25.472656 51.984375 C 26.292969 52.066406 27.117188 52.105469 27.941406 52.105469 C 28.765625 52.105469 29.585938 52.066406 30.40625 51.984375 C 31.226562 51.902344 32.039062 51.78125 32.847656 51.621094 C 33.65625 51.460938 34.457031 51.261719 35.246094 51.023438 C 36.035156 50.78125 36.808594 50.503906 37.570312 50.191406 C 38.332031 49.875 39.074219 49.523438 39.800781 49.132812 C 40.527344 48.746094 41.234375 48.320312 41.921875 47.863281 C 42.605469 47.40625 43.265625 46.917969 43.902344 46.394531 C 44.542969 45.871094 45.152344 45.316406 45.734375 44.734375 C 46.316406 44.152344 46.871094 43.542969 47.390625 42.90625 C 47.914062 42.269531 48.40625 41.605469 48.863281 40.921875 C 49.320312 40.234375 49.746094 39.53125 50.132812 38.804688 C 50.523438 38.078125 50.875 37.332031 51.1875 36.570312 C 51.503906 35.808594 51.78125 35.035156 52.019531 34.246094 C 52.261719 33.457031 52.460938 32.660156 52.621094 31.851562 C 52.78125 31.042969 52.902344 30.226562 52.984375 29.40625 C 53.0625 28.585938 53.105469 27.765625 53.105469 26.941406 C 53.105469 26.117188 53.0625 25.292969 52.984375 24.472656 C 52.902344 23.652344 52.78125 22.839844 52.621094 22.03125 C 52.460938 21.222656 52.261719 20.425781 52.019531 19.636719 C 51.78125 18.847656 51.503906 18.070312 51.1875 17.3125 C 50.875 16.550781 50.523438 15.804688 50.132812 15.078125 C 49.746094 14.351562 49.320312 13.644531 48.863281 12.960938 C 48.40625 12.273438 47.914062 11.613281 47.390625 10.976562 C 46.871094 10.339844 46.316406 9.730469 45.734375 9.148438 C 45.152344 8.5625 44.542969 8.011719 43.902344 7.488281 C 43.265625 6.964844 42.605469 6.476562 41.921875 6.015625 C 41.234375 5.558594 40.527344 5.136719 39.800781 4.746094 C 39.074219 4.359375 38.332031 4.007812 37.570312 3.691406 C 36.808594 3.375 36.035156 3.097656 35.246094 2.859375 C 34.457031 2.621094 33.65625 2.421875 32.847656 2.261719 C 32.039062 2.097656 31.226562 1.976562 30.40625 1.898438 C 29.585938 1.816406 28.765625 1.777344 27.941406 1.777344 Z M 31.535156 35.722656 C 31.308594 35.753906 31.089844 35.738281 30.871094 35.675781 C 30.652344 35.609375 30.457031 35.503906 30.285156 35.355469 C 30.113281 35.210938 29.976562 35.03125 29.882812 34.824219 C 29.789062 34.621094 29.738281 34.402344 29.738281 34.175781 L 29.738281 30.042969 C 29.738281 29.679688 29.847656 29.359375 30.070312 29.078125 C 30.292969 28.796875 30.582031 28.613281 30.933594 28.53125 C 31.261719 28.457031 31.582031 28.351562 31.890625 28.214844 C 32.203125 28.082031 32.496094 27.917969 32.777344 27.726562 C 33.054688 27.535156 33.316406 27.320312 33.554688 27.082031 C 33.792969 26.84375 34.007812 26.582031 34.195312 26.304688 C 34.386719 26.023438 34.550781 25.730469 34.683594 25.417969 C 34.820312 25.109375 34.921875 24.789062 34.996094 24.457031 C 35.070312 24.128906 35.113281 23.792969 35.125 23.457031 C 35.136719 23.117188 35.117188 22.78125 35.066406 22.449219 C 35.015625 22.113281 34.933594 21.789062 34.820312 21.46875 C 34.707031 21.152344 34.5625 20.84375 34.394531 20.554688 C 34.222656 20.261719 34.027344 19.988281 33.804688 19.734375 C 33.582031 19.476562 33.339844 19.246094 33.074219 19.035156 C 32.804688 18.828125 32.523438 18.644531 32.222656 18.488281 C 31.921875 18.332031 31.613281 18.207031 31.289062 18.109375 C 30.964844 18.011719 30.632812 17.945312 30.296875 17.910156 C 29.960938 17.875 29.625 17.871094 29.289062 17.898438 C 28.949219 17.929688 28.617188 17.988281 28.292969 18.078125 C 27.96875 18.167969 27.652344 18.289062 27.347656 18.4375 C 27.046875 18.589844 26.757812 18.765625 26.488281 18.96875 C 26.21875 19.171875 25.972656 19.398438 25.742188 19.648438 C 25.515625 19.898438 25.316406 20.167969 25.136719 20.457031 C 24.960938 20.746094 24.8125 21.046875 24.695312 21.363281 C 24.574219 21.679688 24.484375 22.007812 24.425781 22.339844 C 24.367188 22.671875 24.339844 23.007812 24.34375 23.347656 L 24.34375 40.421875 C 24.34375 40.777344 24.277344 41.125 24.140625 41.453125 C 24.003906 41.785156 23.808594 42.074219 23.554688 42.328125 C 23.300781 42.582031 23.011719 42.777344 22.679688 42.914062 C 22.351562 43.050781 22.007812 43.117188 21.648438 43.117188 L 19.851562 43.117188 C 19.492188 43.117188 19.148438 43.050781 18.820312 42.914062 C 18.488281 42.777344 18.199219 42.582031 17.945312 42.328125 C 17.691406 42.074219 17.496094 41.785156 17.359375 41.453125 C 17.222656 41.125 17.15625 40.777344 17.15625 40.421875 L 17.15625 23.667969 C 17.144531 22.859375 17.214844 22.054688 17.355469 21.257812 C 17.5 20.460938 17.71875 19.683594 18.011719 18.925781 C 18.300781 18.167969 18.660156 17.445312 19.089844 16.757812 C 19.519531 16.070312 20.007812 15.429688 20.558594 14.835938 C 21.113281 14.242188 21.714844 13.703125 22.367188 13.222656 C 23.019531 12.742188 23.710938 12.328125 24.445312 11.980469 C 25.175781 11.628906 25.933594 11.355469 26.71875 11.148438 C 27.503906 10.945312 28.300781 10.816406 29.109375 10.761719 C 29.890625 10.753906 30.664062 10.816406 31.4375 10.949219 C 32.207031 11.085938 32.957031 11.289062 33.6875 11.5625 C 34.421875 11.839844 35.121094 12.179688 35.789062 12.582031 C 36.457031 12.988281 37.082031 13.453125 37.664062 13.972656 C 38.246094 14.496094 38.777344 15.066406 39.25 15.6875 C 39.726562 16.304688 40.140625 16.964844 40.496094 17.664062 C 40.847656 18.359375 41.132812 19.082031 41.351562 19.835938 C 41.570312 20.585938 41.714844 21.347656 41.792969 22.128906 C 41.867188 22.90625 41.871094 23.683594 41.800781 24.460938 C 41.730469 25.242188 41.589844 26.007812 41.378906 26.757812 C 41.167969 27.511719 40.886719 28.238281 40.539062 28.9375 C 40.191406 29.636719 39.785156 30.300781 39.3125 30.921875 C 38.84375 31.546875 38.316406 32.121094 37.738281 32.648438 C 37.160156 33.175781 36.539062 33.644531 35.875 34.054688 C 35.210938 34.464844 34.511719 34.808594 33.78125 35.089844 C 33.054688 35.371094 32.304688 35.582031 31.535156 35.722656 Z M 31.535156 35.722656 " fill-opacity="1" fill-rule="nonzero"/></g></svg>