<?xml version="1.0" encoding="UTF-8" standalone="no"?>
<!DOCTYPE svg PUBLIC "-//W3C//DTD SVG 1.1//EN" "http://www.w3.org/Graphics/SVG/1.1/DTD/svg11.dtd">
<svg xmlns="http://www.w3.org/2000/svg" version="1.1" viewBox="0.00 0.00 1140.00 268.00">
<path fill="#332cc8" d="
  M 1120.37 0.00
  L 1124.74 0.00
  Q 1137.52 2.59 1140.00 15.37
  L 1140.00 19.74
  C 1137.71 31.11 1126.45 38.69 1115.44 33.61
  C 1098.95 26.01 1103.02 3.01 1120.37 0.00
  Z
  M 1136.73 17.51
  A 14.22 14.22 0.0 0 0 1122.51 3.29
  A 14.22 14.22 0.0 0 0 1108.29 17.51
  A 14.22 14.22 0.0 0 0 1122.51 31.73
  A 14.22 14.22 0.0 0 0 1136.73 17.51
  Z"
/>
<path fill="#332cc8" d="
  M 1124.87 18.64
  Q 1128.53 22.35 1130.84 27.05
  A 0.15 0.14 75.2 0 1 1130.72 27.26
  L 1128.02 27.28
  A 0.41 0.40 73.5 0 1 1127.68 27.09
  Q 1125.76 23.87 1123.53 20.74
  C 1121.80 18.32 1119.63 18.49 1116.94 18.61
  Q 1116.53 18.63 1116.53 19.04
  L 1116.53 26.73
  Q 1116.53 27.25 1116.01 27.26
  L 1114.49 27.29
  A 0.56 0.55 -0.5 0 1 1113.92 26.74
  L 1113.89 8.23
  A 0.51 0.50 -0.6 0 1 1114.39 7.73
  Q 1119.27 7.67 1124.25 7.81
  C 1130.94 7.98 1131.48 16.84 1125.00 18.21
  Q 1124.54 18.31 1124.87 18.64
  Z
  M 1116.52 10.36
  L 1116.52 15.88
  A 0.42 0.42 0.0 0 0 1116.94 16.30
  L 1123.16 16.30
  A 3.64 3.01 0.0 0 0 1126.80 13.29
  L 1126.80 12.95
  A 3.64 3.01 -0.0 0 0 1123.16 9.94
  L 1116.94 9.94
  A 0.42 0.42 0.0 0 0 1116.52 10.36
  Z"
/>
<path fill="#332cc8" d="
  M 0.00 90.87
  L 0.00 82.03
  C 3.51 38.32 42.64 8.20 85.89 16.26
  C 103.39 19.53 115.28 30.14 127.19 42.46
  Q 127.55 42.84 127.19 43.20
  L 57.22 113.42
  Q 56.81 113.84 56.39 113.42
  L 42.88 99.89
  A 0.35 0.35 0.0 0 1 42.88 99.39
  L 95.87 46.10
  Q 96.45 45.52 95.73 45.12
  C 70.80 31.46 39.85 40.26 27.85 66.41
  C 14.90 94.62 31.72 127.40 62.09 133.55
  C 80.53 137.29 98.13 130.69 109.96 115.94
  Q 110.29 115.53 110.59 115.96
  L 123.98 134.99
  A 0.59 0.59 0.0 0 1 123.92 135.73
  C 98.55 162.31 57.20 165.79 28.08 143.42
  Q 2.80 124.01 0.00 90.87
  Z"
/>
<path fill="#332cc8" d="
  M 168.14 55.03
  C 169.12 65.17 180.69 68.39 188.74 70.27
  Q 209.67 75.16 230.60 80.04
  Q 240.42 82.33 248.62 88.12
  C 272.47 104.97 266.58 137.08 244.51 151.81
  C 228.96 162.18 207.56 164.53 189.25 161.47
  C 163.68 157.18 143.94 141.03 138.60 114.99
  Q 138.53 114.66 138.86 114.61
  L 163.89 111.13
  Q 164.42 111.06 164.50 111.59
  C 166.75 126.54 177.59 135.21 192.00 137.65
  C 203.94 139.67 218.62 138.98 229.49 133.06
  C 242.45 126.00 243.04 108.87 227.77 103.99
  C 212.52 99.13 196.51 96.26 180.99 92.35
  Q 170.39 89.69 162.30 85.95
  C 144.99 77.93 137.39 58.08 146.53 41.02
  C 164.51 7.43 237.21 4.88 253.39 42.14
  Q 256.31 48.84 257.88 55.98
  Q 257.99 56.47 257.49 56.53
  L 235.03 59.24
  Q 234.57 59.29 234.48 58.83
  Q 232.78 50.05 226.68 44.81
  C 215.03 34.83 180.92 34.02 170.65 46.66
  Q 167.68 50.31 168.14 55.03
  Z"
/>
<path fill="#332cc8" d="
  M 1057.14 104.54
  C 1045.93 100.37 1032.82 97.88 1018.75 94.74
  Q 1008.26 92.39 996.23 88.38
  C 975.20 81.36 963.26 59.06 976.13 38.89
  C 995.28 8.86 1062.80 5.14 1080.36 39.42
  Q 1084.23 46.99 1086.15 55.97
  Q 1086.26 56.47 1085.75 56.53
  L 1063.50 59.21
  Q 1062.97 59.28 1062.85 58.76
  Q 1060.09 46.77 1050.57 41.80
  C 1038.83 35.66 1000.41 33.54 996.75 51.87
  C 994.76 61.89 1004.36 66.94 1012.27 68.89
  Q 1035.54 74.65 1058.89 80.05
  C 1080.94 85.14 1097.11 102.99 1091.00 126.75
  C 1086.81 143.08 1072.84 154.68 1056.37 159.37
  C 1019.74 169.80 975.46 156.53 966.91 115.08
  A 0.41 0.41 0.0 0 1 967.25 114.60
  L 991.98 111.16
  Q 992.52 111.09 992.63 111.62
  Q 997.02 132.97 1018.49 137.34
  C 1031.45 139.97 1054.17 139.29 1063.36 128.66
  C 1070.89 119.94 1068.15 108.62 1057.14 104.54
  Z"
/>
<path fill="#332cc8" d="
  M 682.63 138.26
  L 682.63 208.18
  A 0.26 0.26 0.0 0 1 682.37 208.44
  L 661.52 208.44
  Q 660.92 208.44 660.92 207.84
  Q 660.90 149.39 660.93 91.00
  Q 660.93 78.82 662.29 72.11
  C 673.77 15.38 745.27 -4.49 784.28 38.49
  C 809.71 66.51 808.55 109.68 781.95 136.45
  C 754.59 163.98 711.58 163.73 683.16 138.02
  Q 682.63 137.54 682.63 138.26
  Z
  M 779.79 86.25
  A 48.02 48.02 0.0 0 0 731.77 38.23
  A 48.02 48.02 0.0 0 0 683.75 86.25
  A 48.02 48.02 0.0 0 0 731.77 134.27
  A 48.02 48.02 0.0 0 0 779.79 86.25
  Z"
/>
<path fill="#332cc8" d="
  M 958.12 86.24
  A 70.95 70.95 0.0 0 1 887.17 157.19
  A 70.95 70.95 0.0 0 1 816.22 86.24
  A 70.95 70.95 0.0 0 1 887.17 15.29
  A 70.95 70.95 0.0 0 1 958.12 86.24
  Z
  M 935.20 86.25
  A 48.02 48.02 0.0 0 0 887.18 38.23
  A 48.02 48.02 0.0 0 0 839.16 86.25
  A 48.02 48.02 0.0 0 0 887.18 134.27
  A 48.02 48.02 0.0 0 0 935.20 86.25
  Z"
/>
<path fill="#332cc8" d="
  M 523.45 45.93
  A 0.45 0.45 0.0 0 0 523.35 45.22
  Q 503.32 34.31 483.39 41.19
  C 467.21 46.78 454.93 60.55 451.74 77.48
  C 446.29 106.42 467.34 132.48 496.48 134.47
  A 1.38 1.37 -65.1 0 0 497.56 134.07
  L 610.88 20.12
  Q 611.25 19.75 611.76 19.75
  L 646.04 19.75
  A 0.17 0.17 0.0 0 1 646.16 20.05
  L 509.54 156.55
  A 1.69 1.65 18.3 0 1 508.54 157.04
  C 503.47 157.63 498.13 158.20 493.15 157.79
  C 456.26 154.78 428.41 124.75 427.43 87.80
  Q 426.84 65.88 438.30 47.56
  C 458.05 15.97 499.91 6.58 532.03 24.68
  Q 543.66 31.24 554.66 42.60
  Q 554.94 42.90 554.65 43.19
  L 484.66 113.41
  Q 484.24 113.83 483.83 113.41
  L 470.35 99.94
  A 0.40 0.40 0.0 0 1 470.35 99.38
  L 523.45 45.93
  Z"
/>
<path fill="#332cc8" d="
  M 338.75 41.97
  C 316.73 44.64 310.04 59.28 310.02 79.44
  Q 309.98 120.99 310.01 162.79
  A 0.31 0.31 0.0 0 1 309.70 163.10
  L 285.04 163.08
  Q 284.50 163.08 284.50 162.54
  Q 284.41 122.38 284.52 82.27
  Q 284.55 68.20 285.50 62.31
  C 290.72 29.74 313.48 16.57 344.99 15.94
  C 369.34 15.45 393.77 23.31 403.03 47.99
  C 407.02 58.63 407.71 68.63 407.74 81.48
  Q 407.84 122.35 407.75 163.23
  Q 407.75 163.75 407.23 163.75
  L 382.52 163.75
  Q 382.25 163.75 382.25 163.47
  Q 382.27 119.53 382.23 75.50
  C 382.21 48.68 363.09 39.00 338.75 41.97
  Z"
/>
<path fill="#332cc8" d="
  M 614.26 156.68
  L 575.11 117.54
  A 0.31 0.31 0.0 0 1 575.12 117.10
  L 592.80 100.14
  A 0.31 0.31 0.0 0 1 593.23 100.15
  L 648.13 156.24
  A 0.31 0.31 0.0 0 1 647.91 156.77
  L 614.48 156.77
  A 0.31 0.31 0.0 0 1 614.26 156.68
  Z"
/>
<path fill="#4a57fe" d="
  M 812.96 264.62
  C 804.62 265.09 800.18 260.41 800.15 252.25
  Q 799.97 211.38 799.99 170.50
  Q 799.99 169.98 800.51 169.98
  L 813.00 169.98
  Q 813.52 169.98 813.52 170.50
  L 813.52 264.02
  Q 813.52 264.59 812.96 264.62
  Z"
/>
<path fill="#4a57fe" d="
  M 775.10 203.05
  C 756.28 192.22 731.82 207.73 735.56 230.00
  C 739.43 253.10 768.09 260.19 782.80 242.30
  Q 783.13 241.89 783.43 242.33
  L 790.72 252.70
  A 0.32 0.31 -41.1 0 1 790.69 253.10
  C 766.52 277.41 725.25 263.57 722.35 228.97
  C 721.12 214.28 728.10 200.58 740.40 192.62
  Q 754.53 183.49 772.76 187.73
  C 779.95 189.40 786.94 195.55 792.42 201.51
  Q 792.74 201.85 792.41 202.18
  L 753.98 240.69
  A 0.45 0.45 0.0 0 1 753.35 240.69
  L 746.05 233.38
  A 0.31 0.30 44.3 0 1 746.04 232.94
  L 775.18 203.66
  A 0.39 0.39 0.0 0 0 775.10 203.05
  Z"
/>
<path fill="#4a57fe" d="
  M 1069.59 203.00
  C 1056.45 195.97 1039.47 199.94 1032.67 213.84
  C 1018.71 242.33 1057.18 267.35 1077.24 242.28
  Q 1077.61 241.82 1077.95 242.30
  L 1085.05 252.40
  Q 1085.35 252.83 1084.99 253.21
  C 1056.23 282.76 1007.91 255.05 1018.03 215.50
  C 1023.00 196.08 1042.26 184.30 1062.01 186.67
  C 1072.55 187.94 1079.91 194.06 1086.95 201.38
  Q 1087.33 201.78 1086.94 202.17
  L 1048.46 240.73
  Q 1048.21 240.98 1047.96 240.73
  L 1040.82 233.58
  Q 1040.39 233.15 1040.82 232.72
  L 1069.69 203.66
  A 0.42 0.42 0.0 0 0 1069.59 203.00
  Z"
/>
<path fill="#4a57fe" d="
  M 982.12 268.00
  L 974.50 268.00
  C 958.19 265.84 946.41 258.60 942.31 242.05
  Q 942.17 241.45 942.77 241.37
  L 955.77 239.57
  Q 956.39 239.49 956.51 240.10
  C 959.34 254.47 974.74 256.37 986.50 253.78
  Q 990.72 252.85 993.83 250.58
  C 998.87 246.91 999.43 239.90 993.72 236.54
  Q 991.24 235.08 984.76 233.61
  C 975.36 231.49 965.78 229.67 956.78 226.15
  C 947.78 222.63 942.37 213.58 945.27 203.97
  C 950.26 187.48 975.05 184.17 989.08 188.17
  C 1000.22 191.35 1005.57 197.72 1008.17 208.78
  Q 1008.29 209.32 1007.74 209.39
  L 995.78 210.81
  Q 995.27 210.88 995.16 210.37
  Q 993.49 202.39 986.02 200.21
  C 979.22 198.24 965.84 197.45 960.56 203.39
  C 954.99 209.66 961.80 214.89 967.49 216.26
  Q 976.35 218.40 985.21 220.51
  Q 996.28 223.15 997.70 223.72
  C 1006.50 227.24 1012.60 235.27 1011.43 245.25
  C 1009.99 257.48 998.83 265.38 987.24 267.21
  Q 984.70 267.61 982.12 268.00
  Z"
/>
<path fill="#4a57fe" d="
  M 874.59 203.05
  C 856.71 192.78 834.27 205.84 834.83 226.45
  C 835.22 240.58 845.53 250.97 859.71 252.42
  Q 860.24 252.48 860.61 252.10
  L 923.07 189.29
  A 0.99 0.99 0.0 0 1 923.77 189.00
  L 942.25 189.00
  A 0.26 0.26 0.0 0 1 942.43 189.44
  L 867.28 264.51
  A 1.48 1.47 18.6 0 1 866.47 264.91
  C 836.96 268.95 813.66 239.88 824.26 211.59
  C 833.14 187.88 861.26 179.59 882.00 193.26
  Q 887.39 196.82 891.92 201.42
  Q 892.29 201.79 891.92 202.16
  L 853.55 240.63
  Q 853.17 241.00 852.80 240.63
  L 845.79 233.63
  Q 845.33 233.16 845.79 232.70
  L 874.68 203.67
  A 0.39 0.39 0.0 0 0 874.59 203.05
  Z"
/>
<path fill="#4a57fe" d="
  M 924.99 264.66
  L 903.49 243.16
  A 0.32 0.32 0.0 0 1 903.50 242.70
  L 913.06 233.52
  A 0.32 0.32 0.0 0 1 913.51 233.53
  L 943.51 264.21
  A 0.32 0.32 0.0 0 1 943.28 264.75
  L 925.21 264.75
  A 0.32 0.32 0.0 0 1 924.99 264.66
  Z"
/>
</svg>
