<?xml version="1.0" encoding="UTF-8" standalone="no"?>
<!DOCTYPE svg PUBLIC "-//W3C//DTD SVG 1.1//EN" "http://www.w3.org/Graphics/SVG/1.1/DTD/svg11.dtd">
<svg xmlns="http://www.w3.org/2000/svg" version="1.1" viewBox="0.00 0.00 307.00 96.00">
<g stroke-width="2.00" fill="none" stroke-linecap="butt">
<path stroke="#182950" vector-effect="non-scaling-stroke" d="
  M 151.85 24.48
  L 151.81 31.27"
/>
<path stroke="#985673" vector-effect="non-scaling-stroke" d="
  M 43.89 21.61
  L 43.52 25.65"
/>
<path stroke="#a85680" vector-effect="non-scaling-stroke" d="
  M 43.52 25.65
  L 36.61 18.79"
/>
<path stroke="#985673" vector-effect="non-scaling-stroke" d="
  M 36.61 18.79
  L 27.07 9.10
  Q 26.12 8.14 24.99 8.88
  L 19.84 12.25
  Q 18.71 12.99 19.66 13.95
  L 21.85 16.18"
/>
<path stroke="#a85680" vector-effect="non-scaling-stroke" d="
  M 21.85 16.18
  L 44.48 38.78"
/>
<path stroke="#985673" vector-effect="non-scaling-stroke" d="
  M 44.48 38.78
  Q 46.73 40.98 50.19 39.65"
/>
<path stroke="#795063" vector-effect="non-scaling-stroke" d="
  M 50.19 39.65
  L 57.93 32.16"
/>
<path stroke="#655058" vector-effect="non-scaling-stroke" d="
  M 57.93 32.16
  L 76.51 13.75
  A 0.77 0.77 0.0 0 0 76.40 12.57
  L 70.65 8.63
  Q 69.92 8.12 69.29 8.75
  L 54.37 23.72"
/>
<path stroke="#795063" vector-effect="non-scaling-stroke" d="
  M 54.37 23.72
  Q 53.62 24.69 52.69 25.27
  Q 52.13 25.62 52.14 24.96
  L 52.26 3.62
  Q 52.26 2.73 51.37 2.73
  L 44.69 2.74
  Q 43.81 2.74 43.81 3.62
  L 43.89 21.61"
/>
<path stroke="#4d0d29" vector-effect="non-scaling-stroke" d="
  M 54.37 23.72
  L 57.44 28.45
  Q 57.69 28.82 57.64 29.27
  Q 57.46 30.84 57.93 32.16"
/>
<path stroke="#7f1444" vector-effect="non-scaling-stroke" d="
  M 50.19 39.65
  L 47.28 39.36
  Q 46.81 39.32 46.85 38.85
  C 47.08 35.98 46.23 33.86 45.83 31.13
  A 1.21 1.18 59.8 0 1 46.05 30.25
  Q 46.73 29.34 46.62 27.99
  Q 46.27 23.65 43.89 21.61"
/>
<path stroke="#af1a61" vector-effect="non-scaling-stroke" d="
  M 43.52 25.65
  C 43.51 27.88 44.79 29.51 43.51 31.98
  Q 43.25 32.49 43.56 32.97
  Q 44.31 34.12 44.14 35.50
  A 1.36 1.35 30.1 0 0 44.40 36.46
  Q 45.35 37.73 44.48 38.78"
/>
<path stroke="#af1a61" vector-effect="non-scaling-stroke" d="
  M 36.61 18.79
  Q 34.33 17.66 32.11 17.85
  Q 31.63 17.89 31.28 17.55
  Q 30.86 17.15 30.24 17.08
  Q 26.25 16.64 21.85 16.18"
/>
<path stroke="#5a85a4" vector-effect="non-scaling-stroke" d="
  M 15.65 33.96
  L 24.73 43.23
  Q 25.67 44.20 24.33 44.18
  L 12.04 44.09"
/>
<path stroke="#50748f" vector-effect="non-scaling-stroke" d="
  M 12.04 44.09
  L 9.01 44.11"
/>
<path stroke="#55667c" vector-effect="non-scaling-stroke" d="
  M 9.01 44.11
  L 4.17 44.08
  Q 2.71 44.08 2.70 45.54
  L 2.68 50.99
  Q 2.67 52.52 4.20 52.51
  L 17.46 52.42"
/>
<path stroke="#50748f" vector-effect="non-scaling-stroke" d="
  M 17.46 52.42
  L 24.28 52.34
  Q 25.85 52.32 24.72 53.41
  L 22.00 56.04"
/>
<path stroke="#525f70" vector-effect="non-scaling-stroke" d="
  M 22.00 56.04
  L 8.72 69.36
  A 0.95 0.95 0.0 0 0 8.61 70.57
  L 12.64 76.42
  Q 13.10 77.09 13.67 76.51
  L 32.27 57.84"
/>
<path stroke="#50748f" vector-effect="non-scaling-stroke" d="
  M 32.27 57.84
  L 38.90 51.03"
/>
<path stroke="#5a85a4" vector-effect="non-scaling-stroke" d="
  M 38.90 51.03
  C 40.73 48.96 39.66 45.93 37.84 44.08
  Q 27.56 33.63 17.09 23.23"
/>
<path stroke="#50748f" vector-effect="non-scaling-stroke" d="
  M 17.09 23.23
  L 13.95 19.99
  Q 12.89 18.89 12.06 20.17
  L 8.80 25.20
  Q 7.94 26.52 9.08 27.61
  L 15.65 33.96"
/>
<path stroke="#1967a1" vector-effect="non-scaling-stroke" d="
  M 17.09 23.23
  C 17.37 25.93 18.20 32.39 15.65 33.96"
/>
<path stroke="#1967a1" vector-effect="non-scaling-stroke" d="
  M 38.90 51.03
  Q 38.60 49.98 37.55 50.45
  C 34.54 51.80 30.44 50.92 27.53 50.87
  C 26.12 50.85 25.02 51.63 23.54 51.83
  Q 23.06 51.89 22.71 51.56
  Q 20.93 49.90 18.59 49.11
  Q 18.13 48.96 17.77 48.63
  C 16.31 47.31 14.75 46.92 14.00 44.73
  Q 13.83 44.24 13.30 44.19
  L 12.04 44.09"
/>
<path stroke="#11416d" vector-effect="non-scaling-stroke" d="
  M 32.27 57.84
  L 28.18 56.27
  Q 27.76 56.11 27.31 56.10
  L 22.00 56.04"
/>
<path stroke="#144879" vector-effect="non-scaling-stroke" d="
  M 9.01 44.11
  L 15.74 51.99
  Q 16.06 52.36 16.55 52.38
  L 17.46 52.42"
/>
<path stroke="#55667c" vector-effect="non-scaling-stroke" d="
  M 69.49 32.67
  L 58.51 43.66"
/>
<path stroke="#50748f" vector-effect="non-scaling-stroke" d="
  M 58.51 43.66
  L 56.68 45.77"
/>
<path stroke="#5a85a4" vector-effect="non-scaling-stroke" d="
  M 56.68 45.77
  Q 55.47 48.88 57.21 51.35"
/>
<path stroke="#5f7c9b" vector-effect="non-scaling-stroke" d="
  M 57.21 51.35
  L 60.55 54.70"
/>
<path stroke="#50748f" vector-effect="non-scaling-stroke" d="
  M 60.55 54.70
  L 63.72 57.86"
/>
<path stroke="#55667c" vector-effect="non-scaling-stroke" d="
  M 63.72 57.86
  L 82.64 76.83
  Q 82.86 77.05 83.03 76.80
  L 87.60 70.09
  Q 87.75 69.87 87.56 69.69
  L 78.30 60.47"
/>
<path stroke="#50748f" vector-effect="non-scaling-stroke" d="
  M 78.30 60.47
  L 74.55 56.65"
/>
<path stroke="#5f7c9b" vector-effect="non-scaling-stroke" d="
  M 74.55 56.65
  L 70.81 52.85
  Q 70.41 52.44 70.98 52.43
  L 92.42 52.34
  Q 92.91 52.34 93.02 51.86
  Q 93.60 49.26 93.14 46.58"
/>
<path stroke="#50748f" vector-effect="non-scaling-stroke" d="
  M 93.14 46.58
  Q 93.42 45.35 93.18 44.63
  Q 93.01 44.13 92.49 44.13
  Q 81.95 44.19 71.50 44.04
  Q 70.59 44.02 70.72 43.48"
/>
<path stroke="#55667c" vector-effect="non-scaling-stroke" d="
  M 70.72 43.48
  L 76.04 38.27"
/>
<path stroke="#525f70" vector-effect="non-scaling-stroke" d="
  M 76.04 38.27
  L 87.43 26.85
  Q 87.97 26.31 87.54 25.67
  L 83.55 19.70
  Q 83.09 19.02 82.52 19.60
  L 69.49 32.67"
/>
<path stroke="#15335a" vector-effect="non-scaling-stroke" d="
  M 76.04 38.27
  Q 74.50 38.21 74.00 36.69
  A 0.73 0.71 -5.4 0 0 73.38 36.19
  Q 71.83 36.02 71.06 34.55
  Q 70.91 34.27 70.60 34.18
  Q 69.72 33.93 69.49 32.67"
/>
<path stroke="#144879" vector-effect="non-scaling-stroke" d="
  M 70.72 43.48
  C 69.43 44.57 68.40 43.77 67.19 43.71
  Q 62.89 43.52 58.51 43.66"
/>
<path stroke="#1e5e98" vector-effect="non-scaling-stroke" d="
  M 93.14 46.58
  L 72.35 46.41
  A 0.27 0.27 0.0 0 0 72.08 46.67
  L 72.06 47.14
  Q 72.05 47.37 72.27 47.37
  L 74.50 47.37
  Q 74.56 47.37 74.57 47.52
  L 74.57 47.53
  Q 74.57 47.69 74.41 47.68
  L 68.39 47.38"
/>
<path stroke="#1967a1" vector-effect="non-scaling-stroke" d="
  M 68.39 47.38
  Q 67.89 47.05 67.03 47.13
  Q 66.59 47.17 66.31 46.82
  Q 65.95 46.35 65.25 46.36
  Q 61.23 46.37 57.21 46.39
  Q 56.89 46.39 56.80 46.08
  Q 56.75 45.92 56.68 45.77"
/>
<path stroke="#1e5e98" vector-effect="non-scaling-stroke" d="
  M 74.55 56.65
  Q 72.08 56.71 69.67 56.48
  C 68.21 56.35 66.77 55.56 65.01 55.62
  Q 64.54 55.64 64.23 55.28
  Q 62.83 53.67 60.55 54.70"
/>
<path stroke="#286fad" vector-effect="non-scaling-stroke" d="
  M 68.39 47.38
  Q 68.33 47.78 68.08 47.86
  Q 67.77 47.96 67.87 48.26
  Q 67.97 48.55 68.23 48.73
  Q 68.58 48.97 68.26 49.24
  Q 68.03 49.43 67.75 49.37
  Q 67.16 49.24 67.78 49.90
  Q 68.33 50.49 68.25 51.37
  Q 68.21 51.86 67.78 52.09
  Q 65.65 53.20 63.28 52.83
  Q 63.00 52.79 62.91 52.62
  Q 62.78 52.37 62.50 52.37
  L 60.52 52.37
  Q 60.06 52.37 59.75 52.03
  Q 58.66 50.82 57.21 51.35"
/>
<path stroke="#144879" vector-effect="non-scaling-stroke" d="
  M 78.30 60.47
  Q 76.09 59.75 73.83 59.85
  Q 73.51 59.86 73.30 59.61
  Q 73.04 59.31 72.84 58.90
  Q 72.62 58.44 72.14 58.62
  Q 71.46 58.88 71.22 58.30
  Q 71.04 57.86 70.56 57.86
  L 63.72 57.86"
/>
<path stroke="#55667c" vector-effect="non-scaling-stroke" d="
  M 40.63 61.49
  L 35.43 66.71"
/>
<path stroke="#525f70" vector-effect="non-scaling-stroke" d="
  M 35.43 66.71
  L 19.59 82.57
  Q 19.05 83.10 19.68 83.54
  L 25.72 87.76
  Q 26.29 88.15 26.77 87.66
  L 42.91 71.24"
/>
<path stroke="#55667c" vector-effect="non-scaling-stroke" d="
  M 42.91 71.24
  Q 43.36 70.66 43.73 71.11
  A 0.27 0.24 30.1 0 1 43.78 71.26
  L 43.72 92.51
  Q 43.72 93.05 44.27 93.05
  L 51.95 93.00"
/>
<path stroke="#50748f" vector-effect="non-scaling-stroke" d="
  M 51.95 93.00
  L 52.13 70.83"
/>
<path stroke="#5a85a4" vector-effect="non-scaling-stroke" d="
  M 52.13 70.83
  L 63.65 81.98"
/>
<path stroke="#50748f" vector-effect="non-scaling-stroke" d="
  M 63.65 81.98
  L 69.29 87.50
  Q 69.67 87.86 70.11 87.57
  L 76.22 83.41
  Q 76.73 83.07 76.29 82.64
  L 62.20 68.50"
/>
<path stroke="#5a85a4" vector-effect="non-scaling-stroke" d="
  M 62.20 68.50
  Q 55.73 60.84 48.24 55.74"
/>
<path stroke="#50748f" vector-effect="non-scaling-stroke" d="
  M 48.24 55.74
  Q 43.43 57.66 40.63 61.49"
/>
<path stroke="#1967a1" vector-effect="non-scaling-stroke" d="
  M 48.24 55.74
  L 50.43 62.36
  Q 50.56 62.76 50.79 63.12
  Q 51.42 64.11 50.95 65.27
  Q 50.76 65.74 51.04 66.16
  Q 52.78 68.77 52.13 70.83"
/>
<path stroke="#144879" vector-effect="non-scaling-stroke" d="
  M 51.95 93.00
  Q 51.45 84.95 51.52 77.00
  Q 51.54 75.42 50.20 73.71
  Q 49.92 73.35 49.85 72.89
  Q 49.56 70.76 48.95 69.82
  C 48.08 68.48 44.87 66.49 43.87 64.17
  Q 43.68 63.74 43.30 63.45
  L 40.63 61.49"
/>
<path stroke="#1967a1" vector-effect="non-scaling-stroke" d="
  M 62.20 68.50
  Q 61.43 69.18 62.23 69.97
  Q 62.51 70.25 62.41 70.63
  Q 62.02 72.12 62.91 73.29
  Q 63.26 73.76 62.81 74.13
  Q 62.48 74.40 62.57 74.70
  Q 62.64 74.96 62.64 75.02
  Q 63.03 78.57 63.65 81.98"
/>
<path stroke="#15335a" vector-effect="non-scaling-stroke" d="
  M 42.91 71.24
  Q 42.58 70.25 40.58 70.35
  Q 40.02 70.38 39.65 69.96
  Q 38.88 69.07 37.72 68.89
  Q 37.19 68.81 37.15 68.28
  Q 37.01 66.70 35.43 66.71"
/>
</g>
<path fill="#919292" d="
  M 40.63 19.20
  Q 41.25 19.82 41.25 18.95
  L 41.24 1.01
  A 0.43 0.42 -3.9 0 1 41.61 0.59
  Q 47.94 -0.20 54.27 0.60
  Q 54.67 0.65 54.67 1.06
  L 54.65 18.91
  Q 54.65 19.77 55.26 19.16
  L 68.93 5.44
  Q 69.45 4.92 70.05 5.34
  L 80.21 12.29
  A 0.89 0.89 0.0 0 1 80.33 13.65
  Q 66.97 26.95 53.60 40.35
  C 53.00 40.95 52.13 41.40 51.46 42.04
  Q 51.15 42.33 50.73 42.33
  L 45.26 42.34
  Q 44.66 42.34 44.20 41.96
  C 43.66 41.52 42.95 41.32 42.49 40.86
  Q 28.99 27.23 15.44 13.74
  A 0.69 0.69 0.0 0 1 15.47 12.73
  Q 20.39 8.40 26.20 5.39
  A 0.73 0.72 53.8 0 1 27.03 5.52
  L 40.63 19.20
  Z
  M 43.89 21.61
  L 43.52 25.65
  L 36.61 18.79
  L 27.07 9.10
  Q 26.12 8.14 24.99 8.88
  L 19.84 12.25
  Q 18.71 12.99 19.66 13.95
  L 21.85 16.18
  L 44.48 38.78
  Q 46.73 40.98 50.19 39.65
  L 57.93 32.16
  L 76.51 13.75
  A 0.77 0.77 0.0 0 0 76.40 12.57
  L 70.65 8.63
  Q 69.92 8.12 69.29 8.75
  L 54.37 23.72
  Q 53.62 24.69 52.69 25.27
  Q 52.13 25.62 52.14 24.96
  L 52.26 3.62
  Q 52.26 2.73 51.37 2.73
  L 44.69 2.74
  Q 43.81 2.74 43.81 3.62
  L 43.89 21.61
  Z"
/>
<path fill="#600d34" d="
  M 54.37 23.72
  L 57.44 28.45
  Q 57.69 28.82 57.64 29.27
  Q 57.46 30.84 57.93 32.16
  L 50.19 39.65
  L 47.28 39.36
  Q 46.81 39.32 46.85 38.85
  C 47.08 35.98 46.23 33.86 45.83 31.13
  A 1.21 1.18 59.8 0 1 46.05 30.25
  Q 46.73 29.34 46.62 27.99
  Q 46.27 23.65 43.89 21.61
  L 43.81 3.62
  Q 43.81 2.74 44.69 2.74
  L 51.37 2.73
  Q 52.26 2.73 52.26 3.62
  L 52.14 24.96
  Q 52.13 25.62 52.69 25.27
  Q 53.62 24.69 54.37 23.72
  Z"
/>
<path fill="#1d2652" d="
  M 151.85 24.48
  L 151.81 31.27
  Q 151.08 38.90 146.03 44.67
  Q 145.67 45.07 146.05 45.46
  L 151.44 51.02
  Q 151.91 51.49 151.35 51.86
  Q 145.20 55.90 140.61 50.36
  Q 139.98 49.60 139.10 50.04
  C 125.99 56.74 109.90 50.78 105.11 36.68
  C 101.49 25.99 104.48 13.67 113.81 7.18
  C 128.85 -3.29 149.89 5.81 151.85 24.48
  Z
  M 130.99 33.44
  Q 133.96 33.06 136.06 35.19
  L 139.52 38.72
  Q 140.61 39.83 141.20 38.40
  Q 145.74 27.43 141.53 18.23
  C 138.02 10.56 128.69 7.77 121.26 11.22
  C 104.36 19.07 111.50 52.34 133.74 44.79
  Q 134.93 44.38 134.05 43.49
  L 127.21 36.54
  Q 124.94 34.23 128.14 33.82
  L 130.99 33.44
  Z"
/>
<path fill="#1d2652" d="
  M 166.23 16.76
  L 166.24 50.96
  A 0.45 0.45 0.0 0 1 165.79 51.41
  L 158.78 51.42
  Q 158.39 51.42 158.39 51.03
  L 158.40 4.52
  Q 158.40 3.93 158.98 3.93
  C 163.18 3.98 166.84 3.52 169.89 7.63
  Q 180.93 22.51 191.87 37.03
  Q 192.66 38.07 192.66 36.76
  L 192.66 4.28
  A 0.32 0.32 0.0 0 1 192.98 3.96
  L 200.14 3.92
  A 0.34 0.33 89.2 0 1 200.48 4.26
  L 200.48 50.99
  Q 200.48 51.45 200.03 51.44
  C 196.94 51.44 193.94 52.14 191.63 49.16
  Q 179.04 32.90 166.63 16.63
  A 0.22 0.22 0.0 0 0 166.23 16.76
  Z"
/>
<path fill="#1d2652" d="
  M 242.02 27.44
  C 252.06 30.48 252.59 42.87 244.68 48.42
  Q 240.59 51.28 234.50 51.34
  Q 221.52 51.47 208.68 51.40
  A 0.42 0.42 0.0 0 1 208.26 50.98
  L 208.26 4.49
  A 0.55 0.55 0.0 0 1 208.81 3.94
  Q 220.87 4.01 233.00 3.96
  C 242.41 3.92 250.29 10.77 247.19 20.78
  Q 246.12 24.23 241.94 26.74
  Q 241.20 27.19 242.02 27.44
  Z
  M 221.11 23.90
  Q 225.54 24.12 232.24 23.98
  C 241.49 23.78 242.95 11.37 232.99 11.05
  Q 224.88 10.79 216.63 10.88
  Q 216.05 10.89 216.05 11.48
  L 216.08 43.74
  Q 216.08 44.21 216.54 44.21
  Q 224.90 44.31 233.25 44.33
  C 237.26 44.34 242.21 42.33 242.03 37.77
  C 241.71 29.89 230.02 30.87 225.00 31.10
  A 5.42 5.41 -15.0 0 1 219.96 28.19
  L 219.24 26.79
  Q 217.66 23.73 221.11 23.90
  Z"
/>
<path fill="#9e1a54" d="
  M 36.61 18.79
  Q 34.33 17.66 32.11 17.85
  Q 31.63 17.89 31.28 17.55
  Q 30.86 17.15 30.24 17.08
  Q 26.25 16.64 21.85 16.18
  L 19.66 13.95
  Q 18.71 12.99 19.84 12.25
  L 24.99 8.88
  Q 26.12 8.14 27.07 9.10
  L 36.61 18.79
  Z"
/>
<path fill="#390d1d" d="
  M 57.93 32.16
  Q 57.46 30.84 57.64 29.27
  Q 57.69 28.82 57.44 28.45
  L 54.37 23.72
  L 69.29 8.75
  Q 69.92 8.12 70.65 8.63
  L 76.40 12.57
  A 0.77 0.77 0.0 0 1 76.51 13.75
  L 57.93 32.16
  Z"
/>
<path fill="#919292" d="
  M 0.00 52.36
  L 0.00 43.76
  L 0.48 42.05
  Q 0.63 41.51 1.19 41.51
  L 17.98 41.51
  Q 19.11 41.51 18.31 40.72
  L 5.19 27.58
  Q 4.81 27.20 5.06 26.72
  Q 8.03 20.87 12.37 15.95
  Q 12.76 15.51 13.18 15.93
  Q 25.35 28.03 37.43 40.12
  C 43.14 45.84 44.22 49.71 38.31 55.62
  Q 25.89 68.06 13.37 80.59
  A 0.57 0.56 46.7 0 1 12.55 80.56
  C 10.07 77.75 6.88 73.89 5.61 70.47
  Q 5.47 70.09 5.20 69.81
  Q 4.91 69.49 5.22 69.19
  L 18.58 55.84
  Q 19.28 55.14 18.29 55.14
  L 1.22 55.26
  Q 0.62 55.27 0.49 54.68
  L 0.00 52.36
  Z
  M 15.65 33.96
  L 24.73 43.23
  Q 25.67 44.20 24.33 44.18
  L 12.04 44.09
  L 9.01 44.11
  L 4.17 44.08
  Q 2.71 44.08 2.70 45.54
  L 2.68 50.99
  Q 2.67 52.52 4.20 52.51
  L 17.46 52.42
  L 24.28 52.34
  Q 25.85 52.32 24.72 53.41
  L 22.00 56.04
  L 8.72 69.36
  A 0.95 0.95 0.0 0 0 8.61 70.57
  L 12.64 76.42
  Q 13.10 77.09 13.67 76.51
  L 32.27 57.84
  L 38.90 51.03
  C 40.73 48.96 39.66 45.93 37.84 44.08
  Q 27.56 33.63 17.09 23.23
  L 13.95 19.99
  Q 12.89 18.89 12.06 20.17
  L 8.80 25.20
  Q 7.94 26.52 9.08 27.61
  L 15.65 33.96
  Z"
/>
<path fill="#919292" d="
  M 76.83 55.35
  L 90.43 68.98
  Q 90.81 69.36 90.56 69.85
  Q 87.60 75.65 83.28 80.53
  Q 82.81 81.06 82.32 80.56
  Q 69.01 67.26 55.76 53.99
  C 54.80 53.03 53.81 51.00 53.66 49.49
  Q 53.23 45.21 56.34 42.10
  Q 69.46 28.95 82.67 15.92
  Q 83.06 15.53 83.43 15.94
  Q 87.82 20.81 90.75 26.68
  Q 90.97 27.12 90.62 27.47
  L 77.20 40.89
  Q 76.58 41.51 77.46 41.51
  L 94.79 41.51
  Q 95.39 41.51 95.45 42.10
  Q 96.15 48.26 95.44 54.40
  A 0.93 0.93 0.0 0 1 94.52 55.22
  L 79.00 55.23
  A 0.66 0.63 56.0 0 1 78.73 55.17
  Q 77.94 54.82 77.08 54.78
  Q 76.23 54.74 76.83 55.35
  Z
  M 69.49 32.67
  L 58.51 43.66
  L 56.68 45.77
  Q 55.47 48.88 57.21 51.35
  L 60.55 54.70
  L 63.72 57.86
  L 82.64 76.83
  Q 82.86 77.05 83.03 76.80
  L 87.60 70.09
  Q 87.75 69.87 87.56 69.69
  L 78.30 60.47
  L 74.55 56.65
  L 70.81 52.85
  Q 70.41 52.44 70.98 52.43
  L 92.42 52.34
  Q 92.91 52.34 93.02 51.86
  Q 93.60 49.26 93.14 46.58
  Q 93.42 45.35 93.18 44.63
  Q 93.01 44.13 92.49 44.13
  Q 81.95 44.19 71.50 44.04
  Q 70.59 44.02 70.72 43.48
  L 76.04 38.27
  L 87.43 26.85
  Q 87.97 26.31 87.54 25.67
  L 83.55 19.70
  Q 83.09 19.02 82.52 19.60
  L 69.49 32.67
  Z"
/>
<path fill="#bf196d" d="
  M 36.61 18.79
  L 43.52 25.65
  C 43.51 27.88 44.79 29.51 43.51 31.98
  Q 43.25 32.49 43.56 32.97
  Q 44.31 34.12 44.14 35.50
  A 1.36 1.35 30.1 0 0 44.40 36.46
  Q 45.35 37.73 44.48 38.78
  L 21.85 16.18
  Q 26.25 16.64 30.24 17.08
  Q 30.86 17.15 31.28 17.55
  Q 31.63 17.89 32.11 17.85
  Q 34.33 17.66 36.61 18.79
  Z"
/>
<path fill="#0f558c" d="
  M 17.09 23.23
  C 17.37 25.93 18.20 32.39 15.65 33.96
  L 9.08 27.61
  Q 7.94 26.52 8.80 25.20
  L 12.06 20.17
  Q 12.89 18.89 13.95 19.99
  L 17.09 23.23
  Z"
/>
<path fill="#122c4d" d="
  M 76.04 38.27
  Q 74.50 38.21 74.00 36.69
  A 0.73 0.71 -5.4 0 0 73.38 36.19
  Q 71.83 36.02 71.06 34.55
  Q 70.91 34.27 70.60 34.18
  Q 69.72 33.93 69.49 32.67
  L 82.52 19.60
  Q 83.09 19.02 83.55 19.70
  L 87.54 25.67
  Q 87.97 26.31 87.43 26.85
  L 76.04 38.27
  Z"
/>
<path fill="#9e1a54" d="
  M 43.89 21.61
  Q 46.27 23.65 46.62 27.99
  Q 46.73 29.34 46.05 30.25
  A 1.21 1.18 59.8 0 0 45.83 31.13
  C 46.23 33.86 47.08 35.98 46.85 38.85
  Q 46.81 39.32 47.28 39.36
  L 50.19 39.65
  Q 46.73 40.98 44.48 38.78
  Q 45.35 37.73 44.40 36.46
  A 1.36 1.35 30.1 0 1 44.14 35.50
  Q 44.31 34.12 43.56 32.97
  Q 43.25 32.49 43.51 31.98
  C 44.79 29.51 43.51 27.88 43.52 25.65
  L 43.89 21.61
  Z"
/>
<path fill="#2378b5" d="
  M 17.09 23.23
  Q 27.56 33.63 37.84 44.08
  C 39.66 45.93 40.73 48.96 38.90 51.03
  Q 38.60 49.98 37.55 50.45
  C 34.54 51.80 30.44 50.92 27.53 50.87
  C 26.12 50.85 25.02 51.63 23.54 51.83
  Q 23.06 51.89 22.71 51.56
  Q 20.93 49.90 18.59 49.11
  Q 18.13 48.96 17.77 48.63
  C 16.31 47.31 14.75 46.92 14.00 44.73
  Q 13.83 44.24 13.30 44.19
  L 12.04 44.09
  L 24.33 44.18
  Q 25.67 44.20 24.73 43.23
  L 15.65 33.96
  C 18.20 32.39 17.37 25.93 17.09 23.23
  Z"
/>
<path fill="#122c4d" d="
  M 151.85 24.48
  Q 152.49 27.89 151.81 31.27
  L 151.85 24.48
  Z"
/>
<path fill="#183a66" d="
  M 69.49 32.67
  Q 69.72 33.93 70.60 34.18
  Q 70.91 34.27 71.06 34.55
  Q 71.83 36.02 73.38 36.19
  A 0.73 0.71 -5.4 0 1 74.00 36.69
  Q 74.50 38.21 76.04 38.27
  L 70.72 43.48
  C 69.43 44.57 68.40 43.77 67.19 43.71
  Q 62.89 43.52 58.51 43.66
  L 69.49 32.67
  Z"
/>
<path fill="#0f558c" d="
  M 70.72 43.48
  Q 70.59 44.02 71.50 44.04
  Q 81.95 44.19 92.49 44.13
  Q 93.01 44.13 93.18 44.63
  Q 93.42 45.35 93.14 46.58
  L 72.35 46.41
  A 0.27 0.27 0.0 0 0 72.08 46.67
  L 72.06 47.14
  Q 72.05 47.37 72.27 47.37
  L 74.50 47.37
  Q 74.56 47.37 74.57 47.52
  L 74.57 47.53
  Q 74.57 47.69 74.41 47.68
  L 68.39 47.38
  Q 67.89 47.05 67.03 47.13
  Q 66.59 47.17 66.31 46.82
  Q 65.95 46.35 65.25 46.36
  Q 61.23 46.37 57.21 46.39
  Q 56.89 46.39 56.80 46.08
  Q 56.75 45.92 56.68 45.77
  L 58.51 43.66
  Q 62.89 43.52 67.19 43.71
  C 68.40 43.77 69.43 44.57 70.72 43.48
  Z"
/>
<path fill="#183a66" d="
  M 9.01 44.11
  L 15.74 51.99
  Q 16.06 52.36 16.55 52.38
  L 17.46 52.42
  L 4.20 52.51
  Q 2.67 52.52 2.68 50.99
  L 2.70 45.54
  Q 2.71 44.08 4.17 44.08
  L 9.01 44.11
  Z"
/>
<path fill="#0f558c" d="
  M 9.01 44.11
  L 12.04 44.09
  L 13.30 44.19
  Q 13.83 44.24 14.00 44.73
  C 14.75 46.92 16.31 47.31 17.77 48.63
  Q 18.13 48.96 18.59 49.11
  Q 20.93 49.90 22.71 51.56
  Q 23.06 51.89 23.54 51.83
  C 25.02 51.63 26.12 50.85 27.53 50.87
  C 30.44 50.92 34.54 51.80 37.55 50.45
  Q 38.60 49.98 38.90 51.03
  L 32.27 57.84
  L 28.18 56.27
  Q 27.76 56.11 27.31 56.10
  L 22.00 56.04
  L 24.72 53.41
  Q 25.85 52.32 24.28 52.34
  L 17.46 52.42
  L 16.55 52.38
  Q 16.06 52.36 15.74 51.99
  L 9.01 44.11
  Z"
/>
<path fill="#2378b5" d="
  M 56.68 45.77
  Q 56.75 45.92 56.80 46.08
  Q 56.89 46.39 57.21 46.39
  Q 61.23 46.37 65.25 46.36
  Q 65.95 46.35 66.31 46.82
  Q 66.59 47.17 67.03 47.13
  Q 67.89 47.05 68.39 47.38
  Q 68.33 47.78 68.08 47.86
  Q 67.77 47.96 67.87 48.26
  Q 67.97 48.55 68.23 48.73
  Q 68.58 48.97 68.26 49.24
  Q 68.03 49.43 67.75 49.37
  Q 67.16 49.24 67.78 49.90
  Q 68.33 50.49 68.25 51.37
  Q 68.21 51.86 67.78 52.09
  Q 65.65 53.20 63.28 52.83
  Q 63.00 52.79 62.91 52.62
  Q 62.78 52.37 62.50 52.37
  L 60.52 52.37
  Q 60.06 52.37 59.75 52.03
  Q 58.66 50.82 57.21 51.35
  Q 55.47 48.88 56.68 45.77
  Z"
/>
<path fill="#2d66a4" d="
  M 93.14 46.58
  Q 93.60 49.26 93.02 51.86
  Q 92.91 52.34 92.42 52.34
  L 70.98 52.43
  Q 70.41 52.44 70.81 52.85
  L 74.55 56.65
  Q 72.08 56.71 69.67 56.48
  C 68.21 56.35 66.77 55.56 65.01 55.62
  Q 64.54 55.64 64.23 55.28
  Q 62.83 53.67 60.55 54.70
  L 57.21 51.35
  Q 58.66 50.82 59.75 52.03
  Q 60.06 52.37 60.52 52.37
  L 62.50 52.37
  Q 62.78 52.37 62.91 52.62
  Q 63.00 52.79 63.28 52.83
  Q 65.65 53.20 67.78 52.09
  Q 68.21 51.86 68.25 51.37
  Q 68.33 50.49 67.78 49.90
  Q 67.16 49.24 67.75 49.37
  Q 68.03 49.43 68.26 49.24
  Q 68.58 48.97 68.23 48.73
  Q 67.97 48.55 67.87 48.26
  Q 67.77 47.96 68.08 47.86
  Q 68.33 47.78 68.39 47.38
  L 74.41 47.68
  Q 74.57 47.69 74.57 47.53
  L 74.57 47.52
  Q 74.56 47.37 74.50 47.37
  L 72.27 47.37
  Q 72.05 47.37 72.06 47.14
  L 72.08 46.67
  A 0.27 0.27 0.0 0 1 72.35 46.41
  L 93.14 46.58
  Z"
/>
<path fill="#919292" d="
  M 53.38 96.00
  L 41.71 96.00
  L 41.34 77.83
  Q 41.32 76.75 40.55 77.51
  L 27.22 90.89
  Q 26.88 91.23 26.44 91.02
  Q 20.53 88.09 15.67 83.62
  A 0.58 0.57 -46.3 0 1 15.66 82.79
  Q 27.83 70.68 40.02 58.44
  C 45.83 52.62 49.70 52.35 55.42 58.07
  Q 67.82 70.49 79.76 82.35
  Q 80.63 83.22 79.70 84.02
  Q 74.91 88.11 69.32 91.02
  Q 68.85 91.27 68.49 90.90
  L 55.19 77.54
  Q 54.66 77.01 54.66 77.76
  L 54.65 95.06
  Q 54.65 95.65 54.09 95.80
  L 53.38 96.00
  Z
  M 40.63 61.49
  L 35.43 66.71
  L 19.59 82.57
  Q 19.05 83.10 19.68 83.54
  L 25.72 87.76
  Q 26.29 88.15 26.77 87.66
  L 42.91 71.24
  Q 43.36 70.66 43.73 71.11
  A 0.27 0.24 30.1 0 1 43.78 71.26
  L 43.72 92.51
  Q 43.72 93.05 44.27 93.05
  L 51.95 93.00
  L 52.13 70.83
  L 63.65 81.98
  L 69.29 87.50
  Q 69.67 87.86 70.11 87.57
  L 76.22 83.41
  Q 76.73 83.07 76.29 82.64
  L 62.20 68.50
  Q 55.73 60.84 48.24 55.74
  Q 43.43 57.66 40.63 61.49
  Z"
/>
<path fill="#0f558c" d="
  M 74.55 56.65
  L 78.30 60.47
  Q 76.09 59.75 73.83 59.85
  Q 73.51 59.86 73.30 59.61
  Q 73.04 59.31 72.84 58.90
  Q 72.62 58.44 72.14 58.62
  Q 71.46 58.88 71.22 58.30
  Q 71.04 57.86 70.56 57.86
  L 63.72 57.86
  L 60.55 54.70
  Q 62.83 53.67 64.23 55.28
  Q 64.54 55.64 65.01 55.62
  C 66.77 55.56 68.21 56.35 69.67 56.48
  Q 72.08 56.71 74.55 56.65
  Z"
/>
<path fill="#122c4d" d="
  M 22.00 56.04
  L 27.31 56.10
  Q 27.76 56.11 28.18 56.27
  L 32.27 57.84
  L 13.67 76.51
  Q 13.10 77.09 12.64 76.42
  L 8.61 70.57
  A 0.95 0.95 0.0 0 1 8.72 69.36
  L 22.00 56.04
  Z"
/>
<path fill="#0f558c" d="
  M 48.24 55.74
  L 50.43 62.36
  Q 50.56 62.76 50.79 63.12
  Q 51.42 64.11 50.95 65.27
  Q 50.76 65.74 51.04 66.16
  Q 52.78 68.77 52.13 70.83
  L 51.95 93.00
  Q 51.45 84.95 51.52 77.00
  Q 51.54 75.42 50.20 73.71
  Q 49.92 73.35 49.85 72.89
  Q 49.56 70.76 48.95 69.82
  C 48.08 68.48 44.87 66.49 43.87 64.17
  Q 43.68 63.74 43.30 63.45
  L 40.63 61.49
  Q 43.43 57.66 48.24 55.74
  Z"
/>
<path fill="#2378b5" d="
  M 48.24 55.74
  Q 55.73 60.84 62.20 68.50
  Q 61.43 69.18 62.23 69.97
  Q 62.51 70.25 62.41 70.63
  Q 62.02 72.12 62.91 73.29
  Q 63.26 73.76 62.81 74.13
  Q 62.48 74.40 62.57 74.70
  Q 62.64 74.96 62.64 75.02
  Q 63.03 78.57 63.65 81.98
  L 52.13 70.83
  Q 52.78 68.77 51.04 66.16
  Q 50.76 65.74 50.95 65.27
  Q 51.42 64.11 50.79 63.12
  Q 50.56 62.76 50.43 62.36
  L 48.24 55.74
  Z"
/>
<path fill="#183a66" d="
  M 78.30 60.47
  L 87.56 69.69
  Q 87.75 69.87 87.60 70.09
  L 83.03 76.80
  Q 82.86 77.05 82.64 76.83
  L 63.72 57.86
  L 70.56 57.86
  Q 71.04 57.86 71.22 58.30
  Q 71.46 58.88 72.14 58.62
  Q 72.62 58.44 72.84 58.90
  Q 73.04 59.31 73.30 59.61
  Q 73.51 59.86 73.83 59.85
  Q 76.09 59.75 78.30 60.47
  Z"
/>
<path fill="#183a66" d="
  M 40.63 61.49
  L 43.30 63.45
  Q 43.68 63.74 43.87 64.17
  C 44.87 66.49 48.08 68.48 48.95 69.82
  Q 49.56 70.76 49.85 72.89
  Q 49.92 73.35 50.20 73.71
  Q 51.54 75.42 51.52 77.00
  Q 51.45 84.95 51.95 93.00
  L 44.27 93.05
  Q 43.72 93.05 43.72 92.51
  L 43.78 71.26
  A 0.27 0.24 30.1 0 0 43.73 71.11
  Q 43.36 70.66 42.91 71.24
  Q 42.58 70.25 40.58 70.35
  Q 40.02 70.38 39.65 69.96
  Q 38.88 69.07 37.72 68.89
  Q 37.19 68.81 37.15 68.28
  Q 37.01 66.70 35.43 66.71
  L 40.63 61.49
  Z"
/>
<path fill="#1d2652" d="
  M 111.85 80.46
  L 111.95 91.73
  A 0.91 0.91 0.0 0 1 111.05 92.65
  L 107.60 92.68
  Q 106.63 92.69 106.63 91.72
  L 106.59 63.77
  Q 106.59 63.16 107.21 63.16
  L 130.20 63.14
  Q 132.35 63.14 131.19 64.95
  L 130.55 65.96
  Q 129.55 67.52 127.70 67.52
  L 112.26 67.52
  Q 111.78 67.52 111.79 67.99
  L 111.91 75.28
  A 0.41 0.41 0.0 0 0 112.32 75.68
  L 123.12 75.57
  Q 123.80 75.56 123.79 76.24
  L 123.76 79.46
  Q 123.75 80.17 123.04 80.16
  L 112.29 80.02
  Q 111.84 80.02 111.85 80.46
  Z"
/>
<path fill="#122c4d" d="
  M 35.43 66.71
  Q 37.01 66.70 37.15 68.28
  Q 37.19 68.81 37.72 68.89
  Q 38.88 69.07 39.65 69.96
  Q 40.02 70.38 40.58 70.35
  Q 42.58 70.25 42.91 71.24
  L 26.77 87.66
  Q 26.29 88.15 25.72 87.76
  L 19.68 83.54
  Q 19.05 83.10 19.59 82.57
  L 35.43 66.71
  Z"
/>
<path fill="#0f558c" d="
  M 62.20 68.50
  L 76.29 82.64
  Q 76.73 83.07 76.22 83.41
  L 70.11 87.57
  Q 69.67 87.86 69.29 87.50
  L 63.65 81.98
  Q 63.03 78.57 62.64 75.02
  Q 62.64 74.96 62.57 74.70
  Q 62.48 74.40 62.81 74.13
  Q 63.26 73.76 62.91 73.29
  Q 62.02 72.12 62.41 70.63
  Q 62.51 70.25 62.23 69.97
  Q 61.43 69.18 62.20 68.50
  Z"
/>
<path fill="#1d2652" d="
  M 214.43 87.61
  C 216.53 83.57 207.90 82.41 205.79 80.95
  C 201.94 78.27 201.84 73.20 205.91 70.63
  Q 210.62 67.66 217.16 70.97
  Q 218.84 71.81 218.39 73.63
  L 218.28 74.07
  Q 217.94 75.45 216.70 74.75
  C 214.08 73.29 210.35 71.69 207.82 74.33
  A 2.05 2.05 0.0 0 0 208.01 77.34
  C 210.01 78.95 213.15 79.51 215.51 80.57
  C 220.97 83.01 220.02 89.99 214.91 92.14
  Q 208.19 94.98 201.91 89.93
  Q 201.77 89.82 201.89 89.69
  L 204.11 87.09
  Q 204.30 86.87 204.54 87.04
  C 207.15 89.01 212.70 90.94 214.43 87.61
  Z"
/>
<path fill="#1d2652" d="
  M 127.49 90.70
  L 127.33 70.59
  A 0.76 0.76 0.0 0 1 128.07 69.83
  L 130.73 69.78
  A 0.76 0.76 0.0 0 1 131.50 70.54
  L 131.50 92.11
  A 0.76 0.76 0.0 0 1 130.37 92.77
  L 127.87 91.36
  A 0.76 0.76 0.0 0 1 127.49 90.70
  Z"
/>
<path fill="#1d2652" d="
  M 140.04 76.74
  Q 139.30 75.62 139.30 76.96
  L 139.31 92.04
  Q 139.31 92.63 138.71 92.64
  L 135.83 92.68
  Q 135.29 92.69 135.29 92.15
  L 135.29 70.53
  Q 135.29 70.09 135.71 69.97
  Q 139.84 68.88 141.93 72.31
  Q 146.80 80.31 149.88 85.11
  Q 150.32 85.80 150.32 84.98
  L 150.16 70.50
  Q 150.15 69.82 150.83 69.82
  L 153.53 69.80
  Q 154.25 69.80 154.25 70.53
  L 154.23 92.04
  A 0.51 0.51 0.0 0 1 153.85 92.53
  C 151.83 93.02 150.31 92.64 149.12 90.77
  Q 144.46 83.47 140.04 76.74
  Z"
/>
<path fill="#1d2652" d="
  M 171.14 86.40
  L 163.63 86.39
  A 0.54 0.54 0.0 0 0 163.12 86.74
  L 161.09 92.29
  A 0.54 0.54 0.0 0 1 160.58 92.64
  L 157.35 92.64
  A 0.54 0.54 0.0 0 1 156.85 91.91
  L 165.12 70.14
  A 0.54 0.54 0.0 0 1 165.62 69.79
  L 169.34 69.80
  A 0.54 0.54 0.0 0 1 169.84 70.15
  L 178.10 92.05
  A 0.54 0.54 0.0 0 1 177.52 92.77
  L 173.99 92.34
  A 0.54 0.54 0.0 0 1 173.55 91.99
  L 171.65 86.76
  A 0.54 0.54 0.0 0 0 171.14 86.40
  Z
  M 167.06 76.01
  L 164.78 82.03
  A 0.53 0.53 0.0 0 0 165.28 82.74
  L 169.47 82.73
  A 0.52 0.52 0.0 0 0 169.95 82.02
  L 167.72 76.01
  Q 167.40 75.13 167.06 76.01
  Z"
/>
<path fill="#1d2652" d="
  M 184.50 76.27
  L 184.54 91.81
  Q 184.54 92.69 183.66 92.68
  L 181.43 92.65
  Q 180.47 92.64 180.47 91.68
  L 180.46 70.53
  Q 180.46 70.07 180.91 69.95
  Q 184.99 68.91 187.15 72.33
  Q 191.30 78.87 194.82 84.70
  Q 195.60 85.98 195.59 84.48
  L 195.54 70.04
  Q 195.54 69.78 195.79 69.78
  L 199.28 69.80
  A 0.23 0.23 0.0 0 1 199.51 70.03
  L 199.51 92.01
  A 0.70 0.70 0.0 0 1 198.84 92.71
  C 196.39 92.81 195.58 92.57 194.18 90.42
  Q 189.53 83.30 184.87 76.16
  A 0.20 0.20 0.0 0 0 184.50 76.27
  Z"
/>
<path fill="#1d2652" d="
  M 237.51 81.35
  Q 241.96 82.86 240.93 87.52
  C 240.03 91.63 236.40 92.45 232.41 92.57
  Q 227.22 92.72 222.11 92.60
  Q 221.76 92.60 221.76 92.25
  L 221.76 70.46
  Q 221.76 69.85 222.37 69.84
  Q 225.89 69.77 231.99 69.84
  C 238.59 69.92 243.30 75.21 237.38 80.76
  Q 236.95 81.16 237.51 81.35
  Z
  M 227.98 79.58
  C 230.86 79.46 237.35 80.26 235.81 74.88
  A 2.33 2.32 82.2 0 0 233.61 73.20
  L 226.09 73.12
  Q 225.53 73.11 225.53 73.66
  L 225.54 88.73
  Q 225.54 89.18 225.99 89.20
  C 228.38 89.28 235.18 89.96 236.64 87.66
  C 239.45 83.19 232.57 82.48 230.03 82.94
  Q 228.28 83.25 227.53 81.65
  L 227.18 80.89
  Q 226.60 79.63 227.98 79.58
  Z"
/>
<path fill="#1d2652" d="
  M 255.88 86.40
  L 248.63 86.41
  Q 248.13 86.41 247.97 86.89
  L 246.35 91.81
  Q 246.10 92.57 245.31 92.60
  L 242.31 92.72
  Q 241.60 92.75 241.85 92.08
  L 249.86 70.71
  Q 250.08 70.12 250.69 69.98
  Q 252.42 69.57 254.20 69.93
  Q 254.70 70.04 254.88 70.51
  L 262.91 91.60
  Q 263.35 92.78 262.10 92.66
  L 259.85 92.45
  Q 258.66 92.34 258.24 91.23
  L 256.63 86.92
  Q 256.44 86.40 255.88 86.40
  Z
  M 249.72 82.28
  A 0.34 0.34 0.0 0 0 250.03 82.73
  L 254.61 82.75
  A 0.34 0.34 0.0 0 0 254.93 82.29
  L 252.67 75.90
  A 0.34 0.34 0.0 0 0 252.02 75.89
  L 249.72 82.28
  Z"
/>
<path fill="#1d2652" d="
  M 269.18 77.48
  L 269.32 91.70
  Q 269.32 92.66 268.36 92.66
  L 266.06 92.67
  Q 265.13 92.67 265.13 91.74
  L 265.11 70.50
  Q 265.11 70.08 265.52 69.97
  C 268.81 69.07 270.54 70.33 272.31 73.13
  Q 276.16 79.23 279.71 85.11
  Q 280.20 85.92 280.20 84.98
  L 280.21 70.29
  Q 280.21 69.80 280.71 69.80
  L 283.73 69.80
  A 0.43 0.43 0.0 0 1 284.16 70.23
  L 284.17 92.00
  Q 284.17 92.46 283.72 92.56
  C 281.78 92.95 280.30 92.61 279.13 90.83
  Q 274.53 83.86 270.29 77.15
  Q 269.16 75.37 269.18 77.48
  Z"
/>
<path fill="#1d2652" d="
  M 292.15 79.47
  L 300.73 70.04
  Q 300.93 69.82 301.22 69.82
  L 305.94 69.78
  A 0.17 0.17 0.0 0 1 306.07 70.06
  L 298.89 77.95
  Q 298.54 78.34 298.80 78.78
  L 306.30 91.32
  Q 307.30 93.01 305.34 93.06
  L 304.48 93.08
  Q 302.32 93.13 301.23 91.26
  L 296.07 82.32
  A 0.66 0.66 0.0 0 0 295.01 82.21
  L 291.86 85.72
  A 1.24 1.21 -24.8 0 0 291.55 86.53
  L 291.54 91.76
  Q 291.54 92.57 290.74 92.57
  L 288.25 92.56
  A 0.83 0.83 0.0 0 1 287.42 91.73
  L 287.43 70.44
  Q 287.43 69.81 288.06 69.80
  L 290.78 69.79
  Q 291.52 69.79 291.53 70.53
  L 291.56 79.24
  A 0.34 0.34 0.0 0 0 292.15 79.47
  Z"
/>
</svg>
