<?xml version="1.0" encoding="UTF-8" standalone="no"?>
<!DOCTYPE svg PUBLIC "-//W3C//DTD SVG 1.1//EN" "http://www.w3.org/Graphics/SVG/1.1/DTD/svg11.dtd">
<svg xmlns="http://www.w3.org/2000/svg" version="1.1" viewBox="0.00 0.00 986.00 177.00">
<g stroke-width="2.00" fill="none" stroke-linecap="butt">
<path stroke="#1f843a" vector-effect="non-scaling-stroke" d="
  M 63.61 23.04
  Q 61.01 21.16 58.72 23.20
  Q 58.35 23.52 57.89 23.67
  C 56.09 24.22 55.37 26.15 54.48 27.02
  C 52.10 29.35 48.00 32.34 48.09 35.94
  Q 48.11 36.42 48.48 36.73
  Q 49.57 37.65 49.20 38.84"
/>
<path stroke="#064028" vector-effect="non-scaling-stroke" d="
  M 27.13 8.37
  Q 29.70 6.90 30.37 4.42"
/>
<path stroke="#228d3a" vector-effect="non-scaling-stroke" d="
  M 94.25 59.81
  Q 95.91 56.28 95.88 54.49
  Q 95.85 52.13 94.74 49.44
  C 92.91 44.99 89.12 41.17 86.85 36.81
  C 86.17 35.50 84.50 35.62 83.29 35.38
  Q 82.78 35.28 83.38 35.15
  Q 83.82 35.05 84.06 34.65
  A 0.51 0.51 0.0 0 0 83.70 33.88
  Q 82.80 33.75 82.43 34.77
  Q 82.15 35.53 81.58 36.04"
/>
<path stroke="#1f843a" vector-effect="non-scaling-stroke" d="
  M 44.96 43.77
  Q 42.75 43.14 42.41 44.99
  Q 41.96 47.38 41.40 49.76
  Q 41.31 50.16 41.06 50.46
  Q 40.70 50.88 40.62 51.43
  L 40.01 56.24
  A 1.01 0.96 76.7 0 1 39.63 56.89
  Q 38.86 57.47 39.13 58.45
  Q 39.20 58.70 39.00 58.86
  Q 38.80 59.02 38.66 59.21
  Q 38.48 59.43 38.42 59.82
  C 38.08 62.12 37.97 64.36 37.49 66.70
  Q 36.12 73.31 37.02 79.68"
/>
<path stroke="#196240" vector-effect="non-scaling-stroke" d="
  M 8.50 63.57
  C 8.21 61.66 9.03 61.06 9.34 59.67
  C 11.27 50.96 12.01 41.98 14.61 33.44
  Q 15.43 30.73 15.60 28.46
  Q 15.78 25.89 15.81 23.36"
/>
<path stroke="#1f843a" vector-effect="non-scaling-stroke" d="
  M 49.49 123.19
  Q 48.45 123.68 47.82 123.48
  Q 47.33 123.33 47.06 122.30
  Q 46.49 120.12 45.45 118.14
  C 44.27 115.87 43.74 113.96 42.99 111.72
  C 42.35 109.84 42.45 107.69 41.54 105.67
  Q 41.33 105.21 41.38 104.71
  Q 41.57 102.72 40.52 100.99
  Q 39.86 99.92 40.23 96.65
  Q 40.29 96.17 40.57 95.78
  L 42.18 93.52"
/>
<path stroke="#235427" vector-effect="non-scaling-stroke" d="
  M 90.26 149.85
  Q 88.56 147.29 86.14 145.65"
/>
<path stroke="#1f843a" vector-effect="non-scaling-stroke" d="
  M 66.16 146.94
  Q 61.69 148.66 59.73 146.85
  Q 57.82 145.09 55.79 143.49
  Q 53.98 142.06 52.84 140.01
  Q 52.59 139.56 52.15 139.31
  Q 50.35 138.28 50.37 136.25
  Q 50.37 135.84 50.21 135.48
  Q 49.85 134.68 49.98 133.39"
/>
</g>
<path fill="#01703b" d="
  M 63.61 23.04
  Q 61.01 21.16 58.72 23.20
  Q 58.35 23.52 57.89 23.67
  C 56.09 24.22 55.37 26.15 54.48 27.02
  C 52.10 29.35 48.00 32.34 48.09 35.94
  Q 48.11 36.42 48.48 36.73
  Q 49.57 37.65 49.20 38.84
  Q 37.89 26.09 23.66 16.95
  Q 23.21 16.67 23.44 16.19
  L 27.13 8.37
  Q 29.70 6.90 30.37 4.42
  C 36.65 -2.16 46.60 1.34 52.67 6.59
  Q 59.91 12.86 63.61 23.04
  Z"
/>
<path fill="#0a1015" d="
  M 30.37 4.42
  Q 29.70 6.90 27.13 8.37
  Q 28.19 6.09 30.37 4.42
  Z"
/>
<path fill="#07823b" d="
  M 94.25 59.81
  Q 95.91 56.28 95.88 54.49
  Q 95.85 52.13 94.74 49.44
  C 92.91 44.99 89.12 41.17 86.85 36.81
  C 86.17 35.50 84.50 35.62 83.29 35.38
  Q 82.78 35.28 83.38 35.15
  Q 83.82 35.05 84.06 34.65
  A 0.51 0.51 0.0 0 0 83.70 33.88
  Q 82.80 33.75 82.43 34.77
  Q 82.15 35.53 81.58 36.04
  C 82.68 29.02 86.88 17.66 94.50 16.53
  C 102.03 15.41 105.95 23.10 106.97 29.19
  Q 107.42 31.89 106.35 35.22
  Q 102.14 48.30 94.25 59.81
  Z"
/>
<path fill="#01703b" d="
  M 44.96 43.77
  Q 42.75 43.14 42.41 44.99
  Q 41.96 47.38 41.40 49.76
  Q 41.31 50.16 41.06 50.46
  Q 40.70 50.88 40.62 51.43
  L 40.01 56.24
  A 1.01 0.96 76.7 0 1 39.63 56.89
  Q 38.86 57.47 39.13 58.45
  Q 39.20 58.70 39.00 58.86
  Q 38.80 59.02 38.66 59.21
  Q 38.48 59.43 38.42 59.82
  C 38.08 62.12 37.97 64.36 37.49 66.70
  Q 36.12 73.31 37.02 79.68
  Q 27.54 77.43 19.19 72.59
  Q 13.19 69.11 8.50 63.57
  C 8.21 61.66 9.03 61.06 9.34 59.67
  C 11.27 50.96 12.01 41.98 14.61 33.44
  Q 15.43 30.73 15.60 28.46
  Q 15.78 25.89 15.81 23.36
  Q 17.06 22.42 18.24 22.18
  Q 18.74 22.07 19.18 22.34
  Q 33.73 30.94 44.96 43.77
  Z"
/>
<path fill="#3c9738" d="
  M 63.61 23.04
  C 67.79 33.28 69.61 44.44 70.35 56.25
  Q 70.87 64.67 69.94 71.12
  Q 69.81 72.02 69.46 71.18
  Q 61.89 53.29 49.20 38.84
  Q 49.57 37.65 48.48 36.73
  Q 48.11 36.42 48.09 35.94
  C 48.00 32.34 52.10 29.35 54.48 27.02
  C 55.37 26.15 56.09 24.22 57.89 23.67
  Q 58.35 23.52 58.72 23.20
  Q 61.01 21.16 63.61 23.04
  Z"
/>
<path fill="#315444" d="
  M 15.81 23.36
  Q 15.78 25.89 15.60 28.46
  Q 15.43 30.73 14.61 33.44
  C 12.01 41.98 11.27 50.96 9.34 59.67
  C 9.03 61.06 8.21 61.66 8.50 63.57
  C -3.64 49.64 -1.51 31.35 15.81 23.36
  Z"
/>
<path fill="#103567" d="
  M 986.00 122.83
  L 986.00 124.00
  L 968.79 124.23
  A 1.71 1.69 -13.9 0 1 967.26 123.32
  L 934.44 61.00
  A 2.02 2.02 0.0 0 0 930.86 61.00
  L 898.17 123.13
  A 2.17 2.14 -75.9 0 1 896.27 124.28
  L 880.53 124.28
  A 1.24 1.24 0.0 0 1 879.44 122.46
  L 931.09 25.96
  A 1.73 1.73 0.0 0 1 934.13 25.96
  L 986.00 122.83
  Z"
/>
<path fill="#0a1015" d="
  M 204.97 127.25
  Q 205.69 127.02 205.69 126.26
  L 205.69 96.97
  A 0.72 0.72 0.0 0 0 204.97 96.25
  L 192.94 96.26
  A 0.93 0.93 0.0 0 1 192.02 95.44
  L 190.70 85.03
  Q 190.64 84.48 191.19 84.50
  L 223.14 85.59
  Q 223.81 85.62 223.43 86.17
  L 222.96 86.88
  A 0.54 0.54 0.0 0 0 222.87 87.10
  C 221.49 96.29 222.05 106.60 222.17 115.94
  Q 222.32 127.39 223.10 133.70
  Q 223.15 134.16 222.73 134.34
  C 207.78 140.52 190.72 142.90 174.71 139.92
  C 144.52 134.30 129.72 107.50 134.82 78.02
  C 138.98 53.92 157.74 36.52 182.03 33.86
  C 194.96 32.45 206.99 32.92 219.02 37.58
  Q 219.46 37.75 219.37 38.21
  L 217.06 49.80
  Q 216.93 50.48 216.28 50.23
  Q 201.19 44.32 187.75 45.68
  C 169.04 47.57 155.97 62.21 153.79 80.47
  C 151.84 96.71 156.22 115.69 171.39 124.71
  C 181.08 130.48 194.19 130.74 204.97 127.25
  Z"
/>
<path fill="#3c9738" d="
  M 94.25 59.81
  Q 87.91 69.47 78.99 77.20
  A 0.20 0.20 0.0 0 1 78.66 77.06
  Q 77.73 60.63 80.11 44.28
  Q 80.24 43.42 80.29 42.50
  Q 80.51 39.07 81.58 36.04
  Q 82.15 35.53 82.43 34.77
  Q 82.80 33.75 83.70 33.88
  A 0.51 0.51 0.0 0 1 84.06 34.65
  Q 83.82 35.05 83.38 35.15
  Q 82.78 35.28 83.29 35.38
  C 84.50 35.62 86.17 35.50 86.85 36.81
  C 89.12 41.17 92.91 44.99 94.74 49.44
  Q 95.85 52.13 95.88 54.49
  Q 95.91 56.28 94.25 59.81
  Z"
/>
<path fill="#07823b" d="
  M 114.73 56.23
  C 110.13 69.45 97.92 83.42 82.26 81.26
  A 0.22 0.22 0.0 0 1 82.15 80.88
  C 95.87 69.38 105.75 53.54 110.74 36.42
  A 0.25 0.25 0.0 0 1 111.17 36.33
  Q 118.61 45.09 114.73 56.23
  Z"
/>
<path fill="#103567" d="
  M 845.47 102.77
  A 2.03 2.03 0.0 0 0 849.06 102.77
  L 881.97 40.26
  A 1.46 1.46 0.0 0 1 883.26 39.48
  L 899.47 39.49
  A 1.20 1.20 0.0 0 1 900.53 41.25
  L 848.65 138.16
  A 1.52 1.52 0.0 0 1 845.97 138.16
  L 794.15 41.33
  A 1.26 1.25 -14.0 0 1 795.26 39.49
  L 810.75 39.49
  A 2.30 2.30 0.0 0 1 812.78 40.71
  L 845.47 102.77
  Z"
/>
<circle fill="#0a1015" cx="552.88" cy="48.97" r="9.47"/>
<path fill="#103567" d="
  M 675.25 86.11
  Q 675.86 86.12 676.24 86.31
  C 688.38 92.08 691.47 105.68 688.57 117.76
  C 684.92 132.97 670.97 138.54 656.75 138.63
  Q 631.47 138.77 606.45 138.71
  A 1.23 1.23 0.0 0 1 605.23 137.48
  L 605.24 40.98
  A 1.47 1.47 0.0 0 1 606.71 39.51
  Q 631.90 39.50 657.25 39.49
  C 669.98 39.49 681.76 47.12 684.48 59.98
  C 686.29 68.53 683.53 80.30 674.84 84.51
  Q 674.40 84.72 674.47 85.19
  Q 674.49 85.40 674.56 85.60
  Q 674.73 86.09 675.25 86.11
  Z
  M 621.37 55.62
  L 621.33 77.70
  A 2.08 2.08 0.0 0 0 623.41 79.78
  L 655.26 79.84
  A 13.47 11.78 0.1 0 0 668.75 68.08
  L 668.75 65.40
  A 13.47 11.78 0.1 0 0 655.30 53.60
  L 623.45 53.54
  A 2.08 2.08 0.0 0 0 621.37 55.62
  Z
  M 621.25 96.17
  L 621.35 122.61
  A 1.92 1.92 0.0 0 0 623.27 124.52
  L 657.41 124.40
  A 15.98 13.46 -0.2 0 0 673.35 110.89
  L 673.33 107.53
  A 15.98 13.46 -0.2 0 0 657.31 94.13
  L 623.17 94.24
  A 1.92 1.92 0.0 0 0 621.25 96.17
  Z"
/>
<path fill="#103567" d="
  M 778.54 86.08
  Q 787.25 89.33 790.78 98.52
  C 796.16 112.56 791.05 129.46 776.72 135.43
  Q 768.85 138.71 758.50 138.72
  Q 734.13 138.74 709.77 138.71
  A 1.46 1.45 90.0 0 1 708.32 137.25
  L 708.32 41.22
  A 1.70 1.69 -90.0 0 1 710.01 39.52
  Q 734.92 39.45 760.23 39.57
  C 772.80 39.63 784.35 46.52 787.42 58.96
  C 789.70 68.15 787.06 79.15 778.38 84.43
  A 0.92 0.92 0.0 0 0 778.54 86.08
  Z
  M 724.48 55.57
  L 724.52 77.89
  A 1.97 1.97 0.0 0 0 726.49 79.86
  L 758.45 79.80
  A 13.51 11.82 -0.1 0 0 771.94 67.96
  L 771.94 65.34
  A 13.51 11.82 -0.1 0 0 758.41 53.54
  L 726.45 53.60
  A 1.97 1.97 0.0 0 0 724.48 55.57
  Z
  M 724.44 96.09
  L 724.54 122.69
  A 1.86 1.86 0.0 0 0 726.40 124.54
  L 760.63 124.42
  A 15.93 13.45 -0.2 0 0 776.52 110.92
  L 776.50 107.50
  A 15.93 13.45 -0.2 0 0 760.53 94.10
  L 726.30 94.22
  A 1.86 1.86 0.0 0 0 724.44 96.09
  Z"
/>
<path fill="#3c9738" d="
  M 44.96 43.77
  Q 58.39 58.85 66.25 77.51
  Q 66.44 77.95 66.00 78.15
  C 56.82 82.41 46.99 82.14 37.02 79.68
  Q 36.12 73.31 37.49 66.70
  C 37.97 64.36 38.08 62.12 38.42 59.82
  Q 38.48 59.43 38.66 59.21
  Q 38.80 59.02 39.00 58.86
  Q 39.20 58.70 39.13 58.45
  Q 38.86 57.47 39.63 56.89
  A 1.01 0.96 76.7 0 0 40.01 56.24
  L 40.62 51.43
  Q 40.70 50.88 41.06 50.46
  Q 41.31 50.16 41.40 49.76
  Q 41.96 47.38 42.41 44.99
  Q 42.75 43.14 44.96 43.77
  Z"
/>
<path fill="#0a1015" d="
  M 513.58 76.94
  Q 513.57 97.60 513.57 118.25
  C 513.57 131.37 525.98 130.52 534.91 126.13
  Q 535.17 126.01 535.21 126.29
  L 536.54 134.94
  Q 536.57 135.16 536.38 135.26
  C 528.40 139.45 517.80 142.02 509.27 139.28
  C 500.13 136.36 498.07 128.79 497.98 120.00
  Q 497.75 98.48 497.70 76.96
  Q 497.70 76.47 497.20 76.47
  L 486.76 76.48
  Q 486.42 76.48 486.42 76.14
  L 486.48 68.21
  Q 486.48 67.91 486.78 67.88
  L 497.21 66.65
  A 0.65 0.64 -2.2 0 0 497.77 66.05
  L 498.87 49.72
  Q 498.91 49.12 499.51 49.08
  L 512.96 48.11
  Q 513.61 48.07 513.61 48.71
  L 513.56 66.28
  Q 513.56 66.75 514.03 66.75
  L 531.29 66.74
  Q 532.08 66.73 532.08 67.52
  L 532.10 75.68
  Q 532.10 76.48 531.30 76.48
  L 514.05 76.47
  Q 513.58 76.47 513.58 76.94
  Z"
/>
<path fill="#0a1015" d="
  M 276.37 132.75
  Q 276.19 131.52 275.29 132.38
  Q 269.77 137.71 262.97 139.55
  C 249.58 143.19 235.18 137.65 233.42 122.51
  C 230.60 98.25 256.34 90.33 275.04 95.82
  A 0.71 0.71 0.0 0 0 275.96 95.11
  C 275.60 86.28 276.61 74.91 263.99 74.51
  Q 251.15 74.10 240.77 79.29
  A 0.10 0.10 0.0 0 1 240.63 79.19
  L 242.44 69.77
  Q 242.48 69.55 242.68 69.46
  Q 255.37 63.68 269.11 65.05
  C 283.36 66.47 291.61 72.92 291.69 88.25
  Q 291.79 107.25 291.79 126.25
  Q 291.79 130.27 292.99 138.27
  Q 293.06 138.80 292.53 138.80
  L 277.80 138.82
  Q 277.28 138.82 277.20 138.30
  L 276.37 132.75
  Z
  M 251.32 110.60
  C 248.32 115.64 248.36 123.84 253.44 127.38
  C 259.71 131.74 269.74 128.88 275.40 124.22
  Q 275.81 123.88 275.81 123.35
  L 275.85 103.97
  Q 275.85 103.55 275.45 103.42
  C 266.92 100.75 256.24 102.37 251.32 110.60
  Z"
/>
<path fill="#0a1015" d="
  M 322.91 73.89
  Q 322.63 77.18 324.45 74.43
  C 328.98 67.58 336.46 63.86 344.67 64.89
  A 0.94 0.93 75.2 0 1 345.31 65.27
  Q 345.67 65.75 345.32 66.14
  Q 345.09 66.40 345.03 66.74
  L 343.32 76.49
  A 1.00 0.99 -80.6 0 1 342.19 77.31
  C 334.92 76.23 329.03 79.69 324.07 85.26
  Q 323.75 85.62 323.74 86.10
  Q 323.65 108.75 323.79 131.38
  C 323.80 133.66 324.17 136.02 324.45 138.31
  Q 324.51 138.80 324.02 138.80
  L 307.75 138.81
  Q 307.30 138.81 307.36 138.36
  Q 307.90 134.38 307.93 130.52
  Q 308.18 96.69 307.82 78.75
  Q 307.72 74.13 304.37 70.40
  Q 304.04 70.04 304.47 69.81
  C 310.13 66.83 320.80 61.21 322.59 71.26
  Q 322.96 73.35 322.91 73.89
  Z"
/>
<path fill="#0a1015" d="
  M 386.33 132.25
  A 0.47 0.47 0.0 0 0 385.58 132.11
  Q 376.27 141.27 364.21 140.60
  C 352.60 139.96 343.65 133.19 343.21 120.99
  C 342.35 97.43 366.37 90.64 384.98 95.77
  Q 385.80 95.99 385.84 95.14
  C 386.10 89.29 386.24 79.31 380.17 76.03
  C 372.60 71.94 357.99 75.69 350.75 79.27
  A 0.10 0.09 84.1 0 1 350.62 79.16
  L 352.42 69.74
  Q 352.47 69.47 352.72 69.36
  Q 368.24 62.47 384.58 65.92
  C 397.41 68.62 401.77 77.38 401.75 89.75
  Q 401.71 109.37 401.83 129.00
  Q 401.84 131.26 402.85 138.43
  Q 402.91 138.82 402.51 138.82
  L 387.94 138.80
  Q 387.46 138.80 387.29 138.36
  C 386.39 136.08 386.87 133.35 386.33 132.25
  Z
  M 359.32 119.51
  C 360.49 133.57 377.79 130.38 385.37 124.30
  Q 385.81 123.95 385.81 123.39
  L 385.85 103.97
  Q 385.85 103.56 385.46 103.43
  C 377.63 100.98 368.08 102.19 362.66 108.54
  Q 358.78 113.09 359.32 119.51
  Z"
/>
<path fill="#0a1015" d="
  M 432.72 74.49
  Q 432.46 76.68 434.02 75.12
  C 440.69 68.41 450.82 63.41 460.51 64.94
  C 474.11 67.08 476.84 76.51 476.88 88.75
  Q 476.96 114.73 477.10 129.14
  Q 477.14 133.18 477.80 138.24
  Q 477.88 138.81 477.30 138.81
  L 461.01 138.80
  Q 460.57 138.80 460.62 138.36
  C 460.87 136.10 461.19 133.82 461.19 131.55
  Q 461.26 110.96 461.22 90.38
  C 461.18 69.45 442.93 76.25 433.82 85.05
  Q 433.48 85.38 433.48 85.86
  Q 433.45 108.30 433.60 130.75
  Q 433.63 134.28 434.30 138.62
  A 0.16 0.16 0.0 0 1 434.14 138.80
  L 417.50 138.82
  Q 417.16 138.82 417.19 138.48
  Q 417.69 131.82 417.71 121.25
  Q 417.75 101.63 417.70 82.00
  C 417.69 78.48 417.42 73.68 414.10 70.46
  Q 413.70 70.08 414.19 69.82
  Q 419.07 67.30 424.24 65.81
  C 430.15 64.11 433.33 69.33 432.72 74.49
  Z"
/>
<path fill="#0a1015" d="
  M 542.39 70.74
  Q 542.23 70.70 542.10 70.59
  Q 541.62 70.16 542.19 69.86
  C 549.15 66.23 561.83 60.08 561.76 74.75
  Q 561.64 99.88 561.69 125.00
  Q 561.70 132.97 562.67 138.35
  Q 562.75 138.81 562.28 138.81
  L 545.23 138.80
  Q 544.77 138.80 544.88 138.35
  Q 545.67 135.30 545.70 132.25
  Q 545.95 106.00 545.73 79.75
  Q 545.70 75.01 543.04 71.21
  Q 542.80 70.86 542.39 70.74
  Z"
/>
<path fill="#07823b" d="
  M 104.85 119.86
  Q 104.79 119.72 104.68 119.60
  Q 104.52 119.41 104.43 119.19
  C 100.53 109.47 93.50 97.16 85.19 90.55
  Q 83.62 89.30 85.60 89.64
  C 88.53 90.14 91.62 90.63 94.36 91.78
  C 103.44 95.59 113.02 103.66 115.52 113.17
  C 117.61 121.08 114.86 128.15 110.54 134.84
  A 0.36 0.35 -36.6 0 1 109.90 134.75
  Q 107.79 127.22 104.85 119.86
  Z"
/>
<path fill="#3c9738" d="
  M 49.49 123.19
  Q 48.45 123.68 47.82 123.48
  Q 47.33 123.33 47.06 122.30
  Q 46.49 120.12 45.45 118.14
  C 44.27 115.87 43.74 113.96 42.99 111.72
  C 42.35 109.84 42.45 107.69 41.54 105.67
  Q 41.33 105.21 41.38 104.71
  Q 41.57 102.72 40.52 100.99
  Q 39.86 99.92 40.23 96.65
  Q 40.29 96.17 40.57 95.78
  L 42.18 93.52
  Q 54.31 89.51 66.49 91.70
  Q 67.17 91.83 66.89 92.46
  Q 59.89 108.71 49.49 123.19
  Z"
/>
<path fill="#3c9738" d="
  M 90.26 149.85
  Q 88.56 147.29 86.14 145.65
  C 82.87 141.62 81.53 134.01 80.88 128.98
  Q 79.18 115.72 79.70 100.49
  Q 79.84 96.18 80.38 93.20
  Q 80.49 92.58 80.95 93.00
  Q 87.30 98.86 91.75 106.22
  Q 100.27 120.34 104.96 136.10
  Q 106.16 140.13 105.51 142.99
  Q 104.34 148.11 99.96 150.45
  Q 95.49 152.84 90.26 149.85
  Z"
/>
<path fill="#01703b" d="
  M 42.18 93.52
  L 40.57 95.78
  Q 40.29 96.17 40.23 96.65
  Q 39.86 99.92 40.52 100.99
  Q 41.57 102.72 41.38 104.71
  Q 41.33 105.21 41.54 105.67
  C 42.45 107.69 42.35 109.84 42.99 111.72
  C 43.74 113.96 44.27 115.87 45.45 118.14
  Q 46.49 120.12 47.06 122.30
  Q 47.33 123.33 47.82 123.48
  Q 48.45 123.68 49.49 123.19
  Q 37.32 140.63 20.07 152.91
  Q 19.65 153.21 19.19 152.98
  C 8.94 147.94 -0.69 136.82 2.65 124.75
  C 6.95 109.23 28.08 97.87 42.18 93.52
  Z"
/>
<path fill="#3c9738" d="
  M 66.16 146.94
  Q 61.69 148.66 59.73 146.85
  Q 57.82 145.09 55.79 143.49
  Q 53.98 142.06 52.84 140.01
  Q 52.59 139.56 52.15 139.31
  Q 50.35 138.28 50.37 136.25
  Q 50.37 135.84 50.21 135.48
  Q 49.85 134.68 49.98 133.39
  Q 62.67 117.12 70.07 98.48
  Q 70.63 97.05 70.85 98.57
  Q 73.06 114.12 70.93 127.13
  Q 69.22 137.65 66.16 146.94
  Z"
/>
<path fill="#01703b" d="
  M 49.98 133.39
  Q 49.85 134.68 50.21 135.48
  Q 50.37 135.84 50.37 136.25
  Q 50.35 138.28 52.15 139.31
  Q 52.59 139.56 52.84 140.01
  Q 53.98 142.06 55.79 143.49
  Q 57.82 145.09 59.73 146.85
  Q 61.69 148.66 66.16 146.94
  Q 62.78 159.83 55.60 168.56
  C 48.80 176.82 37.44 179.88 30.15 170.09
  Q 26.73 165.50 24.69 159.36
  Q 24.55 158.92 24.91 158.63
  C 34.34 151.27 42.50 142.72 49.98 133.39
  Z"
/>
<path fill="#0a1015" d="
  M 86.14 145.65
  Q 88.56 147.29 90.26 149.85
  Q 87.49 148.50 86.14 145.65
  Z"
/>
</svg>
