<?xml version="1.0" encoding="UTF-8" standalone="no"?>
<!DOCTYPE svg PUBLIC "-//W3C//DTD SVG 1.1//EN" "http://www.w3.org/Graphics/SVG/1.1/DTD/svg11.dtd">
<svg xmlns="http://www.w3.org/2000/svg" version="1.1" viewBox="0.00 0.00 1200.00 234.00">
<path fill="#005696" d="
  M 46.72 122.08
  L 46.72 233.16
  A 0.31 0.31 0.0 0 1 46.41 233.47
  L 40.37 233.47
  A 0.31 0.31 0.0 0 1 40.06 233.16
  L 40.06 3.85
  A 0.31 0.31 0.0 0 1 40.37 3.54
  L 46.41 3.52
  A 0.31 0.31 0.0 0 1 46.72 3.83
  L 46.72 114.92
  A 0.31 0.31 0.0 0 0 47.03 115.23
  L 145.43 115.23
  A 0.31 0.31 0.0 0 0 145.74 114.92
  L 145.74 3.85
  A 0.31 0.31 0.0 0 1 146.05 3.54
  L 152.01 3.52
  A 0.31 0.31 0.0 0 1 152.32 3.83
  L 152.32 233.16
  A 0.31 0.31 0.0 0 1 152.01 233.47
  L 146.05 233.48
  A 0.31 0.31 0.0 0 1 145.74 233.17
  L 145.74 122.08
  A 0.31 0.31 0.0 0 0 145.43 121.77
  L 47.03 121.77
  A 0.31 0.31 0.0 0 0 46.72 122.08
  Z"
/>
<path fill="#005696" d="
  M 59.84 101.71
  L 132.16 101.71
  A 0.31 0.31 0.0 0 0 132.47 101.40
  L 132.47 23.38
  A 0.31 0.31 0.0 0 1 132.78 23.07
  L 138.95 23.07
  A 0.31 0.31 0.0 0 1 139.26 23.38
  L 139.26 107.98
  A 0.31 0.31 0.0 0 1 138.95 108.29
  L 53.28 108.29
  A 0.31 0.31 0.0 0 1 52.97 107.98
  L 52.97 23.36
  A 0.31 0.31 0.0 0 1 53.28 23.05
  L 59.22 23.08
  A 0.31 0.31 0.0 0 1 59.53 23.39
  L 59.53 101.40
  A 0.31 0.31 0.0 0 0 59.84 101.71
  Z"
/>
<rect fill="#005696" x="26.78" y="23.26" width="6.66" height="190.48" rx="0.39"/>
<rect fill="#005696" x="159.24" y="23.53" width="6.58" height="190.40" rx="0.31"/>
<path fill="#005696" d="
  M 119.68 42.79
  L 125.69 42.79
  A 0.31 0.31 0.0 0 1 126.00 43.10
  L 126.00 94.69
  A 0.31 0.31 0.0 0 1 125.69 95.00
  L 66.77 95.00
  A 0.31 0.31 0.0 0 1 66.46 94.69
  L 66.47 43.10
  A 0.31 0.31 0.0 0 1 66.78 42.79
  L 72.72 42.79
  A 0.31 0.31 0.0 0 1 73.03 43.10
  L 73.03 88.03
  A 0.31 0.31 0.0 0 0 73.34 88.34
  L 119.06 88.33
  A 0.31 0.31 0.0 0 0 119.37 88.02
  L 119.37 43.10
  A 0.31 0.31 0.0 0 1 119.68 42.79
  Z"
/>
<rect fill="#005696" x="13.50" y="43.06" width="6.82" height="150.68" rx="0.32"/>
<rect fill="#005696" x="172.27" y="43.26" width="6.66" height="150.68" rx="0.42"/>
<path fill="#005696" d="
  M 397.36 145.70
  Q 389.94 164.53 384.41 184.00
  Q 384.30 184.37 383.91 184.37
  L 365.83 184.36
  Q 365.36 184.36 365.55 183.93
  C 385.07 139.85 402.62 94.76 420.43 49.96
  Q 420.64 49.46 421.17 49.57
  C 425.71 50.49 429.17 51.17 434.73 49.56
  Q 435.25 49.41 435.43 49.92
  C 451.87 95.10 468.61 140.74 489.30 184.16
  Q 489.52 184.64 488.99 184.61
  Q 472.73 183.88 456.47 184.61
  A 0.53 0.53 0.0 0 1 455.96 184.26
  L 442.94 145.81
  Q 442.76 145.27 442.18 145.25
  Q 420.13 144.40 398.08 145.19
  Q 397.56 145.21 397.36 145.70
  Z
  M 402.18 132.86
  A 0.62 0.62 0.0 0 0 402.75 133.71
  L 436.95 133.71
  A 0.62 0.62 0.0 0 0 437.53 132.88
  L 421.06 88.16
  A 0.62 0.62 0.0 0 0 419.90 88.15
  L 402.18 132.86
  Z"
/>
<path fill="#005696" d="
  M 888.32 145.25
  Q 866.30 144.40 844.28 145.19
  Q 843.70 145.21 843.49 145.75
  Q 836.05 164.62 830.51 184.14
  Q 830.37 184.63 829.87 184.59
  Q 820.82 183.89 811.77 184.61
  Q 811.36 184.64 811.53 184.26
  C 831.21 140.13 848.75 94.81 866.60 49.90
  Q 866.81 49.39 867.34 49.55
  Q 874.04 51.58 880.80 49.64
  Q 881.34 49.48 881.54 50.01
  C 898.35 95.09 914.57 140.84 935.49 184.20
  Q 935.70 184.64 935.21 184.62
  Q 918.89 183.87 902.57 184.61
  Q 902.23 184.63 902.12 184.31
  L 889.09 145.83
  Q 888.91 145.27 888.32 145.25
  Z
  M 848.32 132.86
  A 0.62 0.62 0.0 0 0 848.89 133.71
  L 883.10 133.71
  A 0.62 0.62 0.0 0 0 883.68 132.88
  L 867.21 88.17
  A 0.62 0.62 0.0 0 0 866.05 88.16
  L 848.32 132.86
  Z"
/>
<path fill="#005696" d="
  M 321.00 103.77
  Q 320.97 77.46 319.53 51.20
  Q 319.50 50.63 320.06 50.70
  Q 335.73 52.71 351.37 50.59
  A 0.14 0.13 -3.4 0 1 351.53 50.73
  Q 348.59 117.44 351.49 184.15
  Q 351.50 184.56 351.09 184.56
  L 319.91 184.58
  Q 319.53 184.58 319.55 184.20
  Q 321.26 152.47 320.97 120.69
  Q 320.96 120.11 320.38 120.09
  Q 311.89 119.90 303.48 119.58
  C 289.12 119.05 276.09 119.29 262.39 120.12
  Q 261.85 120.15 261.84 120.70
  Q 261.63 152.44 263.28 184.14
  Q 263.30 184.58 262.86 184.58
  L 231.67 184.57
  Q 231.34 184.57 231.35 184.23
  Q 234.29 117.73 231.33 51.23
  Q 231.31 50.71 231.82 50.77
  Q 242.66 51.95 253.56 51.54
  C 256.22 51.44 259.64 50.87 262.73 50.66
  Q 263.31 50.62 263.27 51.20
  Q 261.52 77.49 261.88 103.84
  Q 261.88 104.29 262.34 104.31
  Q 291.41 105.22 320.48 104.30
  Q 321.00 104.29 321.00 103.77
  Z"
/>
<path fill="#005696" d="
  M 534.27 170.77
  Q 556.21 170.72 578.01 168.25
  A 0.43 0.43 0.0 0 1 578.48 168.76
  Q 576.93 176.50 578.36 184.26
  Q 578.45 184.75 577.95 184.75
  Q 542.28 184.31 506.60 184.57
  C 505.85 184.58 504.73 184.84 503.79 184.81
  Q 503.27 184.80 503.30 184.29
  Q 505.15 141.40 504.62 98.49
  C 504.43 83.12 503.45 66.98 502.79 51.22
  Q 502.76 50.70 503.29 50.75
  Q 514.18 51.99 525.08 51.54
  C 527.69 51.43 531.08 50.90 534.13 50.65
  Q 534.68 50.61 534.66 51.16
  Q 532.36 110.70 533.76 170.27
  Q 533.77 170.77 534.27 170.77
  Z"
/>
<path fill="#005696" d="
  M 624.49 124.94
  Q 624.29 149.30 625.16 174.25
  Q 625.26 177.01 626.00 184.36
  Q 626.05 184.79 625.61 184.79
  L 594.46 184.80
  Q 594.13 184.80 594.14 184.47
  Q 597.05 117.90 594.12 51.34
  Q 594.10 50.85 594.58 50.91
  Q 610.05 52.91 625.51 50.84
  Q 626.04 50.77 625.98 51.30
  C 623.98 71.47 624.54 92.16 624.64 112.37
  Q 624.65 112.99 625.05 112.52
  Q 650.41 82.50 673.97 51.05
  Q 674.30 50.61 674.83 50.71
  Q 685.27 52.63 695.68 50.60
  Q 696.72 50.39 695.99 51.17
  Q 670.64 78.30 646.65 106.65
  Q 646.53 106.79 646.63 106.95
  C 663.82 133.03 680.69 159.51 699.27 184.63
  A 0.13 0.13 0.0 0 1 699.15 184.84
  Q 681.66 184.10 664.16 184.82
  Q 663.60 184.84 663.30 184.37
  L 625.22 124.73
  Q 624.50 123.61 624.49 124.94
  Z"
/>
<path fill="#005696" d="
  M 1054.03 142.53
  C 1054.27 112.20 1054.63 81.44 1052.76 51.16
  Q 1052.73 50.61 1053.26 50.72
  Q 1061.38 52.47 1069.50 50.61
  A 0.55 0.54 -4.8 0 1 1070.17 51.17
  Q 1068.12 87.89 1067.16 124.75
  C 1066.65 144.55 1066.94 164.45 1066.93 184.28
  A 0.23 0.22 2.4 0 1 1066.68 184.50
  Q 1059.36 183.72 1052.02 184.47
  Q 1051.50 184.52 1051.15 184.12
  Q 1010.06 136.41 966.67 90.77
  A 0.31 0.31 0.0 0 0 966.13 90.98
  C 965.37 129.75 965.25 155.47 966.97 184.08
  Q 967.00 184.60 966.48 184.56
  Q 957.99 183.93 949.51 184.70
  Q 949.02 184.74 949.07 184.25
  Q 949.62 178.96 949.90 173.75
  C 952.22 130.26 953.55 92.29 951.91 51.02
  Q 951.88 50.37 952.51 50.51
  Q 960.66 52.25 968.78 50.41
  Q 969.33 50.29 969.71 50.70
  L 1053.40 142.77
  Q 1054.02 143.46 1054.03 142.53
  Z"
/>
<path fill="#005696" d="
  M 1125.79 112.31
  Q 1151.09 82.38 1174.58 50.99
  A 0.71 0.70 -65.9 0 1 1175.29 50.71
  Q 1185.66 52.65 1196.01 50.59
  Q 1197.09 50.38 1196.34 51.18
  Q 1171.15 78.14 1147.30 106.30
  Q 1146.95 106.72 1147.24 107.18
  Q 1169.26 141.28 1192.27 174.67
  C 1194.56 177.99 1197.19 181.27 1199.68 184.52
  A 0.20 0.20 0.0 0 1 1199.51 184.84
  Q 1182.02 184.10 1164.53 184.82
  Q 1163.96 184.84 1163.65 184.36
  L 1125.64 124.82
  Q 1124.71 123.37 1124.72 125.09
  C 1124.74 144.57 1124.84 164.60 1126.55 184.34
  Q 1126.59 184.79 1126.13 184.79
  L 1095.15 184.80
  Q 1094.71 184.80 1094.73 184.36
  Q 1097.58 117.90 1094.71 51.44
  Q 1094.68 50.85 1095.27 50.92
  Q 1110.65 52.90 1126.01 50.84
  Q 1126.60 50.77 1126.54 51.35
  C 1124.49 71.38 1125.16 92.02 1125.24 112.11
  Q 1125.25 112.95 1125.79 112.31
  Z"
/>
<path fill="#005696" d="
  M 768.69 113.45
  Q 768.76 113.57 768.84 113.70
  Q 768.90 113.80 769.03 113.82
  C 790.71 116.86 807.51 130.40 803.17 154.46
  C 800.56 168.89 790.37 179.61 775.99 183.07
  C 764.16 185.92 750.00 185.01 737.50 184.53
  Q 729.20 184.21 710.77 184.78
  Q 710.25 184.79 710.28 184.27
  Q 712.21 141.39 711.57 98.49
  C 711.34 83.37 710.15 67.08 709.60 51.34
  Q 709.58 50.82 710.10 50.89
  C 722.81 52.68 736.47 51.83 749.25 51.11
  C 761.93 50.38 778.30 49.99 789.17 57.87
  C 802.17 67.29 803.78 87.79 793.32 100.09
  C 787.34 107.12 777.77 111.87 768.71 113.40
  A 0.03 0.03 0.0 0 0 768.69 113.45
  Z
  M 764.85 103.10
  C 770.99 96.79 772.86 87.13 770.96 78.53
  C 767.52 62.99 755.73 60.38 741.74 62.47
  Q 741.26 62.54 741.23 63.03
  Q 739.81 85.88 740.59 108.75
  Q 740.61 109.29 741.14 109.32
  C 750.05 109.89 758.70 109.41 764.85 103.10
  Z
  M 740.35 122.37
  L 740.53 172.65
  A 1.86 1.86 0.0 0 0 742.39 174.50
  L 750.86 174.47
  A 23.77 22.09 89.8 0 0 772.87 150.62
  L 772.85 144.16
  A 23.77 22.09 89.8 0 0 750.68 120.47
  L 742.21 120.50
  A 1.86 1.86 0.0 0 0 740.35 122.37
  Z"
/>
<path fill="#005696" d="
  M 86.27 75.49
  L 105.53 75.49
  A 0.34 0.34 0.0 0 0 105.87 75.15
  L 105.87 62.95
  A 0.34 0.34 0.0 0 1 106.21 62.61
  L 112.16 62.62
  A 0.34 0.34 0.0 0 1 112.50 62.96
  L 112.50 81.79
  A 0.34 0.34 0.0 0 1 112.16 82.13
  L 79.62 82.13
  A 0.34 0.34 0.0 0 1 79.28 81.79
  L 79.28 62.96
  A 0.34 0.34 0.0 0 1 79.62 62.62
  L 85.60 62.61
  A 0.34 0.34 0.0 0 1 85.94 62.95
  L 85.93 75.15
  A 0.34 0.34 0.0 0 0 86.27 75.49
  Z"
/>
<path fill="#005696" d="
  M 0.00 62.75
  L 6.03 62.84
  Q 6.63 62.85 6.63 63.45
  L 6.63 173.78
  Q 6.63 174.33 6.08 174.32
  L 0.00 174.26
  L 0.00 62.75
  Z"
/>
<rect fill="#005696" x="185.78" y="62.79" width="6.66" height="111.60" rx="0.38"/>
<path fill="#005696" d="
  M 59.53 135.26
  L 59.53 213.19
  A 0.32 0.32 0.0 0 1 59.21 213.51
  L 53.29 213.51
  A 0.32 0.32 0.0 0 1 52.97 213.19
  L 52.97 128.43
  A 0.32 0.32 0.0 0 1 53.29 128.11
  L 138.71 128.04
  A 0.32 0.32 0.0 0 1 139.03 128.36
  L 139.03 212.94
  A 0.32 0.32 0.0 0 1 138.71 213.26
  L 132.79 213.25
  A 0.32 0.32 0.0 0 1 132.47 212.93
  L 132.47 135.26
  A 0.32 0.32 0.0 0 0 132.15 134.94
  L 59.85 134.94
  A 0.32 0.32 0.0 0 0 59.53 135.26
  Z"
/>
<path fill="#005696" d="
  M 72.81 148.61
  L 72.82 193.39
  A 0.35 0.35 0.0 0 1 72.47 193.74
  L 66.59 193.74
  A 0.35 0.35 0.0 0 1 66.24 193.39
  L 66.24 141.80
  A 0.35 0.35 0.0 0 1 66.59 141.45
  L 125.41 141.43
  A 0.35 0.35 0.0 0 1 125.76 141.78
  L 125.76 193.16
  A 0.35 0.35 0.0 0 1 125.41 193.51
  L 119.54 193.51
  A 0.35 0.35 0.0 0 1 119.19 193.16
  L 119.19 148.61
  A 0.35 0.35 0.0 0 0 118.84 148.26
  L 73.16 148.26
  A 0.35 0.35 0.0 0 0 72.81 148.61
  Z"
/>
<path fill="#005696" d="
  M 86.13 161.27
  L 86.13 173.44
  A 0.33 0.33 0.0 0 1 85.80 173.77
  L 79.83 173.77
  A 0.33 0.33 0.0 0 1 79.50 173.44
  L 79.50 154.65
  A 0.33 0.33 0.0 0 1 79.83 154.32
  L 112.40 154.23
  A 0.33 0.33 0.0 0 1 112.73 154.56
  L 112.72 173.44
  A 0.33 0.33 0.0 0 1 112.39 173.77
  L 106.40 173.78
  A 0.33 0.33 0.0 0 1 106.07 173.45
  L 106.06 161.27
  A 0.33 0.33 0.0 0 0 105.73 160.94
  L 86.46 160.94
  A 0.33 0.33 0.0 0 0 86.13 161.27
  Z"
/>
</svg>
