<?xml version="1.0" encoding="utf-8" ?>
<svg xmlns="http://www.w3.org/2000/svg" xmlns:xlink="http://www.w3.org/1999/xlink" width="300" height="100">
	<path fill="#FE6000" d="M160.04 17.8746C161.037 17.6908 161.943 17.615 162.94 17.852C164.711 18.2726 165.855 19.2958 166.788 20.8222C167.094 21.1589 167.187 21.5126 167.29 21.9455C167.639 23.4007 167.502 24.6507 166.695 25.9415C165.752 27.4501 164.509 28.3267 162.791 28.7324C161.863 29.1382 160.423 28.8988 159.51 28.5679C158.186 28.0876 157.177 27.0452 156.606 25.771C155.952 24.313 155.858 22.6899 156.442 21.1919C157.158 19.3567 158.334 18.6257 160.04 17.8746Z"/>
	<path fill="#7821DC" d="M264.688 31.625C266.981 31.5734 269.27 31.5176 271.564 31.5627C272.379 33.0108 271.614 47.7922 271.745 50.8041C271.874 53.7802 272.726 56.8293 274.994 58.8953C277.703 61.3628 281.21 61.3713 284.662 61.2018C284.94 61.6539 285 62.0321 285.038 62.5544C285.167 64.3476 285.663 68.3981 284.393 69.7861C283.845 70.3842 283.19 70.2828 282.437 70.3358C279.755 70.2597 277.194 69.9174 274.708 68.8669Q274.264 68.6756 273.83 68.4626Q273.396 68.2496 272.973 68.0154Q272.55 67.7813 272.139 67.5266Q271.728 67.2719 271.33 66.9973Q270.933 66.7227 270.549 66.4287Q270.165 66.1348 269.796 65.8223Q269.427 65.5099 269.074 65.1796Q268.721 64.8493 268.385 64.502Q268.049 64.1548 267.73 63.7913Q267.411 63.4279 267.11 63.0492Q266.81 62.6705 266.529 62.2774Q266.247 61.8844 265.985 61.4779Q265.724 61.0715 265.482 60.6526Q265.241 60.2337 265.02 59.8035Q264.8 59.3732 264.601 58.9327Q264.402 58.4921 264.225 58.0422Q263.218 55.5984 262.909 52.9734C262.657 50.7382 262.277 33.3917 262.794 32.1751C263.313 31.6436 263.991 31.6735 264.688 31.625Z"/>
	<path fill="#FE6000" d="M156.761 31.6245C159.141 31.3054 164.042 31.5889 166.692 31.5961C166.7 31.6134 166.707 31.6307 166.715 31.6482C167.25 32.9456 167.3 68.928 166.863 69.9424C166.819 70.0452 166.159 70.2521 166.013 70.308Q161.086 70.4488 156.158 70.527C156.922 69.2466 156.475 45.2994 156.445 41.5C156.422 38.5523 155.807 34.3778 156.761 31.6245Z"/>
	<path fill="#7821DC" d="M290.782 31.6101Q295.176 31.5366 299.565 31.7453C299.819 32.1389 299.938 32.5194 299.967 32.9867C300.409 40.1301 300.017 47.5578 300.013 54.7282C300.011 57.4882 300.405 63.1917 299.917 65.5657Q299.842 65.9176 299.671 66.2345C299.52 69.5301 296.927 73.5563 294.745 75.9002C287.4 83.7901 276.984 81.9889 267.311 82.3385C267.381 82.219 267.445 82.0883 267.489 81.9567C267.837 80.9103 267.681 74.136 267.249 73.2699C271.851 73.3126 279.761 74.0384 283.919 72.4376C286.737 71.3522 288.856 69.5196 290.083 66.7396C290.712 65.3156 291.028 63.7914 291.155 62.245C291.414 59.0863 291.501 33.4607 290.782 31.6101Z"/>
	<path fill="#7821DC" d="M235.228 30.3747Q236.064 30.2734 236.906 30.2433Q237.747 30.2131 238.589 30.2543Q239.43 30.2955 240.264 30.4076Q241.099 30.5198 241.921 30.7023Q242.743 30.8847 243.547 31.136Q244.351 31.3874 245.131 31.7058Q245.91 32.0243 246.66 32.4076Q247.41 32.7908 248.125 33.2362C252.521 36.0105 255.989 40.7875 257.127 45.8722C257.695 48.41 258.351 68.9106 257.316 70.547C254.309 70.452 251.281 70.5081 248.271 70.4936C248.931 69.3089 248.618 55.3531 248.641 52.9072C248.679 48.8342 248.479 45.4081 245.463 42.3504C243.445 40.3051 240.64 39.0293 237.753 39.0197C233.91 39.0069 231.493 40.7836 228.862 43.3823C228.884 44.5103 227.458 46.151 227.126 47.3263C226.345 50.0889 226.637 53.306 228.039 55.8153C229.637 58.6755 232.958 61.2448 236.301 61.5254C238.196 61.6845 240.095 61.4142 241.956 61.9511L242.018 61.9696C242.256 62.3017 242.39 62.633 242.465 63.0319C242.773 64.6639 243.213 69.2689 242.258 70.6547C240.972 70.4616 239.568 70.5225 238.264 70.4574C234.023 70.2458 230.376 69.3747 226.786 67.0447C222.627 64.3455 219.452 59.975 218.431 55.0975C217.29 49.6409 218.175 43.8014 221.254 39.1266C224.633 33.9964 229.365 31.5862 235.228 30.3747Z"/>
	<path fill="#FE6000" d="M133.233 30.6246C134.829 30.5059 136.384 30.5891 137.973 30.7666C142.32 31.2521 146.632 32.683 149.443 36.2284C150.915 38.0856 152.157 41.4023 151.887 43.7815C148.637 44.1411 144.976 43.8125 141.694 43.7288C141.613 42.5972 140.872 41.0342 140.109 40.2213C138.97 39.0088 137.414 38.5822 135.798 38.524C133.864 38.4542 131.581 38.7692 130.124 40.1499C129.531 40.7117 128.957 41.5037 128.954 42.3571C128.949 43.3338 129.772 43.9562 130.577 44.3325C131.787 44.8987 133.249 45.0729 134.549 45.385C139.739 46.6313 146.102 47.591 150.042 51.4797C152.024 53.4357 153.018 56.0775 153.036 58.8464C153.055 61.9699 151.762 64.9071 149.569 67.1134C145.866 70.8388 140.217 71.701 135.187 71.7227C131.211 71.7195 126.739 70.8927 123.377 68.7007C120.238 66.6533 118.324 63.5934 117.565 59.9444C117.44 59.3453 117.31 58.7209 117.668 58.1787C119.648 57.0257 125.067 57.8212 127.404 57.993C127.475 58.0504 127.543 58.1081 127.607 58.173C128.34 58.9145 129.135 60.8661 129.121 61.9024C132.323 63.4762 135.644 63.9706 139.2 63.4541C140.163 63.3142 141.518 62.5594 142.094 61.7745C142.494 61.2298 142.726 60.4941 142.607 59.82C142.41 58.7035 141.436 57.9919 140.483 57.5174C135.202 54.8858 128.009 55.2502 122.611 51.5248C120.655 50.1757 119.194 48.3025 118.767 45.9279C118.187 42.7016 119.28 39.0271 121.136 36.3799C124.084 32.1755 128.508 31.4465 133.233 30.6246Z"/>
	<path fill="#7821DC" d="M190.605 30.3744C191.351 30.2699 192.106 30.224 192.858 30.1971C198.4 29.9988 203.358 31.9284 207.397 35.7018C211.109 39.17 213.333 44.4807 213.497 49.5271Q213.531 50.51 213.469 51.4915Q213.407 52.4729 213.249 53.4437Q213.092 54.4145 212.841 55.3653Q212.59 56.3162 212.247 57.238Q211.904 58.1599 211.474 59.044Q211.043 59.9281 210.528 60.766Q210.013 61.604 209.419 62.3878Q208.825 63.1716 208.158 63.8939C202.767 69.6384 195.607 70.1463 188.249 70.3673C188.61 69.6668 188.952 62.7045 188.715 61.7814C191.659 61.1599 194.818 61.5336 197.664 60.5154C200.278 59.5802 202.366 57.3484 203.536 54.8759C204.844 52.1118 204.962 49.0908 203.93 46.2146C203.172 44.0994 201.642 41.9832 199.568 41.0095C199.513 40.9015 199.452 40.7968 199.371 40.7051C198.6 39.8239 196.048 39.108 194.911 38.9936C192.084 38.7091 189.039 39.5122 186.834 41.322Q186.18 41.8621 185.615 42.4953Q185.05 43.1286 184.588 43.8404Q184.126 44.5523 183.778 45.326Q183.43 46.0998 183.203 46.9175C181.99 51.2336 182.591 67.4112 182.65 72.9274C182.671 74.8939 182.89 77.0917 182.656 79.0392C182.636 79.2117 182.528 79.7753 182.39 79.8774C181.083 80.8447 175.899 80.3597 174.173 80.1257C173.792 79.75 173.635 79.6026 173.517 79.0781C173.179 77.5784 173.559 49.3376 173.886 47.3243C174.348 44.4677 175.376 41.6238 176.927 39.1759C180.209 33.9959 184.782 31.6872 190.605 30.3744Z"/>
	<path fill="#FE6000" d="M0 17.908C1.54403 17.8517 9.05375 17.0689 9.75663 17.7224C10.4867 18.4012 10.5099 20.3693 10.5223 21.3397C10.5812 25.9264 10.5519 30.6364 9.88381 35.1763C13.2111 31.9928 16.8584 30.6409 21.4734 30.7449C25.2526 30.8301 28.9722 32.0253 31.6277 34.824C32.8883 36.1525 33.6515 37.634 34.0756 39.4072C35.4095 44.9845 34.7898 51.4284 34.7569 57.1503C34.7318 61.5172 34.8379 65.8688 34.8864 70.2341Q29.5144 70.5504 24.1343 70.6606C23.8313 64.9131 24.0615 59.0814 24.0748 53.3239C24.0812 50.58 24.2078 47.685 23.8301 44.965C23.6388 43.5871 23.222 41.4666 22.1586 40.4982C21.0475 39.4863 18.7628 39.2546 17.2888 39.3391C15.4502 39.4446 13.9838 40.0108 12.7395 41.4112C11.7002 42.5809 11.0457 44.0452 10.7247 45.5685C10.2137 47.9931 10.3976 50.6117 10.4202 53.0776C10.4723 58.7364 10.9379 64.6654 10.4351 70.295C6.9685 70.5752 3.47495 70.4357 0 70.4469L0 17.908Z"/>
	<path fill="#FE6000" d="M53.861 30.9034C54.4437 30.8146 55.0355 30.7427 55.6248 30.7203C60.6361 30.5298 65.7901 31.7252 69.555 35.1937C75.026 40.234 75.6519 47.0202 75.9281 54.0132Q61.6702 53.9698 47.4125 54.0855C48.1867 56.2513 48.4946 58.9918 50.1642 60.7011C51.879 62.4566 54.7141 63.2336 57.1048 63.2701C59.8518 63.3121 61.3527 62.4434 63.2963 60.5677C65.8566 58.0967 69.2752 58.7694 72.5625 58.8313L75.2795 58.7603C74.5266 61.0887 73.6763 63.2018 72.0998 65.1135C68.7919 69.1247 64.2377 71.0979 59.1393 71.5811C53.8298 72.0844 47.7788 70.6113 43.6241 67.1635C39.622 63.8423 37.7895 59.3499 37.3189 54.2473C36.7847 48.4543 37.9159 41.5062 41.7434 36.9254C44.7294 33.3517 49.2614 31.3205 53.861 30.9034ZM54.7924 39.3521C52.8253 39.6284 51.3242 40.4831 50.1126 42.0831C48.9432 43.6274 48.2954 45.4913 47.7016 47.3162C51.3248 47.0155 55.0091 47.1517 58.6432 47.1694C60.7949 47.1339 62.9842 47.0148 65.1294 47.2082C64.4533 44.5127 63.729 41.9594 61.1804 40.427C59.2381 39.2592 56.9884 39.155 54.7924 39.3521Z"/>
	<path fill="#FE6000" d="M97.2865 31.0322C98.6606 30.9191 100.113 30.8866 101.487 30.9833C105.615 31.2741 109.293 33.5335 111.959 36.6148C115.991 41.274 116.394 48.3036 115.96 54.1857C115.58 59.3459 113.741 64.3508 109.732 67.7881C106.725 70.3666 102.544 71.791 98.5824 71.4803C94.2925 71.1439 91.3073 68.8794 88.6107 65.7088C88.9213 69.2156 88.8914 72.7929 88.9541 76.3125L88.9969 84.2298Q83.7822 84.5345 78.559 84.4748C78.2312 81.7026 78.4204 78.728 78.4297 75.9359L78.4857 60.875L78.4975 43.7098C78.4768 39.867 78.2608 35.9841 78.5885 32.1516C80.381 31.2099 86.3335 31.5585 88.4426 31.8272C88.6186 33.8484 88.3932 35.6249 88.0239 37.6172C90.6154 34.1493 93.0287 32.1142 97.2865 31.0322ZM95.1805 40.0412C93.0615 40.5146 91.6378 41.5635 90.4765 43.3865C88.4003 46.6459 88.1132 52.4289 88.9339 56.1322C89.4229 58.339 90.7115 60.3681 92.6383 61.5878C94.6062 62.8337 96.8327 62.9067 99.0818 62.6362C101.174 62.0273 102.647 60.5394 103.676 58.6577C105.567 55.2019 105.836 50.0221 104.74 46.2846C104.087 44.0595 102.827 41.9185 100.736 40.7787C98.9081 39.7824 97.1756 39.9232 95.1805 40.0412Z"/>
</svg>
