<?xml version="1.0" encoding="UTF-8" standalone="no"?>
<!DOCTYPE svg PUBLIC "-//W3C//DTD SVG 1.1//EN" "http://www.w3.org/Graphics/SVG/1.1/DTD/svg11.dtd">
<svg xmlns="http://www.w3.org/2000/svg" version="1.1" viewBox="0.00 0.00 2560.00 803.00">
<path fill="#00559f" d="
  M 1285.12 0.00
  L 1290.25 0.00
  C 1315.53 2.16 1333.67 23.57 1331.24 48.50
  Q 1330.00 61.20 1322.12 71.00
  C 1299.96 98.56 1256.32 90.71 1245.61 57.06
  C 1236.78 29.29 1256.74 2.50 1285.12 0.00
  Z"
/>
<path fill="#00559f" d="
  M 1288.95 803.00
  L 1277.67 803.00
  C 1280.88 790.32 1285.86 773.81 1271.53 768.04
  C 1236.84 754.07 1236.39 709.25 1268.16 692.14
  Q 1268.87 691.75 1268.07 691.60
  C 1254.23 688.99 1240.98 684.50 1227.88 679.24
  Q 1218.84 675.61 1213.46 673.77
  C 1197.71 668.40 1178.05 660.24 1161.34 665.93
  C 1152.21 669.04 1146.39 675.50 1140.82 683.35
  Q 1140.52 683.77 1140.00 683.77
  L 1132.00 683.77
  Q 1131.47 683.77 1131.47 683.25
  L 1131.48 548.22
  Q 1131.48 547.86 1131.83 547.86
  L 1141.53 547.88
  Q 1142.09 547.88 1142.24 548.43
  C 1149.04 574.06 1161.07 597.14 1178.28 617.85
  Q 1184.76 625.65 1192.36 632.01
  C 1230.09 663.55 1278.84 679.30 1327.95 671.01
  Q 1338.09 669.30 1347.13 665.54
  C 1379.82 651.94 1406.11 625.11 1408.42 588.09
  C 1411.08 545.42 1381.02 511.88 1346.37 491.98
  Q 1336.09 486.07 1325.74 480.23
  A 0.25 0.24 -74.7 0 0 1325.38 480.44
  Q 1325.24 530.55 1325.69 580.74
  Q 1325.87 600.39 1344.47 605.45
  Q 1349.46 606.81 1354.29 608.24
  Q 1354.80 608.40 1354.80 608.94
  L 1354.82 618.48
  Q 1354.82 619.03 1354.27 619.03
  L 1220.77 619.03
  Q 1220.25 619.03 1220.25 618.52
  L 1220.25 608.77
  Q 1220.25 608.28 1220.73 608.17
  Q 1231.85 605.41 1234.75 604.24
  C 1247.46 599.11 1249.63 588.30 1249.65 576.00
  Q 1249.75 507.13 1249.76 438.35
  A 0.93 0.92 -76.2 0 0 1249.27 437.53
  C 1226.66 425.21 1203.45 413.77 1182.44 397.81
  C 1151.24 374.13 1128.42 347.48 1124.06 307.12
  C 1115.75 230.14 1174.44 169.98 1249.10 163.63
  Q 1249.58 163.59 1249.60 163.11
  Q 1250.22 148.10 1249.01 138.27
  C 1247.09 122.68 1234.75 119.42 1220.73 116.08
  Q 1220.25 115.97 1220.25 115.48
  L 1220.25 105.74
  Q 1220.25 105.23 1220.76 105.23
  L 1354.26 105.23
  Q 1354.80 105.23 1354.80 105.76
  L 1354.83 115.40
  Q 1354.83 115.92 1354.33 116.06
  Q 1349.49 117.46 1344.60 118.60
  C 1328.26 122.42 1325.47 134.78 1325.46 149.50
  Q 1325.33 257.60 1325.32 365.61
  Q 1325.32 366.12 1324.88 365.88
  L 1250.11 324.61
  Q 1249.74 324.41 1249.74 323.98
  L 1249.74 184.51
  Q 1249.74 184.06 1249.28 184.07
  Q 1244.73 184.24 1239.26 185.34
  C 1220.01 189.22 1201.63 198.11 1188.12 212.59
  C 1163.67 238.80 1167.76 278.87 1191.86 303.40
  Q 1208.42 320.25 1230.61 333.37
  Q 1263.45 352.80 1296.95 371.08
  C 1333.34 390.95 1357.28 403.49 1381.23 418.24
  Q 1391.39 424.49 1397.77 429.46
  C 1444.92 466.19 1474.75 517.47 1462.22 578.42
  Q 1460.19 588.32 1456.41 597.52
  C 1441.94 632.70 1413.74 661.24 1379.44 676.92
  C 1358.80 686.36 1335.78 693.16 1312.73 694.56
  Q 1312.02 694.60 1312.61 695.02
  C 1330.75 707.66 1336.38 731.68 1325.09 750.76
  C 1322.60 754.97 1318.77 760.31 1315.66 765.42
  Q 1303.66 785.13 1288.95 803.00
  Z"
/>
<path fill="#00559f" d="
  M 1344.65 175.66
  C 1362.37 182.10 1375.77 190.73 1393.23 186.93
  C 1402.25 184.97 1405.96 178.84 1410.58 171.35
  Q 1410.81 170.97 1411.26 170.97
  L 1420.19 170.97
  A 0.47 0.47 0.0 0 1 1420.66 171.44
  L 1420.65 298.25
  A 0.41 0.40 90.0 0 1 1420.25 298.66
  L 1409.53 298.68
  Q 1409.08 298.68 1409.01 298.23
  C 1407.35 287.80 1405.63 276.81 1402.03 266.87
  C 1391.36 237.40 1371.61 211.96 1344.67 195.68
  Q 1344.15 195.37 1344.15 194.75
  L 1344.16 176.00
  Q 1344.16 175.49 1344.65 175.66
  Z"
/>
<circle fill="#00559f" cx="208.29" cy="301.32" r="20.13"/>
<circle fill="#00559f" cx="263.75" cy="301.32" r="20.13"/>
<circle fill="#00559f" cx="710.11" cy="301.62" r="20.13"/>
<path fill="#00559f" d="
  M 2464.68 375.52
  C 2452.65 364.64 2437.26 358.68 2420.67 359.73
  C 2414.27 360.14 2407.26 361.17 2402.73 364.93
  C 2395.87 370.64 2397.10 380.70 2405.29 384.45
  Q 2411.18 387.15 2417.51 388.69
  C 2447.96 396.07 2498.38 399.98 2494.77 445.26
  C 2492.73 471.00 2473.33 484.36 2449.80 488.65
  C 2417.65 494.52 2376.77 489.81 2354.30 462.82
  A 0.47 0.46 -38.7 0 1 2354.38 462.15
  L 2379.60 442.63
  Q 2379.98 442.34 2380.33 442.67
  C 2393.67 455.46 2409.55 460.25 2427.65 460.28
  C 2441.49 460.30 2460.90 457.73 2456.96 438.26
  C 2455.40 430.53 2436.84 426.14 2430.08 424.66
  C 2406.47 419.51 2368.36 415.10 2362.13 386.13
  C 2355.38 354.75 2379.15 335.85 2406.85 330.91
  C 2437.27 325.47 2467.78 332.55 2490.77 353.70
  A 0.22 0.22 0.0 0 1 2490.76 354.03
  L 2465.27 375.53
  A 0.45 0.45 0.0 0 1 2464.68 375.52
  Z"
/>
<path fill="#00559f" d="
  M 550.51 400.40
  Q 553.12 397.37 556.02 394.25
  Q 584.99 363.07 614.23 332.05
  Q 614.55 331.71 615.02 331.71
  L 657.69 331.70
  A 0.18 0.18 0.0 0 1 657.82 332.00
  L 605.49 385.72
  A 0.22 0.22 0.0 0 0 605.46 386.01
  L 671.24 488.01
  A 0.30 0.30 0.0 0 1 670.99 488.47
  L 628.51 488.47
  A 0.38 0.37 -16.7 0 1 628.20 488.31
  L 579.71 413.27
  Q 579.37 412.74 578.92 413.19
  L 550.84 441.95
  A 1.21 1.20 67.2 0 0 550.50 442.79
  L 550.50 488.00
  A 0.50 0.49 -0.0 0 1 550.00 488.49
  L 514.98 488.48
  A 0.50 0.50 0.0 0 1 514.48 487.98
  L 514.46 332.25
  Q 514.46 331.72 515.00 331.72
  L 550.03 331.70
  Q 550.61 331.70 550.60 332.28
  L 550.25 400.30
  Q 550.24 400.71 550.51 400.40
  Z"
/>
<path fill="#00559f" d="
  M 831.00 398.96
  C 842.02 380.51 855.13 361.19 875.60 332.07
  Q 875.85 331.71 876.30 331.71
  L 915.97 331.71
  Q 916.56 331.71 916.21 332.19
  L 848.70 425.95
  A 1.73 1.72 -27.5 0 0 848.38 426.95
  L 848.38 487.80
  Q 848.38 488.48 847.70 488.48
  L 813.29 488.48
  Q 812.35 488.48 812.35 487.54
  L 812.35 427.53
  Q 812.35 427.09 812.09 426.72
  L 744.33 331.97
  A 0.17 0.17 0.0 0 1 744.47 331.70
  L 785.24 331.71
  Q 785.52 331.71 785.68 331.94
  C 800.93 354.03 816.33 376.01 830.25 398.97
  Q 830.63 399.59 831.00 398.96
  Z"
/>
<path fill="#00559f" d="
  M 0.00 331.70
  L 139.14 331.70
  A 0.45 0.44 90.0 0 1 139.58 332.15
  L 139.58 362.03
  Q 139.58 362.63 138.98 362.63
  L 88.24 362.56
  Q 87.80 362.56 87.80 363.01
  L 87.80 487.96
  Q 87.80 488.47 87.29 488.47
  L 52.00 488.47
  A 0.23 0.22 0.0 0 1 51.77 488.25
  L 51.77 363.03
  Q 51.77 362.53 51.28 362.53
  L 0.00 362.51
  L 0.00 331.70
  Z"
/>
<path fill="#00559f" d="
  M 239.75 460.11
  C 262.01 458.09 272.79 440.51 272.76 419.74
  Q 272.72 376.03 272.71 332.25
  Q 272.71 331.71 273.26 331.71
  L 308.23 331.71
  Q 308.73 331.71 308.73 332.21
  Q 308.78 376.00 308.78 419.74
  C 308.77 454.73 290.99 482.08 255.74 488.93
  C 221.47 495.60 182.35 486.03 168.29 450.76
  C 163.62 439.03 162.81 428.41 162.79 414.23
  Q 162.70 373.22 162.78 332.21
  Q 162.78 331.71 163.28 331.71
  L 198.24 331.71
  Q 198.79 331.71 198.79 332.26
  Q 198.75 375.90 198.57 419.49
  Q 198.51 434.52 206.02 445.95
  C 213.04 456.63 226.87 461.28 239.75 460.11
  Z"
/>
<path fill="#00559f" d="
  M 376.93 432.53
  L 376.94 488.02
  Q 376.94 488.47 376.48 488.47
  L 341.45 488.47
  A 0.53 0.52 0.0 0 1 340.92 487.95
  L 340.91 331.88
  Q 340.91 331.73 341.07 331.73
  Q 384.97 331.64 428.74 331.77
  C 443.43 331.82 460.81 336.99 471.80 346.60
  C 486.56 359.51 490.22 380.65 484.21 398.97
  C 479.54 413.21 466.77 422.86 452.85 427.27
  A 0.43 0.43 0.0 0 0 452.60 427.90
  L 486.68 488.10
  A 0.25 0.25 0.0 0 1 486.46 488.47
  L 446.01 488.47
  Q 445.47 488.47 445.20 488.01
  L 413.53 432.47
  Q 413.25 432.00 412.71 432.00
  L 377.47 432.00
  Q 376.93 432.00 376.93 432.53
  Z
  M 376.87 362.37
  L 376.93 402.19
  A 0.26 0.26 0.0 0 0 377.20 402.45
  L 428.45 402.36
  A 21.37 18.38 -0.1 0 0 449.78 383.95
  L 449.78 380.37
  A 21.37 18.38 -0.1 0 0 428.37 362.02
  L 377.12 362.11
  A 0.26 0.26 0.0 0 0 376.87 362.37
  Z"
/>
<rect fill="#00559f" x="692.09" y="331.71" width="36.04" height="156.76" rx="0.26"/>
<path fill="#00559f" d="
  M 966.01 420.29
  L 966.01 457.40
  A 0.35 0.35 0.0 0 0 966.36 457.75
  L 1058.65 457.75
  A 0.35 0.35 0.0 0 1 1059.00 458.10
  L 1059.00 488.04
  A 0.35 0.35 0.0 0 1 1058.65 488.39
  L 930.35 488.38
  A 0.35 0.35 0.0 0 1 930.00 488.03
  L 930.00 332.06
  A 0.35 0.35 0.0 0 1 930.35 331.71
  L 1054.81 331.71
  A 0.35 0.35 0.0 0 1 1055.16 332.06
  L 1055.16 361.94
  A 0.35 0.35 0.0 0 1 1054.81 362.29
  L 966.36 362.29
  A 0.35 0.35 0.0 0 0 966.01 362.64
  L 966.01 389.13
  A 0.35 0.35 0.0 0 0 966.36 389.48
  L 1017.44 389.48
  A 0.35 0.35 0.0 0 1 1017.79 389.83
  L 1017.79 419.59
  A 0.35 0.35 0.0 0 1 1017.44 419.94
  L 966.36 419.94
  A 0.35 0.35 0.0 0 0 966.01 420.29
  Z"
/>
<path fill="#00559f" d="
  M 1641.51 403.77
  C 1657.85 410.35 1667.71 423.92 1666.00 442.00
  C 1662.71 476.80 1633.18 488.29 1602.75 488.40
  Q 1561.61 488.54 1520.44 488.47
  Q 1520.21 488.47 1520.21 488.24
  L 1520.21 332.02
  Q 1520.21 331.72 1520.51 331.72
  Q 1564.47 331.67 1608.50 331.74
  Q 1615.01 331.75 1625.44 334.11
  C 1641.29 337.68 1655.22 347.15 1659.00 363.70
  C 1662.72 380.04 1656.49 394.96 1641.47 403.23
  A 0.30 0.30 0.0 0 0 1641.51 403.77
  Z
  M 1555.51 361.08
  L 1555.46 389.72
  A 0.59 0.59 0.0 0 0 1556.04 390.31
  L 1605.80 390.40
  A 17.61 13.32 0.1 0 0 1623.44 377.11
  L 1623.44 373.93
  A 17.61 13.32 0.1 0 0 1605.86 360.58
  L 1556.10 360.49
  A 0.59 0.59 0.0 0 0 1555.51 361.08
  Z
  M 1555.40 418.47
  L 1555.54 458.41
  A 0.35 0.35 0.0 0 0 1555.89 458.76
  L 1607.35 458.58
  A 21.79 18.54 -0.2 0 0 1629.08 439.96
  L 1629.06 436.40
  A 21.79 18.54 -0.2 0 0 1607.21 417.94
  L 1555.75 418.12
  A 0.35 0.35 0.0 0 0 1555.40 418.47
  Z"
/>
<path fill="#00559f" d="
  M 1724.85 453.72
  L 1710.83 488.26
  A 0.34 0.34 0.0 0 1 1710.51 488.47
  L 1672.69 488.47
  A 0.34 0.34 0.0 0 1 1672.38 487.99
  L 1741.06 331.91
  A 0.34 0.34 0.0 0 1 1741.37 331.71
  L 1775.98 331.71
  A 0.34 0.34 0.0 0 1 1776.29 331.91
  L 1844.50 487.99
  A 0.34 0.34 0.0 0 1 1844.19 488.47
  L 1805.29 488.47
  A 0.34 0.34 0.0 0 1 1804.97 488.26
  L 1790.99 453.72
  A 0.34 0.34 0.0 0 0 1790.67 453.51
  L 1725.17 453.51
  A 0.34 0.34 0.0 0 0 1724.85 453.72
  Z
  M 1757.82 371.29
  C 1751.56 388.87 1744.42 406.00 1737.44 423.31
  A 0.32 0.32 0.0 0 0 1737.74 423.75
  L 1778.03 423.75
  A 0.42 0.41 78.1 0 0 1778.40 423.17
  Q 1767.42 397.53 1757.96 371.29
  A 0.07 0.07 0.0 0 0 1757.82 371.29
  Z"
/>
<path fill="#00559f" d="
  M 1970.94 431.31
  L 1970.59 332.31
  Q 1970.59 331.71 1971.19 331.71
  L 2005.97 331.71
  A 0.26 0.25 -90.0 0 1 2006.22 331.97
  L 2006.22 488.03
  A 0.35 0.35 0.0 0 1 2005.87 488.38
  L 1974.24 488.39
  A 0.60 0.59 70.8 0 1 1973.77 488.16
  Q 1940.47 445.13 1907.18 402.06
  Q 1901.03 394.10 1895.73 386.12
  Q 1895.39 385.61 1895.40 386.22
  L 1895.80 487.71
  Q 1895.80 488.47 1895.04 488.47
  L 1860.71 488.47
  Q 1860.19 488.47 1860.19 487.96
  L 1860.19 332.26
  Q 1860.19 331.71 1860.74 331.71
  L 1894.27 331.71
  Q 1894.69 331.71 1894.94 332.03
  Q 1926.13 372.54 1957.34 413.14
  Q 1964.24 422.11 1970.73 431.38
  Q 1970.94 431.69 1970.94 431.31
  Z"
/>
<path fill="#00559f" d="
  M 2077.02 400.40
  C 2079.30 397.70 2081.68 394.77 2083.90 392.41
  Q 2112.29 362.19 2140.78 332.04
  Q 2141.10 331.71 2141.55 331.71
  L 2183.76 331.71
  Q 2184.54 331.71 2184.00 332.26
  L 2132.01 385.65
  Q 2131.82 385.85 2131.97 386.09
  L 2188.54 473.77
  A 0.27 0.27 0.0 0 0 2189.01 473.73
  L 2251.32 332.19
  Q 2251.54 331.71 2252.07 331.71
  L 2285.99 331.71
  Q 2286.58 331.71 2286.81 332.24
  L 2354.83 487.96
  Q 2355.05 488.47 2354.49 488.47
  L 2315.96 488.47
  Q 2315.41 488.47 2315.20 487.96
  L 2301.29 453.72
  A 0.35 0.33 77.9 0 0 2300.98 453.51
  L 2235.75 453.51
  A 0.78 0.76 -78.5 0 0 2235.04 453.99
  L 2221.28 487.97
  Q 2221.08 488.47 2220.53 488.47
  L 2155.29 488.47
  A 0.94 0.91 -16.0 0 1 2154.51 488.05
  L 2106.12 413.20
  A 0.44 0.44 0.0 0 0 2105.44 413.13
  L 2077.35 441.92
  A 1.24 1.23 -23.0 0 0 2077.00 442.78
  L 2076.99 488.24
  A 0.23 0.23 0.0 0 1 2076.76 488.47
  L 2041.22 488.47
  A 0.25 0.25 0.0 0 1 2040.97 488.22
  L 2040.97 332.24
  Q 2040.97 331.71 2041.51 331.71
  L 2076.53 331.71
  Q 2077.11 331.71 2077.10 332.28
  L 2076.72 400.29
  Q 2076.72 400.75 2077.02 400.40
  Z
  M 2288.72 423.41
  Q 2278.68 399.11 2269.95 375.45
  Q 2269.19 373.39 2268.40 371.37
  Q 2268.29 371.09 2268.19 371.38
  Q 2258.69 397.62 2247.72 423.28
  A 0.34 0.33 -78.2 0 0 2248.02 423.75
  L 2288.50 423.74
  A 0.24 0.24 0.0 0 0 2288.72 423.41
  Z"
/>
<rect fill="#00559f" x="2522.72" y="331.71" width="36.02" height="156.76" rx="0.31"/>
</svg>
