<?xml version="1.0" encoding="UTF-8"?>
<svg id="Layer_1" data-name="Layer 1" xmlns="http://www.w3.org/2000/svg" viewBox="0 0 135.6 53.3">
  <defs>
    <style>
      .cls-1 {
        fill: #0033a1;
      }

      .cls-1, .cls-2, .cls-3 {
        stroke-width: 0px;
      }

      .cls-2 {
        fill: #fff;
      }

      .cls-3 {
        fill: #0082ca;
      }
    </style>
  </defs>
  <path class="cls-3" d="m133.65,27.09c-.23-11.88-35.97-29.13-47.74-23.1-5.87,3.01-9.05,12.72-9.32,23.28.27,10.55,3.45,20.27,9.32,23.28,11.76,6.03,47.51-11.22,47.74-23.1,0-.06,0-.12,0-.18,0-.06,0-.12,0-.18Z"/>
  <g>
    <g>
      <rect class="cls-1" x="3.18" y="14.73" width="3.21" height="3.09"/>
      <rect class="cls-1" x="3.18" y="19.06" width="3.21" height="15.64"/>
      <path class="cls-1" d="m14.8,27.89l-2.95-.44c-.61-.09-.85-.35-.85-.87v-.18c0-.57.35-.85,1.03-.85h4.96v-2.51h-4.96c-2.49,0-3.82,1.11-3.82,3.03v.72c0,1.75.83,2.77,2.55,3.01l2.79.39c.72.11.94.42.94.92v.13c0,.63-.35.94-1.05.94h-5.09v2.51h3.14l-1.81,2.47,2.66,1,1.49-3.48c2.24-.11,3.46-1.31,3.46-3.11v-.79c0-1.59-.7-2.66-2.51-2.9"/>
      <path class="cls-1" d="m23.91,31.23h-.37l-2.36-8.19h-3.14l3.3,10.46h1.96l-.22.65c-.39,1.14-.83,1.53-2.14,1.53h-1.92v2.64h1.72c2.99,0,4.34-1.16,5.06-3.54l3.49-11.74h-3.17l-2.23,8.19Z"/>
      <path class="cls-1" d="m34.99,22.85h-.52c-3.19,0-4.91,1.53-4.91,4.85v2.51c0,3.36,1.81,4.69,5.04,4.69,1.16,0,2.55-.26,3.65-.61l1.13-.35-.7-2.36-1.11.35c-.85.26-1.83.44-2.82.44-1.62,0-2.18-.59-2.18-1.92v-.63h7.07v-2.12c0-3.47-1.57-4.85-4.65-4.85m1.9,4.96h-4.32v-.5c0-1.33.5-1.96,1.9-1.96h.59c1.37,0,1.83.63,1.83,1.96v.5Z"/>
      <path class="cls-1" d="m45.03,23.79l-.94.48-.2-1.22h-2.62v11.66h3.1v-8.03l1.03-.42c.96-.39,1.51-.46,2.82-.46h.22v-2.95h-.44c-1.09,0-2,.44-2.97.94"/>
      <rect class="cls-1" x="50.07" y="23.05" width="3.1" height="11.66"/>
      <rect class="cls-1" x="50.07" y="19.12" width="3.1" height="2.69"/>
      <path class="cls-1" d="m69.06,22.85h-.07c-.98,0-1.86.31-2.82.68l-1.55.63c-.63-.94-1.66-1.31-2.79-1.31h-.07c-1,0-1.86.31-2.82.68l-1.27.52-.15-1h-2.62v11.66h3.1v-8.01l1.22-.46c.57-.22,1.05-.37,1.57-.37h.07c.79,0,1.27.42,1.27,1.4v7.44h3.1v-8.01l1.22-.46c.59-.22,1.05-.37,1.57-.37h.07c.79,0,1.29.42,1.29,1.4v7.44h3.08v-8.06c0-2.84-1.55-3.8-3.41-3.8"/>
    </g>
    <path class="cls-1" d="m69.06,22.85h-.07c-.98,0-1.86.31-2.82.68l-1.55.63c-.63-.94-1.66-1.31-2.79-1.31h-.07c-1,0-1.86.31-2.82.68l-1.27.52-.15-1h-2.62v11.66h3.1v-8.01l1.22-.46c.57-.22,1.05-.37,1.57-.37h.07c.79,0,1.27.42,1.27,1.4v7.44h3.1v-8.01l1.22-.46c.59-.22,1.05-.37,1.57-.37h.07c.79,0,1.29.42,1.29,1.4v7.44h3.08v-8.06c0-2.84-1.55-3.8-3.41-3.8"/>
  </g>
  <g>
    <path class="cls-2" d="m124.92,30.07c0,3-2.56,4.89-6.38,4.89-2.59.08-5.13-.69-7.24-2.2l2.39-3.3c1.41,1.03,3.09,1.61,4.84,1.67.91,0,1.26-.3,1.26-.7v-.05c0-.45-.49-.7-1.98-1.11-3.26-.89-5.78-1.93-5.78-4.78v-.09c0-2.81,2.33-4.85,6.26-4.85,2.27-.1,4.5.54,6.38,1.82l-2.35,3.34c-1.2-.82-2.61-1.3-4.06-1.37-.74,0-1.12.3-1.12.66v.04c0,.45.49.7,2.1,1.17,3.32.8,5.67,2,5.67,4.78v.06Z"/>
    <path class="cls-2" d="m88.17,19.82h-6.22v14.89h4.98v-4.13h1.28c3.7,0,6.73-1.7,6.73-5.38v-.13c0-3.55-2.79-5.25-6.77-5.25Zm1.82,5.57c0,1.15-.84,1.72-2.02,1.72h-1.03v-3.55h1.05c1.2,0,2,.57,2,1.74v.09Z"/>
    <path class="cls-2" d="m103.39,19.5c-4.47,0-7.73,3.12-7.73,7.59v.38c0,4.46,3.24,7.55,7.71,7.55s7.75-3.12,7.75-7.6v-.38c0-4.46-3.25-7.55-7.72-7.55Zm2.64,7.93c0,2.22-1,3.49-2.63,3.49s-2.65-1.3-2.65-3.51v-.32c0-2.22,1-3.49,2.63-3.49s2.65,1.3,2.65,3.51v.32Z"/>
  </g>
</svg>