<?xml version="1.0" encoding="UTF-8" standalone="no"?>
<!DOCTYPE svg PUBLIC "-//W3C//DTD SVG 1.1//EN" "http://www.w3.org/Graphics/SVG/1.1/DTD/svg11.dtd">
<svg xmlns="http://www.w3.org/2000/svg" version="1.1" viewBox="0.00 0.00 1200.00 522.00">
<path fill="#1e64ff" d="
  M 0.00 42.89
  L 0.00 37.74
  C 2.77 19.38 16.30 6.57 35.60 7.76
  C 55.23 8.96 68.64 26.60 65.85 45.45
  C 63.86 58.96 52.73 71.00 39.00 72.95
  C 18.64 75.84 2.82 63.15 0.00 42.89
  Z"
/>
<circle fill="#1e64ff" cx="644.61" cy="40.48" r="33.04"/>
<path fill="#1e64ff" d="
  M 864.09 165.50
  C 836.18 151.09 802.20 159.34 784.56 185.30
  C 765.33 213.61 773.43 252.40 802.12 270.87
  C 824.36 285.19 853.22 283.85 873.75 267.23
  C 877.55 264.15 881.63 260.17 885.38 257.99
  C 911.26 242.99 940.97 271.87 926.77 297.88
  Q 923.86 303.20 916.33 309.89
  C 859.48 360.27 771.18 346.43 731.56 282.19
  C 707.20 242.68 708.44 191.36 734.13 152.88
  C 774.31 92.66 858.94 80.24 914.37 127.46
  Q 924.17 135.81 927.48 142.39
  C 933.07 153.50 930.16 168.88 920.48 177.35
  C 910.48 186.10 896.52 187.43 884.92 180.74
  C 881.32 178.66 877.85 175.16 874.54 172.20
  Q 871.07 169.10 864.09 165.50
  Z"
/>
<path fill="#1e64ff" d="
  M 1200.00 214.89
  L 1200.00 224.25
  C 1196.69 282.08 1155.09 329.94 1097.44 338.91
  C 1025.92 350.05 959.47 296.66 956.97 223.75
  C 955.05 167.78 992.16 117.81 1046.04 103.01
  C 1121.98 82.15 1195.86 136.92 1200.00 214.89
  Z
  M 1139.83 219.55
  A 61.39 61.24 0.0 0 0 1078.44 158.31
  A 61.39 61.24 0.0 0 0 1017.05 219.55
  A 61.39 61.24 0.0 0 0 1078.44 280.79
  A 61.39 61.24 0.0 0 0 1139.83 219.55
  Z"
/>
<rect fill="#1e64ff" x="-29.97" y="-116.99" transform="translate(33.19,219.79) rotate(0.1)" width="59.94" height="233.98" rx="29.19"/>
<path fill="#1e64ff" d="
  M 219.75 241.86
  A 0.21 0.21 0.0 0 0 220.13 241.86
  Q 252.18 180.44 284.21 118.99
  C 296.40 95.62 330.24 97.77 339.36 122.69
  Q 343.71 134.58 337.15 147.16
  Q 268.76 278.37 200.37 409.59
  Q 196.72 416.60 189.80 420.68
  C 167.69 433.72 139.56 415.53 144.58 389.78
  Q 145.54 384.88 150.27 375.84
  Q 168.15 341.69 185.86 307.47
  A 0.97 0.94 45.3 0 0 185.85 306.58
  Q 145.47 229.20 105.08 151.91
  C 101.78 145.60 98.43 139.23 98.77 131.69
  C 99.94 105.54 131.51 92.76 150.10 111.43
  Q 153.44 114.78 157.69 122.93
  Q 188.73 182.44 219.75 241.86
  Z"
/>
<path fill="#1e64ff" d="
  M 458.09 277.23
  Q 495.37 277.33 532.72 277.23
  Q 544.55 277.20 549.66 278.67
  C 577.13 286.57 578.03 326.94 549.80 335.52
  Q 544.90 337.01 532.05 337.01
  Q 466.99 336.98 401.93 337.01
  Q 389.83 337.02 385.18 335.75
  C 364.26 330.02 356.51 304.38 370.41 287.92
  Q 423.29 225.31 476.11 162.71
  A 0.26 0.26 0.0 0 0 475.91 162.28
  Q 444.03 162.29 412.09 162.27
  Q 402.13 162.27 397.56 160.81
  Q 389.13 158.12 383.63 151.12
  C 370.48 134.37 378.16 109.39 399.00 103.79
  Q 403.44 102.60 414.61 102.61
  Q 474.71 102.65 534.80 102.61
  Q 545.08 102.60 549.80 104.05
  C 570.09 110.28 577.48 135.42 563.84 151.58
  Q 510.90 214.30 457.98 276.99
  A 0.15 0.14 20.5 0 0 458.09 277.23
  Z"
/>
<rect fill="#1e64ff" x="614.68" y="102.77" width="59.88" height="234.04" rx="29.17"/>
<path fill="#060809" d="
  M 673.41 471.75
  C 673.23 506.63 616.24 507.43 616.03 471.24
  Q 615.92 453.32 615.87 435.37
  Q 615.85 430.31 616.88 428.28
  C 619.05 423.97 626.81 424.15 629.02 428.75
  Q 629.79 430.37 629.79 433.85
  Q 629.77 449.88 629.80 465.90
  Q 629.81 475.34 631.06 478.42
  C 635.41 489.15 653.69 488.92 658.12 478.50
  Q 659.54 475.15 659.53 467.87
  Q 659.49 451.12 659.52 434.43
  Q 659.53 429.93 660.90 427.88
  C 663.51 423.98 671.07 424.23 672.90 428.97
  Q 673.49 430.49 673.50 434.60
  Q 673.51 453.18 673.41 471.75
  Z"
/>
<path fill="#060809" d="
  M 442.57 472.37
  Q 442.43 481.43 442.59 490.50
  C 442.76 500.24 428.69 500.51 428.67 490.75
  Q 428.60 462.25 428.68 433.75
  Q 428.70 425.53 437.00 425.46
  Q 453.55 425.33 458.00 425.51
  C 472.68 426.13 483.63 438.23 481.17 453.15
  C 479.25 464.82 467.58 471.69 456.49 471.75
  Q 446.85 471.80 443.18 471.77
  Q 442.58 471.76 442.57 472.37
  Z
  M 442.49 437.51
  L 442.57 459.83
  A 0.22 0.22 0.0 0 0 442.79 460.05
  L 456.66 460.01
  A 11.37 10.31 -0.2 0 0 467.99 449.66
  L 467.99 447.52
  A 11.37 10.31 -0.2 0 0 456.58 437.25
  L 442.71 437.29
  A 0.22 0.22 0.0 0 0 442.49 437.51
  Z"
/>
<path fill="#060809" d="
  M 369.26 453.24
  L 369.27 447.49
  A 3.93 3.92 4.3 0 1 373.77 443.62
  L 374.67 443.75
  A 3.71 3.70 4.2 0 1 377.83 447.41
  L 377.84 493.48
  Q 377.84 497.31 374.02 497.64
  L 372.69 497.76
  A 3.07 3.07 0.0 0 1 369.36 494.76
  L 369.22 487.24
  Q 369.21 486.63 368.93 487.17
  C 362.35 499.80 347.00 500.81 336.35 493.12
  Q 325.25 485.11 325.56 470.25
  Q 325.94 451.51 342.48 444.76
  C 351.84 440.94 363.62 444.21 368.94 453.32
  Q 369.25 453.86 369.26 453.24
  Z
  M 351.6706 490.5680
  A 20.01 17.98 90.8 0 0 369.9282 470.8110
  A 20.01 17.98 90.8 0 0 352.2294 450.5520
  A 20.01 17.98 90.8 0 0 333.9718 470.3090
  A 20.01 17.98 90.8 0 0 351.6706 490.5680
  Z"
/>
<path fill="#060809" d="
  M 526.60 490.29
  C 521.63 498.86 510.18 499.48 502.04 495.86
  C 480.70 486.35 481.73 452.47 504.25 444.57
  C 512.22 441.77 521.90 443.43 526.56 451.09
  Q 526.85 451.57 526.96 451.01
  C 527.07 450.37 527.00 449.59 527.16 449.00
  Q 528.95 442.65 535.24 443.72
  C 539.95 444.53 540.77 448.66 540.76 453.09
  Q 540.74 471.06 540.75 489.02
  Q 540.76 492.71 539.87 494.32
  C 536.26 500.91 527.29 497.95 526.93 490.37
  Q 526.90 489.77 526.60 490.29
  Z
  M 513.9770 486.4198
  A 15.85 13.83 90.3 0 0 527.8898 470.6424
  A 15.85 13.83 90.3 0 0 514.1430 454.7202
  A 15.85 13.83 90.3 0 0 500.2302 470.4976
  A 15.85 13.83 90.3 0 0 513.9770 486.4198
  Z"
/>
<path fill="#060809" d="
  M 755.99 457.40
  C 747.63 447.57 732.88 448.97 726.34 459.86
  Q 722.73 465.85 724.17 474.22
  Q 726.58 488.21 740.08 490.18
  Q 749.34 491.53 755.81 483.86
  Q 758.03 481.24 760.86 483.17
  L 761.49 483.60
  A 2.72 2.71 -55.2 0 1 762.17 487.40
  Q 756.56 495.36 747.98 497.13
  C 729.78 500.88 713.76 487.04 715.25 468.24
  Q 716.48 452.71 729.74 446.27
  C 740.90 440.86 755.35 442.57 762.22 453.89
  A 2.84 2.83 56.5 0 1 761.46 457.66
  L 760.99 458.00
  A 3.72 3.72 0.0 0 1 755.99 457.40
  Z"
/>
<path fill="#060809" d="
  M 796.4477 498.0200
  A 27.35 27.02 89.9 0 1 769.3800 470.7172
  A 27.35 27.02 89.9 0 1 796.3523 443.3200
  A 27.35 27.02 89.9 0 1 823.4200 470.6228
  A 27.35 27.02 89.9 0 1 796.4477 498.0200
  Z
  M 796.3900 490.5500
  A 19.90 18.50 90.0 0 0 814.8900 470.6500
  A 19.90 18.50 90.0 0 0 796.3900 450.7500
  A 19.90 18.50 90.0 0 0 777.8900 470.6500
  A 19.90 18.50 90.0 0 0 796.3900 490.5500
  Z"
/>
<path fill="#060809" d="
  M 842.60 454.83
  Q 850.83 440.52 867.01 443.98
  C 873.78 445.43 877.14 450.03 880.16 456.00
  Q 880.48 456.63 880.80 456.00
  Q 886.49 444.93 897.97 443.51
  C 912.72 441.69 920.78 451.98 920.93 466.00
  Q 921.08 479.68 920.90 494.33
  A 3.29 3.28 0.4 0 1 917.60 497.57
  L 916.63 497.57
  Q 912.57 497.56 912.52 493.50
  Q 912.32 473.68 912.44 466.75
  C 912.56 459.34 909.50 452.42 901.25 451.10
  C 893.48 449.87 885.96 454.06 882.93 461.33
  Q 881.66 464.36 881.67 469.86
  Q 881.70 481.67 881.55 494.30
  A 3.31 3.31 0.0 0 1 878.22 497.57
  L 877.24 497.57
  Q 873.12 497.55 873.11 493.43
  Q 873.06 477.74 872.96 463.76
  Q 872.91 457.80 868.61 454.23
  C 860.11 447.17 847.65 451.72 843.55 461.25
  Q 842.27 464.20 842.28 469.45
  Q 842.29 481.40 842.15 494.28
  A 3.50 3.50 0.0 0 1 838.80 497.73
  L 837.94 497.77
  A 4.10 4.08 -1.2 0 1 833.67 493.69
  L 833.67 448.01
  Q 833.67 444.02 837.65 443.78
  L 838.80 443.71
  A 3.20 3.19 -2.1 0 1 842.19 446.86
  L 842.28 454.75
  Q 842.29 455.38 842.60 454.83
  Z"
/>
<path fill="#060809" d="
  M 942.32 487.51
  L 942.32 513.73
  A 3.35 3.34 0.8 0 1 938.87 517.07
  L 937.90 517.04
  Q 933.74 516.91 933.74 512.75
  L 933.74 448.01
  Q 933.74 444.23 937.50 443.78
  L 938.78 443.63
  A 3.01 3.01 0.0 0 1 942.14 446.54
  L 942.30 453.01
  A 0.27 0.27 0.0 0 0 942.80 453.13
  C 948.16 443.17 961.15 441.09 970.82 445.64
  C 989.49 454.43 991.60 482.24 974.39 493.68
  C 963.79 500.73 949.08 499.42 942.65 487.43
  Q 942.32 486.82 942.32 487.51
  Z
  M 959.8346 490.5785
  A 20.02 17.96 89.3 0 0 977.5487 470.3406
  A 20.02 17.96 89.3 0 0 959.3454 450.5415
  A 20.02 17.96 89.3 0 0 941.6313 470.7794
  A 20.02 17.96 89.3 0 0 959.8346 490.5785
  Z"
/>
<path fill="#060809" d="
  M 1037.02 487.19
  C 1030.57 498.41 1018.42 500.67 1007.34 495.04
  C 992.05 487.28 989.04 464.99 1000.07 451.95
  C 1009.46 440.86 1028.33 439.57 1036.74 453.16
  Q 1037.23 453.95 1037.23 453.02
  L 1037.25 447.49
  A 3.93 3.92 4.4 0 1 1041.77 443.62
  L 1042.64 443.75
  A 3.69 3.68 4.4 0 1 1045.77 447.39
  L 1045.77 493.48
  Q 1045.77 497.30 1041.97 497.65
  L 1040.64 497.77
  A 3.03 3.03 0.0 0 1 1037.33 494.80
  L 1037.21 487.24
  A 0.10 0.10 0.0 0 0 1037.02 487.19
  Z
  M 1019.6755 490.5685
  A 20.01 17.98 90.7 0 0 1037.8987 470.7797
  A 20.01 17.98 90.7 0 0 1020.1645 450.5515
  A 20.01 17.98 90.7 0 0 1001.9413 470.3403
  A 20.01 17.98 90.7 0 0 1019.6755 490.5685
  Z"
/>
<path fill="#060809" d="
  M 576.29 479.48
  A 0.35 0.34 -44.8 0 0 576.92 479.48
  Q 583.49 464.69 590.09 449.95
  Q 591.91 445.89 593.64 444.59
  C 597.08 442.03 603.82 444.72 603.53 449.56
  Q 603.45 451.03 601.99 454.30
  Q 588.87 483.66 575.73 513.00
  C 573.90 517.11 568.63 518.71 565.30 515.71
  C 562.69 513.37 563.34 510.09 564.72 506.95
  Q 567.27 501.11 569.82 495.28
  A 1.15 1.11 -46.7 0 0 569.81 494.36
  Q 560.33 473.59 550.91 452.84
  C 546.83 443.85 559.43 439.90 563.08 448.48
  Q 569.71 464.05 576.29 479.48
  Z"
/>
<path fill="#060809" d="
  M 1067.03 455.08
  C 1077.56 436.06 1105.66 440.54 1106.09 464.50
  Q 1106.34 478.19 1106.14 493.46
  Q 1106.08 497.51 1102.03 497.58
  L 1101.06 497.59
  A 3.23 3.22 -0.7 0 1 1097.78 494.40
  Q 1097.54 473.82 1097.66 466.50
  C 1097.97 447.31 1074.52 445.89 1068.03 461.34
  Q 1066.77 464.36 1066.78 469.84
  Q 1066.81 481.79 1066.64 494.33
  A 3.46 3.46 0.0 0 1 1063.30 497.74
  L 1062.44 497.77
  A 4.08 4.08 0.0 0 1 1058.22 493.69
  L 1058.22 448.01
  Q 1058.22 444.10 1062.12 443.79
  L 1063.41 443.68
  A 3.04 3.03 -2.6 0 1 1066.69 446.67
  L 1066.78 455.01
  Q 1066.79 455.51 1067.03 455.08
  Z"
/>
<path fill="#060809" d="
  M 1137.62 484.97
  L 1154.33 446.17
  Q 1155.91 442.51 1159.58 444.07
  L 1160.56 444.49
  A 3.16 3.14 -66.7 0 1 1162.21 448.65
  L 1133.62 514.34
  Q 1132.10 517.83 1128.42 516.86
  L 1127.41 516.59
  A 2.75 2.75 0.0 0 1 1125.58 512.85
  L 1132.90 495.80
  A 0.98 0.98 0.0 0 0 1132.90 495.02
  L 1112.44 448.55
  A 3.07 3.06 -22.8 0 1 1114.11 444.48
  L 1115.13 444.07
  Q 1118.80 442.60 1120.37 446.24
  L 1137.01 484.97
  A 0.33 0.33 0.0 0 0 1137.62 484.97
  Z"
/>
</svg>
