<?xml version="1.0" encoding="UTF-8" standalone="no"?>
<!DOCTYPE svg PUBLIC "-//W3C//DTD SVG 1.1//EN" "http://www.w3.org/Graphics/SVG/1.1/DTD/svg11.dtd">
<svg xmlns="http://www.w3.org/2000/svg" version="1.1" viewBox="0.00 0.00 470.00 107.00">
<g stroke-width="2.00" fill="none" stroke-linecap="butt">
<path stroke="#5d7524" vector-effect="non-scaling-stroke" d="
  M 61.93 103.56
  L 64.80 94.85
  Q 65.12 93.89 64.25 94.40
  L 48.32 103.91"
/>
<path stroke="#5d7524" vector-effect="non-scaling-stroke" d="
  M 54.05 52.98
  C 57.58 43.37 60.94 33.57 64.09 23.83
  C 64.76 21.79 64.72 20.15 63.48 18.52
  Q 58.82 12.43 54.16 6.51
  Q 53.74 5.97 53.32 6.51
  Q 48.92 12.12 44.48 18.00
  C 42.95 20.02 42.60 21.71 43.38 24.02
  Q 48.40 38.73 53.43 52.98
  Q 53.74 53.83 54.05 52.98"
/>
<path stroke="#5d7524" vector-effect="non-scaling-stroke" d="
  M 26.72 38.55
  Q 39.17 46.07 50.97 53.89
  Q 52.18 54.69 51.47 53.43
  Q 44.98 41.97 38.40 30.09
  C 34.80 23.60 30.25 24.27 24.42 27.71
  Q 18.04 31.48 11.66 35.36
  Q 10.74 35.91 11.81 35.98
  C 17.59 36.34 21.25 35.24 26.72 38.55"
/>
<path stroke="#5d7524" vector-effect="non-scaling-stroke" d="
  M 55.91 54.02
  Q 55.79 54.24 55.74 54.28
  A 0.04 0.04 0.0 0 0 55.79 54.35
  Q 66.07 47.68 76.15 41.29
  Q 81.65 37.81 81.86 37.70
  C 86.16 35.47 91.05 36.04 95.52 35.98
  Q 96.93 35.96 95.72 35.24
  Q 89.14 31.37 82.32 27.26
  C 76.19 23.57 72.40 24.39 68.73 30.82
  Q 62.14 42.33 55.91 54.02"
/>
<path stroke="#5d7524" vector-effect="non-scaling-stroke" d="
  M 49.91 55.87
  Q 38.00 49.66 28.32 44.94
  C 16.71 39.28 12.38 47.85 6.07 55.64
  A 0.54 0.54 0.0 0 0 6.49 56.52
  L 49.75 56.52
  Q 51.17 56.52 49.91 55.87"
/>
<path stroke="#5d7524" vector-effect="non-scaling-stroke" d="
  M 78.99 44.94
  C 71.95 48.40 64.90 52.17 58.03 55.65
  Q 56.31 56.53 58.24 56.52
  L 101.26 56.52
  A 0.42 0.41 70.4 0 0 101.58 55.84
  C 95.40 48.22 90.81 39.14 78.99 44.94"
/>
<path stroke="#5d7524" vector-effect="non-scaling-stroke" d="
  M 46.27 67.59
  A 0.38 0.38 0.0 0 0 46.85 67.74
  L 51.19 64.47
  A 0.38 0.38 0.0 0 0 51.16 63.84
  L 43.54 59.24
  A 0.38 0.38 0.0 0 0 43.00 59.71
  L 46.27 67.59"
/>
<path stroke="#5d7524" vector-effect="non-scaling-stroke" d="
  M 49.10 59.47
  A 0.33 0.33 0.0 0 0 48.91 60.07
  L 53.94 63.59
  A 0.33 0.33 0.0 0 0 54.34 63.57
  L 58.57 60.06
  A 0.33 0.33 0.0 0 0 58.36 59.48
  L 49.10 59.47"
/>
<path stroke="#5d7524" vector-effect="non-scaling-stroke" d="
  M 61.95 67.46
  A 0.31 0.31 0.0 0 0 62.09 67.29
  L 64.74 59.75
  A 0.31 0.31 0.0 0 0 64.29 59.38
  L 49.17 68.42
  A 0.31 0.31 0.0 0 0 49.16 68.95
  L 54.10 71.99
  A 0.31 0.31 0.0 0 0 54.42 71.99
  L 61.95 67.46"
/>
<path stroke="#5d7524" vector-effect="non-scaling-stroke" d="
  M 56.69 72.84
  A 0.31 0.31 0.0 0 0 56.69 73.37
  L 61.43 76.44
  A 0.31 0.31 0.0 0 0 61.89 76.29
  L 64.80 68.59
  A 0.31 0.31 0.0 0 0 64.35 68.21
  L 56.69 72.84"
/>
<path stroke="#5d7524" vector-effect="non-scaling-stroke" d="
  M 43.55 68.29
  A 0.32 0.32 0.0 0 0 43.09 68.68
  L 45.66 76.04
  A 0.32 0.32 0.0 0 0 45.80 76.21
  L 53.52 80.82
  A 0.32 0.32 0.0 0 0 53.86 80.81
  L 58.81 77.53
  A 0.32 0.32 0.0 0 0 58.79 76.98
  L 43.55 68.29"
/>
<path stroke="#5d7524" vector-effect="non-scaling-stroke" d="
  M 46.38 84.96
  A 0.31 0.31 0.0 0 0 46.87 85.09
  L 50.98 81.77
  A 0.31 0.31 0.0 0 0 50.96 81.27
  L 43.90 76.73
  A 0.31 0.31 0.0 0 0 43.44 77.10
  L 46.38 84.96"
/>
<path stroke="#5d7524" vector-effect="non-scaling-stroke" d="
  M 62.30 84.17
  A 0.35 0.35 0.0 0 0 62.44 83.99
  L 64.73 77.10
  A 0.35 0.35 0.0 0 0 64.22 76.69
  L 49.42 85.57
  A 0.35 0.35 0.0 0 0 49.39 86.15
  L 53.95 89.50
  A 0.35 0.35 0.0 0 0 54.35 89.51
  L 62.30 84.17"
/>
<path stroke="#5d7524" vector-effect="non-scaling-stroke" d="
  M 56.76 89.79
  A 0.37 0.37 0.0 0 0 56.76 90.42
  L 61.39 93.28
  A 0.37 0.37 0.0 0 0 61.93 93.09
  L 64.78 85.60
  A 0.37 0.37 0.0 0 0 64.24 85.16
  L 56.76 89.79"
/>
<path stroke="#5d7524" vector-effect="non-scaling-stroke" d="
  M 43.72 85.55
  A 0.38 0.38 0.0 0 0 43.16 86.00
  L 45.67 93.26
  A 0.38 0.38 0.0 0 0 45.85 93.47
  L 53.75 97.87
  A 0.38 0.38 0.0 0 0 54.13 97.87
  L 58.55 95.22
  A 0.38 0.38 0.0 0 0 58.55 94.57
  L 43.72 85.55"
/>
<path stroke="#5d7524" vector-effect="non-scaling-stroke" d="
  M 45.96 101.85
  A 0.42 0.42 0.0 0 0 46.57 102.05
  L 51.05 99.34
  A 0.42 0.42 0.0 0 0 51.04 98.61
  L 43.65 94.35
  A 0.42 0.42 0.0 0 0 43.05 94.88
  L 45.96 101.85"
/>
</g>
<path fill="#046648" d="
  M 61.93 103.56
  L 64.80 94.85
  Q 65.12 93.89 64.25 94.40
  L 48.32 103.91
  Q 20.38 100.28 7.86 75.57
  C -7.92 44.41 14.03 6.20 48.75 3.04
  C 89.85 -0.71 118.76 42.93 97.58 79.28
  Q 86.03 99.08 61.93 103.56
  Z
  M 54.05 52.98
  C 57.58 43.37 60.94 33.57 64.09 23.83
  C 64.76 21.79 64.72 20.15 63.48 18.52
  Q 58.82 12.43 54.16 6.51
  Q 53.74 5.97 53.32 6.51
  Q 48.92 12.12 44.48 18.00
  C 42.95 20.02 42.60 21.71 43.38 24.02
  Q 48.40 38.73 53.43 52.98
  Q 53.74 53.83 54.05 52.98
  Z
  M 26.72 38.55
  Q 39.17 46.07 50.97 53.89
  Q 52.18 54.69 51.47 53.43
  Q 44.98 41.97 38.40 30.09
  C 34.80 23.60 30.25 24.27 24.42 27.71
  Q 18.04 31.48 11.66 35.36
  Q 10.74 35.91 11.81 35.98
  C 17.59 36.34 21.25 35.24 26.72 38.55
  Z
  M 55.91 54.02
  Q 55.79 54.24 55.74 54.28
  A 0.04 0.04 0.0 0 0 55.79 54.35
  Q 66.07 47.68 76.15 41.29
  Q 81.65 37.81 81.86 37.70
  C 86.16 35.47 91.05 36.04 95.52 35.98
  Q 96.93 35.96 95.72 35.24
  Q 89.14 31.37 82.32 27.26
  C 76.19 23.57 72.40 24.39 68.73 30.82
  Q 62.14 42.33 55.91 54.02
  Z
  M 49.91 55.87
  Q 38.00 49.66 28.32 44.94
  C 16.71 39.28 12.38 47.85 6.07 55.64
  A 0.54 0.54 0.0 0 0 6.49 56.52
  L 49.75 56.52
  Q 51.17 56.52 49.91 55.87
  Z
  M 78.99 44.94
  C 71.95 48.40 64.90 52.17 58.03 55.65
  Q 56.31 56.53 58.24 56.52
  L 101.26 56.52
  A 0.42 0.41 70.4 0 0 101.58 55.84
  C 95.40 48.22 90.81 39.14 78.99 44.94
  Z
  M 46.27 67.59
  A 0.38 0.38 0.0 0 0 46.85 67.74
  L 51.19 64.47
  A 0.38 0.38 0.0 0 0 51.16 63.84
  L 43.54 59.24
  A 0.38 0.38 0.0 0 0 43.00 59.71
  L 46.27 67.59
  Z
  M 49.10 59.47
  A 0.33 0.33 0.0 0 0 48.91 60.07
  L 53.94 63.59
  A 0.33 0.33 0.0 0 0 54.34 63.57
  L 58.57 60.06
  A 0.33 0.33 0.0 0 0 58.36 59.48
  L 49.10 59.47
  Z
  M 61.95 67.46
  A 0.31 0.31 0.0 0 0 62.09 67.29
  L 64.74 59.75
  A 0.31 0.31 0.0 0 0 64.29 59.38
  L 49.17 68.42
  A 0.31 0.31 0.0 0 0 49.16 68.95
  L 54.10 71.99
  A 0.31 0.31 0.0 0 0 54.42 71.99
  L 61.95 67.46
  Z
  M 56.69 72.84
  A 0.31 0.31 0.0 0 0 56.69 73.37
  L 61.43 76.44
  A 0.31 0.31 0.0 0 0 61.89 76.29
  L 64.80 68.59
  A 0.31 0.31 0.0 0 0 64.35 68.21
  L 56.69 72.84
  Z
  M 43.55 68.29
  A 0.32 0.32 0.0 0 0 43.09 68.68
  L 45.66 76.04
  A 0.32 0.32 0.0 0 0 45.80 76.21
  L 53.52 80.82
  A 0.32 0.32 0.0 0 0 53.86 80.81
  L 58.81 77.53
  A 0.32 0.32 0.0 0 0 58.79 76.98
  L 43.55 68.29
  Z
  M 46.38 84.96
  A 0.31 0.31 0.0 0 0 46.87 85.09
  L 50.98 81.77
  A 0.31 0.31 0.0 0 0 50.96 81.27
  L 43.90 76.73
  A 0.31 0.31 0.0 0 0 43.44 77.10
  L 46.38 84.96
  Z
  M 62.30 84.17
  A 0.35 0.35 0.0 0 0 62.44 83.99
  L 64.73 77.10
  A 0.35 0.35 0.0 0 0 64.22 76.69
  L 49.42 85.57
  A 0.35 0.35 0.0 0 0 49.39 86.15
  L 53.95 89.50
  A 0.35 0.35 0.0 0 0 54.35 89.51
  L 62.30 84.17
  Z
  M 56.76 89.79
  A 0.37 0.37 0.0 0 0 56.76 90.42
  L 61.39 93.28
  A 0.37 0.37 0.0 0 0 61.93 93.09
  L 64.78 85.60
  A 0.37 0.37 0.0 0 0 64.24 85.16
  L 56.76 89.79
  Z
  M 43.72 85.55
  A 0.38 0.38 0.0 0 0 43.16 86.00
  L 45.67 93.26
  A 0.38 0.38 0.0 0 0 45.85 93.47
  L 53.75 97.87
  A 0.38 0.38 0.0 0 0 54.13 97.87
  L 58.55 95.22
  A 0.38 0.38 0.0 0 0 58.55 94.57
  L 43.72 85.55
  Z
  M 45.96 101.85
  A 0.42 0.42 0.0 0 0 46.57 102.05
  L 51.05 99.34
  A 0.42 0.42 0.0 0 0 51.04 98.61
  L 43.65 94.35
  A 0.42 0.42 0.0 0 0 43.05 94.88
  L 45.96 101.85
  Z"
/>
<path fill="#b68400" d="
  M 64.09 23.83
  C 60.94 33.57 57.58 43.37 54.05 52.98
  Q 53.74 53.83 53.43 52.98
  Q 48.40 38.73 43.38 24.02
  C 42.60 21.71 42.95 20.02 44.48 18.00
  Q 48.92 12.12 53.32 6.51
  Q 53.74 5.97 54.16 6.51
  Q 58.82 12.43 63.48 18.52
  C 64.72 20.15 64.76 21.79 64.09 23.83
  Z"
/>
<path fill="#b68400" d="
  M 26.72 38.55
  C 21.25 35.24 17.59 36.34 11.81 35.98
  Q 10.74 35.91 11.66 35.36
  Q 18.04 31.48 24.42 27.71
  C 30.25 24.27 34.80 23.60 38.40 30.09
  Q 44.98 41.97 51.47 53.43
  Q 52.18 54.69 50.97 53.89
  Q 39.17 46.07 26.72 38.55
  Z"
/>
<path fill="#b68400" d="
  M 55.91 54.02
  Q 62.14 42.33 68.73 30.82
  C 72.40 24.39 76.19 23.57 82.32 27.26
  Q 89.14 31.37 95.72 35.24
  Q 96.93 35.96 95.52 35.98
  C 91.05 36.04 86.16 35.47 81.86 37.70
  Q 81.65 37.81 76.15 41.29
  Q 66.07 47.68 55.79 54.35
  A 0.04 0.04 0.0 0 1 55.74 54.28
  Q 55.79 54.24 55.91 54.02
  Z"
/>
<rect fill="#046648" x="-3.32" y="-3.33" transform="translate(375.84,35.10) rotate(44.6)" width="6.64" height="6.66" rx="0.44"/>
<rect fill="#046648" x="-3.34" y="-3.31" transform="translate(386.88,35.10) rotate(-45.0)" width="6.68" height="6.62" rx="0.42"/>
<path fill="#046648" d="
  M 154.46 51.94
  C 163.81 52.86 162.91 59.01 163.02 67.14
  Q 163.08 71.58 162.99 75.83
  Q 162.98 76.25 162.56 76.25
  L 154.25 76.25
  Q 154.01 76.25 154.01 76.00
  L 154.00 62.39
  A 3.09 3.09 0.0 0 0 150.94 59.30
  L 141.77 59.22
  A 0.51 0.51 0.0 0 0 141.26 59.73
  L 141.28 75.98
  Q 141.28 76.25 141.02 76.25
  L 132.51 76.25
  A 0.24 0.23 -90.0 0 1 132.28 76.01
  L 132.30 35.31
  Q 132.30 35.08 132.53 35.08
  L 141.05 35.07
  Q 141.27 35.07 141.27 35.30
  L 141.26 50.75
  Q 141.26 51.23 141.69 51.43
  C 142.84 51.99 143.69 51.70 144.34 50.57
  Q 148.87 42.72 153.07 35.31
  Q 153.17 35.13 153.38 35.13
  L 163.40 35.07
  Q 163.61 35.07 163.51 35.25
  L 154.23 51.50
  A 0.29 0.29 0.0 0 0 154.46 51.94
  Z"
/>
<path fill="#046648" d="
  M 354.00 43.13
  L 354.00 75.90
  A 0.35 0.35 0.0 0 1 353.65 76.25
  L 345.31 76.25
  A 0.35 0.35 0.0 0 1 344.96 75.90
  L 344.97 43.13
  A 0.35 0.35 0.0 0 0 344.62 42.78
  L 334.36 42.82
  A 0.35 0.35 0.0 0 1 334.01 42.47
  L 334.00 35.47
  A 0.35 0.35 0.0 0 1 334.35 35.12
  L 364.30 35.10
  A 0.35 0.35 0.0 0 1 364.65 35.45
  L 364.68 42.50
  A 0.35 0.35 0.0 0 1 364.33 42.85
  L 354.35 42.78
  A 0.35 0.35 0.0 0 0 354.00 43.13
  Z"
/>
<path fill="#046648" d="
  M 220.78 68.19
  C 227.62 61.94 226.10 52.33 225.88 43.29
  A 0.33 0.33 0.0 0 1 226.21 42.95
  L 234.53 42.93
  Q 234.84 42.93 234.84 43.23
  C 234.78 56.04 236.56 67.10 225.46 75.97
  Q 225.11 76.26 224.66 76.26
  L 216.06 76.26
  Q 215.57 76.26 215.19 75.96
  C 203.95 67.08 205.87 55.80 205.95 43.24
  A 0.30 0.30 0.0 0 1 206.24 42.94
  L 214.61 42.92
  Q 214.87 42.92 214.86 43.19
  Q 214.72 49.69 214.71 56.75
  Q 214.69 63.42 219.90 68.19
  Q 220.34 68.60 220.78 68.19
  Z"
/>
<path fill="#046648" d="
  M 447.48 63.71
  L 447.48 76.01
  Q 447.48 76.24 447.24 76.24
  L 438.95 76.24
  Q 438.66 76.24 438.66 75.95
  L 438.66 43.26
  A 0.33 0.32 0.0 0 1 438.99 42.94
  L 447.22 42.95
  A 0.27 0.27 0.0 0 1 447.49 43.22
  L 447.49 54.72
  Q 447.49 55.10 447.84 55.27
  Q 449.71 56.15 450.52 55.01
  Q 454.49 49.42 459.03 43.15
  Q 459.20 42.92 459.49 42.92
  L 469.46 42.97
  A 0.10 0.10 0.0 0 1 469.54 43.13
  L 460.78 55.23
  A 0.52 0.52 0.0 0 0 461.19 56.06
  Q 465.58 56.14 467.68 59.21
  C 470.03 62.65 469.05 71.58 469.05 75.94
  A 0.30 0.29 90.0 0 1 468.76 76.24
  L 460.48 76.25
  A 0.27 0.27 0.0 0 1 460.21 75.98
  L 460.23 66.14
  A 2.93 2.92 -89.9 0 0 457.32 63.21
  L 448.04 63.15
  Q 447.48 63.14 447.48 63.71
  Z"
/>
<path fill="#b68400" d="
  M 49.91 55.87
  Q 51.17 56.52 49.75 56.52
  L 6.49 56.52
  A 0.54 0.54 0.0 0 1 6.07 55.64
  C 12.38 47.85 16.71 39.28 28.32 44.94
  Q 38.00 49.66 49.91 55.87
  Z"
/>
<path fill="#b68400" d="
  M 58.03 55.65
  C 64.90 52.17 71.95 48.40 78.99 44.94
  C 90.81 39.14 95.40 48.22 101.58 55.84
  A 0.42 0.41 70.4 0 1 101.26 56.52
  L 58.24 56.52
  Q 56.31 56.53 58.03 55.65
  Z"
/>
<path fill="#046648" d="
  M 179.32 68.99
  L 189.62 68.99
  A 0.32 0.32 0.0 0 0 189.94 68.67
  L 189.93 43.26
  A 0.32 0.32 0.0 0 1 190.25 42.94
  L 198.53 42.94
  A 0.32 0.32 0.0 0 1 198.85 43.26
  L 198.88 75.93
  A 0.32 0.32 0.0 0 1 198.56 76.25
  L 170.29 76.24
  A 0.32 0.32 0.0 0 1 169.97 75.92
  L 169.96 43.25
  A 0.32 0.32 0.0 0 1 170.28 42.93
  L 178.68 42.95
  A 0.32 0.32 0.0 0 1 179.00 43.27
  L 179.00 68.67
  A 0.32 0.32 0.0 0 0 179.32 68.99
  Z"
/>
<path fill="#046648" d="
  M 251.03 55.96
  L 264.64 55.94
  A 0.37 0.37 0.0 0 1 265.01 56.31
  L 265.02 62.83
  A 0.37 0.37 0.0 0 1 264.65 63.20
  L 251.07 63.17
  A 0.37 0.37 0.0 0 0 250.70 63.54
  L 250.66 68.62
  A 0.37 0.37 0.0 0 0 251.03 68.99
  L 265.85 68.98
  A 0.37 0.37 0.0 0 1 266.22 69.35
  L 266.23 75.88
  A 0.37 0.37 0.0 0 1 265.86 76.25
  L 242.10 76.25
  A 0.37 0.37 0.0 0 1 241.73 75.88
  L 241.72 43.31
  A 0.37 0.37 0.0 0 1 242.09 42.94
  L 265.63 42.94
  A 0.37 0.37 0.0 0 1 266.00 43.31
  L 266.00 49.82
  A 0.37 0.37 0.0 0 1 265.63 50.19
  L 251.06 50.17
  A 0.37 0.37 0.0 0 0 250.69 50.54
  L 250.66 55.59
  A 0.37 0.37 0.0 0 0 251.03 55.96
  Z"
/>
<path fill="#046648" d="
  M 290.51 63.75
  L 290.51 75.99
  A 0.26 0.25 -0.0 0 1 290.25 76.24
  L 281.98 76.25
  Q 281.66 76.25 281.66 75.93
  L 281.68 63.89
  A 0.82 0.82 0.0 0 0 280.86 63.07
  C 275.96 63.11 272.19 60.68 271.93 55.49
  Q 271.62 49.34 271.70 43.23
  A 0.29 0.29 0.0 0 1 271.99 42.94
  L 280.26 42.95
  A 0.29 0.29 0.0 0 1 280.55 43.25
  C 280.49 46.41 279.03 55.34 283.61 55.63
  C 287.09 55.85 291.51 56.48 291.55 52.25
  Q 291.59 47.55 291.62 43.29
  A 0.35 0.35 0.0 0 1 291.97 42.94
  L 300.21 42.95
  A 0.27 0.26 -0.0 0 1 300.48 43.21
  C 300.68 52.40 302.73 61.32 291.01 63.17
  Q 290.51 63.25 290.51 63.75
  Z"
/>
<path fill="#046648" d="
  M 313.95 50.53
  L 306.12 50.58
  A 0.36 0.36 0.0 0 1 305.76 50.22
  L 305.77 43.30
  A 0.36 0.36 0.0 0 1 306.13 42.94
  L 331.62 42.94
  A 0.36 0.36 0.0 0 1 331.98 43.30
  L 331.98 50.16
  A 0.36 0.36 0.0 0 1 331.62 50.52
  L 323.57 50.56
  A 0.36 0.36 0.0 0 0 323.21 50.92
  L 323.23 75.89
  A 0.36 0.36 0.0 0 1 322.87 76.25
  L 314.63 76.25
  A 0.36 0.36 0.0 0 1 314.27 75.89
  L 314.31 50.89
  A 0.36 0.36 0.0 0 0 313.95 50.53
  Z"
/>
<path fill="#046648" d="
  M 384.25 68.77
  C 386.23 68.48 386.86 66.99 386.88 65.12
  Q 386.97 54.06 386.92 43.23
  Q 386.92 42.94 387.21 42.94
  L 395.57 42.93
  Q 395.91 42.93 395.91 43.27
  Q 395.90 54.32 395.82 65.75
  C 395.74 75.52 389.23 76.51 381.26 76.58
  C 373.23 76.66 367.09 75.97 366.94 66.29
  Q 366.77 54.61 366.89 43.34
  Q 366.90 42.94 367.30 42.94
  L 375.52 42.94
  Q 375.99 42.94 375.99 43.41
  Q 376.00 54.35 376.00 65.77
  C 376.00 69.60 381.84 69.14 384.25 68.77
  Z"
/>
<path fill="#046648" d="
  M 411.81 66.71
  L 411.86 75.90
  A 0.34 0.34 0.0 0 1 411.52 76.24
  L 403.12 76.24
  A 0.34 0.34 0.0 0 1 402.78 75.90
  L 402.78 43.29
  A 0.34 0.34 0.0 0 1 403.12 42.95
  L 431.34 42.94
  A 0.34 0.34 0.0 0 1 431.68 43.28
  L 431.67 65.99
  A 0.34 0.34 0.0 0 1 431.33 66.33
  L 426.50 66.37
  A 0.34 0.34 0.0 0 0 426.22 66.90
  L 432.54 75.71
  A 0.34 0.34 0.0 0 1 432.27 76.25
  L 422.68 76.24
  A 0.34 0.34 0.0 0 1 422.41 76.10
  L 415.47 66.47
  A 0.34 0.34 0.0 0 0 415.19 66.33
  L 412.15 66.37
  A 0.34 0.34 0.0 0 0 411.81 66.71
  Z
  M 422.6862 51.0995
  A 0.54 0.54 0.0 0 0 422.1471 50.5585
  L 412.3872 50.5415
  A 0.54 0.54 0.0 0 0 411.8462 51.0805
  L 411.8338 58.2005
  A 0.54 0.54 0.0 0 0 412.3729 58.7415
  L 422.1328 58.7585
  A 0.54 0.54 0.0 0 0 422.6738 58.2195
  L 422.6862 51.0995
  Z"
/>
<path fill="#b68400" d="
  M 46.27 67.59
  L 43.00 59.71
  A 0.38 0.38 0.0 0 1 43.54 59.24
  L 51.16 63.84
  A 0.38 0.38 0.0 0 1 51.19 64.47
  L 46.85 67.74
  A 0.38 0.38 0.0 0 1 46.27 67.59
  Z"
/>
<path fill="#b68400" d="
  M 49.10 59.47
  L 58.36 59.48
  A 0.33 0.33 0.0 0 1 58.57 60.06
  L 54.34 63.57
  A 0.33 0.33 0.0 0 1 53.94 63.59
  L 48.91 60.07
  A 0.33 0.33 0.0 0 1 49.10 59.47
  Z"
/>
<path fill="#b68400" d="
  M 61.95 67.46
  L 54.42 71.99
  A 0.31 0.31 0.0 0 1 54.10 71.99
  L 49.16 68.95
  A 0.31 0.31 0.0 0 1 49.17 68.42
  L 64.29 59.38
  A 0.31 0.31 0.0 0 1 64.74 59.75
  L 62.09 67.29
  A 0.31 0.31 0.0 0 1 61.95 67.46
  Z"
/>
<path fill="#b68400" d="
  M 56.69 72.84
  L 64.35 68.21
  A 0.31 0.31 0.0 0 1 64.80 68.59
  L 61.89 76.29
  A 0.31 0.31 0.0 0 1 61.43 76.44
  L 56.69 73.37
  A 0.31 0.31 0.0 0 1 56.69 72.84
  Z"
/>
<path fill="#b68400" d="
  M 43.55 68.29
  L 58.79 76.98
  A 0.32 0.32 0.0 0 1 58.81 77.53
  L 53.86 80.81
  A 0.32 0.32 0.0 0 1 53.52 80.82
  L 45.80 76.21
  A 0.32 0.32 0.0 0 1 45.66 76.04
  L 43.09 68.68
  A 0.32 0.32 0.0 0 1 43.55 68.29
  Z"
/>
<path fill="#b68400" d="
  M 46.38 84.96
  L 43.44 77.10
  A 0.31 0.31 0.0 0 1 43.90 76.73
  L 50.96 81.27
  A 0.31 0.31 0.0 0 1 50.98 81.77
  L 46.87 85.09
  A 0.31 0.31 0.0 0 1 46.38 84.96
  Z"
/>
<path fill="#b68400" d="
  M 62.30 84.17
  L 54.35 89.51
  A 0.35 0.35 0.0 0 1 53.95 89.50
  L 49.39 86.15
  A 0.35 0.35 0.0 0 1 49.42 85.57
  L 64.22 76.69
  A 0.35 0.35 0.0 0 1 64.73 77.10
  L 62.44 83.99
  A 0.35 0.35 0.0 0 1 62.30 84.17
  Z"
/>
<path fill="#b68400" d="
  M 56.76 89.79
  L 64.24 85.16
  A 0.37 0.37 0.0 0 1 64.78 85.60
  L 61.93 93.09
  A 0.37 0.37 0.0 0 1 61.39 93.28
  L 56.76 90.42
  A 0.37 0.37 0.0 0 1 56.76 89.79
  Z"
/>
<path fill="#b68400" d="
  M 43.72 85.55
  L 58.55 94.57
  A 0.38 0.38 0.0 0 1 58.55 95.22
  L 54.13 97.87
  A 0.38 0.38 0.0 0 1 53.75 97.87
  L 45.85 93.47
  A 0.38 0.38 0.0 0 1 45.67 93.26
  L 43.16 86.00
  A 0.38 0.38 0.0 0 1 43.72 85.55
  Z"
/>
<path fill="#b68400" d="
  M 45.96 101.85
  L 43.05 94.88
  A 0.42 0.42 0.0 0 1 43.65 94.35
  L 51.04 98.61
  A 0.42 0.42 0.0 0 1 51.05 99.34
  L 46.57 102.05
  A 0.42 0.42 0.0 0 1 45.96 101.85
  Z"
/>
<path fill="#b68400" d="
  M 61.93 103.56
  Q 55.57 104.64 48.32 103.91
  L 64.25 94.40
  Q 65.12 93.89 64.80 94.85
  L 61.93 103.56
  Z"
/>
</svg>
