<?xml version="1.0" encoding="UTF-8" standalone="no"?>
<!DOCTYPE svg PUBLIC "-//W3C//DTD SVG 1.1//EN" "http://www.w3.org/Graphics/SVG/1.1/DTD/svg11.dtd">
<svg xmlns="http://www.w3.org/2000/svg" version="1.1" viewBox="0.00 0.00 666.00 375.00">
<path fill="#1d2c49" d="
  M 331.32 261.94
  Q 325.86 251.85 323.31 240.65
  C 323.11 239.76 323.02 237.91 322.53 236.58
  Q 322.17 235.59 322.09 234.87
  C 321.71 231.09 321.02 227.42 321.02 223.68
  Q 320.93 141.10 321.02 58.52
  Q 321.02 58.03 321.52 58.03
  L 612.75 58.02
  A 0.23 0.23 0.0 0 1 612.98 58.25
  L 612.97 308.78
  A 0.38 0.38 0.0 0 1 612.59 309.16
  Q 512.43 309.15 412.25 309.09
  C 407.79 309.08 403.39 309.32 398.94 308.43
  C 396.85 308.01 394.51 307.86 392.68 307.52
  C 379.03 305.00 367.54 299.18 356.32 291.16
  Q 354.15 289.62 350.77 286.24
  C 348.43 283.90 345.51 281.82 343.52 279.46
  Q 338.21 273.12 333.86 266.08
  Q 333.73 265.88 332.56 264.50
  C 331.96 263.79 331.70 262.65 331.32 261.94
  Z
  M 409.06 101.30
  A 23.17 23.17 0.0 0 0 385.89 78.13
  A 23.17 23.17 0.0 0 0 362.72 101.30
  A 23.17 23.17 0.0 0 0 385.89 124.47
  A 23.17 23.17 0.0 0 0 409.06 101.30
  Z
  M 454.70 151.35
  Q 447.66 157.24 445.87 159.87
  C 441.95 165.64 438.73 170.40 436.63 176.16
  Q 436.60 176.25 434.67 180.72
  Q 433.71 182.94 433.04 186.01
  Q 429.29 203.19 433.05 219.18
  C 434.55 225.57 437.81 232.04 440.98 238.02
  C 443.89 243.49 447.77 247.34 452.64 252.39
  C 456.83 256.73 461.44 258.94 466.08 262.05
  Q 469.45 264.31 471.15 265.06
  Q 488.99 273.01 508.77 271.94
  C 519.02 271.38 528.38 268.91 538.91 264.08
  C 540.32 263.44 541.47 262.23 543.07 261.34
  Q 548.41 258.35 553.81 253.88
  C 557.07 251.17 559.79 247.64 562.50 244.28
  C 563.74 242.75 566.46 240.49 567.00 238.03
  C 567.15 237.35 567.81 236.73 568.05 236.29
  Q 573.10 227.41 574.78 218.74
  Q 575.20 216.53 575.63 215.05
  C 577.53 208.49 577.34 200.73 576.60 193.99
  C 576.40 192.17 575.34 189.91 574.95 187.62
  C 573.56 179.51 569.67 170.76 565.42 164.60
  C 556.18 151.19 543.05 141.84 527.56 136.86
  Q 514.98 132.81 501.86 133.00
  C 496.67 133.08 490.93 134.17 485.52 135.06
  C 484.17 135.28 481.48 136.06 480.36 136.66
  C 476.76 138.59 472.56 139.68 469.33 141.40
  C 465.18 143.60 460.22 146.03 456.90 149.23
  Q 454.74 151.32 454.70 151.35
  Z
  M 371.22 140.96
  C 366.20 143.90 365.20 149.97 365.17 155.25
  Q 364.99 200.03 365.07 244.80
  Q 365.08 249.81 368.17 255.59
  C 370.44 259.82 376.69 265.45 381.31 267.06
  Q 383.99 267.99 387.31 268.20
  Q 396.90 268.79 406.38 268.39
  Q 406.75 268.37 406.75 268.00
  L 406.75 142.00
  A 1.81 1.80 6.4 0 0 405.34 140.24
  Q 401.86 139.43 398.36 138.26
  C 397.15 137.86 395.83 138.22 394.86 137.90
  C 390.31 136.42 386.08 136.25 381.44 137.38
  C 377.73 138.29 375.23 138.62 371.22 140.96
  Z"
/>
<path fill="#1d2c49" d="
  M 74.80 80.02
  A 0.33 0.31 -79.4 0 1 74.99 80.32
  L 74.99 268.27
  A 0.26 0.25 -0.0 0 1 74.73 268.52
  L 58.73 268.52
  A 0.53 0.52 0.0 0 1 58.20 268.00
  Q 58.19 177.09 58.20 86.50
  C 58.20 77.19 68.69 77.19 74.80 80.02
  Z"
/>
<path fill="#1d2c49" d="
  M 273.69 161.90
  Q 273.69 124.45 273.69 87.00
  C 273.69 82.71 275.17 79.59 279.54 78.66
  C 282.86 77.96 286.89 78.28 289.80 80.00
  Q 290.27 80.28 290.27 80.83
  Q 290.30 143.30 290.23 205.75
  Q 290.22 220.90 284.01 235.34
  C 282.53 238.79 280.21 242.10 278.13 245.37
  C 273.25 253.09 268.23 257.05 261.49 261.42
  C 260.25 262.23 259.28 263.36 258.04 263.98
  C 242.88 271.66 226.15 273.61 209.76 270.95
  Q 209.43 270.89 207.31 270.28
  C 206.13 269.93 204.99 270.06 203.91 269.75
  Q 193.84 266.80 190.25 264.50
  Q 183.26 260.03 178.66 256.59
  C 173.99 253.09 170.28 247.95 166.71 243.20
  C 156.28 229.35 152.72 206.66 156.75 190.11
  C 157.06 188.81 157.11 187.56 157.44 186.32
  C 159.43 179.04 162.28 171.62 167.08 165.73
  C 170.57 161.45 172.83 157.24 177.60 153.64
  Q 178.00 153.34 183.63 148.95
  C 188.77 144.92 195.72 142.43 201.89 140.40
  Q 205.21 139.31 214.25 138.01
  Q 218.27 137.44 229.77 137.91
  C 234.51 138.10 238.97 139.20 243.62 140.19
  Q 244.10 140.29 244.50 140.57
  C 245.22 141.09 245.89 140.96 246.54 141.21
  Q 254.14 144.17 260.91 148.69
  C 261.96 149.39 262.00 150.28 262.88 150.95
  Q 269.04 155.65 273.46 161.97
  Q 273.69 162.30 273.69 161.90
  Z
  M 240.29 154.79
  C 229.34 150.40 212.85 151.12 202.00 156.04
  C 193.65 159.83 185.96 166.58 181.42 174.63
  C 178.60 179.63 177.14 181.86 175.94 186.24
  Q 169.90 208.23 178.00 228.89
  C 178.46 230.06 179.35 230.60 179.93 231.71
  C 183.66 238.83 187.95 244.88 195.21 248.77
  C 196.37 249.39 196.80 250.58 198.10 251.27
  C 209.20 257.24 220.08 258.01 232.73 256.75
  Q 239.60 256.07 248.02 251.82
  Q 249.45 251.09 251.11 249.69
  C 253.47 247.69 256.64 245.80 258.45 244.11
  C 262.24 240.56 264.99 235.60 267.53 230.79
  C 273.96 218.64 274.61 203.63 271.56 190.44
  C 270.34 185.14 267.69 180.35 265.08 175.48
  C 261.48 168.77 257.08 165.27 251.82 160.69
  C 248.68 157.96 244.25 156.37 240.29 154.79
  Z"
/>
<circle fill="#1d2c49" cx="118.32" cy="95.84" r="12.53"/>
<path fill="#1d2c49" d="
  M 110.82 145.26
  C 113.34 139.76 121.08 140.64 125.83 142.37
  Q 126.92 142.77 126.92 143.93
  L 126.93 268.15
  A 0.38 0.37 -0.0 0 1 126.55 268.52
  L 110.51 268.52
  Q 109.99 268.52 109.99 268.01
  L 109.99 149.06
  Q 109.99 147.07 110.82 145.26
  Z"
/>
<path fill="#1d2c49" d="
  M 487.83 175.33
  Q 488.23 174.58 488.61 174.37
  C 498.48 168.79 509.76 169.05 519.47 174.33
  Q 519.73 174.47 519.99 174.95
  Q 520.22 175.39 520.65 175.65
  C 522.34 176.70 523.61 178.48 525.39 179.17
  Q 525.72 179.30 525.94 179.55
  C 536.80 191.61 536.97 214.16 525.85 225.86
  C 515.48 236.77 496.88 237.67 485.25 228.70
  C 479.78 224.48 476.02 217.02 474.77 209.76
  C 474.38 207.52 473.68 205.26 473.76 203.04
  Q 474.09 193.88 477.58 186.28
  C 479.10 182.98 483.42 177.19 487.26 175.82
  A 1.08 1.05 3.6 0 0 487.83 175.33
  Z"
/>
<path fill="#0b100b" d="
  M 78.43 307.73
  L 78.56 308.63
  Q 78.64 309.15 78.12 309.16
  L 76.48 309.19
  Q 76.00 309.20 76.00 308.73
  L 76.00 290.27
  A 0.47 0.46 0.6 0 1 76.48 289.81
  L 78.21 289.86
  Q 78.55 289.87 78.55 290.21
  L 78.55 297.00
  Q 78.55 297.76 79.05 297.19
  C 85.21 290.12 94.43 300.94 88.32 307.30
  C 85.54 310.20 81.76 310.11 78.79 307.53
  Q 78.34 307.13 78.43 307.73
  Z
  M 83.2467 307.6098
  A 5.35 4.70 89.5 0 0 87.8998 302.2190
  A 5.35 4.70 89.5 0 0 83.1533 296.9102
  A 5.35 4.70 89.5 0 0 78.5002 302.3010
  A 5.35 4.70 89.5 0 0 83.2467 307.6098
  Z"
/>
<rect fill="#0b100b" x="132.69" y="289.84" width="2.18" height="19.32" rx="0.45"/>
<rect fill="#0b100b" x="70.03" y="289.99" width="2.52" height="2.64" rx="0.41"/>
<rect fill="#0b100b" x="-1.39" y="-1.29" transform="translate(140.09,291.28) rotate(-0.4)" width="2.78" height="2.58" rx="0.49"/>
<rect fill="#0b100b" x="-1.20" y="-1.33" transform="translate(160.21,291.31) rotate(-0.3)" width="2.40" height="2.66" rx="0.53"/>
<path fill="#0b100b" d="
  M 57.40 307.13
  L 67.31 307.11
  A 0.43 0.43 0.0 0 1 67.74 307.55
  L 67.71 308.70
  A 0.43 0.43 0.0 0 1 67.28 309.12
  L 55.40 309.15
  A 0.43 0.43 0.0 0 1 54.97 308.72
  L 54.96 291.06
  A 0.43 0.43 0.0 0 1 55.38 290.63
  L 56.52 290.62
  A 0.43 0.43 0.0 0 1 56.96 291.05
  L 56.97 306.70
  A 0.43 0.43 0.0 0 0 57.40 307.13
  Z"
/>
<path fill="#0b100b" d="
  M 207.98 303.31
  L 207.97 308.47
  Q 207.97 309.18 207.27 309.13
  L 206.57 309.09
  Q 205.86 309.04 205.86 308.32
  L 205.83 291.23
  A 0.53 0.53 0.0 0 1 206.33 290.70
  C 210.83 290.43 219.46 289.71 219.95 296.29
  C 220.05 297.64 219.34 298.62 218.90 299.91
  Q 218.72 300.42 218.29 300.73
  Q 213.96 303.83 208.58 302.82
  Q 207.98 302.70 207.98 303.31
  Z
  M 208.01 292.86
  L 207.97 300.66
  A 0.29 0.29 0.0 0 0 208.26 300.95
  L 212.51 300.97
  A 4.52 4.09 0.3 0 0 217.05 296.90
  L 217.05 296.70
  A 4.52 4.09 0.3 0 0 212.55 292.59
  L 208.30 292.57
  A 0.29 0.29 0.0 0 0 208.01 292.86
  Z"
/>
<path fill="#0b100b" d="
  M 307.90 294.48
  L 307.80 292.03
  Q 307.77 291.10 308.70 291.04
  L 308.99 291.02
  Q 310.02 290.96 310.01 291.99
  L 309.96 294.72
  Q 309.96 295.23 310.47 295.21
  L 313.28 295.08
  Q 314.00 295.05 314.00 295.78
  L 314.00 296.44
  Q 314.00 297.14 313.31 297.11
  L 310.50 297.00
  Q 309.98 296.98 309.98 297.50
  L 309.98 306.22
  Q 309.98 306.67 310.35 306.94
  Q 311.71 307.92 313.20 307.11
  A 0.55 0.55 0.0 0 1 314.01 307.60
  L 314.00 308.12
  Q 314.00 308.94 313.20 309.15
  C 310.78 309.81 307.76 309.04 307.77 306.00
  Q 307.78 301.79 307.89 297.59
  A 0.59 0.59 0.0 0 0 307.27 296.99
  L 305.99 297.07
  Q 305.26 297.12 305.11 296.40
  L 305.05 296.11
  Q 304.87 295.24 305.76 295.20
  L 307.27 295.15
  Q 307.92 295.13 307.90 294.48
  Z"
/>
<rect fill="#0b100b" x="70.05" y="295.07" width="2.22" height="14.10" rx="0.55"/>
<path fill="#0b100b" d="
  M 96.07 303.14
  Q 93.61 303.13 95.12 305.08
  Q 98.89 309.92 103.91 305.91
  A 0.54 0.53 53.8 0 1 104.70 306.04
  L 104.89 306.34
  A 1.13 1.13 0.0 0 1 104.67 307.81
  C 101.33 310.63 94.89 309.74 93.20 305.73
  Q 92.45 303.93 92.81 301.03
  C 93.38 296.34 97.31 293.71 101.87 295.53
  C 104.98 296.77 105.66 299.43 106.08 302.49
  A 0.60 0.59 -4.2 0 1 105.49 303.17
  L 96.07 303.14
  Z
  M 95.17 301.78
  L 103.31 301.88
  A 0.33 0.33 0.0 0 0 103.64 301.55
  L 103.65 301.34
  A 4.32 4.01 -89.3 0 0 99.69 296.97
  L 98.91 296.97
  A 4.32 4.01 -89.3 0 0 94.85 301.24
  L 94.84 301.45
  A 0.33 0.33 0.0 0 0 95.17 301.78
  Z"
/>
<path fill="#0b100b" d="
  M 110.53 297.79
  C 112.05 296.57 113.44 294.61 115.85 295.05
  Q 116.27 295.13 116.26 295.56
  L 116.23 296.74
  Q 116.21 297.33 115.62 297.34
  C 110.11 297.50 109.99 303.99 110.39 308.39
  A 0.69 0.69 0.0 0 1 109.72 309.15
  L 108.72 309.17
  Q 108.00 309.18 108.01 308.47
  L 108.02 295.71
  Q 108.02 294.92 108.80 295.01
  L 109.81 295.14
  A 0.76 0.75 10.4 0 1 110.46 296.07
  L 110.10 297.51
  Q 109.91 298.29 110.53 297.79
  Z"
/>
<path fill="#0b100b" d="
  M 126.27 301.20
  Q 127.10 301.32 126.80 300.54
  L 125.94 298.29
  A 1.65 1.63 -1.4 0 0 124.88 297.29
  Q 122.03 296.42 119.48 297.71
  A 1.01 1.01 0.0 0 1 118.19 297.38
  L 118.05 297.18
  Q 117.62 296.54 118.30 296.18
  Q 124.19 293.08 128.63 297.79
  A 1.38 1.38 0.0 0 1 129.01 298.74
  L 129.05 308.55
  Q 129.05 309.15 128.45 309.16
  L 127.50 309.16
  Q 126.91 309.17 126.83 308.59
  Q 126.79 308.36 126.78 308.14
  Q 126.75 307.42 126.18 307.87
  C 122.79 310.54 115.58 309.72 116.95 304.21
  C 117.92 300.30 123.16 300.76 126.27 301.20
  Z
  M 119.59 306.66
  C 122.44 309.24 126.38 307.22 126.93 303.72
  Q 127.01 303.22 126.52 303.09
  C 124.37 302.53 120.65 301.88 119.24 304.13
  A 1.99 1.98 37.2 0 0 119.59 306.66
  Z"
/>
<rect fill="#0b100b" x="-1.18" y="-7.01" transform="translate(139.99,302.13) rotate(-0.1)" width="2.36" height="14.02" rx="0.49"/>
<path fill="#0b100b" d="
  M 147.94 307.40
  L 155.46 307.29
  A 0.62 0.62 0.0 0 1 156.09 307.96
  L 156.04 308.58
  Q 156.00 309.16 155.42 309.16
  L 144.83 309.14
  A 0.81 0.81 0.0 0 1 144.21 307.82
  L 152.58 297.61
  A 0.37 0.36 19.3 0 0 152.29 297.02
  L 144.91 297.00
  A 0.82 0.82 0.0 0 1 144.10 296.07
  L 144.15 295.71
  Q 144.22 295.18 144.76 295.17
  L 155.49 295.11
  A 0.69 0.69 0.0 0 1 156.17 295.93
  Q 155.92 297.22 155.14 298.21
  C 154.56 298.94 153.39 299.06 152.96 300.31
  A 1.11 1.07 74.9 0 1 152.79 300.62
  L 147.67 306.84
  Q 147.20 307.41 147.94 307.40
  Z"
/>
<rect fill="#0b100b" x="159.00" y="295.03" width="2.12" height="14.14" rx="0.51"/>
<path fill="#0b100b" d="
  M 168.40 296.55
  Q 172.89 292.88 176.75 297.32
  Q 177.08 297.69 177.09 298.18
  L 177.28 308.42
  A 0.73 0.72 -2.0 0 1 176.58 309.16
  L 175.79 309.18
  Q 175.13 309.20 175.12 308.54
  L 175.08 299.67
  A 2.68 2.68 0.0 0 0 172.42 297.00
  L 171.57 296.99
  Q 167.85 296.95 167.83 300.68
  L 167.80 308.78
  Q 167.80 309.10 167.47 309.11
  L 165.47 309.17
  A 0.45 0.45 0.0 0 1 165.01 308.72
  L 165.00 295.63
  Q 165.00 295.01 165.62 295.04
  L 167.33 295.11
  A 0.59 0.59 0.0 0 1 167.90 295.73
  L 167.88 296.29
  A 0.32 0.32 0.0 0 0 168.40 296.55
  Z"
/>
<path fill="#0b100b" d="
  M 192.27 296.76
  L 192.36 295.56
  Q 192.40 295.01 192.95 295.05
  L 194.19 295.15
  Q 194.62 295.18 194.63 295.61
  C 194.76 301.55 196.04 310.94 190.92 313.19
  Q 186.34 315.19 181.64 312.34
  Q 180.60 311.71 181.42 310.82
  L 181.81 310.40
  A 0.85 0.84 40.9 0 1 182.97 310.32
  Q 183.89 311.11 186.10 311.39
  Q 191.21 312.04 192.33 306.93
  Q 192.71 305.17 191.34 306.33
  C 190.65 306.92 189.67 307.65 188.70 307.88
  C 178.36 310.41 177.61 294.26 187.54 294.98
  C 189.22 295.10 190.37 296.10 191.70 297.03
  Q 192.23 297.40 192.27 296.76
  Z
  M 192.1934 301.8107
  A 4.79 4.68 3.0 0 0 187.6549 296.8864
  A 4.79 4.68 3.0 0 0 182.6266 301.3093
  A 4.79 4.68 3.0 0 0 187.1651 306.2336
  A 4.79 4.68 3.0 0 0 192.1934 301.8107
  Z"
/>
<path fill="#0b100b" d="
  M 230.82 307.74
  Q 230.06 308.08 229.37 308.43
  Q 225.12 310.57 222.36 307.98
  Q 220.61 306.32 221.20 304.17
  C 222.28 300.29 227.37 300.84 230.35 301.15
  Q 231.86 301.31 231.19 299.95
  Q 228.76 295.08 223.61 297.88
  Q 223.28 298.05 223.05 297.76
  L 222.27 296.74
  A 0.28 0.27 -34.2 0 1 222.35 296.34
  Q 224.86 294.89 227.73 294.96
  C 229.03 294.99 229.68 295.62 230.92 296.00
  C 232.43 296.46 233.14 297.68 233.20 299.25
  Q 233.37 303.90 233.33 308.54
  Q 233.33 309.12 232.74 309.12
  L 231.82 309.12
  A 0.57 0.56 -0.5 0 1 231.25 308.57
  L 231.25 308.01
  Q 231.24 307.56 230.82 307.74
  Z
  M 230.78 305.72
  A 1.71 1.71 0.0 0 0 229.75 302.68
  L 225.59 302.58
  A 1.71 1.71 0.0 0 0 224.20 303.24
  L 223.38 304.28
  A 1.71 1.71 0.0 0 0 224.00 306.88
  L 226.41 308.02
  A 1.71 1.71 0.0 0 0 228.21 307.80
  L 230.78 305.72
  Z"
/>
<path fill="#0b100b" d="
  M 242.02 305.84
  Q 243.35 304.67 244.02 302.75
  Q 245.25 299.21 246.27 296.01
  Q 246.49 295.29 247.24 295.16
  L 248.29 294.99
  Q 249.04 294.87 248.78 295.57
  Q 245.58 304.15 243.87 308.44
  C 243.49 309.40 242.57 309.93 242.29 310.76
  Q 240.90 314.92 236.30 313.82
  A 0.71 0.71 0.0 0 1 235.76 313.03
  L 235.97 311.51
  Q 236.06 310.85 236.68 311.10
  Q 239.41 312.20 240.65 309.65
  Q 240.84 309.25 240.67 308.85
  L 235.09 295.98
  Q 234.67 295.02 235.72 295.01
  L 236.10 295.01
  A 1.53 1.52 79.3 0 1 237.52 295.98
  L 241.34 305.68
  Q 241.56 306.24 242.02 305.84
  Z"
/>
<path fill="#0b100b" d="
  M 253.49 296.73
  C 256.63 294.92 259.49 293.71 262.21 296.93
  Q 262.52 297.30 262.86 296.96
  Q 264.39 295.42 265.24 295.22
  C 274.47 293.07 272.75 303.40 272.72 308.64
  Q 272.72 309.17 272.19 309.15
  L 271.11 309.12
  Q 270.61 309.10 270.60 308.61
  L 270.48 299.87
  A 2.90 2.90 0.0 0 0 267.64 297.01
  L 266.66 296.99
  A 3.59 3.59 0.0 0 0 262.99 300.59
  L 263.00 308.47
  Q 263.00 309.19 262.28 309.20
  L 261.76 309.21
  Q 260.96 309.23 260.97 308.42
  Q 261.03 304.69 260.98 300.82
  C 260.92 296.66 256.80 295.79 254.14 298.31
  Q 253.70 298.72 253.67 299.33
  L 253.30 308.40
  Q 253.27 309.07 252.60 309.11
  L 251.75 309.16
  Q 251.06 309.20 251.06 308.50
  L 251.04 295.70
  A 0.64 0.63 -3.0 0 1 251.61 295.07
  Q 252.32 295.01 252.99 295.21
  Q 253.71 295.42 253.36 296.09
  L 253.18 296.44
  Q 252.83 297.11 253.49 296.73
  Z"
/>
<path fill="#0b100b" d="
  M 277.42 303.52
  C 277.99 308.27 283.14 308.76 286.40 306.00
  A 0.58 0.58 0.0 0 1 287.18 306.03
  L 287.38 306.23
  A 0.87 0.86 -46.7 0 1 287.41 307.45
  Q 285.80 309.15 283.23 309.35
  C 271.58 310.24 273.26 293.75 282.86 295.08
  Q 288.41 295.86 288.25 302.63
  Q 288.23 303.15 287.72 303.15
  L 277.75 303.16
  Q 277.38 303.16 277.42 303.52
  Z
  M 277.81 301.88
  L 285.75 301.72
  A 0.37 0.37 0.0 0 0 286.11 301.35
  L 286.10 301.09
  A 4.23 3.86 88.9 0 0 282.16 296.93
  L 281.20 296.95
  A 4.23 3.86 88.9 0 0 277.43 301.25
  L 277.43 301.51
  A 0.37 0.37 0.0 0 0 277.81 301.88
  Z"
/>
<path fill="#0b100b" d="
  M 293.37 296.90
  C 297.43 293.55 302.86 294.36 302.99 300.38
  Q 303.08 304.52 303.03 308.57
  Q 303.03 309.15 302.45 309.17
  L 301.74 309.20
  A 0.72 0.71 -0.8 0 1 301.00 308.49
  L 301.02 300.59
  A 3.59 3.58 89.3 0 0 297.34 296.99
  L 296.70 297.00
  A 3.80 3.80 0.0 0 0 293.00 300.80
  L 293.00 308.47
  A 0.74 0.73 -0.8 0 1 292.28 309.20
  L 291.75 309.21
  Q 291.02 309.23 291.02 308.50
  L 291.02 295.75
  Q 291.02 295.02 291.75 295.01
  L 292.25 295.00
  A 0.75 0.75 0.0 0 1 293.01 295.75
  L 293.01 296.73
  Q 293.01 297.19 293.37 296.90
  Z"
/>
<path fill="#0b100b" d="
  M 318.51 299.89
  A 1.93 1.93 0.0 0 0 320.01 301.03
  Q 322.88 301.43 325.34 302.98
  Q 325.80 303.26 325.98 303.76
  C 326.99 306.49 325.82 308.77 322.90 309.27
  Q 319.07 309.93 315.83 307.78
  Q 315.52 307.57 315.69 307.24
  L 316.19 306.22
  A 0.38 0.38 0.0 0 1 316.76 306.08
  C 318.44 307.27 322.07 308.63 323.85 306.78
  A 1.63 1.63 0.0 0 0 323.22 304.12
  C 321.93 303.66 321.11 303.21 319.58 302.93
  C 316.04 302.28 314.68 298.40 317.57 296.07
  C 320.17 293.97 322.78 295.19 325.53 296.11
  Q 326.18 296.33 325.95 296.98
  Q 325.74 297.58 325.18 297.85
  Q 324.71 298.08 324.28 297.78
  Q 322.54 296.54 320.22 296.84
  Q 317.34 297.20 318.51 299.89
  Z"
/>
</svg>
