<?xml version="1.0" encoding="utf-8" ?>
<svg xmlns="http://www.w3.org/2000/svg" xmlns:xlink="http://www.w3.org/1999/xlink" width="1491" height="387">
	<path fill="#164294" d="M871.354 3.27287C878.597 2.23478 886.78 2.87033 894.118 2.84531C913.2 2.78022 932.538 0.857936 948.826 12.772C959.597 20.6504 966.412 32.1336 968.447 45.2811C970.993 61.7341 969.33 79.7739 969.39 96.4377C969.442 111.073 970.722 126.601 969.255 141.107C969.118 142.463 968.785 143.469 967.973 144.581C968.529 144.274 969.082 143.928 969.595 143.552C974.947 139.621 987.287 122.829 992.433 116.65L1056.68 39.5027C1061.21 34.07 1081.15 12.1717 1081.78 8.08892L1199.29 8.05323C1199.24 8.41941 1199.17 8.78189 1199.07 9.13713C1198.1 12.377 1082.05 138.656 1073.17 147.94C1071.84 149.331 1070.51 150.506 1068.82 151.445L1069.11 151.685C1073 154.932 1161.91 308.699 1162.17 311.544C1162.4 311.701 1162.62 311.867 1162.83 312.056C1166.18 315.074 1197 369.234 1200.74 376.552C1201.13 377.322 1201.22 378.151 1201.24 379.005C1162.56 379.486 1123.81 379.049 1085.11 379.066C1085.14 378.335 1085.12 377.552 1084.83 376.87C1082.38 371.132 1078.7 365.494 1075.67 360.022L1056.66 325.759Q1038.83 293.698 1020.56 261.889C1013.65 249.897 1006.79 236.831 998.584 225.717C996.904 223.442 994.781 221.368 992.077 220.391C988.434 219.076 984.26 220 980.856 221.588C976.546 223.599 971.83 227.221 970.092 231.803C966.779 240.539 968.591 339.138 968.607 355.751C968.612 361.128 969.857 374.21 968.043 378.708C967.999 378.815 967.952 378.921 967.906 379.028L870.995 379.099C871.247 378.682 871.458 378.25 871.648 377.802C872.765 375.168 873.189 40.7735 872.172 7.28005C872.128 5.82775 871.904 4.62633 871.354 3.27287Z"/>
	<path fill="#164294" d="M1190.2 104.781C1190.23 104.736 1190.27 104.692 1190.29 104.646C1190.34 104.569 1190.39 104.49 1190.43 104.413C1193.07 100.167 1193.38 93.4089 1194.69 88.4958C1198.93 72.6793 1207.82 57.6404 1218.78 45.5667C1246.16 15.4135 1289.19 5.0239 1328.44 3.18042C1373.54 1.06188 1428.81 7.5053 1463.44 39.0535C1481.84 55.8177 1489.06 74.5377 1490.19 99.0511L1490.81 99.0512C1492.04 129.924 1490.98 161.238 1491 192.148L1491.02 231.384C1491.02 238.325 1491.47 245.647 1490.79 252.542C1491.97 278.075 1491.05 304.064 1491.05 329.644C1491.06 347.087 1492.29 366.53 1490.89 383.717C1490.8 384.836 1490.32 386.049 1489.73 387L1340.07 387L1283.97 387L1283.97 386.398Q1283.45 386.401 1282.94 386.375C1255.85 384.875 1229.08 370.777 1211.2 350.728C1184.26 320.522 1181.47 283.247 1183.79 244.608C1184.89 226.396 1192.92 209.004 1204.94 195.412C1233.01 163.679 1275.67 154.389 1315.92 150.096C1341 147.422 1370.58 147.419 1390.57 129.517C1396.63 124.089 1400.34 117.602 1400.77 109.39C1401.12 102.665 1398.49 96.3459 1393.98 91.3663C1384 80.3206 1364.21 77.6184 1350.13 76.9931C1332.13 76.1936 1306.34 77.0866 1292.51 90.7801C1288.41 94.8424 1286.28 101.067 1282.26 104.692C1282.22 104.729 1282.18 104.766 1282.14 104.803L1190.2 104.781ZM1400.23 193.864L1400.03 194.012C1367.85 217.625 1280.87 208.243 1273.19 256.925C1271.2 269.565 1275.06 280.133 1282.51 290.232C1283.56 291.654 1286.29 294.344 1286.67 295.926C1291.18 298.573 1295.22 302.007 1299.88 304.4C1312.92 311.101 1330.02 310.629 1343.86 307.038C1363.68 301.892 1379.66 287.608 1389.85 270.202C1401.75 249.85 1401.12 234.853 1401.35 212.204C1401.4 207.32 1402.45 199.938 1401.18 195.404C1400.97 194.643 1400.79 194.405 1400.23 193.864ZM1490.17 252.542C1488.69 288.036 1475.7 324.226 1449.09 348.696C1420.62 374.88 1378.25 387.065 1340.08 386.377L1340.07 387L1489.73 387C1490.32 386.049 1490.8 384.836 1490.89 383.717C1492.29 366.53 1491.06 347.087 1491.05 329.644C1491.05 304.064 1491.97 278.075 1490.79 252.542L1490.17 252.542ZM1490.19 99.0511L1490.17 252.542L1490.79 252.542C1491.47 245.647 1491.02 238.325 1491.02 231.384L1491 192.148C1490.98 161.238 1492.04 129.924 1490.81 99.0512L1490.19 99.0511ZM1283.97 386.398L1283.97 387L1340.07 387L1340.08 386.377C1334.74 385.352 1327.82 386.147 1322.34 386.158C1309.56 386.182 1296.74 385.988 1283.97 386.398Z"/>
	<path fill="#164294" fill-opacity="0.84313726" d="M1283.97 386.398C1296.74 385.988 1309.56 386.182 1322.34 386.158C1327.82 386.147 1334.74 385.352 1340.08 386.377L1340.07 387L1283.97 387L1283.97 386.398Z"/>
	<path d="M1490.19 99.0511L1490.81 99.0512C1492.04 129.924 1490.98 161.238 1491 192.148L1491.02 231.384C1491.02 238.325 1491.47 245.647 1490.79 252.542L1490.17 252.542L1490.19 99.0511Z"/>
	<path fill="#164294" d="M663.769 0L708.696 0C712.289 0.970744 716.625 1.0103 720.349 1.605Q733.553 3.59653 746.307 7.54818C785.247 19.7105 818.402 48.4255 837.248 84.413Q839.961 89.6438 842.279 95.0605Q844.598 100.477 846.51 106.05Q848.422 111.623 849.916 117.322Q851.411 123.021 852.48 128.815C856.375 150.34 855.436 172.679 855.456 194.458C855.471 211.473 856.083 228.796 854.294 245.738Q853.541 253.001 852.078 260.156Q850.616 267.31 848.459 274.287Q847.885 276.166 847.264 278.031Q846.644 279.895 845.977 281.744Q845.31 283.592 844.597 285.423Q843.884 287.255 843.126 289.067Q842.367 290.88 841.564 292.674Q840.76 294.467 839.912 296.24Q839.064 298.013 838.172 299.764Q837.28 301.515 836.345 303.243Q835.409 304.971 834.431 306.676Q833.452 308.38 832.432 310.06Q831.411 311.739 830.349 313.393Q829.286 315.047 828.183 316.673Q827.08 318.3 825.937 319.898Q824.793 321.497 823.61 323.066Q822.427 324.636 821.205 326.175Q819.983 327.715 818.723 329.223Q817.463 330.732 816.166 332.209Q814.869 333.685 813.535 335.129Q812.201 336.573 810.832 337.983Q809.462 339.393 808.058 340.769Q806.654 342.145 805.216 343.485Q803.778 344.825 802.307 346.129Q800.836 347.433 799.332 348.7Q797.829 349.966 796.295 351.195Q794.76 352.424 793.196 353.614Q791.631 354.805 790.037 355.956Q788.444 357.107 786.822 358.217Q785.199 359.328 783.55 360.398Q781.901 361.468 780.225 362.497Q778.55 363.525 776.849 364.512Q775.148 365.498 773.424 366.442Q771.699 367.386 769.951 368.286C730.421 388.815 671.028 391.715 628.635 378.293Q626.806 377.703 624.993 377.069Q623.179 376.435 621.382 375.756Q619.584 375.078 617.804 374.356Q616.023 373.634 614.261 372.868Q612.499 372.103 610.756 371.295Q609.013 370.487 607.29 369.637Q605.567 368.786 603.866 367.894Q602.164 367.002 600.485 366.069Q598.806 365.135 597.15 364.161Q595.495 363.187 593.863 362.173Q592.232 361.159 590.625 360.105Q589.019 359.051 587.439 357.959Q585.859 356.866 584.306 355.735Q582.754 354.604 581.229 353.436Q579.704 352.268 578.208 351.062Q576.713 349.857 575.247 348.616Q573.781 347.374 572.346 346.098Q570.911 344.821 569.508 343.509Q568.104 342.198 566.734 340.853Q565.363 339.507 564.025 338.129Q562.687 336.751 561.384 335.34Q560.08 333.93 558.812 332.488Q557.543 331.046 556.31 329.573Q555.077 328.101 553.88 326.599Q552.684 325.096 551.524 323.565Q550.365 322.035 549.243 320.476Q548.121 318.917 547.037 317.331Q545.954 315.746 544.91 314.134Q543.865 312.523 542.861 310.886Q541.856 309.249 540.892 307.589Q539.928 305.928 539.004 304.244Q538.081 302.561 537.199 300.855Q534.344 295.295 531.937 289.528Q529.529 283.761 527.583 277.822Q525.637 271.884 524.164 265.81Q522.692 259.737 521.702 253.567C518.201 231.829 519.709 208.662 519.711 186.648C519.713 171.743 518.866 156.295 520.292 141.478Q521.086 133.308 522.743 125.269Q524.401 117.23 526.903 109.412Q527.615 107.184 528.393 104.979Q529.172 102.773 530.015 100.591Q530.859 98.4098 531.766 96.2542Q532.674 94.0986 533.646 91.9709Q534.617 89.8431 535.652 87.7452Q536.686 85.6473 537.782 83.5809Q538.878 81.5146 540.036 79.4817Q541.193 77.4488 542.41 75.4512Q543.627 73.4535 544.903 71.4928Q546.179 69.5322 547.512 67.6103Q548.846 65.6883 550.236 63.8068Q551.626 61.9253 553.072 60.0858Q554.517 58.2464 556.017 56.4506Q557.516 54.6549 559.068 52.9044Q560.62 51.154 562.224 49.4504Q563.827 47.7467 565.481 46.0914Q567.134 44.4361 568.836 42.8306Q570.538 41.2251 572.287 39.6708Q574.036 38.1165 575.83 36.6148Q577.625 35.1131 579.463 33.6653Q581.301 32.2175 583.181 30.8248Q585.062 29.4322 586.982 28.096Q588.903 26.7597 590.863 25.4811Q592.823 24.2025 594.82 22.9825Q596.817 21.7626 598.849 20.6025Q600.881 19.4423 602.947 18.343Q605.013 17.2437 607.111 16.2062Q609.208 15.1686 611.336 14.1938Q613.463 13.219 615.619 12.3077Q617.775 11.3964 619.956 10.5495Q622.138 9.70258 624.344 8.92077Q626.55 8.13897 628.778 7.42296C635.882 5.20091 643.428 3.11239 650.805 2.1017C654.305 1.62221 660.577 1.77725 663.544 0.130878C663.62 0.0887938 663.694 0.043626 663.769 0ZM682.47 81.8363C661.075 84.1543 641.965 93.0153 628.309 110.029Q627.014 111.639 625.812 113.319Q624.609 114.998 623.502 116.742Q622.394 118.486 621.386 120.289Q620.378 122.092 619.472 123.949Q618.566 125.805 617.765 127.709Q616.964 129.613 616.27 131.558Q615.577 133.504 614.993 135.485Q614.409 137.466 613.936 139.477C609.801 157.163 611.739 177.258 611.688 195.373C611.65 209.11 610.784 223.412 612.32 237.049Q612.529 238.915 612.83 240.768Q613.131 242.621 613.524 244.457Q613.917 246.293 614.401 248.107Q614.885 249.921 615.458 251.709Q616.031 253.497 616.693 255.254Q617.354 257.011 618.103 258.734Q618.851 260.456 619.683 262.139Q620.516 263.822 621.432 265.461Q622.347 267.101 623.343 268.693Q624.339 270.285 625.413 271.826Q626.486 273.366 627.635 274.852Q628.785 276.337 630.006 277.764Q631.227 279.19 632.518 280.555Q633.809 281.919 635.166 283.217Q636.524 284.516 637.944 285.745Q639.364 286.975 640.843 288.132C654.828 299.251 672.212 304.613 689.988 304.049C709.319 303.833 728.14 294.938 741.536 281.21C764.706 257.466 763.268 232.47 763.127 201.673C763.062 187.409 763.351 173.119 763.144 158.861C762.835 137.66 755.544 118.039 740.157 103.091Q738.802 101.78 737.384 100.537Q735.966 99.2948 734.489 98.1237Q733.011 96.9527 731.477 95.8561Q729.943 94.7595 728.357 93.74Q726.771 92.7205 725.136 91.7805Q723.502 90.8406 721.822 89.9825Q720.143 89.1245 718.424 88.3504Q716.704 87.5763 714.948 86.8881Q713.193 86.1999 711.405 85.5993Q709.617 84.9986 707.802 84.487Q705.987 83.9754 704.149 83.554Q702.31 83.1327 700.454 82.8026Q698.597 82.4726 696.726 82.2346Q694.855 81.9967 692.974 81.8515Q691.094 81.7062 689.209 81.654Q687.324 81.6018 685.438 81.6428Q683.949 81.6682 682.47 81.8363Z"/>
	<path fill="#164294" d="M0 0L131.865 0L162.004 0L344.588 0L374.788 0C383.622 1.74288 392.568 2.0762 401.402 4.18777C432.613 11.6474 458.381 31.4589 476.11 57.8805Q478.714 61.763 481.112 65.7768Q483.509 69.7905 485.692 73.9243Q487.875 78.0582 489.838 82.3007Q491.801 86.5433 493.538 90.883Q495.276 95.2226 496.783 99.6474Q498.291 104.072 499.564 108.57Q500.837 113.067 501.872 117.626Q502.907 122.184 503.701 126.79C505.757 138.295 506.673 149.806 507.105 161.465C507.796 180.133 507.371 198.925 507.364 217.612L507.347 315.839L507.374 359.49C507.374 364.649 508.26 372.067 507.137 376.969C506.967 377.71 506.662 378.383 506.332 379.063L470.366 379.102C447.66 379.17 428.26 379.637 411.061 362.504C397.035 348.531 394.195 332.319 394.202 313.299L394.311 179.619C394.314 160.796 396.134 129.492 392.799 111.887C391.126 103.051 387.175 94.8625 380.797 88.4376C372.477 80.0563 362.113 77.1054 350.602 77.115C337.455 77.1259 324.704 81.3463 315.321 90.8202C308.443 97.7643 304.186 106.451 302.573 116.068C300.735 127.025 301.467 138.687 301.471 149.777L301.502 200.424L301.532 379.026C269.491 379.04 237.39 378.644 205.356 379.079L205.399 199.134L205.395 150.496C205.392 137.91 206.145 125.025 203.803 112.605C202.278 104.521 197.359 96.561 191.57 90.7861C182.247 81.4853 169.672 77.0542 156.612 77.0848C145.272 77.1113 134.349 80.1505 126.115 88.3707C119.501 94.9736 114.85 104.833 113.427 114.103C111.967 123.622 112.768 134.19 112.769 143.846L112.809 197.512L112.847 377.374L112.856 379.023L0 379.023L0 150.213L0 0ZM0 0L0 150.213C1.81524 142.674 1.93598 134.276 3.31152 126.56C7.60582 102.469 16.7374 78.4206 30.44 58.0813C48.2552 31.6377 73.7522 11.83 105.045 4.30782C113.944 2.1686 122.949 1.73287 131.865 0L0 0ZM162.004 0C169.756 1.39646 177.644 1.87178 185.42 3.26654C210.133 7.69927 235.253 17.3975 253.439 35.2175C272.506 17.2502 296.507 7.60806 322.127 3.1666C329.345 1.91527 337.705 1.92855 344.588 0L162.004 0Z"/>
</svg>
