<?xml version="1.0" encoding="UTF-8"?>
<!DOCTYPE svg PUBLIC "-//W3C//DTD SVG 1.1//EN" "http://www.w3.org/Graphics/SVG/1.1/DTD/svg11.dtd">
<svg xmlns="http://www.w3.org/2000/svg" version="1.1" width="410px" height="250px" style="shape-rendering:geometricPrecision; text-rendering:geometricPrecision; image-rendering:optimizeQuality; fill-rule:evenodd; clip-rule:evenodd" xmlns:xlink="http://www.w3.org/1999/xlink">
<g><path style="opacity:0.122" fill="#a3a0cf" d="M 90.5,165.5 C 91.1667,165.5 91.8333,165.5 92.5,165.5C 92.5,165.833 92.5,166.167 92.5,166.5C 91.8174,167.644 92.1507,167.644 93.5,166.5C 94.1667,166.5 94.5,166.833 94.5,167.5C 95.5676,168.434 96.901,168.768 98.5,168.5C 101.206,168.425 103.873,168.092 106.5,167.5C 107.514,168.765 109.014,169.431 111,169.5C 112.707,169.492 114.207,169.158 115.5,168.5C 118.557,166.813 121.557,165.813 124.5,165.5C 127.316,167.217 129.483,166.551 131,163.5C 131.414,163.957 131.914,164.291 132.5,164.5C 137.082,163.05 140.082,160.05 141.5,155.5C 143.772,154.559 145.772,153.226 147.5,151.5C 147.291,150.914 146.957,150.414 146.5,150C 148.233,148.462 149.9,146.962 151.5,145.5C 152.76,142.283 154.093,139.116 155.5,136C 154.833,135.667 154.167,135.333 153.5,135C 154.667,134.5 155.5,133.667 156,132.5C 156.839,125.433 156.506,118.433 155,111.5C 152.266,110.638 152.099,109.805 154.5,109C 152.875,108.147 152.542,107.147 153.5,106C 150.456,105.641 150.122,104.974 152.5,104C 149.456,103.641 149.122,102.974 151.5,102C 150.167,100 148.5,98.3333 146.5,97C 146.833,96.6667 147.167,96.3333 147.5,96C 145.011,92.3119 141.678,90.1452 137.5,89.5C 132.792,84.8079 127.125,81.6412 120.5,80C 112.302,77.8596 104.302,78.0263 96.5,80.5C 81.3344,84.9988 71.0011,94.6655 65.5,109.5C 65.5674,110.959 65.2341,112.292 64.5,113.5C 64.5,119.5 64.5,125.5 64.5,131.5C 63.0092,128.814 62.3425,125.814 62.5,122.5C 62.9475,118.812 63.1141,115.146 63,111.5C 62.7811,112.938 62.2811,114.271 61.5,115.5C 61.146,103.589 65.4794,93.589 74.5,85.5C 89.2722,72.7076 106.272,68.8742 125.5,74C 153.624,84.3978 165.79,104.564 162,134.5C 154.106,162.084 135.94,175.917 107.5,176C 103.186,170.562 97.5196,167.896 90.5,168C 89.4019,167.23 89.4019,166.397 90.5,165.5 Z"/></g>
<g><path style="opacity:0.996" fill="#82c5ea" d="M 137.5,89.5 C 139.252,91.2459 140.585,93.2459 141.5,95.5C 137.572,92.2844 133.739,88.951 130,85.5C 126.779,83.4698 123.279,82.4698 119.5,82.5C 111.947,80.7982 104.28,80.1315 96.5,80.5C 104.302,78.0263 112.302,77.8596 120.5,80C 127.125,81.6412 132.792,84.8079 137.5,89.5 Z"/></g>
<g><path style="opacity:1" fill="#9b6fac" d="M 132.5,132.5 C 134.199,123.782 133.199,115.449 129.5,107.5C 127.562,101.716 123.896,97.2157 118.5,94C 115.363,92.6783 112.196,91.5116 109,90.5C 104.325,90.7131 99.492,91.0465 94.5,91.5C 101.533,87.8632 108.866,87.5299 116.5,90.5C 120.421,93.0434 124.254,95.7101 128,98.5C 133.223,108.497 135.223,119.164 134,130.5C 133.722,131.416 133.222,132.082 132.5,132.5 Z"/></g>
<g><path style="opacity:0.847" fill="#201f20" d="M 183.5,102.5 C 201.778,103.73 209.612,113.397 207,131.5C 202.184,143.492 193.351,148.659 180.5,147C 164.592,139.942 160.092,128.442 167,112.5C 171.145,106.688 176.645,103.354 183.5,102.5 Z M 183.5,115.5 C 190.589,114.755 194.589,117.922 195.5,125C 193.448,133.103 188.448,135.77 180.5,133C 176.725,129.061 175.891,124.561 178,119.5C 179.5,117.531 181.333,116.198 183.5,115.5 Z"/></g>
<g><path style="opacity:0.831" fill="#201f20" d="M 272.5,102.5 C 285.459,101.645 293.959,107.312 298,119.5C 298.667,128.167 298.667,136.833 298,145.5C 293.38,148.109 288.713,148.109 284,145.5C 276.174,148.575 268.674,147.741 261.5,143C 250.347,130.058 251.014,117.724 263.5,106C 266.571,104.704 269.571,103.538 272.5,102.5 Z M 272.5,115.5 C 284.096,115.847 287.429,121.347 282.5,132C 271.633,136.792 266.466,133.292 267,121.5C 268.021,118.65 269.854,116.65 272.5,115.5 Z"/></g>
<g><path style="opacity:0.842" fill="#212021" d="M 323.5,102.5 C 333.877,101.672 341.711,105.672 347,114.5C 348.403,125.102 348.903,135.769 348.5,146.5C 346.192,146.914 343.858,147.247 341.5,147.5C 339.307,147.674 337.473,147.007 336,145.5C 335.667,137.167 335.333,128.833 335,120.5C 331.13,115.437 326.296,114.27 320.5,117C 318.959,118.579 317.792,120.413 317,122.5C 316.832,130.521 316.332,138.521 315.5,146.5C 311.853,147.648 308.186,147.648 304.5,146.5C 304.5,132.5 304.5,118.5 304.5,104.5C 308.437,104.207 312.27,104.54 316,105.5C 318.48,104.188 320.98,103.188 323.5,102.5 Z"/></g>
<g><path style="opacity:0.827" fill="#232123" d="M 211.5,104.5 C 223.833,104.5 236.167,104.5 248.5,104.5C 248.665,107.85 248.498,111.183 248,114.5C 241.837,121.662 235.337,128.496 228.5,135C 235.158,135.5 241.825,135.666 248.5,135.5C 249.044,139.673 248.377,143.506 246.5,147C 234.787,147.812 223.12,147.645 211.5,146.5C 210.343,143.216 210.176,139.882 211,136.5C 217.282,130.096 223.449,123.596 229.5,117C 223.782,116.789 218.115,116.289 212.5,115.5C 211.511,111.893 211.177,108.226 211.5,104.5 Z"/></g>
<g><path style="opacity:1" fill="#9278b1" d="M 129.5,96.5 C 131.267,98.9384 132.601,101.605 133.5,104.5C 138.682,119.556 136.682,133.556 127.5,146.5C 115.414,159.02 101.414,161.686 85.5,154.5C 79.7289,150.266 75.3956,144.933 72.5,138.5C 69.5718,122.884 72.9052,108.884 82.5,96.5C 84.528,95.451 86.528,94.451 88.5,93.5C 80.8585,99.7795 76.0252,107.78 74,117.5C 70.9503,132.888 75.7836,145.054 88.5,154C 92.8666,155.645 97.3666,156.812 102,157.5C 106.677,156.976 111.177,155.809 115.5,154C 118.386,152.615 120.386,150.449 121.5,147.5C 124.498,144.333 127.331,141 130,137.5C 131.009,135.975 131.509,134.308 131.5,132.5C 131.833,132.5 132.167,132.5 132.5,132.5C 133.222,132.082 133.722,131.416 134,130.5C 135.223,119.164 133.223,108.497 128,98.5C 124.254,95.7101 120.421,93.0434 116.5,90.5C 108.866,87.5299 101.533,87.8632 94.5,91.5C 93.5,91.5 92.5,91.5 91.5,91.5C 91.3691,90.6236 91.7025,89.9569 92.5,89.5C 101.564,86.6713 110.564,86.838 119.5,90C 122.72,92.4367 126.053,94.6033 129.5,96.5 Z M 119.5,106.5 C 120.984,108.074 122.651,109.407 124.5,110.5C 124.062,110.435 123.728,110.601 123.5,111C 124.527,111.513 125.527,112.013 126.5,112.5C 126.285,114.179 126.952,115.179 128.5,115.5C 128.5,115.833 128.5,116.167 128.5,116.5C 130.745,125.079 129.079,132.746 123.5,139.5C 121.859,140.147 120.526,141.147 119.5,142.5C 119.44,141.957 119.107,141.624 118.5,141.5C 116.974,141.994 115.641,142.661 114.5,143.5C 110.803,142.992 107.136,142.326 103.5,141.5C 101.364,138.247 98.6969,134.914 95.5,131.5C 95.5,126.833 95.5,122.167 95.5,117.5C 97.6943,112.763 101.028,109.096 105.5,106.5C 110.471,105.265 115.138,105.265 119.5,106.5 Z"/></g>
<g><path style="opacity:0.076" fill="#b84a94" d="M 109.5,94.5 C 112.895,93.9435 115.062,95.2768 116,98.5C 116.667,95.8333 117.333,95.8333 118,98.5C 118.333,98.1667 118.667,97.8333 119,97.5C 119.333,98.5 119.667,99.5 120,100.5C 121.84,99.1669 122.34,99.3335 121.5,101C 124.399,103.084 127.066,105.251 129.5,107.5C 133.199,115.449 134.199,123.782 132.5,132.5C 132.167,132.5 131.833,132.5 131.5,132.5C 131.167,132.5 130.833,132.5 130.5,132.5C 130.5,131.833 130.5,131.167 130.5,130.5C 131.833,125.833 131.833,121.167 130.5,116.5C 130.5,115.5 130.5,114.5 130.5,113.5C 129.836,111.513 128.669,109.846 127,108.5C 126.667,108.833 126.333,109.167 126,109.5C 116.681,101.564 107.348,101.564 98,109.5C 92.6116,116.333 91.4449,123.666 94.5,131.5C 94.9289,135.024 96.4289,138.024 99,140.5C 100.356,141.38 101.856,141.714 103.5,141.5C 106.937,143.948 110.603,144.615 114.5,143.5C 116.259,144.261 117.926,143.928 119.5,142.5C 120.526,141.147 121.859,140.147 123.5,139.5C 124.116,140.202 124.116,141.202 123.5,142.5C 120.976,143.927 118.31,145.094 115.5,146C 115.833,146.333 116.167,146.667 116.5,147C 107.674,149.335 99.8408,147.502 93,141.5C 92.3333,142.833 91.6667,142.833 91,141.5C 85.8203,133.953 84.1536,125.619 86,116.5C 87.836,111.178 90.6693,106.511 94.5,102.5C 94.8333,102.5 95.1667,102.5 95.5,102.5C 98.4769,101.929 101.31,100.929 104,99.5C 105.626,99.8541 107.459,99.8541 109.5,99.5C 109.5,97.8333 109.5,96.1667 109.5,94.5 Z"/></g>
<g><path style="opacity:0.02" fill="#9e4a86" d="M 130.5,113.5 C 129.596,114.209 129.263,115.209 129.5,116.5C 129.167,116.5 128.833,116.5 128.5,116.5C 128.5,116.167 128.5,115.833 128.5,115.5C 128.068,114.29 127.401,113.29 126.5,112.5C 126.5,111.167 125.833,110.5 124.5,110.5C 122.651,109.407 120.984,108.074 119.5,106.5C 114.833,103.833 110.167,103.833 105.5,106.5C 101.028,109.096 97.6943,112.763 95.5,117.5C 93.2136,121.897 92.8803,126.564 94.5,131.5C 91.4449,123.666 92.6116,116.333 98,109.5C 107.348,101.564 116.681,101.564 126,109.5C 126.333,109.167 126.667,108.833 127,108.5C 128.669,109.846 129.836,111.513 130.5,113.5 Z"/></g>
<g><path style="opacity:1" fill="#6591c4" d="M 96.5,80.5 C 104.28,80.1315 111.947,80.7982 119.5,82.5C 120.167,83.1667 120.833,83.8333 121.5,84.5C 131.222,89.2222 138.222,96.5555 142.5,106.5C 142.5,107.833 142.5,109.167 142.5,110.5C 142.761,116.52 142.928,122.52 143,128.5C 141.798,135.854 138.631,142.188 133.5,147.5C 134.19,143.616 135.857,140.116 138.5,137C 141.489,128.694 142.155,120.194 140.5,111.5C 137.011,104.52 133.011,97.8538 128.5,91.5C 111.154,78.8729 94.4872,79.7062 78.5,94C 75.7272,96.3834 73.5605,99.2167 72,102.5C 69.4707,108.578 67.9707,114.911 67.5,121.5C 67.5,122.833 67.5,124.167 67.5,125.5C 66.6773,122.023 66.1773,118.356 66,114.5C 65.6174,113.944 65.1174,113.611 64.5,113.5C 65.2341,112.292 65.5674,110.959 65.5,109.5C 71.0011,94.6655 81.3344,84.9988 96.5,80.5 Z"/></g>
<g><path style="opacity:1" fill="#847fb6" d="M 129.5,96.5 C 126.053,94.6033 122.72,92.4367 119.5,90C 110.564,86.838 101.564,86.6713 92.5,89.5C 91.7025,89.9569 91.3691,90.6236 91.5,91.5C 89.9731,91.427 88.9731,92.0937 88.5,93.5C 86.528,94.451 84.528,95.451 82.5,96.5C 72.9052,108.884 69.5718,122.884 72.5,138.5C 69.913,133.253 68.5797,127.586 68.5,121.5C 70.5608,114.406 73.0608,107.406 76,100.5C 77.8123,97.7198 79.979,95.2198 82.5,93C 86.0705,91.8814 89.4039,90.2147 92.5,88C 103.145,83.2384 113.479,83.9051 123.5,90C 126.189,91.5954 128.189,93.762 129.5,96.5 Z"/></g>
<g><path style="opacity:1" fill="#8780b7" d="M 133.5,104.5 C 138.438,108.637 140.438,113.97 139.5,120.5C 135.967,148.382 120.3,161.715 92.5,160.5C 90.9812,159.59 89.3146,158.757 87.5,158C 86.1772,157.184 85.5106,156.017 85.5,154.5C 101.414,161.686 115.414,159.02 127.5,146.5C 136.682,133.556 138.682,119.556 133.5,104.5 Z"/></g>
<g><path style="opacity:0.425" fill="#99a4d3" d="M 137.5,89.5 C 141.678,90.1452 145.011,92.3119 147.5,96C 147.167,96.3333 146.833,96.6667 146.5,97C 148.5,98.3333 150.167,100 151.5,102C 149.122,102.974 149.456,103.641 152.5,104C 150.122,104.974 150.456,105.641 153.5,106C 152.542,107.147 152.875,108.147 154.5,109C 152.099,109.805 152.266,110.638 155,111.5C 156.506,118.433 156.839,125.433 156,132.5C 155.5,133.667 154.667,134.5 153.5,135C 154.167,135.333 154.833,135.667 155.5,136C 154.093,139.116 152.76,142.283 151.5,145.5C 149.9,146.962 148.233,148.462 146.5,150C 146.957,150.414 147.291,150.914 147.5,151.5C 145.772,153.226 143.772,154.559 141.5,155.5C 140.082,160.05 137.082,163.05 132.5,164.5C 131.914,164.291 131.414,163.957 131,163.5C 129.483,166.551 127.316,167.217 124.5,165.5C 136.64,158.86 145.473,149.193 151,136.5C 155.082,120.915 151.916,107.249 141.5,95.5C 140.585,93.2459 139.252,91.2459 137.5,89.5 Z"/></g>
<g><path style="opacity:0.012" fill="#aa88be" d="M 60.5,116.5 C 61.8333,117.167 61.8333,117.167 60.5,116.5 Z"/></g>
<g><path style="opacity:0.012" fill="#aa88be" d="M 95.5,117.5 C 95.5,122.167 95.5,126.833 95.5,131.5C 95.1667,131.5 94.8333,131.5 94.5,131.5C 92.8803,126.564 93.2136,121.897 95.5,117.5 Z"/></g>
<g><path style="opacity:0.969" fill="#5abfea" d="M 119.5,82.5 C 123.279,82.4698 126.779,83.4698 130,85.5C 133.739,88.951 137.572,92.2844 141.5,95.5C 151.916,107.249 155.082,120.915 151,136.5C 145.473,149.193 136.64,158.86 124.5,165.5C 121.557,165.813 118.557,166.813 115.5,168.5C 113.473,168.662 111.473,168.495 109.5,168C 108.944,167.617 108.611,167.117 108.5,166.5C 110.265,165.539 112.265,165.205 114.5,165.5C 132.988,161.846 144.488,150.846 149,132.5C 150.68,121.772 149.18,111.605 144.5,102C 139.763,97.4937 135.096,92.827 130.5,88C 127.937,85.7186 124.937,84.5519 121.5,84.5C 120.833,83.8333 120.167,83.1667 119.5,82.5 Z"/></g>
<g><path style="opacity:1" fill="#a966a6" d="M 78.5,112.5 C 78.5,114.167 78.5,115.833 78.5,117.5C 74.7231,132.121 79.3897,143.288 92.5,151C 95.0627,152.079 97.7294,152.579 100.5,152.5C 103.167,152.5 105.833,152.5 108.5,152.5C 93.3815,156.017 82.8815,150.351 77,135.5C 74.8647,127.554 75.3647,119.887 78.5,112.5 Z"/></g>
<g><path style="opacity:1" fill="#778abf" d="M 133.5,147.5 C 129.467,151.507 125.467,155.507 121.5,159.5C 120.167,159.833 118.833,160.167 117.5,160.5C 109.242,162.672 100.909,163.005 92.5,161.5C 92.5,161.167 92.5,160.833 92.5,160.5C 120.3,161.715 135.967,148.382 139.5,120.5C 140.438,113.97 138.438,108.637 133.5,104.5C 132.601,101.605 131.267,98.9384 129.5,96.5C 128.189,93.762 126.189,91.5954 123.5,90C 113.479,83.9051 103.145,83.2384 92.5,88C 89.4039,90.2147 86.0705,91.8814 82.5,93C 79.979,95.2198 77.8123,97.7198 76,100.5C 73.0608,107.406 70.5608,114.406 68.5,121.5C 68.1667,121.5 67.8333,121.5 67.5,121.5C 67.9707,114.911 69.4707,108.578 72,102.5C 73.5605,99.2167 75.7272,96.3834 78.5,94C 94.4872,79.7062 111.154,78.8729 128.5,91.5C 133.011,97.8538 137.011,104.52 140.5,111.5C 142.155,120.194 141.489,128.694 138.5,137C 135.857,140.116 134.19,143.616 133.5,147.5 Z"/></g>
<g><path style="opacity:0.012" fill="#aa88be" d="M 126.5,112.5 C 127.401,113.29 128.068,114.29 128.5,115.5C 126.952,115.179 126.285,114.179 126.5,112.5 Z"/></g>
<g><path style="opacity:0.012" fill="#aa88be" d="M 124.5,110.5 C 125.833,110.5 126.5,111.167 126.5,112.5C 125.527,112.013 124.527,111.513 123.5,111C 123.728,110.601 124.062,110.435 124.5,110.5 Z"/></g>
<g><path style="opacity:0.996" fill="#e9aecb" d="M 93.5,99.5 C 92.537,100.363 92.537,101.03 93.5,101.5C 95.323,100.253 97.323,99.5861 99.5,99.5C 98.1667,100.5 96.8333,101.5 95.5,102.5C 95.1667,102.5 94.8333,102.5 94.5,102.5C 88.1507,105.532 84.4841,110.532 83.5,117.5C 82.5655,116.432 82.2322,115.099 82.5,113.5C 83.5,110.833 84.5,108.167 85.5,105.5C 87.8599,103.147 90.5265,101.147 93.5,99.5 Z"/></g>
<g><path style="opacity:1" fill="#cb77ad" d="M 108.5,94.5 C 102.741,94.3028 97.7413,95.9694 93.5,99.5C 90.5265,101.147 87.8599,103.147 85.5,105.5C 82.1253,108.919 79.7919,112.919 78.5,117.5C 78.5,115.833 78.5,114.167 78.5,112.5C 78.2627,111.209 78.596,110.209 79.5,109.5C 85.8632,97.1548 95.5299,92.1548 108.5,94.5 Z"/></g>
<g><path style="opacity:1" fill="#a968a7" d="M 129.5,107.5 C 127.066,105.251 124.399,103.084 121.5,101C 122.34,99.3335 121.84,99.1669 120,100.5C 119.667,99.5 119.333,98.5 119,97.5C 118.667,97.8333 118.333,98.1667 118,98.5C 117.333,95.8333 116.667,95.8333 116,98.5C 115.062,95.2768 112.895,93.9435 109.5,94.5C 109.167,94.5 108.833,94.5 108.5,94.5C 95.5299,92.1548 85.8632,97.1548 79.5,109.5C 79.6355,105.562 81.1355,102.228 84,99.5C 87.4004,96.5862 90.9004,93.9195 94.5,91.5C 99.492,91.0465 104.325,90.7131 109,90.5C 112.196,91.5116 115.363,92.6783 118.5,94C 123.896,97.2157 127.562,101.716 129.5,107.5 Z"/></g>
<g><path style="opacity:0.012" fill="#aa88be" d="M 119.5,106.5 C 115.138,105.265 110.471,105.265 105.5,106.5C 110.167,103.833 114.833,103.833 119.5,106.5 Z"/></g>
<g><path style="opacity:0.392" fill="#cf7fb1" d="M 108.5,94.5 C 108.833,94.5 109.167,94.5 109.5,94.5C 109.5,96.1667 109.5,97.8333 109.5,99.5C 107.459,99.8541 105.626,99.8541 104,99.5C 101.31,100.929 98.4769,101.929 95.5,102.5C 96.8333,101.5 98.1667,100.5 99.5,99.5C 102.37,98.3664 105.37,97.6997 108.5,97.5C 108.5,96.5 108.5,95.5 108.5,94.5 Z"/></g>
<g><path style="opacity:0.984" fill="#efcbdf" d="M 108.5,94.5 C 108.5,95.5 108.5,96.5 108.5,97.5C 105.37,97.6997 102.37,98.3664 99.5,99.5C 97.323,99.5861 95.323,100.253 93.5,101.5C 92.537,101.03 92.537,100.363 93.5,99.5C 97.7413,95.9694 102.741,94.3028 108.5,94.5 Z"/></g>
<g><path style="opacity:1" fill="#e998bc" d="M 82.5,113.5 C 82.2322,115.099 82.5655,116.432 83.5,117.5C 82.4215,122.774 82.4215,128.107 83.5,133.5C 82.4138,133.38 81.7472,132.713 81.5,131.5C 80.0399,125.273 80.3732,119.273 82.5,113.5 Z"/></g>
<g><path style="opacity:1" fill="#6474a7" d="M 67.5,121.5 C 67.8333,121.5 68.1667,121.5 68.5,121.5C 68.5797,127.586 69.913,133.253 72.5,138.5C 75.3956,144.933 79.7289,150.266 85.5,154.5C 85.5106,156.017 86.1772,157.184 87.5,158C 89.3146,158.757 90.9812,159.59 92.5,160.5C 92.5,160.833 92.5,161.167 92.5,161.5C 90.1345,160.711 87.8012,161.044 85.5,162.5C 84.5,162.167 83.8333,161.5 83.5,160.5C 85.3547,160.728 86.1881,160.061 86,158.5C 74.429,150.657 68.2624,139.657 67.5,125.5C 67.5,124.167 67.5,122.833 67.5,121.5 Z"/></g>
<g><path style="opacity:1" fill="#10aee4" d="M 121.5,84.5 C 124.937,84.5519 127.937,85.7186 130.5,88C 135.096,92.827 139.763,97.4937 144.5,102C 149.18,111.605 150.68,121.772 149,132.5C 144.488,150.846 132.988,161.846 114.5,165.5C 115.167,164.5 115.833,163.5 116.5,162.5C 121.191,161.103 125.857,159.603 130.5,158C 136.584,152.166 141.417,145.333 145,137.5C 146.523,129.898 146.856,122.232 146,114.5C 145.295,111.524 144.129,108.858 142.5,106.5C 138.222,96.5555 131.222,89.2222 121.5,84.5 Z"/></g>
<g><path style="opacity:0.012" fill="#a984ba" d="M 128.5,116.5 C 128.833,116.5 129.167,116.5 129.5,116.5C 129.833,116.5 130.167,116.5 130.5,116.5C 130.5,121.167 130.5,125.833 130.5,130.5C 129.566,131.568 129.232,132.901 129.5,134.5C 128.471,137.891 126.471,140.557 123.5,142.5C 124.116,141.202 124.116,140.202 123.5,139.5C 129.079,132.746 130.745,125.079 128.5,116.5 Z"/></g>
<g><path style="opacity:1" fill="#9c70ac" d="M 91.5,91.5 C 92.5,91.5 93.5,91.5 94.5,91.5C 90.9004,93.9195 87.4004,96.5862 84,99.5C 81.1355,102.228 79.6355,105.562 79.5,109.5C 78.596,110.209 78.2627,111.209 78.5,112.5C 75.3647,119.887 74.8647,127.554 77,135.5C 82.8815,150.351 93.3815,156.017 108.5,152.5C 113.01,151.332 117.343,149.665 121.5,147.5C 120.386,150.449 118.386,152.615 115.5,154C 111.177,155.809 106.677,156.976 102,157.5C 97.3666,156.812 92.8666,155.645 88.5,154C 75.7836,145.054 70.9503,132.888 74,117.5C 76.0252,107.78 80.8585,99.7795 88.5,93.5C 88.9731,92.0937 89.9731,91.427 91.5,91.5 Z"/></g>
<g><path style="opacity:1" fill="#d968a2" d="M 85.5,105.5 C 84.5,108.167 83.5,110.833 82.5,113.5C 80.3732,119.273 80.0399,125.273 81.5,131.5C 81.7472,132.713 82.4138,133.38 83.5,133.5C 83.3874,136.049 84.0541,138.382 85.5,140.5C 87.5227,142.853 89.5227,145.186 91.5,147.5C 84.9391,143.758 80.7724,138.091 79,130.5C 78.501,126.179 78.3343,121.846 78.5,117.5C 79.7919,112.919 82.1253,108.919 85.5,105.5 Z"/></g>
<g><path style="opacity:0.02" fill="#a35c96" d="M 94.5,131.5 C 94.8333,131.5 95.1667,131.5 95.5,131.5C 98.6969,134.914 101.364,138.247 103.5,141.5C 101.856,141.714 100.356,141.38 99,140.5C 96.4289,138.024 94.9289,135.024 94.5,131.5 Z"/></g>
<g><path style="opacity:1" fill="#5698ca" d="M 142.5,110.5 C 147.414,127.935 143.08,142.769 129.5,155C 126.671,156.356 124.004,157.856 121.5,159.5C 125.467,155.507 129.467,151.507 133.5,147.5C 138.631,142.188 141.798,135.854 143,128.5C 142.928,122.52 142.761,116.52 142.5,110.5 Z"/></g>
<g><path style="opacity:0.239" fill="#745291" d="M 65.5,136.5 C 67.0652,138.509 68.0652,140.843 68.5,143.5C 66.5516,141.68 65.5516,139.346 65.5,136.5 Z"/></g>
<g><path style="opacity:1" fill="#b962a2" d="M 78.5,117.5 C 78.3343,121.846 78.501,126.179 79,130.5C 80.7724,138.091 84.9391,143.758 91.5,147.5C 94.8169,148.717 97.8169,150.383 100.5,152.5C 97.7294,152.579 95.0627,152.079 92.5,151C 79.3897,143.288 74.7231,132.121 78.5,117.5 Z"/></g>
<g><path style="opacity:1" fill="#29a1d4" d="M 142.5,106.5 C 144.129,108.858 145.295,111.524 146,114.5C 146.856,122.232 146.523,129.898 145,137.5C 141.417,145.333 136.584,152.166 130.5,158C 125.857,159.603 121.191,161.103 116.5,162.5C 116.833,161.833 117.167,161.167 117.5,160.5C 118.833,160.167 120.167,159.833 121.5,159.5C 124.004,157.856 126.671,156.356 129.5,155C 143.08,142.769 147.414,127.935 142.5,110.5C 142.5,109.167 142.5,107.833 142.5,106.5 Z"/></g>
<g><path style="opacity:0.278" fill="#cc76aa" d="M 94.5,102.5 C 90.6693,106.511 87.836,111.178 86,116.5C 84.1536,125.619 85.8203,133.953 91,141.5C 91.6667,142.833 92.3333,142.833 93,141.5C 99.8408,147.502 107.674,149.335 116.5,147C 116.167,146.667 115.833,146.333 115.5,146C 118.31,145.094 120.976,143.927 123.5,142.5C 126.471,140.557 128.471,137.891 129.5,134.5C 130.338,134.158 130.672,133.492 130.5,132.5C 130.833,132.5 131.167,132.5 131.5,132.5C 131.509,134.308 131.009,135.975 130,137.5C 127.331,141 124.498,144.333 121.5,147.5C 117.343,149.665 113.01,151.332 108.5,152.5C 105.833,152.5 103.167,152.5 100.5,152.5C 97.8169,150.383 94.8169,148.717 91.5,147.5C 89.5227,145.186 87.5227,142.853 85.5,140.5C 84.0541,138.382 83.3874,136.049 83.5,133.5C 82.4215,128.107 82.4215,122.774 83.5,117.5C 84.4841,110.532 88.1507,105.532 94.5,102.5 Z"/></g>
<g><path style="opacity:0.012" fill="#aa88be" d="M 119.5,142.5 C 117.926,143.928 116.259,144.261 114.5,143.5C 115.641,142.661 116.974,141.994 118.5,141.5C 119.107,141.624 119.44,141.957 119.5,142.5 Z"/></g>
<g><path style="opacity:0.012" fill="#aa88be" d="M 103.5,141.5 C 107.136,142.326 110.803,142.992 114.5,143.5C 110.603,144.615 106.937,143.948 103.5,141.5 Z"/></g>
<g><path style="opacity:1" fill="#506899" d="M 64.5,113.5 C 65.1174,113.611 65.6174,113.944 66,114.5C 66.1773,118.356 66.6773,122.023 67.5,125.5C 68.2624,139.657 74.429,150.657 86,158.5C 86.1881,160.061 85.3547,160.728 83.5,160.5C 76.0417,157.039 71.0417,151.373 68.5,143.5C 68.0652,140.843 67.0652,138.509 65.5,136.5C 64.5489,135.081 64.2155,133.415 64.5,131.5C 64.5,125.5 64.5,119.5 64.5,113.5 Z"/></g>
<g><path style="opacity:1" fill="#5a8cbe" d="M 92.5,161.5 C 100.909,163.005 109.242,162.672 117.5,160.5C 117.167,161.167 116.833,161.833 116.5,162.5C 108.643,164.537 100.643,165.537 92.5,165.5C 91.8333,165.5 91.1667,165.5 90.5,165.5C 88.6316,164.737 86.9649,163.737 85.5,162.5C 87.8012,161.044 90.1345,160.711 92.5,161.5 Z"/></g>
<g><path style="opacity:1" fill="#42a2d4" d="M 116.5,162.5 C 115.833,163.5 115.167,164.5 114.5,165.5C 112.265,165.205 110.265,165.539 108.5,166.5C 107.508,166.328 106.842,166.662 106.5,167.5C 103.873,168.092 101.206,168.425 98.5,168.5C 97.4324,167.566 96.099,167.232 94.5,167.5C 94.5,166.833 94.1667,166.5 93.5,166.5C 93.1667,166.5 92.8333,166.5 92.5,166.5C 92.5,166.167 92.5,165.833 92.5,165.5C 100.643,165.537 108.643,164.537 116.5,162.5 Z"/></g>
<g><path style="opacity:0.522" fill="#b2cae9" d="M 108.5,166.5 C 108.611,167.117 108.944,167.617 109.5,168C 111.473,168.495 113.473,168.662 115.5,168.5C 114.207,169.158 112.707,169.492 111,169.5C 109.014,169.431 107.514,168.765 106.5,167.5C 106.842,166.662 107.508,166.328 108.5,166.5 Z"/></g>
</svg>
