<?xml version="1.0" encoding="UTF-8" standalone="no"?>
<!DOCTYPE svg PUBLIC "-//W3C//DTD SVG 1.1//EN" "http://www.w3.org/Graphics/SVG/1.1/DTD/svg11.dtd">
<svg xmlns="http://www.w3.org/2000/svg" version="1.1" viewBox="0.00 0.00 1500.00 500.00">
<path fill="#8370ff" d="
  M 263.45 360.10
  Q 240.67 358.31 221.01 352.26
  Q 211.80 349.42 199.19 343.82
  Q 185.98 337.94 169.35 325.61
  Q 123.96 291.97 106.29 239.24
  Q 98.64 216.43 97.64 191.25
  Q 97.51 187.91 97.50 171.25
  Q 97.45 89.89 97.51 8.54
  Q 97.51 8.01 98.03 8.01
  Q 186.31 7.97 274.50 8.00
  Q 286.93 8.00 294.45 8.85
  C 349.43 15.01 397.84 47.64 425.76 94.89
  C 456.80 147.42 457.97 214.26 428.64 267.87
  Q 401.00 318.37 349.31 343.30
  Q 314.74 359.98 274.33 360.25
  Q 273.68 360.26 273.68 360.91
  L 273.69 491.52
  Q 273.69 492.11 273.10 492.11
  L 98.05 492.11
  Q 97.49 492.11 97.49 491.55
  L 97.49 360.77
  Q 97.49 360.27 97.99 360.27
  Q 180.74 360.20 263.40 360.27
  Q 263.49 360.27 263.49 360.18
  Q 263.49 360.16 263.50 360.14
  Q 263.50 360.10 263.45 360.10
  Z"
/>
<ellipse fill="#000000" cx="0.00" cy="0.00" transform="translate(850.52,73.40) rotate(0.1)" rx="18.28" ry="16.97"/>
<path fill="#000000" d="
  M 985.76 207.40
  Q 985.32 207.61 984.82 208.31
  C 974.21 223.08 957.53 227.87 940.23 225.33
  C 878.81 216.32 880.44 111.56 943.52 106.30
  C 959.74 104.95 974.38 109.94 984.32 123.09
  Q 986.75 126.30 986.75 122.28
  L 986.75 58.50
  A 0.25 0.25 0.0 0 1 987.00 58.25
  L 1016.25 58.25
  Q 1016.75 58.25 1016.75 58.75
  L 1016.75 223.25
  Q 1016.75 223.75 1016.25 223.75
  L 987.25 223.75
  Q 986.75 223.75 986.75 223.25
  L 986.74 208.02
  A 0.69 0.68 77.1 0 0 985.76 207.40
  Z
  M 957.43 129.91
  C 928.73 128.78 919.86 163.14 929.52 184.24
  Q 938.48 203.80 960.42 201.78
  C 996.32 198.48 996.48 131.44 957.43 129.91
  Z"
/>
<path fill="#000000" d="
  M 568.68 207.63
  Q 567.70 206.94 567.18 207.68
  Q 567.00 207.93 567.00 208.37
  Q 567.00 237.15 567.00 266.02
  A 0.48 0.48 0.0 0 1 566.52 266.50
  L 537.50 266.50
  A 0.50 0.50 0.0 0 1 537.00 266.00
  L 537.00 108.75
  Q 537.00 108.25 537.50 108.25
  L 566.50 108.25
  Q 567.00 108.25 567.00 108.75
  L 567.00 121.78
  Q 567.00 127.04 569.99 122.71
  C 579.04 109.64 593.59 105.32 609.25 106.23
  C 662.05 109.32 673.42 183.90 638.50 214.25
  C 627.72 223.62 615.33 226.43 601.25 225.66
  Q 580.54 224.52 568.94 207.89
  A 0.82 0.82 0.0 0 0 568.68 207.63
  Z
  M 580.00 135.51
  C 563.60 148.50 562.89 175.95 574.87 191.61
  C 580.21 198.58 587.51 201.66 596.25 202.00
  C 640.30 203.69 638.30 123.56 592.24 130.24
  Q 585.41 131.22 580.00 135.51
  Z"
/>
<path fill="#000000" d="
  M 773.47 207.71
  A 0.55 0.54 -25.5 0 0 772.50 207.37
  C 763.86 217.92 755.58 224.27 741.51 225.51
  Q 706.22 228.60 689.75 198.77
  Q 684.66 189.56 682.85 177.43
  C 677.94 144.63 694.69 108.49 731.48 106.20
  C 747.39 105.22 761.62 110.37 771.24 123.26
  Q 773.50 126.29 773.50 122.50
  L 773.50 108.50
  A 0.25 0.25 0.0 0 1 773.75 108.25
  L 803.25 108.25
  Q 803.75 108.25 803.75 108.75
  L 803.75 223.25
  Q 803.75 223.75 803.25 223.75
  L 773.76 223.75
  A 0.25 0.25 0.0 0 1 773.51 223.50
  L 773.47 207.71
  Z
  M 741.46 202.09
  C 782.01 204.69 785.34 134.47 746.53 129.96
  C 730.68 128.12 718.43 138.46 714.26 153.24
  C 708.51 173.63 716.80 200.51 741.46 202.09
  Z"
/>
<path fill="#000000" d="
  M 1077.96 220.02
  Q 1049.55 206.11 1045.24 174.74
  C 1041.35 146.41 1056.48 118.32 1084.26 109.26
  Q 1097.96 104.80 1114.26 106.49
  C 1130.27 108.16 1143.32 114.17 1153.73 126.41
  C 1173.17 149.27 1172.92 185.58 1151.79 207.81
  Q 1137.03 223.35 1114.25 225.46
  C 1102.00 226.59 1089.14 225.50 1077.96 220.02
  Z
  M 1093.15 133.15
  C 1072.89 142.63 1069.83 174.34 1082.79 190.51
  Q 1093.55 203.93 1111.52 201.32
  C 1140.28 197.16 1144.96 155.53 1126.86 138.19
  C 1117.89 129.60 1104.15 128.01 1093.15 133.15
  Z"
/>
<path fill="#000000" d="
  M 1224.45 123.23
  Q 1224.44 126.00 1225.79 123.58
  Q 1228.85 118.08 1233.67 113.69
  C 1242.63 105.55 1256.47 104.50 1267.82 107.24
  A 0.54 0.53 6.9 0 1 1268.23 107.76
  L 1268.23 134.73
  Q 1268.23 135.10 1267.86 135.06
  C 1239.98 131.63 1224.68 141.20 1224.66 170.54
  Q 1224.65 196.97 1224.65 223.34
  A 0.41 0.40 90.0 0 1 1224.25 223.75
  L 1194.99 223.75
  Q 1194.48 223.75 1194.48 223.24
  L 1194.48 108.76
  Q 1194.48 108.25 1194.99 108.25
  L 1223.97 108.25
  Q 1224.45 108.25 1224.45 108.72
  L 1224.45 123.23
  Z"
/>
<path fill="#000000" d="
  M 1372.00 123.02
  L 1372.00 108.75
  Q 1372.00 108.25 1372.50 108.25
  L 1401.75 108.25
  Q 1402.25 108.25 1402.25 108.75
  L 1402.25 223.25
  Q 1402.25 223.75 1401.75 223.75
  L 1372.25 223.75
  A 0.25 0.24 90.0 0 1 1372.01 223.50
  L 1372.00 208.96
  Q 1372.00 205.48 1370.02 208.35
  Q 1358.59 225.00 1336.99 225.75
  Q 1315.28 226.51 1300.58 214.04
  C 1273.86 191.37 1274.05 141.36 1300.33 118.36
  Q 1313.15 107.14 1330.22 106.02
  Q 1355.62 104.35 1370.12 123.65
  A 1.05 1.04 -63.5 0 0 1372.00 123.02
  Z
  M 1347.38 130.32
  C 1300.67 122.08 1297.95 207.38 1346.26 201.82
  C 1380.58 197.88 1381.35 136.31 1347.38 130.32
  Z"
/>
<rect fill="#000000" x="835.48" y="108.25" width="30.22" height="115.50" rx="0.39"/>
<path fill="#000000" d="
  M 843.52 349.99
  L 843.52 440.99
  Q 843.52 441.50 843.01 441.50
  L 813.73 441.50
  A 0.40 0.39 -0.0 0 1 813.33 441.11
  L 813.33 349.85
  A 0.35 0.35 0.0 0 0 812.98 349.50
  L 794.52 349.50
  A 0.48 0.47 -90.0 0 1 794.05 349.02
  L 794.05 326.48
  Q 794.05 326.00 794.52 326.00
  L 812.76 326.00
  Q 813.31 326.00 813.32 325.45
  Q 813.44 320.12 813.48 314.91
  C 813.73 285.79 831.92 271.98 860.00 273.95
  C 863.02 274.16 866.14 275.28 869.33 275.86
  Q 869.85 275.95 869.85 276.48
  L 869.85 296.28
  Q 869.85 296.83 869.30 296.76
  C 860.17 295.54 849.56 293.71 845.45 304.73
  C 843.00 311.31 843.34 318.64 843.56 325.54
  Q 843.57 326.00 844.03 326.00
  L 868.73 326.00
  Q 869.21 326.00 869.21 326.48
  L 869.21 349.02
  Q 869.21 349.50 868.73 349.50
  L 844.01 349.50
  Q 843.52 349.50 843.52 349.99
  Z"
/>
<path fill="#000000" d="
  M 933.78 349.99
  Q 933.65 377.37 933.79 404.75
  C 933.89 422.77 951.33 420.32 963.15 419.45
  Q 963.72 419.40 963.72 419.98
  L 963.71 441.26
  A 0.42 0.42 0.0 0 1 963.38 441.67
  C 934.24 448.50 903.25 440.80 903.38 404.50
  Q 903.48 377.31 903.56 350.04
  A 0.54 0.54 0.0 0 0 903.02 349.50
  L 883.46 349.50
  A 0.54 0.54 0.0 0 1 882.92 348.96
  L 882.91 326.54
  Q 882.91 326.00 883.46 326.00
  L 903.02 326.00
  Q 903.54 326.00 903.54 325.48
  L 903.53 297.99
  Q 903.53 297.25 904.27 297.25
  L 933.25 297.25
  Q 933.74 297.25 933.74 297.75
  L 933.74 325.49
  Q 933.74 326.00 934.25 326.00
  L 960.25 326.00
  Q 960.75 326.00 960.75 326.50
  L 960.74 349.00
  Q 960.74 349.50 960.25 349.50
  L 934.28 349.50
  Q 933.78 349.50 933.78 349.99
  Z"
/>
<path fill="#000000" d="
  M 573.07 419.91
  Q 584.01 423.21 593.51 420.30
  C 599.54 418.45 604.23 411.78 602.23 405.51
  C 600.57 400.29 594.00 397.56 589.03 396.53
  C 570.23 392.64 537.58 389.50 533.95 365.21
  Q 531.03 345.65 546.02 333.79
  C 558.05 324.26 574.96 322.63 589.76 324.62
  C 609.04 327.21 623.03 339.44 627.17 358.49
  Q 627.29 359.00 626.76 359.00
  L 600.01 359.00
  A 0.65 0.65 0.0 0 1 599.39 358.54
  C 596.78 349.98 588.42 345.65 579.91 345.47
  Q 574.09 345.35 570.16 346.50
  C 564.84 348.07 559.93 353.65 561.17 359.50
  C 562.43 365.47 570.19 367.68 575.37 368.77
  C 596.45 373.23 629.26 376.84 630.36 405.50
  C 631.13 425.66 615.30 439.54 596.23 442.61
  C 567.54 447.22 537.65 438.66 531.26 406.32
  A 0.48 0.47 84.4 0 1 531.72 405.75
  L 559.29 405.75
  Q 559.87 405.75 560.03 406.30
  Q 563.21 416.95 573.07 419.91
  Z"
/>
<path fill="#000000" d="
  M 654.93 405.53
  C 642.36 369.68 662.34 330.79 700.74 324.79
  C 711.75 323.07 724.64 323.74 735.12 327.21
  C 776.07 340.77 787.31 394.81 758.63 425.40
  Q 745.16 439.77 724.48 442.84
  C 695.05 447.21 665.32 435.17 654.93 405.53
  Z
  M 708.49 348.39
  C 675.83 352.54 672.62 405.26 700.56 417.17
  Q 708.82 420.70 718.10 419.18
  C 756.77 412.87 751.67 342.91 708.49 348.39
  Z"
/>
</svg>
