<svg width="374" height="104" viewBox="0 0 374 104" fill="none" xmlns="http://www.w3.org/2000/svg">
<g clip-path="url(#clip0_140_788)">
<path fill-rule="evenodd" clip-rule="evenodd" d="M356.782 38.8431C353.307 40.401 349.686 41.6078 345.971 42.4455L339.564 44.0473C336.36 44.8494 333.957 46.0502 332.355 47.6497C331.156 49.6538 330.355 51.6543 330.355 53.6478C330.357 56.1234 331.204 58.5241 332.754 60.4539C334.356 62.0558 336.759 62.8567 339.962 62.8567C345.17 62.8567 349.175 61.2549 351.976 58.4534C354.778 55.6519 356.38 51.2451 356.38 46.0373L356.782 38.8325V38.8431ZM361.185 73.2793C357.315 75.2612 353.102 76.484 348.773 76.8817C344.92 77.3626 341.043 77.6299 337.161 77.6826C330.966 77.7295 324.923 75.7619 319.943 72.0762C315.137 68.4738 312.332 62.4651 312.332 54.0571C312.332 46.0479 314.735 40.4449 319.142 37.2412C323.549 34.0375 329.554 31.6348 336.36 30.4316C337.56 30.4316 338.763 30.4316 339.564 30.0329C341.166 29.6307 342.365 29.6307 343.967 29.232C351.976 28.03 355.975 25.6272 355.963 22.0237C355.963 19.2222 354.361 17.2181 351.56 16.4172C348.97 15.5986 346.267 15.1938 343.551 15.2176C341.226 15.1912 338.917 15.598 336.741 16.4172C335.754 16.8192 334.858 17.416 334.106 18.1719C333.354 18.9279 332.763 19.8274 332.366 20.817H313.934C314.735 15.214 317.138 10.0063 321.545 6.40387C326.368 2.00055 333.555 0 342.767 0C353.176 0 360.787 1.60185 365.991 5.20425C371.195 8.80664 374 14.0144 374 20.817V46.4466C374 54.0536 372.8 59.6601 369.995 64.0634C368.394 68.0715 365.179 71.2717 361.185 73.2793ZM271.09 76.483V40.4449C271.09 33.2366 272.29 26.8292 274.294 22.0237C276.298 17.2181 279.099 13.2029 283.114 10.0274C286.777 7.16594 291.009 5.12083 295.527 4.02932C300.333 2.82617 305.138 2.02525 309.944 2.02525H312.343V22.0237H305.928C300.721 22.0237 296.716 23.2233 293.915 26.0283C291.512 28.8298 289.91 32.8344 289.91 38.4408V76.8993L271.09 76.5006V76.483ZM250.273 38.8431C246.799 40.4019 243.177 41.6088 239.462 42.4455L233.055 44.0473C229.851 44.8494 227.45 46.0502 225.85 47.6497C224.647 49.6538 223.846 51.6543 223.846 53.6478C223.848 56.124 224.696 58.5252 226.249 60.4539C227.851 62.0558 230.253 62.8567 233.457 62.8567C238.661 62.8567 242.666 61.2549 245.471 58.4534C248.276 55.6519 249.874 51.2451 249.874 46.0373L250.273 38.8325V38.8431ZM254.68 73.2793C250.81 75.2612 246.597 76.484 242.267 76.8817C238.413 77.3624 234.536 77.6298 230.652 77.6826C224.457 77.7295 218.414 75.7619 213.434 72.0762C208.628 68.4738 205.827 62.4651 205.827 54.0571C205.827 46.0479 208.23 40.4449 212.633 37.2412C217.036 34.0375 223.045 31.6348 229.851 30.4316C231.054 30.4316 232.254 30.4316 233.055 30.0329C234.657 29.6307 235.878 29.6307 237.462 29.232C245.471 28.03 249.47 25.6272 249.458 22.0237C249.458 19.2222 247.86 17.2181 245.055 16.4172C242.465 15.5984 239.762 15.1935 237.045 15.2176C234.722 15.1911 232.414 15.5979 230.239 16.4172C229.248 16.8169 228.348 17.4126 227.592 18.1686C226.837 18.9247 226.242 19.8254 225.843 20.817H208.223C209.024 15.214 211.426 10.0063 215.83 6.40387C220.635 2.00055 227.844 0 237.052 0C247.465 0 255.072 1.60185 260.279 5.20425C265.487 8.80664 268.289 14.025 268.289 20.8205V46.4501C268.289 54.0571 267.085 59.6636 264.284 64.0669C261.881 68.0715 258.677 71.2752 254.673 73.2793H254.68ZM185.8 39.2418C185.8 32.0335 184.597 26.427 181.796 22.4224C178.994 18.4177 174.986 16.4242 169.782 16.4242C164.976 16.4242 160.961 18.4283 158.17 22.4224C155.767 26.0283 154.166 31.6348 154.166 39.2418C154.166 46.4501 155.365 51.6543 158.17 55.2603C160.972 59.259 164.97 61.2584 170.166 61.2584C174.573 61.2584 178.987 59.2578 181.379 55.2603C184.184 51.2556 185.786 46.0479 185.786 39.2418H185.8ZM154.166 94.0998C154.182 95.3651 153.942 96.6207 153.461 97.791C152.979 98.9612 152.266 100.022 151.364 100.909C149.762 102.91 147.36 103.711 144.558 103.711H135.346V34.0375C135.346 20.8205 138.948 12.0139 146.555 7.22243C153.763 2.40277 162.574 0 170.982 0C175.787 0 180.593 0.800925 184.999 2.80147C189.329 4.33141 193.19 6.9528 196.209 10.412C201.819 17.6203 204.62 27.2279 204.62 38.4585C204.62 50.0701 201.798 59.6812 196.209 66.8896C190.62 74.0979 183.796 77.6826 175.004 77.6826C170.999 77.6826 166.596 76.8817 163.008 75.2799C159.402 73.2793 156.198 70.4743 154.187 66.4591V94.0998H154.166ZM114.924 38.8431C111.448 40.4014 107.825 41.6083 104.11 42.4455L97.7057 43.6451C94.502 44.4448 92.0993 45.6468 90.4974 47.251C89.2943 49.2516 88.4933 51.2556 88.4933 53.2491C88.4958 55.7263 89.3434 58.1286 90.8961 60.0588C92.498 61.6606 94.9007 62.4604 98.1044 62.458C103.312 62.458 107.313 60.8597 110.118 58.0547C112.923 55.2497 114.522 50.8464 114.522 45.6421L114.924 38.836V38.8431ZM119.327 73.2793C115.455 75.2621 111.239 76.4849 106.908 76.8817C103.055 77.3626 99.1783 77.6299 95.2959 77.6826C89.1006 77.7295 83.0577 75.7619 78.0778 72.0762C73.2722 68.4738 70.4672 62.4651 70.4672 54.0571C70.4672 46.0479 72.87 40.4449 77.2769 37.2412C81.6837 34.0375 87.6854 31.6348 94.495 30.4316C95.6946 30.4316 96.8978 30.4316 97.6987 30.0329C98.8983 29.6307 100.5 29.6307 102.102 29.232C110.111 28.03 114.116 25.6272 114.116 22.0237C114.116 19.2222 112.514 17.2181 109.709 16.4172C107.12 15.5986 104.418 15.1938 101.703 15.2176C99.3786 15.1912 97.0694 15.598 94.8937 16.4172C93.9025 16.8169 93.0022 17.4126 92.2467 18.1686C91.4913 18.9247 90.8963 19.8254 90.4974 20.817H72.0762C72.8771 15.214 75.2799 10.0063 79.6867 6.40387C84.4887 2.00055 91.697 0 100.909 0C111.318 0 118.928 1.60185 124.133 5.20425C129.337 8.80664 132.142 14.025 132.142 20.8205V46.4501C132.142 54.0571 130.939 59.6636 128.137 64.0669C126.535 68.0715 123.332 71.2752 119.317 73.2793H119.327ZM18.82 94.0963C18.8365 95.3621 18.5968 96.6183 18.1153 97.7891C17.6339 98.9599 16.9207 100.021 16.0185 100.909C14.4166 102.91 12.0139 103.711 9.20887 103.711H0V34.0375C0 20.817 3.6024 12.0139 11.2129 7.20832C18.4213 2.40277 27.2279 0 35.6359 0C40.4414 0 45.2434 0.800925 49.6503 2.80147C53.9805 4.3313 57.8426 6.95266 60.8632 10.412C66.4662 17.6203 69.2712 27.2279 69.2712 38.4408C69.2712 50.0525 66.4485 59.6636 60.8632 66.8719C55.2779 74.0802 48.4471 77.6826 39.6405 77.6826C35.6358 77.6826 31.229 76.8817 27.6442 75.2799C24.0383 73.2793 20.8346 70.4743 18.8235 66.4591V94.0998L18.82 94.0963ZM50.0525 39.2382C50.0525 32.0299 48.8529 26.4235 46.0479 22.4188C43.2429 18.4142 39.2418 16.4207 34.0516 16.4207C29.2461 16.4207 25.2309 18.4248 22.4365 22.4188C20.0372 26.0248 18.4354 31.6312 18.4354 39.2382C18.4354 46.4466 19.635 51.6508 22.4365 55.2567C25.2403 59.2555 29.2449 61.2549 34.4503 61.2549C38.8572 61.2549 43.2711 59.2543 45.6633 55.2567C48.867 51.2521 50.0666 46.0443 50.0666 39.2382H50.0525Z" fill="url(#paint0_linear_140_788)"/>
</g>
<defs>
<linearGradient id="paint0_linear_140_788" x1="78.2577" y1="169.376" x2="278.267" y2="-68.9854" gradientUnits="userSpaceOnUse">
<stop stop-color="#E14A55"/>
<stop offset="1" stop-color="#8E278F"/>
</linearGradient>
<clipPath id="clip0_140_788">
<rect width="374" height="103.711" fill="white"/>
</clipPath>
</defs>
</svg>
