<?xml version="1.0" encoding="UTF-8" standalone="no"?>
<!DOCTYPE svg PUBLIC "-//W3C//DTD SVG 1.1//EN" "http://www.w3.org/Graphics/SVG/1.1/DTD/svg11.dtd">
<svg xmlns="http://www.w3.org/2000/svg" version="1.1" viewBox="0.00 0.00 505.00 85.00">
<path fill="#49267f" d="
  M 113.90 74.65
  L 109.40 84.30
  Q 109.19 84.75 108.69 84.75
  L 88.80 84.75
  Q 88.41 84.75 88.36 84.37
  Q 88.01 82.07 88.40 81.24
  Q 107.07 41.00 125.73 0.76
  Q 125.97 0.25 126.53 0.25
  L 134.71 0.25
  Q 135.15 0.25 135.34 0.66
  Q 153.95 40.68 172.51 80.73
  Q 173.30 82.42 172.91 84.23
  Q 172.80 84.75 172.26 84.75
  L 152.54 84.75
  Q 152.04 84.75 151.82 84.29
  L 147.33 74.64
  Q 147.14 74.25 146.71 74.25
  L 114.52 74.25
  Q 114.09 74.25 113.90 74.65
  Z
  M 121.23 55.55
  A 0.35 0.35 0.0 0 0 121.55 56.03
  L 139.66 55.97
  A 0.35 0.35 0.0 0 0 139.98 55.48
  L 130.85 34.71
  A 0.35 0.35 0.0 0 0 130.21 34.71
  L 121.23 55.55
  Z"
/>
<path fill="#49267f" d="
  M 332.57 74.72
  L 328.07 84.36
  Q 327.88 84.75 327.45 84.75
  L 307.75 84.75
  Q 307.26 84.75 307.13 84.28
  Q 306.60 82.32 307.21 81.00
  Q 325.82 40.88 344.43 0.75
  A 0.87 0.86 12.1 0 1 345.22 0.25
  L 353.28 0.25
  Q 353.84 0.25 354.07 0.75
  Q 372.70 40.78 391.30 80.80
  C 391.86 81.99 391.65 83.04 391.66 84.31
  Q 391.67 84.75 391.23 84.75
  L 371.27 84.75
  Q 370.72 84.75 370.49 84.26
  L 366.08 74.75
  Q 365.84 74.25 365.28 74.25
  L 333.30 74.25
  Q 332.79 74.25 332.57 74.72
  Z
  M 339.92 55.56
  A 0.34 0.34 0.0 0 0 340.23 56.03
  L 358.36 55.97
  A 0.34 0.34 0.0 0 0 358.67 55.49
  L 349.53 34.69
  A 0.34 0.34 0.0 0 0 348.91 34.69
  L 339.92 55.56
  Z"
/>
<path fill="#49267f" d="
  M 505.00 1.21
  L 505.00 84.72
  L 483.76 84.70
  Q 483.08 84.70 483.08 84.02
  L 483.09 48.05
  A 0.23 0.23 0.0 0 0 482.69 47.89
  L 466.01 65.21
  A 2.71 2.71 0.0 0 1 462.10 65.20
  L 445.70 48.03
  Q 445.16 47.46 445.16 48.25
  L 445.16 84.29
  A 0.46 0.45 90.0 0 1 444.71 84.75
  L 423.76 84.75
  Q 423.26 84.75 423.26 84.25
  L 423.26 1.62
  A 0.62 0.62 0.0 0 1 423.88 1.00
  L 430.73 1.00
  Q 431.15 1.00 431.42 1.31
  L 463.63 36.92
  A 0.43 0.42 45.5 0 0 464.25 36.93
  L 496.89 1.49
  Q 497.28 1.07 497.86 1.08
  L 505.00 1.21
  Z"
/>
<path fill="#49267f" d="
  M 0.00 1.26
  Q 18.25 1.23 36.50 1.39
  Q 58.04 1.57 64.94 21.05
  C 70.68 37.27 63.21 56.64 46.20 61.96
  C 39.28 64.12 29.76 63.24 21.92 63.25
  A 0.86 0.84 -76.0 0 0 21.17 63.71
  L 10.46 84.26
  Q 10.22 84.71 9.72 84.71
  L 0.00 84.62
  L 0.00 1.26
  Z
  M 21.40 20.60
  L 21.44 43.64
  A 0.42 0.42 0.0 0 0 21.86 44.06
  L 36.03 44.04
  A 10.60 9.67 89.9 0 0 45.68 33.42
  L 45.68 30.74
  A 10.60 9.67 89.9 0 0 35.99 20.16
  L 21.82 20.18
  A 0.42 0.42 0.0 0 0 21.40 20.60
  Z"
/>
<path fill="#49267f" d="
  M 259.33 55.46
  Q 266.92 68.07 274.82 80.49
  Q 275.83 82.08 275.28 84.32
  Q 275.17 84.75 274.73 84.75
  L 252.03 84.75
  Q 251.48 84.75 251.21 84.28
  L 237.34 60.36
  Q 237.14 60.00 236.72 60.00
  L 226.52 60.00
  Q 225.97 60.00 225.75 60.49
  L 214.98 84.28
  Q 214.77 84.76 214.24 84.76
  L 205.16 84.75
  Q 204.57 84.75 204.57 84.16
  L 204.57 1.55
  Q 204.57 1.26 204.86 1.26
  Q 222.97 1.23 241.25 1.27
  C 254.96 1.29 267.17 9.32 270.37 22.91
  Q 274.89 42.11 259.46 54.71
  Q 259.08 55.03 259.33 55.46
  Z
  M 225.95 20.59
  L 226.03 40.91
  A 0.36 0.36 0.0 0 0 226.39 41.27
  L 240.71 41.22
  A 9.82 9.48 89.8 0 0 250.15 31.37
  L 250.15 29.97
  A 9.82 9.48 89.8 0 0 240.63 20.18
  L 226.31 20.23
  A 0.36 0.36 0.0 0 0 225.95 20.59
  Z"
/>
</svg>
