<?xml version="1.0" encoding="UTF-8" standalone="no"?>
<!DOCTYPE svg PUBLIC "-//W3C//DTD SVG 1.1//EN" "http://www.w3.org/Graphics/SVG/1.1/DTD/svg11.dtd">
<svg xmlns="http://www.w3.org/2000/svg" version="1.1" viewBox="0.00 0.00 452.00 219.00">
<circle fill="#f05827" cx="301.67" cy="22.66" r="16.35"/>
<ellipse fill="#f05827" cx="0.00" cy="0.00" transform="translate(301.67,62.46) rotate(-0.1)" rx="16.38" ry="11.48"/>
<ellipse fill="#f05827" cx="301.66" cy="91.19" rx="16.37" ry="6.87"/>
<path fill="#013a4b" d="
  M 342.96 161.53
  L 342.95 188.82
  A 2.19 2.18 88.9 0 1 340.86 191.00
  C 339.11 191.08 337.39 191.96 335.65 191.96
  Q 331.76 191.95 328.22 190.70
  Q 327.00 190.26 327.00 188.97
  L 327.00 108.95
  Q 327.00 105.59 330.33 105.18
  Q 335.11 104.59 339.91 105.26
  A 3.56 3.56 0.0 0 1 342.98 108.79
  L 342.95 154.46
  Q 342.95 155.86 343.78 154.74
  L 359.42 133.69
  Q 360.53 132.20 362.38 132.05
  C 364.92 131.83 367.18 131.02 369.88 131.40
  Q 372.51 131.77 375.12 132.14
  Q 375.58 132.21 375.75 132.64
  Q 376.78 135.31 375.48 136.97
  Q 371.38 142.23 358.63 155.99
  Q 358.27 156.38 358.56 156.82
  Q 368.10 171.61 377.63 186.35
  Q 378.65 187.93 378.03 190.22
  Q 377.92 190.67 377.48 190.80
  Q 370.07 193.07 362.64 190.71
  A 1.98 1.96 82.7 0 1 361.59 189.89
  L 343.59 161.35
  Q 342.96 160.36 342.96 161.53
  Z"
/>
<ellipse fill="#f05827" cx="301.65" cy="115.88" rx="16.38" ry="3.86"/>
<path fill="#013a4b" d="
  M 295.50 144.51
  L 271.25 144.50
  A 0.25 0.25 0.0 0 0 271.00 144.75
  Q 271.00 158.41 271.00 172.12
  C 271.00 174.31 272.40 177.36 274.05 178.67
  A 1.60 1.57 -24.6 0 0 274.96 179.00
  Q 277.21 179.12 279.46 179.06
  C 281.11 179.02 282.27 178.29 283.93 177.95
  Q 284.43 177.85 284.62 178.33
  C 286.49 183.11 285.94 185.04 284.86 188.92
  Q 284.40 190.55 282.78 191.06
  C 273.87 193.88 260.48 193.56 256.93 182.37
  C 256.53 181.14 255.94 180.15 255.90 178.82
  Q 255.42 161.88 255.68 144.95
  A 0.43 0.43 0.0 0 0 255.25 144.51
  L 249.06 144.49
  A 2.05 2.04 -4.3 0 1 247.05 142.77
  Q 246.27 137.85 247.15 132.97
  A 1.18 1.18 0.0 0 1 248.30 132.01
  L 254.97 131.97
  A 0.69 0.68 -0.8 0 0 255.65 131.28
  L 255.57 119.99
  A 2.96 2.95 89.7 0 1 258.51 117.01
  L 268.50 117.00
  A 2.50 2.50 0.0 0 1 271.01 119.50
  L 270.99 131.49
  Q 270.99 131.98 271.49 131.98
  L 308.25 132.00
  A 3.25 3.25 0.0 0 1 311.50 135.25
  L 311.52 189.01
  A 2.01 2.00 -0.7 0 1 309.56 191.01
  C 307.98 191.05 306.36 191.92 304.74 191.94
  Q 300.70 192.02 297.03 190.71
  A 1.56 1.55 9.9 0 1 296.00 189.25
  L 296.00 145.00
  Q 296.00 144.51 295.50 144.51
  Z"
/>
<path fill="#013a4b" d="
  M 34.25 185.81
  Q 34.09 197.15 34.29 208.50
  Q 34.32 210.42 33.90 212.40
  Q 33.78 212.92 33.24 212.92
  C 31.30 212.89 30.30 213.93 28.53 213.98
  Q 26.17 214.04 23.83 213.91
  C 22.36 213.82 21.32 212.85 19.68 212.97
  A 0.66 0.66 0.0 0 1 18.97 212.31
  L 18.97 132.99
  Q 18.97 132.15 19.81 132.07
  C 22.25 131.82 24.18 131.00 26.73 131.48
  Q 28.57 131.83 30.17 132.07
  A 2.14 2.14 0.0 0 1 32.00 134.20
  L 31.96 139.51
  Q 31.96 140.43 32.61 139.78
  Q 36.42 136.01 37.92 134.92
  C 39.64 133.67 44.34 130.87 47.33 130.98
  Q 47.82 131.00 48.28 130.83
  C 51.66 129.59 57.66 130.64 60.88 132.13
  C 70.51 136.57 73.70 147.24 74.04 157.03
  C 74.35 166.28 74.01 173.32 69.68 181.45
  C 66.54 187.35 61.59 191.11 54.97 192.16
  C 53.61 192.37 52.34 193.03 50.99 192.98
  C 43.87 192.71 40.35 190.38 34.80 185.56
  Q 34.26 185.09 34.25 185.81
  Z
  M 42.30 178.15
  C 42.81 178.42 43.08 178.90 43.75 178.95
  Q 46.01 179.13 48.24 179.05
  Q 50.56 178.95 52.16 177.59
  C 59.56 171.28 59.09 158.04 55.97 149.76
  Q 54.77 146.56 51.48 144.66
  C 49.23 143.35 44.37 143.72 42.19 145.06
  Q 37.64 147.86 34.49 152.33
  Q 34.21 152.74 34.21 153.24
  L 34.21 170.05
  Q 34.21 170.60 34.55 171.02
  C 36.64 173.57 39.35 176.60 42.30 178.15
  Z"
/>
<path fill="#013a4b" d="
  M 120.51 185.33
  Q 116.58 189.17 111.57 191.29
  C 106.27 193.53 99.08 193.24 93.83 191.06
  Q 82.77 186.48 83.07 173.98
  Q 83.10 172.65 84.36 168.06
  Q 85.33 164.49 89.35 161.36
  C 96.36 155.91 108.87 155.52 117.45 156.08
  A 0.83 0.82 1.0 0 0 118.33 155.24
  C 118.21 150.81 118.83 144.63 113.35 143.06
  C 111.16 142.43 109.11 141.70 106.99 141.99
  Q 97.85 143.20 89.93 147.88
  Q 89.50 148.14 89.01 148.00
  C 86.83 147.39 87.06 145.72 86.49 144.24
  C 82.15 132.94 102.89 130.48 109.56 130.25
  C 111.84 130.17 114.53 130.75 117.24 131.00
  C 122.58 131.51 129.07 134.75 131.38 139.95
  C 132.02 141.39 132.75 142.78 132.92 144.41
  C 133.14 146.45 133.89 148.26 133.90 150.23
  Q 133.95 170.02 133.92 189.37
  A 1.44 1.43 -12.1 0 1 133.07 190.68
  C 128.46 192.78 125.97 191.73 121.35 190.87
  Q 121.00 190.81 121.00 190.45
  L 120.99 185.53
  Q 120.99 184.85 120.51 185.33
  Z
  M 117.73 165.98
  C 112.11 165.85 102.47 164.66 99.14 170.69
  Q 98.25 172.30 98.94 176.67
  C 99.49 180.19 104.76 182.12 107.78 181.64
  Q 114.10 180.64 117.95 175.41
  Q 118.24 175.03 118.24 174.54
  L 118.25 166.51
  Q 118.25 165.99 117.73 165.98
  Z"
/>
<path fill="#013a4b" d="
  M 163.01 139.66
  L 170.01 132.43
  Q 170.40 132.03 170.96 132.01
  Q 171.50 132.00 171.86 131.61
  Q 172.22 131.21 172.74 131.11
  C 175.04 130.68 176.65 129.97 179.07 130.53
  Q 180.63 130.89 182.21 131.07
  A 1.55 1.52 -19.8 0 1 183.06 131.46
  C 186.20 134.31 185.15 141.85 184.01 145.59
  A 0.80 0.78 -83.6 0 1 183.34 146.14
  C 180.75 146.43 178.77 144.93 176.78 144.91
  C 171.91 144.85 167.53 150.44 165.21 154.27
  Q 164.99 154.64 164.99 155.08
  L 164.99 189.03
  A 1.98 1.97 -0.4 0 1 163.04 191.00
  C 161.00 191.03 159.22 192.08 156.67 192.00
  C 154.73 191.95 152.81 191.26 150.91 190.94
  A 2.24 2.23 4.7 0 1 149.04 188.74
  L 149.05 134.24
  A 2.19 2.17 84.4 0 1 150.79 132.10
  C 153.17 131.61 155.31 131.00 157.87 131.52
  Q 159.51 131.85 161.22 132.05
  A 1.14 1.11 75.0 0 1 161.99 132.51
  C 163.32 134.36 162.59 137.10 162.76 139.57
  Q 162.79 139.89 163.01 139.66
  Z"
/>
<path fill="#013a4b" d="
  M 225.28 185.25
  Q 222.04 188.74 217.75 190.80
  Q 217.37 190.98 216.96 190.97
  Q 216.35 190.96 215.97 191.41
  Q 215.62 191.84 215.07 191.88
  C 211.99 192.10 208.86 193.63 205.81 192.75
  C 203.58 192.12 201.23 192.02 199.28 191.32
  C 188.60 187.48 184.36 173.79 191.02 164.70
  C 197.85 155.38 212.23 155.92 222.44 156.02
  Q 222.93 156.02 222.95 155.53
  C 223.19 150.25 223.70 145.53 218.75 143.27
  C 211.66 140.03 201.31 144.09 194.96 147.73
  A 1.93 1.92 -28.8 0 1 192.30 146.96
  C 186.57 136.16 198.19 132.24 206.97 131.08
  Q 209.46 130.75 209.51 130.74
  C 214.74 129.55 218.94 130.90 223.87 131.08
  Q 224.35 131.10 224.71 131.40
  Q 225.65 132.21 226.96 132.03
  A 0.86 0.84 66.8 0 1 227.73 132.35
  Q 228.10 132.81 228.57 132.95
  C 231.84 133.96 234.63 136.80 236.19 139.73
  C 236.75 140.78 236.94 142.34 237.75 143.55
  Q 238.04 143.98 238.01 144.50
  C 237.83 147.24 238.75 149.74 238.75 152.18
  Q 238.76 170.84 238.75 189.12
  A 1.84 1.82 79.1 0 1 237.61 190.82
  Q 232.00 193.10 226.37 190.80
  Q 225.96 190.64 225.96 190.20
  L 225.93 185.50
  A 0.38 0.37 -23.9 0 0 225.28 185.25
  Z
  M 206.73 167.90
  C 204.14 169.45 203.93 171.62 203.07 174.05
  A 1.23 1.22 40.6 0 0 203.15 175.02
  C 203.87 176.35 203.94 177.71 204.82 178.84
  C 206.39 180.86 210.21 182.05 212.62 181.63
  Q 218.69 180.57 222.66 175.78
  Q 223.00 175.37 223.00 174.85
  L 223.02 166.47
  Q 223.03 165.92 222.47 165.92
  L 210.89 166.01
  Q 210.41 166.02 210.02 166.28
  Q 209.84 166.40 209.72 166.57
  Q 209.40 167.00 208.86 166.94
  C 207.67 166.81 207.48 167.44 206.73 167.90
  Z"
/>
<path fill="#013a4b" d="
  M 420.19 185.54
  C 416.82 188.60 412.81 191.42 408.20 192.09
  C 405.64 192.46 403.61 193.47 400.67 192.81
  Q 398.03 192.22 396.79 191.97
  C 386.77 189.91 381.58 181.29 383.19 171.49
  C 384.81 161.71 392.77 158.21 402.06 156.55
  C 407.04 155.66 412.36 155.99 417.48 156.00
  Q 418.00 156.01 418.01 155.49
  C 418.04 151.05 418.73 146.14 414.10 143.44
  C 412.46 142.48 408.45 141.77 406.73 142.00
  Q 397.71 143.21 389.87 147.78
  A 1.74 1.73 -38.2 0 1 387.80 147.54
  C 385.44 145.30 386.04 142.19 385.97 139.25
  A 1.46 1.40 -27.9 0 1 386.28 138.31
  C 386.90 137.52 387.05 136.76 387.87 136.18
  Q 391.03 133.94 394.76 132.83
  C 395.41 132.64 396.33 131.81 397.39 132.00
  Q 397.89 132.10 398.35 131.88
  C 400.72 130.79 403.24 131.04 405.48 130.55
  C 409.49 129.67 413.09 130.66 416.89 131.01
  C 423.09 131.59 429.13 134.91 431.49 140.95
  C 432.24 142.88 432.96 144.24 433.01 146.43
  C 433.07 148.84 433.50 151.25 433.50 153.54
  Q 433.50 171.53 433.48 189.45
  A 1.55 1.55 0.0 0 1 432.48 190.90
  Q 426.88 193.02 421.35 190.84
  Q 420.74 190.60 420.72 189.94
  L 420.58 185.70
  Q 420.56 185.19 420.19 185.54
  Z
  M 400.56 179.71
  C 406.19 183.94 414.09 180.52 417.75 175.50
  Q 418.01 175.14 418.01 174.70
  L 417.99 166.45
  Q 417.99 165.90 417.45 165.91
  L 406.00 166.02
  Q 405.47 166.03 405.04 166.34
  C 403.98 167.13 402.96 166.92 401.96 167.59
  C 399.60 169.16 396.86 173.26 398.39 176.21
  C 399.11 177.59 399.29 178.76 400.56 179.71
  Z"
/>
</svg>
