<?xml version="1.0" encoding="UTF-8" standalone="no"?>
<!DOCTYPE svg PUBLIC "-//W3C//DTD SVG 1.1//EN" "http://www.w3.org/Graphics/SVG/1.1/DTD/svg11.dtd">
<svg xmlns="http://www.w3.org/2000/svg" version="1.1" viewBox="0.00 0.00 300.00 97.00">
<path stroke="#7d88cf" stroke-width="2.00" fill="none" stroke-linecap="butt" vector-effect="non-scaling-stroke" d="
  M 28.66 59.13
  L 27.22 66.96
  A 0.25 0.25 0.0 0 0 27.47 67.25
  L 34.78 67.25
  A 0.34 0.33 5.1 0 0 35.11 66.98
  L 36.59 59.01
  Q 36.71 58.41 37.31 58.44
  Q 43.68 58.67 49.17 58.36
  Q 55.39 58.02 57.90 52.98
  Q 60.55 47.67 61.31 38.27
  C 61.82 31.98 57.30 29.81 51.85 29.78
  Q 42.16 29.72 34.12 29.77
  Q 33.64 29.77 33.56 30.24
  L 32.52 36.26
  Q 32.43 36.78 32.95 36.77
  Q 42.24 36.68 49.31 36.82
  Q 50.77 36.85 52.11 37.53
  A 1.40 1.40 0.0 0 1 52.85 38.51
  C 53.42 41.34 52.33 45.52 51.70 48.32
  A 3.76 3.76 0.0 0 1 48.03 51.25
  L 38.81 51.25
  Q 38.11 51.24 38.23 50.56
  L 39.68 42.74
  Q 39.72 42.50 39.48 42.50
  L 32.04 42.50
  Q 31.82 42.50 31.78 42.71
  L 30.30 50.77
  Q 30.21 51.25 29.73 51.25
  L 21.74 51.25
  A 0.31 0.30 -85.6 0 0 21.44 51.51
  L 20.32 58.26
  Q 20.28 58.49 20.51 58.49
  L 28.13 58.50
  Q 28.77 58.50 28.66 59.13"
/>
<path fill="#e7eaf3" d="
  M 9.14 31.93
  C 9.10 21.62 15.07 15.90 25.29 15.97
  Q 41.15 16.07 56.40 15.90
  Q 62.25 15.84 65.56 17.45
  Q 72.66 20.90 73.21 29.60
  C 73.39 32.46 73.71 35.35 73.73 38.19
  Q 73.79 50.58 73.73 62.62
  C 73.71 66.29 73.43 70.48 71.30 73.64
  Q 67.10 79.86 59.50 79.94
  Q 42.27 80.10 24.99 80.01
  Q 14.23 79.96 10.73 72.08
  Q 8.98 68.13 9.07 57.95
  Q 9.19 44.23 9.14 31.93
  Z
  M 28.66 59.13
  L 27.22 66.96
  A 0.25 0.25 0.0 0 0 27.47 67.25
  L 34.78 67.25
  A 0.34 0.33 5.1 0 0 35.11 66.98
  L 36.59 59.01
  Q 36.71 58.41 37.31 58.44
  Q 43.68 58.67 49.17 58.36
  Q 55.39 58.02 57.90 52.98
  Q 60.55 47.67 61.31 38.27
  C 61.82 31.98 57.30 29.81 51.85 29.78
  Q 42.16 29.72 34.12 29.77
  Q 33.64 29.77 33.56 30.24
  L 32.52 36.26
  Q 32.43 36.78 32.95 36.77
  Q 42.24 36.68 49.31 36.82
  Q 50.77 36.85 52.11 37.53
  A 1.40 1.40 0.0 0 1 52.85 38.51
  C 53.42 41.34 52.33 45.52 51.70 48.32
  A 3.76 3.76 0.0 0 1 48.03 51.25
  L 38.81 51.25
  Q 38.11 51.24 38.23 50.56
  L 39.68 42.74
  Q 39.72 42.50 39.48 42.50
  L 32.04 42.50
  Q 31.82 42.50 31.78 42.71
  L 30.30 50.77
  Q 30.21 51.25 29.73 51.25
  L 21.74 51.25
  A 0.31 0.30 -85.6 0 0 21.44 51.51
  L 20.32 58.26
  Q 20.28 58.49 20.51 58.49
  L 28.13 58.50
  Q 28.77 58.50 28.66 59.13
  Z"
/>
<path fill="#1226aa" d="
  M 278.64 29.40
  L 272.04 66.72
  A 0.34 0.34 0.0 0 1 271.70 67.00
  L 264.33 67.00
  A 0.34 0.34 0.0 0 1 264.00 66.60
  L 270.35 29.57
  A 0.34 0.34 0.0 0 1 270.68 29.29
  L 278.29 29.00
  A 0.34 0.34 0.0 0 1 278.64 29.40
  Z"
/>
<path fill="#1226aa" d="
  M 292.42 29.39
  L 285.84 66.72
  A 0.34 0.34 0.0 0 1 285.50 67.00
  L 278.11 67.00
  A 0.34 0.34 0.0 0 1 277.78 66.60
  L 284.14 29.58
  A 0.34 0.34 0.0 0 1 284.46 29.30
  L 292.07 28.99
  A 0.34 0.34 0.0 0 1 292.42 29.39
  Z"
/>
<path fill="#1226aa" d="
  M 110.88 51.30
  L 120.30 51.14
  A 3.69 3.68 -83.3 0 0 123.80 48.37
  Q 124.94 43.89 125.24 39.00
  A 2.30 2.29 -88.2 0 0 122.96 36.57
  L 104.92 36.47
  Q 104.61 36.46 104.66 36.16
  L 105.78 29.56
  Q 105.82 29.31 106.07 29.31
  Q 120.92 29.02 127.12 29.58
  C 136.54 30.43 133.15 43.04 131.88 48.51
  C 129.15 60.21 118.86 58.12 109.53 58.29
  Q 109.03 58.30 108.94 58.79
  L 107.44 66.80
  Q 107.40 67.00 107.20 67.00
  L 99.61 66.99
  Q 99.34 66.99 99.39 66.72
  L 100.89 58.71
  Q 100.97 58.24 100.50 58.24
  L 92.50 58.25
  Q 92.24 58.25 92.28 58.00
  L 93.22 51.50
  A 0.30 0.28 -85.2 0 1 93.50 51.25
  L 101.71 51.25
  Q 102.17 51.25 102.25 50.79
  L 103.76 42.47
  Q 103.80 42.25 104.02 42.25
  L 111.55 42.25
  Q 111.87 42.25 111.81 42.56
  L 110.36 50.69
  Q 110.25 51.31 110.88 51.30
  Z"
/>
<path fill="#1226aa" d="
  M 223.04 49.01
  C 228.96 49.64 228.65 54.96 227.49 59.34
  Q 225.46 66.98 216.91 67.19
  Q 207.49 67.42 198.27 66.95
  Q 197.65 66.92 197.76 66.31
  L 204.02 29.93
  Q 204.13 29.29 204.78 29.28
  Q 213.35 29.13 221.72 29.38
  C 229.97 29.64 230.69 36.40 228.25 42.56
  Q 226.81 46.18 222.87 47.96
  Q 221.04 48.79 223.04 49.01
  Z
  M 209.51 44.98
  A 0.24 0.23 -84.9 0 0 209.74 45.26
  L 216.41 45.24
  Q 219.86 45.24 220.53 41.85
  L 220.98 39.53
  Q 221.62 36.25 218.28 36.25
  L 211.51 36.25
  A 0.59 0.58 4.6 0 0 210.93 36.74
  L 209.51 44.98
  Z
  M 206.95 60.02
  A 0.20 0.20 0.0 0 0 207.15 60.25
  L 215.06 60.25
  Q 218.95 60.25 219.73 56.44
  L 219.94 55.43
  Q 220.70 51.75 216.93 51.75
  L 208.54 51.75
  Q 208.33 51.75 208.29 51.96
  L 206.95 60.02
  Z"
/>
<path fill="#1226aa" d="
  M 28.13 58.50
  L 20.51 58.49
  Q 20.28 58.49 20.32 58.26
  L 21.44 51.51
  A 0.31 0.30 -85.6 0 1 21.74 51.25
  L 29.73 51.25
  Q 30.21 51.25 30.30 50.77
  L 31.78 42.71
  Q 31.82 42.50 32.04 42.50
  L 39.48 42.50
  Q 39.72 42.50 39.68 42.74
  L 38.23 50.56
  Q 38.11 51.24 38.81 51.25
  L 48.03 51.25
  A 3.76 3.76 0.0 0 0 51.70 48.32
  C 52.33 45.52 53.42 41.34 52.85 38.51
  A 1.40 1.40 0.0 0 0 52.11 37.53
  Q 50.77 36.85 49.31 36.82
  Q 42.24 36.68 32.95 36.77
  Q 32.43 36.78 32.52 36.26
  L 33.56 30.24
  Q 33.64 29.77 34.12 29.77
  Q 42.16 29.72 51.85 29.78
  C 57.30 29.81 61.82 31.98 61.31 38.27
  Q 60.55 47.67 57.90 52.98
  Q 55.39 58.02 49.17 58.36
  Q 43.68 58.67 37.31 58.44
  Q 36.71 58.41 36.59 59.01
  L 35.11 66.98
  A 0.34 0.33 5.1 0 1 34.78 67.25
  L 27.47 67.25
  A 0.25 0.25 0.0 0 1 27.22 66.96
  L 28.66 59.13
  Q 28.77 58.50 28.13 58.50
  Z"
/>
<path fill="#1226aa" d="
  M 153.77 59.74
  C 149.87 64.55 145.35 68.40 139.17 67.20
  C 135.26 66.45 134.24 62.52 134.54 59.17
  Q 135.05 53.62 136.79 47.17
  C 137.98 42.75 140.22 38.36 145.11 37.35
  Q 151.12 36.11 157.63 39.90
  A 0.78 0.77 24.8 0 0 158.76 39.49
  L 159.25 38.12
  Q 159.47 37.50 160.13 37.50
  L 165.57 37.50
  Q 166.19 37.50 166.09 38.12
  L 161.18 66.69
  Q 161.12 67.00 160.81 67.00
  L 154.27 66.99
  Q 154.06 66.99 154.07 66.77
  L 154.35 59.96
  Q 154.40 58.97 153.77 59.74
  Z
  M 154.62 45.42
  Q 152.11 43.85 149.21 43.79
  C 143.79 43.69 143.13 54.62 142.73 58.33
  C 142.58 59.67 143.85 60.74 145.10 60.07
  C 149.88 57.49 153.98 51.40 156.21 46.83
  Q 156.54 46.17 155.83 45.97
  Q 155.19 45.78 154.62 45.42
  Z"
/>
<path fill="#1226aa" d="
  M 179.52 59.00
  L 181.01 59.00
  Q 181.56 58.99 181.83 58.51
  Q 185.14 52.51 187.49 47.59
  Q 189.66 43.07 189.00 38.11
  Q 188.95 37.75 189.31 37.75
  L 195.99 37.75
  Q 196.37 37.75 196.43 38.13
  Q 197.49 45.40 194.17 51.56
  Q 190.17 58.99 185.67 66.75
  Q 183.14 71.12 179.99 74.53
  Q 177.91 76.79 174.93 76.94
  Q 169.57 77.22 164.08 76.18
  Q 163.82 76.13 163.87 75.86
  L 164.96 70.30
  Q 164.99 70.16 165.12 70.16
  Q 167.74 70.08 170.65 70.41
  C 174.50 70.83 176.17 68.86 177.88 65.83
  Q 178.22 65.24 177.54 65.24
  L 172.52 65.25
  Q 171.91 65.25 171.88 64.63
  L 170.70 37.78
  Q 170.69 37.50 170.97 37.50
  L 178.27 37.50
  Q 178.54 37.50 178.54 37.77
  L 178.78 58.27
  Q 178.79 59.01 179.52 59.00
  Z"
/>
<path fill="#1226aa" d="
  M 251.30 59.10
  Q 247.90 64.59 243.16 66.87
  C 240.90 67.96 237.08 68.14 234.75 66.85
  C 232.11 65.39 231.51 61.93 231.99 59.09
  Q 233.74 48.63 235.48 37.90
  Q 235.55 37.50 235.96 37.50
  L 243.26 37.50
  Q 243.60 37.50 243.54 37.84
  Q 241.91 47.64 239.99 58.02
  Q 239.85 58.80 240.12 59.42
  A 1.41 1.41 0.0 0 0 242.35 59.91
  Q 248.95 54.04 253.18 45.46
  Q 255.01 41.76 256.96 37.96
  A 0.87 0.86 13.5 0 1 257.73 37.49
  L 262.77 37.51
  A 0.44 0.44 0.0 0 1 263.21 38.02
  L 258.25 66.77
  Q 258.21 67.01 257.98 67.00
  L 251.34 66.98
  Q 251.14 66.98 251.16 66.79
  L 251.80 59.27
  Q 251.90 58.12 251.30 59.10
  Z"
/>
</svg>
