<?xml version="1.0" encoding="UTF-8" standalone="no"?>
<!DOCTYPE svg PUBLIC "-//W3C//DTD SVG 1.1//EN" "http://www.w3.org/Graphics/SVG/1.1/DTD/svg11.dtd">
<svg xmlns="http://www.w3.org/2000/svg" version="1.1" viewBox="0.00 0.00 200.00 44.00">
<path stroke="#f19596" stroke-width="2.00" fill="none" stroke-linecap="butt" vector-effect="non-scaling-stroke" d="
  M 80.24 11.25
  L 80.25 9.73
  Q 80.25 9.21 79.74 9.22
  L 75.02 9.26
  Q 74.31 9.26 74.31 9.98
  L 74.31 32.32
  Q 74.31 32.59 74.57 32.59
  L 79.98 32.62
  Q 80.25 32.62 80.25 32.35
  Q 80.31 26.61 80.22 20.20
  C 80.10 11.85 90.85 11.85 90.95 19.41
  Q 91.02 25.29 90.97 32.24
  A 0.38 0.37 0.7 0 0 91.35 32.62
  L 96.46 32.62
  Q 96.83 32.62 96.82 32.26
  Q 96.68 27.16 96.84 21.11
  C 97.03 13.70 94.18 8.03 85.73 9.06
  Q 82.80 9.42 80.91 11.51
  Q 80.24 12.26 80.24 11.25"
/>
<path fill="#e22b2d" d="
  M 106.96 22.04
  A 21.36 21.36 0.0 0 1 85.60 43.40
  A 21.36 21.36 0.0 0 1 64.24 22.04
  A 21.36 21.36 0.0 0 1 85.60 0.68
  A 21.36 21.36 0.0 0 1 106.96 22.04
  Z
  M 80.24 11.25
  L 80.25 9.73
  Q 80.25 9.21 79.74 9.22
  L 75.02 9.26
  Q 74.31 9.26 74.31 9.98
  L 74.31 32.32
  Q 74.31 32.59 74.57 32.59
  L 79.98 32.62
  Q 80.25 32.62 80.25 32.35
  Q 80.31 26.61 80.22 20.20
  C 80.10 11.85 90.85 11.85 90.95 19.41
  Q 91.02 25.29 90.97 32.24
  A 0.38 0.37 0.7 0 0 91.35 32.62
  L 96.46 32.62
  Q 96.83 32.62 96.82 32.26
  Q 96.68 27.16 96.84 21.11
  C 97.03 13.70 94.18 8.03 85.73 9.06
  Q 82.80 9.42 80.91 11.51
  Q 80.24 12.26 80.24 11.25
  Z"
/>
<path fill="#0f50e0" d="
  M 114.59 31.46
  L 110.83 31.43
  A 0.35 0.35 0.0 0 1 110.48 31.08
  L 110.48 7.50
  A 0.35 0.35 0.0 0 1 110.82 7.15
  L 114.57 7.04
  A 0.35 0.35 0.0 0 1 114.93 7.39
  L 114.97 20.12
  A 0.35 0.35 0.0 0 0 115.59 20.33
  L 121.01 13.38
  A 0.35 0.35 0.0 0 1 121.28 13.25
  L 126.44 13.19
  A 0.35 0.35 0.0 0 1 126.71 13.77
  L 119.23 22.13
  A 0.35 0.35 0.0 0 0 119.23 22.59
  L 126.58 30.76
  A 0.35 0.35 0.0 0 1 126.33 31.35
  L 121.38 31.51
  A 0.35 0.35 0.0 0 1 121.09 31.38
  L 115.59 24.25
  A 0.35 0.35 0.0 0 0 114.97 24.46
  L 114.94 31.11
  A 0.35 0.35 0.0 0 1 114.59 31.46
  Z"
/>
<rect fill="#062ed5" x="150.58" y="7.10" width="4.46" height="24.34" rx="0.38"/>
<path fill="#ffffff" d="
  M 80.91 11.51
  Q 82.80 9.42 85.73 9.06
  C 94.18 8.03 97.03 13.70 96.84 21.11
  Q 96.68 27.16 96.82 32.26
  Q 96.83 32.62 96.46 32.62
  L 91.35 32.62
  A 0.38 0.37 0.7 0 1 90.97 32.24
  Q 91.02 25.29 90.95 19.41
  C 90.85 11.85 80.10 11.85 80.22 20.20
  Q 80.31 26.61 80.25 32.35
  Q 80.25 32.62 79.98 32.62
  L 74.57 32.59
  Q 74.31 32.59 74.31 32.32
  L 74.31 9.98
  Q 74.31 9.26 75.02 9.26
  L 79.74 9.22
  Q 80.25 9.21 80.25 9.73
  L 80.24 11.25
  Q 80.24 12.26 80.91 11.51
  Z"
/>
<path fill="#1875eb" d="
  M 5.02 29.53
  L 5.10 39.78
  Q 5.10 40.16 4.72 40.17
  L 1.05 40.22
  A 0.42 0.42 0.0 0 1 0.62 39.80
  L 0.62 13.82
  Q 0.62 13.26 1.18 13.25
  L 4.30 13.18
  A 0.82 0.81 11.9 0 1 5.06 14.34
  Q 4.88 14.73 4.96 15.16
  Q 5.08 15.79 5.54 15.35
  C 11.26 9.96 18.63 14.04 19.46 21.13
  C 19.96 25.50 17.45 30.72 12.81 31.55
  Q 8.31 32.35 5.55 29.32
  Q 5.02 28.73 5.02 29.53
  Z
  M 9.9005 27.7600
  A 5.43 4.83 90.1 0 0 14.7400 22.3384
  A 5.43 4.83 90.1 0 0 9.9195 16.9000
  A 5.43 4.83 90.1 0 0 5.0800 22.3216
  A 5.43 4.83 90.1 0 0 9.9005 27.7600
  Z"
/>
<path fill="#0b42dc" d="
  M 147.24 22.33
  A 9.45 9.45 0.0 0 1 137.79 31.78
  A 9.45 9.45 0.0 0 1 128.34 22.33
  A 9.45 9.45 0.0 0 1 137.79 12.88
  A 9.45 9.45 0.0 0 1 147.24 22.33
  Z
  M 137.6824 27.8397
  A 5.50 4.74 90.6 0 0 142.4797 22.3896
  A 5.50 4.74 90.6 0 0 137.7976 16.8403
  A 5.50 4.74 90.6 0 0 133.0003 22.2904
  A 5.50 4.74 90.6 0 0 137.6824 27.8397
  Z"
/>
<path fill="#062ed5" d="
  M 172.23 29.38
  Q 170.78 31.04 168.70 31.45
  C 157.56 33.64 154.70 17.17 163.73 13.50
  Q 168.47 11.57 172.33 15.36
  Q 172.92 15.95 172.84 15.12
  L 172.75 14.04
  Q 172.67 13.25 173.46 13.24
  L 176.74 13.20
  Q 177.29 13.20 177.29 13.74
  L 177.29 30.70
  Q 177.29 31.44 176.55 31.44
  L 173.50 31.46
  Q 172.48 31.46 172.79 30.49
  Q 172.94 30.01 172.83 29.53
  Q 172.68 28.87 172.23 29.38
  Z
  M 167.9511 27.7500
  A 5.42 4.84 90.2 0 0 172.8100 22.3469
  A 5.42 4.84 90.2 0 0 167.9889 16.9100
  A 5.42 4.84 90.2 0 0 163.1300 22.3131
  A 5.42 4.84 90.2 0 0 167.9511 27.7500
  Z"
/>
<path fill="#1875eb" d="
  M 35.96 14.75
  L 35.75 13.82
  Q 35.64 13.28 36.19 13.27
  L 40.10 13.19
  Q 40.52 13.18 40.52 13.60
  L 40.52 30.84
  Q 40.52 31.46 39.90 31.46
  L 36.26 31.42
  Q 35.46 31.41 35.85 30.71
  Q 36.08 30.29 36.02 29.84
  Q 35.91 29.07 35.32 29.57
  Q 31.07 33.16 26.22 30.83
  C 20.32 27.99 20.12 17.26 25.85 14.04
  Q 30.80 11.25 35.34 15.12
  Q 36.20 15.84 35.96 14.75
  Z
  M 31.2322 27.7384
  A 5.41 4.87 88.6 0 0 35.9685 22.2110
  A 5.41 4.87 88.6 0 0 30.9678 16.9216
  A 5.41 4.87 88.6 0 0 26.2315 22.4490
  A 5.41 4.87 88.6 0 0 31.2322 27.7384
  Z"
/>
<path fill="#1875eb" d="
  M 57.74 13.27
  L 61.89 13.16
  A 0.31 0.31 0.0 0 1 62.18 13.59
  L 51.18 39.87
  A 0.31 0.31 0.0 0 1 50.90 40.06
  L 46.76 40.16
  A 0.31 0.31 0.0 0 1 46.47 39.73
  L 50.13 31.04
  A 0.31 0.31 0.0 0 0 50.13 30.80
  L 43.09 13.60
  A 0.31 0.31 0.0 0 1 43.38 13.17
  L 47.85 13.27
  A 0.31 0.31 0.0 0 1 48.13 13.47
  L 52.46 25.35
  A 0.31 0.31 0.0 0 0 53.04 25.35
  L 57.46 13.48
  A 0.31 0.31 0.0 0 1 57.74 13.27
  Z"
/>
<path fill="#062ed5" d="
  M 189.84 25.01
  Q 191.54 21.51 192.64 17.73
  C 193.02 16.42 193.77 15.23 194.18 13.94
  Q 194.40 13.26 195.11 13.24
  L 198.24 13.19
  A 0.68 0.68 0.0 0 1 198.88 14.13
  L 188.05 39.89
  Q 187.96 40.11 187.74 40.11
  L 183.24 40.11
  A 0.16 0.16 0.0 0 1 183.10 39.88
  Q 184.99 36.13 186.46 32.32
  Q 187.07 30.72 185.98 28.15
  Q 182.66 20.30 179.82 13.47
  A 0.12 0.12 0.0 0 1 179.93 13.30
  L 184.70 13.20
  Q 184.93 13.19 185.01 13.41
  L 189.18 24.97
  Q 189.46 25.78 189.84 25.01
  Z"
/>
</svg>
