<?xml version="1.0" encoding="UTF-8" standalone="no"?>
<!DOCTYPE svg PUBLIC "-//W3C//DTD SVG 1.1//EN" "http://www.w3.org/Graphics/SVG/1.1/DTD/svg11.dtd">
<svg xmlns="http://www.w3.org/2000/svg" version="1.1" viewBox="0.00 0.00 2569.00 816.00">
<path fill="#197fc3" d="
  M 259.79 505.54
  L 259.78 709.77
  A 0.55 0.55 0.0 0 1 259.23 710.32
  L 127.49 710.30
  A 0.94 0.94 0.0 0 1 126.55 709.36
  L 126.54 89.02
  Q 126.54 88.54 127.02 88.54
  Q 234.66 88.45 342.24 88.52
  C 405.36 88.56 472.30 104.02 518.98 149.38
  C 564.97 194.07 578.36 259.20 573.02 321.00
  C 566.45 397.13 526.06 456.54 454.73 484.87
  C 417.58 499.62 378.74 504.60 339.01 504.75
  Q 299.91 504.90 260.55 504.79
  Q 259.79 504.79 259.79 505.54
  Z
  M 436.87 304.62
  C 439.59 255.20 418.42 214.16 368.41 202.05
  Q 353.98 198.56 340.00 198.53
  Q 300.07 198.45 260.31 198.49
  Q 259.79 198.50 259.79 199.01
  L 259.79 394.01
  A 0.83 0.83 0.0 0 0 260.62 394.84
  Q 297.32 394.85 333.49 394.78
  Q 346.69 394.75 353.47 393.96
  C 403.97 388.05 434.08 355.46 436.87 304.62
  Z"
/>
<path fill="#197fc3" d="
  M 636.60 710.68
  L 497.86 710.68
  A 0.41 0.41 0.0 0 1 497.48 710.13
  L 718.71 89.15
  A 0.41 0.41 0.0 0 1 719.10 88.88
  L 894.11 88.87
  A 0.41 0.41 0.0 0 1 894.50 89.14
  L 1115.74 710.14
  A 0.41 0.41 0.0 0 1 1115.36 710.69
  L 966.71 710.68
  A 0.41 0.41 0.0 0 1 966.32 710.40
  L 923.27 577.61
  A 0.41 0.41 0.0 0 0 922.88 577.33
  L 680.41 577.33
  A 0.41 0.41 0.0 0 0 680.02 577.61
  L 636.99 710.40
  A 0.41 0.41 0.0 0 1 636.60 710.68
  Z
  M 805.32 215.39
  A 0.48 0.48 0.0 0 0 804.86 215.06
  L 798.43 215.09
  A 0.48 0.48 0.0 0 0 797.97 215.42
  L 712.73 477.59
  A 0.48 0.48 0.0 0 0 713.19 478.22
  L 890.12 478.23
  A 0.48 0.48 0.0 0 0 890.58 477.60
  L 805.32 215.39
  Z"
/>
<path fill="#197fc3" d="
  M 1250.01 349.36
  L 1255.69 349.34
  A 1.10 1.09 -76.0 0 0 1256.66 348.75
  L 1394.77 89.46
  Q 1395.09 88.86 1395.76 88.86
  L 1534.92 88.90
  A 0.41 0.41 0.0 0 1 1535.27 89.51
  L 1317.11 474.85
  A 2.81 2.78 -30.6 0 0 1316.75 476.22
  L 1316.75 710.47
  A 0.22 0.21 0.0 0 1 1316.53 710.68
  L 1184.01 710.68
  A 0.64 0.63 0.0 0 1 1183.37 710.05
  Q 1183.38 594.89 1183.37 479.50
  C 1183.37 476.80 1183.23 475.18 1181.85 472.75
  Q 1073.45 281.28 965.00 89.70
  A 0.55 0.54 -14.6 0 1 965.48 88.89
  L 1113.26 88.87
  A 1.32 1.32 0.0 0 1 1114.43 89.58
  L 1248.84 348.65
  A 1.31 1.29 75.9 0 0 1250.01 349.36
  Z"
/>
<path fill="#464d4f" d="
  M 1830.10 199.38
  L 1830.10 710.25
  A 0.44 0.44 0.0 0 1 1829.66 710.69
  L 1697.19 710.70
  A 0.44 0.44 0.0 0 1 1696.75 710.26
  L 1696.76 199.38
  A 0.44 0.44 0.0 0 0 1696.32 198.94
  L 1523.70 198.96
  A 0.44 0.44 0.0 0 1 1523.31 198.30
  L 1585.43 89.11
  A 0.44 0.44 0.0 0 1 1585.82 88.89
  L 2004.31 88.91
  A 0.44 0.44 0.0 0 1 2004.75 89.35
  L 2004.76 198.52
  A 0.44 0.44 0.0 0 1 2004.32 198.96
  L 1830.54 198.94
  A 0.44 0.44 0.0 0 0 1830.10 199.38
  Z"
/>
<path fill="#464d4f" d="
  M 2379.56 483.37
  Q 2378.87 483.65 2379.28 484.26
  L 2528.69 709.85
  Q 2529.25 710.69 2528.23 710.69
  L 2384.77 710.69
  A 1.06 1.04 -14.7 0 1 2383.86 710.17
  L 2264.91 505.22
  A 1.77 1.75 74.8 0 0 2263.39 504.34
  L 2182.45 504.40
  A 0.90 0.89 90.0 0 0 2181.56 505.30
  L 2181.56 709.94
  Q 2181.56 710.69 2180.81 710.69
  L 2049.30 710.70
  Q 2048.33 710.70 2048.33 709.73
  L 2048.34 89.33
  Q 2048.34 88.90 2048.77 88.90
  Q 2150.71 88.90 2252.75 88.91
  C 2299.27 88.92 2344.55 93.74 2387.31 113.42
  C 2452.38 143.36 2487.80 199.51 2494.69 269.99
  C 2498.28 306.73 2494.62 346.12 2481.42 381.14
  C 2463.26 429.29 2426.91 464.03 2379.56 483.37
  Z
  M 2315.04 212.03
  C 2298.32 202.81 2278.98 198.98 2259.74 198.97
  Q 2220.90 198.95 2182.11 198.94
  A 0.55 0.54 -0.0 0 0 2181.56 199.48
  L 2181.56 394.65
  A 0.64 0.64 0.0 0 0 2182.20 395.29
  Q 2221.36 395.33 2260.75 395.13
  C 2308.96 394.90 2347.70 369.93 2356.71 320.76
  C 2364.30 279.30 2354.05 233.55 2315.04 212.03
  Z"
/>
</svg>
