<?xml version="1.0" encoding="UTF-8" standalone="no"?>
<!DOCTYPE svg PUBLIC "-//W3C//DTD SVG 1.1//EN" "http://www.w3.org/Graphics/SVG/1.1/DTD/svg11.dtd">
<svg xmlns="http://www.w3.org/2000/svg" version="1.1" viewBox="0.00 0.00 1338.00 608.00">
<g stroke-width="2.00" fill="none" stroke-linecap="butt">
<path stroke="#302959" vector-effect="non-scaling-stroke" d="
  M 305.09 235.77
  Q 304.37 235.97 303.75 235.46
  Q 303.35 235.14 302.98 235.51
  L 302.66 235.83
  Q 302.37 236.12 302.08 235.84
  Q 301.93 235.69 301.90 235.50
  Q 301.77 234.63 301.27 235.40
  Q 301.01 235.80 300.92 236.78
  A 0.43 0.42 7.4 0 1 300.42 237.16
  Q 300.08 237.10 299.90 236.91
  A 0.44 0.44 0.0 0 0 299.13 237.21
  Q 299.14 238.54 297.97 239.22
  Q 297.50 239.49 297.24 239.98
  L 297.09 240.26
  Q 296.82 240.76 296.29 240.58
  Q 295.09 240.18 293.80 240.41
  Q 293.27 240.51 292.97 240.96
  L 291.64 242.96
  Q 291.40 243.32 291.68 243.65
  Q 291.88 243.88 291.88 244.13
  A 0.72 0.29 86.4 0 1 291.71 244.64
  Q 291.58 244.73 291.49 244.87
  Q 291.37 245.06 291.40 245.43
  Q 291.49 246.72 290.57 247.64
  Q 290.53 247.68 290.56 247.73
  L 290.83 248.10
  Q 291.07 248.43 290.78 248.71
  L 290.32 249.17
  Q 290.08 249.41 289.99 249.74
  Q 289.80 250.42 289.06 250.49
  Q 288.53 250.54 288.33 251.04
  Q 287.95 251.98 287.04 252.42
  A 0.76 0.76 0.0 0 0 286.62 253.10
  L 286.61 255.50
  Q 286.61 256.11 286.00 256.11
  L 285.50 256.11
  Q 285.10 256.11 285.06 256.51
  Q 284.72 259.50 281.61 260.10
  Q 281.13 260.20 280.91 260.62
  Q 280.02 262.31 280.12 264.19
  Q 280.15 264.71 279.70 264.97
  Q 278.79 265.50 278.25 266.38
  Q 278.00 266.78 277.53 266.89
  L 276.09 267.21"
/>
<path stroke="#302959" vector-effect="non-scaling-stroke" d="
  M 186.56 363.20
  Q 186.14 363.70 185.60 363.80
  Q 185.16 363.88 184.81 363.61
  Q 183.90 362.88 182.94 362.86
  Q 182.71 362.85 182.72 363.07
  Q 182.72 363.23 182.68 363.37
  Q 182.56 363.70 182.25 363.54
  C 181.41 363.10 181.25 362.20 180.60 361.83
  Q 180.15 361.58 179.63 361.61
  Q 179.20 361.63 179.32 362.05
  Q 179.44 362.50 179.31 362.85
  Q 179.17 363.22 178.77 363.20
  Q 178.49 363.18 178.23 362.96
  A 0.13 0.13 0.0 0 1 178.27 362.74
  L 178.63 362.61
  A 0.07 0.06 -51.0 0 0 178.62 362.48
  L 176.72 362.39
  Q 176.28 362.37 175.94 362.64
  Q 175.65 362.87 175.54 363.26
  Q 175.41 363.70 174.98 363.82
  Q 173.80 364.16 173.54 365.42
  Q 173.45 365.84 173.29 366.00
  Q 173.04 366.25 172.71 366.38
  Q 172.33 366.52 172.17 366.90
  Q 171.71 367.97 170.66 367.87
  A 0.53 0.52 90.0 0 0 170.09 368.45
  Q 170.30 370.40 168.54 370.38
  Q 167.93 370.38 167.87 370.98
  Q 167.78 371.94 166.90 371.87
  A 0.56 0.56 0.0 0 0 166.48 372.01
  Q 165.75 372.66 165.96 373.48
  Q 166.05 373.84 165.78 374.09
  Q 164.98 374.82 164.06 374.68
  A 0.65 0.64 -64.0 0 0 163.47 374.89
  C 162.73 375.69 161.65 375.73 161.28 376.19
  Q 161.06 376.48 161.23 376.85
  A 0.88 0.86 49.9 0 1 161.16 377.74
  Q 159.70 379.75 161.16 382.35
  Q 161.26 382.53 161.41 382.66
  Q 161.56 382.80 161.61 383.00
  A 0.37 0.36 -6.8 0 1 161.25 383.45
  Q 160.88 383.44 160.50 383.63
  Q 160.42 383.67 160.46 383.70
  Q 160.55 383.80 160.51 383.97
  Q 160.47 384.11 160.31 384.11
  L 159.75 384.11
  Q 159.32 384.11 159.37 384.55
  Q 159.46 385.39 159.03 386.28"
/>
<path stroke="#4a3068" vector-effect="non-scaling-stroke" d="
  M 721.00 188.09
  Q 718.62 189.63 717.67 191.13
  Q 717.39 191.57 716.90 191.76
  Q 716.02 192.10 716.20 193.28
  A 2.02 2.02 0.0 0 1 714.68 195.57
  Q 712.37 196.13 711.64 198.33
  Q 711.45 198.90 710.91 199.16
  L 708.70 200.26
  Q 708.24 200.49 708.11 200.98
  Q 707.44 203.56 704.75 203.65
  Q 704.35 203.66 704.16 204.01
  Q 703.92 204.44 703.85 204.85
  Q 703.76 205.31 703.39 205.60
  Q 702.60 206.22 702.17 207.19
  Q 701.88 207.84 701.31 207.42
  Q 700.42 206.79 698.85 207.35
  A 1.48 1.47 -8.4 0 0 697.87 208.66
  Q 697.81 209.97 696.20 209.88
  Q 696.63 209.77 696.83 210.08
  Q 697.11 210.49 696.62 210.44
  Q 696.32 210.42 696.06 210.53
  Q 695.87 210.62 696.00 210.75
  Q 696.06 210.82 696.13 210.87
  Q 696.48 211.16 695.88 211.32
  Q 695.50 211.42 695.55 211.72"
/>
<path stroke="#4a3068" vector-effect="non-scaling-stroke" d="
  M 623.22 358.51
  Q 617.44 358.74 611.66 358.62
  Q 611.47 358.62 611.35 358.71
  Q 611.19 358.83 611.14 359.00
  Q 611.05 359.26 610.78 359.31
  L 608.28 359.70
  A 0.15 0.15 0.0 0 0 608.23 359.98
  Q 608.37 360.05 608.50 360.10
  A 0.17 0.16 -45.3 0 1 608.50 360.41
  Q 608.38 360.45 608.26 360.51
  A 0.12 0.12 0.0 0 0 608.26 360.73
  L 609.27 361.22
  Q 609.87 361.51 609.63 362.14
  Q 609.03 363.67 610.40 364.44
  A 0.64 0.64 0.0 0 1 610.26 365.61
  L 607.76 366.29
  A 0.50 0.49 83.9 0 0 607.39 366.76
  L 607.38 367.24
  Q 607.37 367.87 607.95 368.12
  L 608.66 368.44
  Q 609.26 368.71 608.87 369.24
  L 606.47 372.50
  A 0.33 0.33 0.0 0 1 606.20 372.64
  L 605.81 372.64
  A 0.73 0.70 19.7 0 0 605.27 372.88
  L 600.73 377.96
  Q 600.65 378.05 600.64 378.17
  Q 600.64 378.30 600.62 378.43
  Q 600.60 378.63 600.40 378.63
  Q 599.13 378.61 598.51 379.51
  Q 597.70 380.70 596.08 384.02
  Q 596.02 384.14 595.89 384.13
  Q 595.75 384.12 595.64 384.18
  Q 595.59 384.20 595.60 384.26
  L 596.29 387.23
  Q 596.32 387.38 596.35 387.40
  Q 596.46 387.48 596.58 387.53
  Q 596.65 387.56 596.50 387.64
  L 595.97 387.93
  A 0.33 0.32 79.5 0 0 595.80 388.18
  Q 595.78 388.38 595.84 388.56
  Q 595.95 388.88 596.17 388.63
  Q 596.34 388.43 596.54 388.38
  Q 596.85 388.29 596.76 388.60
  Q 596.70 388.81 596.76 389.01
  Q 596.88 389.42 597.30 389.42
  L 611.97 389.60"
/>
</g>
<path fill="#262753" d="
  M 305.09 235.77
  Q 304.37 235.97 303.75 235.46
  Q 303.35 235.14 302.98 235.51
  L 302.66 235.83
  Q 302.37 236.12 302.08 235.84
  Q 301.93 235.69 301.90 235.50
  Q 301.77 234.63 301.27 235.40
  Q 301.01 235.80 300.92 236.78
  A 0.43 0.42 7.4 0 1 300.42 237.16
  Q 300.08 237.10 299.90 236.91
  A 0.44 0.44 0.0 0 0 299.13 237.21
  Q 299.14 238.54 297.97 239.22
  Q 297.50 239.49 297.24 239.98
  L 297.09 240.26
  Q 296.82 240.76 296.29 240.58
  Q 295.09 240.18 293.80 240.41
  Q 293.27 240.51 292.97 240.96
  L 291.64 242.96
  Q 291.40 243.32 291.68 243.65
  Q 291.88 243.88 291.88 244.13
  A 0.72 0.29 86.4 0 1 291.71 244.64
  Q 291.58 244.73 291.49 244.87
  Q 291.37 245.06 291.40 245.43
  Q 291.49 246.72 290.57 247.64
  Q 290.53 247.68 290.56 247.73
  L 290.83 248.10
  Q 291.07 248.43 290.78 248.71
  L 290.32 249.17
  Q 290.08 249.41 289.99 249.74
  Q 289.80 250.42 289.06 250.49
  Q 288.53 250.54 288.33 251.04
  Q 287.95 251.98 287.04 252.42
  A 0.76 0.76 0.0 0 0 286.62 253.10
  L 286.61 255.50
  Q 286.61 256.11 286.00 256.11
  L 285.50 256.11
  Q 285.10 256.11 285.06 256.51
  Q 284.72 259.50 281.61 260.10
  Q 281.13 260.20 280.91 260.62
  Q 280.02 262.31 280.12 264.19
  Q 280.15 264.71 279.70 264.97
  Q 278.79 265.50 278.25 266.38
  Q 278.00 266.78 277.53 266.89
  L 276.09 267.21
  C 270.52 232.95 247.09 206.24 211.37 203.62
  C 192.00 202.20 173.38 207.89 158.78 221.03
  C 146.17 232.39 137.60 250.67 135.17 267.99
  Q 135.12 268.31 134.91 268.53
  A 0.37 0.32 -24.9 0 0 134.82 268.73
  L 134.08 279.04
  Q 134.07 279.17 133.99 279.29
  Q 133.92 279.40 133.85 279.53
  Q 133.74 279.74 133.74 279.99
  Q 133.76 284.32 133.73 288.66
  Q 133.73 289.16 133.94 289.60
  Q 134.08 289.91 134.10 290.25
  Q 134.41 295.28 134.85 300.30
  Q 134.85 300.35 134.89 300.39
  L 135.10 300.59
  Q 135.13 300.63 135.14 300.68
  C 139.42 330.21 157.08 354.83 186.56 363.20
  Q 186.14 363.70 185.60 363.80
  Q 185.16 363.88 184.81 363.61
  Q 183.90 362.88 182.94 362.86
  Q 182.71 362.85 182.72 363.07
  Q 182.72 363.23 182.68 363.37
  Q 182.56 363.70 182.25 363.54
  C 181.41 363.10 181.25 362.20 180.60 361.83
  Q 180.15 361.58 179.63 361.61
  Q 179.20 361.63 179.32 362.05
  Q 179.44 362.50 179.31 362.85
  Q 179.17 363.22 178.77 363.20
  Q 178.49 363.18 178.23 362.96
  A 0.13 0.13 0.0 0 1 178.27 362.74
  L 178.63 362.61
  A 0.07 0.06 -51.0 0 0 178.62 362.48
  L 176.72 362.39
  Q 176.28 362.37 175.94 362.64
  Q 175.65 362.87 175.54 363.26
  Q 175.41 363.70 174.98 363.82
  Q 173.80 364.16 173.54 365.42
  Q 173.45 365.84 173.29 366.00
  Q 173.04 366.25 172.71 366.38
  Q 172.33 366.52 172.17 366.90
  Q 171.71 367.97 170.66 367.87
  A 0.53 0.52 90.0 0 0 170.09 368.45
  Q 170.30 370.40 168.54 370.38
  Q 167.93 370.38 167.87 370.98
  Q 167.78 371.94 166.90 371.87
  A 0.56 0.56 0.0 0 0 166.48 372.01
  Q 165.75 372.66 165.96 373.48
  Q 166.05 373.84 165.78 374.09
  Q 164.98 374.82 164.06 374.68
  A 0.65 0.64 -64.0 0 0 163.47 374.89
  C 162.73 375.69 161.65 375.73 161.28 376.19
  Q 161.06 376.48 161.23 376.85
  A 0.88 0.86 49.9 0 1 161.16 377.74
  Q 159.70 379.75 161.16 382.35
  Q 161.26 382.53 161.41 382.66
  Q 161.56 382.80 161.61 383.00
  A 0.37 0.36 -6.8 0 1 161.25 383.45
  Q 160.88 383.44 160.50 383.63
  Q 160.42 383.67 160.46 383.70
  Q 160.55 383.80 160.51 383.97
  Q 160.47 384.11 160.31 384.11
  L 159.75 384.11
  Q 159.32 384.11 159.37 384.55
  Q 159.46 385.39 159.03 386.28
  Q 118.59 366.99 103.32 326.00
  Q 99.83 316.63 98.04 306.74
  C 86.93 245.26 122.32 185.62 185.57 174.83
  C 233.44 166.67 280.46 187.42 302.96 231.24
  Q 304.09 233.44 305.09 235.77
  Z"
/>
<path fill="#392b5e" d="
  M 379.63 233.08
  A 0.41 0.40 2.6 0 0 379.18 233.48
  L 379.18 389.24
  A 0.42 0.41 -0.0 0 1 378.76 389.65
  L 344.69 389.66
  Q 344.21 389.66 344.21 389.19
  L 344.19 179.02
  Q 344.19 178.55 344.66 178.55
  Q 356.94 178.47 369.04 178.60
  Q 374.43 178.65 381.96 182.57
  C 387.72 185.57 392.18 190.43 396.62 196.25
  Q 446.78 262.11 496.87 327.91
  Q 498.82 330.46 498.82 327.25
  L 498.81 178.99
  A 0.45 0.45 0.0 0 1 499.26 178.54
  L 533.55 178.56
  A 0.62 0.61 0.0 0 1 534.17 179.17
  L 534.17 389.24
  A 0.37 0.37 0.0 0 1 533.80 389.61
  Q 526.53 389.66 519.26 389.65
  Q 510.68 389.64 509.26 389.44
  C 502.60 388.48 497.43 384.63 493.27 379.25
  Q 436.99 306.50 380.73 233.74
  Q 380.27 233.13 379.63 233.08
  Z"
/>
<path fill="#392b5e" d="
  M 721.00 188.09
  Q 718.62 189.63 717.67 191.13
  Q 717.39 191.57 716.90 191.76
  Q 716.02 192.10 716.20 193.28
  A 2.02 2.02 0.0 0 1 714.68 195.57
  Q 712.37 196.13 711.64 198.33
  Q 711.45 198.90 710.91 199.16
  L 708.70 200.26
  Q 708.24 200.49 708.11 200.98
  Q 707.44 203.56 704.75 203.65
  Q 704.35 203.66 704.16 204.01
  Q 703.92 204.44 703.85 204.85
  Q 703.76 205.31 703.39 205.60
  Q 702.60 206.22 702.17 207.19
  Q 701.88 207.84 701.31 207.42
  Q 700.42 206.79 698.85 207.35
  A 1.48 1.47 -8.4 0 0 697.87 208.66
  Q 697.81 209.97 696.20 209.88
  Q 696.63 209.77 696.83 210.08
  Q 697.11 210.49 696.62 210.44
  Q 696.32 210.42 696.06 210.53
  Q 695.87 210.62 696.00 210.75
  Q 696.06 210.82 696.13 210.87
  Q 696.48 211.16 695.88 211.32
  Q 695.50 211.42 695.55 211.72
  Q 686.47 208.88 676.98 209.15
  Q 676.87 209.15 676.78 209.09
  Q 676.66 208.99 676.54 208.91
  Q 676.25 208.71 675.89 208.71
  L 605.01 208.70
  Q 604.71 208.70 604.71 208.99
  L 604.70 358.21
  A 0.25 0.25 0.0 0 0 604.95 358.46
  L 623.22 358.51
  Q 617.44 358.74 611.66 358.62
  Q 611.47 358.62 611.35 358.71
  Q 611.19 358.83 611.14 359.00
  Q 611.05 359.26 610.78 359.31
  L 608.28 359.70
  A 0.15 0.15 0.0 0 0 608.23 359.98
  Q 608.37 360.05 608.50 360.10
  A 0.17 0.16 -45.3 0 1 608.50 360.41
  Q 608.38 360.45 608.26 360.51
  A 0.12 0.12 0.0 0 0 608.26 360.73
  L 609.27 361.22
  Q 609.87 361.51 609.63 362.14
  Q 609.03 363.67 610.40 364.44
  A 0.64 0.64 0.0 0 1 610.26 365.61
  L 607.76 366.29
  A 0.50 0.49 83.9 0 0 607.39 366.76
  L 607.38 367.24
  Q 607.37 367.87 607.95 368.12
  L 608.66 368.44
  Q 609.26 368.71 608.87 369.24
  L 606.47 372.50
  A 0.33 0.33 0.0 0 1 606.20 372.64
  L 605.81 372.64
  A 0.73 0.70 19.7 0 0 605.27 372.88
  L 600.73 377.96
  Q 600.65 378.05 600.64 378.17
  Q 600.64 378.30 600.62 378.43
  Q 600.60 378.63 600.40 378.63
  Q 599.13 378.61 598.51 379.51
  Q 597.70 380.70 596.08 384.02
  Q 596.02 384.14 595.89 384.13
  Q 595.75 384.12 595.64 384.18
  Q 595.59 384.20 595.60 384.26
  L 596.29 387.23
  Q 596.32 387.38 596.35 387.40
  Q 596.46 387.48 596.58 387.53
  Q 596.65 387.56 596.50 387.64
  L 595.97 387.93
  A 0.33 0.32 79.5 0 0 595.80 388.18
  Q 595.78 388.38 595.84 388.56
  Q 595.95 388.88 596.17 388.63
  Q 596.34 388.43 596.54 388.38
  Q 596.85 388.29 596.76 388.60
  Q 596.70 388.81 596.76 389.01
  Q 596.88 389.42 597.30 389.42
  L 611.97 389.60
  L 570.45 389.61
  Q 569.83 389.61 569.83 389.00
  L 569.83 179.11
  A 0.56 0.56 0.0 0 1 570.39 178.55
  Q 625.85 178.57 681.50 178.56
  Q 683.87 178.56 690.25 179.11
  Q 706.33 180.48 721.00 188.09
  Z"
/>
<path fill="#5b3472" d="
  M 721.00 188.09
  Q 751.67 205.68 747.65 241.52
  Q 744.78 267.13 721.85 279.58
  Q 721.54 279.75 720.92 279.76
  Q 720.41 279.77 720.29 280.27
  Q 720.12 280.99 720.27 281.71
  A 0.66 0.65 85.5 0 0 720.88 282.24
  Q 721.91 282.28 722.26 282.42
  C 744.67 291.71 757.96 304.42 758.43 329.49
  C 758.80 349.39 749.70 366.09 732.94 376.89
  C 718.44 386.23 702.09 389.51 685.04 389.55
  Q 648.50 389.64 611.97 389.60
  L 597.30 389.42
  Q 596.88 389.42 596.76 389.01
  Q 596.70 388.81 596.76 388.60
  Q 596.85 388.29 596.54 388.38
  Q 596.34 388.43 596.17 388.63
  Q 595.95 388.88 595.84 388.56
  Q 595.78 388.38 595.80 388.18
  A 0.33 0.32 79.5 0 1 595.97 387.93
  L 596.50 387.64
  Q 596.65 387.56 596.58 387.53
  Q 596.46 387.48 596.35 387.40
  Q 596.32 387.38 596.29 387.23
  L 595.60 384.26
  Q 595.59 384.20 595.64 384.18
  Q 595.75 384.12 595.89 384.13
  Q 596.02 384.14 596.08 384.02
  Q 597.70 380.70 598.51 379.51
  Q 599.13 378.61 600.40 378.63
  Q 600.60 378.63 600.62 378.43
  Q 600.64 378.30 600.64 378.17
  Q 600.65 378.05 600.73 377.96
  L 605.27 372.88
  A 0.73 0.70 19.7 0 1 605.81 372.64
  L 606.20 372.64
  A 0.33 0.33 0.0 0 0 606.47 372.50
  L 608.87 369.24
  Q 609.26 368.71 608.66 368.44
  L 607.95 368.12
  Q 607.37 367.87 607.38 367.24
  L 607.39 366.76
  A 0.50 0.49 83.9 0 1 607.76 366.29
  L 610.26 365.61
  A 0.64 0.64 0.0 0 0 610.40 364.44
  Q 609.03 363.67 609.63 362.14
  Q 609.87 361.51 609.27 361.22
  L 608.26 360.73
  A 0.12 0.12 0.0 0 1 608.26 360.51
  Q 608.38 360.45 608.50 360.41
  A 0.17 0.16 -45.3 0 0 608.50 360.10
  Q 608.37 360.05 608.23 359.98
  A 0.15 0.15 0.0 0 1 608.28 359.70
  L 610.78 359.31
  Q 611.05 359.26 611.14 359.00
  Q 611.19 358.83 611.35 358.71
  Q 611.47 358.62 611.66 358.62
  Q 617.44 358.74 623.22 358.51
  Q 653.98 358.47 684.74 358.29
  C 700.12 358.19 716.77 352.65 721.42 336.55
  C 728.43 312.26 702.96 299.55 683.37 299.10
  C 682.77 299.08 682.41 298.67 682.00 298.67
  Q 663.61 298.66 645.20 298.68
  Q 638.85 298.69 635.87 297.90
  C 623.55 294.63 617.56 280.15 617.50 268.37
  Q 617.50 267.69 618.19 267.69
  Q 644.00 267.77 670.18 267.68
  C 681.90 267.64 691.82 266.84 700.43 260.96
  C 709.83 254.55 712.49 245.05 711.77 234.00
  Q 710.67 217.30 695.55 211.72
  Q 695.50 211.42 695.88 211.32
  Q 696.48 211.16 696.13 210.87
  Q 696.06 210.82 696.00 210.75
  Q 695.87 210.62 696.06 210.53
  Q 696.32 210.42 696.62 210.44
  Q 697.11 210.49 696.83 210.08
  Q 696.63 209.77 696.20 209.88
  Q 697.81 209.97 697.87 208.66
  A 1.48 1.47 -8.4 0 1 698.85 207.35
  Q 700.42 206.79 701.31 207.42
  Q 701.88 207.84 702.17 207.19
  Q 702.60 206.22 703.39 205.60
  Q 703.76 205.31 703.85 204.85
  Q 703.92 204.44 704.16 204.01
  Q 704.35 203.66 704.75 203.65
  Q 707.44 203.56 708.11 200.98
  Q 708.24 200.49 708.70 200.26
  L 710.91 199.16
  Q 711.45 198.90 711.64 198.33
  Q 712.37 196.13 714.68 195.57
  A 2.02 2.02 0.0 0 0 716.20 193.28
  Q 716.02 192.10 716.90 191.76
  Q 717.39 191.57 717.67 191.13
  Q 718.62 189.63 721.00 188.09
  Z"
/>
<path fill="#5b3472" d="
  M 829.35 348.67
  L 829.36 432.93
  Q 829.36 433.32 828.96 433.37
  C 812.42 435.42 799.62 422.18 795.60 407.34
  Q 794.46 403.13 794.45 395.56
  Q 794.42 350.35 794.35 302.04
  Q 794.35 300.89 795.50 300.88
  L 828.74 300.57
  A 0.82 0.82 0.0 0 1 829.50 301.08
  C 834.92 313.90 843.96 323.78 857.96 326.96
  Q 870.04 329.70 881.50 325.28
  C 921.54 309.85 919.63 254.66 878.49 241.75
  Q 873.99 240.34 866.74 240.27
  Q 846.21 240.08 825.67 240.10
  C 808.25 240.13 795.08 226.82 794.37 209.73
  Q 794.35 209.25 794.83 209.25
  Q 827.66 209.22 860.49 209.25
  Q 873.93 209.27 880.42 210.44
  Q 891.74 212.48 900.85 217.62
  Q 934.37 236.49 939.71 273.55
  Q 941.82 288.19 937.56 303.31
  C 924.53 349.55 872.57 371.53 830.44 348.03
  A 0.73 0.73 0.0 0 0 829.35 348.67
  Z"
/>
<path fill="#7c3c85" d="
  M 1207.29 349.80
  Q 1207.29 348.58 1206.22 349.18
  C 1197.24 354.22 1188.16 357.45 1177.86 358.33
  C 1141.37 361.46 1110.18 334.75 1103.55 299.66
  Q 1102.25 292.78 1102.24 279.75
  Q 1102.23 244.91 1102.26 210.06
  Q 1102.26 209.52 1102.80 209.55
  Q 1119.84 210.46 1130.00 223.98
  Q 1136.38 232.47 1136.71 240.76
  C 1137.13 251.44 1137.44 262.06 1136.81 272.75
  Q 1136.59 276.53 1136.79 280.32
  Q 1136.80 280.53 1136.89 280.64
  Q 1136.97 280.75 1137.08 280.82
  Q 1137.18 280.89 1137.17 281.01
  C 1136.84 289.61 1136.64 299.28 1139.73 306.99
  C 1152.00 337.61 1196.52 335.54 1205.95 303.70
  Q 1207.27 299.23 1207.27 291.15
  Q 1207.27 250.67 1207.27 210.19
  Q 1207.27 209.65 1207.81 209.67
  C 1227.04 210.44 1242.00 225.65 1242.01 245.00
  Q 1242.04 321.62 1242.01 398.25
  C 1242.00 416.16 1230.04 430.21 1212.65 433.57
  C 1211.24 433.84 1209.50 433.55 1208.01 434.02
  A 0.55 0.54 81.1 0 1 1207.30 433.50
  L 1207.29 349.80
  Z"
/>
<path fill="#5b3472" d="
  M 1029.03 327.48
  C 1030.48 327.12 1032.21 326.25 1033.72 325.63
  Q 1034.24 325.41 1034.17 325.98
  C 1031.61 345.89 1011.58 356.52 993.00 350.56
  Q 990.72 349.83 988.64 348.62
  C 948.29 325.17 940.16 269.41 969.60 234.60
  C 987.99 212.86 1017.37 204.09 1044.11 214.15
  C 1073.59 225.26 1090.59 254.32 1090.58 285.25
  Q 1090.56 333.72 1090.50 382.19
  Q 1090.50 382.63 1090.06 382.65
  Q 1070.05 383.78 1061.57 366.50
  C 1058.96 361.18 1058.44 355.67 1058.45 349.05
  Q 1058.51 315.65 1058.23 282.25
  C 1058.11 267.54 1051.35 252.85 1038.90 244.60
  C 1019.86 231.98 997.15 240.02 986.53 259.08
  Q 978.05 274.30 980.72 291.73
  C 984.33 315.28 1004.04 333.77 1029.03 327.48
  Z"
/>
<path fill="#392b5e" d="
  M 305.09 235.77
  C 311.88 250.70 315.09 266.96 315.42 283.33
  C 315.53 288.65 314.90 294.45 314.41 300.00
  Q 313.64 308.63 309.75 320.99
  Q 302.59 343.78 286.67 361.38
  A 0.64 0.63 -46.7 0 0 286.69 362.25
  L 313.60 389.33
  Q 313.96 389.69 313.62 390.07
  Q 310.62 393.32 306.74 395.28
  Q 298.52 399.45 289.25 399.10
  C 276.12 398.60 269.65 391.49 261.21 382.86
  A 1.42 1.41 -36.1 0 0 259.53 382.60
  C 236.23 395.09 209.38 398.57 183.50 393.72
  Q 170.98 391.38 159.03 386.28
  Q 159.46 385.39 159.37 384.55
  Q 159.32 384.11 159.75 384.11
  L 160.31 384.11
  Q 160.47 384.11 160.51 383.97
  Q 160.55 383.80 160.46 383.70
  Q 160.42 383.67 160.50 383.63
  Q 160.88 383.44 161.25 383.45
  A 0.37 0.36 -6.8 0 0 161.61 383.00
  Q 161.56 382.80 161.41 382.66
  Q 161.26 382.53 161.16 382.35
  Q 159.70 379.75 161.16 377.74
  A 0.88 0.86 49.9 0 0 161.23 376.85
  Q 161.06 376.48 161.28 376.19
  C 161.65 375.73 162.73 375.69 163.47 374.89
  A 0.65 0.64 -64.0 0 1 164.06 374.68
  Q 164.98 374.82 165.78 374.09
  Q 166.05 373.84 165.96 373.48
  Q 165.75 372.66 166.48 372.01
  A 0.56 0.56 0.0 0 1 166.90 371.87
  Q 167.78 371.94 167.87 370.98
  Q 167.93 370.38 168.54 370.38
  Q 170.30 370.40 170.09 368.45
  A 0.53 0.52 90.0 0 1 170.66 367.87
  Q 171.71 367.97 172.17 366.90
  Q 172.33 366.52 172.71 366.38
  Q 173.04 366.25 173.29 366.00
  Q 173.45 365.84 173.54 365.42
  Q 173.80 364.16 174.98 363.82
  Q 175.41 363.70 175.54 363.26
  Q 175.65 362.87 175.94 362.64
  Q 176.28 362.37 176.72 362.39
  L 178.62 362.48
  A 0.07 0.06 -51.0 0 1 178.63 362.61
  L 178.27 362.74
  A 0.13 0.13 0.0 0 0 178.23 362.96
  Q 178.49 363.18 178.77 363.20
  Q 179.17 363.22 179.31 362.85
  Q 179.44 362.50 179.32 362.05
  Q 179.20 361.63 179.63 361.61
  Q 180.15 361.58 180.60 361.83
  C 181.25 362.20 181.41 363.10 182.25 363.54
  Q 182.56 363.70 182.68 363.37
  Q 182.72 363.23 182.72 363.07
  Q 182.71 362.85 182.94 362.86
  Q 183.90 362.88 184.81 363.61
  Q 185.16 363.88 185.60 363.80
  Q 186.14 363.70 186.56 363.20
  C 202.26 367.15 221.60 366.51 235.97 358.62
  A 1.02 1.02 0.0 0 0 236.21 357.01
  L 198.48 318.54
  Q 197.99 318.04 198.50 317.57
  C 206.30 310.41 219.74 308.56 229.39 310.62
  C 236.70 312.19 241.78 316.70 247.98 323.27
  Q 254.45 330.13 260.54 336.10
  A 1.23 1.23 0.0 0 0 262.45 335.88
  Q 273.36 318.68 276.27 300.50
  Q 278.92 283.94 276.09 267.21
  L 277.53 266.89
  Q 278.00 266.78 278.25 266.38
  Q 278.79 265.50 279.70 264.97
  Q 280.15 264.71 280.12 264.19
  Q 280.02 262.31 280.91 260.62
  Q 281.13 260.20 281.61 260.10
  Q 284.72 259.50 285.06 256.51
  Q 285.10 256.11 285.50 256.11
  L 286.00 256.11
  Q 286.61 256.11 286.61 255.50
  L 286.62 253.10
  A 0.76 0.76 0.0 0 1 287.04 252.42
  Q 287.95 251.98 288.33 251.04
  Q 288.53 250.54 289.06 250.49
  Q 289.80 250.42 289.99 249.74
  Q 290.08 249.41 290.32 249.17
  L 290.78 248.71
  Q 291.07 248.43 290.83 248.10
  L 290.56 247.73
  Q 290.53 247.68 290.57 247.64
  Q 291.49 246.72 291.40 245.43
  Q 291.37 245.06 291.49 244.87
  Q 291.58 244.73 291.71 244.64
  A 0.72 0.29 86.4 0 0 291.88 244.13
  Q 291.88 243.88 291.68 243.65
  Q 291.40 243.32 291.64 242.96
  L 292.97 240.96
  Q 293.27 240.51 293.80 240.41
  Q 295.09 240.18 296.29 240.58
  Q 296.82 240.76 297.09 240.26
  L 297.24 239.98
  Q 297.50 239.49 297.97 239.22
  Q 299.14 238.54 299.13 237.21
  A 0.44 0.44 0.0 0 1 299.90 236.91
  Q 300.08 237.10 300.42 237.16
  A 0.43 0.42 7.4 0 0 300.92 236.78
  Q 301.01 235.80 301.27 235.40
  Q 301.77 234.63 301.90 235.50
  Q 301.93 235.69 302.08 235.84
  Q 302.37 236.12 302.66 235.83
  L 302.98 235.51
  Q 303.35 235.14 303.75 235.46
  Q 304.37 235.97 305.09 235.77
  Z"
/>
</svg>
