<svg xmlns="http://www.w3.org/2000/svg" xmlns:xlink="http://www.w3.org/1999/xlink" id="katman_1" data-name="katman 1" viewBox="0 0 1645.6 251"><script xmlns=""/><defs><style>      .cls-1, .cls-2 {        fill: #0021c6;      }      .cls-1, .cls-2, .cls-3, .cls-4 {        stroke-width: 0px;      }      .cls-2 {        fill-rule: evenodd;      }      .cls-3 {        fill: url(#linear-gradient);      }      .cls-4 {        fill: url(#linear-gradient-2);      }    </style><linearGradient id="linear-gradient" x1="158.8" y1="-25.9" x2="19.9" y2="214.8" gradientUnits="userSpaceOnUse"><stop offset="0" stop-color="blue"/><stop offset="0" stop-color="#0009f5"/><stop offset=".2" stop-color="#0023da"/><stop offset=".4" stop-color="#004cae"/><stop offset=".6" stop-color="#008671"/><stop offset=".9" stop-color="#00ce24"/><stop offset="1" stop-color="#00f200"/></linearGradient><linearGradient id="linear-gradient-2" x1="189.5" y1="204.4" x2="189.5" y2=".4" gradientUnits="userSpaceOnUse"><stop offset="0" stop-color="blue"/><stop offset=".2" stop-color="#003cbe"/><stop offset=".8" stop-color="#00be36"/><stop offset="1" stop-color="#00f200"/></linearGradient></defs><g><path class="cls-3" d="M204.1.3v67.8c-1.2,0-2.4.2-3.5.2-31.5,0-63.1.3-94.6,0-19.1-.2-38.1,15.2-38.1,37.8,0,31.4-.2,62.9-.3,94.3q0,4-4,4c-19.9,0-39.8,0-59.6,0q-3.8,0-3.8-3.9c0-31.7-.5-63.4,0-95.1C.9,64,19.9,33.3,55.5,12.9,70.8,4.1,87.6.2,105.3.2c31.8,0,63.6,0,95.4,0,1.1,0,2.1,0,3.5,0Z"/><path class="cls-4" d="M87.5,204.3v-67.9c1.1,0,2.2,0,3.2,0,31.3,0,62.7-.4,94,.1,19.5.3,39.1-14.8,39.1-38.9,0-31.1.1-62.1.2-93.2q0-3.9,3.8-3.9c20.2,0,40.5,0,60.7,0,2.2,0,2.9.7,2.9,2.9,0,32.7.4,65.4,0,98-.3,27.1-10.4,50.6-29.1,70.3-16.4,17.3-36.5,27.7-60,31.5-4.4.7-8.8,1.2-13.2,1.2-33.2,0-66.5,0-99.7,0-.5,0-1.1,0-1.9,0Z"/></g><path class="cls-1" d="M621,64.1v75.9c0,10.1-1.7,19.1-5,26.9-3.3,7.8-7.9,14.1-13.8,18.9-5.9,4.8-12.6,8.5-20.2,10.9-7.6,2.4-16,3.7-25,3.7s-17.4-1.2-25-3.7c-7.7-2.4-14.4-6.1-20.3-10.9-5.9-4.8-10.5-11.2-13.8-19-3.3-7.8-5-16.8-5-26.9v-75.8h42.4v72.1c0,8.1,2,14.3,5.9,18.4,3.9,4.2,9.2,6.2,15.9,6.2s11.9-2.1,15.8-6.2c4-4.2,6-10.3,6-18.4v-72.1h42.2Z"/><path class="cls-1" d="M724.9,59.3c17.6,0,32.3,6.8,44.1,20.4,11.8,13.6,17.7,30.3,17.7,50s-5.9,36.7-17.7,50.3c-11.8,13.6-26.5,20.4-44.1,20.4s-29-6-38-17.9v14.3h-40.9V.3h42.2v75.5c9.1-11,21.3-16.5,36.7-16.5M714.7,99.1c-8.3,0-15.1,2.9-20.4,8.7-5.3,5.8-7.9,13.1-7.9,22s2.6,16.3,7.9,22c5.3,5.8,12.1,8.7,20.4,8.7s15.2-2.9,20.5-8.7c5.3-5.8,7.9-13.1,7.9-22s-2.6-16.1-7.9-22c-5.3-5.8-12.1-8.7-20.5-8.7"/><path class="cls-1" d="M814.7,7.3c4.9-4.9,10.9-7.3,18-7.3s13.1,2.5,18,7.4c4.9,4.9,7.3,10.9,7.3,18.1s-2.4,13.1-7.3,17.9c-4.9,4.8-10.9,7.2-18,7.2s-13.1-2.4-18-7.2c-4.9-4.8-7.3-10.8-7.3-17.9s2.4-13.3,7.3-18.1"/><rect class="cls-1" x="811.7" y="64.1" width="42.4" height="133.8"/><polygon class="cls-1" points="921.6 .2 921.6 107.8 931.7 107.8 963.1 63.2 1014.4 63.2 965.3 126.7 1014.6 197.8 963.4 197.8 930.7 145.8 921.6 145.8 921.6 197.8 879.2 197.8 879.2 .2 921.6 .2"/><path class="cls-1" d="M1116.7,60.4c17.6,0,32.3,6.7,44.1,20.2,11.8,13.5,17.7,30,17.7,49.6s-5.9,36.4-17.7,49.9c-11.8,13.5-26.5,20.2-44.1,20.2s-27.7-5.4-36.7-16.1v66.7h-42.2V64.1h40.9v14.3c9.2-12,21.9-18,38-18M1106.5,99.9c-8.3,0-15.1,2.9-20.4,8.6-5.3,5.7-7.9,13-7.9,21.9s2.6,16.1,7.9,21.9c5.3,5.7,12.1,8.6,20.4,8.6s15.2-2.9,20.5-8.7c5.3-5.8,7.9-13,7.9-21.8s-2.6-16-7.9-21.8c-5.3-5.8-12.1-8.7-20.5-8.7"/><path class="cls-1" d="M1344.1,64.1v132.8h-41v-14.3c-9.1,11.9-21.8,17.9-38.2,17.9s-32.3-6.7-44.1-20.2c-11.8-13.5-17.7-30.1-17.7-49.9s2.7-24.7,8-35.3c5.3-10.6,12.7-19.1,22.2-25.2,9.5-6.2,20-9.3,31.7-9.3s28.8,6,38,18v-14.3h41ZM1275.1,99.9c-8.4,0-15.2,2.9-20.4,8.7-5.2,5.8-7.8,13-7.8,21.8s2.6,16,7.8,21.8c5.2,5.8,12,8.7,20.4,8.7s15.1-2.9,20.4-8.6c5.3-5.7,8-13,8-21.9s-2.7-16.1-8-21.9c-5.3-5.7-12.1-8.6-20.4-8.6"/><path class="cls-1" d="M1645.6,64.4v132.8h-41v-14.3c-9.1,11.9-21.8,17.9-38.2,17.9s-32.3-6.7-44.1-20.2c-11.8-13.5-17.7-30.1-17.7-49.9s2.7-24.7,8-35.3c5.3-10.6,12.7-19.1,22.2-25.2,9.5-6.2,20-9.3,31.7-9.3s28.8,6,38,18v-14.3h41ZM1576.6,100.3c-8.4,0-15.2,2.9-20.4,8.7-5.2,5.8-7.8,13-7.8,21.8s2.6,16,7.8,21.8c5.2,5.8,12,8.7,20.4,8.7s15.1-2.9,20.4-8.6c5.3-5.7,8-13,8-21.9s-2.7-16.1-8-21.9c-5.3-5.7-12.1-8.6-20.4-8.6"/><path class="cls-2" d="M379.2,198.8v-65.2c0-13.5,10.9-24.6,24.2-24.6h64.3v-44.9h-64.3c-37.7,0-68.5,31.3-68.5,69.5v65.2h44.3Z"/><path class="cls-2" d="M1413.5,196.3v-64.3c0-13.3,10.9-24.2,24.2-24.2h41.9v-44.3h-41.9c-37.7,0-68.5,30.8-68.5,68.5v64.3h44.3Z"/><script xmlns=""/></svg>