<?xml version="1.0" encoding="UTF-8" standalone="no"?>
<!DOCTYPE svg PUBLIC "-//W3C//DTD SVG 1.1//EN" "http://www.w3.org/Graphics/SVG/1.1/DTD/svg11.dtd">
<svg xmlns="http://www.w3.org/2000/svg" version="1.1" viewBox="0.00 0.00 844.00 296.00">
<path fill="#007a51" d="
  M 751.92 196.37
  A 0.98 0.98 0.0 0 0 750.94 195.39
  Q 723.81 195.36 696.75 195.47
  Q 695.55 195.48 694.45 195.09
  Q 693.94 194.91 693.69 194.44
  Q 689.15 186.20 686.73 177.12
  A 0.76 0.76 0.0 0 1 687.47 176.17
  L 770.05 176.06
  Q 771.28 176.06 771.28 177.30
  L 771.28 212.48
  A 1.24 1.24 0.0 0 0 772.77 213.70
  C 796.08 209.09 814.22 191.09 818.74 167.76
  A 1.04 1.03 -84.5 0 0 817.73 166.52
  L 685.40 166.32
  A 1.07 1.06 -3.0 0 1 684.34 165.37
  C 679.24 115.70 720.40 75.05 769.73 79.57
  Q 771.25 79.71 771.25 81.23
  L 771.31 116.27
  Q 771.31 117.97 773.02 117.97
  L 827.33 117.87
  Q 828.82 117.87 829.55 119.17
  Q 834.14 127.29 836.36 136.36
  Q 836.64 137.48 835.50 137.48
  L 752.97 137.51
  A 1.05 1.04 -0.0 0 1 751.92 136.47
  L 751.85 101.02
  A 1.31 1.31 0.0 0 0 750.26 99.75
  C 726.81 104.86 709.28 121.94 704.30 145.52
  A 1.26 1.25 6.0 0 0 705.53 147.03
  L 837.18 146.92
  A 1.83 1.82 87.8 0 1 839.00 148.61
  C 842.86 198.75 803.50 237.40 753.34 233.98
  A 1.51 1.51 0.0 0 1 751.93 232.47
  L 751.92 196.37
  Z"
/>
<path fill="#007a51" d="
  M 176.53 148.57
  L 197.14 119.11
  A 2.86 2.86 0.0 0 1 199.51 117.88
  L 221.19 118.01
  A 0.64 0.64 0.0 0 1 221.69 119.05
  L 195.99 152.33
  A 1.75 1.75 0.0 0 0 195.93 154.40
  L 223.90 194.50
  A 0.59 0.59 0.0 0 1 223.41 195.43
  L 201.32 195.50
  A 3.38 3.37 -16.0 0 1 198.46 193.92
  L 176.48 158.88
  A 0.37 0.35 -17.2 0 0 176.16 158.72
  Q 175.54 158.75 175.54 159.50
  Q 175.38 176.52 175.42 193.83
  Q 175.42 195.53 173.72 195.52
  L 156.52 195.38
  A 1.18 1.18 0.0 0 1 155.35 194.20
  Q 155.25 140.57 155.34 87.25
  Q 155.34 84.80 155.62 82.35
  A 0.66 0.65 -86.5 0 1 156.27 81.77
  L 174.45 81.71
  A 0.99 0.99 0.0 0 1 175.44 82.70
  L 175.45 148.23
  Q 175.45 150.12 176.53 148.57
  Z"
/>
<path fill="#007a51" d="
  M 371.65 126.53
  A 0.50 0.50 0.0 0 0 372.57 126.81
  C 379.16 116.64 393.22 114.38 404.00 117.77
  C 421.18 123.18 423.44 144.13 422.42 158.99
  C 420.75 183.36 402.33 197.86 378.50 196.99
  Q 365.72 196.52 353.18 193.79
  A 1.84 1.83 -84.0 0 1 351.73 191.99
  L 351.78 83.11
  A 1.36 1.36 0.0 0 1 353.14 81.75
  L 370.60 81.79
  A 1.30 1.30 0.0 0 1 371.90 83.10
  L 371.65 126.53
  Z
  M 372.01 154.12
  Q 371.41 166.31 371.88 178.58
  A 1.60 1.60 0.0 0 0 373.07 180.06
  C 379.82 181.84 388.74 181.79 394.32 177.24
  C 402.80 170.31 402.81 153.66 400.56 144.02
  C 398.62 135.71 391.65 130.17 383.09 134.16
  C 376.09 137.42 372.37 146.83 372.01 154.12
  Z"
/>
<path fill="#007a51" d="
  M 611.73 148.53
  Q 612.09 149.25 612.56 148.59
  L 632.88 119.62
  A 4.09 4.08 17.6 0 1 636.27 117.87
  L 656.47 118.01
  Q 657.46 118.01 657.27 118.98
  Q 657.09 119.87 656.21 121.01
  Q 644.01 136.82 632.04 152.40
  A 1.76 1.75 46.6 0 0 631.99 154.49
  L 659.86 194.46
  A 0.54 0.53 -18.6 0 1 659.44 195.30
  C 652.54 195.55 645.65 195.44 638.74 195.44
  C 635.00 195.44 634.64 194.12 632.60 190.94
  Q 622.27 174.78 612.94 159.57
  Q 611.41 157.07 611.41 160.01
  L 611.40 193.86
  Q 611.40 195.49 609.78 195.49
  L 592.80 195.45
  A 1.29 1.28 82.3 0 1 591.56 194.50
  Q 591.23 193.27 591.23 191.50
  Q 591.23 138.94 591.39 83.10
  A 1.36 1.36 0.0 0 1 592.76 81.74
  L 610.24 81.76
  A 0.98 0.97 88.1 0 1 611.21 82.68
  Q 611.36 85.34 611.36 88.00
  Q 611.42 117.63 611.53 147.25
  Q 611.53 148.13 611.73 148.53
  Z"
/>
<path fill="#007a51" d="
  M 7.21 177.03
  A 1.15 1.14 10.7 0 1 8.72 176.01
  C 18.69 179.31 46.10 184.66 47.69 167.25
  C 48.33 160.14 42.90 155.50 37.02 152.94
  Q 29.96 149.88 22.92 146.77
  Q 14.51 143.05 11.31 139.98
  Q 3.44 132.44 3.75 119.73
  Q 3.90 113.88 4.96 110.72
  C 13.04 86.71 41.64 87.07 61.69 90.13
  A 1.15 1.14 -84.5 0 1 62.66 91.32
  L 61.91 107.20
  A 0.80 0.80 0.0 0 1 60.99 107.95
  C 51.66 106.54 41.84 103.40 32.57 107.43
  C 25.24 110.62 22.49 119.48 28.28 125.22
  C 33.43 130.31 42.04 133.01 48.50 136.12
  Q 58.84 141.10 62.07 144.21
  C 72.42 154.18 71.47 172.77 62.42 183.43
  C 49.50 198.65 25.17 199.57 7.00 194.80
  A 0.93 0.93 0.0 0 1 6.30 193.85
  L 7.21 177.03
  Z"
/>
<path fill="#007a51" d="
  M 0.72 105.01
  C 1.36 106.54 0.59 108.92 0.62 110.62
  Q 0.63 110.63 0.63 110.63
  A 0.01 0.01 0.0 0 1 0.61 110.63
  Q 0.74 105.66 0.58 100.68
  Q 0.58 100.48 0.61 100.68
  Q 0.91 102.48 0.63 104.26
  A 1.41 1.38 -52.5 0 0 0.72 105.01
  Z"
/>
<path fill="#007a51" d="
  M 96.68 160.33
  Q 96.25 160.82 96.28 161.48
  C 97.54 186.76 123.23 183.43 139.14 176.91
  A 0.93 0.92 -14.7 0 1 140.41 177.65
  Q 141.28 184.37 142.06 190.75
  C 142.26 192.40 140.24 192.77 139.05 193.16
  C 117.81 200.12 85.95 200.54 78.00 173.76
  C 75.34 164.79 75.28 153.79 77.12 145.27
  C 79.94 132.21 88.34 121.23 101.50 117.50
  C 110.29 115.01 122.29 115.89 130.20 120.57
  C 143.56 128.47 146.64 144.81 144.47 159.00
  A 1.17 1.16 -85.7 0 1 143.32 160.00
  Q 120.50 160.01 97.50 159.99
  Q 96.99 159.99 96.68 160.33
  Z
  M 98.11 146.48
  L 124.29 146.07
  A 0.98 0.98 0.0 0 0 125.25 145.08
  L 125.25 144.87
  A 14.03 14.00 89.1 0 0 111.03 131.06
  L 110.89 131.06
  A 14.03 14.00 89.1 0 0 97.11 145.31
  L 97.12 145.52
  A 0.98 0.98 0.0 0 0 98.11 146.48
  Z"
/>
<path fill="#007a51" d="
  M 243.70 160.49
  Q 243.47 160.71 243.48 161.25
  C 244.06 186.14 270.61 183.98 286.07 177.00
  A 1.14 1.13 73.3 0 1 287.66 177.86
  Q 288.63 184.07 289.17 190.50
  Q 289.34 192.44 287.30 193.08
  C 265.05 200.06 230.63 200.87 224.45 171.00
  C 220.28 150.83 225.46 123.52 248.99 117.49
  C 260.64 114.51 276.02 116.32 284.04 125.99
  C 292.03 135.61 292.90 146.92 291.86 158.73
  A 1.38 1.37 -87.5 0 1 290.49 159.99
  L 245.00 160.00
  A 1.98 1.64 18.9 0 0 243.70 160.49
  Z
  M 245.49 146.39
  L 271.43 146.17
  A 1.11 1.11 0.0 0 0 272.53 145.05
  L 272.53 144.91
  A 14.03 14.01 -0.5 0 0 258.37 131.02
  L 258.27 131.02
  A 14.03 14.01 -0.5 0 0 244.37 145.15
  L 244.37 145.29
  A 1.11 1.11 0.0 0 0 245.49 146.39
  Z"
/>
<path fill="#007a51" d="
  M 320.84 130.18
  A 0.48 0.48 0.0 0 0 321.75 130.43
  C 326.04 121.54 333.59 115.58 343.84 116.25
  A 1.31 1.30 3.4 0 1 345.06 117.61
  L 344.26 135.19
  A 0.80 0.80 0.0 0 1 343.34 135.94
  C 322.23 132.54 322.75 155.52 322.67 168.85
  Q 322.59 181.26 322.75 193.96
  A 1.51 1.51 0.0 0 1 321.23 195.49
  L 304.02 195.38
  Q 302.67 195.37 302.67 194.02
  L 302.67 118.62
  A 0.72 0.72 0.0 0 1 303.39 117.90
  L 320.43 117.90
  A 1.20 1.19 -88.0 0 1 321.63 119.19
  L 320.84 130.18
  Z"
/>
<path fill="#007a51" d="
  M 473.31 185.66
  Q 462.05 200.40 442.25 196.00
  C 430.14 193.31 425.81 180.26 429.03 169.48
  C 434.07 152.60 456.04 148.43 471.19 148.20
  A 1.83 1.82 -88.8 0 0 472.99 146.47
  C 474.09 124.90 446.39 131.68 435.87 137.28
  A 0.87 0.86 73.2 0 1 434.60 136.59
  L 433.21 122.26
  A 1.30 1.28 -20.0 0 1 433.77 121.08
  Q 435.33 120.03 437.47 119.44
  C 449.74 116.05 472.21 113.60 483.23 121.04
  C 491.32 126.51 492.96 135.38 492.94 144.50
  Q 492.90 169.54 493.22 194.40
  Q 493.24 195.45 492.19 195.44
  L 475.46 195.35
  A 0.97 0.97 0.0 0 1 474.50 194.35
  L 474.75 186.17
  Q 474.82 183.68 473.31 185.66
  Z
  M 471.65 161.23
  C 465.51 161.03 452.88 162.12 448.84 167.85
  C 445.81 172.16 446.60 179.69 452.51 181.20
  C 464.39 184.24 472.75 173.39 472.95 162.61
  A 1.35 1.35 0.0 0 0 471.65 161.23
  Z"
/>
<path fill="#007a51" d="
  M 528.87 127.32
  Q 529.19 127.14 529.49 126.75
  C 535.97 118.49 546.60 115.36 556.77 116.39
  C 572.74 118.01 576.01 130.22 576.00 144.00
  Q 575.98 169.16 575.99 194.10
  A 1.30 1.29 -0.2 0 1 574.70 195.39
  L 557.28 195.47
  A 1.30 1.30 0.0 0 1 555.98 194.16
  Q 556.06 168.38 555.95 142.26
  C 555.93 136.86 551.87 133.17 546.49 133.08
  C 534.73 132.89 528.43 147.71 528.43 157.77
  Q 528.42 175.87 528.58 193.87
  A 1.61 1.60 -0.2 0 1 526.96 195.49
  L 509.76 195.38
  Q 508.40 195.37 508.40 194.01
  L 508.46 118.73
  A 0.82 0.81 90.0 0 1 509.27 117.91
  L 526.21 117.92
  A 1.07 1.07 0.0 0 1 527.28 118.96
  L 527.50 126.54
  A 0.93 0.92 -15.2 0 0 528.87 127.32
  Z"
/>
<path fill="#007a51" d="
  M 0.62 117.63
  C 0.60 121.38 1.14 124.82 0.57 128.61
  Q 0.57 128.63 0.59 128.63
  Q 0.62 128.63 0.60 128.63
  Q 0.58 123.13 0.63 117.63
  Q 0.63 117.62 0.62 117.62
  Q 0.62 117.62 0.62 117.62
  Q 0.62 117.62 0.62 117.63
  Z"
/>
<path fill="#007a51" d="
  M 0.59 141.61
  C 0.29 139.53 0.37 137.45 0.61 135.37
  Q 0.61 135.35 0.59 135.36
  Q 0.59 135.36 0.58 135.36
  Q 0.57 135.36 0.57 135.37
  Q 1.04 138.50 0.63 141.61
  A 0.02 0.02 0.0 0 1 0.59 141.61
  Z"
/>
<path fill="#007a51" d="
  M 0.73 175.27
  Q 0.63 175.68 0.63 176.12
  Q 0.63 176.13 0.62 176.13
  Q 0.62 176.13 0.61 176.13
  Q 0.60 176.13 0.60 176.12
  Q 0.72 173.32 0.58 170.86
  Q 0.57 170.71 0.61 170.86
  Q 1.26 173.04 0.73 175.27
  Z"
/>
<path fill="#007a51" d="
  M 22.17 225.69
  C 29.33 220.61 32.40 212.72 27.97 204.59
  A 0.85 0.85 0.0 0 1 28.70 203.33
  Q 36.92 203.16 44.75 203.26
  Q 46.19 203.28 46.89 204.94
  C 53.13 219.81 43.37 228.09 31.50 233.89
  Q 30.53 234.37 29.69 233.68
  L 22.11 227.48
  A 1.13 1.12 47.1 0 1 22.17 225.69
  Z"
/>
</svg>
