<?xml version="1.0" encoding="utf-8" ?>
<svg xmlns="http://www.w3.org/2000/svg" xmlns:xlink="http://www.w3.org/1999/xlink" width="800" height="313">
	<path fill="#0062AF" d="M517.807 314C517.769 313.971 517.733 313.94 517.694 313.912C515.715 312.476 509.868 311.818 507.171 310.827C492.048 305.27 480.129 292.863 477.147 276.811Q476.96 275.819 476.823 274.818Q476.686 273.818 476.6 272.812Q476.513 271.806 476.476 270.797Q476.439 269.787 476.453 268.778Q476.467 267.768 476.531 266.76Q476.595 265.753 476.709 264.749Q476.823 263.746 476.987 262.75Q477.151 261.753 477.364 260.766Q477.578 259.779 477.84 258.804Q478.102 257.829 478.413 256.868Q478.724 255.907 479.082 254.963Q479.44 254.019 479.845 253.094Q480.249 252.169 480.7 251.265Q481.15 250.361 481.645 249.481Q482.14 248.601 482.678 247.746Q483.216 246.892 483.796 246.065C491.298 235.186 503.1 228.422 515.955 226.087C529.062 223.706 544.089 226.317 555.141 233.967C564.959 240.763 572.078 250.732 574.177 262.59C576.119 273.561 573.546 284.493 567.118 293.584C560.949 302.31 551.754 308.46 541.59 311.608C538.523 312.559 535.294 313.028 532.253 314L517.807 314Z"/>
	<path fill="#F14E24" d="M740.056 314C740.021 313.967 739.987 313.932 739.951 313.901C738.638 312.771 731.959 311.748 729.86 311.007C713.394 305.197 700.442 291.407 698.558 273.651Q698.458 272.643 698.406 271.632Q698.355 270.621 698.354 269.608Q698.353 268.595 698.401 267.584Q698.449 266.572 698.547 265.564Q698.645 264.557 698.792 263.555Q698.939 262.553 699.135 261.559Q699.331 260.566 699.576 259.583Q699.82 258.6 700.113 257.631Q700.405 256.661 700.745 255.707Q701.084 254.753 701.47 253.817Q701.856 252.881 702.288 251.965Q702.719 251.048 703.195 250.155Q703.671 249.261 704.19 248.391Q704.709 247.521 705.27 246.678Q705.831 245.835 706.432 245.021Q707.034 244.206 707.675 243.422C716.386 232.77 728.591 226.852 742.185 225.502C756.316 224.097 770.1 227.975 781.06 237.04C789.959 244.401 795.641 254.747 796.673 266.281C797.657 277.287 793.824 288.145 786.734 296.547C780.724 303.67 772.239 309.047 763.323 311.723C760.319 312.625 757.091 313.026 754.143 314L740.056 314Z"/>
	<path fill="#FA9D1D" d="M629.125 314C629.091 313.966 629.059 313.93 629.024 313.897C627.666 312.645 621.403 311.985 619.204 311.237C602.285 305.478 588.795 290.576 587.486 272.407Q587.413 271.403 587.389 270.396Q587.366 269.39 587.391 268.383Q587.417 267.377 587.492 266.373Q587.567 265.369 587.691 264.369Q587.815 263.37 587.988 262.378Q588.161 261.386 588.382 260.404Q588.603 259.422 588.872 258.452Q589.141 257.481 589.457 256.525Q589.773 255.569 590.136 254.63Q590.498 253.691 590.907 252.77Q591.315 251.85 591.768 250.951Q592.22 250.051 592.717 249.175Q593.213 248.299 593.751 247.448Q594.29 246.598 594.87 245.774Q595.449 244.951 596.068 244.157Q596.688 243.363 597.345 242.6C606.573 232.002 618.878 226.3 632.834 225.359C646.395 224.445 660.245 228.303 670.552 237.384C679.517 245.282 685.063 255.726 685.778 267.715C686.429 278.612 682.29 289.245 675.071 297.339C669.052 304.087 660.697 309.249 652.033 311.805C649.13 312.661 646.033 313.059 643.181 314L629.125 314Z"/>
	<path fill="#0062AF" d="M210.196 12.1612C214.984 12.8225 220.332 12.4005 225.183 12.3978L253.873 12.3841L291.997 12.4061C298.871 12.4074 306.169 12.8656 312.993 12.1087L313.007 51.9611Q299.124 51.7778 285.24 51.9151C285.602 67.5522 285.36 83.2381 285.361 98.8803L285.355 182.581Q285.441 195.761 285.185 208.938C269.919 208.423 253.304 208.503 238.03 209.008C238.426 191.849 238.123 174.624 238.12 157.456L238.121 51.8584C228.837 51.8511 219.515 51.6786 210.238 52.0007L210.196 12.1612Z"/>
	<path fill="#0062AF" d="M123.636 12.2549C138.18 12.7018 152.809 12.399 167.362 12.401C178.862 12.4026 190.579 12.8448 202.056 12.1799L202.032 51.9662C191.634 51.6526 181.18 51.8742 170.775 51.9075L170.824 89.0291L200.057 88.9591C199.869 101.47 200.037 114.017 200.035 126.531C190.285 126.223 180.494 126.795 170.752 126.311C170.985 140.631 171.042 155.119 170.722 169.435C174.939 169.322 179.179 169.4 183.398 169.391Q194.346 169.306 205.294 169.453C205.592 182.57 205.562 195.833 205.15 208.946C193.266 208.326 181.054 208.855 169.136 208.855C153.959 208.855 138.654 208.444 123.491 209.005L123.503 73.3892L123.469 32.6111C123.459 25.9527 122.878 18.8368 123.636 12.2549Z"/>
	<path fill="#0062AF" d="M45.9863 8.35559C48.3359 8.06144 50.9271 8.12997 53.2995 8.12685C67.8301 8.10771 84.7239 11.8428 95.2705 22.4122C106.51 33.6763 105.495 56.7992 105.478 71.9064C90.842 71.6957 76.026 71.4688 61.401 71.974C61.3898 65.974 62.8187 47.3854 58.9425 43.361C57.7767 42.1507 56.169 41.6795 54.5254 41.6392C52.6125 41.5924 50.8238 42.2592 49.4732 43.6266C46.3036 46.8358 46.0483 52.5743 46.0248 56.804C45.9948 62.2128 46.5084 68.1387 49.4305 72.8419C53.8404 79.94 66.667 86.5555 73.612 91.525C80.9414 96.7694 88.3445 102.3 94.6885 108.732C108.283 122.517 109.3 142.623 109.163 160.924C109.064 174.143 107.979 189.181 97.9785 198.96C86.2089 210.469 68.0603 212.956 52.3368 212.811C38.5943 211.563 25.4716 207.936 15.3902 197.903C1.13041 183.712 3.26624 156.66 3.16576 138.149C17.7792 138.211 32.5356 138.576 47.1376 138.047C46.7574 147.774 46.7844 157.932 47.2803 167.657C47.4595 171.172 47.8755 176.015 50.7204 178.49C51.8586 179.48 53.2449 179.899 54.7399 179.786C57.2985 179.593 59.6701 178.149 61.2633 176.184C65.9984 170.344 64.5647 158.681 63.7288 151.612C63.3115 148.083 62.2237 144.54 60.1667 141.612C54.0216 132.865 33.5368 120.333 24.2284 113.03C11.2489 102.848 4.62585 92.8889 2.6351 76.0851C0.808909 60.6703 0.925529 37.1031 10.9328 24.4653C19.4175 13.7503 33.0022 9.90063 45.9863 8.35559Z"/>
	<path fill="#0062AF" d="M369.652 8.39554C381.729 7.73768 393.691 8.64157 404.88 13.6464C415.113 18.2233 424.158 26.2708 428.181 36.905C430.047 41.8366 430.995 47.0912 431.667 52.3052C432.387 57.8954 434.343 94.4204 432.699 98.0713Q409.019 97.9545 385.34 98.1668C385.475 97.9535 385.595 97.7426 385.693 97.5092C386.718 95.0505 385.871 57.9929 385.58 53.4658C385.416 50.9004 385.359 47.658 384.359 45.2841C383.76 43.864 382.38 42.6193 380.948 42.0854C378.867 41.3101 375.786 41.559 373.786 42.5009C372.225 43.2361 371.353 44.5716 370.826 46.1717C369.835 49.1857 369.648 52.503 369.499 55.6517C369.148 63.044 369.375 70.434 369.398 77.8305L369.418 112.602L369.399 147.413C369.399 154.303 369.191 161.294 369.604 168.173C369.761 170.787 369.991 173.946 371.272 176.294C372.075 177.766 373.238 178.51 374.822 178.982C376.903 179.602 379.351 179.633 381.289 178.544C382.785 177.703 383.92 176.418 384.389 174.754C385.717 170.031 387.29 133.367 385.371 130.178C385.329 130.108 385.283 130.039 385.239 129.97L392.871 129.966L432.502 129.936C432.759 130.335 432.926 130.741 432.996 131.21C433.582 135.119 433.025 139.738 432.979 143.727C432.792 159.692 432.959 179.228 423.068 192.591C415.026 203.456 401.962 210.229 388.755 212.178C372.912 214.517 353.833 212.211 340.803 202.514C330.095 194.545 325.806 183.611 323.911 170.763C320.87 150.154 322.161 125.65 322.145 104.647L322.14 77.0663C322.155 67.3449 322.009 57.4205 323.762 47.8219C325.044 40.8008 327.711 34.0849 331.998 28.3512C341.278 15.939 354.771 10.5867 369.652 8.39554Z"/>
	<path fill="#0062AF" d="M463.098 12.3021C485.553 12.6383 508.138 11.6227 530.564 12.4755C530.613 12.5437 530.665 12.6098 530.712 12.6799C531.592 14.0079 536.837 56.4026 537.485 61.1395L552.857 173.675C553.522 178.543 557.918 206.492 557.436 208.901C541.217 208.798 524.907 208.543 508.697 209.025C508.925 208.692 509.114 208.348 509.171 207.944C509.49 205.706 509.299 200.476 507.96 198.62C508.168 198.248 508.359 197.848 508.436 197.425C508.857 195.119 507.579 175.139 506.427 173.385L490.023 173.405C490.165 173.638 490.318 173.911 490.371 174.181C490.838 176.528 488.102 207.457 487.191 208.976C481.18 208.45 474.797 208.849 468.758 208.85C458.621 208.852 448.442 208.649 438.313 209.014C440.084 206.011 442.578 178.216 443.257 172.617C444.733 160.452 461.852 13.9719 463.098 12.3021ZM498.205 59.5561C498.086 64.116 497.325 68.7353 496.781 73.2663L494.093 96.0867Q492.666 108.475 491.458 120.886C490.981 126.062 490.763 131.345 490.069 136.491C489.992 137.066 489.757 137.609 489.526 138.136C489.496 138.205 489.468 138.275 489.439 138.344L496.387 138.307C499.126 138.311 502.163 138.044 504.862 138.413C504.901 138.339 504.941 138.266 504.977 138.191C506.047 135.978 504.085 123.308 503.738 119.785Q501.707 97.9704 500.024 76.1263C499.785 73.0306 499.624 62.734 498.85 60.4944C498.7 60.0606 498.572 59.8261 498.205 59.5561Z"/>
	<path fill="#0062AF" d="M565.083 12.302C583.161 12.6453 601.226 12.0604 619.301 12.8162C627.703 13.1675 636.213 13.3315 644.403 15.4452C647.807 16.3237 650.911 17.7464 653.763 19.8068C663.008 26.4841 667.173 36.3589 668.901 47.3196C670.914 60.0861 672.161 86.9761 664.3 97.6494C659.783 103.783 651.394 105.373 644.341 106.432Q647.469 106.983 650.437 108.115C658.486 111.122 663.733 115.234 667.29 123.089C668.455 125.661 669.239 128.174 669.513 130.988C670.244 138.505 671.303 205.847 670.125 208.956C655.409 208.628 640.502 208.555 625.791 209.007C625.959 208.754 626.126 208.473 626.206 208.178C626.834 205.852 626.765 190.967 625.666 189.222C626.034 188.632 626.247 188.066 626.3 187.364C626.872 179.831 626.381 171.953 626.378 164.371C626.375 154.099 626.854 143.504 626.008 133.267C625.808 130.852 625.513 125.586 623.825 123.716C620.864 120.436 615.951 120.512 611.868 120.209C612.073 120.522 612.27 120.862 612.369 121.226C613.198 124.303 612.568 140.202 612.571 144.716C612.582 165.23 613.181 185.956 612.53 206.445C612.5 207.398 612.406 208.113 611.934 208.956C596.232 208.605 580.338 208.548 564.64 209.005C565.157 208.187 565.207 207.52 565.228 206.581C565.527 193.01 565.25 179.379 565.251 165.801L565.252 85.1454L565.25 37.4906C565.251 29.1896 565.724 20.5709 565.083 12.302ZM612.019 46.2794C612.947 48.4539 613.099 86.6299 612.314 88.6807C612.2 88.9772 612.05 89.2349 611.872 89.4959C615.382 89.364 620.248 89.408 623.139 87.0847L623.389 86.5065C625.077 85.3202 625.385 83.3134 625.717 81.3976C626.739 75.5022 627.52 54.7081 624.259 50.1752C623.944 49.7373 623.601 49.351 623.165 49.0311C620.894 46.6821 616.523 46.2656 613.434 46.1871C612.957 46.1749 612.491 46.2131 612.019 46.2794Z"/>
	<path fill="#0062AF" d="M687.867 12.302C705.377 12.5892 722.91 12.0051 740.414 12.6487C749.415 12.9796 758.674 13.3159 767.486 15.3361C776.811 17.474 784.905 22.1768 790.027 30.3935Q791.085 32.0781 791.962 33.8637Q792.839 35.6493 793.526 37.5164Q794.212 39.3836 794.701 41.312Q795.189 43.2404 795.474 45.2092C796.829 54.4767 796.755 64.1094 796.853 73.4658L796.915 113.218L796.908 147.224C796.899 159.322 797.507 173.306 794.738 185.072C793.564 190.064 791.105 196.547 786.535 199.374C786.324 199.751 786.081 200.101 785.778 200.411C781.646 204.626 774.267 206.605 768.645 207.56C758.524 209.279 747.918 208.87 737.681 208.872C720.95 208.877 704.128 208.491 687.408 209.01C687.437 208.96 687.468 208.911 687.495 208.86C687.54 208.775 687.578 208.687 687.622 208.602C688.872 206.151 688.169 174.272 688.171 167.903L688.176 58.3463L688.173 28.0842C688.172 23.0287 688.669 17.2733 687.867 12.302ZM734.946 46.2796C736.046 49.1508 735.803 172.816 735.105 174.359C734.992 174.606 734.856 174.841 734.711 175.07C738.109 174.845 742.855 174.838 745.597 172.543L745.859 171.986C747.821 170.602 748.284 168.043 748.676 165.804C749.897 158.82 749.622 151.338 749.62 144.263L749.592 117.789L749.606 80.5445C749.607 72.9002 749.843 65.1536 749.351 57.5258C749.212 55.3723 749.086 52.0397 747.812 50.235C746.203 47.9547 743.652 46.8735 740.977 46.4603C739.047 46.1623 736.879 45.9491 734.946 46.2796Z"/>
</svg>