<?xml version="1.0" encoding="UTF-8" standalone="no"?>
<!DOCTYPE svg PUBLIC "-//W3C//DTD SVG 1.1//EN" "http://www.w3.org/Graphics/SVG/1.1/DTD/svg11.dtd">
<svg xmlns="http://www.w3.org/2000/svg" version="1.1" viewBox="0.00 0.00 400.00 222.00">
<circle fill="#6700ff" cx="272.20" cy="65.14" r="11.08"/>
<path fill="#6700ff" d="
  M 75.51 86.54
  Q 75.51 87.46 76.12 86.76
  C 82.05 79.96 90.81 78.38 99.28 80.32
  C 111.04 83.02 114.57 94.26 114.61 104.90
  Q 114.68 122.47 114.63 141.27
  A 0.88 0.88 0.0 0 1 113.75 142.15
  L 98.40 142.14
  A 0.71 0.71 0.0 0 1 97.69 141.43
  Q 97.70 125.69 97.67 110.25
  C 97.65 102.46 95.83 94.79 86.16 95.65
  C 77.54 96.41 75.39 103.33 75.46 110.98
  Q 75.60 126.72 75.48 141.41
  A 0.74 0.74 0.0 0 1 74.74 142.14
  L 59.51 142.15
  A 0.89 0.89 0.0 0 1 58.62 141.26
  L 58.62 64.11
  A 0.93 0.92 80.9 0 1 59.25 63.23
  L 74.35 58.04
  A 0.88 0.88 0.0 0 1 75.52 58.87
  L 75.51 86.54
  Z"
/>
<path fill="#6700ff" d="
  M 31.18 119.75
  Q 25.85 118.38 20.20 117.28
  C 8.63 115.03 -0.35 107.87 2.64 94.78
  C 4.93 84.73 15.20 79.86 25.17 79.62
  C 36.38 79.34 45.73 84.33 49.11 95.19
  A 0.94 0.93 -18.3 0 1 48.52 96.35
  L 36.27 100.56
  A 0.70 0.70 0.0 0 1 35.37 100.12
  Q 32.25 90.85 21.78 93.79
  C 17.98 94.86 15.91 99.63 20.29 101.77
  Q 23.27 103.23 25.92 103.66
  C 37.84 105.60 51.23 109.08 51.45 123.61
  C 51.70 139.36 34.82 145.25 21.90 143.51
  Q 6.55 141.45 1.25 127.73
  Q 0.68 126.25 2.18 125.73
  L 14.48 121.50
  A 0.70 0.69 -18.1 0 1 15.38 121.95
  Q 18.29 131.55 29.15 130.12
  Q 32.39 129.69 34.28 127.74
  C 37.40 124.49 34.80 120.67 31.18 119.75
  Z"
/>
<path fill="#6700ff" d="
  M 209.19 137.01
  L 209.21 161.94
  A 0.73 0.73 0.0 0 1 208.71 162.65
  L 193.37 167.82
  A 1.03 1.03 0.0 0 1 192.01 166.84
  L 192.01 85.98
  A 1.12 1.12 0.0 0 1 192.77 84.92
  L 207.25 80.02
  A 0.78 0.78 0.0 0 1 208.28 80.77
  L 208.27 87.05
  Q 208.27 87.94 208.86 87.28
  C 213.95 81.70 221.13 79.10 228.67 79.67
  C 248.25 81.16 259.01 99.61 255.98 117.94
  C 253.52 132.83 241.74 142.97 226.51 142.88
  Q 215.87 142.81 209.65 136.81
  Q 209.19 136.36 209.19 137.01
  Z
  M 241.54 111.70
  A 15.91 15.91 0.0 0 0 225.63 95.79
  A 15.91 15.91 0.0 0 0 209.72 111.70
  A 15.91 15.91 0.0 0 0 225.63 127.61
  A 15.91 15.91 0.0 0 0 241.54 111.70
  Z"
/>
<path fill="#6700ff" d="
  M 374.63 87.22
  Q 383.38 75.58 398.14 81.63
  A 1.24 1.24 0.0 0 1 398.82 83.24
  L 393.48 96.67
  A 0.70 0.70 0.0 0 1 392.52 97.04
  C 383.17 92.59 374.97 98.60 374.92 108.54
  Q 374.84 124.70 374.88 141.03
  Q 374.89 142.15 373.77 142.15
  L 358.57 142.14
  A 0.83 0.82 -0.0 0 1 357.74 141.32
  L 357.74 82.02
  A 0.75 0.74 -0.4 0 1 358.48 81.28
  L 370.79 81.27
  A 1.42 1.42 0.0 0 1 372.12 82.20
  L 373.93 87.11
  Q 374.19 87.81 374.63 87.22
  Z"
/>
<path fill="#6700ff" d="
  M 185.29 111.70
  A 32.06 32.06 0.0 0 1 153.23 143.76
  A 32.06 32.06 0.0 0 1 121.17 111.70
  A 32.06 32.06 0.0 0 1 153.23 79.64
  A 32.06 32.06 0.0 0 1 185.29 111.70
  Z
  M 169.13 111.69
  A 15.91 15.91 0.0 0 0 153.22 95.78
  A 15.91 15.91 0.0 0 0 137.31 111.69
  A 15.91 15.91 0.0 0 0 153.22 127.60
  A 15.91 15.91 0.0 0 0 169.13 111.69
  Z"
/>
<path fill="#6700ff" d="
  M 307.00 123.59
  C 315.45 131.79 328.30 130.54 334.53 120.31
  Q 334.86 119.78 335.48 119.85
  L 349.21 121.55
  A 0.88 0.88 0.0 0 1 349.92 122.75
  Q 344.38 136.50 331.44 141.52
  C 319.92 145.99 306.98 143.82 297.82 135.39
  C 284.12 122.76 283.90 100.77 297.58 87.98
  Q 303.47 82.48 310.92 80.74
  C 331.32 75.98 346.45 87.26 351.31 106.69
  A 0.93 0.93 0.0 0 1 350.71 107.79
  L 307.20 122.70
  Q 306.38 122.98 307.00 123.59
  Z
  M 332.05 99.73
  C 326.18 93.49 317.23 92.70 310.00 97.06
  Q 303.21 101.16 302.18 109.92
  A 0.44 0.44 0.0 0 0 302.76 110.38
  L 331.89 100.37
  Q 332.47 100.17 332.05 99.73
  Z"
/>
<rect fill="#6700ff" x="263.66" y="81.28" width="17.10" height="60.86" rx="0.86"/>
</svg>
