<?xml version="1.0" encoding="UTF-8" standalone="no"?>
<!DOCTYPE svg PUBLIC "-//W3C//DTD SVG 1.1//EN" "http://www.w3.org/Graphics/SVG/1.1/DTD/svg11.dtd">
<svg xmlns="http://www.w3.org/2000/svg" version="1.1" viewBox="0.00 0.00 1369.00 496.00">
<path fill="#4f4999" d="
  M 13.92 47.94
  C 31.04 13.96 68.00 5.66 103.00 5.72
  Q 172.04 5.83 241.12 5.88
  A 0.16 0.15 0.0 0 1 241.28 6.03
  L 241.28 76.99
  Q 241.28 77.51 240.76 77.51
  Q 179.60 77.59 118.51 77.59
  C 106.18 77.59 91.35 78.05 80.26 85.08
  Q 79.85 85.34 79.37 85.34
  L 5.66 85.34
  Q 5.16 85.34 5.17 84.84
  Q 5.69 64.29 13.92 47.94
  Z"
/>
<circle fill="#4f4999" cx="316.96" cy="45.39" r="39.82"/>
<path fill="#4f4999" d="
  M 451.38 285.24
  L 451.37 416.93
  Q 451.37 417.32 450.98 417.32
  L 382.02 417.30
  Q 381.39 417.30 381.39 416.67
  Q 381.33 296.96 381.37 177.62
  C 381.40 102.20 418.29 34.51 494.00 13.03
  Q 515.18 7.02 534.25 6.07
  C 546.77 5.45 562.97 5.39 575.68 7.14
  Q 611.37 12.05 641.88 31.88
  C 700.19 69.77 722.66 139.92 708.93 206.74
  C 700.34 248.53 675.71 285.87 639.03 308.12
  C 581.25 343.17 497.77 340.07 451.87 285.05
  Q 451.38 284.46 451.38 285.24
  Z
  M 552.62 69.13
  C 498.70 65.51 456.99 101.50 451.45 155.13
  C 447.16 196.71 464.22 240.06 502.90 259.19
  C 530.42 272.80 565.21 271.86 591.94 257.19
  C 635.42 233.33 649.59 177.58 634.83 132.62
  C 622.75 95.82 591.17 71.71 552.62 69.13
  Z"
/>
<path fill="#4f4999" d="
  M 1002.30 285.02
  C 981.72 310.83 948.25 326.71 916.01 329.97
  C 831.10 338.55 758.35 284.46 744.27 200.25
  C 737.35 158.89 743.93 115.48 765.85 79.61
  C 791.91 36.95 838.50 10.07 888.25 6.11
  C 899.59 5.21 916.68 5.56 928.71 6.83
  C 1002.87 14.65 1055.41 62.73 1068.95 136.51
  Q 1072.67 156.83 1072.74 177.50
  Q 1073.02 253.40 1073.03 329.24
  Q 1073.03 329.55 1072.72 329.55
  L 1003.52 329.54
  Q 1003.00 329.54 1003.00 329.02
  L 1003.00 285.26
  Q 1003.00 284.14 1002.30 285.02
  Z
  M 1002.86 181.37
  C 1005.42 158.25 1001.77 134.06 990.09 113.93
  C 969.92 79.17 930.02 63.55 890.49 70.45
  C 860.88 75.61 833.97 96.42 822.52 124.53
  C 807.44 161.55 812.24 209.54 840.07 239.68
  C 861.64 263.04 893.71 272.31 925.00 267.45
  C 969.15 260.60 998.09 224.53 1002.86 181.37
  Z"
/>
<path fill="#4f4999" d="
  M 1266.25 330.74
  C 1187.97 330.96 1110.76 278.42 1102.71 196.47
  Q 1102.05 189.82 1102.03 176.49
  Q 1101.89 91.42 1102.01 6.34
  Q 1102.01 5.85 1102.50 5.85
  L 1173.49 5.85
  A 0.30 0.29 0.0 0 1 1173.79 6.14
  Q 1173.76 90.24 1173.80 174.25
  C 1173.80 186.38 1174.72 198.66 1178.85 209.56
  C 1192.44 245.44 1231.08 258.39 1266.29 257.17
  Q 1266.88 257.15 1266.88 257.73
  L 1266.88 330.12
  Q 1266.88 330.74 1266.25 330.74
  Z"
/>
<path fill="#4f4999" d="
  M 1233.20 417.31
  C 1260.33 398.32 1283.11 373.84 1287.64 339.49
  Q 1289.14 328.18 1289.14 316.76
  Q 1289.24 161.46 1289.38 6.20
  A 0.36 0.36 0.0 0 1 1289.74 5.84
  L 1362.75 5.86
  A 0.22 0.22 0.0 0 1 1362.97 6.08
  Q 1360.45 163.66 1355.77 320.75
  Q 1355.47 330.89 1354.26 356.02
  Q 1353.65 368.84 1352.20 375.88
  C 1340.70 431.65 1282.72 471.38 1233.46 491.17
  A 0.57 0.57 0.0 0 1 1232.67 490.64
  L 1232.74 418.18
  Q 1232.74 417.63 1233.20 417.31
  Z"
/>
<rect fill="#4f4999" x="281.72" y="118.92" width="70.72" height="212.08" rx="0.31"/>
<path fill="#4f4999" d="
  M 162.25 257.24
  C 175.27 255.17 185.89 247.43 185.28 233.00
  C 184.80 221.95 176.75 215.82 167.42 211.89
  C 148.38 203.87 127.02 201.79 106.29 196.37
  C 63.40 185.14 17.64 169.01 7.39 119.44
  Q 7.29 118.97 7.77 118.97
  L 80.05 118.97
  Q 80.58 118.97 81.02 119.28
  C 96.68 130.35 115.80 135.19 134.28 139.10
  C 162.64 145.10 191.04 151.04 215.13 167.40
  C 241.95 185.61 252.86 213.31 252.65 245.00
  C 252.44 276.22 241.53 305.86 212.16 319.66
  C 195.13 327.66 176.43 330.67 157.75 330.75
  Q 87.19 331.06 16.63 331.01
  Q 16.12 331.01 16.12 330.50
  L 16.12 259.50
  A 0.51 0.51 0.0 0 1 16.63 258.99
  Q 75.69 258.96 134.75 259.18
  Q 149.67 259.24 162.25 257.24
  Z"
/>
</svg>
