<?xml version="1.0" encoding="utf-8" ?>
<svg xmlns="http://www.w3.org/2000/svg" xmlns:xlink="http://www.w3.org/1999/xlink" width="100" height="44">
	<path fill="#44328C" d="M89.1731 4.12405C90.2062 3.96174 91.0569 3.95489 92.0196 4.41355C92.9555 4.85946 93.7201 5.655 94.067 6.63924Q94.1837 6.96036 94.2346 7.29823Q94.2855 7.6361 94.2684 7.97735Q94.2514 8.3186 94.1672 8.64973Q94.0829 8.98086 93.9348 9.28876C93.3796 10.43 92.4486 10.9781 91.3051 11.3758C90.9142 11.5346 90.527 11.6141 90.1058 11.552C89.1029 11.4042 88.1977 11.1127 87.573 10.2629C86.914 9.36624 86.7827 8.12848 86.9594 7.04799C87.1875 5.65363 88.0999 4.89705 89.1731 4.12405Z"/>
	<path fill="#44328C" d="M6.47176 12.2479C8.61078 11.7913 10.6591 11.2838 12.7141 10.5181C12.2874 12.5698 11.9635 14.7535 11.3447 16.7505C12.9607 16.6106 14.54 16.5577 16.1617 16.5886C15.8017 18.7185 15.593 21.1147 14.976 23.1749C13.4207 23.2766 11.9063 23.3159 10.349 23.24C10.0007 25.3745 8.68537 30.767 9.30759 32.6107C10.3139 33.2264 12.2342 33.0716 13.4103 33.0665C13.0256 35.1726 12.7635 37.491 12.1123 39.5252C9.96772 39.7011 7.56708 39.8421 5.52774 39.0074L5.04544 39.5796C4.20588 39.5489 3.41021 39.3866 2.56627 39.4407C1.89065 39.4841 0.750216 39.8297 0.133605 39.679C0.0883502 39.6679 0.0441286 39.6564 0 39.6412L0 23.342L0 20.9175C0.437249 19.6611 0.82368 18.3279 1.41211 17.1352L3.57333 16.152C4.48251 14.8542 5.36149 13.3776 6.47176 12.2479ZM0 23.342L0 39.6412C0.0441286 39.6564 0.0883502 39.6679 0.133605 39.679C0.750216 39.8297 1.89065 39.4841 2.56627 39.4407C3.41021 39.3866 4.20588 39.5489 5.04544 39.5796L5.52774 39.0074C4.59389 38.5435 3.66452 38.0463 3.07086 37.1572C0.732186 33.6547 2.79337 27.0684 3.56113 23.1758C2.37863 23.2638 1.18499 23.289 0 23.342Z"/>
	<path fill="#44328C" d="M26.2513 16.3047C28.3538 16.1606 30.3429 16.195 32.4171 16.6003C33.018 17.0939 34.1578 18.2788 34.8698 18.4015C35.0881 17.8426 35.2858 17.2113 35.7029 16.7688C36.2805 16.1561 40.9045 16.4169 42.0859 16.3812C40.9896 24.0503 39.7837 31.9804 38.0829 39.5355C36.5527 39.6236 35.0085 39.5787 33.476 39.5708C32.7488 39.4835 31.8784 39.223 31.1655 39.2362C27.0639 39.3125 23.3002 40.9484 19.6232 38.1339C17.6706 36.6393 16.6253 34.4527 16.3071 32.0493Q16.211 31.3131 16.1885 30.571Q16.1659 29.8289 16.217 29.0882Q16.2681 28.3475 16.3924 27.6155Q16.5167 26.8835 16.713 26.1675Q16.9092 25.4514 17.1755 24.7584Q17.4418 24.0653 17.7755 23.4021Q18.1092 22.7388 18.5071 22.1119Q18.9049 21.4851 19.3629 20.9007C21.0245 18.7419 23.472 16.6644 26.2513 16.3047ZM28.4973 22.561C26.4548 23.125 25.0733 23.9967 24.0019 25.8804C23.242 27.2166 22.8537 28.9982 23.2665 30.5015C23.5243 31.4401 24.1055 32.301 24.9643 32.7868C25.8565 33.2916 27.0546 33.4428 28.0615 33.4381C30.2366 32.7589 31.6589 31.9192 32.7399 29.8578C33.433 28.536 33.7796 26.8019 33.3262 25.3571C33.016 24.369 32.3822 23.6236 31.4621 23.151C30.5872 22.7016 29.4718 22.4963 28.4973 22.561Z"/>
	<path fill="#44328C" d="M76.2944 31.284C82.3249 29.1952 82.359 20.3979 86.1219 16.2266C86.6437 15.6481 87.3341 15.0613 88.1505 15.0246C88.8088 14.9949 89.6184 15.3687 90.0955 15.8067C92.3676 17.8924 89.1658 26.7253 89.3198 30.3885C89.3722 31.6331 89.5947 32.8487 90.5533 33.7279C93.0626 34.3559 94.9637 29.2334 97.0442 28.1163C97.6681 27.7813 98.0166 27.9215 98.6455 28.1113C99.066 28.6323 99.2393 28.8774 99.2324 29.5829C99.2202 30.824 98.3036 32.858 97.4268 33.7182C97.2136 35.3385 95.2006 37.1223 93.9738 38.0643C93.622 38.3344 93.2616 38.5599 92.8433 38.7135C92.8182 38.7584 92.7895 38.7981 92.7503 38.8317C91.8955 39.5659 90.6846 39.7485 89.5914 39.6835C82.9082 39.2863 84.2561 33.1576 82.2177 30.8547Q82.1252 31.1105 81.9719 31.3351C80.7275 33.1522 78.0131 33.844 76.004 34.228C76.045 34.3596 76.0755 34.4988 76.0845 34.6365C76.1687 35.9259 75.6058 38.6508 74.7342 39.6057L68.0014 39.5048C69.0243 37.624 70.6775 27.7503 70.6225 25.4332C70.6018 24.5574 70.4188 23.5197 69.7538 22.8922C69.3326 22.4947 68.7736 22.3081 68.1985 22.3304C61.3772 22.5943 64.5219 35.8933 61.216 39.4948C58.9988 39.6333 56.7199 39.5409 54.4956 39.5506C54.6248 39.368 54.7451 39.1669 54.8382 38.9636C55.5684 37.3695 57.5302 24.8009 56.9911 23.4513C56.8265 23.0393 56.3527 22.75 55.9536 22.5854C54.5171 21.993 52.7815 22.9023 51.478 23.4541C51.4835 23.503 51.4849 23.5511 51.4862 23.6002C51.5077 24.4781 50.6326 26.2537 50.4307 27.2431C49.6843 30.9 49.32 34.6588 48.4559 38.2881C48.3466 38.7475 48.1702 39.1125 47.8638 39.4748C45.7204 39.651 43.6011 39.5237 41.4579 39.4146C41.9561 36.6146 45.5196 17.7374 45.1707 16.5367C47.0341 16.4774 50.0622 16.0234 51.7741 16.7385C51.9267 17.2084 52.0865 17.6713 52.2677 18.131L52.7307 18.0328C53.2186 17.5877 53.6259 17.1894 53.9482 16.6081C56.1721 16.269 58.2941 16.1438 60.5365 16.3746C61.7641 16.8511 62.7171 17.9926 63.6307 18.9119C65.2187 17.8172 66.6058 16.5921 68.5455 16.2437C70.7115 15.8548 73.15 16.0575 74.9977 17.346Q75.2606 17.5282 75.5042 17.7357Q75.7477 17.9431 75.9693 18.1738Q76.191 18.4044 76.3887 18.656Q76.5863 18.9075 76.758 19.1775Q76.9297 19.4474 77.0737 19.7331Q77.2176 20.0187 77.3325 20.3173Q77.4474 20.6159 77.532 20.9244Q77.6166 21.2329 77.6701 21.5483C78.076 23.8356 77.6315 29.3687 76.2944 31.284Z"/>
</svg>
