<?xml version="1.0" encoding="UTF-8" standalone="no"?>
<!DOCTYPE svg PUBLIC "-//W3C//DTD SVG 1.1//EN" "http://www.w3.org/Graphics/SVG/1.1/DTD/svg11.dtd">
<svg xmlns="http://www.w3.org/2000/svg" version="1.1" viewBox="0.00 0.00 971.00 421.00">
<g stroke-width="2.00" fill="none" stroke-linecap="butt">
<path stroke="#00986e" vector-effect="non-scaling-stroke" d="
  M 421.00 32.22
  L 420.76 30.43
  Q 420.70 30.03 420.30 29.99
  Q 415.95 29.55 412.11 30.59"
/>
<path stroke="#3baf8d" vector-effect="non-scaling-stroke" d="
  M 412.11 30.59
  C 409.51 23.33 404.43 21.00 396.78 21.00
  Q 231.10 21.00 65.43 21.00
  Q 60.38 21.00 57.83 22.34
  Q 52.96 24.91 50.87 31.00"
/>
<path stroke="#00986e" vector-effect="non-scaling-stroke" d="
  M 50.87 31.00
  Q 43.00 29.23 34.41 29.93
  A 1.11 1.10 58.1 0 1 33.74 29.77
  Q 33.62 29.70 33.50 29.64
  Q 33.40 29.59 33.42 29.57
  Q 33.48 29.53 33.50 29.46
  Q 33.58 29.22 33.28 29.25
  Q 33.17 29.26 33.03 29.29"
/>
<path stroke="#3bb390" vector-effect="non-scaling-stroke" d="
  M 412.11 30.59
  Q 413.12 33.51 413.04 36.00
  Q 412.37 57.90 411.68 79.79"
/>
<path stroke="#68c7aa" vector-effect="non-scaling-stroke" d="
  M 411.68 79.79
  L 411.46 82.95
  A 1.42 1.42 0.0 0 1 410.01 84.28
  Q 396.58 83.98 382.50 84.16
  Q 380.74 84.19 378.13 83.17"
/>
<path stroke="#bbe5d7" vector-effect="non-scaling-stroke" d="
  M 378.13 83.17
  Q 378.50 82.63 378.66 82.03
  Q 378.81 81.47 378.22 81.51
  C 368.45 82.26 358.26 82.66 348.75 85.20
  Q 348.26 85.33 347.82 85.08
  Q 337.10 78.87 325.52 74.45
  Q 295.19 62.88 263.01 58.62
  Q 257.81 57.93 254.52 58.11"
/>
<path stroke="#44bf9b" vector-effect="non-scaling-stroke" d="
  M 254.52 58.11
  L 253.59 58.02
  Q 253.00 57.96 252.78 58.50
  L 252.28 59.74
  Q 252.04 60.31 252.60 60.58
  Q 276.48 72.10 298.77 86.46"
/>
<path stroke="#68c7aa" vector-effect="non-scaling-stroke" d="
  M 298.77 86.46
  Q 297.81 86.69 296.82 86.34
  Q 296.37 86.18 295.88 86.18
  L 43.92 86.38"
/>
<path stroke="#3bb390" vector-effect="non-scaling-stroke" d="
  M 43.92 86.38
  Q 45.27 67.74 48.44 44.25
  Q 49.47 36.64 50.87 31.00"
/>
<path stroke="#2db08b" vector-effect="non-scaling-stroke" d="
  M 421.02 79.94
  L 412.13 80.47
  A 0.45 0.44 -3.3 0 1 411.66 80.06
  Q 411.66 79.94 411.68 79.79"
/>
<path stroke="#2db08b" vector-effect="non-scaling-stroke" d="
  M 43.92 86.38
  L 43.51 89.34
  Q 43.45 89.76 43.03 89.77
  L 33.96 90.08
  Q 33.51 90.09 33.42 89.66
  Q 33.32 89.20 33.02 89.28"
/>
<path stroke="#68c7aa" vector-effect="non-scaling-stroke" d="
  M 421.03 188.20
  L 420.68 188.64
  Q 420.45 188.93 420.21 188.65
  Q 419.96 188.36 419.50 188.29
  Q 413.87 187.38 409.53 189.45"
/>
<path stroke="#2db890" vector-effect="non-scaling-stroke" d="
  M 409.53 189.45
  L 409.58 171.07"
/>
<path stroke="#35bc96" vector-effect="non-scaling-stroke" d="
  M 409.58 171.07
  L 410.17 131.89
  A 0.26 0.25 72.3 0 0 409.77 131.68
  L 409.34 131.99
  Q 409.27 132.05 409.21 131.98
  Q 408.90 131.60 408.54 131.89
  Q 408.11 132.24 407.55 132.22
  Q 400.42 131.94 393.29 132.12
  C 392.01 132.15 390.57 131.78 389.14 131.90
  C 379.92 132.72 369.98 132.07 360.73 131.54
  A 0.22 0.07 -87.5 0 0 360.65 131.75
  Q 360.64 131.82 360.63 131.88
  Q 360.60 132.13 360.34 131.65
  Q 360.26 131.49 360.02 131.49"
/>
<path stroke="#ace2d2" vector-effect="non-scaling-stroke" d="
  M 378.13 83.17
  C 373.47 90.96 369.52 95.70 361.40 100.82
  Q 360.97 101.09 360.88 101.43
  Q 360.75 101.92 361.06 102.35
  A 1.15 1.05 26.5 0 1 361.26 102.87
  C 362.15 112.41 361.17 122.02 360.02 131.49"
/>
<path stroke="#88dac3" vector-effect="non-scaling-stroke" d="
  M 360.02 131.49
  Q 357.50 151.72 352.58 171.51"
/>
<path stroke="#80d5be" vector-effect="non-scaling-stroke" d="
  M 352.58 171.51
  Q 350.87 178.21 348.18 185.36
  Q 347.21 187.94 347.13 185.19
  L 346.78 171.81"
/>
<path stroke="#88dac3" vector-effect="non-scaling-stroke" d="
  M 346.78 171.81
  Q 346.39 158.24 344.42 144.87
  C 343.08 135.79 340.79 125.66 335.97 117.75
  A 0.39 0.39 0.0 0 0 335.44 117.62
  C 317.48 128.16 298.42 136.84 280.63 147.30
  Q 278.24 148.71 280.08 146.63
  L 289.49 135.97"
/>
<path stroke="#ace2d2" vector-effect="non-scaling-stroke" d="
  M 289.49 135.97
  Q 297.96 126.29 306.03 113.92"
/>
<path stroke="#88dac3" vector-effect="non-scaling-stroke" d="
  M 306.03 113.92
  L 307.84 111.47
  A 0.30 0.30 0.0 0 0 307.59 110.99
  C 280.00 112.43 252.70 115.28 225.48 120.30"
/>
<path stroke="#ace2d2" vector-effect="non-scaling-stroke" d="
  M 225.48 120.30
  Q 238.53 113.43 255.34 107.63
  Q 282.33 98.33 307.58 93.31"
/>
<path stroke="#88dac3" vector-effect="non-scaling-stroke" d="
  M 307.58 93.31
  L 311.24 92.82
  A 0.34 0.34 0.0 0 0 311.42 92.23
  Q 307.41 88.66 302.86 85.68
  Q 279.74 70.52 254.52 58.11"
/>
<path stroke="#35bc96" vector-effect="non-scaling-stroke" d="
  M 307.58 93.31
  Q 303.79 89.28 298.77 86.46"
/>
<path stroke="#35bc96" vector-effect="non-scaling-stroke" d="
  M 225.48 120.30
  Q 225.12 121.15 223.55 121.96
  Q 223.21 122.14 223.31 122.50
  Q 223.36 122.66 223.48 122.79
  Q 223.68 122.98 224.09 122.94
  C 228.47 122.56 233.91 121.31 236.97 120.83
  Q 270.92 115.45 306.03 113.92"
/>
<path stroke="#35bc96" vector-effect="non-scaling-stroke" d="
  M 289.49 135.97
  Q 287.60 134.90 283.50 134.89
  Q 255.00 134.86 226.51 135.15
  Q 224.56 135.17 220.00 135.20
  Q 205.43 135.30 195.04 134.65"
/>
<path stroke="#ace2d2" vector-effect="non-scaling-stroke" d="
  M 195.04 134.65
  L 195.76 133.44
  A 0.35 0.34 6.0 0 0 195.35 132.94
  L 187.83 135.41"
/>
<path stroke="#35bc96" vector-effect="non-scaling-stroke" d="
  M 187.83 135.41
  L 185.80 134.84
  Q 185.44 134.73 185.38 135.10
  Q 185.33 135.48 184.94 135.75
  Q 184.77 135.86 184.84 135.65
  Q 184.90 135.45 184.67 135.15
  A 0.14 0.13 -23.2 0 0 184.53 135.10
  Q 182.81 135.68 181.90 135.65
  Q 181.01 135.62 181.00 135.64
  Q 180.62 135.99 180.22 135.67
  Q 179.93 135.43 179.55 135.41
  Q 175.73 135.24 171.90 135.17
  C 170.77 135.15 169.45 135.65 168.27 135.48
  C 165.47 135.08 163.17 135.11 160.38 135.39
  Q 160.17 135.41 160.02 135.28
  Q 159.91 135.19 159.75 135.19
  Q 135.06 135.14 110.36 135.13
  Q 110.07 135.13 109.80 135.27
  Q 109.55 135.39 109.26 135.35
  C 105.89 134.85 102.61 135.49 99.35 135.18
  Q 96.39 134.90 95.00 135.15
  C 93.11 135.49 92.04 135.12 90.60 135.12
  Q 68.18 135.12 45.75 135.14
  Q 45.26 135.14 44.81 135.33
  Q 44.28 135.56 43.70 135.28
  Q 43.28 135.08 42.83 135.18
  C 40.65 135.67 41.17 137.29 41.09 138.94
  Q 40.36 154.74 40.23 169.54"
/>
<path stroke="#2db890" vector-effect="non-scaling-stroke" d="
  M 40.23 169.54
  L 39.98 187.59"
/>
<path stroke="#68c7aa" vector-effect="non-scaling-stroke" d="
  M 39.98 187.59
  Q 39.41 187.26 38.01 187.18
  Q 35.70 187.06 33.01 187.41"
/>
<path stroke="#68c7aa" vector-effect="non-scaling-stroke" d="
  M 421.02 302.28
  Q 420.95 305.82 415.00 305.10
  Q 412.44 304.79 410.58 305.08"
/>
<path stroke="#3baf8d" vector-effect="non-scaling-stroke" d="
  M 410.58 305.08
  L 410.00 278.88"
/>
<path stroke="#3bbb96" vector-effect="non-scaling-stroke" d="
  M 409.53 189.45
  L 409.38 216.54"
/>
<path stroke="#00a477" vector-effect="non-scaling-stroke" d="
  M 409.38 216.54
  Q 408.90 216.56 408.57 216.69
  Q 408.43 216.74 408.50 216.87
  Q 408.58 217.03 408.70 217.10
  Q 408.74 217.13 408.69 217.13
  L 165.05 217.13"
/>
<path stroke="#09b082" vector-effect="non-scaling-stroke" d="
  M 175.87 177.57
  Q 181.00 176.83 185.95 176.22
  C 195.78 175.01 205.70 175.33 215.61 175.69
  C 226.06 176.08 236.66 177.96 246.98 179.54
  Q 247.47 179.62 247.90 179.40
  Q 249.38 178.66 249.34 177.00
  Q 249.33 176.60 248.97 176.73"
/>
<path stroke="#09b082" vector-effect="non-scaling-stroke" d="
  M 409.58 171.07
  Q 382.83 171.17 356.25 171.13
  Q 355.93 171.13 355.89 171.46
  Q 355.86 171.76 355.55 171.82
  Q 353.91 172.13 352.58 171.51"
/>
<path stroke="#09b082" vector-effect="non-scaling-stroke" d="
  M 346.78 171.81
  Q 346.48 171.74 346.35 171.21
  Q 346.14 170.35 345.87 170.87
  Q 345.78 171.04 345.66 171.10
  Q 345.30 171.28 345.33 171.68
  L 345.35 172.17
  A 0.08 0.08 0.0 0 1 345.20 172.20
  Q 345.09 171.86 344.87 171.56
  Q 344.56 171.13 344.03 171.13
  L 242.24 171.13
  Q 241.56 171.13 242.01 171.64
  Q 243.10 172.86 242.50 173.12"
/>
<path stroke="#88dac3" vector-effect="non-scaling-stroke" d="
  M 242.50 173.12
  Q 215.91 158.72 186.19 153.86
  Q 185.62 153.77 185.80 153.22
  Q 189.15 142.86 195.04 134.65"
/>
<path stroke="#09b082" vector-effect="non-scaling-stroke" d="
  M 135.25 171.49
  Q 133.93 171.07 133.91 171.03
  A 2.62 2.60 72.8 0 0 131.75 169.88
  L 46.90 169.93
  Q 46.58 169.93 46.29 169.78
  Q 45.38 169.30 40.23 169.54"
/>
<path stroke="#00a477" vector-effect="non-scaling-stroke" d="
  M 108.85 207.32
  Q 108.07 206.44 106.70 208.67
  Q 106.42 209.12 105.90 209.12
  Q 76.82 209.11 47.75 209.20
  Q 45.01 209.21 42.52 210.11
  Q 42.22 210.21 42.01 210.12
  Q 41.76 210.01 41.66 210.26
  L 41.05 211.74
  Q 40.91 212.08 40.71 211.78
  Q 40.61 211.64 40.58 211.46
  Q 40.58 211.45 40.58 211.46
  L 40.06 215.81"
/>
<path stroke="#3bbb96" vector-effect="non-scaling-stroke" d="
  M 40.06 215.81
  L 39.98 187.59"
/>
<path stroke="#3bb390" vector-effect="non-scaling-stroke" d="
  M 40.06 215.81
  L 41.97 282.75"
/>
<path stroke="#3baf8d" vector-effect="non-scaling-stroke" d="
  M 41.97 282.75
  L 42.14 286.02"
/>
<path stroke="#68c7aa" vector-effect="non-scaling-stroke" d="
  M 42.14 286.02
  L 42.10 287.13
  Q 42.07 287.73 41.48 287.64
  Q 40.60 287.51 40.12 288.18
  Q 39.85 288.56 39.38 288.59
  Q 37.51 288.71 36.50 288.64
  Q 34.79 288.52 33.01 290.09"
/>
<path stroke="#80d5be" vector-effect="non-scaling-stroke" d="
  M 242.50 173.12
  L 248.97 176.73"
/>
<path stroke="#88dac3" vector-effect="non-scaling-stroke" d="
  M 248.97 176.73
  Q 249.04 176.86 248.91 177.00
  Q 248.78 177.13 248.59 177.10
  C 226.26 173.02 204.09 171.11 181.52 174.69
  C 179.25 175.05 176.91 174.95 175.87 177.57"
/>
<path stroke="#80d5be" vector-effect="non-scaling-stroke" d="
  M 175.87 177.57
  Q 168.64 196.86 165.05 217.13"
/>
<path stroke="#80ceb8" vector-effect="non-scaling-stroke" d="
  M 165.05 217.13
  L 163.19 226.26"
/>
<path stroke="#88dac3" vector-effect="non-scaling-stroke" d="
  M 163.19 226.26
  Q 155.51 206.02 149.75 185.65
  A 0.65 0.64 -23.7 0 0 148.79 185.28
  Q 141.47 189.84 134.77 195.25
  Q 116.03 210.41 98.18 227.50"
/>
<path stroke="#80ceb8" vector-effect="non-scaling-stroke" d="
  M 98.18 227.50
  Q 98.95 225.08 100.93 221.45
  Q 106.44 211.32 108.85 207.32"
/>
<path stroke="#80d5be" vector-effect="non-scaling-stroke" d="
  M 108.85 207.32
  Q 120.12 188.11 135.25 171.49"
/>
<path stroke="#88dac3" vector-effect="non-scaling-stroke" d="
  M 135.25 171.49
  L 137.19 169.62
  Q 137.57 169.26 137.17 168.91
  C 128.55 161.28 111.76 158.62 100.92 158.31
  Q 98.60 158.24 100.80 157.50
  C 118.67 151.49 139.98 150.20 158.68 151.60
  A 1.42 1.38 -60.9 0 0 159.59 151.33
  Q 172.62 141.47 187.83 135.41"
/>
<path stroke="#3bb390" vector-effect="non-scaling-stroke" d="
  M 409.38 216.54
  L 410.00 278.88"
/>
<path stroke="#00986e" vector-effect="non-scaling-stroke" d="
  M 410.00 278.88
  L 106.70 278.88
  Q 106.35 278.88 106.18 278.56
  Q 105.92 278.06 104.93 278.04"
/>
<path stroke="#80ceb8" vector-effect="non-scaling-stroke" d="
  M 104.93 278.04
  C 100.04 266.98 96.86 254.75 94.74 243.28
  Q 94.31 240.92 94.02 243.30
  C 92.15 258.80 91.39 275.08 93.89 290.73
  Q 93.97 291.26 93.52 291.53
  Q 93.04 291.83 92.26 291.94"
/>
<path stroke="#00986e" vector-effect="non-scaling-stroke" d="
  M 92.26 291.94
  L 90.99 281.96
  Q 90.86 280.88 89.77 280.88
  L 43.72 280.88
  A 0.85 0.84 -78.4 0 0 42.94 281.40
  Q 42.77 281.80 42.83 282.08
  A 0.04 0.04 0.0 0 0 42.91 282.08
  Q 43.11 281.30 42.75 280.39
  Q 42.32 279.33 42.39 280.47
  Q 42.49 281.89 41.97 282.75"
/>
<path stroke="#35bc96" vector-effect="non-scaling-stroke" d="
  M 421.01 351.78
  L 420.79 352.93
  A 0.15 0.15 0.0 0 1 420.52 353.00
  Q 420.36 352.82 420.38 352.59
  Q 420.41 352.17 419.98 352.13
  L 412.01 351.49"
/>
<path stroke="#2db08b" vector-effect="non-scaling-stroke" d="
  M 412.01 351.49
  L 411.31 330.16"
/>
<path stroke="#2dac88" vector-effect="non-scaling-stroke" d="
  M 410.58 305.08
  L 411.31 330.16"
/>
<path stroke="#00986e" vector-effect="non-scaling-stroke" d="
  M 411.31 330.16
  Q 410.52 330.34 410.44 331.28
  Q 410.42 331.61 410.09 331.51
  Q 408.80 331.11 407.64 331.68
  Q 407.22 331.88 406.76 331.88
  Q 334.12 331.88 261.49 331.88
  Q 259.89 331.88 256.51 331.73
  Q 254.00 331.62 251.51 331.67
  Q 245.83 331.78 240.16 331.61
  C 239.25 331.58 238.30 332.09 237.55 332.54
  A 0.29 0.29 0.0 0 0 237.49 332.99
  L 237.74 333.24
  Q 238.08 333.57 237.61 333.63
  Q 237.36 333.67 237.06 333.74"
/>
<path stroke="#80c9b5" vector-effect="non-scaling-stroke" d="
  M 237.06 333.74
  L 236.47 330.23"
/>
<path stroke="#09a479" vector-effect="non-scaling-stroke" d="
  M 236.47 330.23
  C 239.26 329.21 241.18 326.95 243.47 325.14
  Q 246.11 323.06 247.93 321.27
  Q 252.99 316.28 258.22 311.47
  Q 260.02 309.81 260.10 308.03"
/>
<path stroke="#80c9b5" vector-effect="non-scaling-stroke" d="
  M 260.10 308.03
  L 264.58 303.82
  Q 264.62 303.78 264.58 303.73
  L 264.41 303.51
  Q 264.27 303.34 264.09 303.47
  Q 250.48 313.31 235.34 320.57
  Q 234.81 320.83 234.77 320.24
  L 233.80 305.71
  Q 233.75 304.88 233.26 305.56
  Q 224.92 317.12 215.45 327.78
  A 1.49 1.43 13.0 0 1 214.70 328.23
  L 201.24 331.33"
/>
<path stroke="#00986e" vector-effect="non-scaling-stroke" d="
  M 201.24 331.33
  Q 201.14 330.86 201.48 330.40
  Q 201.84 329.91 201.23 329.91
  L 161.55 329.87
  Q 161.09 329.87 160.75 329.56
  Q 159.50 328.42 157.68 328.70"
/>
<path stroke="#2db08b" vector-effect="non-scaling-stroke" d="
  M 44.77 328.45
  L 46.85 353.26"
/>
<path stroke="#35bc96" vector-effect="non-scaling-stroke" d="
  M 46.85 353.26
  Q 39.70 352.68 33.01 353.56"
/>
<path stroke="#09a479" vector-effect="non-scaling-stroke" d="
  M 71.68 299.46
  Q 70.84 300.78 70.89 301.88
  A 0.97 0.95 14.9 0 0 71.35 302.66
  Q 84.76 311.22 99.06 318.20
  C 101.32 319.30 103.95 326.23 105.37 328.64"
/>
<path stroke="#00986e" vector-effect="non-scaling-stroke" d="
  M 105.37 328.64
  L 104.87 329.53
  Q 104.68 329.88 104.28 329.88
  L 47.97 329.88
  Q 47.54 329.88 47.15 329.71
  Q 46.50 329.44 45.94 329.83
  A 0.47 0.47 0.0 0 1 45.24 329.61
  L 44.77 328.45"
/>
<path stroke="#2dac88" vector-effect="non-scaling-stroke" d="
  M 44.77 328.45
  L 42.14 286.02"
/>
<path stroke="#09a87c" vector-effect="non-scaling-stroke" d="
  M 163.19 226.26
  Q 162.89 226.91 161.99 226.97
  A 1.07 1.06 -11.6 0 1 160.92 226.27
  Q 154.06 207.78 148.62 188.81
  A 1.10 1.10 0.0 0 0 146.94 188.20
  C 138.08 194.26 131.60 199.42 121.54 207.92
  C 119.70 209.47 118.00 211.28 116.20 212.73
  Q 109.40 218.20 103.23 224.35
  Q 101.73 225.85 98.18 227.50"
/>
<path stroke="#80c9b5" vector-effect="non-scaling-stroke" d="
  M 104.93 278.04
  L 109.42 287.16
  Q 109.64 287.60 110.13 287.52
  L 138.21 282.90
  Q 139.08 282.76 138.58 283.48
  Q 130.73 294.83 125.94 307.77
  Q 125.77 308.25 126.13 308.61
  Q 139.91 321.97 157.68 328.70"
/>
<path stroke="#80ceb8" vector-effect="non-scaling-stroke" d="
  M 157.68 328.70
  Q 160.53 329.76 159.36 329.95"
/>
<path stroke="#88dac3" vector-effect="non-scaling-stroke" d="
  M 159.36 329.95
  C 146.75 329.06 135.04 327.52 122.88 323.92
  Q 122.32 323.75 122.25 324.33
  L 121.98 326.74"
/>
<path stroke="#80ceb8" vector-effect="non-scaling-stroke" d="
  M 121.98 326.74
  Q 121.17 337.07 123.93 346.99
  Q 124.01 347.27 124.03 347.52
  Q 124.12 349.04 123.53 347.90"
/>
<path stroke="#88dac3" vector-effect="non-scaling-stroke" d="
  M 123.53 347.90
  Q 109.90 334.26 101.71 316.54
  A 1.45 1.41 89.6 0 0 101.02 315.84
  Q 86.15 308.57 71.68 299.46"
/>
<path stroke="#80c9b5" vector-effect="non-scaling-stroke" d="
  M 71.68 299.46
  Q 81.60 294.83 92.26 291.94"
/>
<path stroke="#09b082" vector-effect="non-scaling-stroke" d="
  M 47.68 360.78
  L 49.37 375.63
  Q 49.42 376.12 49.91 376.12
  Q 230.55 376.12 411.19 376.12
  C 411.68 376.12 411.91 376.32 412.45 376.38
  Q 412.88 376.42 412.86 375.99
  L 412.24 360.68"
/>
<path stroke="#09a87c" vector-effect="non-scaling-stroke" d="
  M 182.27 332.94
  Q 180.25 335.68 181.71 336.34
  Q 190.65 340.41 200.70 342.90"
/>
<path stroke="#09a87c" vector-effect="non-scaling-stroke" d="
  M 182.96 356.65
  L 182.44 357.66
  A 0.62 0.62 0.0 0 0 182.91 358.56
  Q 184.78 358.81 186.55 358.31
  Q 203.72 353.50 219.54 345.26
  Q 221.49 344.24 223.66 344.22
  Q 233.30 344.13 236.75 343.28
  Q 237.65 343.06 238.60 340.76"
/>
<path stroke="#09a87c" vector-effect="non-scaling-stroke" d="
  M 412.01 351.49
  L 412.24 360.68"
/>
<path stroke="#00a477" vector-effect="non-scaling-stroke" d="
  M 412.24 360.68
  Q 397.60 361.10 382.99 360.72
  C 347.87 359.82 312.63 360.43 277.50 360.58
  Q 272.62 360.60 267.75 360.62
  Q 218.75 360.90 169.75 360.87
  C 168.15 360.87 166.19 360.28 164.41 360.36
  Q 154.89 360.78 152.13 360.60
  C 141.45 359.90 130.61 359.53 119.92 360.10
  C 114.35 360.40 108.93 359.58 102.57 359.98
  C 84.36 361.13 65.99 361.11 47.68 360.78"
/>
<path stroke="#09a87c" vector-effect="non-scaling-stroke" d="
  M 47.68 360.78
  L 46.85 353.26"
/>
<path stroke="#88dac3" vector-effect="non-scaling-stroke" d="
  M 260.10 308.03
  Q 248.76 319.32 236.59 329.20
  Q 236.33 329.41 236.28 329.64
  Q 236.20 330.01 236.47 330.23"
/>
<path stroke="#80ceb8" vector-effect="non-scaling-stroke" d="
  M 237.06 333.74
  L 238.60 340.76"
/>
<path stroke="#88dac3" vector-effect="non-scaling-stroke" d="
  M 238.60 340.76
  Q 238.42 340.76 238.24 340.78
  Q 231.52 341.58 224.76 341.63
  Q 222.63 341.65 220.76 342.64
  Q 202.82 352.06 182.96 356.65"
/>
<path stroke="#80ceb8" vector-effect="non-scaling-stroke" d="
  M 182.96 356.65
  L 200.70 342.90"
/>
<path stroke="#88dac3" vector-effect="non-scaling-stroke" d="
  M 200.70 342.90
  L 203.12 340.77
  A 0.31 0.30 -60.0 0 0 202.98 340.24
  Q 192.28 338.11 182.27 332.94"
/>
<path stroke="#80ceb8" vector-effect="non-scaling-stroke" d="
  M 182.27 332.94
  L 201.24 331.33"
/>
<path stroke="#09a87c" vector-effect="non-scaling-stroke" d="
  M 123.53 347.90
  Q 122.17 350.01 120.42 348.32
  Q 111.51 339.71 105.37 328.64"
/>
<path stroke="#09a87c" vector-effect="non-scaling-stroke" d="
  M 159.36 329.95
  C 159.67 332.24 158.52 332.61 156.75 332.54
  Q 139.06 331.82 121.98 326.74"
/>
</g>
<path fill="#00936b" d="
  M 421.00 32.22
  L 420.76 30.43
  Q 420.70 30.03 420.30 29.99
  Q 415.95 29.55 412.11 30.59
  C 409.51 23.33 404.43 21.00 396.78 21.00
  Q 231.10 21.00 65.43 21.00
  Q 60.38 21.00 57.83 22.34
  Q 52.96 24.91 50.87 31.00
  Q 43.00 29.23 34.41 29.93
  A 1.11 1.10 58.1 0 1 33.74 29.77
  Q 33.62 29.70 33.50 29.64
  Q 33.40 29.59 33.42 29.57
  Q 33.48 29.53 33.50 29.46
  Q 33.58 29.22 33.28 29.25
  Q 33.17 29.26 33.03 29.29
  L 33.09 14.61
  Q 33.09 14.00 33.71 14.00
  L 420.50 14.00
  Q 421.02 14.00 421.02 14.51
  L 421.00 32.22
  Z"
/>
<path fill="#76caaf" d="
  M 412.11 30.59
  Q 413.12 33.51 413.04 36.00
  Q 412.37 57.90 411.68 79.79
  L 411.46 82.95
  A 1.42 1.42 0.0 0 1 410.01 84.28
  Q 396.58 83.98 382.50 84.16
  Q 380.74 84.19 378.13 83.17
  Q 378.50 82.63 378.66 82.03
  Q 378.81 81.47 378.22 81.51
  C 368.45 82.26 358.26 82.66 348.75 85.20
  Q 348.26 85.33 347.82 85.08
  Q 337.10 78.87 325.52 74.45
  Q 295.19 62.88 263.01 58.62
  Q 257.81 57.93 254.52 58.11
  L 253.59 58.02
  Q 253.00 57.96 252.78 58.50
  L 252.28 59.74
  Q 252.04 60.31 252.60 60.58
  Q 276.48 72.10 298.77 86.46
  Q 297.81 86.69 296.82 86.34
  Q 296.37 86.18 295.88 86.18
  L 43.92 86.38
  Q 45.27 67.74 48.44 44.25
  Q 49.47 36.64 50.87 31.00
  Q 52.96 24.91 57.83 22.34
  Q 60.38 21.00 65.43 21.00
  Q 231.10 21.00 396.78 21.00
  C 404.43 21.00 409.51 23.33 412.11 30.59
  Z"
/>
<path fill="#009c71" d="
  M 33.03 29.29
  Q 33.17 29.26 33.28 29.25
  Q 33.58 29.22 33.50 29.46
  Q 33.48 29.53 33.42 29.57
  Q 33.40 29.59 33.50 29.64
  Q 33.62 29.70 33.74 29.77
  A 1.11 1.10 58.1 0 0 34.41 29.93
  Q 43.00 29.23 50.87 31.00
  Q 49.47 36.64 48.44 44.25
  Q 45.27 67.74 43.92 86.38
  L 43.51 89.34
  Q 43.45 89.76 43.03 89.77
  L 33.96 90.08
  Q 33.51 90.09 33.42 89.66
  Q 33.32 89.20 33.02 89.28
  L 33.03 29.29
  Z"
/>
<path fill="#009c71" d="
  M 421.00 32.22
  L 421.02 79.94
  L 412.13 80.47
  A 0.45 0.44 -3.3 0 1 411.66 80.06
  Q 411.66 79.94 411.68 79.79
  Q 412.37 57.90 413.04 36.00
  Q 413.12 33.51 412.11 30.59
  Q 415.95 29.55 420.30 29.99
  Q 420.70 30.03 420.76 30.43
  L 421.00 32.22
  Z"
/>
<path fill="#ffffff" d="
  M 378.13 83.17
  C 373.47 90.96 369.52 95.70 361.40 100.82
  Q 360.97 101.09 360.88 101.43
  Q 360.75 101.92 361.06 102.35
  A 1.15 1.05 26.5 0 1 361.26 102.87
  C 362.15 112.41 361.17 122.02 360.02 131.49
  Q 357.50 151.72 352.58 171.51
  Q 350.87 178.21 348.18 185.36
  Q 347.21 187.94 347.13 185.19
  L 346.78 171.81
  Q 346.39 158.24 344.42 144.87
  C 343.08 135.79 340.79 125.66 335.97 117.75
  A 0.39 0.39 0.0 0 0 335.44 117.62
  C 317.48 128.16 298.42 136.84 280.63 147.30
  Q 278.24 148.71 280.08 146.63
  L 289.49 135.97
  Q 297.96 126.29 306.03 113.92
  L 307.84 111.47
  A 0.30 0.30 0.0 0 0 307.59 110.99
  C 280.00 112.43 252.70 115.28 225.48 120.30
  Q 238.53 113.43 255.34 107.63
  Q 282.33 98.33 307.58 93.31
  L 311.24 92.82
  A 0.34 0.34 0.0 0 0 311.42 92.23
  Q 307.41 88.66 302.86 85.68
  Q 279.74 70.52 254.52 58.11
  Q 257.81 57.93 263.01 58.62
  Q 295.19 62.88 325.52 74.45
  Q 337.10 78.87 347.82 85.08
  Q 348.26 85.33 348.75 85.20
  C 358.26 82.66 368.45 82.26 378.22 81.51
  Q 378.81 81.47 378.66 82.03
  Q 378.50 82.63 378.13 83.17
  Z"
/>
<path fill="#11b487" d="
  M 254.52 58.11
  Q 279.74 70.52 302.86 85.68
  Q 307.41 88.66 311.42 92.23
  A 0.34 0.34 0.0 0 1 311.24 92.82
  L 307.58 93.31
  Q 303.79 89.28 298.77 86.46
  Q 276.48 72.10 252.60 60.58
  Q 252.04 60.31 252.28 59.74
  L 252.78 58.50
  Q 253.00 57.96 253.59 58.02
  L 254.52 58.11
  Z"
/>
<path fill="#59c4a4" d="
  M 411.68 79.79
  Q 411.66 79.94 411.66 80.06
  A 0.45 0.44 -3.3 0 0 412.13 80.47
  L 421.02 79.94
  L 421.03 188.20
  L 420.68 188.64
  Q 420.45 188.93 420.21 188.65
  Q 419.96 188.36 419.50 188.29
  Q 413.87 187.38 409.53 189.45
  L 409.58 171.07
  L 410.17 131.89
  A 0.26 0.25 72.3 0 0 409.77 131.68
  L 409.34 131.99
  Q 409.27 132.05 409.21 131.98
  Q 408.90 131.60 408.54 131.89
  Q 408.11 132.24 407.55 132.22
  Q 400.42 131.94 393.29 132.12
  C 392.01 132.15 390.57 131.78 389.14 131.90
  C 379.92 132.72 369.98 132.07 360.73 131.54
  A 0.22 0.07 -87.5 0 0 360.65 131.75
  Q 360.64 131.82 360.63 131.88
  Q 360.60 132.13 360.34 131.65
  Q 360.26 131.49 360.02 131.49
  C 361.17 122.02 362.15 112.41 361.26 102.87
  A 1.15 1.05 26.5 0 0 361.06 102.35
  Q 360.75 101.92 360.88 101.43
  Q 360.97 101.09 361.40 100.82
  C 369.52 95.70 373.47 90.96 378.13 83.17
  Q 380.74 84.19 382.50 84.16
  Q 396.58 83.98 410.01 84.28
  A 1.42 1.42 0.0 0 0 411.46 82.95
  L 411.68 79.79
  Z"
/>
<path fill="#59c4a4" d="
  M 298.77 86.46
  Q 303.79 89.28 307.58 93.31
  Q 282.33 98.33 255.34 107.63
  Q 238.53 113.43 225.48 120.30
  Q 225.12 121.15 223.55 121.96
  Q 223.21 122.14 223.31 122.50
  Q 223.36 122.66 223.48 122.79
  Q 223.68 122.98 224.09 122.94
  C 228.47 122.56 233.91 121.31 236.97 120.83
  Q 270.92 115.45 306.03 113.92
  Q 297.96 126.29 289.49 135.97
  Q 287.60 134.90 283.50 134.89
  Q 255.00 134.86 226.51 135.15
  Q 224.56 135.17 220.00 135.20
  Q 205.43 135.30 195.04 134.65
  L 195.76 133.44
  A 0.35 0.34 6.0 0 0 195.35 132.94
  L 187.83 135.41
  L 185.80 134.84
  Q 185.44 134.73 185.38 135.10
  Q 185.33 135.48 184.94 135.75
  Q 184.77 135.86 184.84 135.65
  Q 184.90 135.45 184.67 135.15
  A 0.14 0.13 -23.2 0 0 184.53 135.10
  Q 182.81 135.68 181.90 135.65
  Q 181.01 135.62 181.00 135.64
  Q 180.62 135.99 180.22 135.67
  Q 179.93 135.43 179.55 135.41
  Q 175.73 135.24 171.90 135.17
  C 170.77 135.15 169.45 135.65 168.27 135.48
  C 165.47 135.08 163.17 135.11 160.38 135.39
  Q 160.17 135.41 160.02 135.28
  Q 159.91 135.19 159.75 135.19
  Q 135.06 135.14 110.36 135.13
  Q 110.07 135.13 109.80 135.27
  Q 109.55 135.39 109.26 135.35
  C 105.89 134.85 102.61 135.49 99.35 135.18
  Q 96.39 134.90 95.00 135.15
  C 93.11 135.49 92.04 135.12 90.60 135.12
  Q 68.18 135.12 45.75 135.14
  Q 45.26 135.14 44.81 135.33
  Q 44.28 135.56 43.70 135.28
  Q 43.28 135.08 42.83 135.18
  C 40.65 135.67 41.17 137.29 41.09 138.94
  Q 40.36 154.74 40.23 169.54
  L 39.98 187.59
  Q 39.41 187.26 38.01 187.18
  Q 35.70 187.06 33.01 187.41
  L 33.02 89.28
  Q 33.32 89.20 33.42 89.66
  Q 33.51 90.09 33.96 90.08
  L 43.03 89.77
  Q 43.45 89.76 43.51 89.34
  L 43.92 86.38
  L 295.88 86.18
  Q 296.37 86.18 296.82 86.34
  Q 297.81 86.69 298.77 86.46
  Z"
/>
<path fill="#11b487" d="
  M 306.03 113.92
  Q 270.92 115.45 236.97 120.83
  C 233.91 121.31 228.47 122.56 224.09 122.94
  Q 223.68 122.98 223.48 122.79
  Q 223.36 122.66 223.31 122.50
  Q 223.21 122.14 223.55 121.96
  Q 225.12 121.15 225.48 120.30
  C 252.70 115.28 280.00 112.43 307.59 110.99
  A 0.30 0.30 0.0 0 1 307.84 111.47
  L 306.03 113.92
  Z"
/>
<path fill="#11b487" d="
  M 346.78 171.81
  Q 346.48 171.74 346.35 171.21
  Q 346.14 170.35 345.87 170.87
  Q 345.78 171.04 345.66 171.10
  Q 345.30 171.28 345.33 171.68
  L 345.35 172.17
  A 0.08 0.08 0.0 0 1 345.20 172.20
  Q 345.09 171.86 344.87 171.56
  Q 344.56 171.13 344.03 171.13
  L 242.24 171.13
  Q 241.56 171.13 242.01 171.64
  Q 243.10 172.86 242.50 173.12
  Q 215.91 158.72 186.19 153.86
  Q 185.62 153.77 185.80 153.22
  Q 189.15 142.86 195.04 134.65
  Q 205.43 135.30 220.00 135.20
  Q 224.56 135.17 226.51 135.15
  Q 255.00 134.86 283.50 134.89
  Q 287.60 134.90 289.49 135.97
  L 280.08 146.63
  Q 278.24 148.71 280.63 147.30
  C 298.42 136.84 317.48 128.16 335.44 117.62
  A 0.39 0.39 0.0 0 1 335.97 117.75
  C 340.79 125.66 343.08 135.79 344.42 144.87
  Q 346.39 158.24 346.78 171.81
  Z"
/>
<path fill="#11b487" d="
  M 360.02 131.49
  Q 360.26 131.49 360.34 131.65
  Q 360.60 132.13 360.63 131.88
  Q 360.64 131.82 360.65 131.75
  A 0.22 0.07 -87.5 0 1 360.73 131.54
  C 369.98 132.07 379.92 132.72 389.14 131.90
  C 390.57 131.78 392.01 132.15 393.29 132.12
  Q 400.42 131.94 407.55 132.22
  Q 408.11 132.24 408.54 131.89
  Q 408.90 131.60 409.21 131.98
  Q 409.27 132.05 409.34 131.99
  L 409.77 131.68
  A 0.26 0.25 72.3 0 1 410.17 131.89
  L 409.58 171.07
  Q 382.83 171.17 356.25 171.13
  Q 355.93 171.13 355.89 171.46
  Q 355.86 171.76 355.55 171.82
  Q 353.91 172.13 352.58 171.51
  Q 357.50 151.72 360.02 131.49
  Z"
/>
<path fill="#ffffff" d="
  M 195.04 134.65
  Q 189.15 142.86 185.80 153.22
  Q 185.62 153.77 186.19 153.86
  Q 215.91 158.72 242.50 173.12
  L 248.97 176.73
  Q 249.04 176.86 248.91 177.00
  Q 248.78 177.13 248.59 177.10
  C 226.26 173.02 204.09 171.11 181.52 174.69
  C 179.25 175.05 176.91 174.95 175.87 177.57
  Q 168.64 196.86 165.05 217.13
  L 163.19 226.26
  Q 155.51 206.02 149.75 185.65
  A 0.65 0.64 -23.7 0 0 148.79 185.28
  Q 141.47 189.84 134.77 195.25
  Q 116.03 210.41 98.18 227.50
  Q 98.95 225.08 100.93 221.45
  Q 106.44 211.32 108.85 207.32
  Q 120.12 188.11 135.25 171.49
  L 137.19 169.62
  Q 137.57 169.26 137.17 168.91
  C 128.55 161.28 111.76 158.62 100.92 158.31
  Q 98.60 158.24 100.80 157.50
  C 118.67 151.49 139.98 150.20 158.68 151.60
  A 1.42 1.38 -60.9 0 0 159.59 151.33
  Q 172.62 141.47 187.83 135.41
  L 195.35 132.94
  A 0.35 0.34 6.0 0 1 195.76 133.44
  L 195.04 134.65
  Z"
/>
<path fill="#11b487" d="
  M 187.83 135.41
  Q 172.62 141.47 159.59 151.33
  A 1.42 1.38 -60.9 0 1 158.68 151.60
  C 139.98 150.20 118.67 151.49 100.80 157.50
  Q 98.60 158.24 100.92 158.31
  C 111.76 158.62 128.55 161.28 137.17 168.91
  Q 137.57 169.26 137.19 169.62
  L 135.25 171.49
  Q 133.93 171.07 133.91 171.03
  A 2.62 2.60 72.8 0 0 131.75 169.88
  L 46.90 169.93
  Q 46.58 169.93 46.29 169.78
  Q 45.38 169.30 40.23 169.54
  Q 40.36 154.74 41.09 138.94
  C 41.17 137.29 40.65 135.67 42.83 135.18
  Q 43.28 135.08 43.70 135.28
  Q 44.28 135.56 44.81 135.33
  Q 45.26 135.14 45.75 135.14
  Q 68.18 135.12 90.60 135.12
  C 92.04 135.12 93.11 135.49 95.00 135.15
  Q 96.39 134.90 99.35 135.18
  C 102.61 135.49 105.89 134.85 109.26 135.35
  Q 109.55 135.39 109.80 135.27
  Q 110.07 135.13 110.36 135.13
  Q 135.06 135.14 159.75 135.19
  Q 159.91 135.19 160.02 135.28
  Q 160.17 135.41 160.38 135.39
  C 163.17 135.11 165.47 135.08 168.27 135.48
  C 169.45 135.65 170.77 135.15 171.90 135.17
  Q 175.73 135.24 179.55 135.41
  Q 179.93 135.43 180.22 135.67
  Q 180.62 135.99 181.00 135.64
  Q 181.01 135.62 181.90 135.65
  Q 182.81 135.68 184.53 135.10
  A 0.14 0.13 -23.2 0 1 184.67 135.15
  Q 184.90 135.45 184.84 135.65
  Q 184.77 135.86 184.94 135.75
  Q 185.33 135.48 185.38 135.10
  Q 185.44 134.73 185.80 134.84
  L 187.83 135.41
  Z"
/>
<path fill="#1f1e24" d="
  M 562.11 160.76
  Q 540.36 160.86 518.76 163.45
  A 0.45 0.45 0.0 0 1 518.25 163.00
  L 518.25 141.78
  A 0.23 0.23 0.0 0 1 518.48 141.55
  L 641.70 141.53
  Q 642.63 141.53 642.63 142.46
  L 642.63 163.03
  A 0.43 0.42 3.6 0 1 642.15 163.45
  Q 620.45 160.85 598.59 160.76
  Q 598.12 160.76 598.10 161.23
  C 596.82 201.66 596.60 240.68 599.33 278.76
  Q 599.38 279.37 598.77 279.37
  L 561.62 279.37
  A 0.33 0.33 0.0 0 1 561.29 279.01
  C 564.40 240.05 564.05 200.26 562.61 161.23
  Q 562.59 160.75 562.11 160.76
  Z"
/>
<path fill="#1f1e24" d="
  M 704.80 199.19
  Q 704.80 199.58 705.19 199.57
  L 753.78 198.43
  A 0.85 0.84 89.3 0 1 754.64 199.28
  L 754.63 218.98
  A 0.36 0.36 0.0 0 1 754.27 219.34
  L 705.11 218.16
  A 0.48 0.48 0.0 0 0 704.62 218.65
  L 705.50 260.99
  Q 705.51 261.52 706.04 261.52
  Q 743.86 261.33 781.64 259.50
  Q 782.21 259.47 782.21 260.04
  L 782.21 278.83
  Q 782.21 279.37 781.67 279.37
  L 669.51 279.36
  Q 668.99 279.36 669.03 278.84
  Q 670.09 264.04 670.45 249.00
  Q 671.75 195.52 669.25 142.07
  Q 669.22 141.55 669.75 141.55
  L 778.01 141.53
  A 0.49 0.49 0.0 0 1 778.50 142.02
  L 778.50 161.21
  Q 778.50 161.68 778.03 161.63
  C 754.23 159.21 729.81 159.63 705.92 160.26
  Q 705.37 160.27 705.36 160.82
  L 704.80 199.19
  Z"
/>
<path fill="#1f1e24" d="
  M 902.06 204.13
  C 914.27 208.60 926.75 214.07 933.17 226.00
  C 940.29 239.25 937.54 255.16 926.21 264.95
  C 913.32 276.11 890.44 279.48 873.75 279.45
  Q 842.12 279.39 810.44 279.34
  Q 810.03 279.34 810.07 278.94
  Q 811.34 264.02 811.69 249.00
  C 812.51 213.49 813.04 177.31 810.26 141.88
  A 0.32 0.31 -2.5 0 1 810.58 141.54
  Q 845.88 141.54 881.25 141.59
  C 895.37 141.61 913.78 145.15 923.62 156.17
  C 933.91 167.70 931.30 184.56 919.91 194.40
  Q 912.24 201.03 902.08 203.72
  Q 901.42 203.90 902.06 204.13
  Z
  M 856.73 215.44
  A 0.32 0.32 0.0 0 1 856.41 215.00
  L 863.72 196.26
  Q 863.89 195.81 864.38 195.84
  C 877.33 196.50 897.54 191.83 895.21 174.24
  C 893.50 161.41 883.23 158.76 872.25 157.61
  Q 859.73 156.30 847.30 157.67
  A 0.38 0.37 -2.7 0 0 846.97 158.03
  Q 844.80 210.10 846.74 262.19
  Q 846.76 262.65 847.22 262.68
  C 861.09 263.53 887.10 264.68 897.26 252.87
  C 903.01 246.17 903.24 235.91 898.25 228.78
  C 889.72 216.56 869.99 214.78 856.73 215.44
  Z"
/>
<path fill="#00ab7c" d="
  M 135.25 171.49
  Q 120.12 188.11 108.85 207.32
  Q 108.07 206.44 106.70 208.67
  Q 106.42 209.12 105.90 209.12
  Q 76.82 209.11 47.75 209.20
  Q 45.01 209.21 42.52 210.11
  Q 42.22 210.21 42.01 210.12
  Q 41.76 210.01 41.66 210.26
  L 41.05 211.74
  Q 40.91 212.08 40.71 211.78
  Q 40.61 211.64 40.58 211.46
  Q 40.58 211.45 40.58 211.46
  L 40.06 215.81
  L 39.98 187.59
  L 40.23 169.54
  Q 45.38 169.30 46.29 169.78
  Q 46.58 169.93 46.90 169.93
  L 131.75 169.88
  A 2.62 2.60 72.8 0 1 133.91 171.03
  Q 133.93 171.07 135.25 171.49
  Z"
/>
<path fill="#00ab7c" d="
  M 346.78 171.81
  L 347.13 185.19
  Q 347.21 187.94 348.18 185.36
  Q 350.87 178.21 352.58 171.51
  Q 353.91 172.13 355.55 171.82
  Q 355.86 171.76 355.89 171.46
  Q 355.93 171.13 356.25 171.13
  Q 382.83 171.17 409.58 171.07
  L 409.53 189.45
  L 409.38 216.54
  Q 408.90 216.56 408.57 216.69
  Q 408.43 216.74 408.50 216.87
  Q 408.58 217.03 408.70 217.10
  Q 408.74 217.13 408.69 217.13
  L 165.05 217.13
  Q 168.64 196.86 175.87 177.57
  Q 181.00 176.83 185.95 176.22
  C 195.78 175.01 205.70 175.33 215.61 175.69
  C 226.06 176.08 236.66 177.96 246.98 179.54
  Q 247.47 179.62 247.90 179.40
  Q 249.38 178.66 249.34 177.00
  Q 249.33 176.60 248.97 176.73
  L 242.50 173.12
  Q 243.10 172.86 242.01 171.64
  Q 241.56 171.13 242.24 171.13
  L 344.03 171.13
  Q 344.56 171.13 344.87 171.56
  Q 345.09 171.86 345.20 172.20
  A 0.08 0.08 0.0 0 0 345.35 172.17
  L 345.33 171.68
  Q 345.30 171.28 345.66 171.10
  Q 345.78 171.04 345.87 170.87
  Q 346.14 170.35 346.35 171.21
  Q 346.48 171.74 346.78 171.81
  Z"
/>
<path fill="#11b487" d="
  M 248.97 176.73
  Q 249.33 176.60 249.34 177.00
  Q 249.38 178.66 247.90 179.40
  Q 247.47 179.62 246.98 179.54
  C 236.66 177.96 226.06 176.08 215.61 175.69
  C 205.70 175.33 195.78 175.01 185.95 176.22
  Q 181.00 176.83 175.87 177.57
  C 176.91 174.95 179.25 175.05 181.52 174.69
  C 204.09 171.11 226.26 173.02 248.59 177.10
  Q 248.78 177.13 248.91 177.00
  Q 249.04 176.86 248.97 176.73
  Z"
/>
<path fill="#11b487" d="
  M 163.19 226.26
  Q 162.89 226.91 161.99 226.97
  A 1.07 1.06 -11.6 0 1 160.92 226.27
  Q 154.06 207.78 148.62 188.81
  A 1.10 1.10 0.0 0 0 146.94 188.20
  C 138.08 194.26 131.60 199.42 121.54 207.92
  C 119.70 209.47 118.00 211.28 116.20 212.73
  Q 109.40 218.20 103.23 224.35
  Q 101.73 225.85 98.18 227.50
  Q 116.03 210.41 134.77 195.25
  Q 141.47 189.84 148.79 185.28
  A 0.65 0.64 -23.7 0 1 149.75 185.65
  Q 155.51 206.02 163.19 226.26
  Z"
/>
<path fill="#76caaf" d="
  M 39.98 187.59
  L 40.06 215.81
  L 41.97 282.75
  L 42.14 286.02
  L 42.10 287.13
  Q 42.07 287.73 41.48 287.64
  Q 40.60 287.51 40.12 288.18
  Q 39.85 288.56 39.38 288.59
  Q 37.51 288.71 36.50 288.64
  Q 34.79 288.52 33.01 290.09
  L 33.01 187.41
  Q 35.70 187.06 38.01 187.18
  Q 39.41 187.26 39.98 187.59
  Z"
/>
<path fill="#009c71" d="
  M 163.19 226.26
  L 165.05 217.13
  L 408.69 217.13
  Q 408.74 217.13 408.70 217.10
  Q 408.58 217.03 408.50 216.87
  Q 408.43 216.74 408.57 216.69
  Q 408.90 216.56 409.38 216.54
  L 410.00 278.88
  L 106.70 278.88
  Q 106.35 278.88 106.18 278.56
  Q 105.92 278.06 104.93 278.04
  C 100.04 266.98 96.86 254.75 94.74 243.28
  Q 94.31 240.92 94.02 243.30
  C 92.15 258.80 91.39 275.08 93.89 290.73
  Q 93.97 291.26 93.52 291.53
  Q 93.04 291.83 92.26 291.94
  L 90.99 281.96
  Q 90.86 280.88 89.77 280.88
  L 43.72 280.88
  A 0.85 0.84 -78.4 0 0 42.94 281.40
  Q 42.77 281.80 42.83 282.08
  A 0.04 0.04 0.0 0 0 42.91 282.08
  Q 43.11 281.30 42.75 280.39
  Q 42.32 279.33 42.39 280.47
  Q 42.49 281.89 41.97 282.75
  L 40.06 215.81
  L 40.58 211.46
  Q 40.58 211.45 40.58 211.46
  Q 40.61 211.64 40.71 211.78
  Q 40.91 212.08 41.05 211.74
  L 41.66 210.26
  Q 41.76 210.01 42.01 210.12
  Q 42.22 210.21 42.52 210.11
  Q 45.01 209.21 47.75 209.20
  Q 76.82 209.11 105.90 209.12
  Q 106.42 209.12 106.70 208.67
  Q 108.07 206.44 108.85 207.32
  Q 106.44 211.32 100.93 221.45
  Q 98.95 225.08 98.18 227.50
  Q 101.73 225.85 103.23 224.35
  Q 109.40 218.20 116.20 212.73
  C 118.00 211.28 119.70 209.47 121.54 207.92
  C 131.60 199.42 138.08 194.26 146.94 188.20
  A 1.10 1.10 0.0 0 1 148.62 188.81
  Q 154.06 207.78 160.92 226.27
  A 1.07 1.06 -11.6 0 0 161.99 226.97
  Q 162.89 226.91 163.19 226.26
  Z"
/>
<path fill="#76caaf" d="
  M 421.03 188.20
  L 421.02 302.28
  Q 420.95 305.82 415.00 305.10
  Q 412.44 304.79 410.58 305.08
  L 410.00 278.88
  L 409.38 216.54
  L 409.53 189.45
  Q 413.87 187.38 419.50 188.29
  Q 419.96 188.36 420.21 188.65
  Q 420.45 188.93 420.68 188.64
  L 421.03 188.20
  Z"
/>
<path fill="#ffffff" d="
  M 104.93 278.04
  L 109.42 287.16
  Q 109.64 287.60 110.13 287.52
  L 138.21 282.90
  Q 139.08 282.76 138.58 283.48
  Q 130.73 294.83 125.94 307.77
  Q 125.77 308.25 126.13 308.61
  Q 139.91 321.97 157.68 328.70
  Q 160.53 329.76 159.36 329.95
  C 146.75 329.06 135.04 327.52 122.88 323.92
  Q 122.32 323.75 122.25 324.33
  L 121.98 326.74
  Q 121.17 337.07 123.93 346.99
  Q 124.01 347.27 124.03 347.52
  Q 124.12 349.04 123.53 347.90
  Q 109.90 334.26 101.71 316.54
  A 1.45 1.41 89.6 0 0 101.02 315.84
  Q 86.15 308.57 71.68 299.46
  Q 81.60 294.83 92.26 291.94
  Q 93.04 291.83 93.52 291.53
  Q 93.97 291.26 93.89 290.73
  C 91.39 275.08 92.15 258.80 94.02 243.30
  Q 94.31 240.92 94.74 243.28
  C 96.86 254.75 100.04 266.98 104.93 278.04
  Z"
/>
<path fill="#00936b" d="
  M 104.93 278.04
  Q 105.92 278.06 106.18 278.56
  Q 106.35 278.88 106.70 278.88
  L 410.00 278.88
  L 410.58 305.08
  L 411.31 330.16
  Q 410.52 330.34 410.44 331.28
  Q 410.42 331.61 410.09 331.51
  Q 408.80 331.11 407.64 331.68
  Q 407.22 331.88 406.76 331.88
  Q 334.12 331.88 261.49 331.88
  Q 259.89 331.88 256.51 331.73
  Q 254.00 331.62 251.51 331.67
  Q 245.83 331.78 240.16 331.61
  C 239.25 331.58 238.30 332.09 237.55 332.54
  A 0.29 0.29 0.0 0 0 237.49 332.99
  L 237.74 333.24
  Q 238.08 333.57 237.61 333.63
  Q 237.36 333.67 237.06 333.74
  L 236.47 330.23
  C 239.26 329.21 241.18 326.95 243.47 325.14
  Q 246.11 323.06 247.93 321.27
  Q 252.99 316.28 258.22 311.47
  Q 260.02 309.81 260.10 308.03
  L 264.58 303.82
  Q 264.62 303.78 264.58 303.73
  L 264.41 303.51
  Q 264.27 303.34 264.09 303.47
  Q 250.48 313.31 235.34 320.57
  Q 234.81 320.83 234.77 320.24
  L 233.80 305.71
  Q 233.75 304.88 233.26 305.56
  Q 224.92 317.12 215.45 327.78
  A 1.49 1.43 13.0 0 1 214.70 328.23
  L 201.24 331.33
  Q 201.14 330.86 201.48 330.40
  Q 201.84 329.91 201.23 329.91
  L 161.55 329.87
  Q 161.09 329.87 160.75 329.56
  Q 159.50 328.42 157.68 328.70
  Q 139.91 321.97 126.13 308.61
  Q 125.77 308.25 125.94 307.77
  Q 130.73 294.83 138.58 283.48
  Q 139.08 282.76 138.21 282.90
  L 110.13 287.52
  Q 109.64 287.60 109.42 287.16
  L 104.93 278.04
  Z"
/>
<path fill="#00936b" d="
  M 92.26 291.94
  Q 81.60 294.83 71.68 299.46
  Q 70.84 300.78 70.89 301.88
  A 0.97 0.95 14.9 0 0 71.35 302.66
  Q 84.76 311.22 99.06 318.20
  C 101.32 319.30 103.95 326.23 105.37 328.64
  L 104.87 329.53
  Q 104.68 329.88 104.28 329.88
  L 47.97 329.88
  Q 47.54 329.88 47.15 329.71
  Q 46.50 329.44 45.94 329.83
  A 0.47 0.47 0.0 0 1 45.24 329.61
  L 44.77 328.45
  L 42.14 286.02
  L 41.97 282.75
  Q 42.49 281.89 42.39 280.47
  Q 42.32 279.33 42.75 280.39
  Q 43.11 281.30 42.91 282.08
  A 0.04 0.04 0.0 0 1 42.83 282.08
  Q 42.77 281.80 42.94 281.40
  A 0.85 0.84 -78.4 0 1 43.72 280.88
  L 89.77 280.88
  Q 90.86 280.88 90.99 281.96
  L 92.26 291.94
  Z"
/>
<path fill="#59c4a4" d="
  M 42.14 286.02
  L 44.77 328.45
  L 46.85 353.26
  Q 39.70 352.68 33.01 353.56
  L 33.01 290.09
  Q 34.79 288.52 36.50 288.64
  Q 37.51 288.71 39.38 288.59
  Q 39.85 288.56 40.12 288.18
  Q 40.60 287.51 41.48 287.64
  Q 42.07 287.73 42.10 287.13
  L 42.14 286.02
  Z"
/>
<path fill="#11b487" d="
  M 71.68 299.46
  Q 86.15 308.57 101.02 315.84
  A 1.45 1.41 89.6 0 1 101.71 316.54
  Q 109.90 334.26 123.53 347.90
  Q 122.17 350.01 120.42 348.32
  Q 111.51 339.71 105.37 328.64
  C 103.95 326.23 101.32 319.30 99.06 318.20
  Q 84.76 311.22 71.35 302.66
  A 0.97 0.95 14.9 0 1 70.89 301.88
  Q 70.84 300.78 71.68 299.46
  Z"
/>
<path fill="#59c4a4" d="
  M 421.02 302.28
  L 421.01 351.78
  L 420.79 352.93
  A 0.15 0.15 0.0 0 1 420.52 353.00
  Q 420.36 352.82 420.38 352.59
  Q 420.41 352.17 419.98 352.13
  L 412.01 351.49
  L 411.31 330.16
  L 410.58 305.08
  Q 412.44 304.79 415.00 305.10
  Q 420.95 305.82 421.02 302.28
  Z"
/>
<path fill="#ffffff" d="
  M 260.10 308.03
  Q 248.76 319.32 236.59 329.20
  Q 236.33 329.41 236.28 329.64
  Q 236.20 330.01 236.47 330.23
  L 237.06 333.74
  L 238.60 340.76
  Q 238.42 340.76 238.24 340.78
  Q 231.52 341.58 224.76 341.63
  Q 222.63 341.65 220.76 342.64
  Q 202.82 352.06 182.96 356.65
  L 200.70 342.90
  L 203.12 340.77
  A 0.31 0.30 -60.0 0 0 202.98 340.24
  Q 192.28 338.11 182.27 332.94
  L 201.24 331.33
  L 214.70 328.23
  A 1.49 1.43 13.0 0 0 215.45 327.78
  Q 224.92 317.12 233.26 305.56
  Q 233.75 304.88 233.80 305.71
  L 234.77 320.24
  Q 234.81 320.83 235.34 320.57
  Q 250.48 313.31 264.09 303.47
  Q 264.27 303.34 264.41 303.51
  L 264.58 303.73
  Q 264.62 303.78 264.58 303.82
  L 260.10 308.03
  Z"
/>
<path fill="#11b487" d="
  M 260.10 308.03
  Q 260.02 309.81 258.22 311.47
  Q 252.99 316.28 247.93 321.27
  Q 246.11 323.06 243.47 325.14
  C 241.18 326.95 239.26 329.21 236.47 330.23
  Q 236.20 330.01 236.28 329.64
  Q 236.33 329.41 236.59 329.20
  Q 248.76 319.32 260.10 308.03
  Z"
/>
<path fill="#11b487" d="
  M 159.36 329.95
  C 159.67 332.24 158.52 332.61 156.75 332.54
  Q 139.06 331.82 121.98 326.74
  L 122.25 324.33
  Q 122.32 323.75 122.88 323.92
  C 135.04 327.52 146.75 329.06 159.36 329.95
  Z"
/>
<path fill="#009c71" d="
  M 121.98 326.74
  Q 139.06 331.82 156.75 332.54
  C 158.52 332.61 159.67 332.24 159.36 329.95
  Q 160.53 329.76 157.68 328.70
  Q 159.50 328.42 160.75 329.56
  Q 161.09 329.87 161.55 329.87
  L 201.23 329.91
  Q 201.84 329.91 201.48 330.40
  Q 201.14 330.86 201.24 331.33
  L 182.27 332.94
  Q 180.25 335.68 181.71 336.34
  Q 190.65 340.41 200.70 342.90
  L 182.96 356.65
  L 182.44 357.66
  A 0.62 0.62 0.0 0 0 182.91 358.56
  Q 184.78 358.81 186.55 358.31
  Q 203.72 353.50 219.54 345.26
  Q 221.49 344.24 223.66 344.22
  Q 233.30 344.13 236.75 343.28
  Q 237.65 343.06 238.60 340.76
  L 237.06 333.74
  Q 237.36 333.67 237.61 333.63
  Q 238.08 333.57 237.74 333.24
  L 237.49 332.99
  A 0.29 0.29 0.0 0 1 237.55 332.54
  C 238.30 332.09 239.25 331.58 240.16 331.61
  Q 245.83 331.78 251.51 331.67
  Q 254.00 331.62 256.51 331.73
  Q 259.89 331.88 261.49 331.88
  Q 334.12 331.88 406.76 331.88
  Q 407.22 331.88 407.64 331.68
  Q 408.80 331.11 410.09 331.51
  Q 410.42 331.61 410.44 331.28
  Q 410.52 330.34 411.31 330.16
  L 412.01 351.49
  L 412.24 360.68
  Q 397.60 361.10 382.99 360.72
  C 347.87 359.82 312.63 360.43 277.50 360.58
  Q 272.62 360.60 267.75 360.62
  Q 218.75 360.90 169.75 360.87
  C 168.15 360.87 166.19 360.28 164.41 360.36
  Q 154.89 360.78 152.13 360.60
  C 141.45 359.90 130.61 359.53 119.92 360.10
  C 114.35 360.40 108.93 359.58 102.57 359.98
  C 84.36 361.13 65.99 361.11 47.68 360.78
  L 46.85 353.26
  L 44.77 328.45
  L 45.24 329.61
  A 0.47 0.47 0.0 0 0 45.94 329.83
  Q 46.50 329.44 47.15 329.71
  Q 47.54 329.88 47.97 329.88
  L 104.28 329.88
  Q 104.68 329.88 104.87 329.53
  L 105.37 328.64
  Q 111.51 339.71 120.42 348.32
  Q 122.17 350.01 123.53 347.90
  Q 124.12 349.04 124.03 347.52
  Q 124.01 347.27 123.93 346.99
  Q 121.17 337.07 121.98 326.74
  Z"
/>
<path fill="#11b487" d="
  M 182.27 332.94
  Q 192.28 338.11 202.98 340.24
  A 0.31 0.30 -60.0 0 1 203.12 340.77
  L 200.70 342.90
  Q 190.65 340.41 181.71 336.34
  Q 180.25 335.68 182.27 332.94
  Z"
/>
<path fill="#11b487" d="
  M 238.60 340.76
  Q 237.65 343.06 236.75 343.28
  Q 233.30 344.13 223.66 344.22
  Q 221.49 344.24 219.54 345.26
  Q 203.72 353.50 186.55 358.31
  Q 184.78 358.81 182.91 358.56
  A 0.62 0.62 0.0 0 1 182.44 357.66
  L 182.96 356.65
  Q 202.82 352.06 220.76 342.64
  Q 222.63 341.65 224.76 341.63
  Q 231.52 341.58 238.24 340.78
  Q 238.42 340.76 238.60 340.76
  Z"
/>
<path fill="#11b487" d="
  M 412.01 351.49
  L 419.98 352.13
  Q 420.41 352.17 420.38 352.59
  Q 420.36 352.82 420.52 353.00
  A 0.15 0.15 0.0 0 0 420.79 352.93
  L 421.01 351.78
  L 421.01 406.49
  Q 421.01 407.00 420.50 407.00
  L 33.52 407.00
  Q 33.01 407.00 33.01 406.50
  L 33.01 353.56
  Q 39.70 352.68 46.85 353.26
  L 47.68 360.78
  L 49.37 375.63
  Q 49.42 376.12 49.91 376.12
  Q 230.55 376.12 411.19 376.12
  C 411.68 376.12 411.91 376.32 412.45 376.38
  Q 412.88 376.42 412.86 375.99
  L 412.24 360.68
  L 412.01 351.49
  Z"
/>
<path fill="#00ab7c" d="
  M 412.24 360.68
  L 412.86 375.99
  Q 412.88 376.42 412.45 376.38
  C 411.91 376.32 411.68 376.12 411.19 376.12
  Q 230.55 376.12 49.91 376.12
  Q 49.42 376.12 49.37 375.63
  L 47.68 360.78
  C 65.99 361.11 84.36 361.13 102.57 359.98
  C 108.93 359.58 114.35 360.40 119.92 360.10
  C 130.61 359.53 141.45 359.90 152.13 360.60
  Q 154.89 360.78 164.41 360.36
  C 166.19 360.28 168.15 360.87 169.75 360.87
  Q 218.75 360.90 267.75 360.62
  Q 272.62 360.60 277.50 360.58
  C 312.63 360.43 347.87 359.82 382.99 360.72
  Q 397.60 361.10 412.24 360.68
  Z"
/>
</svg>
