<svg width="198" height="67" fill="none" xmlns="http://www.w3.org/2000/svg"><path d="M19.58 66.974C8.783 66.974 0 58.19 0 47.394v-8.235h10.907v8.235c0 4.782 3.89 8.672 8.673 8.672 4.782 0 8.672-3.89 8.672-8.672v-8.235H39.16v8.235c0 10.796-8.783 19.58-19.58 19.58z" fill="#00FF8C"/><path d="M77.88 22.619V10.907h3.576v11.566c0 3.778 1.946 5.812 5.143 5.812 3.167 0 5.115-1.918 5.115-5.666V10.907h3.574v11.538c0 6.073-3.43 9.124-8.747 9.124-5.29 0-8.66-3.051-8.66-8.95zm21.026-6.669h3.516v2.382c.989-1.453 2.413-2.702 4.796-2.702 3.458 0 5.463 2.325 5.463 5.899v9.765h-3.516v-8.719c0-2.383-1.192-3.749-3.284-3.749-2.034 0-3.459 1.424-3.459 3.807v8.66h-3.516V15.95zm18.222 0h3.516v15.344h-3.516V15.949zm-.146-5.696h3.778v3.342h-3.778v-3.342zm8.981 16.796v-8.079h-1.947V15.95h1.947v-4.214h3.516v4.214h4.126v3.022h-4.126v7.527c0 1.366.697 1.918 1.889 1.918.784 0 1.482-.174 2.18-.523v2.877c-.873.494-1.86.785-3.168.785-2.587 0-4.417-1.134-4.417-4.505zm20.691-4.504c-.233-2.267-1.569-4.04-3.894-4.04-2.151 0-3.662 1.657-3.982 4.04h7.876zm-11.363 1.133v-.058c0-4.388 3.109-7.991 7.498-7.991 4.882 0 7.352 3.835 7.352 8.252 0 .32-.029.64-.058.989h-11.275c.377 2.499 2.15 3.894 4.417 3.894 1.714 0 2.935-.64 4.156-1.831l2.063 1.83c-1.454 1.745-3.459 2.878-6.277 2.878-4.447 0-7.876-3.226-7.876-7.963zm29.438-.029v-.058c0-2.964-2.092-4.911-4.446-4.911-2.412 0-4.417 1.86-4.417 4.911v.058c0 2.964 2.034 4.911 4.417 4.911 2.354 0 4.446-1.976 4.446-4.91zm-12.409 0v-.058c0-5.086 3.458-7.963 7.12-7.963 2.528 0 4.127 1.279 5.231 2.703V10.08h3.516v21.214h-3.516v-2.558c-1.133 1.6-2.732 2.878-5.231 2.878-3.603 0-7.12-2.878-7.12-7.963zM85.627 46.125c2.702 0 4.388-1.511 4.388-3.633v-.058c0-2.383-1.715-3.632-4.388-3.632H81.47v7.323h4.156zm-7.73-10.578h8.02c4.737 0 7.73 2.702 7.73 6.8v.058c0 4.563-3.661 6.946-8.137 6.946h-4.039v6.538h-3.575V35.547zm27.607 13.916c-.901-.349-2.15-.61-3.516-.61-2.209 0-3.516.9-3.516 2.383v.058c0 1.453 1.307 2.267 2.963 2.267 2.326 0 4.069-1.308 4.069-3.226v-.872zm-.087 6.422v-1.889c-1.046 1.25-2.644 2.21-4.969 2.21-2.906 0-5.464-1.657-5.464-4.738v-.058c0-3.4 2.645-5.027 6.219-5.027 1.86 0 3.052.261 4.243.639v-.29c0-2.122-1.337-3.284-3.778-3.284-1.714 0-2.993.377-4.388.959l-.959-2.82c1.685-.755 3.342-1.278 5.841-1.278 4.534 0 6.742 2.383 6.742 6.48v9.096h-3.487zm6.015 3.808l1.191-2.616c.639.349 1.337.582 2.064.582.988 0 1.598-.437 2.179-1.773l-6.393-15.344h3.748l4.359 11.392 3.982-11.392h3.661l-6.102 15.78c-1.221 3.138-2.587 4.3-5.057 4.3-1.482 0-2.557-.348-3.632-.93zm17.232-19.152h3.517v2.325c.988-1.365 2.324-2.644 4.678-2.644 2.209 0 3.749 1.075 4.563 2.703 1.25-1.628 2.877-2.703 5.201-2.703 3.342 0 5.377 2.121 5.377 5.87v9.793h-3.517v-8.718c0-2.441-1.133-3.749-3.109-3.749-1.918 0-3.284 1.337-3.284 3.807v8.66h-3.516v-8.747c0-2.383-1.162-3.72-3.11-3.72-1.947 0-3.283 1.453-3.283 3.836v8.631h-3.517V40.542zm36.966 6.598c-.232-2.267-1.569-4.04-3.894-4.04-2.15 0-3.661 1.657-3.981 4.04h7.875zm-11.362 1.133v-.058c0-4.388 3.109-7.992 7.497-7.992 4.883 0 7.353 3.836 7.353 8.253 0 .32-.03.64-.059.988h-11.275c.378 2.5 2.151 3.895 4.417 3.895 1.715 0 2.936-.64 4.156-1.831l2.063 1.83c-1.453 1.744-3.458 2.877-6.277 2.877-4.446 0-7.875-3.225-7.875-7.962zm17.232-7.731h3.517v2.384c.988-1.454 2.411-2.703 4.794-2.703 3.458 0 5.464 2.325 5.464 5.9v9.763h-3.517v-8.718c0-2.383-1.191-3.749-3.283-3.749-2.035 0-3.458 1.425-3.458 3.807v8.66H171.5V40.542zm18.162 11.102v-8.079h-1.947v-3.022h1.947v-4.214h3.516v4.214h4.127v3.022h-4.127v7.527c0 1.366.698 1.918 1.889 1.918a4.73 4.73 0 002.18-.523v2.877c-.872.494-1.86.785-3.168.785-2.586 0-4.417-1.134-4.417-4.505zM47.395 39.16H39.16V28.251h8.235c4.782 0 8.672-3.89 8.672-8.672s-3.89-8.673-8.672-8.673H39.16V0h8.235c10.796 0 19.58 8.783 19.58 19.58 0 10.796-8.784 19.58-19.58 19.58z" fill="#000"/></svg>