<?xml version="1.0" encoding="UTF-8" standalone="no"?>
<!DOCTYPE svg PUBLIC "-//W3C//DTD SVG 1.1//EN" "http://www.w3.org/Graphics/SVG/1.1/DTD/svg11.dtd">
<svg xmlns="http://www.w3.org/2000/svg" version="1.1" viewBox="0.00 0.00 2560.00 310.00">
<path stroke="#fde1a7" stroke-width="2.00" fill="none" stroke-linecap="butt" vector-effect="non-scaling-stroke" d="
  M 100.42 219.84
  Q 109.14 176.58 118.92 133.24
  Q 124.40 109.00 132.03 85.37
  C 134.90 76.47 138.45 67.01 144.83 60.08
  Q 157.43 46.40 175.49 41.71
  Q 176.44 41.46 177.46 41.67
  Q 177.78 41.74 177.68 41.43
  L 177.56 41.07
  Q 177.51 40.92 177.36 40.88
  C 148.97 34.94 119.69 41.94 100.08 63.55
  C 87.81 77.07 79.89 95.38 75.77 113.26
  C 63.21 167.80 52.69 217.29 41.75 269.20
  Q 41.54 270.23 42.58 270.30
  C 77.83 272.88 124.76 265.44 149.20 236.70
  Q 202.13 174.44 268.72 91.94
  C 285.56 71.08 307.83 47.95 333.69 38.81
  Q 334.12 38.66 333.66 38.64
  C 297.06 36.79 258.22 47.96 230.81 73.17
  Q 225.94 77.65 217.12 87.73
  C 178.43 131.92 139.08 175.55 100.70 219.98
  Q 100.29 220.45 100.42 219.84"
/>
<path fill="#000000" d="
  M 1566.51 0.00
  L 1579.03 0.00
  Q 1596.73 0.87 1614.10 4.58
  Q 1615.44 4.87 1614.13 5.28
  C 1602.29 8.97 1592.18 16.04 1588.55 28.97
  Q 1588.39 29.54 1587.81 29.43
  Q 1570.97 26.30 1556.76 28.50
  C 1523.88 33.59 1520.87 63.60 1516.03 89.96
  Q 1515.93 90.52 1516.50 90.52
  L 1559.23 90.51
  A 0.21 0.20 -85.2 0 1 1559.43 90.75
  L 1553.47 121.45
  A 0.42 0.42 0.0 0 1 1553.06 121.78
  L 1510.42 121.78
  A 0.39 0.38 5.4 0 0 1510.04 122.09
  L 1475.49 306.10
  Q 1475.40 306.58 1474.90 306.58
  L 1418.59 306.59
  A 0.32 0.32 0.0 0 1 1418.28 306.21
  L 1452.83 122.22
  A 0.38 0.37 5.1 0 0 1452.46 121.78
  L 1416.20 121.78
  Q 1415.61 121.78 1415.72 121.20
  L 1421.37 91.04
  Q 1421.47 90.51 1422.00 90.51
  L 1458.49 90.51
  A 0.34 0.34 0.0 0 0 1458.82 90.24
  C 1460.92 79.02 1462.63 65.53 1466.02 56.13
  C 1480.71 15.40 1528.04 1.81 1566.51 0.00
  Z"
/>
<path fill="#000000" d="
  M 1714.32 0.00
  L 1723.37 0.00
  C 1760.56 1.62 1802.18 10.24 1824.11 44.13
  Q 1836.49 63.24 1831.84 85.71
  C 1823.78 124.67 1790.39 138.73 1755.15 144.70
  Q 1753.58 144.96 1755.14 145.30
  C 1793.67 153.69 1825.20 185.87 1817.01 227.99
  C 1812.76 249.87 1803.81 268.00 1786.37 281.71
  C 1768.35 295.87 1744.57 302.45 1722.23 305.61
  Q 1697.57 309.10 1670.75 309.35
  C 1632.16 309.72 1598.82 310.18 1563.01 306.48
  Q 1562.46 306.42 1562.56 305.88
  Q 1587.01 174.50 1611.52 43.00
  C 1618.33 6.46 1686.11 0.44 1714.32 0.00
  Z
  M 1772.42 75.25
  C 1773.34 50.21 1757.66 36.23 1734.25 32.05
  C 1714.53 28.53 1692.70 29.55 1673.61 37.00
  Q 1673.09 37.20 1672.99 37.75
  L 1655.38 130.88
  A 0.64 0.63 -82.1 0 0 1655.94 131.63
  C 1679.05 133.85 1703.46 134.08 1726.24 128.97
  C 1754.22 122.68 1771.34 104.48 1772.42 75.25
  Z
  M 1751.89 226.73
  C 1764.56 173.86 1720.62 159.41 1679.00 159.41
  Q 1665.15 159.42 1651.36 160.04
  Q 1650.79 160.06 1650.69 160.61
  L 1628.39 274.51
  A 0.37 0.37 0.0 0 0 1628.74 274.95
  Q 1650.75 275.88 1672.75 275.74
  C 1706.43 275.54 1743.03 263.69 1751.89 226.73
  Z"
/>
<path fill="#fbc34e" d="
  M 0.00 306.80
  L 0.00 306.25
  Q 0.04 306.25 0.07 306.25
  A 0.11 0.11 0.0 0 0 0.16 306.17
  Q 21.52 193.84 42.85 81.50
  C 49.20 48.02 76.28 20.91 108.50 11.05
  Q 123.83 6.37 140.75 6.35
  Q 245.00 6.24 349.25 6.31
  C 384.30 6.33 423.41 14.60 446.21 43.53
  C 455.40 55.19 460.35 71.40 457.81 86.50
  C 451.01 126.87 417.81 140.46 382.24 146.89
  A 0.19 0.19 0.0 0 0 382.24 147.26
  C 415.33 154.38 445.69 181.11 444.06 217.23
  Q 443.54 228.79 438.63 243.23
  C 425.97 280.45 393.01 296.10 356.72 302.09
  Q 327.94 306.83 298.75 306.83
  Q 149.37 306.82 0.00 306.80
  Z
  M 100.42 219.84
  Q 109.14 176.58 118.92 133.24
  Q 124.40 109.00 132.03 85.37
  C 134.90 76.47 138.45 67.01 144.83 60.08
  Q 157.43 46.40 175.49 41.71
  Q 176.44 41.46 177.46 41.67
  Q 177.78 41.74 177.68 41.43
  L 177.56 41.07
  Q 177.51 40.92 177.36 40.88
  C 148.97 34.94 119.69 41.94 100.08 63.55
  C 87.81 77.07 79.89 95.38 75.77 113.26
  C 63.21 167.80 52.69 217.29 41.75 269.20
  Q 41.54 270.23 42.58 270.30
  C 77.83 272.88 124.76 265.44 149.20 236.70
  Q 202.13 174.44 268.72 91.94
  C 285.56 71.08 307.83 47.95 333.69 38.81
  Q 334.12 38.66 333.66 38.64
  C 297.06 36.79 258.22 47.96 230.81 73.17
  Q 225.94 77.65 217.12 87.73
  C 178.43 131.92 139.08 175.55 100.70 219.98
  Q 100.29 220.45 100.42 219.84
  Z"
/>
<path fill="#000000" d="
  M 708.85 241.07
  L 828.89 6.45
  A 0.34 0.34 0.0 0 1 829.19 6.26
  L 885.81 6.26
  A 0.34 0.34 0.0 0 1 886.10 6.76
  L 722.07 306.68
  A 0.34 0.34 0.0 0 1 721.77 306.86
  L 668.18 306.86
  A 0.34 0.34 0.0 0 1 667.85 306.58
  L 612.29 6.66
  A 0.34 0.34 0.0 0 1 612.63 6.26
  L 676.84 6.26
  A 0.34 0.34 0.0 0 1 677.18 6.56
  L 708.21 240.96
  A 0.34 0.34 0.0 0 0 708.85 241.07
  Z"
/>
<path fill="#000000" d="
  M 1239.83 90.50
  L 1299.89 90.52
  A 0.30 0.30 0.0 0 1 1300.09 91.04
  L 1190.76 189.37
  A 0.30 0.30 0.0 0 0 1190.71 189.77
  L 1270.65 306.05
  A 0.30 0.30 0.0 0 1 1270.40 306.52
  L 1203.76 306.52
  A 0.30 0.30 0.0 0 1 1203.50 306.38
  L 1135.34 196.02
  A 0.30 0.30 0.0 0 0 1134.79 196.12
  L 1114.20 306.61
  A 0.30 0.30 0.0 0 1 1113.90 306.86
  L 1056.94 306.86
  A 0.30 0.30 0.0 0 1 1056.65 306.50
  L 1113.11 6.50
  A 0.30 0.30 0.0 0 1 1113.41 6.26
  L 1170.04 6.26
  A 0.30 0.30 0.0 0 1 1170.33 6.62
  L 1136.12 188.43
  A 0.30 0.30 0.0 0 0 1136.62 188.70
  L 1239.62 90.58
  A 0.30 0.30 0.0 0 1 1239.83 90.50
  Z"
/>
<path fill="#000000" d="
  M 2560.00 90.81
  L 2560.00 92.74
  L 2452.38 189.58
  Q 2452.05 189.88 2452.30 190.26
  L 2532.02 306.39
  A 0.25 0.25 0.0 0 1 2531.81 306.78
  L 2465.49 306.78
  Q 2464.94 306.78 2464.65 306.31
  L 2397.17 196.82
  A 0.58 0.53 -32.1 0 0 2396.40 196.68
  Q 2396.25 196.77 2396.19 197.10
  Q 2385.85 251.56 2375.60 306.18
  Q 2375.54 306.48 2375.23 306.48
  L 2318.47 306.48
  Q 2317.95 306.48 2318.05 305.98
  L 2374.43 6.48
  A 0.32 0.31 -84.5 0 1 2374.74 6.22
  L 2431.51 6.22
  Q 2431.81 6.22 2431.75 6.51
  L 2397.67 188.03
  A 0.64 0.64 0.0 0 0 2398.74 188.62
  L 2500.76 91.20
  Q 2501.18 90.81 2501.74 90.81
  L 2560.00 90.81
  Z"
/>
<path fill="#ffffff" d="
  M 100.42 219.84
  Q 100.29 220.45 100.70 219.98
  C 139.08 175.55 178.43 131.92 217.12 87.73
  Q 225.94 77.65 230.81 73.17
  C 258.22 47.96 297.06 36.79 333.66 38.64
  Q 334.12 38.66 333.69 38.81
  C 307.83 47.95 285.56 71.08 268.72 91.94
  Q 202.13 174.44 149.20 236.70
  C 124.76 265.44 77.83 272.88 42.58 270.30
  Q 41.54 270.23 41.75 269.20
  C 52.69 217.29 63.21 167.80 75.77 113.26
  C 79.89 95.38 87.81 77.07 100.08 63.55
  C 119.69 41.94 148.97 34.94 177.36 40.88
  Q 177.51 40.92 177.56 41.07
  L 177.68 41.43
  Q 177.78 41.74 177.46 41.67
  Q 176.44 41.46 175.49 41.71
  Q 157.43 46.40 144.83 60.08
  C 138.45 67.01 134.90 76.47 132.03 85.37
  Q 124.40 109.00 118.92 133.24
  Q 109.14 176.58 100.42 219.84
  Z"
/>
<path fill="#000000" d="
  M 980.90 164.97
  C 985.06 147.63 987.47 128.96 966.48 121.33
  Q 955.84 117.47 944.51 116.97
  Q 902.34 115.09 863.02 130.05
  Q 862.49 130.25 862.75 129.74
  L 879.10 97.80
  A 1.56 1.55 2.2 0 1 879.89 97.07
  Q 903.68 87.20 929.50 85.48
  C 951.14 84.04 971.19 83.96 991.74 89.34
  C 1026.88 98.54 1044.72 123.88 1037.89 160.49
  Q 1024.32 233.24 1010.65 306.05
  A 0.39 0.38 2.7 0 1 1010.29 306.37
  Q 973.51 309.21 936.50 309.80
  C 908.32 310.26 880.44 309.02 854.25 297.57
  C 829.73 286.86 813.06 266.22 820.12 238.17
  C 830.57 196.67 877.58 180.26 915.27 173.14
  Q 947.47 167.05 980.26 165.49
  A 0.71 0.68 4.9 0 0 980.90 164.97
  Z
  M 875.51 239.97
  C 868.51 271.75 895.21 282.29 920.76 283.56
  Q 939.42 284.49 958.34 283.44
  A 0.60 0.59 -85.7 0 0 958.90 282.95
  L 976.22 189.02
  Q 976.25 188.87 976.09 188.88
  Q 952.83 190.18 930.12 195.10
  C 904.84 200.57 881.53 212.63 875.51 239.97
  Z"
/>
<path fill="#000000" d="
  M 1997.01 164.98
  C 2001.22 147.49 2003.67 129.29 1982.98 121.48
  Q 1972.23 117.42 1960.01 116.95
  Q 1917.98 115.35 1879.03 130.25
  Q 1878.58 130.42 1878.79 129.99
  L 1894.93 97.69
  A 1.56 1.55 2.2 0 1 1895.72 96.96
  Q 1919.96 87.12 1945.76 85.47
  C 1968.08 84.05 1988.58 83.95 2009.73 89.84
  C 2044.58 99.55 2060.72 125.40 2053.99 161.25
  Q 2040.40 233.62 2026.80 306.04
  A 0.46 0.45 2.4 0 1 2026.39 306.41
  Q 1981.45 309.88 1936.25 310.00
  C 1903.89 310.08 1846.41 300.84 1836.11 262.31
  C 1831.55 245.29 1838.32 225.91 1849.20 212.71
  C 1863.91 194.86 1888.12 184.20 1910.40 178.16
  C 1938.42 170.55 1967.45 167.02 1996.39 165.49
  Q 1996.89 165.46 1997.01 164.98
  Z
  M 1928.30 200.63
  C 1907.99 208.14 1893.37 222.92 1891.00 245.03
  C 1888.01 272.85 1912.98 282.64 1935.75 283.63
  Q 1955.00 284.48 1974.35 283.45
  Q 1974.99 283.42 1975.11 282.78
  L 1992.49 189.05
  A 0.19 0.19 0.0 0 0 1992.30 188.83
  C 1970.63 190.28 1948.73 193.08 1928.30 200.63
  Z"
/>
<path fill="#000000" d="
  M 2160.37 126.05
  L 2126.61 306.57
  A 0.37 0.36 5.8 0 1 2126.25 306.86
  L 2069.03 306.86
  Q 2068.46 306.86 2068.57 306.29
  L 2106.71 104.21
  Q 2106.83 103.61 2107.41 103.41
  Q 2142.72 91.09 2179.77 88.14
  C 2215.39 85.30 2292.38 82.22 2304.21 129.74
  Q 2306.91 140.61 2304.42 153.53
  Q 2289.66 230.01 2275.00 306.57
  A 0.36 0.35 4.8 0 1 2274.65 306.86
  L 2219.00 306.85
  Q 2218.56 306.85 2218.64 306.42
  Q 2232.19 234.14 2245.77 161.66
  Q 2248.26 148.39 2247.62 143.20
  C 2245.00 122.23 2221.66 118.32 2204.30 117.85
  Q 2181.98 117.25 2160.99 125.31
  Q 2160.48 125.51 2160.37 126.05
  Z"
/>
<path fill="#000000" d="
  M 1293.61 306.07
  L 1334.00 90.82
  A 0.38 0.38 0.0 0 1 1334.38 90.51
  L 1387.98 90.51
  A 0.38 0.38 0.0 0 1 1388.36 90.96
  L 1347.89 306.21
  A 0.38 0.38 0.0 0 1 1347.51 306.52
  L 1293.99 306.52
  A 0.38 0.38 0.0 0 1 1293.61 306.07
  Z"
/>
</svg>
