<?xml version="1.0" encoding="UTF-8"?>
<!DOCTYPE svg PUBLIC "-//W3C//DTD SVG 1.1//EN" "http://www.w3.org/Graphics/SVG/1.1/DTD/svg11.dtd">
<svg xmlns="http://www.w3.org/2000/svg" version="1.1" width="500px" height="102px" style="shape-rendering:geometricPrecision; text-rendering:geometricPrecision; image-rendering:optimizeQuality; fill-rule:evenodd; clip-rule:evenodd" xmlns:xlink="http://www.w3.org/1999/xlink">
<g><path style="opacity:0.983" fill="#18c2da" d="M 74.5,0.5 C 66.1667,13.8333 57.8333,27.1667 49.5,40.5C 40.9309,53.2939 32.5976,66.2939 24.5,79.5C 16.9231,67.4054 9.0898,55.4054 1,43.5C 0.333333,41.5 0.333333,39.5 1,37.5C 9.03006,25.635 16.8634,13.635 24.5,1.5C 41.1533,0.500533 57.82,0.167199 74.5,0.5 Z"/></g>
<g><path style="opacity:0.978" fill="#1c63fd" d="M 74.5,0.5 C 82.4703,11.9896 90.3037,23.6563 98,35.5C 99.4217,38.0301 99.755,40.6967 99,43.5C 91.3037,55.3437 83.4703,67.0104 75.5,78.5C 66.4755,66.1308 57.8088,53.4642 49.5,40.5C 57.8333,27.1667 66.1667,13.8333 74.5,0.5 Z"/></g>
<g><path style="opacity:0.906" fill="#1c63fe" d="M 121.5,15.5 C 125.767,15.203 129.934,15.5363 134,16.5C 141.667,34.5 149.333,52.5 157,70.5C 165.091,52.6472 172.924,34.6472 180.5,16.5C 184.833,15.1667 189.167,15.1667 193.5,16.5C 183.212,39.192 173.212,62.0253 163.5,85C 159.245,85.7961 155.079,85.6295 151,84.5C 140.674,61.6808 130.84,38.6808 121.5,15.5 Z"/></g>
<g><path style="opacity:0.906" fill="#1c63fe" d="M 218.5,15.5 C 222.555,15.1758 226.555,15.5091 230.5,16.5C 240.314,39.2841 250.314,61.9507 260.5,84.5C 256.167,85.8333 251.833,85.8333 247.5,84.5C 239.942,66.3832 232.108,48.3832 224,30.5C 216.528,48.5818 208.862,66.5818 201,84.5C 196.882,85.7977 192.715,85.7977 188.5,84.5C 198.507,61.4708 208.507,38.4708 218.5,15.5 Z"/></g>
<g><path style="opacity:0.922" fill="#1c63fe" d="M 268.5,15.5 C 272.167,15.5 275.833,15.5 279.5,15.5C 279.5,35.5 279.5,55.5 279.5,75.5C 291.833,75.5 304.167,75.5 316.5,75.5C 316.5,78.8333 316.5,82.1667 316.5,85.5C 300.5,85.5 284.5,85.5 268.5,85.5C 268.5,62.1667 268.5,38.8333 268.5,15.5 Z"/></g>
<g><path style="opacity:0.881" fill="#1c63fe" d="M 324.5,15.5 C 328.5,15.5 332.5,15.5 336.5,15.5C 336.5,35.5 336.5,55.5 336.5,75.5C 348.5,75.5 360.5,75.5 372.5,75.5C 372.5,78.8333 372.5,82.1667 372.5,85.5C 356.5,85.5 340.5,85.5 324.5,85.5C 324.5,62.1667 324.5,38.8333 324.5,15.5 Z"/></g>
<g><path style="opacity:0.897" fill="#1c63fe" d="M 382.5,15.5 C 399.833,15.5 417.167,15.5 434.5,15.5C 434.5,19.1667 434.5,22.8333 434.5,26.5C 420.833,26.5 407.167,26.5 393.5,26.5C 393.5,32.5 393.5,38.5 393.5,44.5C 405.833,44.5 418.167,44.5 430.5,44.5C 430.5,48.1667 430.5,51.8333 430.5,55.5C 418.167,55.5 405.833,55.5 393.5,55.5C 393.5,62.1667 393.5,68.8333 393.5,75.5C 407.167,75.5 420.833,75.5 434.5,75.5C 434.5,78.8333 434.5,82.1667 434.5,85.5C 417.167,85.5 399.833,85.5 382.5,85.5C 382.5,62.1667 382.5,38.8333 382.5,15.5 Z"/></g>
<g><path style="opacity:0.859" fill="#1c63fe" d="M 442.5,15.5 C 461.167,15.5 479.833,15.5 498.5,15.5C 498.5,19.1667 498.5,22.8333 498.5,26.5C 491.167,26.5 483.833,26.5 476.5,26.5C 476.5,46.1667 476.5,65.8333 476.5,85.5C 472.5,85.5 468.5,85.5 464.5,85.5C 464.174,65.9239 464.507,46.4239 465.5,27C 457.841,26.5003 450.174,26.3336 442.5,26.5C 442.5,22.8333 442.5,19.1667 442.5,15.5 Z"/></g>
<g><path style="opacity:0.984" fill="#0244c9" d="M 49.5,40.5 C 57.8088,53.4642 66.4755,66.1308 75.5,78.5C 71.5629,85.5305 67.2296,92.3639 62.5,99C 58.4477,100.101 54.2811,100.601 50,100.5C 45.7189,100.601 41.5523,100.101 37.5,99C 32.9447,92.6182 28.6114,86.1182 24.5,79.5C 32.5976,66.2939 40.9309,53.2939 49.5,40.5 Z"/></g>
</svg>
