<?xml version="1.0" encoding="UTF-8" standalone="no"?>
<!DOCTYPE svg PUBLIC "-//W3C//DTD SVG 1.1//EN" "http://www.w3.org/Graphics/SVG/1.1/DTD/svg11.dtd">
<svg xmlns="http://www.w3.org/2000/svg" version="1.1" viewBox="0.00 0.00 450.00 112.00">
<g stroke-width="2.00" fill="none" stroke-linecap="butt">
<path stroke="#8ddaf1" vector-effect="non-scaling-stroke" d="
  M 450.00 15.55
  L 435.52 15.31
  Q 435.01 15.30 435.02 15.81
  Q 435.20 28.30 435.25 42.80
  C 435.28 50.80 433.00 58.62 424.81 61.38
  C 417.10 63.99 409.76 59.39 407.07 52.07
  Q 406.02 49.24 405.99 42.19
  Q 405.93 29.64 406.08 16.46
  Q 406.09 15.41 405.05 15.42
  L 391.75 15.49
  Q 391.30 15.49 391.30 15.93
  Q 391.29 31.61 391.27 45.68
  C 391.24 58.39 398.10 70.65 410.22 75.36
  Q 421.40 79.72 434.32 74.02
  A 0.58 0.58 0.0 0 1 435.13 74.50
  C 435.87 82.70 433.22 90.05 425.83 93.96
  C 419.56 97.29 412.13 95.62 407.00 90.86
  A 1.22 1.22 0.0 0 0 405.31 90.89
  L 396.16 100.11
  A 0.72 0.71 -44.7 0 0 396.15 101.11
  C 411.93 117.64 437.69 112.12 446.98 92.26
  Q 449.61 86.63 450.00 77.79"
/>
<path stroke="#a7bbf4" vector-effect="non-scaling-stroke" d="
  M 259.97 112.00
  L 259.99 74.98
  A 0.34 0.34 0.0 0 1 260.51 74.69
  C 268.87 79.78 280.81 80.54 289.73 77.14
  Q 300.49 73.03 306.26 62.96
  C 311.80 53.28 311.60 40.03 305.59 30.77
  C 295.51 15.19 276.61 10.68 260.42 20.39
  Q 259.72 20.81 259.77 20.00
  L 260.00 16.16
  A 0.85 0.85 0.0 0 0 259.15 15.25
  L 245.20 15.29
  Q 244.59 15.29 244.60 15.89
  L 244.65 112.00"
/>
<path stroke="#9ec4f4" vector-effect="non-scaling-stroke" d="
  M 0.00 16.62
  Q 2.22 29.45 15.25 30.51"
/>
<path stroke="#9393bf" vector-effect="non-scaling-stroke" d="
  M 15.25 30.51
  Q 15.33 38.17 15.28 46.18
  Q 15.21 57.71 16.16 61.05
  Q 19.72 73.58 32.30 77.81
  Q 45.71 82.32 57.77 72.77
  Q 58.15 72.47 58.52 72.78
  C 66.54 79.40 77.56 81.26 87.06 76.66
  C 95.76 72.46 100.99 64.28 101.03 54.51
  Q 101.09 35.36 101.02 15.73
  A 0.37 0.37 0.0 0 0 100.65 15.37
  L 88.81 15.42
  A 3.09 3.09 0.0 0 0 85.73 18.51
  Q 85.71 37.85 85.76 54.39
  C 85.79 66.99 65.80 67.28 65.78 54.03
  Q 65.76 34.14 65.77 16.02
  Q 65.77 15.31 65.06 15.31
  L 54.39 15.35
  Q 50.52 15.36 50.54 19.23
  Q 50.63 34.97 50.64 52.21
  Q 50.65 56.37 49.75 58.41
  C 47.40 63.75 40.47 65.17 35.57 62.72
  C 31.33 60.60 30.57 57.15 30.55 52.53
  Q 30.48 33.92 30.53 15.26"
/>
<path stroke="#9ec4f4" vector-effect="non-scaling-stroke" d="
  M 30.53 15.26
  Q 30.22 7.91 25.07 3.63
  C 20.96 0.21 14.71 -0.91 9.76 1.05
  Q 1.45 4.33 0.00 13.98"
/>
<path stroke="#9da3d7" vector-effect="non-scaling-stroke" d="
  M 124.99 51.17
  L 171.50 51.18
  Q 172.05 51.18 172.08 50.63
  Q 172.83 34.69 161.32 23.61
  C 150.02 12.73 132.22 12.74 120.21 22.68
  C 103.40 36.58 105.20 63.16 124.01 74.65
  C 136.33 82.18 152.73 80.03 163.77 71.11
  A 0.78 0.78 0.0 0 0 163.83 69.94
  L 153.85 60.04
  Q 153.37 59.57 152.84 59.97
  Q 149.17 62.74 145.07 63.50
  Q 130.31 66.24 124.43 52.00
  Q 124.08 51.17 124.99 51.17"
/>
<path stroke="#a6b0eb" vector-effect="non-scaling-stroke" d="
  M 190.99 51.17
  L 237.55 51.13
  A 0.52 0.52 0.0 0 0 238.07 50.63
  Q 238.53 38.71 232.27 29.58
  Q 225.61 19.86 216.14 16.90
  C 200.86 12.11 185.21 18.85 177.94 32.92
  C 173.92 40.71 173.53 51.64 177.01 59.57
  Q 183.60 74.56 199.13 78.36
  C 209.46 80.89 221.41 77.99 229.76 70.99
  A 0.70 0.69 47.4 0 0 229.80 69.96
  L 219.58 59.89
  A 0.29 0.29 0.0 0 0 219.21 59.86
  C 208.64 67.14 195.07 64.97 190.44 51.95
  Q 190.16 51.18 190.99 51.17"
/>
<path stroke="#99ccf3" vector-effect="non-scaling-stroke" d="
  M 366.00 20.50
  A 0.32 0.31 17.3 0 1 365.50 20.76
  Q 357.66 15.25 348.06 15.41
  Q 328.71 15.72 319.44 32.13
  Q 314.38 41.09 315.70 51.40
  C 317.73 67.13 330.34 78.29 346.23 79.05
  Q 356.89 79.56 364.85 74.85
  Q 365.58 74.42 365.60 75.27
  L 365.65 78.32
  Q 365.66 78.97 366.31 78.98
  L 380.56 79.14
  A 0.45 0.45 0.0 0 0 381.02 78.69
  L 380.98 15.52
  A 0.21 0.21 0.0 0 0 380.77 15.31
  L 366.42 15.51
  A 0.56 0.56 0.0 0 0 365.86 16.09
  L 366.00 20.50"
/>
<path stroke="#3257b4" vector-effect="non-scaling-stroke" d="
  M 30.53 15.26
  L 23.02 15.28"
/>
<path stroke="#9ec4f4" vector-effect="non-scaling-stroke" d="
  M 23.02 15.28
  Q 21.27 7.82 14.93 8.08
  C 11.54 8.22 8.22 10.89 7.93 14.27
  Q 7.35 21.27 15.27 23.05"
/>
<path stroke="#3257b4" vector-effect="non-scaling-stroke" d="
  M 15.27 23.05
  L 15.25 30.51"
/>
<path stroke="#9393bf" vector-effect="non-scaling-stroke" d="
  M 23.02 15.28
  Q 21.74 15.41 19.26 15.33
  C 14.57 15.19 15.31 20.04 15.27 23.05"
/>
<path stroke="#9da3d7" vector-effect="non-scaling-stroke" d="
  M 133.37 32.36
  Q 129.68 33.94 126.97 37.77
  Q 126.54 38.38 127.29 38.38
  L 152.72 38.40
  Q 153.33 38.40 153.14 37.82
  Q 152.74 36.63 151.88 35.74
  Q 144.11 27.77 133.37 32.36"
/>
<path stroke="#a6b0eb" vector-effect="non-scaling-stroke" d="
  M 210.80 31.37
  Q 200.24 28.60 192.83 37.61
  Q 192.22 38.35 193.18 38.35
  L 218.71 38.40
  Q 219.57 38.40 219.11 37.67
  Q 215.99 32.73 210.80 31.37"
/>
<path stroke="#a7bbf4" vector-effect="non-scaling-stroke" d="
  M 294.81 47.51
  A 16.81 16.81 0.0 0 0 278.00 30.70
  A 16.81 16.81 0.0 0 0 261.19 47.51
  A 16.81 16.81 0.0 0 0 278.00 64.32
  A 16.81 16.81 0.0 0 0 294.81 47.51"
/>
<path stroke="#99ccf3" vector-effect="non-scaling-stroke" d="
  M 364.55 47.51
  A 16.80 16.80 0.0 0 0 347.75 30.71
  A 16.80 16.80 0.0 0 0 330.95 47.51
  A 16.80 16.80 0.0 0 0 347.75 64.31
  A 16.80 16.80 0.0 0 0 364.55 47.51"
/>
</g>
<path fill="#ffffff" d="
  M 0.00 0.00
  L 450.00 0.00
  L 450.00 15.55
  L 435.52 15.31
  Q 435.01 15.30 435.02 15.81
  Q 435.20 28.30 435.25 42.80
  C 435.28 50.80 433.00 58.62 424.81 61.38
  C 417.10 63.99 409.76 59.39 407.07 52.07
  Q 406.02 49.24 405.99 42.19
  Q 405.93 29.64 406.08 16.46
  Q 406.09 15.41 405.05 15.42
  L 391.75 15.49
  Q 391.30 15.49 391.30 15.93
  Q 391.29 31.61 391.27 45.68
  C 391.24 58.39 398.10 70.65 410.22 75.36
  Q 421.40 79.72 434.32 74.02
  A 0.58 0.58 0.0 0 1 435.13 74.50
  C 435.87 82.70 433.22 90.05 425.83 93.96
  C 419.56 97.29 412.13 95.62 407.00 90.86
  A 1.22 1.22 0.0 0 0 405.31 90.89
  L 396.16 100.11
  A 0.72 0.71 -44.7 0 0 396.15 101.11
  C 411.93 117.64 437.69 112.12 446.98 92.26
  Q 449.61 86.63 450.00 77.79
  L 450.00 112.00
  L 259.97 112.00
  L 259.99 74.98
  A 0.34 0.34 0.0 0 1 260.51 74.69
  C 268.87 79.78 280.81 80.54 289.73 77.14
  Q 300.49 73.03 306.26 62.96
  C 311.80 53.28 311.60 40.03 305.59 30.77
  C 295.51 15.19 276.61 10.68 260.42 20.39
  Q 259.72 20.81 259.77 20.00
  L 260.00 16.16
  A 0.85 0.85 0.0 0 0 259.15 15.25
  L 245.20 15.29
  Q 244.59 15.29 244.60 15.89
  L 244.65 112.00
  L 0.00 112.00
  L 0.00 16.62
  Q 2.22 29.45 15.25 30.51
  Q 15.33 38.17 15.28 46.18
  Q 15.21 57.71 16.16 61.05
  Q 19.72 73.58 32.30 77.81
  Q 45.71 82.32 57.77 72.77
  Q 58.15 72.47 58.52 72.78
  C 66.54 79.40 77.56 81.26 87.06 76.66
  C 95.76 72.46 100.99 64.28 101.03 54.51
  Q 101.09 35.36 101.02 15.73
  A 0.37 0.37 0.0 0 0 100.65 15.37
  L 88.81 15.42
  A 3.09 3.09 0.0 0 0 85.73 18.51
  Q 85.71 37.85 85.76 54.39
  C 85.79 66.99 65.80 67.28 65.78 54.03
  Q 65.76 34.14 65.77 16.02
  Q 65.77 15.31 65.06 15.31
  L 54.39 15.35
  Q 50.52 15.36 50.54 19.23
  Q 50.63 34.97 50.64 52.21
  Q 50.65 56.37 49.75 58.41
  C 47.40 63.75 40.47 65.17 35.57 62.72
  C 31.33 60.60 30.57 57.15 30.55 52.53
  Q 30.48 33.92 30.53 15.26
  Q 30.22 7.91 25.07 3.63
  C 20.96 0.21 14.71 -0.91 9.76 1.05
  Q 1.45 4.33 0.00 13.98
  L 0.00 0.00
  Z
  M 124.99 51.17
  L 171.50 51.18
  Q 172.05 51.18 172.08 50.63
  Q 172.83 34.69 161.32 23.61
  C 150.02 12.73 132.22 12.74 120.21 22.68
  C 103.40 36.58 105.20 63.16 124.01 74.65
  C 136.33 82.18 152.73 80.03 163.77 71.11
  A 0.78 0.78 0.0 0 0 163.83 69.94
  L 153.85 60.04
  Q 153.37 59.57 152.84 59.97
  Q 149.17 62.74 145.07 63.50
  Q 130.31 66.24 124.43 52.00
  Q 124.08 51.17 124.99 51.17
  Z
  M 190.99 51.17
  L 237.55 51.13
  A 0.52 0.52 0.0 0 0 238.07 50.63
  Q 238.53 38.71 232.27 29.58
  Q 225.61 19.86 216.14 16.90
  C 200.86 12.11 185.21 18.85 177.94 32.92
  C 173.92 40.71 173.53 51.64 177.01 59.57
  Q 183.60 74.56 199.13 78.36
  C 209.46 80.89 221.41 77.99 229.76 70.99
  A 0.70 0.69 47.4 0 0 229.80 69.96
  L 219.58 59.89
  A 0.29 0.29 0.0 0 0 219.21 59.86
  C 208.64 67.14 195.07 64.97 190.44 51.95
  Q 190.16 51.18 190.99 51.17
  Z
  M 366.00 20.50
  A 0.32 0.31 17.3 0 1 365.50 20.76
  Q 357.66 15.25 348.06 15.41
  Q 328.71 15.72 319.44 32.13
  Q 314.38 41.09 315.70 51.40
  C 317.73 67.13 330.34 78.29 346.23 79.05
  Q 356.89 79.56 364.85 74.85
  Q 365.58 74.42 365.60 75.27
  L 365.65 78.32
  Q 365.66 78.97 366.31 78.98
  L 380.56 79.14
  A 0.45 0.45 0.0 0 0 381.02 78.69
  L 380.98 15.52
  A 0.21 0.21 0.0 0 0 380.77 15.31
  L 366.42 15.51
  A 0.56 0.56 0.0 0 0 365.86 16.09
  L 366.00 20.50
  Z"
/>
<path fill="#3d88e8" d="
  M 30.53 15.26
  L 23.02 15.28
  Q 21.27 7.82 14.93 8.08
  C 11.54 8.22 8.22 10.89 7.93 14.27
  Q 7.35 21.27 15.27 23.05
  L 15.25 30.51
  Q 2.22 29.45 0.00 16.62
  L 0.00 13.98
  Q 1.45 4.33 9.76 1.05
  C 14.71 -0.91 20.96 0.21 25.07 3.63
  Q 30.22 7.91 30.53 15.26
  Z"
/>
<path fill="#ffffff" d="
  M 23.02 15.28
  Q 21.74 15.41 19.26 15.33
  C 14.57 15.19 15.31 20.04 15.27 23.05
  Q 7.35 21.27 7.93 14.27
  C 8.22 10.89 11.54 8.22 14.93 8.08
  Q 21.27 7.82 23.02 15.28
  Z"
/>
<path fill="#26267f" d="
  M 23.02 15.28
  L 30.53 15.26
  Q 30.48 33.92 30.55 52.53
  C 30.57 57.15 31.33 60.60 35.57 62.72
  C 40.47 65.17 47.40 63.75 49.75 58.41
  Q 50.65 56.37 50.64 52.21
  Q 50.63 34.97 50.54 19.23
  Q 50.52 15.36 54.39 15.35
  L 65.06 15.31
  Q 65.77 15.31 65.77 16.02
  Q 65.76 34.14 65.78 54.03
  C 65.80 67.28 85.79 66.99 85.76 54.39
  Q 85.71 37.85 85.73 18.51
  A 3.09 3.09 0.0 0 1 88.81 15.42
  L 100.65 15.37
  A 0.37 0.37 0.0 0 1 101.02 15.73
  Q 101.09 35.36 101.03 54.51
  C 100.99 64.28 95.76 72.46 87.06 76.66
  C 77.56 81.26 66.54 79.40 58.52 72.78
  Q 58.15 72.47 57.77 72.77
  Q 45.71 82.32 32.30 77.81
  Q 19.72 73.58 16.16 61.05
  Q 15.21 57.71 15.28 46.18
  Q 15.33 38.17 15.25 30.51
  L 15.27 23.05
  C 15.31 20.04 14.57 15.19 19.26 15.33
  Q 21.74 15.41 23.02 15.28
  Z"
/>
<path fill="#3b46ae" d="
  M 124.43 52.00
  Q 130.31 66.24 145.07 63.50
  Q 149.17 62.74 152.84 59.97
  Q 153.37 59.57 153.85 60.04
  L 163.83 69.94
  A 0.78 0.78 0.0 0 1 163.77 71.11
  C 152.73 80.03 136.33 82.18 124.01 74.65
  C 105.20 63.16 103.40 36.58 120.21 22.68
  C 132.22 12.74 150.02 12.73 161.32 23.61
  Q 172.83 34.69 172.08 50.63
  Q 172.05 51.18 171.50 51.18
  L 124.99 51.17
  Q 124.08 51.17 124.43 52.00
  Z
  M 133.37 32.36
  Q 129.68 33.94 126.97 37.77
  Q 126.54 38.38 127.29 38.38
  L 152.72 38.40
  Q 153.33 38.40 153.14 37.82
  Q 152.74 36.63 151.88 35.74
  Q 144.11 27.77 133.37 32.36
  Z"
/>
<path fill="#4d60d6" d="
  M 190.44 51.95
  C 195.07 64.97 208.64 67.14 219.21 59.86
  A 0.29 0.29 0.0 0 1 219.58 59.89
  L 229.80 69.96
  A 0.70 0.69 47.4 0 1 229.76 70.99
  C 221.41 77.99 209.46 80.89 199.13 78.36
  Q 183.60 74.56 177.01 59.57
  C 173.53 51.64 173.92 40.71 177.94 32.92
  C 185.21 18.85 200.86 12.11 216.14 16.90
  Q 225.61 19.86 232.27 29.58
  Q 238.53 38.71 238.07 50.63
  A 0.52 0.52 0.0 0 1 237.55 51.13
  L 190.99 51.17
  Q 190.16 51.18 190.44 51.95
  Z
  M 210.80 31.37
  Q 200.24 28.60 192.83 37.61
  Q 192.22 38.35 193.18 38.35
  L 218.71 38.40
  Q 219.57 38.40 219.11 37.67
  Q 215.99 32.73 210.80 31.37
  Z"
/>
<path fill="#4f77e9" d="
  M 259.97 112.00
  L 244.65 112.00
  L 244.60 15.89
  Q 244.59 15.29 245.20 15.29
  L 259.15 15.25
  A 0.85 0.85 0.0 0 1 260.00 16.16
  L 259.77 20.00
  Q 259.72 20.81 260.42 20.39
  C 276.61 10.68 295.51 15.19 305.59 30.77
  C 311.60 40.03 311.80 53.28 306.26 62.96
  Q 300.49 73.03 289.73 77.14
  C 280.81 80.54 268.87 79.78 260.51 74.69
  A 0.34 0.34 0.0 0 0 259.99 74.98
  L 259.97 112.00
  Z
  M 294.81 47.51
  A 16.81 16.81 0.0 0 0 278.00 30.70
  A 16.81 16.81 0.0 0 0 261.19 47.51
  A 16.81 16.81 0.0 0 0 278.00 64.32
  A 16.81 16.81 0.0 0 0 294.81 47.51
  Z"
/>
<path fill="#3298e6" d="
  M 366.00 20.50
  L 365.86 16.09
  A 0.56 0.56 0.0 0 1 366.42 15.51
  L 380.77 15.31
  A 0.21 0.21 0.0 0 1 380.98 15.52
  L 381.02 78.69
  A 0.45 0.45 0.0 0 1 380.56 79.14
  L 366.31 78.98
  Q 365.66 78.97 365.65 78.32
  L 365.60 75.27
  Q 365.58 74.42 364.85 74.85
  Q 356.89 79.56 346.23 79.05
  C 330.34 78.29 317.73 67.13 315.70 51.40
  Q 314.38 41.09 319.44 32.13
  Q 328.71 15.72 348.06 15.41
  Q 357.66 15.25 365.50 20.76
  A 0.32 0.31 17.3 0 0 366.00 20.50
  Z
  M 364.55 47.51
  A 16.80 16.80 0.0 0 0 347.75 30.71
  A 16.80 16.80 0.0 0 0 330.95 47.51
  A 16.80 16.80 0.0 0 0 347.75 64.31
  A 16.80 16.80 0.0 0 0 364.55 47.51
  Z"
/>
<path fill="#1ab4e3" d="
  M 450.00 15.55
  L 450.00 77.79
  Q 449.61 86.63 446.98 92.26
  C 437.69 112.12 411.93 117.64 396.15 101.11
  A 0.72 0.71 -44.7 0 1 396.16 100.11
  L 405.31 90.89
  A 1.22 1.22 0.0 0 1 407.00 90.86
  C 412.13 95.62 419.56 97.29 425.83 93.96
  C 433.22 90.05 435.87 82.70 435.13 74.50
  A 0.58 0.58 0.0 0 0 434.32 74.02
  Q 421.40 79.72 410.22 75.36
  C 398.10 70.65 391.24 58.39 391.27 45.68
  Q 391.29 31.61 391.30 15.93
  Q 391.30 15.49 391.75 15.49
  L 405.05 15.42
  Q 406.09 15.41 406.08 16.46
  Q 405.93 29.64 405.99 42.19
  Q 406.02 49.24 407.07 52.07
  C 409.76 59.39 417.10 63.99 424.81 61.38
  C 433.00 58.62 435.28 50.80 435.25 42.80
  Q 435.20 28.30 435.02 15.81
  Q 435.01 15.30 435.52 15.31
  L 450.00 15.55
  Z"
/>
<circle fill="#ffffff" cx="347.75" cy="47.51" r="16.80"/>
<path fill="#ffffff" d="
  M 133.37 32.36
  Q 144.11 27.77 151.88 35.74
  Q 152.74 36.63 153.14 37.82
  Q 153.33 38.40 152.72 38.40
  L 127.29 38.38
  Q 126.54 38.38 126.97 37.77
  Q 129.68 33.94 133.37 32.36
  Z"
/>
<path fill="#ffffff" d="
  M 210.80 31.37
  Q 215.99 32.73 219.11 37.67
  Q 219.57 38.40 218.71 38.40
  L 193.18 38.35
  Q 192.22 38.35 192.83 37.61
  Q 200.24 28.60 210.80 31.37
  Z"
/>
<circle fill="#ffffff" cx="278.00" cy="47.51" r="16.81"/>
</svg>
