<svg width="997" height="134" viewBox="0 0 997 134" fill="none" xmlns="http://www.w3.org/2000/svg">
<path d="M746.39 60.3001L749.57 70.7601L750.89 75.0201L751.73 77.7101L752.11 78.8901L752.82 81.1101L753.1 81.9401L753.59 83.4001L753.73 83.7501L754.35 85.0601L754.84 85.4001L755.37 85.6801L755.7 85.7301L755.85 85.7401L751.95 86.6201L751.41 86.7201L750.09 86.9001L749.4 86.9901L747.8 87.1601L746.14 87.3301L742.26 87.6101L729.91 88.0501H728.57L726.22 88.0701L725.1 88.0801L723.16 88.1201L722.24 88.1501L720.69 88.2201L719.96 88.2501L718.77 88.3501L718.21 88.4001L717.34 88.5201L716.95 88.5801L716.38 88.7401L715.66 89.3301V89.4201L715.6 89.9801L715.57 90.3201L715.46 91.3501L715.39 91.9201L715.23 93.3701L715.14 94.1401L714.92 95.9401L714.81 96.8801L714.55 98.9801L714.42 100.07L714.13 102.41L713.16 110.08L712.82 112.76L712.19 117.67L712.04 118.84L711.77 120.99L711.64 122.04L711.4 123.9L711.29 124.8L711.09 126.32L711 127.03L710.86 128.15L710.8 128.66L710.72 129.32L710.66 129.76V129.81L710.2 130.35L709.09 131.51L708.77 131.83L707.74 132.29L707.13 132.5L705.22 132.77L704.67 132.83L703.34 132.92L702.62 132.96L700.93 133.01L700.04 133.04L697.94 133.06L694.29 133.08H693.17L691.13 133.06L690.14 133.05L688.37 133.01L686.66 132.96L684.02 132.78L682.83 132.69L681.2 132.41L680.51 132.26L679.86 131.88L679.65 131.67L679.31 131.25L679.16 131.01L678.95 130.34L678.87 129.95L678.81 128.76L678.8 128.07L678.91 126.08L678.94 125.52L679.06 124.2L679.12 123.5L679.28 121.89L679.36 121.05L679.57 119.11L679.69 118.1L679.95 115.8L680.09 114.6L680.41 111.9L680.57 110.5L680.95 107.38L681.15 105.76L681.58 102.17L682.31 96.2201L682.66 93.3101L683.3 88.2101L683.61 85.7701L684.17 81.5501L684.44 79.5401L684.93 76.1401L685.16 74.5301L685.59 71.8501L685.8 70.6001L686.19 68.5901L686.38 67.6501L686.73 66.2201L686.91 65.5701L687.25 64.6401L687.75 63.7201L688.17 63.2101L689.28 62.5001L689.66 62.3501L690.74 62.1001L691.35 61.9901L693.06 61.8101L694.01 61.7201L696.57 61.5801L697.27 61.5501L698.87 61.4901L699.7 61.4601L701.58 61.4101L702.56 61.3801L704.75 61.3301L705.89 61.3001L708.41 61.2501L709.72 61.2201L712.6 61.1701L717.37 61.0801L718.89 61.0501L721.71 61.0001L723.08 60.9701L725.6 60.9201L726.82 60.8901L729.06 60.8401L730.14 60.8101L732.12 60.7601L734.03 60.7001L737.15 60.5801L738.61 60.5101L740.93 60.3601L742.01 60.2801L743.67 60.1001L744.44 60.0001L745.61 59.7601L746.14 59.6301L746.96 59.3401L747.94 58.8201L748.32 58.5701M193.41 114.56L198.06 115.1L199.4 115.26L199.93 115.33L200.89 115.46L201.16 115.5L201.53 115.54L201.86 115.56L202.59 115.61L203.08 115.63L204.14 115.67L204.77 115.69L206.09 115.74L206.84 115.76L210.05 115.83L211.89 115.87L213.22 115.89L212.28 115.88L208.46 115.82L206.6 115.78L203.28 115.65L201.71 115.58L199.16 115.4L197.32 115.23L193.02 114.54L192.79 114.5M244.53 114.5L240.69 115.06L239.71 115.18L237.03 115.38L235.59 115.47L234.99 115.5L237.98 115.27L239.55 115.11L244.61 114.48M25.6 20.1001L27.16 20.1101L29.88 20.1501L31.18 20.1701L33.4 20.2301L34.45 20.2701L36.21 20.3601L37.03 20.4101L38.36 20.5301L38.97 20.5901L39.9 20.7401L40.32 20.8201L40.9 21.0101L41.41 21.3301L41.47 21.4201L41.68 22.0001L41.8 22.3501L42.09 23.4301L42.24 24.0301L42.6 25.5401L42.79 26.3501L43.21 28.2301L43.43 29.2201L43.89 31.4201L44.13 32.5601L44.62 35.0201L46.16 43.0801L46.67 45.9001L47.68 51.1501L47.92 52.4101L48.38 54.7601L48.61 55.9001L49.03 57.9601L49.23 58.9501L49.6 60.6701L49.77 61.4901L50.07 62.8001L50.21 63.4101L50.43 64.2601L50.65 64.9601L50.76 65.1701L50.95 65.4801L51.04 65.6001L51.22 65.6101L51.32 65.5601L51.54 65.0901L51.66 64.7701L51.97 63.6301L52.13 62.9601L52.57 60.9701L52.69 60.4101L52.96 59.1001L53.1 58.4201L53.42 56.8401L53.58 56.0101L53.96 54.1401L54.15 53.1601L54.58 50.9601L54.8 49.8301L55.3 47.2901L56.12 43.0801L56.62 40.5401L57.6 35.7201L58.08 33.3901L58.95 29.3501L59.15 28.4101L59.53 26.7601L59.71 25.9701L60.02 24.6601L60.17 24.0601L60.41 23.1601L60.68 22.3301L60.91 21.7801L61.51 21.0501L61.72 20.8901L62.32 20.6501L62.66 20.5401L63.63 20.3801L64.17 20.3101L65.63 20.2101L66.44 20.1701L68.52 20.1201L69.65 20.1001L72.47 20.0901L77.66 20.0801H79.63L82.87 20.0901H84.39L86.82 20.1201L87.95 20.1401L89.7 20.2101L90.5 20.2501L91.69 20.3801L92.23 20.4501L92.99 20.6501L93.32 20.7601L93.77 21.0501L94.53 22.3301L94.59 22.4801L94.78 23.2101L94.88 23.6301L95.16 24.8401L95.3 25.5001L95.65 27.1401L95.83 28.0101L96.24 30.0201L96.46 31.0601L96.91 33.3701L97.15 34.5501L97.64 37.1001L99.2 45.3301L99.73 48.1901L100.75 53.3301L101 54.5501L101.46 56.7901L101.69 57.8601L102.11 59.7701L102.32 60.6801L102.68 62.2001L102.85 62.9001L103.14 63.9901L103.28 64.4701L103.49 65.0601L103.7 65.3301L103.74 65.2801L103.92 64.7401L104.02 64.4101L104.29 63.3401L104.44 62.7501L104.8 61.2301L104.99 60.4101L105.43 58.4901L105.66 57.4801L106.15 55.2101L106.41 54.0401L106.95 51.4901L108.69 43.0801L109.29 40.1201L110.46 34.6701L110.75 33.3701L111.3 30.9501L111.57 29.7801L112.07 27.6801L112.32 26.6701L112.76 24.9401L112.97 24.1301L113.34 22.8301L113.52 22.2401L113.8 21.4301L114.1 20.8501L114.17 20.7901L114.7 20.7001L115.03 20.6501L116.02 20.5601L116.57 20.5101L117.97 20.4301L118.71 20.3901L120.47 20.3201L121.38 20.2901L123.43 20.2301L124.49 20.2001L126.78 20.1601L134.29 20.1001L136.05 20.0901L139.18 20.1101L140.68 20.1201L143.29 20.1501L144.54 20.1801L146.67 20.2401L147.68 20.2701L149.37 20.3601L150.16 20.4101L151.44 20.5301L152.03 20.5901L152.93 20.7501L153.34 20.8301L153.89 21.0101L154.38 21.3301L154.47 21.4401L154.43 22.3101L154.38 22.8601L154.08 24.6301L153.89 25.6301L153.31 28.3201L152.99 29.7801L152.14 33.3901L151.68 35.3201L150.54 39.8801L149.94 42.2901L148.52 47.8101L147.77 50.7001L146.06 57.2001L143.17 68.0801L130.99 113.58H88.28L83.08 92.7701L82.36 89.9101L81.02 84.6501L80.69 83.3901L80.08 81.0701L79.79 79.9401L79.25 77.9201L78.99 76.9501L78.54 75.3001L78.32 74.5201L77.97 73.2901L77.81 72.7301L77.57 71.9701L77.36 71.4501L77.33 71.4101L77.16 71.7501L77.06 71.9801L76.79 72.8101L76.64 73.2901L76.26 74.5601L76.07 75.2501L75.61 76.9101L75.37 77.7801L74.85 79.7801L74.57 80.8201L73.99 83.1001L72.11 90.7601L71.46 93.4801L70.2 98.5901L69.9 99.8201L69.32 102.12L69.03 103.24L68.51 105.27L68.25 106.25L67.79 107.96L67.58 108.76L67.2 110.09L67.03 110.69L66.76 111.57L66.48 112.33L66.28 112.73L65.39 113.27L65.09 113.39L64.21 113.58L63.72 113.67L62.37 113.8L61.62 113.86L59.68 113.94L58.62 113.98L55.95 114.03L54.52 114.05L51.01 114.07L44.68 114.08H41.81L36.53 114.02L35.27 114L32.94 113.95L31.82 113.92L29.79 113.86L28.83 113.83L27.17 113.75L26.4 113.71L25.17 113.62L24.61 113.58L23.87 113.48L23.56 113.43L23.35 113.33L23.31 113.25L23.16 112.84L23.07 112.6L22.84 111.88L22.72 111.49L22.42 110.49L22.27 109.96L21.91 108.69L21.53 107.37L20.61 104.01L20.12 102.22L19.01 98.0801L18.44 95.9301L17.19 91.1601L16.54 88.7201L15.19 83.5101L13.81 78.2101L10.94 66.9801L9.51001 61.3801L6.78 50.5201L6.13 47.9001L4.89999 42.9501L4.31 40.5401L3.23001 36.1401L2.72 34.0301L1.84 30.3601L1.44 28.6301L0.800018 25.8401L0.660004 25.2101L0.429993 24.1401L0.320007 23.6501L0.160004 22.8601L0.0899963 22.5001L0.019989 22.0201L0 21.6501L0.0599976 21.4801L0.320007 21.1901L0.480011 21.0601L1.01001 20.8301L1.31 20.7301L2.19 20.5601L2.67999 20.4801L4.01001 20.3601L4.73999 20.3001L6.61002 20.2201L7.63 20.1801L10.14 20.1301L11.48 20.1101L14.72 20.0901L20.51 20.0801H22.35M188.85 21.0701L188.56 21.6601L188.44 22.2001L188.22 23.4701L188.14 24.4601L188.05 25.5101L188.02 26.1501L187.95 27.4801L187.92 28.2701L187.87 29.9301L187.85 30.8901L187.8 32.9101L187.78 34.0701L187.75 36.4701L187.74 37.8401L187.71 40.6801L187.7 42.2701L187.69 45.5701L187.68 47.4101L187.67 51.2101V53.3101L187.66 57.6501V60.0301V64.9301V113.4L186.34 113.1L184.13 112.55L180.16 111.33L179.23 111.03L177.59 110.41L175.54 109.51L174.56 109.01L172.72 107.85L171.82 107.23L170.15 105.83L169.34 105.1L167.85 103.46L167.12 102.61L165.79 100.73L165.15 99.7601L163.99 97.6501L163.44 96.5601L162.45 94.2001L161.97 92.9901L161.15 90.4001L160.1 86.2201L159.9 85.2801L159.56 82.8101L159.4 81.5001L159.15 78.4701L159.03 76.9001L158.87 73.5101L158.8 71.7901L158.72 68.2401L158.7 66.4701L158.72 62.9901L158.74 61.2701L158.86 58.0601L158.93 56.5001L159.15 53.7701L159.59 50.4301L159.91 48.7701L160.71 45.6401L161.14 44.1101L162.16 41.2401L162.69 39.8401L163.93 37.2501L164.57 36.0001L166.01 33.6901L166.75 32.5801L168.38 30.5801L169.23 29.6201L171.05 27.9201L171.99 27.1201L173.99 25.7401L177.2 24.0601L178.13 23.6601L180.28 22.9301L181.41 22.5701L183.91 21.9101L185.2 21.6001L188 21.0201L189.18 20.8001M765.91 82.3301L765.54 82.4801L766.2 82.1701M770.27 79.9501L767.39 81.5601L766.44 82.0501L771.17 79.3401M774.09 77.2101L773.86 77.3801L774.15 77.1601M778.28 72.9901L777.35 74.1201L776.6 74.8401L778.36 72.8901M780.73 69.4701L780.02 70.6901L779.58 71.2801L780.01 70.6101L781.26 68.4801M754.61 38.5001L754.6 39.5501L754.5 43.0401L754.37 45.1401L754.27 46.0801L754.05 47.9101L753.91 48.7301L753.59 50.3101L753.4 51.0101L753.19 51.6101L753.31 51.1801L753.61 49.6501L753.75 48.8401L753.99 47.0001L754.28 43.8301L754.35 42.9201L754.46 41.3501L754.5 40.6001L754.56 39.3101L754.59 38.2901M720.55 0.0800781H723.66L729.99 0.16008L730.82 0.170074L730.74 0.180084L730.21 0.250076L729.21 0.420074L728.84 0.530075L728.16 0.760071L727.96 0.900085L727.66 1.20007V1.38008L727.73 1.86008L727.85 2.37007L727.94 2.71008L728.37 4.30008L728.69 5.36008L729.38 7.63008L729.8 8.94008L730.68 11.6501L731.16 13.0801L732.52 17.2601L733.31 19.8401L733.63 20.9501L734.21 23.0101L734.38 23.7601L734.54 24.4501L734.59 24.7001L734.66 25.1501V25.2801L734.86 26.1901L735.24 26.6101L735.61 26.7401L736.47 26.9601L737.14 27.0101L738.65 27.0801H739.69L743.26 27.2701L745.39 27.5901L746.33 27.8401L748.13 28.4201L748.91 28.8001L749.17 28.9501L748.39 28.6401L747.58 28.3701L745.5 27.9501L744.38 27.7701L741.52 27.5001L739.98 27.3901L736.16 27.2401L735.14 27.2101L732.88 27.1601L731.71 27.1401L729.14 27.1101L727.82 27.1001L724.93 27.0901L720.19 27.0801H718.25H714.75L713.06 27.0901L710.02 27.0801H708.56L705.96 27.0401L704.71 27.0201L702.52 26.9401L701.47 26.8901L699.64 26.7501L698.78 26.6701L697.3 26.4401L696.6 26.3201L695.44 25.9901L694.89 25.8201L694.01 25.3701L693.6 25.1301L692.97 24.5601L692.68 24.2501L692.27 23.5201L691.91 22.7401L691.72 20.6601L691.69 19.5201L691.98 16.5901L692.07 15.7901L692.29 14.0201L692.68 11.0801L692.86 9.66008L693.17 7.35008L693.34 6.28008L693.81 4.58008L694.08 3.80008L694.94 2.62007L695.44 2.08008L696.93 1.33008L697.77 1.00008L700.13 0.570084L700.78 0.480072L702.29 0.350082L703.08 0.290085L704.89 0.200073L705.84 0.170074L707.97 0.120071L709.08 0.110077L711.58 0.0900726L712.87 0.0800781H715.76M254.8 22.0301L257.51 22.9701L258.85 23.4801L261.34 24.6901L262.56 25.3201L264.81 26.7801L265.91 27.5401L267.09 28.5401L265.87 27.5201L264.76 26.7601L262.49 25.3001L261.26 24.6601L258.74 23.4401L257.39 22.9301L254.65 21.9901M785.06 21.2801L785.21 21.7501L784.73 20.5601M224.2 18.4301L227.86 18.5001L234.93 18.9201L238.4 19.1801L244.83 19.9901L246.38 20.2201L249.3 20.7501L252.29 21.4201L248.67 20.6401L245.21 20.0801L243.3 19.8401L239.38 19.3801L237.28 19.2001L233.03 18.8501L230.82 18.7301L223.56 18.4201M775.45 9.36008L776.93 10.4201L779.48 12.8001L780.68 14.0401L782.68 16.7801L783.61 18.1901L784.36 19.7801L783.96 19.0301L782.67 16.8101L781.91 15.7801L780.31 13.7401L779.39 12.8001L777.49 10.9701L776.44 10.1301L775.11 9.14008M772.37 7.34007L772.73 7.58008L771.95 7.14008M749.24 0.890076L751.33 1.10008L753.87 1.42007L758.55 2.33008L760.83 2.84007L762.09 3.23007L760.42 2.77008L756.77 2.02008L754.77 1.70007L748.4 0.830078L749.24 0.890076Z" fill="#7E298E"/>
<path d="M847.1 0.580002L846.66 0.860001V1.10001L846.87 2.02L847.21 3.25L847.48 4.15001L848.06 6.12L848.43 7.34L849.22 9.95L849.69 11.47L850.66 14.63L851.21 16.38L852.33 19.99L852.94 21.94L854.19 25.91L854.85 28.01L856.19 32.25L856.88 34.44L859.71 43.35L861.15 47.85L864.02 56.81L865.39 61.04L866.75 65.23L867.39 67.21L868.66 71.1L869.26 72.91L870.41 76.41L870.93 77.99L871.94 81.01L872.38 82.31L873.64 85.99L874.22 87.62L875.32 90.69L875.77 91.91L876.2 93.06L876.39 93.54L876.74 94.42L876.88 94.75L877.13 95.32L877.21 95.48L877.35 95.72L877.38 95.69L877.4 95.37L877.37 94.9L877.33 94.54L877.24 93.76L877.17 93.26L877.02 92.18L876.93 91.54L876.52 88.77L876.7 89.85L877.3 93.6L878.42 100.66L878.96 104.11L879.92 110.39L880.15 111.91L880.57 114.74L880.78 116.13L881.15 118.68L881.32 119.92L881.64 122.18L881.78 123.26L882.03 125.17L882.15 126.08L882.33 127.63L882.41 128.35L882.52 129.5L882.56 130.02L882.59 130.74L882.54 131.3L882.33 131.69L881.6 132.24L881.36 132.36L880.72 132.56L880.37 132.64L879.42 132.78L878.91 132.84L877.6 132.93L876.88 132.97L875.12 133.02L874.18 133.05L871.89 133.07L867.78 133.08H865.73L862.37 133.06L860.8 133.03L858.27 132.91L857.11 132.82L855.29 132.51L854.45 132.32L853.2 131.74L852.63 131.41L851.81 130.48L851.44 129.97L850.9 128.62L850.66 127.88L850.28 126.02L849.72 122.56L849.43 120.64L848.81 116.67L848.67 115.74L848.41 114.13L848.11 112.31L847.56 109.03L831.39 109.31L815.22 109.58L811.4 119.58L810.88 120.96L809.76 123.6L809.2 124.89L808.1 127.16L807.56 128.22L806.62 129.86L805.51 131.33L805.33 131.48L804.73 131.76L804.39 131.89L803.5 132.13L802.55 132.37L799.98 132.73L798.61 132.89L795.48 133.1L793.87 133.19L790.53 133.26L788.87 133.27L785.68 133.19L784.14 133.13L781.46 132.89L780.21 132.75L778.39 132.35L778.01 132.24L777.46 132L777.23 131.87L777.02 131.58L776.86 131.16L776.78 129.86L777.02 127.83L777.07 127.63L777.31 126.92L777.45 126.51L777.86 125.4L778.09 124.79L778.66 123.31L778.96 122.53L779.68 120.7L780.06 119.75L780.91 117.61L781.35 116.5L782.33 114.07L782.84 112.83L783.93 110.14L784.49 108.77L785.68 105.85L786.9 102.87L789.59 96.35L790.97 93L793.92 85.91L795.41 82.31L798.53 74.86L800.09 71.11L803.27 63.53L804.86 59.75L808.02 52.26L809.59 48.55L812.64 41.38L814.13 37.85L816.97 31.2L818.36 27.97L820.89 22.08L821.5 20.66L822.65 18.01L823.21 16.72L824.26 14.33L824.76 13.17L825.69 11.08L826.13 10.07L826.93 8.29001L827.31 7.45L827.96 6.02L828.27 5.35001L828.77 4.29001L829 3.81L829.33 3.16L829.63 2.66L830.11 2.18001L831.14 1.53L831.44 1.39L832.17 1.16L832.56 1.06L833.56 0.900009L834.1 0.830002L835.46 0.740005L836.2 0.690002L838.02 0.639999L838.99 0.610001L841.36 0.589996L845.64 0.580002H846.88M230.82 18.73L233.03 18.85L237.28 19.2L239.38 19.38L243.3 19.84L245.21 20.08L248.67 20.64L253.16 21.6L254.63 21.98L257.39 22.93L258.74 23.44L261.26 24.66L262.49 25.3L264.76 26.76L265.87 27.52L267.88 29.22L268.86 30.09L270.6 32.02L271.44 33.01L272.91 35.16L273.6 36.26L274.78 38.62L276.2 42.37L276.75 44.19L277.64 48.22L278.05 50.28L278.64 54.7L278.9 56.94L279.2 61.58L279.32 63.92L279.33 68.63L279.3 70.98L279.03 75.6L278.86 77.88L278.3 82.25L277.99 84.39L277.14 88.36L275.57 93.67L275.15 94.78L274.15 96.91L273.62 97.95L272.41 99.92L271.77 100.88L270.35 102.68L269.62 103.55L268.01 105.16L267.18 105.94L265.4 107.35L264.48 108.03L262.54 109.22L261.54 109.79L259.45 110.77L256.16 111.96L253.7 112.69L248.36 113.84L245.61 114.36L239.55 115.11L237.98 115.27L234.67 115.52L232.99 115.64L229.43 115.8L227.61 115.87L223.78 115.94H217.69L215.69 115.93L211.89 115.87L210.05 115.83L206.84 115.76L206.09 115.74L204.77 115.69L204.14 115.67L203.08 115.63L202.59 115.61L201.86 115.56L201.53 115.54L201.16 115.5L200.89 115.46L199.93 115.33L199.4 115.26L198.06 115.1L193.41 114.56L187.66 113.94V64.93V60.03V57.65L187.67 53.31V51.21L187.68 47.41L187.69 45.57L187.7 42.27L187.71 40.68L187.74 37.84L187.75 36.47L187.78 34.07L187.8 32.91L187.85 30.89L187.87 29.93L187.92 28.27L187.95 27.48L188.02 26.15L188.05 25.51L188.14 24.46L188.22 23.47L188.44 22.2L188.56 21.66L188.85 21.07L189.38 20.63L189.5 20.59L190.01 20.48L190.3 20.42L191.13 20.29L192.04 20.15L194.64 19.84L196.05 19.68L199.39 19.34L204.88 18.85L206.81 18.7L210.95 18.5L213.06 18.42L217.44 18.37L221.86 18.35M391.24 114.06L394.49 114.04L395.93 114.01L398.69 113.96L399.89 113.93L402.18 113.86L403.14 113.81L404.96 113.71L405.69 113.66L407.04 113.54L407.54 113.47L408.44 113.32L407.55 113.47L407.05 113.54L405.71 113.66L404.98 113.71L403.17 113.81L402.21 113.86L399.94 113.93L398.75 113.96L396 114.01L394.57 114.04L391.35 114.06L385.96 114.08H385.81M357.49 63.9L358.76 63.64L359.37 63.49L360.39 63.05L360.87 62.81L361.24 62.5L360.71 63.08L359.92 63.48L358.21 64.08H355.19L356.75 63.98M216.43 49.38L214.66 49.47L211.63 49.78L210.2 49.96L207.79 50.51L206.65 50.82L204.8 51.66L203.93 52.13L202.57 53.35L201.94 54.01L200.99 55.67L200.57 56.55L199.99 58.72L199.74 59.87L199.45 62.6L199.29 67.42L199.28 68.76L199.36 71.14L199.41 72.28L199.61 74.3L199.73 75.27L200.07 76.97L200.25 77.79L200.74 79.2L201 79.87L201.64 81.03L201.99 81.58L202.81 82.51L203.24 82.95L204.24 83.69L205.97 84.62L206.55 84.87L208.25 85.27L209.17 85.46L211.41 85.73L212.58 85.85L215.16 86L216.47 86.06L219.19 86.08L220.55 86.07L223.21 85.97L224.52 85.9L226.92 85.66L228.07 85.53L230.01 85.18L230.9 84.98L232.18 84.5L233.4 83.92L235.25 82.34L235.67 81.89L236.37 80.85L236.71 80.3L237.25 79.03L237.5 78.36L237.9 76.82L238.08 76.01L238.33 74.16L238.45 73.2L238.58 71.02L238.66 67.33V66.37L238.64 64.72L238.63 63.94L238.58 62.58L238.52 61.29L238.25 59.38L238.09 58.5L237.57 57.08L236.4 55.02L235.62 53.86L233.54 52.11L232.97 51.72L231.67 51.06L231 50.75L229.46 50.26L228.66 50.03L226.86 49.7L225.93 49.55L223.85 49.38L222.77 49.3L220.38 49.27M736.72 0.00999451L738.48 0.0500031L742.41 0.279999L746.43 0.570007L754.77 1.7L756.77 2.02L760.42 2.77L765.04 4.04001L766.51 4.54001L769.24 5.73L770.58 6.35001L773.05 7.75999L774.25 8.5L776.44 10.13L777.49 10.97L779.39 12.8L780.31 13.74L781.91 15.78L782.67 16.81L783.96 19.03L784.56 20.16L785.53 22.55L786.62 26.32L786.71 26.73L786.84 27.76L786.89 28.3L786.96 29.57L787.02 30.9L786.98 34.14L786.93 35.84L786.7 39.61L786.57 41.54L786.18 45.56L785.98 47.57L785.47 51.56L785.2 53.52L784.59 57.19L784.28 58.96L783.6 62.03L782.55 65.65L781.91 67.36L780.01 70.61L778.97 72.2L776.36 75.12L774.97 76.53L771.74 79.01L766.32 82.12L765.13 82.67L763.09 83.58L762.12 84.01L760.49 84.67L759.72 84.96L758.44 85.38L757.85 85.55L756.88 85.73L756.42 85.79L755.7 85.73L755.37 85.68L754.84 85.4L754.35 85.06L753.73 83.75L753.59 83.4L753.1 81.94L752.82 81.11L752.11 78.89L751.73 77.71L750.89 75.02L749.57 70.76L746.39 60.3L749.65 57.38L750.53 56.59L751.89 54.67L752.51 53.62L753.4 51.01L753.59 50.31L753.91 48.73L754.05 47.91L754.27 46.08L754.37 45.14L754.5 43.04L754.6 39.55L754.61 38.5L754.41 36.59L754.26 35.68L753.75 34.04L753.45 33.26L752.61 31.9L752.16 31.25L751 30.15L750.39 29.64L748.91 28.8L748.13 28.42L746.33 27.84L745.39 27.59L743.26 27.27L739.69 27.08H738.65L737.14 27.01L736.47 26.96L735.61 26.74L735.24 26.61L734.86 26.19L734.66 25.28V25.15L734.59 24.7L734.54 24.45L734.38 23.76L734.21 23.01L733.63 20.95L733.31 19.84L732.52 17.26L731.16 13.08L730.68 11.65L729.8 8.94L729.38 7.63L728.69 5.36L728.37 4.3L727.94 2.71001L727.85 2.37L727.73 1.86L727.66 1.38V1.2L727.96 0.900009L728.16 0.759995L728.84 0.529999L729.21 0.419998L730.21 0.25L730.74 0.180008L732.02 0.0800018L733.36 0M837.74 48.08L836.93 51.2L835.3 56.98L834.48 59.79L832.85 64.93L832.04 67.42L830.42 71.89L828.01 77.82L825.69 83.08H843.84L843.22 79.33L843.08 78.42L842.78 76.21L842.63 75.04L842.33 72.41L842.04 69.7L841.51 63.58L841.26 60.49L840.89 54.44L840.81 52.98L840.69 50.25L840.6 46.58L840.48 37.58M694.16 50.08H695.43L697.77 50.09L700.05 50.1L703.86 50.14L705.65 50.16L708.57 50.22L709.93 50.26L712.09 50.36L713.09 50.42L714.62 50.56L715.31 50.64L716.33 50.84L716.79 50.94L717.43 51.2L718.09 51.65L718.68 52.24L719.09 53.3L718.62 55.15L718.5 55.38L718.19 55.76L718.01 55.94L717.44 56.22L717.11 56.36L716.09 56.57L715.52 56.66L713.88 56.8L712.96 56.87L710.51 56.95L709.84 56.97L708.31 57L707.52 57.02L705.72 57.04L704.79 57.05L702.7 57.06H701.62L699.23 57.07L697.99 57.08H695.25H690.75H687.98H686.66L686.41 53.58L686.16 50.08H683.1H685.6H690.12H691.54M663.02 55.93L662.71 55.64L663.06 55.94M363.66 53.9V54.23L363.63 53.71M862.54 8.77L862.96 10.84L863.17 11.91L863.64 14.31L863.88 15.54L864.39 18.23L864.64 19.61L865.19 22.56L865.74 25.57L866.95 32.26L867.56 35.7L868.85 43.05L869.5 46.79L870.75 54.09L869.92 49.3L867.89 37.76L866.92 32.33L865.95 26.99L865.5 24.49L864.61 19.62L864.2 17.43L863.4 13.22L863.06 11.42L862.47 8.40001M663.05 51.5L663.06 51.48L663.24 51.29L663.3 51.25M722.34 41.21H723.16L724.59 41.23L725.96 41.26L727.96 41.35L728.86 41.41L730.1 41.58L730.63 41.68L731.3 41.94L731.58 42.08L731.88 42.44L732.17 43.11L732.36 43.7L732.55 44.68L732.6 45.14L732.38 45.88L732.2 46.22L731.37 46.76L730.87 47L729.26 47.37L728.34 47.53L725.77 47.75L725.05 47.8L723.41 47.88L722.55 47.91L720.6 47.97L719.59 47.99L717.31 48.03L716.12 48.04L713.49 48.06L712.13 48.07L709.12 48.08H704.16H701.44L696.78 48.07L694.57 48.06L692.03 48.03L692.96 48.02L695.48 47.93L696.5 47.86L698.37 47.71L698.97 47.62L699.52 47.53L699.69 47.48L699.98 47.38L700.01 47.32L700.18 45.98L700.09 44.56L699.95 43.79L699.48 41.36L703.85 41.31L705.55 41.3L708.64 41.27L710.14 41.26L712.85 41.23L714.15 41.22L716.5 41.21L717.64 41.2H719.65H720.62M677.01 46.91L676.7 46.63L677.05 46.93M718.27 31.31L719.66 31.33L722.24 31.36L723.49 31.37L725.8 31.4L728.03 31.43L731.74 31.51L733.49 31.55L736.3 31.64L737.61 31.69L739.66 31.81L740.61 31.88L742.02 32.04L742.66 32.13L743.56 32.34L743.96 32.45L744.48 32.72L744.96 33.19L745.24 33.64L745.49 34.81L745.35 36.44L745.28 36.63L744.99 36.93L744.8 37.08L744.17 37.32L743.8 37.43L742.68 37.6L742.05 37.68L740.3 37.81L739.33 37.87L736.8 37.95L735.42 37.98L731.95 38.03L731.02 38.04L728.96 38.05L727.89 38.06L725.55 38.07H724.34L721.69 38.08H717.36H713.6L706.68 38.03L705.23 38.01H705.51L708.11 37.92L709.2 37.86L711.2 37.72L711.86 37.63L712.46 37.54L712.66 37.49L712.97 37.38L713.01 37.32L713.18 35.98L713.1 34.58L712.95 33.82L712.46 31.27M688.61 35.69L688.7 36.17L688.99 37.08L688.7 36.16L688.61 35.68L688.69 35.08M395.23 28.15L397.6 30.83L395.22 28.15L395.14 28.08M377.78 20.57L379.72 20.8L380.65 20.92L382.3 21.21L383.09 21.36L384.5 21.69L385.86 22.05L388.05 22.94L389.08 23.43L390.91 24.63L393.65 26.8L389.23 23.87L387.53 23.07L386.59 22.72L384.64 22.05L383.57 21.76L381.34 21.21L380.1 20.97L377.77 20.57M859.47 1.27L860.83 1.85001L860.89 1.91L861.01 2.25L860.02 1.57001L858.97 1.17M354.16 104.58L360.17 110.98L351.25 102.33L349.59 100.71L346.14 97.43L344.42 95.8L341.16 92.76L339.59 91.31L336.9 88.86L336.28 88.31L335.22 87.37L333.92 86.26L328.71 81.94L328.16 113.58L310.1 113.85L307.62 113.89L303.03 113.9H300.84L297.14 113.84L296.29 113.82L294.83 113.77L294.14 113.75L293.04 113.68L292.54 113.65L291.86 113.57L291.57 113.53L291.35 113.44L291.32 113.41L291.28 113.12L291.26 112.94L291.21 112.35L291.19 112.02L291.14 111.14L291.12 110.67L291.08 109.51L291.04 108.3L290.96 105.11L290.93 103.41L290.86 99.34L290.83 97.21L290.78 92.4L290.75 89.91L290.71 84.47L290.7 81.68L290.67 75.75L290.66 66.43V20.12L293.13 19.5L293.21 19.48L293.6 19.44L293.82 19.42L294.47 19.38L295.18 19.35L297.35 19.29L298.54 19.27L301.58 19.23L303.2 19.21L307 19.2L308.98 19.19H313.42H315.7L320.66 19.21L323.19 19.22L328.54 19.26L336.88 19.34L339.77 19.37L345.05 19.43L347.61 19.47L352.27 19.54L354.53 19.57L354.66 19.58V46.04L357.41 46.7L359.53 47.45L358.32 47.15L357.35 46.96L354.85 46.69L353.51 46.57L350.16 46.41L344.06 46.24L328.66 45.9V63.97L332.91 64.4L333.49 64.47L335.03 64.55L335.83 64.58L337.64 64.6L343.06 64.46L343.87 64.41L345.77 64.31L346.75 64.27L348.79 64.19L349.81 64.16L351.76 64.11L352.7 64.09L354.31 64.08H354.74L354.16 104.58Z" fill="#8A278E"/>
<path d="M912.74 0.0900726L913.94 0.100082L915.92 0.140076L916.85 0.16008L918.34 0.240082L919.03 0.280075L920.13 0.420074L920.64 0.490082L921.44 0.690079L921.81 0.800079L922.42 1.09007L923.96 2.33008L924.17 2.55008L924.61 3.19008L924.82 3.55008L925.28 4.53008L925.51 5.06007L926.01 6.44008L926.27 7.18008L926.83 9.02008L927.12 10.0101L927.76 12.3801L928.09 13.6401L928.83 16.6101L929.22 18.1801L930.08 21.8101L931.53 28.0801L932.26 31.3101L933.64 37.3201L933.97 38.7701L934.59 41.4501L934.9 42.7601L935.44 45.1201L935.71 46.2501L936.17 48.2201L936.39 49.1401L936.74 50.6401L936.9 51.3301L937.14 52.3001L937.34 53.0801L937.41 53.3001L937.78 53.2001L937.99 53.0601L938.62 52.2901L938.96 51.8301L939.79 50.4701L941.2 47.8401L941.42 47.4101L942.02 46.2401L942.35 45.6101L943.14 44.1001L943.56 43.3001L944.52 41.4901L945.02 40.5501L946.12 38.5001L947.24 36.4001L949.75 31.7301L951.03 29.3501L953.68 24.4501L954.99 22.0201L957.53 17.3601L958.76 15.1001L960.95 11.1201L961.46 10.1901L962.38 8.53008L962.81 7.75008L963.56 6.42007L963.9 5.80008L964.44 4.85008L964.99 3.93008L965.46 3.17007L966.83 2.05008L967.22 1.80008L967.89 1.51007L966.12 2.76007L964.85 4.19008L964.39 4.98007L963.61 6.56007L963.49 7.28008L963.42 8.65009L963.73 9.13008L964.02 9.71008L964.29 10.3801L964.46 10.8301L964.83 11.8201L965.05 12.4201L965.5 13.6901L965.75 14.4101L966.82 17.5301L967.42 19.3401L968.65 23.0901L969.28 25.0801L971.11 30.7701L972.21 34.1601L972.67 35.5401L973.11 36.8601L973.3 37.4301L973.66 38.4801L973.8 38.8901L974.06 39.6401L974.15 39.8801L974.3 40.2801L974.33 40.3301L974.65 40.7201L974.85 40.8501L975.28 41.0601L975.47 41.0501L975.88 40.6401L976.36 39.9901L976.68 39.5001L977.39 38.4201L977.82 37.7401L977.98 37.4801L977.94 37.5401L973.4 45.3601L950.84 84.0701L947.9 107.04L947.49 110.26L946.65 116.17L946.44 117.59L946.03 120.22L945.83 121.49L945.44 123.79L945.26 124.9L944.9 126.81L944.73 127.71L944.42 129.16L944.27 129.83L944.01 130.77L943.69 131.55L943.57 131.68L943.07 131.93L942.78 132.05L941.95 132.27L941.05 132.48L938.49 132.79L937.11 132.93L933.87 133.11L932.21 133.19L928.69 133.23H926.92L923.5 133.14L921.83 133.07L918.89 132.84L917.51 132.7L915.42 132.33L914.97 132.23L914.3 132L914.01 131.88L913.69 131.61L913.57 131.47L913.38 130.99L913.3 130.72L913.21 129.94L913.17 129.51L913.16 128.36V127.73L913.25 126.14L913.3 125.28L913.48 123.19L913.58 122.07L913.86 119.41L914.01 117.99L914.39 114.69L915.08 108.94L917.7 87.7301L904.68 47.0701L903.78 44.2701L902.06 38.8501L901.22 36.1901L899.62 31.1101L898.85 28.6301L897.41 24.0101L896.72 21.7701L895.48 17.7201L894.89 15.7801L893.89 12.4301L893.42 10.8501L892.69 8.31007L892.36 7.15009L891.93 5.53008L891.84 5.19008L891.73 4.70007L891.66 4.28008V3.85008L891.82 3.11008L891.93 2.76007L892.36 2.17007L892.61 1.90009L893.37 1.44008L893.8 1.23007L894.94 0.890076L895.57 0.740082L897.17 0.500076L898.02 0.400085L900.13 0.250076L901.25 0.190079L903.92 0.120071L908.64 0.0800781H910.17M366.41 19.4701L368.25 19.5801L371.59 19.8501L373.21 19.9901L376.13 20.3401L377.55 20.5301L380.1 20.9701L381.34 21.2101L383.57 21.7601L384.64 22.0501L386.59 22.7201L387.53 23.0701L389.23 23.8701L393.66 26.8101L395.22 28.1501L397.6 30.8301L398.68 32.2001L400.21 35.2401L400.55 36.0401L401.1 37.7701L401.35 38.6701L401.74 40.6301L401.92 41.6401L402.18 43.8701L402.44 47.5801L402.5 49.0001V51.6401L402.47 52.9401L402.28 55.3401L402.16 56.5101L401.76 58.7101L401.53 59.7901L400.92 61.8201L400.26 63.8201L398.24 67.4401L394.08 72.6101L392.99 73.7301L390.44 75.8101L389.14 76.8101L386.43 78.5001L385.08 79.2701L382.57 80.3501L381.97 80.5701L380.87 80.8701L379.41 81.0601H378.93L378.17 81.3001L377.66 81.8501V81.9001L377.86 82.1701L377.99 82.3301L378.43 82.8001L378.92 83.3001L380.52 84.8001L381.41 85.6101L383.62 87.5601L387.41 90.7901L389 92.1201L392.02 94.7401L393.51 96.0401L396.29 98.5501L397.64 99.7901L400.11 102.12L401.3 103.26L403.4 105.35L404.39 106.36L406.04 108.15L406.81 109L407.96 110.42L408.47 111.08L409.05 112.06L409.22 112.98L409.16 113.07L408.72 113.24L408.44 113.32L407.54 113.47L407.04 113.54L405.69 113.66L404.96 113.71L403.14 113.81L402.18 113.86L399.89 113.93L398.69 113.96L395.93 114.01L394.49 114.04L391.24 114.06L385.81 114.08H363.08L354.16 104.58L354.74 64.0801H358.21L359.92 63.4801L360.71 63.0801L361.95 61.7401L362.5 60.9801L363.22 58.9501L363.66 55.2301V53.9001L363.35 51.8101L363.13 50.8501L362.31 49.3901L361.82 48.7201L360.38 47.7501L357.41 46.7001L354.66 46.0401V18.7901M444.88 20.0201L448.44 20.1001L449.28 20.1201L450.78 20.1901L451.5 20.2301L452.72 20.3201L453.3 20.3701L454.18 20.4801L455.08 20.6901L455.25 20.7501L455.55 21.0701L455.69 21.2801L455.91 21.9901L456.02 22.4101L456.19 23.6701L456.27 24.3801L456.39 26.3401L456.45 27.4201L456.53 30.2501L456.54 31.0101L456.57 32.7301L456.59 33.6301L456.61 35.6201L456.62 36.6501L456.63 38.9201L456.64 40.1001L456.65 42.6801V44.0201L456.66 46.9301V51.6901V82.0801H513.66V114.08H463.61L457.41 114.07L454.35 114.06L448.59 114.03L445.77 114.01L440.57 113.97L438.06 113.94L433.55 113.88L431.4 113.85L427.73 113.79L426 113.75L423.28 113.67L422.67 113.65L421.64 113.61L421.16 113.59L420.42 113.55L420.08 113.53L419.64 113.48L419.45 113.46L419.33 113.41L419.3 113.39L419.26 113.11L419.24 112.93L419.19 112.36L419.17 112.03L419.13 111.18L419.11 110.72L419.07 109.59L419.03 108.41L418.95 105.31L418.92 103.64L418.86 99.6801L418.83 97.6101L418.77 92.9201L418.75 90.4901L418.71 85.1901L418.7 82.4801L418.67 76.6901L418.66 67.6101V65.5001V61.5401L418.67 59.6001V55.9601L418.68 54.1901L418.69 50.8701L418.7 49.2601L418.72 46.2501L418.73 44.7901L418.76 42.0801L418.77 40.7701L418.8 38.3501L418.82 37.1801L418.86 35.0301L418.88 34.0001L418.92 32.1201L418.97 30.3101L419.09 27.4301L419.15 26.1101L419.29 24.1501L419.37 23.2801L419.55 22.1401L419.86 21.2801L419.94 21.2001L420.43 21.0501L420.73 20.9801L421.61 20.8401L422.09 20.7801L423.31 20.6501L423.96 20.5901L425.46 20.4901L427.02 20.3801L430.74 20.2201L432.66 20.1501L436.78 20.0601L438.84 20.0301L442.9 20.0201M851.6 0.0800781L853.3 0.190079L855.01 0.330078L858.18 0.960083L858.89 1.14008L860.02 1.57008L861.07 2.29008L861.11 2.34007L861.22 2.69008L861.28 2.91008L861.45 3.59007L861.54 3.96008L861.75 4.94008L861.87 5.46008L862.13 6.72008L862.4 8.04008L863.06 11.4201L863.4 13.2201L864.2 17.4301L864.61 19.6201L865.5 24.4901L865.95 26.9901L866.92 32.3301L867.89 37.7601L869.92 49.3001L870.92 55.0601L872.83 66.2301L873.29 68.9301L874.14 74.0201L874.56 76.5001L875.29 81.0101L875.65 83.1801L876.24 86.9401L876.51 88.7101L876.93 91.5401L877.02 92.1801L877.17 93.2601L877.24 93.7601L877.33 94.5401L877.37 94.9001L877.4 95.3701L877.38 95.6901L877.35 95.7201L877.21 95.4801L877.13 95.3201L876.88 94.7501L876.74 94.4201L876.39 93.5401L876.2 93.0601L875.77 91.9101L875.32 90.6901L874.22 87.6201L873.64 85.9901L872.38 82.3101L871.94 81.0101L870.93 77.9901L870.41 76.4101L869.26 72.9101L868.66 71.1001L867.39 67.2101L866.75 65.2301L865.39 61.0401L864.02 56.8101L861.15 47.8501L859.71 43.3501L856.88 34.4401L856.19 32.2501L854.85 28.0101L854.19 25.9101L852.94 21.9401L852.33 19.9901L851.21 16.3801L850.66 14.6301L849.69 11.4701L849.22 9.95007L848.43 7.34007L848.06 6.12007L847.48 4.15009L847.21 3.25008L846.87 2.02008L846.66 1.10008V0.860077L847.22 0.510071L847.57 0.360077L848.7 0.180084L849.32 0.100082L850.82 0.0800781M686.16 50.0801L686.41 53.5801L686.66 57.0801H674.2L672.29 57.0601L671.38 57.0501L669.79 57.0101L669.03 56.9801L667.74 56.9101L667.12 56.8701L666.09 56.7701L665.11 56.6601L663.84 56.3301L663.3 56.1401L662.71 55.6401L662.27 55.1101L662.03 54.0701L662.63 52.1401L662.88 51.6701L663.53 51.0201L663.93 50.7401L665.3 50.4001L665.72 50.3301L666.78 50.2301L667.36 50.1901L668.81 50.1401L669.59 50.1101L671.5 50.0901L674.95 50.0801M699.95 43.7901L700.09 44.5601L700.18 45.9801L700.01 47.3201L699.98 47.3801L699.69 47.4801L699.52 47.5301L698.97 47.6201L698.37 47.7101L696.5 47.8601L695.48 47.9301L692.96 48.0201L688.72 48.0801H687.69L685.88 48.0601L685.01 48.0501L683.5 48.0101L682.06 47.9601L679.97 47.7701L679.04 47.6601L677.81 47.3201L677.28 47.1301L676.7 46.6301L676.37 46.2301L675.95 45.0701L675.84 43.3801L675.92 42.9801L676.39 42.4201L676.56 42.2901L677.05 42.0901L677.33 41.9901L678.09 41.8401L678.5 41.7601L679.59 41.6501L680.18 41.5901L681.65 41.5101L682.44 41.4601L684.35 41.3901L687.8 41.3001L699.42 41.0201M712.95 33.8201L713.1 34.5801L713.18 35.9801L713.01 37.3201L712.97 37.3801L712.66 37.4901L712.46 37.5401L711.86 37.6301L711.2 37.7201L709.2 37.8601L708.11 37.9201L705.51 38.0101L704.16 38.0401L701.3 38.0601L699.87 38.0701L697.07 38.0401L695.72 38.0101L693.34 37.9201L692.23 37.8701L690.59 37.7101L690.24 37.6701L689.74 37.5801L689.53 37.5301L689.33 37.4101L688.99 37.0801L688.7 36.1701L688.61 35.6901L688.75 34.6401L688.88 34.1301L689.41 33.1801L690.59 32.1201L690.86 31.9701L692.13 31.7101L692.87 31.5901L694.88 31.3801L695.96 31.2901L698.46 31.1601L702.48 31.0801H712.43M996.47 4.71008L996.45 4.78008L996.3 5.11008L996.2 5.31007L995.9 5.89008L995.74 6.21008L995.3 7.04008L995.06 7.47008L994.49 8.52008L993.89 9.62007L993.52 10.2701L994.41 8.59007L994.79 7.84007L995.52 6.42007L995.79 5.85008L996.29 4.81007L996.43 4.45007L996.53 4.20007M995.86 1.91008L996.31 2.48007L996.49 2.78008L996.61 3.48007L996.6 3.58008L996.09 2.31007L995.51 1.67007M986.16 0.130081L987.41 0.170074L989.52 0.300079L990.52 0.380081L990.74 0.41008L989.95 0.350082L987.46 0.200073L986.06 0.16008L983.2 0.100082L981.73 0.110077L978.78 0.130081L977.37 0.180084L974.62 0.290085L973.41 0.380081L972.16 0.490082L972.88 0.400085L974.77 0.260071L975.77 0.190079L978.06 0.120071L982.02 0.0800781H983.53L986.16 0.130081Z" fill="#94258D"/>
<path d="M536.23 113.91L534.73 113.79L531.88 113.48L530.51 113.32L528.12 112.97L527.01 112.79L525.36 112.43L525 112.34L524.47 112.17L523.98 111.93L523.85 111.82L523.62 111.19L523.51 110.79L523.33 109.47L523.24 108.72L523.1 106.58L523.03 105.39L522.92 102.28L522.9 101.44L522.86 99.5496L522.83 98.5696L522.8 96.3896L522.78 95.2596L522.75 92.7696L522.74 91.4796L522.72 88.6696L522.71 87.2196L522.69 84.0596L522.68 82.4396L522.67 78.9196V77.1196L522.66 73.2196V66.9296V23.0296L525.07 22.1096L525.23 22.0496L526.1 21.9096L526.62 21.8296L528.13 21.6596L528.96 21.5796L531.04 21.3996L532.14 21.3096L534.69 21.1196L536.02 21.0196L538.98 20.8296L540.51 20.7296L543.79 20.5396L554.45 19.9996L558.08 19.8396L564.86 19.6096L568.17 19.5196L574.32 19.4396L577.32 19.4096L582.88 19.4896L585.59 19.5396L590.59 19.7796L593.03 19.9196L597.5 20.3396L599.68 20.5696L603.66 21.1796L605.59 21.4996L609.1 22.3096L610.81 22.7396L613.89 23.7496L615.38 24.2896L618.07 25.5296L619.36 26.1796L621.68 27.6596L622.8 28.4196L624.78 30.1496L625.73 31.0396L627.41 33.0196L628.22 34.0396L629.62 36.2896L630.3 37.4496L631.47 39.9796L632.02 41.2796L632.99 44.0996L634.23 48.6796L634.54 49.9996L634.98 52.7196L635.18 54.1196L635.41 57.2896L635.45 58.1296L635.5 59.9796L635.52 60.9296L635.53 63.0396V64.1296L635.49 66.5396L635.39 70.5796L635.33 72.6996L635.16 76.4496L635.06 78.2596L634.8 81.4396L634.66 82.9596L634.29 85.6596L634.09 86.9596L633.6 89.2696L633.33 90.3896L632.69 92.3996L632.35 93.3796L631.54 95.1796L628.35 100.26L627.55 101.31L625.9 103.17L625.05 104.06L623.24 105.64L622.31 106.4L620.29 107.73L619.24 108.37L616.92 109.49L615.72 110.02L613.04 110.95L611.65 111.4L608.54 112.17L606.93 112.54L603.32 113.2L597.26 114.07L596.67 114.15L595.18 114.28L594.39 114.34L592.54 114.46L591.58 114.51L589.42 114.61L588.31 114.65L585.89 114.73L583.41 114.8L577.86 114.88L575.01 114.91H568.99L565.96 114.9L559.85 114.83L556.81 114.79L550.97 114.64L548.12 114.55L542.92 114.33L541.67 114.27L539.37 114.14L538.25 114.07M592.08 81.7196L592.93 81.1696L594.26 79.4696L594.87 78.5096L595.72 76.0196L596.09 74.6696L596.47 71.3696L596.5 65.4996L596.45 64.6896L596.37 63.2996L596.32 62.6396L596.21 61.5096L596.09 60.4396L595.71 58.8896L595.49 58.1696L594.83 57.0296L593.37 55.3296L592.69 54.6496L591.53 53.7496L591.22 53.5496L590.47 53.2496L590.06 53.1096L589.04 52.8896L588.48 52.7896L587.04 52.6496L586.26 52.5796L584.28 52.4796L583.2 52.4296L580.54 52.3596L575.64 52.2396L560.66 51.8996V67.4296V82.9696L564.91 83.4096L566.01 83.5296L568.5 83.6696L569.78 83.7296L572.52 83.7696L575.28 83.7796L580.86 83.5296L582.21 83.4396L584.71 83.2196L585.92 83.0996L588.03 82.7996L589.01 82.6496L590.56 82.2996L591.25 82.1196M974.33 40.3296L974.3 40.2796L974.15 39.8796L974.06 39.6396L973.8 38.8896L973.66 38.4796L973.3 37.4296L973.11 36.8596L972.67 35.5396L972.21 34.1596L971.11 30.7696L969.28 25.0796L968.65 23.0896L967.42 19.3396L966.82 17.5296L965.75 14.4096L965.5 13.6896L965.05 12.4196L964.83 11.8196L964.46 10.8296L964.29 10.3796L964.02 9.70961L963.73 9.12961L963.42 8.64961L963.49 7.2796L963.61 6.5596L964.39 4.9796L964.85 4.18961L966.12 2.7596L968.37 1.1696L968.75 0.989609L970.27 0.70961L971.13 0.579605L973.41 0.379608L974.62 0.289612L977.37 0.179611L978.78 0.129608L981.73 0.109604L983.2 0.0996094L986.06 0.159607L987.46 0.1996L989.95 0.349609L991.13 0.429611L992.98 0.669601L994.73 1.1196L995.26 1.39961L996.09 2.3096L996.66 3.7296V3.8396L996.43 4.4496L996.29 4.8096L995.79 5.84961L995.52 6.4196L994.79 7.8396L994.41 8.5896L993.5 10.3196L992.54 12.1096L990.23 16.3196L989.03 18.4896L986.46 23.0496L985.17 25.3196L982.64 29.6896L982.02 30.7496L980.85 32.7296L980.28 33.6996L979.22 35.4496L978.72 36.2896L977.82 37.7396L977.39 38.4196L976.68 39.4996L976.36 39.9896L975.88 40.6396L975.47 41.0496L975.28 41.0596L974.85 40.8496L974.65 40.7196L974.33 40.3296Z" fill="#9F238D"/>
</svg>