<?xml version="1.0" encoding="UTF-8" standalone="no"?>
<!DOCTYPE svg PUBLIC "-//W3C//DTD SVG 1.1//EN" "http://www.w3.org/Graphics/SVG/1.1/DTD/svg11.dtd">
<svg xmlns="http://www.w3.org/2000/svg" version="1.1" viewBox="0.00 0.00 185.00 100.00">
<path fill="#1e2124" d="
  M 152.33 72.05
  C 148.06 81.23 139.09 87.73 128.71 87.22
  Q 128.25 87.19 128.25 86.73
  L 128.25 1.78
  A 0.45 0.44 -3.7 0 1 128.64 1.34
  C 153.96 -1.86 157.49 16.93 158.07 36.65
  C 158.42 48.50 157.16 61.64 152.33 72.05
  Z
  M 140.08 70.84
  C 144.55 64.89 145.98 57.99 145.99 50.47
  Q 146.01 39.48 145.96 28.50
  Q 145.92 20.41 140.14 14.86
  Q 139.75 14.49 139.75 15.02
  L 139.75 70.73
  Q 139.75 71.27 140.08 70.84
  Z"
/>
<path fill="#1e2124" d="
  M 119.39 76.92
  L 125.36 76.28
  A 0.35 0.35 0.0 0 1 125.75 76.63
  L 125.75 87.37
  A 0.35 0.35 0.0 0 1 125.45 87.71
  L 107.95 90.16
  A 0.35 0.35 0.0 0 1 107.55 89.82
  L 107.18 4.83
  A 0.35 0.35 0.0 0 1 107.48 4.48
  L 118.60 2.91
  A 0.35 0.35 0.0 0 1 119.00 3.25
  L 119.00 76.57
  A 0.35 0.35 0.0 0 0 119.39 76.92
  Z"
/>
<path fill="#1e2124" d="
  M 39.11 100.00
  L 38.03 100.00
  L 27.88 16.30
  Q 27.83 15.87 28.26 15.80
  L 38.53 14.33
  A 0.76 0.75 -5.6 0 1 39.39 15.03
  L 42.33 60.00
  Q 42.35 60.31 42.54 60.31
  L 42.55 60.31
  Q 42.77 60.31 42.80 60.01
  L 47.37 13.70
  Q 47.44 13.08 48.05 12.99
  L 56.68 11.74
  Q 57.19 11.66 57.23 12.18
  L 61.52 57.75
  Q 61.59 58.49 61.67 57.75
  C 63.33 42.22 64.13 26.51 65.29 10.92
  A 0.53 0.52 -2.1 0 1 65.74 10.44
  L 87.49 7.34
  A 0.46 0.45 81.6 0 1 88.00 7.72
  L 91.22 30.01
  Q 91.47 31.74 91.71 30.00
  L 94.93 6.98
  A 1.00 0.98 -89.5 0 1 95.77 6.14
  L 105.99 4.71
  A 0.40 0.39 -88.4 0 1 106.43 5.18
  Q 102.03 26.30 97.71 47.60
  Q 96.83 51.93 96.91 56.48
  Q 97.10 66.38 97.01 76.28
  C 96.97 80.60 97.45 86.22 97.20 91.23
  Q 97.17 91.67 96.73 91.74
  L 86.49 93.19
  Q 86.01 93.26 86.00 92.77
  Q 85.99 74.90 85.99 57.04
  Q 85.99 52.50 85.00 48.08
  Q 81.09 30.69 77.24 13.49
  Q 76.81 11.58 76.59 13.53
  L 67.27 95.36
  Q 67.20 95.92 66.64 96.00
  L 57.37 97.27
  Q 56.90 97.34 56.84 96.86
  L 52.19 55.51
  Q 52.16 55.25 52.00 55.25
  Q 51.96 55.25 51.91 55.27
  Q 51.84 55.30 51.84 55.32
  L 47.75 98.21
  Q 47.71 98.68 47.23 98.76
  L 39.11 100.00
  Z"
/>
</svg>
