<?xml version="1.0" encoding="UTF-8" standalone="no"?>
<!DOCTYPE svg PUBLIC "-//W3C//DTD SVG 1.1//EN" "http://www.w3.org/Graphics/SVG/1.1/DTD/svg11.dtd">
<svg xmlns="http://www.w3.org/2000/svg" version="1.1" viewBox="0.00 0.00 3212.00 651.00">
<g stroke-width="2.00" fill="none" stroke-linecap="butt">
<path stroke="#8096a9" vector-effect="non-scaling-stroke" d="
  M 2949.85 524.33
  Q 2950.11 522.88 2949.81 521.72
  Q 2949.63 521.03 2949.37 521.70
  L 2948.45 524.11"
/>
<path stroke="#cecdcd" vector-effect="non-scaling-stroke" d="
  M 506.79 340.52
  A 0.74 0.72 78.3 0 1 506.12 340.07
  Q 495.10 314.02 482.84 288.52
  Q 477.56 277.52 473.49 270.86
  C 442.95 220.84 388.06 187.08 332.00 173.24
  Q 310.96 168.04 290.50 167.30
  C 244.18 165.61 197.13 182.69 161.09 211.58
  C 136.81 231.05 118.94 257.19 109.20 286.91
  C 89.99 345.50 99.27 406.70 140.07 453.92
  C 168.19 486.46 216.00 503.57 257.74 491.45
  C 283.74 483.91 307.49 463.18 314.94 436.32
  Q 315.40 434.67 314.19 435.88
  C 289.21 460.68 252.55 471.00 218.91 459.14
  C 200.19 452.54 183.00 439.75 169.94 425.29
  C 147.13 400.02 138.64 363.18 142.49 329.99
  C 144.61 311.71 148.76 292.84 157.93 277.16
  C 174.15 249.41 202.77 228.55 232.52 217.55
  C 247.24 212.11 261.41 210.28 277.51 208.93
  C 344.64 203.33 404.44 236.67 437.88 294.11
  C 472.99 354.41 486.13 421.91 507.05 487.22
  Q 516.86 517.85 524.56 534.65
  C 529.70 545.85 540.10 552.06 552.29 552.94
  C 569.70 554.20 582.63 547.43 589.16 530.89
  Q 604.24 492.70 613.94 459.05
  C 630.59 401.29 644.95 342.28 676.48 290.28
  C 684.93 276.35 695.82 263.10 707.32 252.53
  Q 762.54 201.80 839.25 209.39
  Q 848.26 210.28 857.21 211.68
  C 888.28 216.55 918.24 234.59 939.48 257.27
  Q 957.07 276.05 964.60 303.40
  C 975.25 342.10 972.28 384.59 948.07 417.87
  C 941.81 426.47 933.10 434.66 924.69 441.43
  C 897.95 462.97 865.11 470.41 832.40 457.97
  Q 812.64 450.46 797.80 435.89
  Q 796.78 434.88 797.16 436.26
  Q 801.46 451.82 812.50 464.51
  C 855.32 513.75 931.74 499.34 970.99 454.85
  C 1014.95 405.01 1023.26 338.82 999.58 277.69
  C 970.88 203.58 884.72 159.45 807.50 168.29
  C 759.67 173.76 713.11 194.91 676.59 226.35
  Q 648.51 250.52 631.77 283.18
  C 622.39 301.50 614.14 320.82 606.04 339.81
  A 1.17 1.15 11.5 0 1 604.97 340.51
  L 506.79 340.52"
/>
<path stroke="#8096a9" vector-effect="non-scaling-stroke" d="
  M 2944.83 281.48
  C 2939.69 275.25 2931.05 273.73 2923.58 275.56
  C 2911.95 278.40 2907.36 288.78 2907.50 299.75
  Q 2907.98 337.11 2907.84 374.47
  C 2907.82 378.58 2908.25 383.36 2908.23 387.00
  Q 2908.05 425.58 2908.52 464.16
  C 2908.91 496.70 2949.59 494.88 2949.66 464.25
  Q 2949.83 382.84 2949.81 301.44
  C 2949.80 293.74 2949.21 286.79 2944.83 281.48"
/>
<path stroke="#8096a9" vector-effect="non-scaling-stroke" d="
  M 1500.27 381.89
  C 1480.10 394.20 1463.45 403.86 1463.33 430.75
  Q 1463.23 452.63 1463.41 474.50
  C 1463.48 481.88 1464.12 489.65 1467.70 495.27
  C 1471.74 501.60 1480.36 502.81 1487.26 501.43
  C 1498.53 499.18 1500.98 486.84 1500.98 476.50
  Q 1500.98 429.50 1500.97 382.28
  A 0.46 0.46 0.0 0 0 1500.27 381.89"
/>
<path stroke="#8096a9" vector-effect="non-scaling-stroke" d="
  M 1732.07 288.76
  Q 1729.27 295.01 1729.27 300.25
  Q 1729.25 383.75 1729.50 467.25
  C 1729.59 498.43 1770.63 497.27 1770.64 467.36
  Q 1770.66 383.18 1770.54 299.00
  C 1770.53 287.95 1764.51 277.97 1752.74 276.92
  Q 1737.96 275.60 1732.07 288.76"
/>
<path stroke="#8096a9" vector-effect="non-scaling-stroke" d="
  M 2640.02 333.73
  L 2678.30 333.47
  A 0.21 0.21 0.0 0 0 2678.51 333.25
  L 2678.17 284.24
  A 19.57 17.44 89.6 0 0 2660.59 264.79
  L 2656.77 264.81
  A 19.57 17.44 89.6 0 0 2639.47 284.51
  L 2639.81 333.52
  A 0.21 0.21 0.0 0 0 2640.02 333.73"
/>
</g>
<path fill="#9c9a9b" d="
  M 556.56 250.67
  A 1.45 1.41 8.8 0 0 557.40 250.07
  C 574.52 223.19 593.92 196.61 617.37 174.89
  C 632.19 161.15 646.65 148.63 665.19 136.76
  Q 726.59 97.48 799.28 89.66
  C 804.90 89.06 809.80 88.44 816.00 88.19
  C 824.36 87.86 832.36 87.05 842.56 88.11
  C 844.86 88.34 847.36 88.24 849.47 88.46
  C 918.79 95.71 984.93 125.87 1030.52 178.63
  C 1064.13 217.52 1086.18 268.13 1091.02 319.15
  C 1091.93 328.80 1092.14 338.39 1092.13 348.07
  Q 1092.12 350.94 1091.71 355.67
  C 1091.41 359.03 1091.41 362.74 1091.14 365.77
  Q 1088.24 398.59 1078.60 425.87
  Q 1072.21 443.96 1067.44 452.50
  C 1063.41 459.69 1059.65 467.98 1055.84 474.29
  C 1019.67 534.19 953.49 576.74 881.50 571.90
  Q 881.22 571.88 880.99 571.73
  Q 880.64 571.50 880.21 571.50
  Q 875.15 571.53 872.74 571.23
  C 812.57 563.74 756.95 524.28 739.84 464.37
  C 735.41 448.83 733.62 433.71 734.14 418.01
  C 735.24 384.54 749.63 354.15 772.64 330.19
  Q 772.99 329.83 772.99 330.33
  Q 772.98 334.55 772.99 338.75
  C 773.00 354.13 779.67 368.05 791.27 378.70
  C 808.40 394.42 831.98 397.45 853.76 390.98
  C 872.36 385.45 888.82 369.91 891.17 349.99
  C 892.50 338.76 891.59 326.23 885.42 315.05
  C 875.61 297.31 854.69 286.13 834.99 282.76
  C 808.68 278.27 785.15 287.87 765.42 304.57
  Q 758.37 310.54 751.73 319.07
  C 717.09 363.55 705.89 420.77 691.82 473.88
  C 686.47 494.08 680.02 514.11 672.69 533.66
  C 661.91 562.40 645.45 590.88 619.91 608.92
  C 598.87 623.79 571.24 632.65 545.28 629.45
  C 491.14 622.78 458.37 583.70 440.02 535.00
  Q 427.35 501.41 420.25 474.00
  C 412.90 445.65 405.68 415.80 396.65 389.28
  C 388.56 365.52 377.74 342.63 362.14 321.36
  C 344.16 296.85 313.52 278.54 282.27 282.07
  C 254.83 285.16 224.31 302.82 220.78 332.73
  Q 220.26 337.20 220.50 343.92
  C 221.19 362.74 229.52 375.35 245.30 385.11
  C 258.33 393.17 275.15 395.39 290.21 393.38
  C 316.90 389.81 338.98 365.95 339.19 338.74
  Q 339.23 334.51 339.05 330.26
  Q 339.02 329.58 339.48 330.09
  C 364.44 357.33 378.85 388.58 378.05 426.18
  C 377.71 441.93 374.72 458.15 369.62 472.65
  C 350.27 527.77 295.19 565.27 238.16 571.28
  C 236.00 571.51 232.99 571.73 230.45 571.90
  C 160.39 576.66 95.60 536.17 58.82 478.48
  C 53.68 470.42 48.97 460.58 44.22 451.52
  Q 40.72 444.84 36.68 434.48
  C 26.82 409.24 21.06 381.26 20.47 354.12
  C 20.45 353.48 19.98 353.07 19.98 352.50
  C 19.94 343.63 20.02 335.25 20.57 326.10
  Q 22.58 293.04 32.83 264.00
  C 44.32 231.48 62.07 199.31 85.17 174.43
  C 101.21 157.15 119.51 141.34 138.59 129.83
  Q 197.28 94.44 265.76 88.35
  C 278.86 87.19 290.20 87.84 301.23 88.60
  C 371.49 93.48 438.54 121.69 489.71 170.30
  C 498.27 178.43 505.11 184.65 514.09 195.15
  Q 536.16 220.96 554.33 249.66
  Q 555.19 251.01 556.56 250.67
  Z
  M 506.79 340.52
  A 0.74 0.72 78.3 0 1 506.12 340.07
  Q 495.10 314.02 482.84 288.52
  Q 477.56 277.52 473.49 270.86
  C 442.95 220.84 388.06 187.08 332.00 173.24
  Q 310.96 168.04 290.50 167.30
  C 244.18 165.61 197.13 182.69 161.09 211.58
  C 136.81 231.05 118.94 257.19 109.20 286.91
  C 89.99 345.50 99.27 406.70 140.07 453.92
  C 168.19 486.46 216.00 503.57 257.74 491.45
  C 283.74 483.91 307.49 463.18 314.94 436.32
  Q 315.40 434.67 314.19 435.88
  C 289.21 460.68 252.55 471.00 218.91 459.14
  C 200.19 452.54 183.00 439.75 169.94 425.29
  C 147.13 400.02 138.64 363.18 142.49 329.99
  C 144.61 311.71 148.76 292.84 157.93 277.16
  C 174.15 249.41 202.77 228.55 232.52 217.55
  C 247.24 212.11 261.41 210.28 277.51 208.93
  C 344.64 203.33 404.44 236.67 437.88 294.11
  C 472.99 354.41 486.13 421.91 507.05 487.22
  Q 516.86 517.85 524.56 534.65
  C 529.70 545.85 540.10 552.06 552.29 552.94
  C 569.70 554.20 582.63 547.43 589.16 530.89
  Q 604.24 492.70 613.94 459.05
  C 630.59 401.29 644.95 342.28 676.48 290.28
  C 684.93 276.35 695.82 263.10 707.32 252.53
  Q 762.54 201.80 839.25 209.39
  Q 848.26 210.28 857.21 211.68
  C 888.28 216.55 918.24 234.59 939.48 257.27
  Q 957.07 276.05 964.60 303.40
  C 975.25 342.10 972.28 384.59 948.07 417.87
  C 941.81 426.47 933.10 434.66 924.69 441.43
  C 897.95 462.97 865.11 470.41 832.40 457.97
  Q 812.64 450.46 797.80 435.89
  Q 796.78 434.88 797.16 436.26
  Q 801.46 451.82 812.50 464.51
  C 855.32 513.75 931.74 499.34 970.99 454.85
  C 1014.95 405.01 1023.26 338.82 999.58 277.69
  C 970.88 203.58 884.72 159.45 807.50 168.29
  C 759.67 173.76 713.11 194.91 676.59 226.35
  Q 648.51 250.52 631.77 283.18
  C 622.39 301.50 614.14 320.82 606.04 339.81
  A 1.17 1.15 11.5 0 1 604.97 340.51
  L 506.79 340.52
  Z"
/>
<path fill="#002c53" d="
  M 2162.06 395.84
  Q 2161.29 395.96 2160.82 396.79
  Q 2154.56 407.86 2148.62 418.51
  A 6.65 6.60 59.9 0 0 2147.77 421.76
  L 2147.77 553.76
  A 0.78 0.78 0.0 0 1 2146.99 554.54
  L 2046.52 554.54
  A 0.27 0.27 0.0 0 1 2046.25 554.27
  L 2046.25 100.01
  A 0.77 0.76 0.0 0 1 2047.02 99.25
  L 2147.01 99.24
  A 0.78 0.77 -0.0 0 1 2147.79 100.01
  L 2147.78 237.72
  A 0.73 0.73 0.0 0 0 2148.14 238.35
  Q 2148.98 238.83 2149.40 237.92
  Q 2181.02 168.91 2212.64 99.96
  A 1.25 1.23 12.2 0 1 2213.77 99.24
  L 2312.78 99.24
  A 0.54 0.54 0.0 0 1 2313.26 100.02
  L 2221.13 289.68
  A 2.97 2.95 47.7 0 0 2221.03 292.01
  L 2321.25 553.76
  A 0.57 0.57 0.0 0 1 2320.72 554.54
  L 2221.73 554.55
  A 1.29 1.28 79.8 0 1 2220.53 553.71
  L 2162.45 396.06
  A 0.35 0.35 0.0 0 0 2162.06 395.84
  Z"
/>
<rect fill="#002c53" x="3082.74" y="99.73" width="89.86" height="72.26" rx="0.49"/>
<path fill="#002c53" d="
  M 1255.42 224.87
  L 1287.71 100.30
  A 0.50 0.50 0.0 0 1 1288.19 99.93
  L 1394.69 99.93
  A 0.60 0.60 0.0 0 1 1395.26 100.73
  L 1306.03 356.75
  A 9.16 9.04 -35.7 0 0 1305.52 359.75
  L 1305.52 553.74
  Q 1305.52 554.76 1304.51 554.76
  L 1204.98 554.76
  A 0.78 0.78 0.0 0 1 1204.20 553.98
  Q 1204.22 457.59 1204.18 361.22
  Q 1204.18 358.11 1203.16 355.18
  Q 1159.16 227.91 1115.14 100.49
  A 0.42 0.42 0.0 0 1 1115.54 99.93
  L 1222.17 99.93
  Q 1222.70 99.93 1222.84 100.45
  L 1254.38 224.87
  A 0.54 0.54 0.0 0 0 1255.42 224.87
  Z"
/>
<path fill="#002c53" d="
  M 2949.85 524.33
  Q 2950.11 522.88 2949.81 521.72
  Q 2949.63 521.03 2949.37 521.70
  L 2948.45 524.11
  Q 2940.62 544.54 2920.87 553.81
  C 2905.16 561.19 2885.79 563.46 2868.75 561.32
  C 2821.59 555.39 2812.98 510.06 2812.98 471.32
  Q 2812.97 386.79 2812.98 302.25
  C 2812.98 260.12 2821.24 206.94 2874.00 201.93
  C 2899.80 199.48 2932.25 208.36 2948.20 230.57
  Q 2949.94 233.00 2949.94 230.01
  L 2949.91 100.26
  A 0.34 0.33 90.0 0 1 2950.24 99.92
  L 3038.98 99.93
  Q 3039.78 99.93 3039.78 100.73
  L 3039.78 553.74
  A 1.02 1.02 0.0 0 1 3038.76 554.76
  L 2950.52 554.75
  A 0.57 0.56 -0.5 0 1 2949.95 554.20
  L 2949.85 524.33
  Z
  M 2944.83 281.48
  C 2939.69 275.25 2931.05 273.73 2923.58 275.56
  C 2911.95 278.40 2907.36 288.78 2907.50 299.75
  Q 2907.98 337.11 2907.84 374.47
  C 2907.82 378.58 2908.25 383.36 2908.23 387.00
  Q 2908.05 425.58 2908.52 464.16
  C 2908.91 496.70 2949.59 494.88 2949.66 464.25
  Q 2949.83 382.84 2949.81 301.44
  C 2949.80 293.74 2949.21 286.79 2944.83 281.48
  Z"
/>
<path fill="#ffffff" d="
  M 506.79 340.52
  L 604.97 340.51
  A 1.17 1.15 11.5 0 0 606.04 339.81
  C 614.14 320.82 622.39 301.50 631.77 283.18
  Q 648.51 250.52 676.59 226.35
  C 713.11 194.91 759.67 173.76 807.50 168.29
  C 884.72 159.45 970.88 203.58 999.58 277.69
  C 1023.26 338.82 1014.95 405.01 970.99 454.85
  C 931.74 499.34 855.32 513.75 812.50 464.51
  Q 801.46 451.82 797.16 436.26
  Q 796.78 434.88 797.80 435.89
  Q 812.64 450.46 832.40 457.97
  C 865.11 470.41 897.95 462.97 924.69 441.43
  C 933.10 434.66 941.81 426.47 948.07 417.87
  C 972.28 384.59 975.25 342.10 964.60 303.40
  Q 957.07 276.05 939.48 257.27
  C 918.24 234.59 888.28 216.55 857.21 211.68
  Q 848.26 210.28 839.25 209.39
  Q 762.54 201.80 707.32 252.53
  C 695.82 263.10 684.93 276.35 676.48 290.28
  C 644.95 342.28 630.59 401.29 613.94 459.05
  Q 604.24 492.70 589.16 530.89
  C 582.63 547.43 569.70 554.20 552.29 552.94
  C 540.10 552.06 529.70 545.85 524.56 534.65
  Q 516.86 517.85 507.05 487.22
  C 486.13 421.91 472.99 354.41 437.88 294.11
  C 404.44 236.67 344.64 203.33 277.51 208.93
  C 261.41 210.28 247.24 212.11 232.52 217.55
  C 202.77 228.55 174.15 249.41 157.93 277.16
  C 148.76 292.84 144.61 311.71 142.49 329.99
  C 138.64 363.18 147.13 400.02 169.94 425.29
  C 183.00 439.75 200.19 452.54 218.91 459.14
  C 252.55 471.00 289.21 460.68 314.19 435.88
  Q 315.40 434.67 314.94 436.32
  C 307.49 463.18 283.74 483.91 257.74 491.45
  C 216.00 503.57 168.19 486.46 140.07 453.92
  C 99.27 406.70 89.99 345.50 109.20 286.91
  C 118.94 257.19 136.81 231.05 161.09 211.58
  C 197.13 182.69 244.18 165.61 290.50 167.30
  Q 310.96 168.04 332.00 173.24
  C 388.06 187.08 442.95 220.84 473.49 270.86
  Q 477.56 277.52 482.84 288.52
  Q 495.10 314.02 506.12 340.07
  A 0.74 0.72 78.3 0 0 506.79 340.52
  Z"
/>
<path fill="#002c53" d="
  M 1501.29 538.66
  Q 1500.82 538.77 1500.32 539.32
  C 1481.88 559.41 1457.19 564.38 1430.74 563.50
  C 1390.68 562.16 1369.33 523.64 1370.39 487.63
  C 1370.95 468.44 1370.84 449.20 1371.01 430.00
  Q 1371.03 427.71 1372.13 418.77
  C 1377.84 372.44 1421.32 358.87 1457.31 343.82
  C 1478.21 335.08 1499.90 322.69 1502.29 297.65
  Q 1502.66 293.75 1502.59 288.34
  C 1502.48 279.84 1501.97 269.95 1492.89 266.08
  Q 1488.11 264.04 1482.17 264.72
  C 1468.20 266.31 1463.53 277.10 1463.41 289.78
  Q 1463.26 305.15 1463.29 320.50
  A 0.55 0.55 0.0 0 1 1462.74 321.05
  L 1371.53 321.06
  A 0.55 0.54 0.0 0 1 1370.98 320.52
  C 1370.97 309.69 1370.48 298.42 1371.31 287.57
  C 1371.60 283.86 1371.81 279.98 1372.41 276.48
  C 1384.15 208.78 1462.66 193.83 1518.51 204.79
  C 1542.51 209.50 1565.38 221.14 1580.23 241.11
  Q 1596.32 262.77 1596.32 289.75
  Q 1596.31 421.85 1596.32 553.95
  A 0.81 0.81 0.0 0 1 1595.51 554.76
  L 1506.49 554.76
  Q 1505.70 554.76 1505.53 553.99
  L 1502.24 539.25
  A 0.78 0.78 0.0 0 0 1501.29 538.66
  Z
  M 1500.27 381.89
  C 1480.10 394.20 1463.45 403.86 1463.33 430.75
  Q 1463.23 452.63 1463.41 474.50
  C 1463.48 481.88 1464.12 489.65 1467.70 495.27
  C 1471.74 501.60 1480.36 502.81 1487.26 501.43
  C 1498.53 499.18 1500.98 486.84 1500.98 476.50
  Q 1500.98 429.50 1500.97 382.28
  A 0.46 0.46 0.0 0 0 1500.27 381.89
  Z"
/>
<path fill="#002c53" d="
  M 2430.39 245.51
  A 0.65 0.64 -78.1 0 0 2430.80 245.24
  C 2441.10 230.27 2455.38 216.88 2471.97 209.50
  C 2486.36 203.09 2502.16 201.21 2517.78 201.53
  Q 2518.50 201.54 2518.50 202.27
  L 2518.50 302.53
  A 0.63 0.63 0.0 0 1 2517.69 303.13
  C 2492.32 295.57 2456.57 298.24 2442.08 324.33
  C 2437.21 333.09 2436.50 342.48 2436.50 353.80
  Q 2436.49 453.75 2436.49 553.78
  A 0.98 0.97 -90.0 0 1 2435.52 554.76
  L 2347.41 554.75
  A 0.84 0.84 0.0 0 1 2346.57 553.91
  L 2346.56 210.57
  A 0.37 0.37 0.0 0 1 2346.93 210.20
  L 2429.48 210.20
  A 0.57 0.56 0.5 0 1 2430.05 210.77
  Q 2429.73 227.48 2429.48 244.25
  Q 2429.46 245.68 2430.39 245.51
  Z"
/>
<path fill="#002c53" d="
  M 1730.22 533.09
  Q 1730.14 533.11 1730.14 533.50
  Q 1730.04 585.54 1730.03 637.52
  A 0.31 0.31 0.0 0 1 1729.72 637.83
  L 1641.01 637.83
  Q 1640.19 637.83 1640.19 637.01
  L 1640.18 210.20
  Q 1640.18 209.28 1641.09 209.28
  L 1729.53 209.28
  A 0.59 0.59 0.0 0 1 1730.12 209.92
  C 1729.40 220.66 1729.70 231.51 1729.17 242.25
  Q 1729.14 242.86 1729.83 242.91
  A 0.89 0.89 0.0 0 0 1730.68 242.44
  C 1739.73 225.91 1752.52 211.96 1771.24 206.07
  Q 1787.07 201.09 1807.24 202.62
  C 1855.42 206.27 1867.01 257.74 1867.01 296.35
  Q 1867.02 381.05 1866.96 465.75
  C 1866.95 467.85 1866.57 470.01 1866.56 471.96
  C 1866.51 493.94 1863.75 521.41 1850.28 539.78
  C 1834.54 561.24 1808.07 564.39 1783.41 562.05
  C 1761.77 560.01 1744.63 551.80 1731.72 533.60
  A 1.36 1.34 63.5 0 0 1730.22 533.09
  Z
  M 1732.07 288.76
  Q 1729.27 295.01 1729.27 300.25
  Q 1729.25 383.75 1729.50 467.25
  C 1729.59 498.43 1770.63 497.27 1770.64 467.36
  Q 1770.66 383.18 1770.54 299.00
  C 1770.53 287.95 1764.51 277.97 1752.74 276.92
  Q 1737.96 275.60 1732.07 288.76
  Z"
/>
<path fill="#002c53" d="
  M 2640.53 397.70
  Q 2640.40 438.91 2640.52 480.37
  C 2640.53 486.41 2641.25 491.99 2644.90 496.09
  C 2650.24 502.10 2660.36 503.40 2667.67 500.90
  C 2677.18 497.64 2679.75 488.50 2679.74 479.17
  Q 2679.72 454.30 2679.77 429.55
  A 0.46 0.46 0.0 0 1 2680.23 429.10
  L 2771.53 429.09
  Q 2772.63 429.09 2772.64 430.19
  C 2772.67 451.83 2774.00 474.37 2769.57 494.71
  C 2756.77 553.45 2697.97 566.15 2646.76 563.11
  C 2596.90 560.16 2552.23 531.72 2547.92 477.76
  C 2547.71 475.05 2547.32 472.40 2547.32 469.73
  Q 2547.33 386.25 2547.32 302.77
  C 2547.32 299.11 2547.81 295.46 2548.10 291.76
  C 2553.99 215.74 2623.40 196.11 2687.25 205.06
  C 2734.56 211.70 2766.80 240.36 2771.45 289.01
  C 2771.87 293.46 2772.54 297.94 2772.56 302.35
  Q 2772.71 349.02 2772.61 395.95
  A 0.83 0.83 0.0 0 1 2771.78 396.78
  L 2641.46 396.77
  A 0.93 0.93 0.0 0 0 2640.53 397.70
  Z
  M 2640.02 333.73
  L 2678.30 333.47
  A 0.21 0.21 0.0 0 0 2678.51 333.25
  L 2678.17 284.24
  A 19.57 17.44 89.6 0 0 2660.59 264.79
  L 2656.77 264.81
  A 19.57 17.44 89.6 0 0 2639.47 284.51
  L 2639.81 333.52
  A 0.21 0.21 0.0 0 0 2640.02 333.73
  Z"
/>
<rect fill="#002c53" x="1910.21" y="210.20" width="89.82" height="344.56" rx="0.55"/>
<path fill="#002c53" d="
  M 3172.60 211.32
  L 3172.60 554.89
  A 0.54 0.54 0.0 0 1 3172.06 555.43
  L 3083.27 555.42
  A 0.54 0.54 0.0 0 1 3082.73 554.88
  L 3082.73 211.32
  A 0.54 0.54 0.0 0 1 3083.27 210.78
  L 3172.06 210.78
  A 0.54 0.54 0.0 0 1 3172.60 211.32
  Z"
/>
<path fill="#ffffff" d="
  M 2640.02 333.73
  A 0.21 0.21 0.0 0 1 2639.81 333.52
  L 2639.47 284.51
  A 19.57 17.44 89.6 0 1 2656.77 264.81
  L 2660.59 264.79
  A 19.57 17.44 89.6 0 1 2678.17 284.24
  L 2678.51 333.25
  A 0.21 0.21 0.0 0 1 2678.30 333.47
  L 2640.02 333.73
  Z"
/>
<path fill="#ffffff" d="
  M 2923.58 275.56
  C 2931.05 273.73 2939.69 275.25 2944.83 281.48
  C 2949.21 286.79 2949.80 293.74 2949.81 301.44
  Q 2949.83 382.84 2949.66 464.25
  C 2949.59 494.88 2908.91 496.70 2908.52 464.16
  Q 2908.05 425.58 2908.23 387.00
  C 2908.25 383.36 2907.82 378.58 2907.84 374.47
  Q 2907.98 337.11 2907.50 299.75
  C 2907.36 288.78 2911.95 278.40 2923.58 275.56
  Z"
/>
<path fill="#ffffff" d="
  M 1732.07 288.76
  Q 1737.96 275.60 1752.74 276.92
  C 1764.51 277.97 1770.53 287.95 1770.54 299.00
  Q 1770.66 383.18 1770.64 467.36
  C 1770.63 497.27 1729.59 498.43 1729.50 467.25
  Q 1729.25 383.75 1729.27 300.25
  Q 1729.27 295.01 1732.07 288.76
  Z"
/>
<path fill="#ffffff" d="
  M 1463.33 430.75
  C 1463.45 403.86 1480.10 394.20 1500.27 381.89
  A 0.46 0.46 0.0 0 1 1500.97 382.28
  Q 1500.98 429.50 1500.98 476.50
  C 1500.98 486.84 1498.53 499.18 1487.26 501.43
  C 1480.36 502.81 1471.74 501.60 1467.70 495.27
  C 1464.12 489.65 1463.48 481.88 1463.41 474.50
  Q 1463.23 452.63 1463.33 430.75
  Z"
/>
<path fill="#ffffff" d="
  M 2949.85 524.33
  Q 2949.00 524.34 2948.45 524.11
  L 2949.37 521.70
  Q 2949.63 521.03 2949.81 521.72
  Q 2950.11 522.88 2949.85 524.33
  Z"
/>
</svg>
