<?xml version="1.0" encoding="utf-8" ?>
<svg xmlns="http://www.w3.org/2000/svg" xmlns:xlink="http://www.w3.org/1999/xlink" width="1963" height="777">
	<path fill="#EE1C24" d="M346.913 309.311C352.348 281.824 356.446 253.862 360.952 226.2C363.083 213.12 364.417 198.989 368.15 186.284C370.03 179.89 372.862 173.868 376.832 168.5C386.358 155.62 399.217 149.233 414.78 146.863C415.009 146.835 415.239 146.804 415.469 146.781C437.747 144.554 463.989 146.295 486.678 146.308C546.611 146.341 603.355 140.097 653.623 180.565C675.314 198.027 689.919 220.471 699.534 246.462C701.319 251.286 703.992 257.132 704.42 262.249C704.54 263.679 704.654 264.955 703.632 266.052C701.507 268.334 697.679 268.78 694.74 269.069C683.669 270.158 671.592 269.079 660.42 269.05L584.232 268.9C570.102 268.878 555.528 268.099 541.461 269.314C525.354 270.706 509.73 277.892 499.3 290.431C490.65 300.832 487.045 313.44 488.298 326.836C489.288 337.422 494.053 345.026 502.409 351.439C515.084 361.166 544.642 370.359 560.936 376.772L644.57 409.864C652.785 413.122 667.282 416.994 673.708 422.802C674.377 423.407 674.822 423.999 674.811 424.897C674.707 433.324 638.811 491.833 631.9 498.532C623.772 506.41 613.883 511.571 602.841 513.995C586.641 517.553 567.682 515.779 551.073 515.728C527.842 515.656 504.539 516.075 481.32 515.632C468.343 515.385 455.379 514.31 442.406 514.106C438.758 514.049 432.888 513.651 430.123 516.321L430.531 518.034C434.424 521.61 440.49 522.953 445.458 524.564C454.475 527.761 463.644 530.272 472.864 532.804C470.833 540.644 470.247 549.025 468.68 556.999Q468.312 558.969 467.859 560.921Q467.405 562.873 466.865 564.803Q466.326 566.734 465.702 568.638Q465.078 570.543 464.37 572.418Q463.663 574.293 462.874 576.136Q462.085 577.978 461.215 579.784Q460.346 581.59 459.398 583.355Q458.449 585.121 457.424 586.844Q456.399 588.566 455.299 590.242Q454.199 591.917 453.027 593.543Q451.854 595.168 450.611 596.741Q449.368 598.313 448.056 599.829Q446.745 601.345 445.369 602.802Q443.992 604.259 442.552 605.654Q441.113 607.049 439.613 608.38Q438.114 609.71 436.557 610.973C415.551 628.101 390.412 633.163 363.787 630.38C347.081 628.634 332.086 621.329 321.493 608.118C307.946 591.224 306.482 571.603 308.733 550.901L224.956 550.929C211.699 550.934 197.071 552.219 184 550.438C180.812 550.003 178.147 549.119 175.741 546.903C172.366 543.796 171.045 539.238 170.96 534.77C170.85 528.957 173.155 523.683 177.201 519.543C180.608 516.056 184.684 513.986 189.458 513.112C202.542 510.716 217.912 512.246 231.307 512.26L315.008 512.383C316.818 493.828 320.608 474.99 323.431 456.536L340.021 347.794C321.982 347.561 284.437 350.072 269 347.347C264.951 346.632 260.663 345.015 257.628 342.16C254.621 339.332 253.119 335.708 253.076 331.601C253.018 326.057 254.932 320.59 258.9 316.648C262.583 312.99 267.557 310.76 272.615 309.8C281.199 308.17 290.963 309.072 299.722 309.103L346.913 309.311Z"/>
	<path fill="#EE1C24" d="M227.45 265.305C223.503 262.771 220.099 260.013 218.341 255.532C216.491 250.816 216.691 245.785 218.802 241.191C222.345 233.483 228.512 230.145 235.998 227.275C251.173 227.157 295.593 224.471 306.711 229.635C310.477 231.384 313.727 234.229 315.15 238.219C316.825 242.915 315.441 248.568 313.402 252.923C310.066 260.047 304.566 262.94 297.571 265.539C276.083 266.75 248.93 266.624 227.45 265.305Z"/>
	<path fill="#EE1C24" d="M677.484 400.615C677.157 400.638 676.828 400.66 676.5 400.662C676.314 400.663 676.128 400.658 675.943 400.66C667.774 400.734 534.073 347.513 519.452 340.77C513.246 337.908 508.086 333.388 505.756 326.766C503.323 319.851 504.594 311.948 507.837 305.504C512.915 295.417 521.29 290.059 531.712 286.582C541.231 285.797 551.134 286.286 560.693 286.278L615.66 286.337L664.918 286.378C674.315 286.314 683.967 285.617 693.34 286.224C696.631 286.437 699.603 286.902 702.402 288.765C703.782 292.896 703.32 298.036 702.877 302.322C701.108 319.415 696.78 336.878 693.59 353.787C691.265 366.106 689.82 379.68 686.24 391.632C684.781 396.502 681.679 398.32 677.484 400.615ZM535.442 302.585C530.981 304.638 527.353 306.507 525.549 311.423C524.438 314.45 524.413 317.829 525.836 320.761C527.427 324.039 530.308 326.236 533.724 327.354Q536.066 328.14 538.526 328.358C542.946 326.402 546.453 324.382 548.273 319.668C549.398 316.754 549.553 313.373 548.262 310.487C546.751 307.111 543.986 304.954 540.547 303.775C538.867 303.198 537.22 302.706 535.442 302.585Z"/>
	<path fill="#EE1C24" d="M964.394 329.486C963.096 329.611 961.732 329.741 960.431 329.588C957.501 329.245 954.498 327.562 952.803 325.135C951.103 322.699 950.839 319.234 951.393 316.388C952.212 312.177 954.432 310.357 957.852 308.017C961.383 307.471 964.391 306.976 967.672 308.677Q968.217 308.956 968.731 309.288Q969.246 309.62 969.724 310.003Q970.201 310.386 970.638 310.815Q971.075 311.244 971.465 311.716Q971.856 312.187 972.197 312.695Q972.538 313.204 972.826 313.744Q973.114 314.284 973.345 314.851Q973.576 315.418 973.749 316.005C974.503 318.655 974.154 321.677 972.759 324.06C970.825 327.365 967.973 328.637 964.394 329.486Z"/>
	<path fill="#EE1C24" d="M812.682 327.74C812.745 327.662 812.812 327.588 812.87 327.506C815.232 324.188 816.656 316.772 815.965 312.795C826.866 311.059 839.754 312.238 850.803 312.239L922.801 312.281C922.924 312.64 922.968 312.726 923.038 313.069C923.846 317.011 922.198 321.802 920.1 325.104C920.068 325.272 920.042 325.44 920.003 325.606C919.363 328.303 816.612 435.113 808.8 440.251C837.187 439.826 865.634 440.22 894.028 440.232C894.341 441.02 894.491 441.546 894.444 442.407C894.195 446.999 893.351 451.824 889.827 454.888C853.266 454.323 816.614 454.854 780.045 454.863C780.871 453.881 781.644 452.784 782.277 451.664C783.751 449.056 784.042 446.238 783.258 443.385C788.016 440.81 894.228 332.169 896.177 327.704L812.682 327.74Z"/>
	<path fill="#EE1C24" d="M1411.42 454.914C1414.7 450.056 1445.08 318.003 1444.14 312.811C1448.37 312.327 1452.53 312.287 1456.78 312.26L1489.91 312.161C1509.64 312.148 1532.19 310.715 1547.35 325.832C1555.31 333.769 1558.84 344.369 1558.78 355.473Q1558.77 356.788 1558.71 358.101Q1558.64 359.414 1558.5 360.723Q1558.37 362.031 1558.17 363.331Q1557.97 364.631 1557.71 365.92Q1557.45 367.208 1557.12 368.483Q1556.8 369.757 1556.41 371.014Q1556.02 372.27 1555.57 373.507Q1555.12 374.743 1554.61 375.955Q1554.11 377.168 1553.54 378.354Q1552.97 379.54 1552.34 380.697Q1551.72 381.854 1551.04 382.979Q1550.35 384.103 1549.62 385.193Q1548.88 386.283 1548.09 387.335Q1547.3 388.387 1546.46 389.399Q1545.62 390.412 1544.73 391.381Q1543.85 392.351 1542.91 393.276C1526.25 409.605 1503.8 412.078 1481.6 411.829L1456.83 411.81C1457.01 412.298 1457.15 412.782 1457.25 413.297C1458.01 417.419 1449.62 450.948 1447.06 454.884C1435.18 454.749 1423.3 454.892 1411.42 454.914ZM1472.59 343.469C1473.87 347.306 1467.44 375.318 1465.22 379.837C1464.96 380.374 1464.53 380.871 1464.12 381.306C1471.86 381.378 1502.98 383.881 1508.15 378.352C1508.26 378.235 1508.34 378.091 1508.43 377.961C1513.95 375.987 1517.6 372.99 1520.22 367.664C1522.44 363.135 1523.42 357.45 1521.6 352.617C1520.26 349.049 1517.57 346.349 1514.11 344.799C1505.89 341.124 1481.35 341.734 1472.59 343.469Z"/>
	<path fill="#EE1C24" d="M1362.97 350.212C1363.05 350.112 1363.13 350.015 1363.21 349.911C1366.08 346.003 1371.15 321.437 1370.42 316.643C1375.65 315.85 1381.42 316.264 1386.73 316.25C1387.06 317.189 1387.37 318.209 1387.41 319.21C1387.67 325.615 1383.32 345.678 1379.05 350.023L1416.74 350.073C1416.8 350.283 1416.86 350.491 1416.91 350.703C1418.04 355.491 1416.31 359.886 1413.78 363.883L1376.13 363.88C1379.26 371.744 1362.9 415.568 1363.91 430.21C1364.15 433.685 1365.23 437.295 1368.01 439.596C1377.06 447.11 1387.32 436.891 1396.37 435.939L1396.21 438.316L1396.51 438.894C1398.36 442.588 1398.8 446.12 1397.5 450.051C1395.58 452.691 1390.88 454.414 1387.83 455.517C1378.7 458.817 1368.03 459.522 1359.09 455.174C1339.94 445.858 1346.68 423.999 1350.32 408.056Q1353.46 393.797 1357.09 379.653C1358.18 375.338 1360.67 368.645 1359.06 364.388C1359 364.211 1358.92 364.037 1358.85 363.862L1338 363.885C1338.81 362.928 1339.48 361.911 1340.02 360.783C1341.67 357.358 1342.3 353.821 1341.03 350.193Q1352 349.837 1362.97 350.212Z"/>
	<path fill="#EE1C24" d="M1637.83 454.829L1632.8 454.621Q1632.91 452.369 1633.11 450.124C1626.65 451.215 1620.68 455.622 1614.2 457.163C1602.68 459.9 1589.04 457.986 1578.94 451.747C1569.05 445.635 1562.43 435.689 1559.82 424.438C1555.9 407.493 1560.41 387.949 1569.63 373.411C1579.59 357.7 1593.63 349.4 1611.47 345.386C1622.68 344.436 1637.16 344.914 1646.6 351.873C1649.21 353.799 1652.58 357.094 1653.06 360.437C1655.37 356.456 1656.76 352.762 1655.74 348.15L1689.88 348.218C1690.07 348.777 1690.23 349.323 1690.33 349.906C1691.2 355.177 1669.28 449.631 1665.69 454.896L1637.83 454.829ZM1621.01 374.129C1611.13 376.407 1603.85 379.752 1598.31 388.69C1593.86 395.887 1591.96 404.951 1594.02 413.238C1595.29 418.346 1597.87 423.199 1602.51 425.957C1605.69 427.846 1611.1 428.765 1614.77 428.449C1622.94 428.148 1630.1 424.83 1635.7 418.754C1641.49 412.487 1645.04 403.849 1644.66 395.268C1644.4 389.364 1642.2 383.593 1637.7 379.632C1633.53 375.97 1626.56 373.753 1621.01 374.129Z"/>
	<path fill="#EE1C24" d="M1147.54 443.105L1147.22 442.646C1137.31 449.069 1130.8 454.612 1118.63 456.801C1105.83 459.101 1092.07 457.391 1081.24 449.844C1071.74 443.218 1065.7 432.848 1063.77 421.507C1060.9 404.591 1065.79 386.444 1075.71 372.577C1086.82 357.043 1102.11 350.41 1120.42 347.302C1123.1 347.111 1125.86 347.241 1128.54 347.413C1138.94 348.082 1151.8 352.264 1158.76 360.39C1161.23 363.265 1163.75 367.484 1163.43 371.357C1163.82 370.941 1164.16 370.515 1164.47 370.042C1167.2 365.949 1169.41 354.855 1168.43 350.18C1174.19 349.991 1179.95 350.135 1185.72 350.249C1185.87 350.963 1185.99 351.695 1186.02 352.425C1186.21 357.462 1165.98 443.97 1163.13 452.096C1162.76 453.159 1162.06 454.056 1161.32 454.887L1144.67 454.872C1147.09 452.297 1147.62 446.482 1147.54 443.105ZM1118.16 362.63C1104.33 366.408 1093.74 372.468 1086.38 385.219C1080.4 395.588 1077.93 408.8 1081.16 420.462C1083.25 427.987 1087.91 434.514 1094.76 438.383C1101.18 442.007 1110.31 443.508 1117.56 442.153C1129.49 440.604 1140.51 433.468 1147.77 424.004C1155.06 414.501 1159.23 401.953 1157.6 389.954C1156.46 381.578 1152.41 373.801 1145.59 368.661C1138.06 362.995 1127.81 361.214 1118.62 362.558C1118.46 362.58 1118.31 362.606 1118.16 362.63Z"/>
	<path fill="#EE1C24" d="M1285.53 443.107L1285.16 442.579C1275.78 449.497 1268.42 454.636 1256.62 456.814C1243.82 459.175 1230.12 457.352 1219.28 449.813C1209.74 443.173 1203.77 433.051 1201.77 421.677C1198.85 404.984 1203.67 386.654 1213.44 372.932C1224.64 357.196 1239.88 350.44 1258.43 347.302C1261.45 347.092 1264.61 347.214 1267.62 347.486C1277.78 348.402 1290.3 352.57 1296.96 360.709C1299.23 363.486 1301.81 367.646 1301.46 371.321C1301.84 370.91 1302.18 370.49 1302.49 370.024C1305.2 365.963 1307.42 354.809 1306.42 350.176C1312.19 349.991 1317.96 350.134 1323.73 350.249C1323.88 350.948 1324 351.664 1324.03 352.378C1324.25 357.704 1304.32 441.13 1301.32 451.424C1300.91 452.829 1300.21 453.828 1299.23 454.887L1282.67 454.875C1285.19 452.197 1285.45 446.645 1285.53 443.107ZM1256.15 362.631C1242.34 366.402 1231.74 372.473 1224.4 385.203C1218.44 395.531 1215.93 408.714 1219.14 420.34C1221.23 427.923 1225.85 434.499 1232.78 438.401C1239.17 442.001 1248.32 443.519 1255.53 442.153C1267.48 440.586 1278.5 433.499 1285.77 424.006C1293.05 414.494 1297.24 401.96 1295.61 389.955C1294.47 381.583 1290.42 373.808 1283.6 368.67C1276.06 362.995 1265.82 361.219 1256.61 362.558C1256.46 362.58 1256.31 362.607 1256.15 362.631Z"/>
	<path fill="#EE1C24" d="M1722.16 451.752C1724.32 446.948 1707.18 359.463 1704.3 348.261L1739.09 348.184C1739.34 348.571 1739.38 348.615 1739.63 349.074C1742.69 354.751 1750.39 404.307 1748.84 409.725C1749.33 409.416 1749.76 409.094 1750.21 408.715C1754.78 404.8 1787.66 352.122 1787.91 348.156Q1807.04 348.058 1826.16 348.307C1826.17 348.805 1826.19 348.829 1826.14 349.392C1825.82 353.057 1789.57 409.011 1785.36 412.453C1785.36 412.684 1785.39 413.071 1785.34 413.32C1784.46 417.761 1737.95 488.44 1734.6 490.721L1697.15 490.684C1697.92 490.105 1698.68 489.495 1699.36 488.818C1703.87 484.361 1722.12 456.169 1722.16 451.752Z"/>
	<path fill="#EE1C24" d="M1012.53 370.705C1016.14 368.967 1019.2 365.943 1022.34 363.481C1032.26 355.703 1040.69 351.036 1053.21 349.218C1057.39 348.91 1061.62 349.185 1065.8 349.315C1065.83 349.412 1065.87 349.507 1065.88 349.606C1066.65 353.801 1063.29 362.409 1060.99 365.881C1056.01 365.777 1051.03 365.602 1046.14 366.759C1011.45 374.984 1006.44 407.797 999.386 437.448C998.15 442.649 997.185 449.858 994.269 454.355C994.155 454.531 994.035 454.702 993.918 454.876L977.037 454.852C977.49 454.259 977.922 453.652 978.267 452.988C979.467 450.672 979.646 448.455 978.926 445.986C979.273 445.47 979.595 444.948 979.879 444.395C982.559 439.164 1000.57 361.906 1001.39 353.516C1001.5 352.354 1001.23 351.232 1000.87 350.136L1017.95 350.064C1018.08 350.601 1018.18 351.133 1018.24 351.686C1018.8 357.074 1016.06 366.692 1012.53 370.705Z"/>
	<path fill="#EE1C24" d="M920.858 454.861C929.36 444.235 939.109 369.447 947.005 350.177C952.14 349.999 957.246 350.103 962.382 350.237C962.57 351.033 962.726 351.864 962.711 352.686C962.604 358.699 941.359 450.595 939.759 453.055C939.353 453.68 938.34 454.399 937.775 454.935L920.858 454.861Z"/>
	<path fill="#EE1C24" d="M259.722 454.849L183.508 454.788C173.027 454.773 161.783 455.946 151.43 454.877C147.701 454.492 144.274 453.523 141.108 451.47C137.886 449.381 135.567 446.341 134.852 442.529C133.824 437.048 135.903 431.044 139.084 426.611C143.871 419.939 149.268 417.509 157.073 416.226C178.458 416.183 199.854 416.492 221.235 416.304C234.336 416.189 248.194 415.016 261.221 416.194C265.115 416.546 269.193 417.409 272.62 419.339C275.901 421.186 278.477 424.011 279.395 427.724C280.602 432.607 279.791 439.272 277.07 443.536C272.887 450.09 267.096 453.349 259.722 454.849Z"/>
</svg>
