<?xml version="1.0" encoding="UTF-8" standalone="no"?>
<!DOCTYPE svg PUBLIC "-//W3C//DTD SVG 1.1//EN" "http://www.w3.org/Graphics/SVG/1.1/DTD/svg11.dtd">
<svg xmlns="http://www.w3.org/2000/svg" version="1.1" viewBox="0.00 0.00 2560.00 542.00">
<g stroke-width="2.00" fill="none" stroke-linecap="butt">
<path stroke="#d30d14" vector-effect="non-scaling-stroke" d="
  M 95.52 20.45
  L 95.33 22.43
  Q 95.27 23.06 94.66 22.89
  L 93.59 22.60
  Q 92.73 22.36 93.27 23.06
  Q 94.06 24.08 95.30 24.52
  Q 95.77 24.68 96.02 25.12
  Q 96.50 25.97 97.33 26.55
  A 2.38 2.37 17.5 0 1 98.35 28.50
  Q 98.36 71.35 98.36 114.64
  C 98.36 116.32 99.18 117.81 99.37 119.49
  A 0.48 0.47 -73.3 0 1 98.60 119.91
  L 76.11 101.19
  Q 75.64 100.80 75.10 101.08
  L 72.63 102.33"
/>
<path stroke="#d30d14" vector-effect="non-scaling-stroke" d="
  M 74.25 70.29
  L 75.75 74.68
  Q 75.81 74.88 76.01 74.83
  Q 76.14 74.80 76.27 74.76
  Q 76.64 74.67 76.93 74.92
  Q 78.22 76.09 79.63 77.04
  Q 80.63 77.70 81.87 79.01
  Q 83.44 80.66 85.71 81.45
  Q 85.75 81.47 85.77 81.51
  L 85.95 81.83
  Q 86.30 82.50 86.37 81.75
  Q 86.49 80.47 85.47 79.84
  Q 85.10 79.62 85.05 79.20
  Q 84.80 77.38 83.40 76.15"
/>
<path stroke="#d30d14" vector-effect="non-scaling-stroke" d="
  M 83.34 48.06
  L 85.19 47.42
  Q 85.95 47.16 85.17 47.00
  L 84.70 46.91
  Q 84.17 46.81 84.13 46.27
  Q 84.08 45.74 84.35 45.31
  Q 84.61 44.88 84.27 44.50
  Q 83.93 44.12 83.52 44.05
  Q 82.79 43.92 82.94 43.75
  Q 83.23 43.43 82.84 43.06
  A 0.25 0.24 39.4 0 0 82.47 43.09
  Q 82.39 43.21 82.24 43.25
  Q 81.83 43.37 81.70 42.95
  Q 81.44 42.07 80.49 41.26
  Q 78.27 39.34 75.70 37.40
  A 0.73 0.33 65.6 0 0 75.62 37.33
  Q 73.33 35.06 70.60 33.36
  Q 70.13 33.07 69.73 33.46
  Q 68.83 34.33 67.35 34.16"
/>
<path stroke="#ab1512" vector-effect="non-scaling-stroke" d="
  M 120.76 42.19
  L 117.73 42.75
  Q 117.26 42.83 117.25 43.32
  L 117.19 72.19
  Q 117.18 72.64 117.42 73.03
  L 119.12 75.75"
/>
<path stroke="#ab1512" vector-effect="non-scaling-stroke" d="
  M 105.14 66.55
  L 104.13 64.02
  Q 103.95 63.57 103.88 63.08
  Q 103.61 61.16 102.18 59.93
  Q 101.53 59.36 101.52 60.23
  L 101.32 94.50
  Q 101.30 97.47 103.03 94.92
  Q 103.41 94.36 105.30 94.35"
/>
<path stroke="#ab1512" vector-effect="non-scaling-stroke" d="
  M 112.63 100.53
  Q 111.39 101.69 110.94 101.28
  A 1.28 1.00 -73.6 0 0 109.23 102.50
  L 109.31 127.70
  Q 109.31 128.07 108.95 128.17
  Q 108.70 128.24 108.56 128.40"
/>
<path stroke="#d30d14" vector-effect="non-scaling-stroke" d="
  M 108.56 128.40
  L 101.08 122.46
  Q 101.00 122.40 101.00 122.30
  Q 101.00 122.14 101.00 121.98
  Q 101.00 121.72 100.84 121.92
  Q 100.58 122.24 100.29 122.04
  Q 99.78 121.68 99.38 122.17
  C 98.59 123.13 99.61 124.36 99.71 125.23"
/>
<path stroke="#b90f11" vector-effect="non-scaling-stroke" d="
  M 110.14 132.74
  Q 110.93 130.82 108.56 128.40"
/>
<path stroke="#d30d14" vector-effect="non-scaling-stroke" d="
  M 194.24 35.45
  L 191.26 34.10
  Q 190.72 33.85 190.26 34.23
  L 185.07 38.52
  Q 184.78 38.76 184.90 39.12
  Q 184.99 39.42 184.73 39.35
  Q 184.32 39.25 184.00 39.52
  L 167.26 53.54
  Q 166.94 53.81 166.53 53.89
  Q 166.03 53.99 165.81 54.55
  Q 165.69 54.87 165.35 54.87
  Q 165.17 54.87 165.00 54.87
  Q 164.53 54.89 165.01 54.16
  Q 165.20 53.88 165.02 53.50
  Q 164.88 53.21 164.88 52.88
  L 164.88 28.96
  Q 164.88 28.56 164.52 28.38
  Q 164.40 28.32 164.28 28.26
  A 0.30 0.30 0.0 0 1 164.16 27.82
  Q 165.19 26.26 165.64 25.89
  Q 172.31 20.34 178.89 14.67
  A 0.32 0.31 45.6 0 0 178.89 14.20
  Q 178.67 14.00 178.38 14.17
  Q 177.75 14.53 177.32 14.86
  Q 176.20 15.72 176.17 14.31
  L 176.14 12.45"
/>
<path stroke="#ab1512" vector-effect="non-scaling-stroke" d="
  M 163.22 61.75
  L 160.93 60.92
  Q 160.44 60.74 160.58 60.23
  Q 160.87 59.18 161.94 58.72
  Q 162.15 58.63 162.03 58.43
  L 162.03 58.42
  Q 161.91 58.22 161.70 58.33
  Q 159.60 59.41 159.54 61.75
  Q 159.13 78.38 159.84 95.15
  Q 159.86 95.43 160.12 95.36
  L 160.63 95.22
  Q 160.90 95.15 160.81 94.89
  Q 160.23 92.97 161.28 92.44
  A 0.83 0.81 -1.4 0 0 161.66 92.05
  L 163.24 88.43"
/>
<path stroke="#d30d14" vector-effect="non-scaling-stroke" d="
  M 184.28 70.76
  L 185.68 73.55
  Q 185.88 73.96 185.53 74.26
  Q 177.50 80.99 169.48 87.73
  Q 168.41 88.63 167.55 90.64
  Q 167.51 90.75 167.60 90.81
  Q 167.64 90.84 167.69 90.85
  Q 167.88 90.93 167.88 91.00
  L 167.88 114.16
  A 0.94 0.94 0.0 0 0 169.43 114.88
  L 189.36 98.13
  A 0.40 0.39 36.0 0 1 189.76 98.07
  Q 190.23 98.27 190.35 97.65
  Q 190.44 97.14 190.96 97.20
  Q 192.52 97.39 193.71 98.56"
/>
<path stroke="#ab1512" vector-effect="non-scaling-stroke" d="
  M 142.97 139.11
  L 144.88 136.05
  Q 145.12 135.66 145.04 135.21
  Q 144.74 133.62 144.74 132.00
  Q 144.84 101.62 144.90 71.25
  Q 144.93 57.75 144.62 44.25
  Q 144.61 43.75 144.24 43.41
  Q 143.36 42.61 142.23 42.34
  Q 141.93 42.27 141.81 41.98
  Q 141.76 41.86 141.73 41.72"
/>
<path stroke="#d30d14" vector-effect="non-scaling-stroke" d="
  M 257.48 264.21
  Q 256.57 264.21 256.78 262.71
  A 0.53 0.53 0.0 0 0 255.91 262.24
  Q 255.48 262.61 254.92 262.72
  Q 254.45 262.82 254.21 263.23
  C 253.48 264.50 253.00 265.66 252.03 266.80
  Q 250.35 268.76 248.94 270.94
  C 248.29 271.95 247.40 272.33 246.57 273.20
  Q 246.17 273.61 246.74 273.52
  Q 251.49 272.76 254.81 275.83
  C 255.82 276.76 256.05 278.27 256.51 279.55
  Q 256.72 280.12 257.22 279.78
  L 262.20 276.38"
/>
<path stroke="#d30d14" vector-effect="non-scaling-stroke" d="
  M 186.00 511.77
  L 185.53 511.64
  Q 185.06 511.51 185.53 511.39
  L 185.99 511.27
  A 0.14 0.14 0.0 0 0 186.01 511.01
  L 185.46 510.76
  Q 185.12 510.60 185.12 510.22
  L 185.12 507.69
  Q 185.12 507.51 184.95 507.47
  L 184.52 507.36
  Q 184.24 507.29 184.36 507.02
  L 184.90 505.83
  Q 185.10 505.39 185.47 505.10
  Q 187.98 503.09 190.33 500.92
  C 191.27 500.05 192.81 499.37 193.71 497.98
  Q 193.80 497.84 194.07 497.88
  A 0.48 0.47 -67.5 0 0 194.52 497.69
  Q 195.87 495.84 197.92 494.76
  Q 199.05 494.17 197.79 494.29
  C 196.16 494.44 195.62 496.11 194.19 496.91
  Q 193.87 497.09 193.68 497.42
  Q 193.24 498.21 192.30 498.35
  Q 191.89 498.42 191.89 498.00
  L 191.89 414.26
  A 1.02 1.00 71.6 0 1 192.28 413.46
  Q 192.96 412.96 193.59 412.43
  C 194.27 411.86 194.42 411.00 195.49 410.59
  Q 195.94 410.42 196.29 410.07
  C 197.40 408.94 198.16 407.62 199.35 406.62
  Q 218.69 390.32 238.11 374.10
  Q 242.25 370.64 245.20 362.50"
/>
<path stroke="#b90f11" vector-effect="non-scaling-stroke" d="
  M 245.20 362.50
  Q 245.31 362.55 245.51 361.98
  C 248.87 352.61 247.81 342.14 247.84 332.36
  Q 247.86 325.44 246.80 322.78
  Q 244.83 317.83 239.38 315.63"
/>
<path stroke="#d30d14" vector-effect="non-scaling-stroke" d="
  M 239.38 315.63
  C 233.32 314.05 229.68 315.34 224.70 319.47
  Q 213.53 328.72 202.36 337.95
  Q 201.46 338.69 201.05 338.99
  A 1.07 1.07 0.0 0 1 199.38 337.98
  C 199.59 336.34 199.88 334.69 199.88 333.00
  Q 199.88 303.29 199.88 273.57
  Q 199.88 273.35 199.63 272.75
  Q 199.53 272.50 199.22 272.50
  A 0.25 0.25 0.0 0 1 199.03 272.08
  Q 202.90 267.86 207.53 264.53
  A 0.16 0.16 0.0 0 0 207.50 264.25
  Q 207.28 264.15 206.95 264.15
  Q 206.65 264.15 206.41 264.34
  Q 206.01 264.67 205.47 264.73
  A 0.58 0.58 0.0 0 1 204.84 264.08
  Q 205.22 261.21 204.01 259.79"
/>
<path stroke="#b90f11" vector-effect="non-scaling-stroke" d="
  M 239.70 225.83
  L 244.16 227.88
  Q 244.39 227.99 244.38 228.24
  Q 244.38 228.38 244.38 228.52
  A 0.17 0.17 0.0 0 0 244.71 228.59
  C 248.26 220.76 247.96 213.07 247.80 204.15
  Q 247.70 198.20 246.44 195.60
  Q 244.42 191.44 239.66 189.39"
/>
<path stroke="#d30d14" vector-effect="non-scaling-stroke" d="
  M 239.66 189.39
  Q 230.97 186.27 224.37 193.44
  C 223.26 194.65 221.82 195.27 220.58 196.33
  Q 212.86 202.95 205.09 209.52
  Q 204.26 210.23 202.97 210.95
  C 201.83 211.59 200.62 212.80 199.27 212.67
  Q 198.76 212.62 198.97 212.15
  Q 199.86 210.19 199.86 208.00
  Q 199.88 169.15 199.88 130.28
  Q 199.88 129.62 199.23 129.62
  L 198.35 129.62
  A 0.24 0.23 -63.7 0 1 198.21 129.20
  Q 200.66 127.34 202.72 125.03
  Q 203.29 124.39 202.49 124.72
  L 200.49 125.54
  Q 199.75 125.84 199.85 125.05
  Q 200.19 122.25 199.25 120.36"
/>
<path stroke="#ab1512" vector-effect="non-scaling-stroke" d="
  M 239.66 189.39
  L 237.60 194.61"
/>
<path stroke="#d30d14" vector-effect="non-scaling-stroke" d="
  M 171.01 245.58
  L 170.94 244.91
  Q 170.89 244.51 171.26 244.36
  Q 171.89 244.11 171.87 243.50
  A 1.36 0.17 86.0 0 1 171.91 242.75
  Q 172.12 241.92 171.87 241.12
  A 1.47 1.47 0.0 0 0 169.61 240.36
  Q 162.28 245.64 155.00 252.01
  Q 150.96 255.54 147.96 256.86"
/>
<path stroke="#ab1512" vector-effect="non-scaling-stroke" d="
  M 147.96 256.86
  Q 146.53 255.83 146.55 254.25
  Q 146.93 227.90 146.68 183.00
  Q 146.66 180.60 148.49 173.99
  Q 148.63 173.48 148.15 173.27
  L 143.47 171.18"
/>
<path stroke="#ab1512" vector-effect="non-scaling-stroke" d="
  M 145.23 540.48
  Q 146.60 538.81 147.21 536.84
  Q 147.33 536.45 147.71 536.27
  Q 147.94 536.16 148.08 535.93
  Q 148.36 535.50 147.84 535.47
  Q 146.76 535.41 146.76 534.25
  Q 146.85 498.00 146.84 461.75
  Q 146.84 458.32 148.54 452.53
  Q 148.69 452.01 148.15 452.07
  Q 146.47 452.27 147.55 451.85"
/>
<path stroke="#d30d14" vector-effect="non-scaling-stroke" d="
  M 147.55 451.85
  Q 147.99 451.95 148.32 451.83
  Q 148.59 451.72 148.80 451.29
  Q 151.18 446.36 153.09 444.83
  Q 162.10 437.58 170.66 429.78
  C 172.24 428.34 172.21 427.23 172.12 425.26
  Q 172.06 424.02 170.87 424.39
  Q 170.44 424.52 169.45 424.35"
/>
<path stroke="#ab1512" vector-effect="non-scaling-stroke" d="
  M 169.45 424.35
  Q 170.48 423.83 171.09 422.80"
/>
<path stroke="#ab1512" vector-effect="non-scaling-stroke" d="
  M 245.20 362.50
  Q 243.36 363.30 242.12 362.25
  Q 241.76 361.95 241.30 361.86
  L 239.56 361.53"
/>
<path stroke="#ab1512" vector-effect="non-scaling-stroke" d="
  M 239.38 315.63
  Q 239.23 318.18 237.32 320.91"
/>
<path stroke="#ab1512" vector-effect="non-scaling-stroke" d="
  M 171.04 371.99
  L 151.58 388.26"
/>
<path stroke="#ab1512" vector-effect="non-scaling-stroke" d="
  M 145.28 388.28
  L 147.36 384.23
  Q 147.50 383.96 147.78 383.83
  Q 147.89 383.77 148.01 383.73
  Q 148.87 383.40 147.73 383.36
  Q 146.57 383.31 146.58 381.87
  Q 146.76 354.69 146.74 327.50
  Q 146.73 323.40 148.56 317.23
  Q 148.72 316.72 148.23 316.49
  L 143.57 314.30"
/>
<path stroke="#b90f11" vector-effect="non-scaling-stroke" d="
  M 171.09 245.96
  Q 170.75 245.89 170.52 245.87
  Q 170.27 245.86 170.02 246.08
  Q 160.89 253.84 151.60 261.62"
/>
<path stroke="#b90f11" vector-effect="non-scaling-stroke" d="
  M 147.96 256.86
  L 145.44 261.80"
/>
<path stroke="#b90f11" vector-effect="non-scaling-stroke" d="
  M 169.45 424.35
  L 151.60 439.19"
/>
<path stroke="#b90f11" vector-effect="non-scaling-stroke" d="
  M 147.55 451.85
  Q 145.76 450.66 143.40 450.10"
/>
<path stroke="#ab1512" vector-effect="non-scaling-stroke" d="
  M 171.07 287.48
  L 151.62 303.62"
/>
<path stroke="#d30d14" vector-effect="non-scaling-stroke" d="
  M 256.42 163.34
  Q 256.44 163.32 256.47 163.30
  Q 256.56 163.25 256.56 163.00
  L 256.63 82.14
  A 0.33 0.32 90.0 0 0 256.31 81.81
  L 256.00 81.81
  Q 255.88 81.81 255.88 81.94
  L 255.85 188.51
  Q 255.85 188.80 256.15 188.80
  L 256.42 188.80
  Q 256.62 188.80 256.62 188.60
  Q 256.62 176.26 256.67 164.00
  Q 256.67 163.63 256.43 163.42
  Q 256.37 163.37 256.42 163.34"
/>
<path stroke="#d30d14" vector-effect="non-scaling-stroke" d="
  M 256.5110 234.4878
  A 0.32 0.32 0.0 0 0 256.1888 234.1700
  L 256.1288 234.1704
  A 0.32 0.32 0.0 0 0 255.8110 234.4926
  L 255.9290 251.3922
  A 0.32 0.32 0.0 0 0 256.2512 251.7100
  L 256.3112 251.7096
  A 0.32 0.32 0.0 0 0 256.6290 251.3874
  L 256.5110 234.4878"
/>
<path stroke="#d30d14" vector-effect="non-scaling-stroke" d="
  M 62.92 120.71
  Q 62.82 121.28 62.21 121.53
  Q 61.92 121.65 61.69 121.42
  Q 61.57 121.30 61.43 121.20
  Q 61.06 120.95 61.10 121.39
  Q 61.31 123.55 60.70 125.58
  Q 60.68 125.64 60.63 125.64
  Q 60.47 125.65 60.33 125.69
  Q 60.26 125.72 60.30 125.79
  Q 61.36 127.28 63.02 127.91
  Q 63.10 127.94 63.02 127.98
  Q 62.95 128.03 62.97 128.15
  Q 62.99 128.24 63.09 128.32
  Q 66.30 130.96 69.80 133.93
  Q 71.00 134.96 71.00 136.54
  L 71.00 220.14
  A 0.78 0.78 0.0 0 1 69.72 220.73
  Q 68.03 219.30 66.08 217.57
  Q 65.49 217.04 64.81 216.62
  C 63.15 215.60 61.71 213.43 60.05 212.15
  Q 56.50 209.41 56.15 209.10
  C 52.84 206.17 49.36 202.72 45.74 200.24
  C 43.92 198.99 42.60 197.23 40.77 195.93
  Q 38.79 194.52 37.46 193.26
  Q 35.47 191.38 33.22 189.80
  Q 33.07 189.70 32.97 189.77
  Q 32.91 189.81 32.87 189.75
  L 32.63 189.31
  Q 32.51 189.09 32.31 188.92
  Q 23.00 180.97 13.58 173.15
  C 10.64 170.72 9.46 168.25 7.59 165.31
  Q 7.31 164.88 6.83 165.03
  Q 4.49 165.71 2.39 167.32"
/>
<path stroke="#ab1512" vector-effect="non-scaling-stroke" d="
  M 118.54 171.66
  Q 116.70 172.04 115.20 172.95
  Q 114.75 173.22 114.24 173.13
  Q 113.96 173.08 113.73 173.15
  Q 113.15 173.32 113.36 173.88
  Q 115.05 178.41 115.09 182.62
  Q 115.37 210.84 115.09 252.06
  C 115.08 254.15 114.50 255.72 113.73 257.59"
/>
<path stroke="#d30d14" vector-effect="non-scaling-stroke" d="
  M 113.73 257.59
  L 90.76 238.31
  Q 90.35 237.96 90.21 238.48
  C 89.85 239.77 90.08 242.59 89.73 243.07
  Q 89.55 243.32 89.60 243.62
  L 89.75 244.50"
/>
<path stroke="#b90f11" vector-effect="non-scaling-stroke" d="
  M 117.83 267.64
  Q 116.74 262.30 113.73 257.59"
/>
<path stroke="#d30d14" vector-effect="non-scaling-stroke" d="
  M 64.03 264.96
  Q 64.17 265.62 64.05 266.10
  Q 63.96 266.48 63.62 266.28
  Q 63.52 266.21 63.42 266.12
  Q 63.10 265.81 63.10 266.25
  L 63.10 269.73
  Q 63.10 270.23 62.66 270.00
  Q 62.25 269.79 62.12 269.42
  Q 61.96 268.98 61.53 269.18
  Q 61.26 269.31 60.91 269.28
  Q 60.18 269.22 60.75 269.69
  L 70.10 277.42
  Q 70.45 277.71 70.32 278.15
  Q 70.13 278.80 70.13 279.50
  Q 70.11 312.50 70.11 345.03
  A 0.96 0.96 0.0 0 1 68.53 345.77
  Q 41.96 323.39 15.52 301.15
  C 11.86 298.07 9.49 295.50 7.66 291.51
  A 0.56 0.56 0.0 0 0 6.89 291.25
  L 2.46 293.59"
/>
<path stroke="#d30d14" vector-effect="non-scaling-stroke" d="
  M 115.18 274.11
  Q 113.74 264.38 105.84 257.94"
/>
<path stroke="#ab1512" vector-effect="non-scaling-stroke" d="
  M 118.79 313.90
  Q 116.65 315.84 115.05 316.52
  C 114.60 316.71 114.25 316.58 113.78 316.63
  Q 113.25 316.69 113.44 317.18
  Q 115.17 321.52 115.18 323.25
  Q 115.38 351.91 115.25 380.57
  Q 115.25 380.64 115.05 382.92
  Q 114.79 385.83 116.92 388.43"
/>
<path stroke="#ab1512" vector-effect="non-scaling-stroke" d="
  M 118.64 449.93
  L 114.15 452.27
  Q 113.76 452.48 113.84 452.91
  C 114.24 455.11 115.22 457.02 115.24 459.24
  Q 115.48 496.81 115.25 534.38
  Q 115.25 534.82 115.05 535.20
  Q 114.70 535.84 114.85 536.51
  Q 115.28 538.48 116.92 540.56"
/>
<path stroke="#d30d14" vector-effect="non-scaling-stroke" d="
  M 60.04 498.25
  Q 61.58 497.66 61.05 494.11
  Q 60.97 493.54 61.55 493.54
  Q 62.09 493.55 62.20 493.03
  Q 62.29 492.62 62.61 492.89
  L 67.65 497.22
  Q 70.11 499.33 70.11 496.09
  L 70.11 414.78
  Q 70.11 414.42 70.47 414.36
  L 71.00 414.27
  Q 71.40 414.20 71.08 413.94
  Q 68.89 412.24 67.18 410.06
  Q 66.88 409.69 66.44 409.51
  C 65.01 408.93 64.15 407.50 62.82 406.90
  Q 62.38 406.70 62.11 406.32
  Q 61.01 404.81 59.52 403.76
  C 57.02 402.02 55.93 401.02 54.18 399.14
  Q 53.85 398.78 53.39 398.61
  Q 52.42 398.25 51.71 397.55
  Q 50.54 396.41 50.13 396.10
  C 49.29 395.45 48.72 394.65 47.89 394.05
  Q 45.18 392.09 42.73 389.82
  Q 41.45 388.63 38.45 386.34
  Q 36.24 384.66 34.48 382.46
  Q 34.40 382.37 34.31 382.44
  Q 34.21 382.52 34.03 382.54
  Q 33.95 382.55 33.88 382.50
  Q 29.46 378.73 24.98 375.02
  Q 23.69 373.96 23.36 373.37
  A 0.92 0.90 3.7 0 0 23.09 373.07
  C 19.34 370.33 16.09 367.51 12.56 364.56
  C 10.93 363.20 9.42 361.30 7.69 359.82
  Q 7.44 359.61 7.17 359.77
  L 6.88 359.93
  Q 6.59 360.09 6.46 359.79
  L 2.66 350.54"
/>
</g>
<path fill="#e00713" d="
  M 95.52 20.45
  L 95.33 22.43
  Q 95.27 23.06 94.66 22.89
  L 93.59 22.60
  Q 92.73 22.36 93.27 23.06
  Q 94.06 24.08 95.30 24.52
  Q 95.77 24.68 96.02 25.12
  Q 96.50 25.97 97.33 26.55
  A 2.38 2.37 17.5 0 1 98.35 28.50
  Q 98.36 71.35 98.36 114.64
  C 98.36 116.32 99.18 117.81 99.37 119.49
  A 0.48 0.47 -73.3 0 1 98.60 119.91
  L 76.11 101.19
  Q 75.64 100.80 75.10 101.08
  L 72.63 102.33
  Q 72.41 101.87 72.40 101.50
  Q 72.25 87.75 72.28 74.00
  Q 72.28 72.05 74.25 70.29
  L 75.75 74.68
  Q 75.81 74.88 76.01 74.83
  Q 76.14 74.80 76.27 74.76
  Q 76.64 74.67 76.93 74.92
  Q 78.22 76.09 79.63 77.04
  Q 80.63 77.70 81.87 79.01
  Q 83.44 80.66 85.71 81.45
  Q 85.75 81.47 85.77 81.51
  L 85.95 81.83
  Q 86.30 82.50 86.37 81.75
  Q 86.49 80.47 85.47 79.84
  Q 85.10 79.62 85.05 79.20
  Q 84.80 77.38 83.40 76.15
  L 83.34 48.06
  L 85.19 47.42
  Q 85.95 47.16 85.17 47.00
  L 84.70 46.91
  Q 84.17 46.81 84.13 46.27
  Q 84.08 45.74 84.35 45.31
  Q 84.61 44.88 84.27 44.50
  Q 83.93 44.12 83.52 44.05
  Q 82.79 43.92 82.94 43.75
  Q 83.23 43.43 82.84 43.06
  A 0.25 0.24 39.4 0 0 82.47 43.09
  Q 82.39 43.21 82.24 43.25
  Q 81.83 43.37 81.70 42.95
  Q 81.44 42.07 80.49 41.26
  Q 78.27 39.34 75.70 37.40
  A 0.73 0.33 65.6 0 0 75.62 37.33
  Q 73.33 35.06 70.60 33.36
  Q 70.13 33.07 69.73 33.46
  Q 68.83 34.33 67.35 34.16
  Q 67.26 19.28 67.25 4.25
  C 67.25 1.34 70.59 -0.28 72.90 1.62
  Q 84.30 10.97 95.52 20.45
  Z"
/>
<path fill="#e00713" d="
  M 194.24 35.45
  L 191.26 34.10
  Q 190.72 33.85 190.26 34.23
  L 185.07 38.52
  Q 184.78 38.76 184.90 39.12
  Q 184.99 39.42 184.73 39.35
  Q 184.32 39.25 184.00 39.52
  L 167.26 53.54
  Q 166.94 53.81 166.53 53.89
  Q 166.03 53.99 165.81 54.55
  Q 165.69 54.87 165.35 54.87
  Q 165.17 54.87 165.00 54.87
  Q 164.53 54.89 165.01 54.16
  Q 165.20 53.88 165.02 53.50
  Q 164.88 53.21 164.88 52.88
  L 164.88 28.96
  Q 164.88 28.56 164.52 28.38
  Q 164.40 28.32 164.28 28.26
  A 0.30 0.30 0.0 0 1 164.16 27.82
  Q 165.19 26.26 165.64 25.89
  Q 172.31 20.34 178.89 14.67
  A 0.32 0.31 45.6 0 0 178.89 14.20
  Q 178.67 14.00 178.38 14.17
  Q 177.75 14.53 177.32 14.86
  Q 176.20 15.72 176.17 14.31
  L 176.14 12.45
  Q 181.64 7.80 187.13 3.15
  C 190.11 0.63 194.27 -0.40 194.33 5.03
  Q 194.48 19.97 194.24 35.45
  Z"
/>
<path fill="#c51315" d="
  M 176.14 12.45
  L 176.17 14.31
  Q 176.20 15.72 177.32 14.86
  Q 177.75 14.53 178.38 14.17
  Q 178.67 14.00 178.89 14.20
  A 0.32 0.31 45.6 0 1 178.89 14.67
  Q 172.31 20.34 165.64 25.89
  Q 165.19 26.26 164.16 27.82
  A 0.30 0.30 0.0 0 0 164.28 28.26
  Q 164.40 28.32 164.52 28.38
  Q 164.88 28.56 164.88 28.96
  L 164.88 52.88
  Q 164.88 53.21 165.02 53.50
  Q 165.20 53.88 165.01 54.16
  Q 164.53 54.89 165.00 54.87
  Q 165.17 54.87 165.35 54.87
  Q 165.69 54.87 165.81 54.55
  Q 166.03 53.99 166.53 53.89
  Q 166.94 53.81 167.26 53.54
  L 184.00 39.52
  Q 184.32 39.25 184.73 39.35
  Q 184.99 39.42 184.90 39.12
  Q 184.78 38.76 185.07 38.52
  L 190.26 34.23
  Q 190.72 33.85 191.26 34.10
  L 194.24 35.45
  L 163.22 61.75
  L 160.93 60.92
  Q 160.44 60.74 160.58 60.23
  Q 160.87 59.18 161.94 58.72
  Q 162.15 58.63 162.03 58.43
  L 162.03 58.42
  Q 161.91 58.22 161.70 58.33
  Q 159.60 59.41 159.54 61.75
  Q 159.13 78.38 159.84 95.15
  Q 159.86 95.43 160.12 95.36
  L 160.63 95.22
  Q 160.90 95.15 160.81 94.89
  Q 160.23 92.97 161.28 92.44
  A 0.83 0.81 -1.4 0 0 161.66 92.05
  L 163.24 88.43
  L 184.28 70.76
  L 185.68 73.55
  Q 185.88 73.96 185.53 74.26
  Q 177.50 80.99 169.48 87.73
  Q 168.41 88.63 167.55 90.64
  Q 167.51 90.75 167.60 90.81
  Q 167.64 90.84 167.69 90.85
  Q 167.88 90.93 167.88 91.00
  L 167.88 114.16
  A 0.94 0.94 0.0 0 0 169.43 114.88
  L 189.36 98.13
  A 0.40 0.39 36.0 0 1 189.76 98.07
  Q 190.23 98.27 190.35 97.65
  Q 190.44 97.14 190.96 97.20
  Q 192.52 97.39 193.71 98.56
  Q 193.46 99.37 193.25 99.54
  Q 169.85 119.26 146.40 138.90
  Q 144.87 140.18 142.97 139.11
  L 144.88 136.05
  Q 145.12 135.66 145.04 135.21
  Q 144.74 133.62 144.74 132.00
  Q 144.84 101.62 144.90 71.25
  Q 144.93 57.75 144.62 44.25
  Q 144.61 43.75 144.24 43.41
  Q 143.36 42.61 142.23 42.34
  Q 141.93 42.27 141.81 41.98
  Q 141.76 41.86 141.73 41.72
  L 176.14 12.45
  Z"
/>
<path fill="#c51315" d="
  M 95.52 20.45
  Q 110.34 32.66 120.13 41.12
  Q 120.57 41.50 120.76 42.19
  L 117.73 42.75
  Q 117.26 42.83 117.25 43.32
  L 117.19 72.19
  Q 117.18 72.64 117.42 73.03
  L 119.12 75.75
  Q 117.17 76.57 115.62 75.38
  Q 113.36 73.64 105.14 66.55
  L 104.13 64.02
  Q 103.95 63.57 103.88 63.08
  Q 103.61 61.16 102.18 59.93
  Q 101.53 59.36 101.52 60.23
  L 101.32 94.50
  Q 101.30 97.47 103.03 94.92
  Q 103.41 94.36 105.30 94.35
  L 112.63 100.53
  Q 111.39 101.69 110.94 101.28
  A 1.28 1.00 -73.6 0 0 109.23 102.50
  L 109.31 127.70
  Q 109.31 128.07 108.95 128.17
  Q 108.70 128.24 108.56 128.40
  L 101.08 122.46
  Q 101.00 122.40 101.00 122.30
  Q 101.00 122.14 101.00 121.98
  Q 101.00 121.72 100.84 121.92
  Q 100.58 122.24 100.29 122.04
  Q 99.78 121.68 99.38 122.17
  C 98.59 123.13 99.61 124.36 99.71 125.23
  L 72.63 102.33
  L 75.10 101.08
  Q 75.64 100.80 76.11 101.19
  L 98.60 119.91
  A 0.48 0.47 -73.3 0 0 99.37 119.49
  C 99.18 117.81 98.36 116.32 98.36 114.64
  Q 98.36 71.35 98.35 28.50
  A 2.38 2.37 17.5 0 0 97.33 26.55
  Q 96.50 25.97 96.02 25.12
  Q 95.77 24.68 95.30 24.52
  Q 94.06 24.08 93.27 23.06
  Q 92.73 22.36 93.59 22.60
  L 94.66 22.89
  Q 95.27 23.06 95.33 22.43
  L 95.52 20.45
  Z"
/>
<path fill="#c51315" d="
  M 83.34 48.06
  Q 72.80 39.55 68.42 35.83
  Q 68.03 35.49 67.35 34.16
  Q 68.83 34.33 69.73 33.46
  Q 70.13 33.07 70.60 33.36
  Q 73.33 35.06 75.62 37.33
  A 0.73 0.33 65.6 0 1 75.70 37.40
  Q 78.27 39.34 80.49 41.26
  Q 81.44 42.07 81.70 42.95
  Q 81.83 43.37 82.24 43.25
  Q 82.39 43.21 82.47 43.09
  A 0.25 0.24 39.4 0 1 82.84 43.06
  Q 83.23 43.43 82.94 43.75
  Q 82.79 43.92 83.52 44.05
  Q 83.93 44.12 84.27 44.50
  Q 84.61 44.88 84.35 45.31
  Q 84.08 45.74 84.13 46.27
  Q 84.17 46.81 84.70 46.91
  L 85.17 47.00
  Q 85.95 47.16 85.19 47.42
  L 83.34 48.06
  Z"
/>
<path fill="#91160f" d="
  M 141.73 41.72
  Q 141.76 41.86 141.81 41.98
  Q 141.93 42.27 142.23 42.34
  Q 143.36 42.61 144.24 43.41
  Q 144.61 43.75 144.62 44.25
  Q 144.93 57.75 144.90 71.25
  Q 144.84 101.62 144.74 132.00
  Q 144.74 133.62 145.04 135.21
  Q 145.12 135.66 144.88 136.05
  L 142.97 139.11
  Q 141.17 138.21 141.17 136.75
  Q 141.15 89.88 141.17 43.00
  Q 141.17 42.29 141.73 41.72
  Z"
/>
<path fill="#91160f" d="
  M 120.76 42.19
  Q 120.98 42.60 120.98 42.75
  Q 121.02 58.00 120.97 73.25
  Q 120.97 74.93 119.12 75.75
  L 117.42 73.03
  Q 117.18 72.64 117.19 72.19
  L 117.25 43.32
  Q 117.26 42.83 117.73 42.75
  L 120.76 42.19
  Z"
/>
<path fill="#91160f" d="
  M 163.22 61.75
  L 163.24 88.43
  L 161.66 92.05
  A 0.83 0.81 -1.4 0 1 161.28 92.44
  Q 160.23 92.97 160.81 94.89
  Q 160.90 95.15 160.63 95.22
  L 160.12 95.36
  Q 159.86 95.43 159.84 95.15
  Q 159.13 78.38 159.54 61.75
  Q 159.60 59.41 161.70 58.33
  Q 161.91 58.22 162.03 58.42
  L 162.03 58.43
  Q 162.15 58.63 161.94 58.72
  Q 160.87 59.18 160.58 60.23
  Q 160.44 60.74 160.93 60.92
  L 163.22 61.75
  Z"
/>
<path fill="#91160f" d="
  M 105.14 66.55
  L 105.30 94.35
  Q 103.41 94.36 103.03 94.92
  Q 101.30 97.47 101.32 94.50
  L 101.52 60.23
  Q 101.53 59.36 102.18 59.93
  Q 103.61 61.16 103.88 63.08
  Q 103.95 63.57 104.13 64.02
  L 105.14 66.55
  Z"
/>
<path fill="#e00713" d="
  M 193.71 98.56
  Q 192.52 97.39 190.96 97.20
  Q 190.44 97.14 190.35 97.65
  Q 190.23 98.27 189.76 98.07
  A 0.40 0.39 36.0 0 0 189.36 98.13
  L 169.43 114.88
  A 0.94 0.94 0.0 0 1 167.88 114.16
  L 167.88 91.00
  Q 167.88 90.93 167.69 90.85
  Q 167.64 90.84 167.60 90.81
  Q 167.51 90.75 167.55 90.64
  Q 168.41 88.63 169.48 87.73
  Q 177.50 80.99 185.53 74.26
  Q 185.88 73.96 185.68 73.55
  L 184.28 70.76
  C 186.31 69.04 190.37 64.29 193.15 66.97
  Q 194.25 68.03 194.26 70.40
  Q 194.32 83.83 194.27 97.25
  Q 194.27 98.11 193.71 98.56
  Z"
/>
<path fill="#c51315" d="
  M 83.40 76.15
  Q 84.80 77.38 85.05 79.20
  Q 85.10 79.62 85.47 79.84
  Q 86.49 80.47 86.37 81.75
  Q 86.30 82.50 85.95 81.83
  L 85.77 81.51
  Q 85.75 81.47 85.71 81.45
  Q 83.44 80.66 81.87 79.01
  Q 80.63 77.70 79.63 77.04
  Q 78.22 76.09 76.93 74.92
  Q 76.64 74.67 76.27 74.76
  Q 76.14 74.80 76.01 74.83
  Q 75.81 74.88 75.75 74.68
  L 74.25 70.29
  Q 79.19 70.86 83.40 76.15
  Z"
/>
<path fill="#e00713" d="
  M 257.48 264.21
  Q 256.57 264.21 256.78 262.71
  A 0.53 0.53 0.0 0 0 255.91 262.24
  Q 255.48 262.61 254.92 262.72
  Q 254.45 262.82 254.21 263.23
  C 253.48 264.50 253.00 265.66 252.03 266.80
  Q 250.35 268.76 248.94 270.94
  C 248.29 271.95 247.40 272.33 246.57 273.20
  Q 246.17 273.61 246.74 273.52
  Q 251.49 272.76 254.81 275.83
  C 255.82 276.76 256.05 278.27 256.51 279.55
  Q 256.72 280.12 257.22 279.78
  L 262.20 276.38
  Q 262.23 354.63 262.19 432.50
  Q 262.18 442.31 257.68 449.76
  Q 255.41 453.50 248.95 458.94
  Q 217.49 485.38 186.00 511.77
  L 185.53 511.64
  Q 185.06 511.51 185.53 511.39
  L 185.99 511.27
  A 0.14 0.14 0.0 0 0 186.01 511.01
  L 185.46 510.76
  Q 185.12 510.60 185.12 510.22
  L 185.12 507.69
  Q 185.12 507.51 184.95 507.47
  L 184.52 507.36
  Q 184.24 507.29 184.36 507.02
  L 184.90 505.83
  Q 185.10 505.39 185.47 505.10
  Q 187.98 503.09 190.33 500.92
  C 191.27 500.05 192.81 499.37 193.71 497.98
  Q 193.80 497.84 194.07 497.88
  A 0.48 0.47 -67.5 0 0 194.52 497.69
  Q 195.87 495.84 197.92 494.76
  Q 199.05 494.17 197.79 494.29
  C 196.16 494.44 195.62 496.11 194.19 496.91
  Q 193.87 497.09 193.68 497.42
  Q 193.24 498.21 192.30 498.35
  Q 191.89 498.42 191.89 498.00
  L 191.89 414.26
  A 1.02 1.00 71.6 0 1 192.28 413.46
  Q 192.96 412.96 193.59 412.43
  C 194.27 411.86 194.42 411.00 195.49 410.59
  Q 195.94 410.42 196.29 410.07
  C 197.40 408.94 198.16 407.62 199.35 406.62
  Q 218.69 390.32 238.11 374.10
  Q 242.25 370.64 245.20 362.50
  Q 245.31 362.55 245.51 361.98
  C 248.87 352.61 247.81 342.14 247.84 332.36
  Q 247.86 325.44 246.80 322.78
  Q 244.83 317.83 239.38 315.63
  C 233.32 314.05 229.68 315.34 224.70 319.47
  Q 213.53 328.72 202.36 337.95
  Q 201.46 338.69 201.05 338.99
  A 1.07 1.07 0.0 0 1 199.38 337.98
  C 199.59 336.34 199.88 334.69 199.88 333.00
  Q 199.88 303.29 199.88 273.57
  Q 199.88 273.35 199.63 272.75
  Q 199.53 272.50 199.22 272.50
  A 0.25 0.25 0.0 0 1 199.03 272.08
  Q 202.90 267.86 207.53 264.53
  A 0.16 0.16 0.0 0 0 207.50 264.25
  Q 207.28 264.15 206.95 264.15
  Q 206.65 264.15 206.41 264.34
  Q 206.01 264.67 205.47 264.73
  A 0.58 0.58 0.0 0 1 204.84 264.08
  Q 205.22 261.21 204.01 259.79
  Q 218.87 247.40 233.74 234.75
  Q 237.01 231.98 239.70 225.83
  L 244.16 227.88
  Q 244.39 227.99 244.38 228.24
  Q 244.38 228.38 244.38 228.52
  A 0.17 0.17 0.0 0 0 244.71 228.59
  C 248.26 220.76 247.96 213.07 247.80 204.15
  Q 247.70 198.20 246.44 195.60
  Q 244.42 191.44 239.66 189.39
  Q 230.97 186.27 224.37 193.44
  C 223.26 194.65 221.82 195.27 220.58 196.33
  Q 212.86 202.95 205.09 209.52
  Q 204.26 210.23 202.97 210.95
  C 201.83 211.59 200.62 212.80 199.27 212.67
  Q 198.76 212.62 198.97 212.15
  Q 199.86 210.19 199.86 208.00
  Q 199.88 169.15 199.88 130.28
  Q 199.88 129.62 199.23 129.62
  L 198.35 129.62
  A 0.24 0.23 -63.7 0 1 198.21 129.20
  Q 200.66 127.34 202.72 125.03
  Q 203.29 124.39 202.49 124.72
  L 200.49 125.54
  Q 199.75 125.84 199.85 125.05
  Q 200.19 122.25 199.25 120.36
  Q 224.85 98.82 250.70 77.19
  C 255.25 73.38 262.11 76.83 262.11 83.00
  Q 262.22 166.75 262.20 250.50
  Q 262.19 258.54 257.48 264.21
  Z
  M 256.42 163.34
  Q 256.44 163.32 256.47 163.30
  Q 256.56 163.25 256.56 163.00
  L 256.63 82.14
  A 0.33 0.32 90.0 0 0 256.31 81.81
  L 256.00 81.81
  Q 255.88 81.81 255.88 81.94
  L 255.85 188.51
  Q 255.85 188.80 256.15 188.80
  L 256.42 188.80
  Q 256.62 188.80 256.62 188.60
  Q 256.62 176.26 256.67 164.00
  Q 256.67 163.63 256.43 163.42
  Q 256.37 163.37 256.42 163.34
  Z
  M 256.5110 234.4878
  A 0.32 0.32 0.0 0 0 256.1888 234.1700
  L 256.1288 234.1704
  A 0.32 0.32 0.0 0 0 255.8110 234.4926
  L 255.9290 251.3922
  A 0.32 0.32 0.0 0 0 256.2512 251.7100
  L 256.3112 251.7096
  A 0.32 0.32 0.0 0 0 256.6290 251.3874
  L 256.5110 234.4878
  Z"
/>
<path fill="#e00713" d="
  M 62.92 120.71
  Q 62.82 121.28 62.21 121.53
  Q 61.92 121.65 61.69 121.42
  Q 61.57 121.30 61.43 121.20
  Q 61.06 120.95 61.10 121.39
  Q 61.31 123.55 60.70 125.58
  Q 60.68 125.64 60.63 125.64
  Q 60.47 125.65 60.33 125.69
  Q 60.26 125.72 60.30 125.79
  Q 61.36 127.28 63.02 127.91
  Q 63.10 127.94 63.02 127.98
  Q 62.95 128.03 62.97 128.15
  Q 62.99 128.24 63.09 128.32
  Q 66.30 130.96 69.80 133.93
  Q 71.00 134.96 71.00 136.54
  L 71.00 220.14
  A 0.78 0.78 0.0 0 1 69.72 220.73
  Q 68.03 219.30 66.08 217.57
  Q 65.49 217.04 64.81 216.62
  C 63.15 215.60 61.71 213.43 60.05 212.15
  Q 56.50 209.41 56.15 209.10
  C 52.84 206.17 49.36 202.72 45.74 200.24
  C 43.92 198.99 42.60 197.23 40.77 195.93
  Q 38.79 194.52 37.46 193.26
  Q 35.47 191.38 33.22 189.80
  Q 33.07 189.70 32.97 189.77
  Q 32.91 189.81 32.87 189.75
  L 32.63 189.31
  Q 32.51 189.09 32.31 188.92
  Q 23.00 180.97 13.58 173.15
  C 10.64 170.72 9.46 168.25 7.59 165.31
  Q 7.31 164.88 6.83 165.03
  Q 4.49 165.71 2.39 167.32
  L 0.00 158.37
  L 0.00 82.02
  Q 2.23 75.46 7.62 76.12
  Q 10.07 76.42 13.32 79.13
  Q 38.17 99.87 62.92 120.71
  Z"
/>
<path fill="#c51315" d="
  M 256.43 163.42
  Q 256.67 163.63 256.67 164.00
  Q 256.62 176.26 256.62 188.60
  Q 256.62 188.80 256.42 188.80
  L 256.15 188.80
  Q 255.85 188.80 255.85 188.51
  L 255.88 81.94
  Q 255.88 81.81 256.00 81.81
  L 256.31 81.81
  A 0.33 0.32 -90.0 0 1 256.63 82.14
  L 256.56 163.00
  Q 256.56 163.25 256.47 163.30
  Q 256.44 163.32 256.42 163.34
  Q 256.37 163.37 256.43 163.42
  Z"
/>
<path fill="#91160f" d="
  M 112.63 100.53
  Q 112.85 114.73 112.74 129.00
  Q 112.73 130.98 110.14 132.74
  Q 110.93 130.82 108.56 128.40
  Q 108.70 128.24 108.95 128.17
  Q 109.31 128.07 109.31 127.70
  L 109.23 102.50
  A 1.28 1.00 -73.6 0 1 110.94 101.28
  Q 111.39 101.69 112.63 100.53
  Z"
/>
<path fill="#c51315" d="
  M 199.25 120.36
  Q 200.19 122.25 199.85 125.05
  Q 199.75 125.84 200.49 125.54
  L 202.49 124.72
  Q 203.29 124.39 202.72 125.03
  Q 200.66 127.34 198.21 129.20
  A 0.24 0.23 -63.7 0 0 198.35 129.62
  L 199.23 129.62
  Q 199.88 129.62 199.88 130.28
  Q 199.88 169.15 199.86 208.00
  Q 199.86 210.19 198.97 212.15
  Q 198.76 212.62 199.27 212.67
  C 200.62 212.80 201.83 211.59 202.97 210.95
  Q 204.26 210.23 205.09 209.52
  Q 212.86 202.95 220.58 196.33
  C 221.82 195.27 223.26 194.65 224.37 193.44
  Q 230.97 186.27 239.66 189.39
  L 237.60 194.61
  Q 233.38 193.37 230.76 195.55
  Q 200.84 220.52 171.01 245.58
  L 170.94 244.91
  Q 170.89 244.51 171.26 244.36
  Q 171.89 244.11 171.87 243.50
  A 1.36 0.17 86.0 0 1 171.91 242.75
  Q 172.12 241.92 171.87 241.12
  A 1.47 1.47 0.0 0 0 169.61 240.36
  Q 162.28 245.64 155.00 252.01
  Q 150.96 255.54 147.96 256.86
  Q 146.53 255.83 146.55 254.25
  Q 146.93 227.90 146.68 183.00
  Q 146.66 180.60 148.49 173.99
  Q 148.63 173.48 148.15 173.27
  L 143.47 171.18
  Q 146.04 165.09 149.32 162.32
  Q 174.13 141.34 199.25 120.36
  Z"
/>
<path fill="#c51315" d="
  M 62.92 120.71
  Q 87.67 141.39 112.32 162.18
  Q 116.32 165.55 118.54 171.66
  Q 116.70 172.04 115.20 172.95
  Q 114.75 173.22 114.24 173.13
  Q 113.96 173.08 113.73 173.15
  Q 113.15 173.32 113.36 173.88
  Q 115.05 178.41 115.09 182.62
  Q 115.37 210.84 115.09 252.06
  C 115.08 254.15 114.50 255.72 113.73 257.59
  L 90.76 238.31
  Q 90.35 237.96 90.21 238.48
  C 89.85 239.77 90.08 242.59 89.73 243.07
  Q 89.55 243.32 89.60 243.62
  L 89.75 244.50
  Q 48.90 210.37 8.18 176.07
  Q 4.88 173.28 2.39 167.32
  Q 4.49 165.71 6.83 165.03
  Q 7.31 164.88 7.59 165.31
  C 9.46 168.25 10.64 170.72 13.58 173.15
  Q 23.00 180.97 32.31 188.92
  Q 32.51 189.09 32.63 189.31
  L 32.87 189.75
  Q 32.91 189.81 32.97 189.77
  Q 33.07 189.70 33.22 189.80
  Q 35.47 191.38 37.46 193.26
  Q 38.79 194.52 40.77 195.93
  C 42.60 197.23 43.92 198.99 45.74 200.24
  C 49.36 202.72 52.84 206.17 56.15 209.10
  Q 56.50 209.41 60.05 212.15
  C 61.71 213.43 63.15 215.60 64.81 216.62
  Q 65.49 217.04 66.08 217.57
  Q 68.03 219.30 69.72 220.73
  A 0.78 0.78 0.0 0 0 71.00 220.14
  L 71.00 136.54
  Q 71.00 134.96 69.80 133.93
  Q 66.30 130.96 63.09 128.32
  Q 62.99 128.24 62.97 128.15
  Q 62.95 128.03 63.02 127.98
  Q 63.10 127.94 63.02 127.91
  Q 61.36 127.28 60.30 125.79
  Q 60.26 125.72 60.33 125.69
  Q 60.47 125.65 60.63 125.64
  Q 60.68 125.64 60.70 125.58
  Q 61.31 123.55 61.10 121.39
  Q 61.06 120.95 61.43 121.20
  Q 61.57 121.30 61.69 121.42
  Q 61.92 121.65 62.21 121.53
  Q 62.82 121.28 62.92 120.71
  Z"
/>
<path fill="#e00713" d="
  M 108.56 128.40
  Q 110.93 130.82 110.14 132.74
  Q 104.82 130.45 99.71 125.23
  C 99.61 124.36 98.59 123.13 99.38 122.17
  Q 99.78 121.68 100.29 122.04
  Q 100.58 122.24 100.84 121.92
  Q 101.00 121.72 101.00 121.98
  Q 101.00 122.14 101.00 122.30
  Q 101.00 122.40 101.08 122.46
  L 108.56 128.40
  Z"
/>
<ellipse fill="#1d1d1b" cx="0.00" cy="0.00" transform="translate(637.72,162.84) rotate(90.7)" rx="32.74" ry="31.86"/>
<path fill="#1d1d1b" d="
  M 1524.60 272.78
  Q 1540.76 276.04 1555.13 285.15
  C 1588.46 306.28 1594.37 356.46 1577.35 389.12
  C 1555.27 431.50 1511.61 433.22 1469.50 433.25
  Q 1429.50 433.27 1389.22 433.19
  Q 1387.79 433.18 1387.79 431.75
  L 1387.79 131.65
  A 0.83 0.83 0.0 0 1 1388.62 130.82
  Q 1433.73 130.58 1478.75 131.20
  C 1502.06 131.52 1525.00 135.66 1543.68 149.07
  C 1567.82 166.40 1579.74 198.93 1570.64 227.46
  C 1563.75 249.10 1545.72 264.77 1524.55 272.10
  Q 1523.34 272.52 1524.60 272.78
  Z
  M 1483.48 260.17
  C 1494.55 259.95 1508.59 256.53 1516.79 248.55
  C 1534.50 231.32 1536.35 202.66 1522.69 182.73
  C 1512.55 167.94 1496.78 162.63 1479.49 162.50
  Q 1452.31 162.30 1425.01 162.45
  Q 1424.47 162.46 1424.47 163.00
  L 1424.43 259.72
  Q 1424.43 260.18 1424.89 260.19
  Q 1468.90 260.45 1483.48 260.17
  Z
  M 1545.38 334.66
  C 1541.45 313.17 1528.54 297.67 1506.50 293.76
  Q 1495.16 291.75 1482.25 291.77
  Q 1453.56 291.83 1424.97 291.88
  A 0.37 0.37 0.0 0 0 1424.60 292.25
  L 1424.61 400.78
  A 0.69 0.69 0.0 0 0 1425.30 401.47
  Q 1458.55 401.53 1492.00 401.32
  Q 1505.40 401.23 1515.54 398.05
  C 1542.93 389.45 1550.04 360.11 1545.38 334.66
  Z"
/>
<path fill="#1d1d1b" d="
  M 2016.73 311.27
  Q 2016.00 310.38 2016.00 311.53
  L 2016.00 432.25
  A 1.01 1.00 -90.0 0 1 2015.00 433.26
  L 1980.69 433.26
  A 1.07 1.06 90.0 0 1 1979.63 432.19
  L 1979.63 138.26
  A 1.34 1.34 0.0 0 1 1980.74 136.94
  L 2014.49 130.97
  A 1.29 1.29 0.0 0 1 2016.00 132.24
  L 2016.00 306.31
  Q 2016.00 307.26 2016.62 306.55
  L 2103.31 207.84
  Q 2103.67 207.42 2104.23 207.42
  L 2146.72 207.42
  A 1.21 1.21 0.0 0 1 2147.81 208.11
  Q 2148.28 209.07 2147.35 210.09
  Q 2102.70 259.21 2058.18 308.41
  A 0.44 0.44 0.0 0 0 2058.17 308.98
  Q 2110.45 369.96 2162.80 431.04
  Q 2162.99 431.26 2163.04 431.51
  Q 2163.10 431.85 2163.06 432.05
  A 1.36 1.22 4.9 0 1 2161.75 433.04
  L 2116.40 433.04
  A 1.11 1.10 -19.3 0 1 2115.54 432.63
  L 2016.73 311.27
  Z"
/>
<path fill="#1d1d1b" d="
  M 524.71 173.52
  L 396.15 173.52
  A 0.90 0.89 7.6 0 1 395.28 172.39
  L 405.98 132.97
  A 1.50 1.50 0.0 0 1 407.43 131.86
  L 582.82 131.86
  A 1.21 1.20 -90.0 0 1 584.02 133.07
  L 584.02 170.63
  Q 584.02 171.17 583.74 171.63
  L 451.27 391.48
  A 0.25 0.25 0.0 0 0 451.49 391.86
  L 585.49 391.86
  A 1.26 1.26 0.0 0 1 586.69 393.49
  L 574.50 433.29
  A 1.08 1.06 8.4 0 1 573.47 434.04
  L 390.28 434.04
  A 1.02 1.01 -0.0 0 1 389.26 433.03
  L 389.26 396.53
  Q 389.26 395.99 389.54 395.53
  L 524.90 173.86
  A 0.22 0.22 0.0 0 0 524.71 173.52
  Z"
/>
<path fill="#1d1d1b" d="
  M 1205.21 242.22
  L 1182.72 242.22
  A 1.25 1.25 0.0 0 1 1181.47 240.97
  L 1181.47 208.05
  A 1.19 1.19 0.0 0 1 1182.66 206.86
  L 1205.19 206.86
  Q 1205.75 206.86 1205.75 206.30
  L 1205.75 155.98
  A 1.23 1.22 85.3 0 1 1206.77 154.77
  L 1253.96 146.62
  A 1.12 1.11 85.2 0 1 1255.26 147.72
  L 1255.27 206.76
  A 0.24 0.24 0.0 0 0 1255.51 207.00
  L 1306.83 207.00
  A 1.00 0.99 10.5 0 1 1307.76 208.35
  L 1295.11 241.29
  A 1.18 1.17 10.5 0 1 1294.01 242.04
  L 1255.07 242.04
  A 0.26 0.26 0.0 0 0 1254.81 242.30
  Q 1254.81 305.49 1254.77 368.75
  C 1254.76 381.99 1254.54 400.49 1272.01 403.02
  Q 1286.86 405.17 1300.53 399.58
  A 1.16 1.16 0.0 0 1 1302.11 400.41
  L 1308.16 428.82
  A 1.21 1.20 -18.8 0 1 1307.50 430.16
  C 1276.80 444.57 1223.56 447.48 1209.62 407.39
  Q 1205.88 396.65 1205.87 384.00
  Q 1205.81 313.35 1205.70 242.70
  Q 1205.70 242.22 1205.21 242.22
  Z"
/>
<path fill="#91160f" d="
  M 143.47 171.18
  L 148.15 173.27
  Q 148.63 173.48 148.49 173.99
  Q 146.66 180.60 146.68 183.00
  Q 146.93 227.90 146.55 254.25
  Q 146.53 255.83 147.96 256.86
  L 145.44 261.80
  Q 141.19 260.09 141.18 256.00
  Q 141.12 218.13 141.19 180.25
  Q 141.20 176.55 143.47 171.18
  Z"
/>
<path fill="#91160f" d="
  M 118.54 171.66
  Q 120.60 177.32 120.61 183.25
  Q 120.64 218.37 120.68 253.50
  Q 120.68 259.79 117.83 267.64
  Q 116.74 262.30 113.73 257.59
  C 114.50 255.72 115.08 254.15 115.09 252.06
  Q 115.37 210.84 115.09 182.62
  Q 115.05 178.41 113.36 173.88
  Q 113.15 173.32 113.73 173.15
  Q 113.96 173.08 114.24 173.13
  Q 114.75 173.22 115.20 172.95
  Q 116.70 172.04 118.54 171.66
  Z"
/>
<path fill="#91160f" d="
  M 239.66 189.39
  Q 244.42 191.44 246.44 195.60
  Q 247.70 198.20 247.80 204.15
  C 247.96 213.07 248.26 220.76 244.71 228.59
  A 0.17 0.17 0.0 0 1 244.38 228.52
  Q 244.38 228.38 244.38 228.24
  Q 244.39 227.99 244.16 227.88
  L 239.70 225.83
  C 242.97 217.70 242.01 208.86 241.99 200.49
  Q 241.98 196.57 237.60 194.61
  L 239.66 189.39
  Z"
/>
<path fill="#1d1d1b" d="
  M 924.73 426.73
  Q 924.72 425.97 924.10 426.41
  C 904.11 440.69 881.36 443.13 857.51 439.18
  C 830.07 434.64 809.68 417.84 804.51 389.73
  C 799.14 360.58 807.24 331.61 832.57 314.81
  C 859.38 297.01 894.66 295.98 925.61 296.27
  Q 926.13 296.27 926.14 295.74
  Q 926.28 284.27 925.90 273.02
  C 925.58 263.69 923.67 253.05 915.28 247.79
  C 906.75 242.44 891.99 243.22 881.99 245.50
  C 864.59 249.48 847.76 257.50 833.29 267.91
  Q 830.18 270.16 830.88 266.38
  L 839.28 221.23
  A 0.88 0.84 -7.8 0 1 839.77 220.61
  Q 878.36 203.05 920.75 208.02
  Q 929.17 209.00 937.76 212.24
  C 960.07 220.64 973.55 237.74 974.79 262.14
  Q 975.00 266.26 974.99 273.36
  Q 974.84 356.59 974.92 439.61
  A 1.16 1.16 0.0 0 1 973.76 440.78
  L 925.75 440.78
  A 1.03 1.02 -90.0 0 1 924.73 439.75
  L 924.73 426.73
  Z
  M 875.74 402.29
  C 894.51 407.81 913.60 397.33 924.21 381.87
  Q 924.48 381.48 924.48 381.00
  L 924.74 331.49
  Q 924.74 330.96 924.20 330.92
  Q 904.92 329.77 886.07 334.04
  C 863.37 339.19 855.39 353.39 857.14 375.99
  C 858.03 387.57 864.25 398.91 875.74 402.29
  Z"
/>
<path fill="#1d1d1b" d="
  M 1117.11 295.67
  C 1117.23 283.95 1118.67 264.17 1109.81 255.05
  C 1101.92 246.93 1086.97 247.44 1077.02 249.19
  C 1057.44 252.62 1039.42 261.61 1023.25 272.91
  A 1.36 1.36 0.0 0 1 1021.30 272.47
  Q 1021.25 272.38 1021.36 271.75
  Q 1025.77 246.50 1030.18 221.48
  A 1.32 1.31 -7.6 0 1 1030.92 220.52
  C 1059.24 207.58 1095.23 202.23 1125.48 211.18
  C 1146.57 217.42 1163.13 234.68 1165.11 257.12
  Q 1165.85 265.56 1165.84 274.00
  Q 1165.72 356.72 1165.76 439.50
  A 1.24 1.24 0.0 0 1 1164.52 440.74
  L 1116.53 440.74
  A 0.98 0.98 0.0 0 1 1115.55 439.76
  L 1115.56 426.58
  A 0.32 0.32 0.0 0 0 1115.06 426.31
  C 1097.81 438.66 1080.18 441.64 1059.26 440.48
  C 1022.50 438.44 995.39 416.81 994.06 378.50
  C 993.59 365.01 995.11 352.36 1000.87 340.45
  C 1018.08 304.80 1063.63 296.55 1098.76 296.35
  Q 1107.65 296.31 1116.56 296.22
  Q 1117.11 296.21 1117.11 295.67
  Z
  M 1095.06 399.35
  Q 1107.55 393.51 1115.10 381.92
  A 1.71 1.65 -29.5 0 0 1115.37 381.01
  L 1115.38 331.52
  Q 1115.38 331.01 1114.86 330.95
  Q 1113.83 330.85 1112.00 330.81
  C 1090.46 330.32 1056.15 331.52 1049.32 357.26
  C 1047.00 365.99 1046.99 377.78 1050.31 386.48
  C 1057.57 405.56 1078.77 406.97 1095.06 399.35
  Z"
/>
<path fill="#1d1d1b" d="
  M 662.70 208.14
  L 662.70 432.98
  A 1.24 1.24 0.0 0 1 661.46 434.22
  L 613.55 434.22
  A 1.24 1.24 0.0 0 1 612.31 432.98
  L 612.31 216.80
  A 1.24 1.24 0.0 0 1 613.33 215.58
  L 661.24 206.92
  A 1.24 1.24 0.0 0 1 662.70 208.14
  Z"
/>
<path fill="#1d1d1b" d="
  M 746.70 245.18
  C 755.90 233.66 766.49 222.59 779.49 217.29
  C 791.08 212.57 805.55 211.13 817.26 216.20
  A 1.20 1.18 -73.4 0 1 817.96 217.51
  L 809.83 262.49
  A 1.12 1.12 0.0 0 1 808.27 263.32
  C 801.75 260.43 793.45 257.57 786.26 258.42
  C 770.01 260.33 756.42 270.77 750.95 286.19
  Q 749.81 289.39 749.81 293.73
  Q 749.81 363.48 749.81 433.08
  A 1.06 1.06 0.0 0 1 748.75 434.14
  L 701.03 434.14
  A 1.11 1.11 0.0 0 1 699.92 433.03
  L 699.91 216.03
  A 1.44 1.43 -5.0 0 1 701.10 214.62
  L 744.46 207.01
  Q 746.19 206.70 746.19 208.46
  L 746.18 245.00
  Q 746.18 245.83 746.70 245.18
  Z"
/>
<path fill="#1d1d1b" d="
  M 2411.99 438.07
  C 2388.05 436.15 2363.39 428.89 2342.62 416.67
  A 0.92 0.92 0.0 0 1 2342.26 415.48
  L 2354.39 390.92
  Q 2355.14 389.40 2356.62 390.22
  C 2375.19 400.52 2394.92 408.00 2416.40 410.36
  C 2435.74 412.50 2456.59 406.84 2463.99 387.23
  C 2466.86 379.62 2467.05 370.42 2464.51 362.74
  C 2460.30 349.99 2447.11 342.90 2433.98 340.10
  Q 2415.62 336.18 2397.24 332.27
  Q 2390.03 330.73 2380.67 326.10
  C 2358.98 315.39 2349.39 294.77 2350.31 271.26
  C 2352.01 227.88 2389.24 206.76 2429.00 207.22
  Q 2463.62 207.63 2494.23 224.08
  A 0.93 0.93 0.0 0 1 2494.63 225.30
  L 2483.00 249.78
  A 1.31 1.30 -63.6 0 1 2481.23 250.38
  C 2463.99 241.60 2445.25 234.91 2425.76 235.76
  C 2404.56 236.69 2388.58 251.32 2390.64 273.51
  C 2392.12 289.53 2405.72 296.02 2419.41 299.27
  Q 2435.32 303.04 2451.25 306.77
  C 2483.89 314.43 2507.75 333.90 2506.06 370.24
  C 2503.75 420.06 2457.23 441.70 2411.99 438.07
  Z"
/>
<path fill="#1d1d1b" d="
  M 1725.91 415.29
  C 1711.73 428.48 1694.09 437.07 1674.50 438.17
  C 1638.90 440.17 1603.47 426.31 1598.05 386.48
  C 1594.43 359.96 1603.38 334.74 1625.36 318.86
  C 1653.44 298.57 1694.32 294.82 1727.66 296.54
  Q 1728.08 296.56 1728.08 296.14
  Q 1728.19 282.26 1727.98 268.50
  C 1727.75 253.47 1717.47 241.48 1702.99 238.79
  Q 1695.73 237.44 1687.00 238.32
  Q 1652.07 241.81 1624.32 263.23
  A 1.48 1.47 -39.0 0 1 1622.29 263.02
  Q 1622.14 262.85 1622.25 262.25
  Q 1625.53 243.40 1628.84 224.57
  A 0.87 0.85 -9.6 0 1 1629.28 223.96
  Q 1658.60 208.84 1691.74 207.53
  C 1712.45 206.71 1734.49 210.61 1749.09 226.07
  C 1760.11 237.74 1762.11 251.18 1762.10 266.75
  Q 1762.05 352.12 1762.03 437.38
  A 1.04 1.03 -0.0 0 1 1760.99 438.41
  L 1727.57 438.42
  A 1.16 1.15 -90.0 0 1 1726.42 437.26
  L 1726.42 415.51
  A 0.30 0.30 0.0 0 0 1725.91 415.29
  Z
  M 1641.18 351.47
  C 1635.73 365.75 1635.40 390.16 1647.10 401.39
  C 1654.45 408.44 1665.20 411.25 1675.59 410.74
  C 1696.88 409.69 1715.73 397.53 1725.62 378.52
  A 2.78 2.67 60.0 0 0 1725.93 377.25
  L 1725.93 322.73
  A 0.42 0.42 0.0 0 0 1725.54 322.31
  Q 1699.31 319.87 1673.69 326.01
  C 1659.09 329.51 1646.39 337.79 1641.18 351.47
  Z"
/>
<path fill="#1d1d1b" d="
  M 1825.07 239.96
  C 1842.68 222.30 1866.02 209.03 1891.40 208.21
  C 1919.55 207.29 1945.74 226.70 1950.72 254.80
  Q 1951.70 260.36 1951.70 274.75
  Q 1951.67 353.54 1951.69 432.14
  A 1.28 1.27 -0.0 0 1 1950.41 433.41
  L 1916.52 433.41
  A 1.25 1.25 0.0 0 1 1915.27 432.16
  Q 1915.31 352.98 1915.25 273.50
  Q 1915.25 268.33 1913.52 260.76
  C 1909.85 244.65 1893.53 238.38 1878.26 241.02
  C 1858.21 244.49 1839.77 255.70 1825.51 269.75
  A 1.06 1.05 68.2 0 0 1825.19 270.51
  L 1825.19 431.76
  Q 1825.19 433.22 1823.74 433.22
  L 1790.25 433.22
  Q 1788.79 433.22 1788.79 431.75
  L 1788.79 214.65
  A 1.34 1.34 0.0 0 1 1789.89 213.33
  L 1823.57 207.36
  A 0.90 0.90 0.0 0 1 1824.63 208.25
  L 1824.65 239.79
  Q 1824.66 240.38 1825.07 239.96
  Z"
/>
<path fill="#1d1d1b" d="
  M 2284.34 415.24
  C 2263.90 434.77 2239.36 440.97 2211.51 437.31
  C 2184.26 433.74 2162.37 418.10 2157.09 389.99
  C 2151.97 362.69 2160.97 335.65 2183.56 319.07
  C 2211.19 298.80 2252.26 294.91 2286.00 296.50
  Q 2286.50 296.52 2286.52 296.02
  Q 2286.98 276.99 2286.36 266.76
  Q 2285.67 255.29 2277.90 247.35
  C 2268.06 237.28 2253.93 237.07 2241.00 238.85
  Q 2208.58 243.32 2182.86 263.21
  A 1.50 1.49 35.8 0 1 2181.43 263.44
  Q 2180.51 263.11 2180.71 261.98
  Q 2184.09 243.34 2187.40 224.69
  A 1.29 1.25 75.1 0 1 2187.81 223.96
  Q 2188.65 223.20 2189.60 222.74
  C 2218.96 208.59 2261.17 200.45 2291.98 214.76
  C 2306.13 221.33 2317.21 234.29 2319.66 249.80
  Q 2320.81 257.04 2320.81 266.50
  Q 2320.78 351.99 2320.77 437.27
  A 1.15 1.15 0.0 0 1 2319.62 438.42
  L 2285.93 438.41
  A 0.98 0.98 0.0 0 1 2284.95 437.43
  L 2284.94 415.49
  A 0.36 0.35 -22.0 0 0 2284.34 415.24
  Z
  M 2200.44 350.20
  C 2194.18 364.02 2194.05 389.57 2205.33 400.91
  C 2215.11 410.74 2231.20 412.65 2244.25 409.43
  Q 2271.20 402.80 2284.15 378.51
  A 2.78 2.67 60.0 0 0 2284.46 377.24
  L 2284.56 322.75
  Q 2284.56 322.37 2284.18 322.34
  Q 2260.59 320.11 2237.36 324.73
  C 2221.51 327.89 2207.42 334.78 2200.44 350.20
  Z"
/>
<path fill="#1d1d1b" d="
  M 2560.00 207.49
  L 2560.00 433.12
  L 2525.22 433.18
  Q 2523.82 433.18 2523.82 431.78
  L 2523.82 214.76
  Q 2523.82 213.59 2524.97 213.39
  L 2560.00 207.49
  Z"
/>
<path fill="#e00713" d="
  M 64.03 264.96
  Q 64.17 265.62 64.05 266.10
  Q 63.96 266.48 63.62 266.28
  Q 63.52 266.21 63.42 266.12
  Q 63.10 265.81 63.10 266.25
  L 63.10 269.73
  Q 63.10 270.23 62.66 270.00
  Q 62.25 269.79 62.12 269.42
  Q 61.96 268.98 61.53 269.18
  Q 61.26 269.31 60.91 269.28
  Q 60.18 269.22 60.75 269.69
  L 70.10 277.42
  Q 70.45 277.71 70.32 278.15
  Q 70.13 278.80 70.13 279.50
  Q 70.11 312.50 70.11 345.03
  A 0.96 0.96 0.0 0 1 68.53 345.77
  Q 41.96 323.39 15.52 301.15
  C 11.86 298.07 9.49 295.50 7.66 291.51
  A 0.56 0.56 0.0 0 0 6.89 291.25
  L 2.46 293.59
  Q 0.26 288.01 0.25 285.00
  Q 0.16 255.13 0.24 225.25
  Q 0.24 223.74 1.64 222.07
  C 4.09 219.15 8.39 218.31 11.42 220.84
  Q 37.75 242.88 64.03 264.96
  Z"
/>
<rect fill="#c51315" x="-0.35" y="-8.77" transform="translate(256.22,242.94) rotate(-0.4)" width="0.70" height="17.54" rx="0.32"/>
<path fill="#e00713" d="
  M 113.73 257.59
  Q 116.74 262.30 117.83 267.64
  Q 117.13 270.90 115.18 274.11
  Q 113.74 264.38 105.84 257.94
  L 89.75 244.50
  L 89.60 243.62
  Q 89.55 243.32 89.73 243.07
  C 90.08 242.59 89.85 239.77 90.21 238.48
  Q 90.35 237.96 90.76 238.31
  L 113.73 257.59
  Z"
/>
<path fill="#e00713" d="
  M 171.01 245.58
  Q 170.81 246.09 171.09 245.96
  Q 170.75 245.89 170.52 245.87
  Q 170.27 245.86 170.02 246.08
  Q 160.89 253.84 151.60 261.62
  Q 148.56 263.25 145.44 261.80
  L 147.96 256.86
  Q 150.96 255.54 155.00 252.01
  Q 162.28 245.64 169.61 240.36
  A 1.47 1.47 0.0 0 1 171.87 241.12
  Q 172.12 241.92 171.91 242.75
  A 1.36 0.17 86.0 0 0 171.87 243.50
  Q 171.89 244.11 171.26 244.36
  Q 170.89 244.51 170.94 244.91
  L 171.01 245.58
  Z"
/>
<path fill="#91160f" d="
  M 171.09 245.96
  L 171.07 287.48
  L 151.62 303.62
  L 151.60 261.62
  Q 160.89 253.84 170.02 246.08
  Q 170.27 245.86 170.52 245.87
  Q 170.75 245.89 171.09 245.96
  Z"
/>
<path fill="#c51315" d="
  M 105.84 257.94
  Q 113.74 264.38 115.18 274.11
  C 111.36 279.93 103.67 285.41 96.11 291.44
  Q 95.60 291.84 96.13 292.21
  Q 109.95 301.84 118.79 313.90
  Q 116.65 315.84 115.05 316.52
  C 114.60 316.71 114.25 316.58 113.78 316.63
  Q 113.25 316.69 113.44 317.18
  Q 115.17 321.52 115.18 323.25
  Q 115.38 351.91 115.25 380.57
  Q 115.25 380.64 115.05 382.92
  Q 114.79 385.83 116.92 388.43
  Q 112.61 390.10 109.37 387.38
  Q 77.65 360.75 45.95 334.22
  Q 45.58 333.91 45.21 334.22
  L 15.74 358.97
  Q 15.30 359.34 15.74 359.72
  Q 64.25 400.38 112.70 441.03
  Q 115.74 443.58 118.64 449.93
  L 114.15 452.27
  Q 113.76 452.48 113.84 452.91
  C 114.24 455.11 115.22 457.02 115.24 459.24
  Q 115.48 496.81 115.25 534.38
  Q 115.25 534.82 115.05 535.20
  Q 114.70 535.84 114.85 536.51
  Q 115.28 538.48 116.92 540.56
  Q 112.75 542.39 110.25 540.31
  Q 85.01 519.31 60.04 498.25
  Q 61.58 497.66 61.05 494.11
  Q 60.97 493.54 61.55 493.54
  Q 62.09 493.55 62.20 493.03
  Q 62.29 492.62 62.61 492.89
  L 67.65 497.22
  Q 70.11 499.33 70.11 496.09
  L 70.11 414.78
  Q 70.11 414.42 70.47 414.36
  L 71.00 414.27
  Q 71.40 414.20 71.08 413.94
  Q 68.89 412.24 67.18 410.06
  Q 66.88 409.69 66.44 409.51
  C 65.01 408.93 64.15 407.50 62.82 406.90
  Q 62.38 406.70 62.11 406.32
  Q 61.01 404.81 59.52 403.76
  C 57.02 402.02 55.93 401.02 54.18 399.14
  Q 53.85 398.78 53.39 398.61
  Q 52.42 398.25 51.71 397.55
  Q 50.54 396.41 50.13 396.10
  C 49.29 395.45 48.72 394.65 47.89 394.05
  Q 45.18 392.09 42.73 389.82
  Q 41.45 388.63 38.45 386.34
  Q 36.24 384.66 34.48 382.46
  Q 34.40 382.37 34.31 382.44
  Q 34.21 382.52 34.03 382.54
  Q 33.95 382.55 33.88 382.50
  Q 29.46 378.73 24.98 375.02
  Q 23.69 373.96 23.36 373.37
  A 0.92 0.90 3.7 0 0 23.09 373.07
  C 19.34 370.33 16.09 367.51 12.56 364.56
  C 10.93 363.20 9.42 361.30 7.69 359.82
  Q 7.44 359.61 7.17 359.77
  L 6.88 359.93
  Q 6.59 360.09 6.46 359.79
  L 2.66 350.54
  Q 3.46 348.64 4.27 345.98
  Q 5.32 342.56 9.61 338.89
  Q 19.81 330.16 30.08 321.53
  Q 30.47 321.20 30.08 320.88
  Q 19.16 311.72 8.27 302.52
  Q 4.94 299.71 2.46 293.59
  L 6.89 291.25
  A 0.56 0.56 0.0 0 1 7.66 291.51
  C 9.49 295.50 11.86 298.07 15.52 301.15
  Q 41.96 323.39 68.53 345.77
  A 0.96 0.96 0.0 0 0 70.11 345.03
  Q 70.11 312.50 70.13 279.50
  Q 70.13 278.80 70.32 278.15
  Q 70.45 277.71 70.10 277.42
  L 60.75 269.69
  Q 60.18 269.22 60.91 269.28
  Q 61.26 269.31 61.53 269.18
  Q 61.96 268.98 62.12 269.42
  Q 62.25 269.79 62.66 270.00
  Q 63.10 270.23 63.10 269.73
  L 63.10 266.25
  Q 63.10 265.81 63.42 266.12
  Q 63.52 266.21 63.62 266.28
  Q 63.96 266.48 64.05 266.10
  Q 64.17 265.62 64.03 264.96
  L 80.35 278.64
  Q 80.74 278.96 81.13 278.64
  L 105.84 257.94
  Z"
/>
<path fill="#c51315" d="
  M 204.01 259.79
  Q 205.22 261.21 204.84 264.08
  A 0.58 0.58 0.0 0 0 205.47 264.73
  Q 206.01 264.67 206.41 264.34
  Q 206.65 264.15 206.95 264.15
  Q 207.28 264.15 207.50 264.25
  A 0.16 0.16 0.0 0 1 207.53 264.53
  Q 202.90 267.86 199.03 272.08
  A 0.25 0.25 0.0 0 0 199.22 272.50
  Q 199.53 272.50 199.63 272.75
  Q 199.88 273.35 199.88 273.57
  Q 199.88 303.29 199.88 333.00
  C 199.88 334.69 199.59 336.34 199.38 337.98
  A 1.07 1.07 0.0 0 0 201.05 338.99
  Q 201.46 338.69 202.36 337.95
  Q 213.53 328.72 224.70 319.47
  C 229.68 315.34 233.32 314.05 239.38 315.63
  Q 239.23 318.18 237.32 320.91
  Q 233.42 319.66 231.10 321.60
  Q 200.81 346.95 171.04 371.99
  L 151.58 388.26
  Q 148.20 389.64 145.28 388.28
  L 147.36 384.23
  Q 147.50 383.96 147.78 383.83
  Q 147.89 383.77 148.01 383.73
  Q 148.87 383.40 147.73 383.36
  Q 146.57 383.31 146.58 381.87
  Q 146.76 354.69 146.74 327.50
  Q 146.73 323.40 148.56 317.23
  Q 148.72 316.72 148.23 316.49
  L 143.57 314.30
  Q 145.34 310.21 148.13 307.12
  Q 150.03 305.00 151.62 303.62
  L 171.07 287.48
  L 204.01 259.79
  Z"
/>
<path fill="#c51315" d="
  M 257.48 264.21
  L 251.52 270.41
  Q 251.27 270.66 251.62 270.72
  Q 251.90 270.77 252.17 270.54
  Q 252.44 270.31 252.79 270.25
  Q 260.73 268.83 262.20 276.38
  L 257.22 279.78
  Q 256.72 280.12 256.51 279.55
  C 256.05 278.27 255.82 276.76 254.81 275.83
  Q 251.49 272.76 246.74 273.52
  Q 246.17 273.61 246.57 273.20
  C 247.40 272.33 248.29 271.95 248.94 270.94
  Q 250.35 268.76 252.03 266.80
  C 253.00 265.66 253.48 264.50 254.21 263.23
  Q 254.45 262.82 254.92 262.72
  Q 255.48 262.61 255.91 262.24
  A 0.53 0.53 0.0 0 1 256.78 262.71
  Q 256.57 264.21 257.48 264.21
  Z"
/>
<path fill="#91160f" d="
  M 143.57 314.30
  L 148.23 316.49
  Q 148.72 316.72 148.56 317.23
  Q 146.73 323.40 146.74 327.50
  Q 146.76 354.69 146.58 381.87
  Q 146.57 383.31 147.73 383.36
  Q 148.87 383.40 148.01 383.73
  Q 147.89 383.77 147.78 383.83
  Q 147.50 383.96 147.36 384.23
  L 145.28 388.28
  Q 141.18 386.38 141.18 382.00
  Q 141.12 352.88 141.20 323.75
  Q 141.21 319.49 143.57 314.30
  Z"
/>
<path fill="#91160f" d="
  M 118.79 313.90
  Q 121.00 321.08 121.02 326.00
  Q 121.08 338.06 121.02 380.73
  C 121.02 384.38 120.18 386.92 116.92 388.43
  Q 114.79 385.83 115.05 382.92
  Q 115.25 380.64 115.25 380.57
  Q 115.38 351.91 115.18 323.25
  Q 115.17 321.52 113.44 317.18
  Q 113.25 316.69 113.78 316.63
  C 114.25 316.58 114.60 316.71 115.05 316.52
  Q 116.65 315.84 118.79 313.90
  Z"
/>
<path fill="#91160f" d="
  M 239.38 315.63
  Q 244.83 317.83 246.80 322.78
  Q 247.86 325.44 247.84 332.36
  C 247.81 342.14 248.87 352.61 245.51 361.98
  Q 245.31 362.55 245.20 362.50
  Q 243.36 363.30 242.12 362.25
  Q 241.76 361.95 241.30 361.86
  L 239.56 361.53
  Q 241.81 356.06 241.95 351.75
  Q 242.11 346.69 241.97 328.98
  C 241.94 325.00 240.86 322.51 237.32 320.91
  Q 239.23 318.18 239.38 315.63
  Z"
/>
<path fill="#e00713" d="
  M 2.66 350.54
  L 6.46 359.79
  Q 6.59 360.09 6.88 359.93
  L 7.17 359.77
  Q 7.44 359.61 7.69 359.82
  C 9.42 361.30 10.93 363.20 12.56 364.56
  C 16.09 367.51 19.34 370.33 23.09 373.07
  A 0.92 0.90 3.7 0 1 23.36 373.37
  Q 23.69 373.96 24.98 375.02
  Q 29.46 378.73 33.88 382.50
  Q 33.95 382.55 34.03 382.54
  Q 34.21 382.52 34.31 382.44
  Q 34.40 382.37 34.48 382.46
  Q 36.24 384.66 38.45 386.34
  Q 41.45 388.63 42.73 389.82
  Q 45.18 392.09 47.89 394.05
  C 48.72 394.65 49.29 395.45 50.13 396.10
  Q 50.54 396.41 51.71 397.55
  Q 52.42 398.25 53.39 398.61
  Q 53.85 398.78 54.18 399.14
  C 55.93 401.02 57.02 402.02 59.52 403.76
  Q 61.01 404.81 62.11 406.32
  Q 62.38 406.70 62.82 406.90
  C 64.15 407.50 65.01 408.93 66.44 409.51
  Q 66.88 409.69 67.18 410.06
  Q 68.89 412.24 71.08 413.94
  Q 71.40 414.20 71.00 414.27
  L 70.47 414.36
  Q 70.11 414.42 70.11 414.78
  L 70.11 496.09
  Q 70.11 499.33 67.65 497.22
  L 62.61 492.89
  Q 62.29 492.62 62.20 493.03
  Q 62.09 493.55 61.55 493.54
  Q 60.97 493.54 61.05 494.11
  Q 61.58 497.66 60.04 498.25
  Q 36.63 478.65 13.34 459.10
  Q 6.67 453.50 4.39 449.72
  C 1.03 444.16 0.25 438.96 0.23 431.89
  Q 0.18 398.45 0.23 365.00
  Q 0.24 358.77 2.66 350.54
  Z"
/>
<path fill="#c51315" d="
  M 239.56 361.53
  L 241.30 361.86
  Q 241.76 361.95 242.12 362.25
  Q 243.36 363.30 245.20 362.50
  Q 242.25 370.64 238.11 374.10
  Q 218.69 390.32 199.35 406.62
  C 198.16 407.62 197.40 408.94 196.29 410.07
  Q 195.94 410.42 195.49 410.59
  C 194.42 411.00 194.27 411.86 193.59 412.43
  Q 192.96 412.96 192.28 413.46
  A 1.02 1.00 71.6 0 0 191.89 414.26
  L 191.89 498.00
  Q 191.89 498.42 192.30 498.35
  Q 193.24 498.21 193.68 497.42
  Q 193.87 497.09 194.19 496.91
  C 195.62 496.11 196.16 494.44 197.79 494.29
  Q 199.05 494.17 197.92 494.76
  Q 195.87 495.84 194.52 497.69
  A 0.48 0.47 -67.5 0 1 194.07 497.88
  Q 193.80 497.84 193.71 497.98
  C 192.81 499.37 191.27 500.05 190.33 500.92
  Q 187.98 503.09 185.47 505.10
  Q 185.10 505.39 184.90 505.83
  L 184.36 507.02
  Q 184.24 507.29 184.52 507.36
  L 184.95 507.47
  Q 185.12 507.51 185.12 507.69
  L 185.12 510.22
  Q 185.12 510.60 185.46 510.76
  L 186.01 511.01
  A 0.14 0.14 0.0 0 1 185.99 511.27
  L 185.53 511.39
  Q 185.06 511.51 185.53 511.64
  L 186.00 511.77
  Q 169.08 526.09 152.00 540.20
  Q 149.18 542.53 145.23 540.48
  Q 146.60 538.81 147.21 536.84
  Q 147.33 536.45 147.71 536.27
  Q 147.94 536.16 148.08 535.93
  Q 148.36 535.50 147.84 535.47
  Q 146.76 535.41 146.76 534.25
  Q 146.85 498.00 146.84 461.75
  Q 146.84 458.32 148.54 452.53
  Q 148.69 452.01 148.15 452.07
  Q 146.47 452.27 147.55 451.85
  Q 147.99 451.95 148.32 451.83
  Q 148.59 451.72 148.80 451.29
  Q 151.18 446.36 153.09 444.83
  Q 162.10 437.58 170.66 429.78
  C 172.24 428.34 172.21 427.23 172.12 425.26
  Q 172.06 424.02 170.87 424.39
  Q 170.44 424.52 169.45 424.35
  Q 170.48 423.83 171.09 422.80
  Q 202.44 396.56 233.67 370.17
  Q 236.82 367.51 239.56 361.53
  Z"
/>
<path fill="#91160f" d="
  M 171.04 371.99
  L 171.09 422.80
  Q 170.48 423.83 169.45 424.35
  L 151.60 439.19
  L 151.58 388.26
  L 171.04 371.99
  Z"
/>
<path fill="#e00713" d="
  M 147.55 451.85
  Q 145.76 450.66 143.40 450.10
  Q 146.44 443.20 151.60 439.19
  L 169.45 424.35
  Q 170.44 424.52 170.87 424.39
  Q 172.06 424.02 172.12 425.26
  C 172.21 427.23 172.24 428.34 170.66 429.78
  Q 162.10 437.58 153.09 444.83
  Q 151.18 446.36 148.80 451.29
  Q 148.59 451.72 148.32 451.83
  Q 147.99 451.95 147.55 451.85
  Z"
/>
<path fill="#91160f" d="
  M 118.64 449.93
  Q 121.09 455.17 121.10 461.12
  Q 121.17 497.18 121.13 533.25
  Q 121.13 538.78 116.92 540.56
  Q 115.28 538.48 114.85 536.51
  Q 114.70 535.84 115.05 535.20
  Q 115.25 534.82 115.25 534.38
  Q 115.48 496.81 115.24 459.24
  C 115.22 457.02 114.24 455.11 113.84 452.91
  Q 113.76 452.48 114.15 452.27
  L 118.64 449.93
  Z"
/>
<path fill="#91160f" d="
  M 143.40 450.10
  Q 145.76 450.66 147.55 451.85
  Q 146.47 452.27 148.15 452.07
  Q 148.69 452.01 148.54 452.53
  Q 146.84 458.32 146.84 461.75
  Q 146.85 498.00 146.76 534.25
  Q 146.76 535.41 147.84 535.47
  Q 148.36 535.50 148.08 535.93
  Q 147.94 536.16 147.71 536.27
  Q 147.33 536.45 147.21 536.84
  Q 146.60 538.81 145.23 540.48
  Q 141.21 538.50 141.21 534.50
  Q 141.19 497.13 141.21 459.75
  Q 141.22 455.33 143.40 450.10
  Z"
/>
</svg>
