<svg width="99" height="99" viewBox="0 0 99 99" fill="none" xmlns="http://www.w3.org/2000/svg">
	<path d="M90.75 47.1446V74.25C90.75 76.438 89.8808 78.5365 88.3336 80.0836C86.7865 81.6308 84.688 82.5 82.5 82.5H28.875C26.687 82.5 24.5885 81.6308 23.0414 80.0836C21.4942 78.5365 20.625 76.438 20.625 74.25V68.0625M90.75 47.1446V41.25C90.75 39.062 89.8808 36.9635 88.3336 35.4164C86.7865 33.8692 84.688 33 82.5 33H78.375M90.75 47.1446H78.375" stroke="#2563eb" stroke-width="1.5" stroke-linecap="round" stroke-linejoin="round"/>
	<path d="M78.375 33V59.8125C78.375 62.0005 77.5058 64.099 75.9586 65.6461C74.4115 67.1933 72.313 68.0625 70.125 68.0625H16.5C14.312 68.0625 12.2135 67.1933 10.6664 65.6461C9.11919 64.099 8.25 62.0005 8.25 59.8125V26.8125C8.25 24.6245 9.11919 22.526 10.6664 20.9789C12.2135 19.4317 14.312 18.5625 16.5 18.5625H70.125C72.313 18.5625 74.4115 19.4317 75.9586 20.9789C77.5058 22.526 78.375 24.6245 78.375 26.8125V33ZM78.375 33H22.6875" stroke="#2563eb" stroke-width="1.5" stroke-linecap="round" stroke-linejoin="round"/>
	</svg>