<svg width="27" height="21" viewBox="0 0 27 21" fill="none" xmlns="http://www.w3.org/2000/svg">
<path d="M0 20.0455C0 20.2986 0.101594 20.5414 0.282433 20.7204C0.463271 20.8994 0.708541 21 0.964286 21H26.0357C26.2915 21 26.5367 20.8994 26.7176 20.7204C26.8984 20.5414 27 20.2986 27 20.0455V8.47159H0V20.0455ZM3.97768 11.8125C3.97768 11.6859 4.02848 11.5645 4.1189 11.475C4.20931 11.3855 4.33195 11.3352 4.45982 11.3352H10.0045C10.1323 11.3352 10.255 11.3855 10.3454 11.475C10.4358 11.5645 10.4866 11.6859 10.4866 11.8125V15.6307C10.4866 15.7573 10.4358 15.8787 10.3454 15.9682C10.255 16.0577 10.1323 16.108 10.0045 16.108H4.45982C4.33195 16.108 4.20931 16.0577 4.1189 15.9682C4.02848 15.8787 3.97768 15.7573 3.97768 15.6307V11.8125ZM26.0357 0H0.964286C0.708541 0 0.463271 0.100568 0.282433 0.27958C0.101594 0.458592 0 0.701384 0 0.954545V4.89205H27V0.954545C27 0.701384 26.8984 0.458592 26.7176 0.27958C26.5367 0.100568 26.2915 0 26.0357 0Z" fill="#E3E3E3"/>
<ellipse cx="19.5" cy="6" rx="6.5" ry="6" fill="#373D4C"/>
<path d="M15.9858 3.63636V8H15.4574V4.19034H15.4318L14.3665 4.89773V4.3608L15.4574 3.63636H15.9858ZM17.2408 8V7.61648L18.6811 6.03977C18.8501 5.85511 18.9893 5.6946 19.0987 5.55824C19.2081 5.42045 19.2891 5.29119 19.3416 5.17045C19.3956 5.0483 19.4226 4.92045 19.4226 4.78693C19.4226 4.63352 19.3857 4.50071 19.3118 4.38849C19.2393 4.27628 19.1399 4.18963 19.0135 4.12855C18.8871 4.06747 18.745 4.03693 18.5874 4.03693C18.4197 4.03693 18.2734 4.07173 18.1484 4.14134C18.0249 4.20952 17.929 4.3054 17.8608 4.42898C17.794 4.55256 17.7607 4.69744 17.7607 4.86364H17.2578C17.2578 4.60795 17.3168 4.38352 17.4347 4.19034C17.5526 3.99716 17.7131 3.84659 17.9162 3.73864C18.1207 3.63068 18.3501 3.5767 18.6044 3.5767C18.8601 3.5767 19.0866 3.63068 19.2841 3.73864C19.4815 3.84659 19.6364 3.99219 19.7486 4.17543C19.8608 4.35866 19.9169 4.5625 19.9169 4.78693C19.9169 4.94744 19.8878 5.1044 19.8295 5.25781C19.7727 5.4098 19.6733 5.57955 19.5312 5.76705C19.3906 5.95312 19.1953 6.1804 18.9453 6.44886L17.9652 7.49716V7.53125H19.9936V8H17.2408ZM22.348 8.05966C22.0668 8.05966 21.8161 8.01136 21.5959 7.91477C21.3771 7.81818 21.2031 7.68395 21.0739 7.51207C20.946 7.33878 20.8764 7.13778 20.8651 6.90909H21.402C21.4134 7.04972 21.4616 7.17116 21.5469 7.27344C21.6321 7.37429 21.7436 7.45241 21.8814 7.50781C22.0192 7.56321 22.1719 7.59091 22.3395 7.59091C22.527 7.59091 22.6932 7.55824 22.8381 7.4929C22.983 7.42756 23.0966 7.33665 23.179 7.22017C23.2614 7.10369 23.3026 6.96875 23.3026 6.81534C23.3026 6.65483 23.2628 6.51349 23.1832 6.39134C23.1037 6.26776 22.9872 6.17116 22.8338 6.10156C22.6804 6.03196 22.4929 5.99716 22.2713 5.99716H21.9219V5.52841H22.2713C22.4446 5.52841 22.5966 5.49716 22.7273 5.43466C22.8594 5.37216 22.9624 5.28409 23.0362 5.17045C23.1115 5.05682 23.1491 4.9233 23.1491 4.76989C23.1491 4.62216 23.1165 4.49361 23.0511 4.38423C22.9858 4.27486 22.8935 4.18963 22.7741 4.12855C22.6563 4.06747 22.517 4.03693 22.3565 4.03693C22.206 4.03693 22.0639 4.06463 21.9304 4.12003C21.7983 4.17401 21.6903 4.25284 21.6065 4.35653C21.5227 4.45881 21.4773 4.58239 21.4702 4.72727H20.9588C20.9673 4.49858 21.0362 4.2983 21.1655 4.12642C21.2947 3.95312 21.4638 3.81818 21.6726 3.72159C21.8828 3.625 22.1136 3.5767 22.3651 3.5767C22.6349 3.5767 22.8665 3.63139 23.0597 3.74077C23.2528 3.84872 23.4013 3.99148 23.505 4.16903C23.6087 4.34659 23.6605 4.53835 23.6605 4.74432C23.6605 4.99006 23.5959 5.19957 23.4666 5.37287C23.3388 5.54616 23.1648 5.66619 22.9446 5.73295V5.76705C23.2202 5.8125 23.4354 5.92969 23.5902 6.11861C23.745 6.30611 23.8224 6.53835 23.8224 6.81534C23.8224 7.05256 23.7578 7.26562 23.6286 7.45455C23.5007 7.64205 23.326 7.78977 23.1044 7.89773C22.8828 8.00568 22.6307 8.05966 22.348 8.05966Z" fill="white"/>
</svg>