<svg width="861" height="160" viewBox="0 0 861 160" fill="none" xmlns="http://www.w3.org/2000/svg">
<path d="M5.69566 113.525C5.29714 113.495 4.90653 113.365 4.54866 113.142C2.51205 111.875 1.68229 108.759 2.69494 106.183C3.50213 104.13 5.23618 103.042 6.93862 103.323C6.93749 103.137 6.94088 102.95 6.94991 102.762C6.98829 102.002 7.11361 101.287 7.30327 100.601L7.35294 100.426C4.66607 99.9395 1.88324 101.642 0.607537 104.885C-1.0441 109.084 0.921381 114.16 3.51004 115.781C3.99096 116.083 4.45383 116.239 4.84105 116.324C9.57582 116.331 14.3095 116.338 19.0442 116.346C19.3524 116.748 19.7893 117 20.2748 117C21.2366 117 22.0099 116.017 21.9591 114.83C21.914 113.771 21.1926 112.912 20.3256 112.88C19.8187 112.862 19.3626 113.117 19.0442 113.534H5.88081C5.81871 113.532 5.75775 113.531 5.69566 113.525Z" fill="white"/>
<path d="M26.9196 105.481C25.8009 102.228 23.0892 100.35 20.3583 100.626L20.4 100.801C19.6278 97.4286 17.0809 94.9605 14.0656 95.0005C10.6697 95.0446 7.73108 98.5662 7.63286 102.712C7.55384 106.084 9.19531 108.996 11.5627 110.244C11.8235 110.974 12.4207 111.486 13.115 111.483C13.9989 111.479 14.7463 110.615 14.7937 109.536C14.8456 108.346 14.0712 107.362 13.1093 107.362C12.8553 107.362 12.6149 107.432 12.3981 107.555C10.9079 106.717 9.89299 104.833 9.98557 102.674C10.0939 100.145 11.7467 98.0753 13.8149 97.8864C16.2534 97.6644 18.2889 100.015 18.2889 102.947C18.2889 103.133 18.2799 103.315 18.2641 103.496H20.6224V103.494V103.497C22.3508 103.345 24.042 104.534 24.7498 106.594C25.6383 109.178 24.6426 112.152 22.5269 113.237C22.3745 113.316 22.2187 113.381 22.0641 113.436C22.3937 113.812 22.6014 114.346 22.6014 114.941C22.6014 115.456 22.4468 115.924 22.1928 116.286C22.2063 116.316 22.2063 116.316 22.2199 116.346C22.6297 116.244 23.0372 116.091 23.4369 115.887C26.7526 114.184 28.3105 109.527 26.9196 105.481Z" fill="white"/>
<path d="M61.4515 134.353C57.9215 134.133 54.4615 133.193 51.2915 131.573C33.2515 122.383 25.9015 99.7835 34.8715 81.1035C42.0215 66.2135 57.3815 58.3235 72.4615 60.3635C72.4515 59.0135 72.4815 57.6535 72.5615 56.2935C72.9015 50.7835 74.0115 45.5935 75.6915 40.6235L76.1315 39.3535C52.3315 35.8235 27.6815 48.1735 16.3815 71.6935C1.75149 102.143 19.1615 138.953 42.0915 150.713C46.3515 152.903 50.4515 154.033 53.8815 154.653C95.8215 154.703 137.751 154.753 179.691 154.813C182.421 157.723 186.291 159.553 190.591 159.553C199.111 159.553 205.961 152.423 205.511 143.813C205.111 136.133 198.721 129.903 191.041 129.673C186.551 129.543 182.511 131.393 179.691 134.413H63.0915C62.5415 134.403 62.0015 134.393 61.4515 134.353Z" fill="#0056FF"/>
<path d="M249.451 76.0135C239.541 52.4235 215.521 38.8035 191.331 40.8035L191.701 42.0735C184.861 17.6135 162.301 -0.286527 135.591 0.00347348C105.511 0.323473 79.4814 25.8635 78.6114 55.9335C77.9114 80.3835 92.4514 101.503 113.421 110.553C115.731 115.853 121.021 119.563 127.171 119.543C135.001 119.513 141.621 113.243 142.041 105.423C142.501 96.7935 135.641 89.6534 127.121 89.6534C124.871 89.6534 122.741 90.1635 120.821 91.0535C107.621 84.9735 98.6314 71.3134 99.4514 55.6534C100.411 37.3134 115.051 22.3035 133.371 20.9335C154.971 19.3235 173.001 36.3735 173.001 57.6335C173.001 58.9835 172.921 60.3035 172.781 61.6135H193.671V61.6035V61.6235C208.981 60.5235 223.961 69.1435 230.231 84.0835C238.101 102.823 229.281 124.393 210.541 132.263C209.191 132.833 207.811 133.303 206.441 133.703C209.361 136.433 211.201 140.303 211.201 144.623C211.201 148.353 209.831 151.753 207.581 154.373C207.701 154.593 207.701 154.593 207.821 154.813C211.451 154.073 215.061 152.963 218.601 151.483C247.971 139.133 261.771 105.353 249.451 76.0135Z" fill="#0056FF"/>
<path d="M332.032 78.3535H373.342V84.0235C373.342 95.3535 369.602 104.643 362.132 111.883C354.732 119.043 344.972 122.623 332.862 122.623C320.112 122.623 309.572 118.493 301.232 110.233C292.972 101.973 288.842 91.8234 288.842 79.7834C288.842 67.8234 292.972 57.7135 301.232 49.4535C309.572 41.1135 319.882 36.9435 332.152 36.9435C339.782 36.9435 346.802 38.6935 353.222 42.1935C359.632 45.6935 364.612 50.4734 368.152 56.5334L356.462 63.2635C354.262 59.2535 350.992 56.0635 346.662 53.7035C342.332 51.3435 337.492 50.1635 332.142 50.1635C323.482 50.1635 316.362 52.9935 310.782 58.6635C305.192 64.4035 302.402 71.4935 302.402 79.9135C302.402 88.4135 305.192 95.4535 310.782 101.043C316.522 106.633 323.922 109.423 332.972 109.423C340.212 109.423 346.152 107.733 350.792 104.343C355.432 100.963 358.382 96.3534 359.642 90.5334H332.022V78.3535H332.032Z" fill="#0056FF"/>
<path d="M425.402 93.7035V62.0735H438.152V121.093H425.402V113.543C421.462 119.603 415.372 122.633 407.102 122.633C400.252 122.633 394.772 120.453 390.632 116.083C386.502 111.713 384.432 105.793 384.432 98.3235V62.0835H397.182V97.0235C397.182 101.433 398.362 104.813 400.722 107.173C403.082 109.533 406.312 110.713 410.402 110.713C415.042 110.713 418.702 109.283 421.382 106.403C424.062 103.513 425.402 99.2935 425.402 93.7035Z" fill="#0056FF"/>
<path d="M465.762 62.0635V71.9734C468.992 64.6534 475.042 60.9935 483.942 60.9935V74.8035C479.142 74.4935 474.892 75.6734 471.192 78.3434C467.572 80.9434 465.762 85.2735 465.762 91.3235V121.063H453.012V62.0435H465.762V62.0635Z" fill="#0056FF"/>
<path d="M557.832 60.5334C564.522 60.5334 569.912 62.7035 574.002 67.0235C578.092 71.3535 580.142 77.1735 580.142 84.4935V121.083H567.392V85.3235C567.392 81.3135 566.372 78.1635 564.322 75.8835C562.272 73.6035 559.482 72.4634 555.942 72.4634C551.932 72.4634 548.782 73.7835 546.502 76.4135C544.222 79.0535 543.082 82.9235 543.082 88.0435V121.093H530.332V85.3335C530.332 81.2435 529.372 78.0735 527.442 75.8335C525.512 73.5935 522.782 72.4734 519.242 72.4734C515.302 72.4734 512.142 73.8135 509.742 76.4835C507.342 79.1635 506.142 83.0135 506.142 88.0535V121.103H493.392V62.0835H506.142V69.1635C509.922 63.4235 515.542 60.5435 523.022 60.5435C530.572 60.5435 536.162 63.6535 539.782 69.8635C543.622 63.6435 549.642 60.5334 557.832 60.5334Z" fill="#0056FF"/>
<path d="M650.842 97.0035H603.862C604.802 101.413 606.952 104.833 610.292 107.273C613.632 109.713 617.792 110.933 622.742 110.933C629.432 110.933 634.502 108.493 637.972 103.613L648.482 109.753C642.732 118.333 634.122 122.623 622.632 122.623C613.112 122.623 605.362 119.713 599.382 113.893C593.482 107.993 590.532 100.553 590.532 91.5835C590.532 82.8535 593.442 75.4935 599.272 69.5135C605.012 63.5335 612.492 60.5435 621.702 60.5435C630.282 60.5435 637.362 63.5735 642.952 69.6335C648.542 75.6935 651.332 83.0535 651.332 91.7035C651.312 93.2735 651.152 95.0435 650.842 97.0035ZM603.742 86.6135H638.442C637.572 81.9735 635.622 78.3935 632.602 75.8735C629.572 73.3535 625.892 72.0934 621.562 72.0934C616.842 72.0934 612.902 73.3935 609.762 75.9935C606.622 78.5935 604.612 82.1335 603.742 86.6135Z" fill="#0056FF"/>
<path d="M693.572 60.5334C700.422 60.5334 705.902 62.7135 710.042 67.0835C714.172 71.4535 716.242 77.3734 716.242 84.8434V121.083H703.492V86.1435C703.492 81.7335 702.312 78.3535 699.952 75.9935C697.592 73.6335 694.362 72.4535 690.272 72.4535C685.632 72.4535 681.972 73.8935 679.292 76.7635C676.612 79.6335 675.282 83.8635 675.282 89.4535V121.083H662.532V38.4635H675.282V69.6235C679.202 63.5635 685.302 60.5334 693.572 60.5334Z" fill="#0056FF"/>
<path d="M769.702 93.7035V62.0735H782.452V121.093H769.702V113.543C765.762 119.603 759.672 122.633 751.402 122.633C744.552 122.633 739.072 120.453 734.932 116.083C730.802 111.713 728.732 105.793 728.732 98.3235V62.0835H741.482V97.0235C741.482 101.433 742.662 104.813 745.022 107.173C747.382 109.533 750.612 110.713 754.702 110.713C759.342 110.713 763.002 109.283 765.682 106.403C768.362 103.513 769.702 99.2935 769.702 93.7035Z" fill="#0056FF"/>
<path d="M830.722 60.5334C838.822 60.5334 845.752 63.5235 851.492 69.5035C857.232 75.4835 860.112 82.8435 860.112 91.5735C860.112 100.303 857.242 107.663 851.492 113.643C845.742 119.623 838.822 122.613 830.722 122.613C821.752 122.613 814.862 119.273 810.062 112.583V121.083H797.312V38.4635H810.062V70.4535C814.942 63.8335 821.832 60.5334 830.722 60.5334ZM815.382 105.153C818.922 108.693 823.372 110.463 828.722 110.463C834.072 110.463 838.522 108.693 842.062 105.153C845.602 101.533 847.372 97.0135 847.372 91.5835C847.372 86.1535 845.602 81.6735 842.062 78.1235C838.522 74.5035 834.072 72.6935 828.722 72.6935C823.372 72.6935 818.922 74.5035 815.382 78.1235C811.842 81.6635 810.072 86.1535 810.072 91.5835C810.072 96.9235 811.842 101.453 815.382 105.153Z" fill="#0056FF"/>
</svg>