<svg xmlns="http://www.w3.org/2000/svg" xmlns:xlink="http://www.w3.org/1999/xlink" width="150" zoomAndPan="magnify" viewBox="0 0 112.5 112.499997" height="150" preserveAspectRatio="xMidYMid meet" version="1.0"><defs><clipPath id="f94872deb8"><path d="M 0 0 L 112.003906 0 L 112.003906 112.003906 L 0 112.003906 Z M 0 0 " clip-rule="nonzero"/></clipPath></defs><g clip-path="url(#f94872deb8)"><path fill="#004aad" d="M 56.25 0 C 54.40625 0 52.570312 0.0898438 50.738281 0.269531 C 48.902344 0.453125 47.082031 0.722656 45.277344 1.082031 C 43.46875 1.441406 41.683594 1.886719 39.921875 2.421875 C 38.160156 2.957031 36.425781 3.578125 34.722656 4.28125 C 33.023438 4.988281 31.359375 5.773438 29.734375 6.640625 C 28.109375 7.511719 26.53125 8.457031 25 9.480469 C 23.46875 10.503906 21.988281 11.597656 20.566406 12.769531 C 19.140625 13.9375 17.777344 15.171875 16.476562 16.476562 C 15.171875 17.777344 13.9375 19.140625 12.769531 20.566406 C 11.597656 21.988281 10.503906 23.46875 9.480469 25 C 8.457031 26.53125 7.511719 28.109375 6.640625 29.734375 C 5.773438 31.359375 4.988281 33.023438 4.28125 34.722656 C 3.578125 36.425781 2.957031 38.160156 2.421875 39.921875 C 1.886719 41.683594 1.441406 43.46875 1.082031 45.277344 C 0.722656 47.082031 0.453125 48.902344 0.269531 50.738281 C 0.0898438 52.570312 0 54.40625 0 56.25 C 0 58.09375 0.0898438 59.929688 0.269531 61.761719 C 0.453125 63.597656 0.722656 65.417969 1.082031 67.222656 C 1.441406 69.03125 1.886719 70.816406 2.421875 72.578125 C 2.957031 74.339844 3.578125 76.074219 4.28125 77.777344 C 4.988281 79.476562 5.773438 81.140625 6.640625 82.765625 C 7.511719 84.390625 8.457031 85.96875 9.480469 87.5 C 10.503906 89.03125 11.597656 90.511719 12.769531 91.933594 C 13.9375 93.359375 15.171875 94.722656 16.476562 96.023438 C 17.777344 97.328125 19.140625 98.5625 20.566406 99.730469 C 21.988281 100.902344 23.46875 101.996094 25 103.019531 C 26.53125 104.042969 28.109375 104.988281 29.734375 105.859375 C 31.359375 106.726562 33.023438 107.511719 34.722656 108.21875 C 36.425781 108.921875 38.160156 109.542969 39.921875 110.078125 C 41.683594 110.613281 43.46875 111.058594 45.277344 111.417969 C 47.082031 111.777344 48.902344 112.046875 50.738281 112.230469 C 52.570312 112.410156 54.40625 112.5 56.25 112.5 C 58.09375 112.5 59.929688 112.410156 61.761719 112.230469 C 63.597656 112.046875 65.417969 111.777344 67.222656 111.417969 C 69.03125 111.058594 70.816406 110.613281 72.578125 110.078125 C 74.339844 109.542969 76.074219 108.921875 77.777344 108.21875 C 79.476562 107.511719 81.140625 106.726562 82.765625 105.859375 C 84.390625 104.988281 85.96875 104.042969 87.5 103.019531 C 89.03125 101.996094 90.511719 100.902344 91.933594 99.730469 C 93.359375 98.5625 94.722656 97.328125 96.023438 96.023438 C 97.328125 94.722656 98.5625 93.359375 99.730469 91.933594 C 100.902344 90.511719 101.996094 89.03125 103.019531 87.5 C 104.042969 85.96875 104.988281 84.390625 105.859375 82.765625 C 106.726562 81.140625 107.511719 79.476562 108.21875 77.777344 C 108.921875 76.074219 109.542969 74.339844 110.078125 72.578125 C 110.613281 70.816406 111.058594 69.03125 111.417969 67.222656 C 111.777344 65.417969 112.046875 63.597656 112.230469 61.761719 C 112.410156 59.929688 112.5 58.09375 112.5 56.25 C 112.5 54.40625 112.410156 52.570312 112.230469 50.738281 C 112.046875 48.902344 111.777344 47.082031 111.417969 45.277344 C 111.058594 43.46875 110.613281 41.683594 110.078125 39.921875 C 109.542969 38.160156 108.921875 36.425781 108.21875 34.722656 C 107.511719 33.023438 106.726562 31.359375 105.859375 29.734375 C 104.988281 28.109375 104.042969 26.53125 103.019531 25 C 101.996094 23.46875 100.902344 21.988281 99.730469 20.566406 C 98.5625 19.140625 97.328125 17.777344 96.023438 16.476562 C 94.722656 15.171875 93.359375 13.9375 91.933594 12.769531 C 90.511719 11.597656 89.03125 10.503906 87.5 9.480469 C 85.96875 8.457031 84.390625 7.511719 82.765625 6.640625 C 81.140625 5.773438 79.476562 4.988281 77.777344 4.28125 C 76.074219 3.578125 74.339844 2.957031 72.578125 2.421875 C 70.816406 1.886719 69.03125 1.441406 67.222656 1.082031 C 65.417969 0.722656 63.597656 0.453125 61.761719 0.269531 C 59.929688 0.0898438 58.09375 0 56.25 0 Z M 64.285156 75.878906 C 64.039062 75.914062 63.789062 75.921875 63.539062 75.90625 C 63.285156 75.886719 63.042969 75.84375 62.800781 75.773438 C 62.558594 75.703125 62.328125 75.609375 62.109375 75.488281 C 61.886719 75.367188 61.679688 75.226562 61.492188 75.0625 C 61.300781 74.898438 61.128906 74.71875 60.980469 74.515625 C 60.828125 74.316406 60.699219 74.101562 60.59375 73.875 C 60.488281 73.648438 60.40625 73.410156 60.351562 73.164062 C 60.296875 72.921875 60.269531 72.671875 60.269531 72.421875 L 60.269531 63.179688 C 60.265625 62.789062 60.332031 62.410156 60.457031 62.039062 C 60.585938 61.671875 60.769531 61.332031 61.015625 61.027344 C 61.257812 60.71875 61.542969 60.460938 61.875 60.253906 C 62.203125 60.042969 62.558594 59.894531 62.941406 59.804688 C 63.675781 59.636719 64.390625 59.402344 65.085938 59.101562 C 65.777344 58.800781 66.4375 58.433594 67.0625 58.007812 C 67.683594 57.582031 68.265625 57.101562 68.796875 56.566406 C 69.332031 56.03125 69.8125 55.453125 70.238281 54.828125 C 70.660156 54.203125 71.023438 53.542969 71.324219 52.847656 C 71.625 52.15625 71.859375 51.4375 72.027344 50.703125 C 72.191406 49.964844 72.289062 49.21875 72.3125 48.460938 C 72.339844 47.707031 72.292969 46.957031 72.179688 46.207031 C 72.0625 45.460938 71.878906 44.730469 71.625 44.019531 C 71.371094 43.308594 71.054688 42.625 70.675781 41.972656 C 70.292969 41.320312 69.855469 40.707031 69.359375 40.136719 C 68.863281 39.566406 68.316406 39.046875 67.722656 38.582031 C 67.128906 38.113281 66.496094 37.707031 65.824219 37.355469 C 65.15625 37.007812 64.457031 36.726562 63.734375 36.507812 C 63.007812 36.289062 62.269531 36.140625 61.519531 36.0625 C 60.765625 35.984375 60.015625 35.976562 59.261719 36.039062 C 58.507812 36.105469 57.765625 36.238281 57.039062 36.4375 C 56.3125 36.640625 55.609375 36.910156 54.929688 37.246094 C 54.253906 37.578125 53.613281 37.972656 53.007812 38.429688 C 52.40625 38.886719 51.847656 39.390625 51.339844 39.953125 C 50.832031 40.511719 50.382812 41.113281 49.988281 41.757812 C 49.59375 42.402344 49.261719 43.078125 48.992188 43.785156 C 48.726562 44.492188 48.527344 45.21875 48.394531 45.964844 C 48.265625 46.707031 48.203125 47.457031 48.214844 48.214844 L 48.214844 86.382812 C 48.214844 86.78125 48.175781 87.171875 48.097656 87.558594 C 48.019531 87.949219 47.90625 88.324219 47.753906 88.691406 C 47.605469 89.054688 47.417969 89.402344 47.199219 89.730469 C 46.980469 90.0625 46.730469 90.367188 46.449219 90.644531 C 46.167969 90.925781 45.863281 91.175781 45.535156 91.394531 C 45.207031 91.613281 44.859375 91.800781 44.492188 91.953125 C 44.128906 92.101562 43.75 92.21875 43.363281 92.292969 C 42.976562 92.371094 42.582031 92.410156 42.1875 92.410156 L 38.167969 92.410156 C 37.773438 92.410156 37.382812 92.371094 36.992188 92.292969 C 36.605469 92.21875 36.230469 92.101562 35.863281 91.953125 C 35.496094 91.800781 35.148438 91.613281 34.820312 91.394531 C 34.492188 91.175781 34.1875 90.925781 33.90625 90.644531 C 33.628906 90.367188 33.378906 90.0625 33.160156 89.730469 C 32.9375 89.402344 32.753906 89.054688 32.601562 88.691406 C 32.449219 88.324219 32.335938 87.949219 32.257812 87.558594 C 32.179688 87.171875 32.144531 86.78125 32.144531 86.382812 L 32.144531 48.9375 C 32.132812 48.035156 32.164062 47.132812 32.242188 46.230469 C 32.316406 45.328125 32.433594 44.433594 32.59375 43.542969 C 32.753906 42.65625 32.957031 41.773438 33.199219 40.90625 C 33.445312 40.035156 33.730469 39.175781 34.054688 38.332031 C 34.378906 37.488281 34.742188 36.664062 35.148438 35.855469 C 35.550781 35.046875 35.992188 34.257812 36.46875 33.492188 C 36.949219 32.722656 37.460938 31.980469 38.011719 31.261719 C 38.558594 30.542969 39.140625 29.851562 39.753906 29.191406 C 40.367188 28.527344 41.011719 27.894531 41.6875 27.292969 C 42.363281 26.691406 43.0625 26.121094 43.792969 25.585938 C 44.519531 25.050781 45.273438 24.550781 46.046875 24.085938 C 46.824219 23.621094 47.617188 23.195312 48.433594 22.804688 C 49.25 22.417969 50.082031 22.070312 50.933594 21.757812 C 51.78125 21.449219 52.644531 21.179688 53.519531 20.953125 C 54.394531 20.722656 55.277344 20.539062 56.167969 20.394531 C 57.0625 20.25 57.960938 20.148438 58.863281 20.089844 C 59.734375 20.078125 60.605469 20.109375 61.472656 20.175781 C 62.339844 20.246094 63.207031 20.355469 64.0625 20.507812 C 64.921875 20.65625 65.773438 20.847656 66.613281 21.074219 C 67.453125 21.304688 68.285156 21.574219 69.097656 21.878906 C 69.914062 22.183594 70.714844 22.527344 71.5 22.910156 C 72.285156 23.289062 73.050781 23.707031 73.792969 24.15625 C 74.539062 24.609375 75.261719 25.09375 75.964844 25.613281 C 76.664062 26.132812 77.339844 26.683594 77.988281 27.265625 C 78.636719 27.847656 79.257812 28.457031 79.851562 29.097656 C 80.445312 29.734375 81.003906 30.402344 81.535156 31.09375 C 82.066406 31.785156 82.5625 32.5 83.027344 33.238281 C 83.492188 33.972656 83.921875 34.730469 84.316406 35.511719 C 84.707031 36.289062 85.066406 37.082031 85.386719 37.894531 C 85.703125 38.703125 85.984375 39.527344 86.230469 40.363281 C 86.472656 41.203125 86.675781 42.046875 86.839844 42.90625 C 87.003906 43.761719 87.128906 44.621094 87.214844 45.492188 C 87.296875 46.359375 87.34375 47.226562 87.347656 48.097656 C 87.347656 48.972656 87.3125 49.839844 87.234375 50.710938 C 87.15625 51.578125 87.039062 52.441406 86.882812 53.296875 C 86.726562 54.15625 86.527344 55.003906 86.292969 55.84375 C 86.054688 56.679688 85.78125 57.507812 85.464844 58.320312 C 85.152344 59.132812 84.804688 59.929688 84.414062 60.710938 C 84.027344 61.492188 83.605469 62.253906 83.148438 62.996094 C 82.6875 63.738281 82.195312 64.457031 81.671875 65.152344 C 81.148438 65.847656 80.589844 66.519531 80.003906 67.164062 C 79.417969 67.804688 78.800781 68.421875 78.15625 69.007812 C 77.511719 69.59375 76.839844 70.152344 76.144531 70.675781 C 75.449219 71.199219 74.730469 71.691406 73.988281 72.148438 C 73.246094 72.605469 72.484375 73.027344 71.703125 73.414062 C 70.921875 73.800781 70.125 74.152344 69.308594 74.464844 C 68.496094 74.777344 67.671875 75.050781 66.832031 75.289062 C 65.992188 75.523438 65.144531 75.71875 64.285156 75.878906 Z M 64.285156 75.878906 " fill-opacity="1" fill-rule="nonzero"/></g></svg>
