<svg xmlns="http://www.w3.org/2000/svg" xmlns:xlink="http://www.w3.org/1999/xlink" width="960" zoomAndPan="magnify" viewBox="0 0 720 119.999999" height="160" preserveAspectRatio="xMidYMid meet" version="1.0"><defs><g/><clipPath id="1a80bb035f"><path d="M 6.179688 5.511719 L 114.929688 5.511719 L 114.929688 114.261719 L 6.179688 114.261719 Z M 6.179688 5.511719 " clip-rule="nonzero"/></clipPath></defs><g clip-path="url(#1a80bb035f)"><path fill="#024eae" d="M 60.554688 5.511719 C 58.773438 5.511719 56.996094 5.601562 55.222656 5.773438 C 53.453125 5.949219 51.691406 6.210938 49.945312 6.558594 C 48.199219 6.90625 46.472656 7.335938 44.769531 7.855469 C 43.066406 8.371094 41.390625 8.96875 39.746094 9.652344 C 38.101562 10.332031 36.492188 11.09375 34.921875 11.933594 C 33.351562 12.773438 31.824219 13.6875 30.34375 14.675781 C 28.863281 15.667969 27.433594 16.726562 26.058594 17.855469 C 24.683594 18.984375 23.363281 20.179688 22.105469 21.4375 C 20.84375 22.699219 19.652344 24.015625 18.519531 25.394531 C 17.390625 26.769531 16.332031 28.199219 15.34375 29.679688 C 14.351562 31.160156 13.4375 32.683594 12.597656 34.253906 C 11.761719 35.828125 11 37.433594 10.316406 39.078125 C 9.636719 40.726562 9.039062 42.398438 8.519531 44.105469 C 8.003906 45.808594 7.570312 47.535156 7.222656 49.28125 C 6.875 51.027344 6.613281 52.785156 6.441406 54.558594 C 6.265625 56.332031 6.179688 58.105469 6.179688 59.886719 C 6.179688 61.667969 6.265625 63.445312 6.441406 65.21875 C 6.613281 66.988281 6.875 68.75 7.222656 70.496094 C 7.570312 72.242188 8.003906 73.96875 8.519531 75.671875 C 9.039062 77.375 9.636719 79.050781 10.316406 80.695312 C 11 82.339844 11.761719 83.949219 12.597656 85.519531 C 13.4375 87.089844 14.351562 88.617188 15.34375 90.097656 C 16.332031 91.578125 17.390625 93.007812 18.519531 94.382812 C 19.652344 95.757812 20.84375 97.078125 22.105469 98.335938 C 23.363281 99.597656 24.683594 100.789062 26.058594 101.921875 C 27.433594 103.050781 28.863281 104.109375 30.34375 105.097656 C 31.824219 106.089844 33.351562 107.003906 34.921875 107.84375 C 36.492188 108.683594 38.101562 109.441406 39.746094 110.125 C 41.390625 110.804688 43.066406 111.40625 44.769531 111.921875 C 46.472656 112.4375 48.199219 112.871094 49.945312 113.21875 C 51.691406 113.566406 53.453125 113.828125 55.222656 114 C 56.996094 114.175781 58.773438 114.261719 60.554688 114.261719 C 62.335938 114.261719 64.109375 114.175781 65.882812 114 C 67.65625 113.828125 69.414062 113.566406 71.160156 113.21875 C 72.910156 112.871094 74.632812 112.4375 76.339844 111.921875 C 78.042969 111.40625 79.71875 110.804688 81.363281 110.125 C 83.007812 109.441406 84.617188 108.683594 86.1875 107.84375 C 87.757812 107.003906 89.28125 106.089844 90.761719 105.097656 C 92.242188 104.109375 93.671875 103.050781 95.050781 101.921875 C 96.425781 100.789062 97.742188 99.597656 99.003906 98.335938 C 100.261719 97.078125 101.457031 95.757812 102.585938 94.382812 C 103.714844 93.007812 104.777344 91.578125 105.765625 90.097656 C 106.753906 88.617188 107.667969 87.089844 108.507812 85.519531 C 109.347656 83.949219 110.109375 82.339844 110.789062 80.695312 C 111.472656 79.050781 112.070312 77.375 112.585938 75.671875 C 113.105469 73.96875 113.535156 72.242188 113.882812 70.496094 C 114.230469 68.75 114.492188 66.988281 114.667969 65.21875 C 114.839844 63.445312 114.929688 61.667969 114.929688 59.886719 C 114.929688 58.105469 114.839844 56.332031 114.667969 54.558594 C 114.492188 52.785156 114.230469 51.027344 113.882812 49.28125 C 113.535156 47.535156 113.105469 45.808594 112.585938 44.105469 C 112.070312 42.398438 111.472656 40.726562 110.789062 39.078125 C 110.109375 37.433594 109.347656 35.828125 108.507812 34.253906 C 107.667969 32.683594 106.753906 31.160156 105.765625 29.679688 C 104.777344 28.199219 103.714844 26.769531 102.585938 25.394531 C 101.457031 24.015625 100.261719 22.699219 99.003906 21.4375 C 97.742188 20.179688 96.425781 18.984375 95.050781 17.855469 C 93.671875 16.726562 92.242188 15.667969 90.761719 14.675781 C 89.28125 13.6875 87.757812 12.773438 86.1875 11.933594 C 84.617188 11.09375 83.007812 10.332031 81.363281 9.652344 C 79.71875 8.96875 78.042969 8.371094 76.339844 7.855469 C 74.632812 7.335938 72.910156 6.90625 71.160156 6.558594 C 69.414062 6.210938 67.65625 5.949219 65.882812 5.773438 C 64.109375 5.601562 62.335938 5.511719 60.554688 5.511719 Z M 68.320312 78.859375 C 68.082031 78.894531 67.839844 78.90625 67.597656 78.886719 C 67.355469 78.871094 67.117188 78.828125 66.886719 78.761719 C 66.652344 78.691406 66.429688 78.601562 66.214844 78.484375 C 66.003906 78.371094 65.804688 78.230469 65.621094 78.074219 C 65.4375 77.914062 65.269531 77.738281 65.125 77.546875 C 64.976562 77.351562 64.855469 77.144531 64.753906 76.925781 C 64.648438 76.707031 64.574219 76.476562 64.519531 76.238281 C 64.464844 76.003906 64.4375 75.761719 64.4375 75.519531 L 64.4375 66.585938 C 64.4375 66.210938 64.496094 65.84375 64.621094 65.484375 C 64.746094 65.128906 64.925781 64.800781 65.160156 64.503906 C 65.394531 64.207031 65.671875 63.960938 65.988281 63.757812 C 66.308594 63.554688 66.652344 63.410156 67.019531 63.324219 C 67.734375 63.164062 68.425781 62.9375 69.09375 62.644531 C 69.765625 62.351562 70.402344 62 71.003906 61.589844 C 71.609375 61.175781 72.167969 60.710938 72.683594 60.195312 C 73.199219 59.675781 73.664062 59.117188 74.074219 58.511719 C 74.484375 57.90625 74.835938 57.269531 75.125 56.601562 C 75.417969 55.929688 75.644531 55.238281 75.804688 54.523438 C 75.964844 53.8125 76.058594 53.089844 76.082031 52.359375 C 76.105469 51.628906 76.0625 50.902344 75.953125 50.179688 C 75.839844 49.460938 75.660156 48.753906 75.417969 48.066406 C 75.171875 47.375 74.867188 46.71875 74.496094 46.085938 C 74.128906 45.453125 73.703125 44.863281 73.226562 44.3125 C 72.746094 43.761719 72.21875 43.261719 71.644531 42.808594 C 71.070312 42.355469 70.457031 41.960938 69.808594 41.625 C 69.160156 41.289062 68.488281 41.015625 67.789062 40.804688 C 67.085938 40.59375 66.375 40.449219 65.648438 40.375 C 64.921875 40.300781 64.191406 40.292969 63.464844 40.351562 C 62.738281 40.414062 62.019531 40.542969 61.316406 40.738281 C 60.613281 40.933594 59.933594 41.191406 59.277344 41.515625 C 58.621094 41.839844 58.003906 42.222656 57.417969 42.660156 C 56.835938 43.101562 56.300781 43.59375 55.808594 44.132812 C 55.316406 44.675781 54.878906 45.257812 54.5 45.878906 C 54.117188 46.503906 53.796875 47.15625 53.539062 47.839844 C 53.28125 48.523438 53.085938 49.226562 52.960938 49.945312 C 52.835938 50.664062 52.777344 51.390625 52.785156 52.121094 L 52.785156 89.015625 C 52.785156 89.398438 52.75 89.777344 52.675781 90.152344 C 52.597656 90.527344 52.488281 90.894531 52.34375 91.246094 C 52.195312 91.601562 52.015625 91.9375 51.804688 92.253906 C 51.589844 92.570312 51.351562 92.867188 51.078125 93.136719 C 50.808594 93.40625 50.515625 93.648438 50.195312 93.863281 C 49.878906 94.074219 49.542969 94.253906 49.191406 94.398438 C 48.835938 94.546875 48.472656 94.65625 48.097656 94.730469 C 47.722656 94.804688 47.34375 94.84375 46.960938 94.84375 L 43.074219 94.84375 C 42.695312 94.84375 42.316406 94.804688 41.941406 94.730469 C 41.5625 94.65625 41.199219 94.546875 40.847656 94.398438 C 40.492188 94.253906 40.15625 94.074219 39.839844 93.863281 C 39.519531 93.648438 39.226562 93.40625 38.957031 93.136719 C 38.6875 92.867188 38.445312 92.570312 38.230469 92.253906 C 38.019531 91.9375 37.839844 91.601562 37.695312 91.246094 C 37.546875 90.894531 37.4375 90.527344 37.363281 90.152344 C 37.289062 89.777344 37.25 89.398438 37.25 89.015625 L 37.25 52.820312 C 37.242188 51.945312 37.273438 51.074219 37.34375 50.203125 C 37.417969 49.332031 37.53125 48.464844 37.6875 47.605469 C 37.839844 46.746094 38.035156 45.894531 38.273438 45.054688 C 38.507812 44.210938 38.785156 43.382812 39.097656 42.570312 C 39.410156 41.753906 39.765625 40.953125 40.152344 40.171875 C 40.542969 39.390625 40.96875 38.628906 41.433594 37.886719 C 41.894531 37.144531 42.390625 36.429688 42.921875 35.734375 C 43.453125 35.039062 44.015625 34.371094 44.609375 33.730469 C 45.203125 33.089844 45.824219 32.476562 46.476562 31.894531 C 47.128906 31.3125 47.804688 30.761719 48.511719 30.246094 C 49.214844 29.726562 49.941406 29.246094 50.691406 28.796875 C 51.441406 28.347656 52.210938 27.933594 53 27.558594 C 53.789062 27.183594 54.59375 26.847656 55.414062 26.546875 C 56.234375 26.246094 57.066406 25.988281 57.914062 25.765625 C 58.757812 25.546875 59.613281 25.367188 60.476562 25.226562 C 61.339844 25.085938 62.207031 24.988281 63.078125 24.933594 C 63.921875 24.921875 64.761719 24.949219 65.601562 25.019531 C 66.441406 25.085938 67.277344 25.191406 68.105469 25.335938 C 68.9375 25.480469 69.757812 25.664062 70.570312 25.886719 C 71.386719 26.109375 72.1875 26.367188 72.976562 26.664062 C 73.765625 26.957031 74.539062 27.289062 75.296875 27.660156 C 76.054688 28.027344 76.792969 28.429688 77.515625 28.863281 C 78.234375 29.300781 78.933594 29.769531 79.609375 30.273438 C 80.289062 30.773438 80.941406 31.304688 81.566406 31.867188 C 82.195312 32.429688 82.796875 33.019531 83.367188 33.640625 C 83.941406 34.257812 84.484375 34.898438 84.996094 35.570312 C 85.507812 36.238281 85.992188 36.929688 86.4375 37.640625 C 86.886719 38.355469 87.300781 39.085938 87.683594 39.839844 C 88.0625 40.589844 88.410156 41.359375 88.71875 42.144531 C 89.027344 42.925781 89.296875 43.722656 89.535156 44.53125 C 89.769531 45.339844 89.964844 46.160156 90.125 46.988281 C 90.285156 47.816406 90.402344 48.648438 90.484375 49.488281 C 90.566406 50.324219 90.609375 51.167969 90.613281 52.007812 C 90.617188 52.851562 90.582031 53.691406 90.507812 54.53125 C 90.429688 55.371094 90.316406 56.207031 90.164062 57.035156 C 90.011719 57.863281 89.824219 58.683594 89.59375 59.492188 C 89.363281 60.304688 89.097656 61.105469 88.796875 61.890625 C 88.492188 62.675781 88.15625 63.445312 87.78125 64.203125 C 87.40625 64.957031 86.996094 65.691406 86.554688 66.410156 C 86.109375 67.125 85.636719 67.820312 85.128906 68.492188 C 84.621094 69.167969 84.082031 69.8125 83.515625 70.4375 C 82.949219 71.058594 82.351562 71.652344 81.730469 72.222656 C 81.105469 72.789062 80.457031 73.324219 79.785156 73.832031 C 79.113281 74.339844 78.417969 74.816406 77.699219 75.257812 C 76.980469 75.699219 76.246094 76.109375 75.492188 76.480469 C 74.734375 76.855469 73.964844 77.195312 73.179688 77.496094 C 72.390625 77.796875 71.59375 78.0625 70.78125 78.292969 C 69.96875 78.519531 69.152344 78.710938 68.320312 78.859375 Z M 68.320312 78.859375 " fill-opacity="1" fill-rule="nonzero"/></g><g fill="#024eae" fill-opacity="1"><g transform="translate(121.374972, 81.190859)"><g><path d="M 26.617188 -53.847656 L 7.308594 -53.847656 L 7.308594 0 L 14.078125 0 L 14.078125 -19.308594 L 26.617188 -19.308594 C 36.847656 -19.308594 44.460938 -26.691406 44.460938 -36.539062 C 44.460938 -46.460938 36.769531 -53.847656 26.617188 -53.847656 Z M 26.308594 -25.847656 L 14.078125 -25.847656 L 14.078125 -47.308594 L 26.308594 -47.308594 C 32.847656 -47.308594 37.617188 -42.691406 37.617188 -36.539062 C 37.617188 -30.382812 32.847656 -25.847656 26.308594 -25.847656 Z M 26.308594 -25.847656 "/></g></g></g><g fill="#024eae" fill-opacity="1"><g transform="translate(168.297886, 81.190859)"><g><path d="M 31.847656 0.921875 C 48.152344 0.921875 60 -11 60 -26.847656 C 60 -42.769531 48.152344 -54.691406 31.847656 -54.691406 C 15.539062 -54.691406 3.617188 -42.769531 3.617188 -26.847656 C 3.617188 -11 15.539062 0.921875 31.847656 0.921875 Z M 31.847656 -5.691406 C 19.617188 -5.691406 10.539062 -14.847656 10.539062 -26.847656 C 10.539062 -38.921875 19.617188 -48.078125 31.847656 -48.078125 C 44.078125 -48.078125 53.152344 -39 53.152344 -26.847656 C 53.152344 -14.769531 44.078125 -5.691406 31.847656 -5.691406 Z M 31.847656 -5.691406 "/></g></g></g><g fill="#024eae" fill-opacity="1"><g transform="translate(232.066899, 81.190859)"><g><path d="M 23.382812 0.691406 C 34.078125 0.691406 42.382812 -5.078125 42.382812 -15.230469 C 42.382812 -26.460938 32.847656 -28.691406 24.382812 -30.769531 C 17.460938 -32.382812 11.230469 -33.921875 11.230469 -39.769531 C 11.230469 -44.921875 16.152344 -48 22.691406 -48 C 29.230469 -48 34.152344 -44.539062 34.152344 -38.539062 L 40.847656 -38.539062 C 40.847656 -48.308594 34 -54.460938 22.847656 -54.460938 C 11.691406 -54.460938 4.539062 -48.847656 4.539062 -39.539062 C 4.539062 -28.769531 13.691406 -26.539062 22 -24.617188 C 29 -22.921875 35.382812 -21.460938 35.382812 -15.152344 C 35.382812 -9.460938 30.078125 -5.921875 23.308594 -5.921875 C 15.847656 -5.921875 10.382812 -9.847656 10.382812 -16.539062 L 3.460938 -16.539062 C 3.460938 -5.921875 11.539062 0.691406 23.382812 0.691406 Z M 23.382812 0.691406 "/></g></g></g><g fill="#024eae" fill-opacity="1"><g transform="translate(277.989811, 81.190859)"><g/></g></g><g fill="#024eae" fill-opacity="1"><g transform="translate(298.143581, 81.190859)"><g><path d="M 14.078125 -6.460938 L 14.078125 -24.539062 L 35.769531 -24.539062 L 35.769531 -30.769531 L 14.078125 -30.769531 L 14.078125 -47.382812 L 37.769531 -47.382812 L 37.769531 -53.847656 L 7.308594 -53.847656 L 7.308594 0 L 38.617188 0 L 38.617188 -6.460938 Z M 14.078125 -6.460938 "/></g></g></g><g fill="#024eae" fill-opacity="1"><g transform="translate(340.681905, 81.190859)"><g><path d="M 27.308594 -42.382812 C 20.921875 -42.382812 15.617188 -39.617188 12.460938 -35 L 11.230469 -41.539062 L 6.539062 -41.539062 L 6.539062 0 L 13.078125 0 L 13.078125 -22.617188 C 13.078125 -30.382812 18.539062 -36.460938 25.691406 -36.460938 C 32.847656 -36.460938 36.847656 -31.691406 36.847656 -23.308594 L 36.847656 0 L 43.382812 0 L 43.382812 -24.847656 C 43.382812 -35 37.230469 -42.382812 27.308594 -42.382812 Z M 27.308594 -42.382812 "/></g></g></g><g fill="#024eae" fill-opacity="1"><g transform="translate(390.066335, 81.190859)"><g><path d="M 23.769531 -6 C 18.078125 -6 15 -9.078125 15 -14.691406 L 15 -35.617188 L 28.078125 -35.617188 L 28.078125 -41.539062 L 15 -41.539062 L 15 -50.308594 L 14 -50.308594 L 1.152344 -36.769531 L 1.152344 -35.617188 L 8.460938 -35.617188 L 8.460938 -14.460938 C 8.460938 -5.460938 14 0 22.921875 0 L 28.308594 0 L 28.308594 -6 Z M 23.769531 -6 "/></g></g></g><g fill="#024eae" fill-opacity="1"><g transform="translate(420.527756, 81.190859)"><g><path d="M 45.382812 -20.539062 C 45.382812 -32.691406 37.078125 -42.382812 24.460938 -42.382812 C 12.382812 -42.382812 3.308594 -33.078125 3.308594 -20.769531 C 3.308594 -8.382812 12.382812 0.921875 24.460938 0.921875 C 33.460938 0.921875 40.769531 -4.078125 44.308594 -12.617188 L 37.382812 -12.617188 C 34.847656 -8.152344 30.230469 -5.460938 24.460938 -5.460938 C 16.617188 -5.460938 10.847656 -10.539062 9.847656 -18.230469 L 45.230469 -18.230469 C 45.308594 -19 45.382812 -19.769531 45.382812 -20.539062 Z M 24.460938 -36.230469 C 31.847656 -36.230469 37.460938 -31.617188 38.847656 -24.230469 L 10 -24.230469 C 11.308594 -31.460938 16.921875 -36.230469 24.460938 -36.230469 Z M 24.460938 -36.230469 "/></g></g></g><g fill="#024eae" fill-opacity="1"><g transform="translate(469.142957, 81.190859)"><g><path d="M 40.847656 -41.539062 L 39.847656 -35.078125 C 36.078125 -39.617188 30.382812 -42.382812 23.691406 -42.382812 C 12.152344 -42.382812 3.308594 -33.382812 3.308594 -21.847656 C 3.308594 -10.230469 12.152344 -1.308594 23.691406 -1.308594 C 29.847656 -1.308594 35.152344 -3.617188 38.847656 -7.460938 L 38.847656 -4.921875 C 38.847656 4.308594 33.152344 9.769531 24.847656 9.769531 C 18.847656 9.769531 13.617188 6.847656 11.769531 1.691406 L 5.230469 1.691406 C 7.460938 10.460938 14.691406 15.769531 24.847656 15.769531 C 37.539062 15.769531 45.230469 7.617188 45.230469 -5.769531 L 45.230469 -41.460938 Z M 24.382812 -7.539062 C 16.078125 -7.539062 9.921875 -13.691406 9.921875 -21.847656 C 9.921875 -30 16.078125 -36.152344 24.382812 -36.152344 C 32.691406 -36.152344 38.769531 -30.078125 38.769531 -21.847656 C 38.769531 -13.617188 32.769531 -7.539062 24.382812 -7.539062 Z M 24.382812 -7.539062 "/></g></g></g><g fill="#024eae" fill-opacity="1"><g transform="translate(520.988937, 81.190859)"><g><path d="M 25.539062 -41.691406 C 19.539062 -41.691406 15.230469 -39.460938 12.230469 -35.152344 L 11.230469 -41.539062 L 6.539062 -41.539062 L 6.539062 0 L 13.078125 0 L 13.078125 -22.539062 C 13.078125 -30.617188 17.382812 -35.539062 25 -35.539062 L 29.230469 -35.539062 L 29.230469 -41.691406 Z M 25.539062 -41.691406 "/></g></g></g><g fill="#024eae" fill-opacity="1"><g transform="translate(550.681155, 81.190859)"><g><path d="M 42 -41.539062 L 41.152344 -35.152344 C 37.308594 -39.691406 31.539062 -42.382812 24.769531 -42.382812 C 12.460938 -42.382812 3.230469 -33.152344 3.230469 -20.691406 C 3.230469 -8.382812 12.460938 0.921875 24.769531 0.921875 C 31.539062 0.921875 37.230469 -1.769531 41.078125 -6.230469 L 41.769531 0 L 47.152344 0 L 47.152344 -41.539062 Z M 25.230469 -5.382812 C 16.460938 -5.382812 9.921875 -12 9.921875 -20.769531 C 9.921875 -29.460938 16.460938 -36.078125 25.230469 -36.078125 C 34.078125 -36.078125 40.460938 -29.539062 40.460938 -20.769531 C 40.460938 -11.921875 34.078125 -5.382812 25.230469 -5.382812 Z M 25.230469 -5.382812 "/></g></g></g><g fill="#024eae" fill-opacity="1"><g transform="translate(604.45022, 81.190859)"><g><path d="M 23.769531 -6 C 18.078125 -6 15 -9.078125 15 -14.691406 L 15 -35.617188 L 28.078125 -35.617188 L 28.078125 -41.539062 L 15 -41.539062 L 15 -50.308594 L 14 -50.308594 L 1.152344 -36.769531 L 1.152344 -35.617188 L 8.460938 -35.617188 L 8.460938 -14.460938 C 8.460938 -5.460938 14 0 22.921875 0 L 28.308594 0 L 28.308594 -6 Z M 23.769531 -6 "/></g></g></g><g fill="#024eae" fill-opacity="1"><g transform="translate(634.911668, 81.190859)"><g><path d="M 13.921875 -48.691406 L 21.460938 -48.691406 L 21.460938 -56.152344 L 13.921875 -56.152344 Z M 29.078125 -48.691406 L 36.617188 -48.691406 L 36.617188 -56.152344 L 29.078125 -56.152344 Z M 25.308594 0.921875 C 37.847656 0.921875 47.308594 -8.308594 47.308594 -20.769531 C 47.308594 -33.152344 37.847656 -42.382812 25.308594 -42.382812 C 12.691406 -42.382812 3.230469 -33.230469 3.230469 -20.769531 C 3.230469 -8.308594 12.691406 0.921875 25.308594 0.921875 Z M 25.308594 -5.382812 C 16.382812 -5.382812 9.921875 -11.847656 9.921875 -20.769531 C 9.921875 -29.617188 16.382812 -36.078125 25.308594 -36.078125 C 34.152344 -36.078125 40.617188 -29.617188 40.617188 -20.691406 C 40.617188 -11.847656 34.152344 -5.382812 25.308594 -5.382812 Z M 25.308594 -5.382812 "/></g></g></g><g fill="#024eae" fill-opacity="1"><g transform="translate(685.603816, 81.190859)"><g><path d="M 25.539062 -41.691406 C 19.539062 -41.691406 15.230469 -39.460938 12.230469 -35.152344 L 11.230469 -41.539062 L 6.539062 -41.539062 L 6.539062 0 L 13.078125 0 L 13.078125 -22.539062 C 13.078125 -30.617188 17.382812 -35.539062 25 -35.539062 L 29.230469 -35.539062 L 29.230469 -41.691406 Z M 25.539062 -41.691406 "/></g></g></g></svg>