<svg width="29" height="31" viewBox="0 0 29 31" fill="none" xmlns="http://www.w3.org/2000/svg">
<g clip-path="url(#clip0_266_9)">
<path d="M10.5244 1.90625H18.3248V15.9223H10.5244V1.90625Z" fill="#FF5F00"/>
<path d="M11.0197 8.9148C11.0197 6.06706 12.3569 3.54115 14.4122 1.90673C12.9018 0.718111 10.995 0 8.91491 0C3.98684 0 0 3.98684 0 8.9148C0 13.8427 3.98684 17.8296 8.9148 17.8296C10.9949 17.8296 12.9016 17.1115 14.4122 15.9228C12.3569 14.3132 11.0197 11.7625 11.0197 8.9148Z" fill="#EB001B"/>
<path d="M28.8492 8.9148C28.8492 13.8427 24.8624 17.8296 19.9344 17.8296C17.8543 17.8296 15.9476 17.1115 14.437 15.9228C16.5171 14.2885 17.8296 11.7625 17.8296 8.9148C17.8296 6.06706 16.4923 3.54115 14.437 1.90673C15.9475 0.718111 17.8543 0 19.9344 0C24.8624 0 28.8492 4.01166 28.8492 8.9148Z" fill="#F79E1B"/>
</g>
<g clip-path="url(#clip1_266_9)">
<path d="M14.9349 24.6188C14.9185 25.9178 16.0926 26.6427 16.9771 27.0737C17.8859 27.5159 18.1911 27.7995 18.1875 28.195C18.1808 28.8002 17.4627 29.0673 16.7907 29.0777C15.6183 29.0959 14.9366 28.7612 14.3947 28.508L13.9724 30.4843C14.5161 30.7348 15.5229 30.9533 16.5669 30.9629C19.0175 30.9629 20.6208 29.7532 20.6295 27.8776C20.6391 25.4972 17.337 25.3654 17.3595 24.3015C17.3673 23.9788 17.6752 23.6346 18.3497 23.547C18.6836 23.5028 19.6054 23.469 20.6504 23.9502L21.0605 22.0382C20.4985 21.8335 19.7763 21.6376 18.877 21.6376C16.5704 21.6376 14.948 22.8638 14.9349 24.6188ZM25.0017 21.8023C24.5542 21.8023 24.1771 22.0633 24.0088 22.4639L20.5081 30.8224H22.957L23.4443 29.4757H26.4368L26.7195 30.8224H28.8779L26.9944 21.8023H25.0017ZM25.3443 24.239L26.051 27.6261H24.1155L25.3443 24.239ZM11.9658 21.8024L10.0355 30.8223H12.3691L14.2985 21.8022L11.9658 21.8024ZM8.51367 21.8024L6.08477 27.9418L5.10225 22.7215C4.98696 22.1388 4.53168 21.8023 4.02609 21.8023H0.0556125L0 22.0642C0.815123 22.2411 1.74125 22.5264 2.30233 22.8316C2.64571 23.0181 2.74362 23.1811 2.85643 23.6242L4.71736 30.8224H7.18337L10.9641 21.8023L8.51367 21.8024Z" fill="url(#paint0_linear_266_9)"/>
</g>
<defs>
<linearGradient id="paint0_linear_266_9" x1="1327.63" y1="49.6694" x2="1354.62" y2="-908.052" gradientUnits="userSpaceOnUse">
<stop stop-color="#222357"/>
<stop offset="1" stop-color="#254AA5"/>
</linearGradient>
<clipPath id="clip0_266_9">
<rect width="28.8779" height="22.448" fill="white"/>
</clipPath>
<clipPath id="clip1_266_9">
<rect width="28.8779" height="9.36275" fill="white" transform="translate(0 21.6377)"/>
</clipPath>
</defs>
</svg>
