<?xml version="1.0" encoding="UTF-8"?>
<svg xmlns="http://www.w3.org/2000/svg" xmlns:xlink="http://www.w3.org/1999/xlink" width="36px" height="36px" viewBox="0 0 158 158" version="1.1">
<g id="surface1">
<path style=" stroke:none;fill-rule:nonzero;fill:rgb(11.372549%,14.117647%,15.686275%);fill-opacity:1;" d="M 87.445312 116.992188 C 85.902344 115.988281 83.945312 115.085938 81.585938 114.300781 C 79.785156 113.679688 78.296875 113.09375 77.140625 112.527344 C 75.992188 111.96875 75.140625 111.34375 74.597656 110.691406 C 74.042969 110.023438 73.78125 109.222656 73.78125 108.304688 C 73.78125 107.570312 74.003906 106.871094 74.476562 106.210938 C 74.941406 105.554688 75.667969 105.003906 76.65625 104.589844 C 77.652344 104.167969 78.925781 103.941406 80.5 103.933594 C 81.773438 103.941406 82.929688 104.042969 83.980469 104.222656 C 85.015625 104.410156 85.933594 104.636719 86.722656 104.898438 C 87.519531 105.167969 88.164062 105.421875 88.671875 105.660156 L 90.425781 100.371094 C 89.363281 99.839844 88.035156 99.398438 86.421875 99.039062 C 85.054688 98.734375 83.484375 98.5625 81.707031 98.5 L 81.707031 93.027344 L 76.882812 93.027344 L 76.882812 98.777344 C 76.109375 98.902344 75.367188 99.070312 74.667969 99.273438 C 72.894531 99.796875 71.371094 100.523438 70.109375 101.472656 C 68.859375 102.417969 67.890625 103.523438 67.226562 104.789062 C 66.558594 106.058594 66.226562 107.453125 66.214844 108.953125 C 66.226562 110.691406 66.679688 112.222656 67.578125 113.546875 C 68.476562 114.867188 69.757812 116.019531 71.410156 117.003906 C 73.054688 117.984375 75.019531 118.828125 77.292969 119.539062 C 78.996094 120.085938 80.386719 120.65625 81.445312 121.242188 C 82.507812 121.824219 83.28125 122.464844 83.765625 123.167969 C 84.261719 123.867188 84.503906 124.679688 84.492188 125.589844 C 84.492188 126.585938 84.203125 127.453125 83.628906 128.199219 C 83.0625 128.9375 82.226562 129.515625 81.125 129.929688 C 80.027344 130.34375 78.683594 130.546875 77.109375 130.558594 C 75.859375 130.550781 74.613281 130.445312 73.378906 130.234375 C 72.234375 130.035156 71.109375 129.75 70.007812 129.386719 C 68.957031 129.039062 68.039062 128.660156 67.242188 128.238281 L 65.546875 133.746094 C 66.3125 134.167969 67.273438 134.546875 68.445312 134.894531 C 69.617188 135.246094 70.90625 135.527344 72.316406 135.742188 C 73.746094 135.949219 75.183594 136.058594 76.628906 136.066406 L 76.882812 136.0625 L 76.882812 141.722656 L 81.707031 141.722656 L 81.707031 135.609375 C 82.292969 135.496094 82.878906 135.355469 83.453125 135.1875 C 85.386719 134.601562 86.996094 133.808594 88.265625 132.792969 C 89.546875 131.785156 90.492188 130.617188 91.121094 129.300781 C 91.746094 127.988281 92.066406 126.554688 92.0625 125.105469 C 92.0625 123.367188 91.6875 121.832031 90.921875 120.507812 C 90.148438 119.167969 88.996094 118 87.445312 116.992188 Z M 87.445312 116.992188 "/>
<path style=" stroke:none;fill-rule:nonzero;fill:rgb(11.372549%,14.117647%,15.686275%);fill-opacity:1;" d="M 134.859375 23.136719 C 120.566406 8.839844 100.8125 0 79.003906 0 C 57.1875 0 37.4375 8.839844 23.140625 23.136719 C 8.839844 37.433594 0 57.1875 0 79 C 0 100.8125 8.839844 120.566406 23.136719 134.863281 C 37.433594 149.160156 57.1875 158 79.003906 158 C 100.816406 158 120.570312 149.15625 134.863281 134.863281 C 149.160156 120.5625 158 100.8125 158 79 C 158 57.1875 149.15625 37.433594 134.859375 23.136719 Z M 132.253906 132.253906 C 118.625 145.878906 99.796875 154.308594 79 154.308594 C 58.203125 154.308594 39.371094 145.878906 25.746094 132.253906 C 12.117188 118.625 3.6875 99.796875 3.6875 79 C 3.6875 58.203125 12.117188 39.375 25.746094 25.746094 C 39.371094 12.121094 58.199219 3.691406 78.996094 3.691406 C 99.792969 3.691406 118.621094 12.121094 132.25 25.746094 C 145.878906 39.375 154.308594 58.203125 154.308594 79 C 154.308594 99.796875 145.878906 118.625 132.253906 132.253906 Z M 132.253906 132.253906 "/>
<path style=" stroke:none;fill-rule:nonzero;fill:rgb(11.372549%,14.117647%,15.686275%);fill-opacity:1;" d="M 146.960938 78.339844 C 146.605469 41.109375 116.316406 11.035156 79.003906 11.035156 C 41.6875 11.035156 11.394531 41.113281 11.046875 78.34375 L 42.207031 47.183594 L 52.660156 57.632812 L 29.855469 80.4375 L 128.152344 80.4375 L 105.347656 57.632812 L 115.796875 47.183594 Z M 79 66.664062 L 50.042969 36.277344 L 69.285156 36.277344 L 69.285156 21.300781 C 69.285156 17.414062 73.65625 14.226562 79 14.226562 C 84.34375 14.226562 88.714844 17.410156 88.714844 21.300781 L 88.714844 36.277344 L 107.957031 36.277344 Z M 79 66.664062 "/>
</g>
</svg>
