<svg width="549" height="272" viewBox="0 0 549 272" fill="none" xmlns="http://www.w3.org/2000/svg">
<path d="M136 0C60.882 0 0 60.8816 0 135.999C0 211.093 60.882 272 136 272C211.118 272 272 211.117 272 135.999C271.977 60.8816 211.095 0 136 0ZM102.007 192.646H79.352V79.3268H102.007V192.646ZM192.649 192.646H124.661V169.993H192.649V192.646ZM192.649 147.314H124.661V124.66H192.649V147.314ZM192.649 101.981H124.661V79.3268H192.649V101.981Z" fill="#92003B"/>
<rect x="289" y="71" width="260" height="129" rx="6" fill="#92003B"/>
<path d="M344.2 102C350.267 102 355.533 103 360 105C364.533 107 368 109.867 370.4 113.6C372.8 117.333 374 121.767 374 126.9C374 131.967 372.8 136.4 370.4 140.2C368 143.933 364.533 146.8 360 148.8C355.533 150.8 350.267 151.8 344.2 151.8H328.4V172H315.4V102H344.2ZM343.6 140.8C349.267 140.8 353.567 139.6 356.5 137.2C359.433 134.8 360.9 131.367 360.9 126.9C360.9 122.433 359.433 119 356.5 116.6C353.567 114.2 349.267 113 343.6 113H328.4V140.8H343.6ZM432.782 172L418.482 151.5C417.882 151.567 416.982 151.6 415.782 151.6H399.982V172H386.982V102H415.782C421.849 102 427.115 103 431.582 105C436.115 107 439.582 109.867 441.982 113.6C444.382 117.333 445.582 121.767 445.582 126.9C445.582 132.167 444.282 136.7 441.682 140.5C439.149 144.3 435.482 147.133 430.682 149L446.782 172H432.782ZM432.482 126.9C432.482 122.433 431.015 119 428.082 116.6C425.149 114.2 420.849 113 415.182 113H399.982V140.9H415.182C420.849 140.9 425.149 139.7 428.082 137.3C431.015 134.833 432.482 131.367 432.482 126.9ZM492.827 173C485.693 173 479.26 171.467 473.527 168.4C467.793 165.267 463.293 160.967 460.027 155.5C456.76 149.967 455.127 143.8 455.127 137C455.127 130.2 456.76 124.067 460.027 118.6C463.293 113.067 467.793 108.767 473.527 105.7C479.26 102.567 485.693 101 492.827 101C499.96 101 506.393 102.567 512.127 105.7C517.86 108.767 522.36 113.033 525.627 118.5C528.893 123.967 530.527 130.133 530.527 137C530.527 143.867 528.893 150.033 525.627 155.5C522.36 160.967 517.86 165.267 512.127 168.4C506.393 171.467 499.96 173 492.827 173ZM492.827 161.6C497.493 161.6 501.693 160.567 505.427 158.5C509.16 156.367 512.093 153.433 514.227 149.7C516.36 145.9 517.427 141.667 517.427 137C517.427 132.333 516.36 128.133 514.227 124.4C512.093 120.6 509.16 117.667 505.427 115.6C501.693 113.467 497.493 112.4 492.827 112.4C488.16 112.4 483.96 113.467 480.227 115.6C476.493 117.667 473.56 120.6 471.427 124.4C469.293 128.133 468.227 132.333 468.227 137C468.227 141.667 469.293 145.9 471.427 149.7C473.56 153.433 476.493 156.367 480.227 158.5C483.96 160.567 488.16 161.6 492.827 161.6Z" fill="white"/>
</svg>
