<svg width="360" height="117" viewBox="0 0 360 117" fill="none" xmlns="http://www.w3.org/2000/svg">
<path fill-rule="evenodd" clip-rule="evenodd" d="M342.845 59.027H344.164C344.164 59.027 359.736 59.2905 360 79.3176C360 98.554 340.733 114.892 318.035 114.892C314.34 114.892 283.724 113.838 281.349 77.2094C275.279 76.9459 264.985 75.8919 256.276 72.2027C247.566 93.5473 234.106 110.412 225.924 110.412C217.742 110.412 210.88 99.8716 205.337 79.5811L204.809 77.473C194.252 95.3919 179.736 110.149 172.61 110.149C164.164 110.149 153.871 100.399 153.871 91.1757C153.871 81.9527 156.774 59.8176 156.774 59.8176C156.774 59.8176 149.12 61.3986 138.035 62.9797C135.924 73.5203 124.311 117 78.915 117C24.8094 117 0 58.5 0 58.5C6.00388 54.7976 13.455 47.0255 21.8002 38.3211C38.4009 21.0055 58.5391 0 77.8592 0C106.892 0 117.185 35.8378 117.185 35.8378L114.809 39.7905C114.809 39.7905 105.308 27.6689 83.4018 27.6689C66.6688 27.6689 53.9952 42.6801 44.8137 53.5552C41.8303 57.0888 39.2156 60.1858 36.9501 62.1892C36.9501 62.1892 59.912 98.2905 89.7361 98.2905C105.572 98.2905 122.727 84.5878 132.493 63.7703C115.601 66.1419 93.4311 68.25 77.8592 66.4054C77.8592 66.4054 77.0675 65.6149 76.8035 64.8243C76.2757 63.7703 76.2757 62.7162 76.2757 62.7162C131.437 62.7162 172.874 39.7905 176.569 37.4189C176.833 37.1554 177.097 37.1554 177.361 37.1554C180.915 38.012 179.062 50.1207 177.115 62.846C174.869 77.523 172.498 93.0203 178.152 93.0203C183.959 93.0203 195.572 75.1013 202.17 64.2973C199.883 52.7026 197.595 41.8106 196.325 35.7596C195.689 32.7342 195.308 30.9189 195.308 30.8311V30.0405L195.836 29.777C196.1 29.5135 207.449 25.0338 214.575 25.0338C219.853 25.0338 223.021 27.9324 223.021 32.9392C223.021 36.1013 221.437 42.6892 218.534 50.5946C220.329 67.3979 226.321 83.0582 229.212 90.6116C229.721 91.9423 230.134 93.0214 230.411 93.8108L230.477 93.732C233.449 90.2259 242.327 79.7511 247.566 67.4595C241.496 62.7162 238.592 56.1284 238.592 48.223C238.592 35.0473 245.982 28.1959 253.109 28.1959C258.123 28.1959 263.402 31.6216 263.402 39.2635C263.402 44.7973 262.61 50.8581 261.026 57.4459C265.249 61.3986 272.111 65.6149 281.349 65.8784C283.197 46.9054 292.434 19.7635 310.645 19.7635C329.912 19.7635 332.815 35.8378 332.815 45.5878C332.815 59.027 320.674 70.6216 301.935 75.1013C302.463 90.3851 306.686 103.824 318.035 103.824C325.161 103.824 330.968 100.926 335.455 95.3919C343.372 85.9054 345.22 70.6216 343.109 60.3446L342.845 59.027ZM302.464 61.9255C316.188 55.8646 316.452 44.0065 316.452 43.743C316.452 36.1011 313.285 31.6214 310.381 31.3579C307.742 31.3579 303.783 45.8511 302.464 61.9255Z" fill="#66BB6A"/>
<path d="M158.093 29.2502C158.093 29.7772 158.357 30.0407 158.885 30.3042C169.706 31.8853 176.832 28.4596 176.832 11.0678C176.832 -5.27008 159.941 7.64208 156.774 10.0137C156.51 10.2772 156.51 10.5407 156.51 11.0678C159.413 17.3921 158.621 26.615 158.093 29.2502" fill="#66BB6A"/>
<mask id="mask0" mask-type="alpha" maskUnits="userSpaceOnUse" x="281" y="75" width="28" height="26">
<path fill-rule="evenodd" clip-rule="evenodd" d="M291.642 76.9501C286.364 77.4771 281.349 77.2136 281.349 77.2136C282.141 87.7541 284.896 94.8607 288.855 100.395L308.121 98.8134C304.031 93.4773 302.319 85.4895 301.936 75.1013C301.936 75.1013 296.657 76.423 291.642 76.9501Z" fill="white"/>
</mask>
<g mask="url(#mask0)">
<path d="M310.909 100.135L307.742 71.9393L278.446 75.365L281.613 103.561L310.909 100.135Z" fill="url(#paint0_linear)"/>
</g>
<mask id="mask1" mask-type="alpha" maskUnits="userSpaceOnUse" x="281" y="42" width="24" height="24">
<path d="M302.464 61.9305C298.381 64.4405 285.703 66.2199 281.349 65.8785C281.988 59.9673 283.264 51.8005 286.628 42.9528C289.197 42.3458 300.882 42.3279 304.423 47.3267C303.659 51.4123 303.325 53.9275 303.048 56.1329C302.819 58.024 302.65 59.6877 302.464 61.9305Z" fill="white"/>
</mask>
<g mask="url(#mask1)">
<rect x="281.086" y="42.6766" width="23.3377" height="23.2438" fill="url(#paint1_linear)"/>
</g>
<mask id="mask2" mask-type="alpha" maskUnits="userSpaceOnUse" x="185" y="64" width="20" height="34">
<path fill-rule="evenodd" clip-rule="evenodd" d="M185.943 87.4966C187.263 90.6588 188.689 94.3294 190.273 97.4916C192.871 94.4962 195.727 91.1405 199.098 86.2923C201.087 83.4321 203.157 80.1392 204.81 77.4728L202.181 64.2848C197.954 71.4594 190.768 82.3602 185.943 87.4966Z" fill="white"/>
</mask>
<g mask="url(#mask2)">
<path d="M187.654 103.297L214.839 94.0742L202.962 58.4999L175.777 67.7229L187.654 103.297Z" fill="url(#paint2_linear)"/>
</g>
<mask id="mask3" mask-type="alpha" maskUnits="userSpaceOnUse" x="235" y="67" width="22" height="30">
<path fill-rule="evenodd" clip-rule="evenodd" d="M235.162 88.0011C237.009 90.6362 240.44 94.0744 242.816 96.7095C244.75 94.0267 246.823 90.9046 248.812 87.4247C251.67 82.4229 254.308 76.9302 256.276 72.2028C256.276 72.2028 253.678 71.2948 251.554 70.0698C249.43 68.8449 247.575 67.4656 247.575 67.4656C243.842 76.0092 238.997 83.0808 235.162 88.0011Z" fill="white"/>
</mask>
<g mask="url(#mask3)">
<path d="M251.261 105.669L268.944 74.3111L240.439 58.2368L222.756 89.3314L251.261 105.669Z" fill="url(#paint3_linear)"/>
</g>
<mask id="mask4" mask-type="alpha" maskUnits="userSpaceOnUse" x="216" y="32" width="7" height="19">
<path fill-rule="evenodd" clip-rule="evenodd" d="M216.158 34.2566C216.158 34.2566 216.422 38.9998 218.534 50.5944C221.437 42.4255 222.996 36.1527 222.996 32.9905C222.996 32.727 222.996 32.4635 222.996 32.2L216.158 34.2566Z" fill="white"/>
</mask>
<g mask="url(#mask4)">
<path d="M218.005 28.9865L207.712 45.3243L221.172 53.4932L231.465 37.1554L218.005 28.9865Z" fill="url(#paint4_linear)"/>
</g>
<mask id="mask5" mask-type="alpha" maskUnits="userSpaceOnUse" x="255" y="41" width="9" height="17">
<path fill-rule="evenodd" clip-rule="evenodd" d="M255.215 45.0648C255.215 45.0648 253.368 50.5986 261.022 57.4499C262.341 51.9161 263.079 46.6521 263.358 41.6494L255.215 45.0648Z" fill="white"/>
</mask>
<g mask="url(#mask5)">
<path d="M254.163 38.7363L249.676 56.1282L262.873 59.5539L267.623 42.4255L254.163 38.7363Z" fill="url(#paint5_linear)"/>
</g>
<mask id="mask6" mask-type="alpha" maskUnits="userSpaceOnUse" x="113" y="62" width="26" height="32">
<path fill-rule="evenodd" clip-rule="evenodd" d="M132.487 63.7701C127.589 74.2694 121.259 82.4425 113.609 88.6597L124.847 93.7447C130.785 85.4276 133.796 77.7074 135.924 71.1484L137.054 67.1669L138.043 62.9672L132.487 63.7701Z" fill="white"/>
</mask>
<g mask="url(#mask6)">
<path d="M115.732 64.5112L139.156 62.4525L138.001 94.4859L113.225 93.5471L115.732 64.5112Z" fill="url(#paint6_linear)"/>
</g>
<defs>
<linearGradient id="paint0_linear" x1="305.379" y1="95.4265" x2="303.364" y2="76.5767" gradientUnits="userSpaceOnUse">
<stop stop-color="#66BB6A"/>
<stop offset="1" stop-color="#378F43"/>
</linearGradient>
<linearGradient id="paint1_linear" x1="283.171" y1="56.54" x2="283.171" y2="76.0126" gradientUnits="userSpaceOnUse">
<stop stop-color="#66BB6A"/>
<stop offset="1" stop-color="#378F43"/>
</linearGradient>
<linearGradient id="paint2_linear" x1="190.003" y1="93.649" x2="208.027" y2="89.0882" gradientUnits="userSpaceOnUse">
<stop stop-color="#66BB6A"/>
<stop offset="1" stop-color="#378F43"/>
</linearGradient>
<linearGradient id="paint3_linear" x1="250.901" y1="93.6803" x2="261.572" y2="75.9136" gradientUnits="userSpaceOnUse">
<stop stop-color="#66BB6A"/>
<stop offset="1" stop-color="#378F43"/>
</linearGradient>
<linearGradient id="paint4_linear" x1="218.215" y1="38.1846" x2="215.121" y2="42.807" gradientUnits="userSpaceOnUse">
<stop stop-color="#66BB6A"/>
<stop offset="1" stop-color="#378F43"/>
</linearGradient>
<linearGradient id="paint5_linear" x1="256.01" y1="47.8457" x2="253.825" y2="54.0084" gradientUnits="userSpaceOnUse">
<stop stop-color="#66BB6A"/>
<stop offset="1" stop-color="#378F43"/>
</linearGradient>
<linearGradient id="paint6_linear" x1="135.123" y1="87.5669" x2="135.123" y2="64.0191" gradientUnits="userSpaceOnUse">
<stop stop-color="#66BB6A"/>
<stop offset="1" stop-color="#378F43"/>
</linearGradient>
</defs>
</svg>