<svg width="256" height="279" viewBox="0 0 256 279" fill="none" xmlns="http://www.w3.org/2000/svg">
<path d="M72.8215 160.529C73.6176 150.332 77.0198 139.803 83.0281 128.943C87.7665 120.395 95.1964 116.111 105.318 116.092C140.382 116.054 177.55 116.054 216.822 116.092C217.922 116.092 218.471 115.552 218.471 114.472L218.414 85.8422C218.414 84.5344 217.76 83.8805 216.453 83.8805C182.45 84.1459 149.717 84.0795 118.254 83.6815C102.617 83.492 90.9602 84.8472 83.284 87.7471C70.1491 92.7319 60.2173 102.398 53.4888 116.746C50.0771 124.024 46.2674 135.169 44.9596 144.239C43.3675 155.241 40.1833 165.846 39.1029 176.991C38.6101 182.222 38.3068 187.567 38.1931 193.025C38.1742 193.746 38.5248 194.106 39.245 194.106L216.168 194.077C217.097 194.077 217.561 193.622 217.561 192.713V135.34C217.561 134.146 216.964 133.549 215.77 133.549L186.402 133.634C184.961 133.634 184.25 134.345 184.269 135.766L184.61 160.245C184.614 160.468 184.574 160.689 184.491 160.896C184.408 161.102 184.285 161.291 184.129 161.449C183.973 161.608 183.787 161.734 183.582 161.82C183.376 161.907 183.156 161.951 182.933 161.951L74.1009 161.922C73.9229 161.923 73.7467 161.887 73.5835 161.815C73.4204 161.744 73.274 161.64 73.1535 161.508C73.0331 161.377 72.9414 161.222 72.8842 161.054C72.8271 160.885 72.8057 160.707 72.8215 160.529Z" stroke="#F8AD95" stroke-width="2"/>
<path d="M100.541 269.303C76.2611 255.201 51.4697 241.128 27.6449 227.823C19.419 223.236 13.4675 218.109 9.79051 212.442C4.1044 203.761 1.23291 194.597 1.17605 184.95C1.02442 157.505 0.635868 128.079 0.0103962 96.6727C-0.12228 90.0957 1.01494 83.8789 3.42206 78.0222C8.08467 66.7353 14.2825 59.3434 24.546 53.4014C51.157 37.9541 77.5879 22.4879 103.839 7.00269C119.438 -2.18986 135.093 -2.33199 150.806 6.57625C178.043 22.0046 206.047 37.9257 234.818 54.3396C244.286 59.7414 249.574 69.4362 253.184 79.4722C254.814 84.0211 255.639 89.1765 255.658 94.9384C255.715 125.056 255.829 155.097 255.999 185.063C256.037 191.356 254.9 196.938 252.587 201.809C248.749 209.968 244.229 218.1 236.439 222.677C207.099 239.792 179.085 256.253 152.398 272.061C143.907 277.083 134.695 279.187 124.764 278.372C118.073 277.823 109.999 274.8 100.541 269.303ZM72.821 160.528C73.6171 150.331 77.0193 139.802 83.0276 128.941C87.766 120.393 95.1959 116.11 105.317 116.091C140.382 116.053 177.55 116.053 216.822 116.091C217.921 116.091 218.471 115.551 218.471 114.47L218.414 85.8406C218.414 84.5328 217.76 83.8789 216.452 83.8789C182.449 84.1443 149.716 84.0779 118.253 83.6799C102.616 83.4904 90.9597 84.8456 83.2835 87.7455C70.1486 92.7303 60.2168 102.397 53.4883 116.745C50.0766 124.023 46.2669 135.168 44.9591 144.237C43.367 155.24 40.1828 165.844 39.1024 176.989C38.6096 182.22 38.3063 187.565 38.1926 193.024C38.1737 193.744 38.5243 194.104 39.2446 194.104L216.168 194.076C217.097 194.076 217.561 193.621 217.561 192.711V135.338C217.561 134.144 216.964 133.547 215.77 133.547L186.401 133.632C184.961 133.632 184.25 134.343 184.269 135.765L184.61 160.243C184.614 160.466 184.573 160.687 184.491 160.894C184.408 161.101 184.285 161.289 184.129 161.448C183.973 161.607 183.787 161.733 183.581 161.819C183.376 161.905 183.155 161.949 182.933 161.949L74.1004 161.921C73.9224 161.921 73.7462 161.885 73.5831 161.814C73.4199 161.742 73.2735 161.638 73.1531 161.507C73.0326 161.376 72.9409 161.221 72.8837 161.052C72.8266 160.884 72.8052 160.705 72.821 160.528Z" fill="#F05A2A"/>
<path d="M72.8215 160.529C72.8057 160.707 72.8271 160.885 72.8842 161.054C72.9414 161.222 73.0331 161.377 73.1535 161.508C73.274 161.64 73.4204 161.744 73.5835 161.815C73.7467 161.887 73.9229 161.923 74.1009 161.922L182.933 161.951C183.156 161.951 183.376 161.907 183.582 161.82C183.787 161.734 183.973 161.608 184.129 161.449C184.285 161.291 184.408 161.102 184.491 160.896C184.574 160.689 184.614 160.468 184.61 160.245L184.269 135.766C184.25 134.345 184.961 133.634 186.402 133.634L215.77 133.549C216.964 133.549 217.561 134.146 217.561 135.34V192.713C217.561 193.622 217.097 194.077 216.168 194.077L39.245 194.106C38.5248 194.106 38.1742 193.746 38.1931 193.025C38.3068 187.567 38.6101 182.222 39.1029 176.991C40.1833 165.846 43.3675 155.241 44.9596 144.239C46.2674 135.169 50.0771 124.024 53.4888 116.746C60.2173 102.398 70.1491 92.7319 83.284 87.7471C90.9602 84.8472 102.617 83.492 118.254 83.6815C149.717 84.0795 182.45 84.1459 216.453 83.8805C217.76 83.8805 218.414 84.5344 218.414 85.8422L218.471 114.472C218.471 115.552 217.922 116.092 216.822 116.092C177.55 116.054 140.382 116.054 105.318 116.092C95.1964 116.111 87.7665 120.395 83.0281 128.943C77.0198 139.803 73.6176 150.332 72.8215 160.529Z" fill="white"/>
</svg>
