<svg width="285" height="285" viewBox="0 0 285 285" fill="none" xmlns="http://www.w3.org/2000/svg">
<path d="M209.556 77.1113L196.926 82.0933" stroke="#686A6C" stroke-width="2"/>
<path d="M176.411 90.5234L151.426 101.353" stroke="#686A6C" stroke-width="2"/>
<path d="M127.048 112.506C116.134 117.636 105.202 122.941 94.2532 128.42" stroke="#686A6C" stroke-width="2"/>
<path d="M69.7108 141.088L66.2485 143.028" stroke="#686A6C" stroke-width="2"/>
<path d="M55.5639 149.03C55.5583 148.867 55.4971 148.817 55.3802 148.88C50.6247 151.466 44.9144 154.669 38.2496 158.488C38.2199 158.504 38.1893 158.509 38.1578 158.501C38.1355 158.498 38.1095 158.495 38.0798 158.493" stroke="#686A6C" stroke-width="2"/>
<path d="M218.142 121.422C218.058 121.62 217.952 121.769 217.822 121.867C209.138 128.437 200.683 135.29 192.456 142.424C172.365 159.839 153.391 178.397 135.534 198.096C135.5 198.133 135.501 198.2 135.536 198.297" stroke="#6C9429" stroke-width="2"/>
<path d="M121.064 215.017C121.025 214.89 121.03 214.798 121.08 214.738C123.35 212.053 125.623 209.368 127.899 206.684" stroke="#6C9429" stroke-width="2"/>
<path d="M108 231.554L114.123 223.299" stroke="#6C9429" stroke-width="2"/>
<path d="M33.7881 267.02C44.2065 249.992 55.7782 233.823 68.503 218.511C97.0225 184.195 130.365 154.462 166.861 128.75C174.996 123.021 182.733 117.763 190.073 112.978C190.088 112.969 190.377 112.802 190.939 112.477C191.416 112.204 191.764 111.885 191.983 111.52" stroke="#218CBA" stroke-width="2"/>
<path d="M209.556 77.1117L196.926 82.0937C196.991 81.3997 196.987 80.8218 196.914 80.3597C195.91 73.9918 190.104 70.6352 183.961 72.038C180.557 72.8154 177.851 74.6866 175.846 77.6517C173.19 81.5816 173.165 86.9058 176.411 90.524L151.426 101.353C152.113 93.2682 146.166 86.6386 137.866 87.5571C129.53 88.4783 123.032 96.5496 123.727 104.852C123.983 107.889 125.09 110.441 127.048 112.506C116.134 117.636 105.202 122.941 94.2532 128.42C95.3702 125.303 95.8174 122.203 95.5947 119.121C94.8767 109.266 86.875 102.127 76.8359 105.403C67.0585 108.595 61.147 119.94 62.5665 129.828C63.2604 134.673 65.6419 138.427 69.7109 141.089L66.2486 143.029C62.2056 144.063 58.644 146.063 55.5639 149.03C55.5583 148.866 55.4971 148.816 55.3802 148.879C50.6247 151.466 44.9144 154.668 38.2496 158.487C38.2199 158.504 38.1893 158.508 38.1578 158.501C38.1355 158.497 38.1095 158.494 38.0798 158.493C39.5883 139.173 41.0875 119.853 42.5775 100.532C42.7834 97.8642 43.0376 96.0459 43.3401 95.0773C44.4868 91.3951 47.1698 87.7825 50.7239 86.1098C51.6294 85.6849 52.8939 85.2925 54.5174 84.9325C57.5418 84.2646 60.6906 83.5381 63.9636 82.7533C64.0286 82.7366 64.0768 82.6976 64.1083 82.6364L64.1473 82.5585C64.1993 82.4583 64.28 82.3952 64.3895 82.3692L66.925 81.7875C67.0233 81.7652 67.0752 81.7031 67.0808 81.601C67.4129 75.4242 67.7228 69.3698 68.0104 63.4379C68.298 57.5467 69.4827 51.7911 71.5646 46.1709C79.0764 25.898 96.5299 9.02624 117.131 2.68053C132.166 -1.95071 149.4 -0.394904 160.827 11.1053C167.218 17.5345 170.755 26.1569 171.415 35.205C171.929 42.2391 172.444 49.4912 172.959 56.9613C172.969 57.0949 173.038 57.146 173.168 57.1144L177.507 56.1069C177.534 56.1012 177.562 56.1031 177.587 56.1125C177.613 56.1218 177.635 56.1382 177.652 56.1598C177.676 56.1913 177.694 56.2275 177.705 56.2683C177.729 56.3592 177.786 56.3936 177.877 56.3713C182.967 55.1838 187.644 54.103 191.907 53.1289C199.302 51.4423 207.171 54.9797 208.019 63.2458C208.281 65.7971 208.793 70.4191 209.556 77.1117ZM84.8349 77.93L149.903 62.8506C149.966 62.8358 149.996 62.7949 149.992 62.7281C149.716 56.2247 149.462 50.3679 149.23 45.1578C149.089 41.9961 148.988 40.1425 148.926 39.5969C147.674 28.5894 139.928 20.5737 128.924 19.2183C121.604 18.3166 114.05 20.3233 107.668 23.9609C96.6134 30.2565 87.6737 41.6231 85.6893 54.4982C85.4685 55.9232 85.3293 57.659 85.2718 59.7056C85.09 66.1812 84.9007 72.2198 84.704 77.8215C84.7037 77.8381 84.7071 77.8546 84.7139 77.8697C84.7208 77.8848 84.7309 77.8982 84.7435 77.9087C84.7562 77.9192 84.771 77.9265 84.7868 77.9302C84.8027 77.9339 84.8191 77.9339 84.8349 77.93Z" fill="#77787B"/>
<path d="M41.2638 285C41.2341 285 41.2035 285 41.1719 285L33.7881 267.021C44.2065 249.993 55.7782 233.824 68.503 218.512C97.0225 184.195 130.365 154.462 166.861 128.751C174.996 123.021 182.733 117.764 190.073 112.979C190.088 112.969 190.377 112.802 190.939 112.478C191.416 112.205 191.764 111.886 191.983 111.52C192.552 111.183 193.146 110.856 193.764 110.541C221.906 96.2127 250.871 83.8043 280.658 73.3153C280.686 73.3042 280.706 73.3125 280.717 73.3404V73.3431C280.726 73.3691 280.718 73.3867 280.692 73.396C258.281 81.6649 237.104 91.9071 216.528 104.12C190.28 119.696 165.373 138.039 141.807 159.147C101.52 195.231 67.3535 237.669 41.2638 285Z" fill="#1E80AB"/>
<path d="M209.556 77.1113L211.075 90.7936C211.088 90.9142 211.04 91.0023 210.931 91.058L204.354 94.2781C204.271 94.3189 204.191 94.3143 204.115 94.2642C200.801 92.0989 197.074 91.2992 192.935 91.8651C192.194 91.9671 191.452 92.0859 190.708 92.2213C190.261 92.3011 190.233 92.2269 190.624 91.9987C193.454 90.3529 195.404 87.9352 196.475 84.7457C196.668 84.1742 196.818 83.29 196.926 82.0933L209.556 77.1113Z" fill="#595B5C"/>
<path d="M176.411 90.5234C178.108 92.2323 179.7 92.9309 181.76 93.571C182.064 93.6657 182.058 93.7315 181.74 93.7687C180.755 93.8893 179.762 94.0581 178.762 94.2752C172.038 95.7336 166.349 101.281 165.353 108.197C165.208 109.199 165.176 110.546 165.256 112.238C165.324 113.721 165.43 115.17 165.573 116.585C165.579 116.647 165.568 116.709 165.541 116.764C165.513 116.819 165.47 116.865 165.417 116.897C164.129 117.658 162.83 118.426 161.52 119.202C161.164 119.413 160.727 119.302 160.332 119.299C160.211 119.297 160.188 119.249 160.262 119.154C160.4 118.974 160.579 118.856 160.8 118.801C160.828 118.793 160.855 118.778 160.876 118.757C160.897 118.736 160.911 118.71 160.919 118.681C160.926 118.652 160.925 118.622 160.916 118.594C160.908 118.565 160.891 118.54 160.869 118.52C156.811 114.953 152.094 113.4 146.717 113.861C145.556 113.961 144.298 114.225 143.096 114.356C142.864 114.382 142.847 114.334 143.046 114.211C147.896 111.233 150.689 106.947 151.426 101.353L176.411 90.5234Z" fill="#595B5C"/>
<path d="M191.983 111.52C191.764 111.885 191.416 112.204 190.939 112.477C190.377 112.802 190.088 112.969 190.073 112.978C182.733 117.763 174.996 123.021 166.861 128.75C130.365 154.462 97.0225 184.195 68.503 218.511C55.7782 233.823 44.2066 249.992 33.7881 267.02L28.5 253.83C28.4726 253.761 28.4285 253.701 28.372 253.655C28.2514 253.56 28.2004 253.439 28.2189 253.29C28.2301 253.199 28.2189 253.111 28.1855 253.026C17.6122 226.187 8.93969 200.142 0.676361 173.145C0.600287 172.893 0.636469 172.875 0.784906 173.092C7.12226 182.305 13.9439 191.537 20.9715 199.561C24.0701 203.097 28.3535 207.832 33.8215 213.766C36.9721 217.188 40.4493 221.184 44.253 225.756C44.3235 225.841 44.3931 225.841 44.4617 225.753C52.6109 215.379 61.4439 205.48 70.9606 196.054C92.1658 175.054 116.867 156.079 142.333 139.892C158.424 129.664 174.974 120.207 191.983 111.52Z" fill="#2497C8"/>
<path d="M127.048 112.506C128.608 114.061 130.363 115.116 132.311 115.673C132.944 115.853 132.931 115.977 132.275 116.043C130.607 116.208 128.993 116.497 127.435 116.909C124.557 117.669 121.768 119.252 119.53 121.22C115.615 124.668 113.131 129.007 112.077 134.24C111.782 135.704 111.643 137.402 111.671 138.907C111.741 142.7 111.8 146.489 111.846 150.274C111.848 150.387 111.803 150.478 111.712 150.547L109.308 152.37C109.219 152.436 109.148 152.422 109.096 152.325C107.323 149.069 105.161 146.272 102.171 144.098C97.7629 140.894 92.8459 139.634 87.4205 140.318C86.3889 140.448 85.3813 140.568 84.3979 140.677C84.2495 140.694 84.2384 140.663 84.3645 140.583C89.0811 137.618 92.3774 133.564 94.2533 128.42C105.202 122.941 116.134 117.636 127.048 112.506Z" fill="#595B5C"/>
<path d="M218.142 121.422C218.058 121.62 217.952 121.769 217.822 121.867C209.138 128.437 200.683 135.29 192.456 142.424C172.365 159.839 153.391 178.397 135.534 198.096C135.5 198.133 135.501 198.2 135.536 198.297L116.766 198.973C116.588 198.979 116.561 198.916 116.683 198.787C118.776 196.543 121.027 194.206 123.435 191.776C137.867 177.208 152.941 163.703 168.657 151.261C181.212 141.319 194.6 131.824 208.818 122.775C209.205 122.53 209.589 122.557 210.018 122.499C212.725 122.137 215.433 121.778 218.142 121.422Z" fill="#618724"/>
<path d="M218.142 121.423C218.233 121.397 218.306 121.395 218.362 121.418C218.412 121.438 218.44 121.475 218.445 121.529C221.273 146.129 224.098 170.698 226.92 195.237C226.921 195.245 226.92 195.253 226.917 195.261C226.915 195.269 226.911 195.276 226.905 195.283C226.9 195.289 226.893 195.294 226.886 195.297C226.878 195.301 226.87 195.303 226.862 195.303L135.536 198.298C135.501 198.202 135.5 198.135 135.534 198.098C153.391 178.398 172.365 159.841 192.456 142.425C200.683 135.291 209.138 128.439 217.822 121.869C217.952 121.77 218.058 121.622 218.142 121.423Z" fill="#77A02E"/>
<path d="M121.064 215.016C121.025 214.89 121.03 214.797 121.08 214.738C123.35 212.053 125.623 209.368 127.899 206.683L239.653 204.409C239.665 204.409 239.678 204.407 239.689 204.402C239.7 204.396 239.71 204.389 239.718 204.379C239.727 204.37 239.733 204.359 239.736 204.347C239.74 204.334 239.741 204.322 239.739 204.309L231.148 136.524C231.137 136.426 231.179 136.372 231.276 136.363L237.148 135.711C237.17 135.709 237.192 135.716 237.209 135.73C237.226 135.744 237.237 135.764 237.24 135.787L247.647 213.878C247.658 213.961 247.621 214.003 247.535 214.003L121.064 215.016Z" fill="#77A02E"/>
<path d="M69.7108 141.09L71.7927 141.947C72.199 142.114 72.1842 142.226 71.7481 142.284L66.2485 143.03L69.7108 141.09Z" fill="#595B5C"/>
<path d="M55.5639 149.03C50.5078 154.005 47.3331 160.02 46.0398 167.076C45.6557 169.175 45.4368 171.073 45.383 172.771C45.3078 175.061 45.1186 177.269 45.0518 179.517C45.0073 181.001 44.8152 182.473 44.7902 183.957C44.7568 185.874 44.548 187.739 44.4951 189.671C44.4562 191.118 44.2725 192.551 44.2447 193.951C44.2242 195.066 44.1695 196.122 44.0805 197.118C43.919 198.927 43.9552 200.781 43.7771 202.629C43.6379 204.074 43.6908 205.638 43.5544 207.102C43.534 207.315 43.4533 207.341 43.3123 207.18L35.1798 197.978C35.0777 197.861 35.0323 197.726 35.0434 197.572L38.0799 158.493C38.1096 158.495 38.1355 158.498 38.1578 158.501C38.1893 158.509 38.2199 158.504 38.2496 158.488C44.9145 154.669 50.6247 151.466 55.3803 148.88C55.4971 148.817 55.5584 148.867 55.5639 149.03Z" fill="#595B5C"/>
<path d="M108 231.554L114.123 223.299L259.481 224.045C259.491 224.045 259.501 224.043 259.511 224.038C259.52 224.034 259.528 224.028 259.535 224.021C259.542 224.013 259.547 224.004 259.55 223.994C259.553 223.984 259.554 223.974 259.553 223.964L249.228 152.051C249.226 152.037 249.227 152.023 249.23 152.01C249.234 151.996 249.241 151.983 249.25 151.972C249.258 151.962 249.269 151.953 249.282 151.946C249.294 151.939 249.308 151.936 249.322 151.935L253.812 151.542C253.878 151.535 253.916 151.564 253.926 151.631L266.213 234.334C266.221 234.392 266.196 234.42 266.138 234.42L108 231.554Z" fill="#77A02E"/>
<path d="M127.899 206.684C125.623 209.368 123.35 212.053 121.081 214.738C121.03 214.798 121.025 214.89 121.064 215.017L102.007 215.167C101.989 215.167 101.972 215.162 101.957 215.152C101.942 215.143 101.93 215.129 101.923 215.113C101.915 215.097 101.913 215.079 101.915 215.061C101.918 215.043 101.926 215.027 101.938 215.014L108.885 207.168C108.938 207.107 109.007 207.075 109.091 207.073L127.899 206.684Z" fill="#618724"/>
<path d="M114.123 223.299L108 231.554L88.7314 231.247C88.7092 231.247 88.6875 231.241 88.6688 231.229C88.6501 231.217 88.6352 231.2 88.6258 231.18C88.6165 231.16 88.6131 231.137 88.616 231.115C88.6189 231.093 88.6281 231.072 88.6423 231.055L94.9185 223.315C94.9472 223.28 94.9836 223.251 95.025 223.231C95.0664 223.211 95.1118 223.201 95.1578 223.201L113.95 223.232C113.98 223.232 114.008 223.24 114.034 223.257C114.065 223.274 114.095 223.287 114.123 223.299Z" fill="#618724"/>
</svg>
