<svg width="21" height="26" viewBox="0 0 21 26" fill="none" xmlns="http://www.w3.org/2000/svg">
	<path
		d="M11.4976 16.9513C10.6476 17.2947 9.86107 17.4799 9.2892 17.4493C8.54846 17.4082 8.23219 17.0828 8.23105 16.9604C8.23048 16.8733 8.50662 16.6003 9.35919 16.5386C9.49288 16.5291 9.63399 16.5231 9.77929 16.5231C10.3618 16.5231 11.0101 16.6185 11.4976 16.9513ZM13.0874 24.4327C9.97099 25.2888 6.67767 24.4991 4.6962 22.4193C3.29402 20.9476 2.8239 19.1058 3.40603 17.3663C4.57715 13.8665 10.1897 11.7658 13.7766 11.7658C13.8153 11.7658 13.8537 11.7659 13.8917 11.7665C15.2283 11.7836 16.1539 12.1054 16.3073 12.6067C16.3933 12.8872 16.19 13.3784 15.7634 13.9201C15.0107 14.876 13.867 15.7423 12.7037 16.3778C11.9661 15.5719 10.7831 15.2052 9.26999 15.3137C7.58558 15.4355 6.99185 16.2496 6.99793 16.9708C7.00459 17.7572 7.77025 18.5954 9.22074 18.6757C10.0986 18.7234 11.1478 18.4541 12.2014 17.9949C12.356 18.5991 12.3081 19.3918 12.0552 20.3369C11.9675 20.6644 12.163 21.0012 12.492 21.0885C12.8206 21.1758 13.1588 20.9811 13.2466 20.6533C13.5905 19.3691 13.6159 18.2919 13.3242 17.4362C14.6998 16.6674 15.9713 15.6461 16.7337 14.6781C17.4492 13.7695 17.7025 12.952 17.487 12.2482C17.3305 11.7372 16.9619 11.3318 16.4066 11.0443C16.449 6.42962 17.2704 3.2421 18.0098 3.23775H18.0144C18.123 3.23775 18.27 3.26199 18.4501 3.44022C19.0509 4.03496 19.7667 5.98735 19.7667 11.9118C19.7667 17.7574 19.2642 22.7344 13.0874 24.4327ZM7.20409 10.7985C7.20332 10.7831 7.20523 10.768 7.20332 10.7524C7.20066 10.7303 7.198 10.7068 7.19515 10.6841C7.10652 9.42394 7.25829 8.43088 7.64416 7.89827C7.83586 7.63386 8.07624 7.49219 8.40088 7.45241C8.8535 7.39805 9.22169 7.51435 9.53092 7.8102C10.1298 8.38353 10.4793 9.62319 10.4461 10.9793C9.41928 11.2316 8.36798 11.5909 7.36916 12.0535C7.29043 11.6133 7.23604 11.1939 7.20409 10.7985ZM12.516 8.65874C12.743 8.4127 13.0327 8.29299 13.4022 8.29299C13.9895 8.29299 14.2447 8.48429 14.3858 8.62824C14.7232 8.97239 14.905 9.63986 14.9299 10.6119C14.614 10.5683 14.2734 10.5429 13.9075 10.5384C13.8658 10.5378 13.8244 10.5376 13.7824 10.5376C13.2257 10.5376 12.619 10.5858 11.9857 10.6774C11.9584 9.78665 12.1453 9.06085 12.516 8.65874ZM19.3196 2.56914C18.9497 2.20283 18.4982 2.00945 18.0132 2.00945H18.0024C16.3777 2.01911 15.8173 4.43328 15.5367 6.24836C15.4546 6.78097 15.3911 7.32456 15.3416 7.85073C15.3175 7.82384 15.2937 7.79599 15.2684 7.77023C14.8097 7.30221 14.1817 7.06489 13.4022 7.06489C12.6884 7.06489 12.0679 7.32854 11.6077 7.82781C11.4764 7.97025 11.3637 8.13522 11.2617 8.31212C11.0584 7.77932 10.7741 7.29691 10.3856 6.92472C9.8082 6.37223 9.07049 6.13301 8.25045 6.23339C7.58958 6.31427 7.03407 6.64118 6.64401 7.17948C6.64249 7.18194 6.64116 7.18459 6.63945 7.18667C5.96374 3.8304 4.67909 -0.222324 2.43765 0.00950923C1.88613 0.0672781 1.3987 0.362941 1.02843 0.864109C-0.700676 3.20517 0.110625 10.1666 0.8624 13.9108C0.921165 14.2027 1.17848 14.4047 1.46641 14.4047C1.50653 14.4047 1.54723 14.4008 1.58812 14.3926C1.92188 14.3261 2.1385 14.0026 2.07174 13.67C0.812763 7.4007 1.09366 2.84852 2.02192 1.592C2.24005 1.29671 2.43727 1.24444 2.56678 1.23099C3.80408 1.10276 5.32836 5.40834 5.97173 10.8426C6.02327 11.5155 6.12558 12.1457 6.22429 12.6355C6.22467 12.6378 6.22581 12.6399 6.22619 12.6421C4.37328 13.7058 2.84425 15.1603 2.23606 16.978C1.50501 19.1617 2.07574 21.4533 3.80161 23.2648C5.48659 25.0331 7.9726 26 10.5822 26C11.5211 26 12.4764 25.8746 13.4155 25.6165C20.42 23.6909 21 18.0351 21 11.9118C21 6.67281 20.466 3.70425 19.3196 2.56914Z"
		fill="#6E778A" />
</svg>