<?xml version="1.0" encoding="utf-8" ?>
<svg xmlns="http://www.w3.org/2000/svg" xmlns:xlink="http://www.w3.org/1999/xlink" width="215" height="61">
	<path fill="#1B3B6E" d="M205.21 24.6245C207.729 24.3467 207.507 25.5278 209.267 26.3673C210.395 26.0005 211.234 25.1555 212.309 24.7281C212.904 24.4916 213.161 24.5464 213.731 24.7849C213.868 24.9838 214.011 25.1992 214.093 25.4276C214.221 25.7839 214.142 26.206 213.987 26.5404C213.258 28.1207 211.364 28.9375 209.833 29.4906C209.911 29.9212 209.285 30.8936 209.191 31.4087C208.907 32.9591 209.405 35.4275 208.749 36.7517C208.686 36.879 208.622 37.0024 208.546 37.1221Q208.73 37.406 208.839 37.7258C209.322 39.1373 209.062 42.0808 208.424 43.4061C207.552 43.7716 206.042 43.6719 205.078 43.7335C205.937 42.2469 203.967 28.012 205.21 24.6245Z"/>
	<path fill="#1B3B6E" d="M106.847 24.3745C107.306 24.4128 107.446 24.4441 107.826 24.7011C108.294 25.9965 108.03 27.3646 107.78 28.6826C106.962 28.5934 106.167 28.6165 105.368 28.8312C99.6182 30.376 104.189 39.5778 102.096 43.1978C101.553 43.6065 101.273 43.7584 100.589 43.7948C99.778 43.8381 99.3737 43.3704 98.827 42.8771C99.2045 41.6342 98.7848 39.6173 98.7073 38.31C98.551 35.6734 98.0133 27.0007 98.9452 24.9589C99.4915 24.6219 99.8399 24.5192 100.482 24.5583C101.381 24.8538 101.918 25.6057 102.506 26.3022C103.33 26.4003 105.953 24.7868 106.847 24.3745Z"/>
	<path fill="#1B3B6E" d="M175.435 18.3744C176.364 18.2733 177.248 18.2612 178.182 18.3069C178.294 18.4002 178.497 18.5216 178.524 18.6616C178.889 20.613 179.032 42.4812 178.735 43.2094C178.682 43.3399 178.534 43.5027 178.451 43.6231L177.501 43.7781C177.112 43.7956 176.632 43.85 176.254 43.7571C175.966 43.6864 175.721 43.6005 175.563 43.3444C174.177 41.0925 174.713 21.5047 175.435 18.3744Z"/>
	<path fill="#1B3B6E" d="M132.963 24.6241C134.005 24.4816 135.205 24.7232 136.163 25.1455C138.3 27.02 140.103 36.6388 141.281 39.7125C142.359 39.2394 144.985 28.7361 145.806 26.7434C146.071 26.0986 146.481 25.1733 147.164 24.8948C147.982 24.5608 148.944 24.4395 149.77 24.7878C149.94 24.9907 150.169 25.1867 150.21 25.4515C150.361 26.4392 149.671 27.5966 149.11 28.3763C149.143 28.5215 149.142 28.6603 149.13 28.808C148.991 30.5089 144.509 42.9562 143.416 43.8677C142.581 44.0318 141.254 44.1165 140.424 43.9505C139.981 43.8618 139.598 43.7457 139.336 43.3444C138.039 41.3583 132.61 26.3303 132.963 24.6241Z"/>
	<path fill="#1B3B6E" d="M83.3051 16.124Q83.5314 16.0906 83.7592 16.0694C86.8135 15.7909 91.4339 16.2722 93.8576 18.2985C94.439 18.7846 94.949 19.4904 95.0072 20.2702C95.0575 20.9444 94.8159 21.2201 94.4036 21.6922C92.9552 22.3419 88.9721 20.2748 87.1374 19.9231C87.7301 20.8535 87.7279 21.6837 87.7564 22.7456C87.824 25.27 88.1718 41.643 87.5705 42.9844C87.508 43.1239 87.2134 43.3615 87.0974 43.4839C87.0741 43.5013 87.072 43.5035 87.0439 43.5205C86.5621 43.8117 85.7121 43.7818 85.1952 43.6641C82.1549 41.5498 84.9781 23.0357 83.0817 19.9353C82.2452 20.678 78.418 22.0257 77.1344 22.6724C77.1061 21.384 76.3635 20.0347 75.6736 18.983C76.4672 18.6925 77.2012 18.1439 77.9986 17.8121C79.7061 17.1016 81.5279 16.6289 83.3051 16.124Z"/>
	<path fill="#1B3B6E" d="M159.48 24.6248C161.287 24.4097 162.918 24.4312 164.663 25.0166C166.927 25.7759 168.797 27.2366 169.862 29.3973C170.656 31.0085 171.245 34.0777 170.651 35.8396C168.197 36.3271 158.141 35.2934 156.934 36.084C156.751 36.2039 156.739 36.6247 156.696 36.841C157.087 38.1962 158.165 39.3068 159.364 40.0115C160.526 40.6942 161.831 40.9876 163.151 40.6382C164.194 40.3619 165.411 39.3463 165.945 38.4165L165.969 38.3744C167.234 37.8104 168.788 37.9398 170.145 37.9223C170.078 38.3675 169.993 38.8308 169.802 39.2413C168.885 41.2189 167.031 42.7695 165.009 43.5085C162.698 44.3532 160.116 44.3205 157.875 43.268C155.719 42.2553 154.188 40.3494 153.393 38.1291C152.396 35.3481 152.459 32.126 153.743 29.4469C154.972 26.8811 156.883 25.544 159.48 24.6248ZM160.58 27.8745C159.936 28.1565 159.222 28.5578 158.524 28.6602C158.138 29.8191 156.916 31.8891 155.888 32.5493Q159.163 32.5844 162.437 32.6671C163.918 32.6743 165.377 32.6964 166.846 32.4812C166.956 31.5305 166.244 30.4975 165.676 29.7853C164.915 28.8307 163.438 27.93 162.211 27.8002C161.688 27.7449 161.097 27.7841 160.58 27.8745Z"/>
	<path fill="#1B3B6E" d="M189.601 24.6246C191.714 24.3554 193.595 24.4213 195.588 25.291C197.792 26.2526 199.464 28.0394 200.337 30.2752C200.893 31.6997 201.317 34.3971 200.676 35.8515C195.817 36.0171 190.953 35.8198 186.092 36.0391C186.944 36.8731 188.297 38.589 188.432 39.8085C190.247 40.3765 191.89 41.1714 193.834 40.4501C194.671 40.1398 195.775 39.1877 196.146 38.3745C196.976 38.0854 198.438 37.662 199.284 37.9018C199.723 38.0262 199.763 38.2003 199.963 38.5743C199.948 38.9506 199.886 39.3033 199.712 39.6389C198.745 41.5014 196.517 43.0845 194.543 43.6921C192.291 44.3849 189.489 44.1645 187.408 43.047C185.392 41.9647 184.052 40.0282 183.406 37.8648C182.564 35.0453 182.641 31.6431 184.057 29.0301C185.262 26.8043 187.199 25.3362 189.601 24.6246ZM190.766 27.8747C187.89 29.1273 187.972 30.7044 185.981 32.6325C188.221 32.5851 190.448 32.5363 192.687 32.6728C193.983 32.704 195.63 32.8897 196.867 32.46C196.96 31.4405 196.379 30.4591 195.746 29.6963C194.903 28.6801 193.484 27.9487 192.17 27.8357C191.709 27.7961 191.22 27.7861 190.766 27.8747Z"/>
	<path fill="#1B3B6E" d="M26.7038 13.0181C27.505 13.3391 28.4422 13.6474 29.0379 14.3024C30.789 16.228 30.1077 20.0199 29.9897 22.4467L30.1041 22.4447C31.8249 22.4174 33.3844 22.419 34.7043 23.7092C35.262 24.2543 35.657 24.9914 35.6607 25.7842C35.6642 26.5283 35.3199 27.2412 34.7977 27.7603C33.4443 29.1056 31.7973 29.0436 30.0295 29.0387C30.0321 31.8719 29.8458 34.905 30.2557 37.7007C30.9133 42.1862 33.7432 40.2364 36.3587 42.2116C37.1772 42.8298 37.3261 43.7199 37.4564 44.6678C37.325 45.1379 37.1904 45.6364 36.9673 46.0721C36.3214 47.3336 34.9371 47.6394 33.6931 48.0492C32.2882 47.7212 30.9039 47.3922 29.6081 46.736C27.0906 45.4611 25.1683 43.3837 24.2881 40.6818C23.3814 37.8986 22.9223 17.0512 24.2124 14.6168C24.7079 13.6817 25.7617 13.3127 26.7038 13.0181Z"/>
	<path fill="#1B3B6E" d="M116.658 24.6244C120.997 23.8929 122.926 26.47 124.669 26.3421C124.762 26.3353 124.851 26.3269 124.942 26.3087Q125.064 26.0576 125.209 25.8192C125.891 24.7142 127.358 24.5826 128.534 24.3087Q128.759 24.5791 128.876 24.9113C129.494 26.6802 129.349 42.4195 128.646 43.8893C127.966 43.7861 127.278 43.7423 126.594 43.6873C125.763 43.1366 125.609 42.913 125.165 42.0183L124.36 41.8733C124.056 42.5324 122.796 43.165 122.152 43.4964C120.478 44.3576 118.501 44.3256 116.736 43.7542C114.439 43.0099 112.62 41.3347 111.538 39.1943Q111.296 38.7105 111.102 38.2055Q110.908 37.7005 110.763 37.1791Q110.619 36.6578 110.525 36.1249Q110.432 35.592 110.39 35.0525Q110.349 34.5131 110.36 33.9722Q110.371 33.4313 110.434 32.894Q110.497 32.3566 110.612 31.8279Q110.727 31.2992 110.892 30.7841C111.895 27.748 113.891 26.0086 116.658 24.6244ZM118.19 28.1243C116.312 29.547 114.908 30.1069 114.55 32.6853C114.25 34.8484 114.714 37.1907 116.05 38.9475C116.775 39.9017 117.659 40.456 118.851 40.6133C119.293 40.6718 120.432 40.8409 120.805 40.593C122.207 40.3396 123.293 39.5153 124.101 38.3557C125.181 36.8046 125.439 34.8212 125.103 32.9907C124.796 31.3144 123.924 29.725 122.5 28.7487C121.123 27.8042 119.791 27.8315 118.19 28.1243Z"/>
	<path fill="#1B3B6E" d="M0 0L25.5431 0L34.4567 0C36.7951 1.1503 39.7628 1.45253 42.2458 2.43431C49.8668 5.44767 56.1036 12.7584 58.7117 20.4107C61.3679 28.204 60.4329 36.5407 56.8353 43.836C56.1865 45.1516 55.0549 47.3668 53.5757 47.8524C53.0116 48.0376 52.5322 47.9431 52.02 47.6742C51.4124 47.3552 51.0289 46.754 50.8385 46.1155C50.3958 44.6316 54.1113 38.1287 54.6123 36.0023C57.1435 25.2592 52.1932 13.3767 42.4602 8.02689C36.4207 4.70716 29.7651 3.85076 23.1106 5.78691Q22.5115 5.95769 21.9214 6.15772Q21.3314 6.35776 20.7519 6.58657Q20.1725 6.81539 19.605 7.07242Q19.0375 7.32946 18.4833 7.6141Q17.9291 7.89874 17.3896 8.21029Q16.8501 8.52184 16.3265 8.85955Q15.803 9.19726 15.2967 9.56031Q14.7904 9.92336 14.3026 10.3109Q13.8148 10.6984 13.3466 11.1094Q12.8784 11.5205 12.431 11.954Q11.9836 12.3876 11.5581 12.8426Q11.1326 13.2977 10.7299 13.7731Q10.3273 14.2485 9.94855 14.7432Q9.56978 15.2378 9.21581 15.7505Q8.86184 16.2632 8.53351 16.7927Q8.20518 17.3221 7.90329 17.8671C4.75594 23.6046 4.06923 30.9725 5.90527 37.2261Q6.07265 37.8168 6.26927 38.3984Q6.46588 38.9801 6.69125 39.5512Q6.91661 40.1223 7.17017 40.6814Q7.42372 41.2406 7.70483 41.7864Q7.98594 42.3323 8.29391 42.8634Q8.60188 43.3945 8.93594 43.9097Q9.27001 44.4248 9.62933 44.9226Q9.98866 45.4204 10.3724 45.8997Q10.756 46.379 11.1632 46.8386Q11.5703 47.2982 11.9998 47.7369Q12.4293 48.1756 12.8801 48.5924Q13.331 49.0091 13.802 49.4029Q14.2731 49.7967 14.7632 50.1665Q15.2533 50.5363 15.7612 50.8812Q16.2692 51.2261 16.7937 51.5452Q17.3182 51.8644 17.8579 52.157C23.9437 55.4725 30.8552 56.2584 37.5281 54.3059C39.6169 53.6947 43.7005 50.6133 45.7155 51.7028Q45.9241 51.8172 46.1071 51.9693Q46.2901 52.1214 46.4408 52.3056Q46.5914 52.4897 46.7042 52.6993Q46.817 52.9088 46.8877 53.136C47.0527 53.6792 47.0039 54.2474 46.7285 54.7456C45.5192 56.9326 40.2365 58.5306 37.926 59.1797C30.2452 61.3377 21.9776 60.0811 15.0504 56.1929C8.56834 52.5544 3.15225 45.9029 1.13685 38.7039C0.782474 37.4381 0.682903 35.798 0 34.679L0 25.5645L0 0ZM0 0L0 25.5645C0.0414339 25.5063 0.0784757 25.4465 0.115426 25.3856C0.480883 24.7825 0.582949 23.7151 0.774187 23.0149C3.24372 13.9737 8.90373 6.09228 17.8375 2.47783C20.2455 1.50361 23.3561 1.24543 25.5431 0L0 0Z"/>
</svg>
