<svg width="359" height="279" viewBox="0 0 359 279" fill="none" xmlns="http://www.w3.org/2000/svg">
<path d="M314.741 157.213L306.142 159.271" stroke="#7E7567" stroke-width="2"/>
<path d="M306.142 159.27C306.27 147.042 306.287 134.808 306.194 122.569C306.171 119.307 305.81 116.946 305.112 115.486C303.543 112.181 300.499 109.521 296.94 108.369C295.87 108.026 294.809 107.651 293.757 107.244C293.425 107.116 293.262 106.875 293.268 106.52C293.443 88.2974 293.422 69.554 293.207 50.2902C293.201 49.8424 293.178 49.3773 293.137 48.8946C292.989 47.1852 290.303 44.5075 289.169 43.7313C286.576 41.9578 283.779 40.5361 280.778 39.4663C273.935 37.0357 266.14 35.1867 257.395 33.9191C239.428 31.32 221.452 30.1076 203.467 30.2821" stroke="#9C4C16" stroke-width="2"/>
<path d="M203.467 30.2833C185.279 30.1787 167.286 31.4491 149.487 34.0948C143.533 34.9786 138.262 36.0223 133.675 37.226C127.648 38.8046 113.841 42.7993 113.823 50.7275C113.783 67.6945 113.78 86.2838 113.815 106.495C113.815 106.844 113.652 107.083 113.326 107.211C107.587 109.409 103.043 111.188 101.308 117.171C100.906 118.549 100.703 122.372 100.697 128.64C100.691 139.188 100.712 149.788 100.758 160.44" stroke="#B05A20" stroke-width="2"/>
<path d="M100.758 160.438L91.853 157.883" stroke="#7E7567" stroke-width="2"/>
<path d="M135.742 26.8924C135.753 27.1715 135.893 27.2965 136.16 27.2674C137.887 27.0639 139.597 26.7761 141.289 26.404C143.911 25.8283 145.606 25.4794 146.374 25.3573C149.95 24.77 153.543 24.2584 157.154 23.8223" stroke="#663309" stroke-width="2"/>
<path d="M157.154 23.8212L164.655 22.8879C164.969 22.8472 165.079 22.6757 164.986 22.3733C163.48 17.5007 160.646 13.663 156.482 10.8604C153.5 8.84564 148.816 7.3978 145.327 7.87751C133.84 9.49106 127.813 18.1781 127.718 29.2985C127.718 29.6183 127.877 29.7608 128.197 29.7259C131.587 29.4003 134.102 28.4554 135.742 26.8913" stroke="#9C4C16" stroke-width="2"/>
<path d="M157.154 23.8204C152.619 11.3481 136.893 14.0606 135.742 26.8905" stroke="#84410D" stroke-width="2"/>
<path d="M249.179 24.0047C249.202 23.9291 249.31 24.0222 249.502 24.2838C249.506 24.2889 249.512 24.2926 249.518 24.2946C249.525 24.2965 249.531 24.2966 249.538 24.2947C249.544 24.2929 249.55 24.2892 249.554 24.2842C249.559 24.2792 249.562 24.273 249.563 24.2664C249.545 24.1326 249.603 24.0425 249.737 23.996C249.813 23.9669 249.897 23.9582 249.99 23.9698C257.107 24.8536 264.169 26.1416 271.176 27.8336" stroke="#663309" stroke-width="2"/>
<path d="M271.175 27.8329L278.449 29.8651C278.798 29.964 278.967 29.8302 278.955 29.4639C278.827 26.6613 278.609 24.5913 278.301 23.2539C276.824 16.8753 273.056 12.2701 266.998 9.43839C262.782 7.46142 258.566 7.24919 254.351 8.80169C247.926 11.1682 243.69 15.7153 241.643 22.4428C241.544 22.7684 241.663 22.9544 242.001 23.001L249.179 24.004" stroke="#9C4C16" stroke-width="2"/>
<path d="M271.176 27.8332C270.745 22.1581 268.248 18.3757 263.684 16.486C261.166 15.4394 258.712 15.3899 256.322 16.3377C253.049 17.6402 250.667 20.1957 249.179 24.0043" stroke="#84410D" stroke-width="2"/>
<path d="M306.142 159.273L203.31 184.497" stroke="#9C836B" stroke-width="2"/>
<path d="M203.31 184.496L203.424 172.966C203.425 172.871 203.407 172.777 203.372 172.689C203.336 172.602 203.284 172.522 203.217 172.454C203.151 172.387 203.072 172.333 202.984 172.297C202.897 172.261 202.803 172.242 202.709 172.242C192.376 172.23 182.698 170.308 173.673 166.477C166.992 163.639 161.198 159.987 156.291 155.522C151.412 151.074 147.545 145.634 144.69 139.203" stroke="#CD6824" stroke-width="2"/>
<path d="M144.69 139.201C153.831 150.964 165.678 158.814 180.232 162.751C195.292 166.827 210.387 166.882 225.516 162.916C240.544 158.974 254.412 150.13 262.942 137.065C265.105 133.744 266.911 129.974 268.358 125.752C272.1 114.867 272.379 103.372 270.356 92.0072C270.309 91.7448 270.173 91.507 269.97 91.335C269.768 91.163 269.513 91.0675 269.248 91.0652L256 91.0391" stroke="#CF723A" stroke-width="2"/>
<path d="M255.999 91.0391L228.595 91.0565" stroke="#DA9758" stroke-width="2"/>
<path d="M228.595 91.0584C220.123 88.186 211.73 86.7643 203.415 86.7934" stroke="#84410D" stroke-width="2"/>
<path d="M203.415 86.7944L203.467 30.2852" stroke="#CD6824" stroke-width="2"/>
<path d="M211.213 43.8456C220.1 41.7349 231.412 43.3572 239.445 48.9305C239.765 49.1515 239.948 49.0672 239.995 48.6776C241.896 31.7571 214.989 26.9164 210.733 43.3572C210.622 43.7817 210.782 43.9445 211.213 43.8456Z" stroke="#84410D" stroke-width="2"/>
<path d="M237.867 71.3732C237.867 69.5108 237.5 67.6667 236.787 65.9461C236.074 64.2255 235.03 62.6621 233.713 61.3452C232.396 60.0283 230.833 58.9836 229.112 58.2709C227.391 57.5582 225.547 57.1914 223.685 57.1914C219.924 57.1914 216.316 58.6856 213.657 61.3452C210.997 64.0048 209.503 67.612 209.503 71.3732C209.503 75.1345 210.997 78.7417 213.657 81.4013C216.316 84.0609 219.924 85.5551 223.685 85.5551C225.547 85.5551 227.391 85.1882 229.112 84.4755C230.833 83.7628 232.396 82.7182 233.713 81.4013C235.03 80.0844 236.074 78.521 236.787 76.8004C237.5 75.0798 237.867 73.2356 237.867 71.3732Z" stroke="#DCAD8D" stroke-width="2"/>
<path d="M203.415 86.793C194.658 86.9267 186.483 88.2583 178.889 90.7876C178.581 90.8865 178.307 91.0115 178.069 91.1626" stroke="#984F17" stroke-width="2"/>
<path d="M178.069 91.1639L150.639 91.0156" stroke="#EEA562" stroke-width="2"/>
<path d="M150.639 91.0161L137.782 90.9551C137.114 90.9551 136.727 91.2865 136.622 91.9494C136.041 95.6765 135.599 99.2264 135.297 102.599C135.285 102.721 135.305 102.834 135.358 102.939C135.468 103.166 135.465 103.393 135.349 103.619C135.018 104.241 135 104.846 135.297 105.433C135.401 105.637 135.419 105.849 135.349 106.07C135.18 106.588 135.116 107.079 135.157 107.544C135.303 109.329 135.433 111.184 135.55 113.109C135.672 115.126 135.916 117.013 136.282 118.769C137.817 126.043 140.62 132.855 144.69 139.205" stroke="#E38044" stroke-width="2"/>
<path d="M203.31 184.496C203.241 184.514 203.168 184.531 203.092 184.549C202.953 184.589 202.81 184.592 202.665 184.557L100.758 160.441" stroke="#B09175" stroke-width="2"/>
<path d="M193.053 52.5855C193.098 52.5945 193.144 52.5918 193.187 52.5776C193.23 52.5634 193.269 52.5382 193.301 52.5043C193.332 52.4704 193.355 52.4289 193.366 52.3837C193.378 52.3384 193.378 52.2909 193.367 52.2454C192.315 48.0647 190.167 45.1952 186.922 43.6369C182.811 41.6657 178.479 41.4622 173.926 43.0263C166.891 45.4394 163.617 50.2248 164.105 57.3826C164.108 57.4401 164.126 57.4957 164.157 57.5439C164.189 57.5922 164.233 57.6314 164.285 57.6578C164.336 57.6842 164.395 57.6968 164.453 57.6945C164.512 57.6921 164.57 57.6748 164.62 57.6442C173.487 52.2425 182.965 50.5562 193.053 52.5855Z" stroke="#984F17" stroke-width="2"/>
<path d="M197.458 71.3644C197.458 67.6008 195.963 63.9914 193.302 61.3301C190.64 58.6689 187.031 57.1738 183.267 57.1738C179.504 57.1738 175.894 58.6689 173.233 61.3301C170.572 63.9914 169.077 67.6008 169.077 71.3644C169.077 75.128 170.572 78.7374 173.233 81.3986C175.894 84.0599 179.504 85.5549 183.267 85.5549C187.031 85.5549 190.64 84.0599 193.302 81.3986C195.963 78.7374 197.458 75.128 197.458 71.3644Z" stroke="#F0BB97" stroke-width="2"/>
<path d="M194.876 72.7789C194.876 69.973 193.762 67.282 191.778 65.2979C189.794 63.3139 187.103 62.1992 184.297 62.1992C181.491 62.1992 178.8 63.3139 176.816 65.2979C174.832 67.282 173.717 69.973 173.717 72.7789C173.717 75.5848 174.832 78.2758 176.816 80.2599C178.8 82.2439 181.491 83.3586 184.297 83.3586C187.103 83.3586 189.794 82.2439 191.778 80.2599C193.762 78.2758 194.876 75.5848 194.876 72.7789Z" stroke="#8D8E91" stroke-width="2"/>
<path d="M233.375 72.8142C233.375 70.0129 232.262 67.3264 230.281 65.3456C228.301 63.3648 225.614 62.252 222.813 62.252C220.011 62.252 217.325 63.3648 215.344 65.3456C213.363 67.3264 212.25 70.0129 212.25 72.8142C212.25 75.6155 213.363 78.302 215.344 80.2828C217.325 82.2636 220.011 83.3764 222.813 83.3764C225.614 83.3764 228.301 82.2636 230.281 80.2828C232.262 78.302 233.375 75.6155 233.375 72.8142Z" stroke="#8D8E91" stroke-width="2"/>
<path d="M228.595 91.0586C230.784 102.519 227.06 112.549 216.044 117.678C213.689 118.771 211.265 119.501 208.77 119.867C208.439 119.914 208.18 120.074 207.994 120.347C205.779 123.574 204.328 126.848 203.642 130.168C203.432 131.174 203.214 131.174 202.988 130.168C202.203 126.644 200.752 123.399 198.635 120.434C198.409 120.12 198.103 119.928 197.72 119.858C183.311 117.46 174.868 105.877 178.069 91.1633" stroke="#A57E4B" stroke-width="2"/>
<path d="M221.155 93.2556C209.564 90.639 198.06 90.2902 186.625 93.0201C185.904 93.1946 185.23 93.4388 184.602 93.7528C184.486 93.8096 184.385 93.8938 184.308 93.9984C184.23 94.1031 184.179 94.2252 184.157 94.3546C183.319 99.0906 188.84 101.254 192.39 102.161C196.577 103.225 201.202 103.611 206.267 103.321C210.663 103.076 223.51 101.446 222.498 94.686C222.382 93.9127 221.934 93.4359 221.155 93.2556Z" stroke="#7E4428" stroke-width="2"/>
<path d="M150.639 91.0156C148.057 101.377 148.964 112.803 154.581 121.839C157.093 125.886 160.204 129.331 163.914 132.174C168.193 135.454 172.321 137.87 176.299 139.422C189.428 144.557 203.145 145.795 217.449 143.138" stroke="#F0AE78" stroke-width="2"/>
<path d="M217.449 143.137C220.565 146.62 224.636 148.62 229.659 149.137" stroke="#9A592D" stroke-width="2"/>
<path d="M229.659 149.136C235.48 152.27 241.213 152.43 246.859 149.616C253.278 146.415 255.057 139.516 254.098 132.826C254.063 132.617 253.95 132.469 253.758 132.381C253.612 132.317 253.49 132.335 253.392 132.434" stroke="#F0AE78" stroke-width="2"/>
<path d="M253.391 132.433L253.505 130.506" stroke="#C97555" stroke-width="2"/>
<path d="M253.505 130.507C254.011 127.227 253.679 123.965 252.51 120.721" stroke="#9A592D" stroke-width="2"/>
<path d="M252.51 120.72C254.662 116.847 256.092 112.768 256.802 108.483C257.755 102.755 257.488 96.9409 255.999 91.0391" stroke="#F0AE78" stroke-width="2"/>
<path d="M252.511 120.721C251.638 121.855 251.397 122.544 251.787 122.788" stroke="#A57E4B" stroke-width="2"/>
<path d="M251.787 122.787L245.821 129.442" stroke="#FDE9CA" stroke-width="2"/>
<path d="M245.821 129.441C241.914 133.064 237.247 136.07 231.822 138.46C231.456 138.623 231.159 138.89 230.933 139.262" stroke="#A57E4B" stroke-width="2"/>
<path d="M230.933 139.266L230.723 139.213C230.531 139.172 230.345 139.184 230.165 139.248L223.754 141.629" stroke="#FDE9CA" stroke-width="2"/>
<path d="M223.755 141.629L217.449 143.138" stroke="#A57E4B" stroke-width="2"/>
<path d="M78.7788 159.125C77.9008 159.794 76.6594 160.398 75.0546 160.939C74.5603 161.108 74.3539 161.471 74.4353 162.029C74.4695 162.258 74.4424 162.493 74.3568 162.71L73.3887 165.283" stroke="#7E7567" stroke-width="2"/>
<path d="M73.3886 165.281C72.7141 167.601 71.8128 169.194 70.6848 170.061" stroke="#BF9F89" stroke-width="2"/>
<path d="M70.6848 170.061C69.9231 179.823 66.4576 187.484 60.2883 193.043" stroke="#7E7567" stroke-width="2"/>
<path d="M60.2885 193.044C64.4343 188.148 66.6352 182.542 66.891 176.228C66.8927 176.195 66.8849 176.162 66.8685 176.133C66.8522 176.104 66.8279 176.08 66.7986 176.065C66.7693 176.049 66.7362 176.042 66.7031 176.045C66.6701 176.048 66.6384 176.06 66.6119 176.08C62.4079 179.036 58.4133 181.923 52.9708 180.362C51.898 180.048 51.3311 179.289 50.2845 179.001C49.6681 178.827 49.6478 178.597 50.2234 178.312C59.8931 173.55 65.3589 165.636 66.6206 154.571C66.6613 154.211 66.8416 154.118 67.1614 154.292C70.2722 155.961 73.069 155.763 75.5519 153.699C78.9098 150.908 78.6743 145.396 75.2553 142.858C72.8481 141.078 70.1763 140.942 67.2399 142.448C67.048 142.547 66.9346 142.489 66.8997 142.273L65.7833 134.781C65.731 134.45 65.542 134.252 65.2164 134.188C56.1805 132.409 47.1359 131.508 38.0825 131.484" stroke="#9C4C16" stroke-width="2"/>
<path d="M38.0823 131.484C28.8719 131.583 19.7866 132.484 10.8263 134.188C10.5414 134.241 10.3582 134.406 10.2768 134.685C6.38682 148.518 7.58173 164.113 18.9638 174.056" stroke="#B05A20" stroke-width="2"/>
<path d="M18.9638 174.057C18.4579 180.767 20.2459 186.526 24.3278 191.335C30.5203 198.62 38.6637 201.379 48.7579 199.612" stroke="#9C4C16" stroke-width="2"/>
<path d="M48.7579 199.611C40.757 202.036 33.1486 201.35 25.9326 197.553C17.9783 193.372 12.8498 186.796 10.5472 177.824C10.2216 176.557 9.09354 174.99 7.16309 173.123" stroke="#7E7567" stroke-width="2"/>
<path d="M37.7337 111.109C36.302 111.137 34.9079 111.64 33.758 112.545C32.6081 113.45 31.7635 114.708 31.3492 116.133C31.0491 117.161 30.982 118.242 31.1535 119.291C31.3249 120.34 31.7301 121.329 32.3371 122.179C32.9442 123.03 33.7365 123.719 34.6518 124.192C35.567 124.666 36.5802 124.911 37.6116 124.907" stroke="#B05A20" stroke-width="2"/>
<path d="M37.6116 124.907C39.2921 124.901 40.9212 124.241 42.174 123.058C43.4268 121.874 44.2113 120.255 44.3711 118.522C44.4584 117.565 44.3519 116.603 44.0581 115.698C43.7644 114.793 43.29 113.965 42.6652 113.267C42.0404 112.57 41.2791 112.017 40.4299 111.645C39.5808 111.274 38.6624 111.091 37.7337 111.109" stroke="#9C4C16" stroke-width="2"/>
<path d="M37.6116 124.907L37.7337 111.109" stroke="#CD6824" stroke-width="2"/>
<path d="M70.083 123.276C70.083 121.426 69.3479 119.651 68.0393 118.342C66.7308 117.034 64.956 116.299 63.1055 116.299C61.2549 116.299 59.4801 117.034 58.1716 118.342C56.8631 119.651 56.1279 121.426 56.1279 123.276C56.1279 125.127 56.8631 126.902 58.1716 128.21C59.4801 129.519 61.2549 130.254 63.1055 130.254C64.956 130.254 66.7308 129.519 68.0393 128.21C69.3479 126.902 70.083 125.127 70.083 123.276Z" stroke="#9C4C16" stroke-width="2"/>
<path d="M13.1498 130.748C14.925 130.919 16.6971 130.361 18.076 129.197C19.455 128.033 20.328 126.359 20.5029 124.542C20.5896 123.643 20.5022 122.735 20.2458 121.872C19.9895 121.008 19.5691 120.206 19.0088 119.51C18.4485 118.814 17.7592 118.238 16.9802 117.816C16.2012 117.393 15.3479 117.132 14.4689 117.048C12.6936 116.877 10.9216 117.435 9.54258 118.598C8.16359 119.762 7.2906 121.437 7.11567 123.253C7.02905 124.153 7.11642 125.06 7.37278 125.924C7.62914 126.787 8.04948 127.59 8.6098 128.286C9.17011 128.982 9.85943 129.557 10.6384 129.98C11.4174 130.402 12.2707 130.663 13.1498 130.748Z" stroke="#B05A20" stroke-width="2"/>
<path d="M253.505 130.506C244.143 132.541 239.329 138.399 239.061 148.081" stroke="#7E4428" stroke-width="2"/>
<path d="M239.061 148.082C236.061 148.867 232.927 149.219 229.659 149.137" stroke="#A57E4B" stroke-width="2"/>
<path d="M223.754 141.627C225.185 144.261 226.973 145.011 229.118 143.878C230.816 142.982 231.421 141.444 230.933 139.264" stroke="#A79480" stroke-width="2"/>
<path d="M245.821 129.442C252.013 131.314 254.002 129.096 251.787 122.787" stroke="#A79480" stroke-width="2"/>
<path d="M253.391 132.434C251.63 140.452 246.853 145.668 239.061 148.081" stroke="#D49A73" stroke-width="2"/>
<path d="M38.0825 131.484L38.0215 142.221" stroke="#CD6824" stroke-width="2"/>
<path d="M38.0215 142.221C33.1489 142.273 28.4274 142.645 23.8571 143.337C22.9093 143.482 22.3075 144.073 22.0517 145.108C19.095 156.943 24.7031 169.206 38.0738 169.791" stroke="#B05A20" stroke-width="2"/>
<path d="M38.0736 169.789L38.03 179.802C38.0301 179.928 38.0047 180.053 37.9555 180.169C37.9064 180.286 37.8343 180.39 37.7438 180.478C37.6533 180.565 37.5462 180.633 37.4289 180.677C37.3117 180.721 37.1868 180.741 37.0618 180.735C32.0671 180.532 27.3689 179.116 22.9672 176.488C21.6473 175.703 20.3129 174.891 18.9639 174.054" stroke="#CD6824" stroke-width="2"/>
<path d="M60.2884 193.043C56.8636 196.247 53.0202 198.436 48.7581 199.611" stroke="#9C836B" stroke-width="2"/>
<path d="M38.0738 169.791C46.0108 169.276 51.8544 164.523 53.5029 156.734C54.4274 152.361 54.3867 148.195 53.3808 144.235C53.337 144.064 53.2415 143.91 53.1074 143.795C52.9732 143.679 52.8068 143.608 52.6307 143.59L38.0215 142.221" stroke="#9C4C16" stroke-width="2"/>
<path d="M338.509 249.17C340.771 245.629 342.21 243.213 342.826 241.922C343.983 239.492 345.033 236.413 345.975 232.686" stroke="#7E7567" stroke-width="2"/>
<path d="M345.975 232.685C350.336 226.382 352.042 219.329 351.094 211.525" stroke="#A9CAD5" stroke-width="2"/>
<path d="M351.095 211.525C350.525 205.879 348.597 200.811 345.312 196.322C338.544 187.068 326.961 181.355 315.099 183.082C314.78 183.129 314.623 183.312 314.628 183.632L314.716 189.249" stroke="#BFD5DD" stroke-width="2"/>
<path d="M314.715 189.25L314.611 197.143" stroke="#7E7567" stroke-width="2"/>
<path d="M314.611 197.143L314.585 231.777" stroke="#B09175" stroke-width="2"/>
<path d="M314.585 231.777L314.62 254.699" stroke="#9C836B" stroke-width="2"/>
<path d="M314.62 254.699L314.576 262.54" stroke="#7E7567" stroke-width="2"/>
<path d="M70.6848 170.061C72.8537 175.625 72.8769 181.701 70.7546 188.289" stroke="#BFD5DD" stroke-width="2"/>
<path d="M70.7549 188.29C70.0281 190.534 69.2664 192.311 68.4698 193.619C64.1205 200.724 58.2332 205.393 50.8079 207.626C45.1736 209.324 39.5654 209.371 33.9833 207.766C26.4767 205.603 20.4818 201.009 15.9988 193.985C15.8592 193.764 15.8389 193.776 15.9377 194.02C20.6388 206.117 31.358 214.342 44.1269 215.031C50.6858 215.386 56.5847 214.089 61.8237 211.141C72.9529 204.879 78.5058 195.012 78.4825 181.539" stroke="#A9CAD5" stroke-width="2"/>
<path d="M78.4823 181.539C78.3718 176.067 76.6739 170.648 73.3887 165.281" stroke="#BFD5DD" stroke-width="2"/>
<path d="M315.029 176.238C323.873 175.435 331.391 177.406 339.067 181.575C339.602 181.86 339.695 181.756 339.346 181.261C333.595 173.086 325.568 167.774 315.265 165.327C314.852 165.228 314.642 165.393 314.637 165.824L314.619 175.863C314.619 175.915 314.63 175.967 314.651 176.015C314.672 176.063 314.702 176.106 314.741 176.141C314.78 176.176 314.825 176.203 314.875 176.22C314.924 176.236 314.977 176.243 315.029 176.238Z" stroke="#BFD5DD" stroke-width="2"/>
<path d="M86.1923 189.433C85.0003 196.626 82.0174 203.17 77.2436 209.066C76.511 209.965 75.6214 210.715 74.8974 211.631C74.6183 211.991 74.6881 212.081 75.1068 211.901C81.3575 209.203 86.6575 205.281 91.0068 200.135C91.3334 199.752 91.5128 199.267 91.5127 198.766L91.4778 185.988" stroke="#A9CAD5" stroke-width="2"/>
<path d="M91.4779 185.987L91.6 168.691C91.599 168.668 91.5919 168.646 91.5796 168.627C91.5673 168.608 91.5501 168.592 91.5298 168.581C91.5095 168.571 91.4868 168.566 91.4639 168.567C91.441 168.567 91.4188 168.574 91.3994 168.587L85.5819 172.285C85.3784 172.413 85.3086 172.593 85.3726 172.826C86.7739 178.181 87.0472 183.716 86.1924 189.432" stroke="#BFD5DD" stroke-width="2"/>
<path d="M91.4779 185.988L86.1924 189.433" stroke="#E9F4F7" stroke-width="2"/>
<path d="M203.485 193.802L196.307 192.093C196.119 192.047 195.924 192.049 195.738 192.1C195.552 192.15 195.381 192.247 195.243 192.38L175.051 211.656C174.866 211.834 174.626 211.946 174.37 211.976C174.113 212.006 173.854 211.952 173.63 211.822C168.978 209.054 164.297 206.12 159.587 203.021C148.255 195.561 138.509 186.894 130.352 177.021C129.989 176.58 129.496 176.27 128.947 176.14L101.089 169.52C100.863 169.468 100.749 169.558 100.749 169.791C100.72 200.562 100.72 231.763 100.749 263.394C100.755 265.865 101.735 267.752 103.689 269.055C104.869 269.846 106.98 270.244 110.021 270.25C141.199 270.29 172.371 270.293 203.537 270.258" stroke="#BFD5DD" stroke-width="2"/>
<path d="M203.537 270.259C234.616 270.294 265.69 270.291 296.757 270.25C299.752 270.244 301.813 269.945 302.941 269.352C305.086 268.212 306.162 266.122 306.168 263.081C306.18 231.897 306.197 200.649 306.22 169.338C306.22 169.234 306.197 169.132 306.152 169.038C306.107 168.945 306.042 168.863 305.961 168.799C305.88 168.735 305.786 168.691 305.686 168.669C305.586 168.648 305.482 168.65 305.383 168.675L277.926 175.478C277.502 175.585 277.125 175.831 276.854 176.176C265.166 191.081 249.65 202.167 232.651 211.883C232.389 212.029 232.151 211.999 231.936 211.796L211.483 192.477C211.111 192.122 210.675 192.009 210.175 192.137L203.485 193.803" stroke="#A9CAD5" stroke-width="2"/>
<path d="M203.537 270.259L203.589 255.877" stroke="#E9F4F7" stroke-width="2"/>
<path d="M203.589 255.877C203.677 255.877 203.764 255.877 203.851 255.877" stroke="#6BC1EE" stroke-width="2"/>
<path d="M203.851 255.875L289.134 255.866C289.273 255.866 289.343 255.799 289.343 255.666L289.36 244.51C289.36 244.427 289.327 244.347 289.268 244.288C289.21 244.229 289.13 244.196 289.046 244.196L203.86 244.188" stroke="#6BAACD" stroke-width="2"/>
<path d="M203.86 244.188C203.79 244.193 203.72 244.196 203.65 244.196" stroke="#6BC1EE" stroke-width="2"/>
<path d="M203.651 244.199L203.572 232.102" stroke="#E9F4F7" stroke-width="2"/>
<path d="M203.572 232.1C203.525 232.065 203.482 232.027 203.441 231.986" stroke="#6BC1EE" stroke-width="2"/>
<path d="M203.441 231.987H288.646C289.111 231.987 289.343 231.751 289.343 231.28L289.326 220.962C289.326 220.555 289.125 220.352 288.724 220.352L203.616 220.535" stroke="#6BAACD" stroke-width="2"/>
<path d="M203.616 220.536C203.575 220.565 203.412 220.525 203.127 220.414" stroke="#6BC1EE" stroke-width="2"/>
<path d="M203.127 220.413C203.267 220.239 203.374 220.085 203.45 219.951C203.525 219.811 203.546 219.637 203.511 219.428C203.412 218.765 203.36 217.835 203.354 216.637C203.331 208.979 203.374 201.368 203.485 193.803" stroke="#E9F4F7" stroke-width="2"/>
<path d="M203.86 244.188L203.851 255.875" stroke="#0382CC" stroke-width="2"/>
<path d="M203.616 220.533L203.441 231.985" stroke="#0382CC" stroke-width="2"/>
<path d="M203.127 220.413L163.329 220.405C163.103 220.399 162.989 220.512 162.989 220.745L162.98 231.638C162.98 231.947 163.135 232.101 163.443 232.101H203.572" stroke="#81CCF6" stroke-width="2"/>
<path d="M203.651 244.197L163.573 244.206C163.184 244.206 162.989 244.401 162.989 244.79V255.292C162.989 255.675 163.181 255.867 163.565 255.867L203.59 255.876" stroke="#81CCF6" stroke-width="2"/>
<path d="M145.528 180.116C145.126 180.017 145.074 180.11 145.371 180.395C153.534 188.257 162.582 195.063 172.513 200.813C172.833 200.999 173.127 200.965 173.394 200.709L184.951 189.71C184.972 189.693 184.987 189.67 184.995 189.644C185.003 189.618 185.004 189.59 184.997 189.563C184.989 189.536 184.975 189.511 184.954 189.491C184.934 189.471 184.909 189.456 184.881 189.449L145.528 180.116Z" stroke="#BFD5DD" stroke-width="2"/>
<path d="M233.863 200.945C244.126 194.921 253.188 188.124 261.05 180.553C261.468 180.152 261.395 180.018 260.831 180.152L222.089 189.406C221.699 189.499 221.647 189.685 221.932 189.964L233.314 200.875C233.482 201.038 233.666 201.061 233.863 200.945Z" stroke="#BFD5DD" stroke-width="2"/>
<path d="M78.4823 181.539C75.9006 184.487 73.3247 186.737 70.7546 188.29" stroke="#E9F4F7" stroke-width="2"/>
<path d="M152.13 220.735C152.13 220.659 152.1 220.586 152.046 220.532C151.992 220.478 151.919 220.447 151.842 220.447H117.478C117.402 220.447 117.328 220.478 117.274 220.532C117.221 220.586 117.19 220.659 117.19 220.735V231.829C117.19 231.906 117.221 231.979 117.274 232.033C117.328 232.087 117.402 232.117 117.478 232.117H151.842C151.919 232.117 151.992 232.087 152.046 232.033C152.1 231.979 152.13 231.906 152.13 231.829V220.735Z" stroke="#81CCF6" stroke-width="2"/>
<path d="M152.165 244.565C152.165 244.479 152.131 244.397 152.071 244.337C152.01 244.276 151.928 244.242 151.842 244.242H117.513C117.427 244.242 117.345 244.276 117.285 244.337C117.224 244.397 117.19 244.479 117.19 244.565V255.572C117.19 255.658 117.224 255.74 117.285 255.8C117.345 255.861 117.427 255.895 117.513 255.895H151.842C151.928 255.895 152.01 255.861 152.071 255.8C152.131 255.74 152.165 255.658 152.165 255.572V244.565Z" stroke="#81CCF6" stroke-width="2"/>
<path d="M351.095 211.525C349.49 212.212 347.888 213.374 346.289 215.014C345.667 215.648 345.196 215.677 344.876 215.101" stroke="#E9F4F7" stroke-width="2"/>
<path d="M344.876 215.102C339.904 200.833 329.851 192.215 314.715 189.25" stroke="#BF9F89" stroke-width="2"/>
<path d="M344.876 215.102C346.44 220.532 346.806 226.394 345.975 232.685" stroke="#A99481" stroke-width="2"/>
<path d="M314.619 254.7C326.998 251.967 334.81 244.513 338.055 232.337C338.561 230.418 338.773 227.618 338.692 223.938" stroke="#9C4C16" stroke-width="2"/>
<path d="M338.692 223.936C337.541 210.356 328.06 199.497 314.611 197.143" stroke="#B05A20" stroke-width="2"/>
<path d="M338.692 223.938C331.383 228.525 323.347 231.139 314.585 231.778" stroke="#CD6824" stroke-width="2"/>
<path d="M314.742 157.217L306.142 159.275C306.27 147.047 306.288 134.813 306.195 122.573C306.171 119.311 305.811 116.951 305.113 115.491C303.543 112.185 300.499 109.525 296.941 108.374C295.871 108.031 294.809 107.656 293.757 107.249C293.426 107.121 293.263 106.88 293.269 106.525C293.443 88.302 293.423 69.5586 293.208 50.2948C293.202 49.8471 293.179 49.3819 293.138 48.8993C292.99 47.1898 290.303 44.5122 289.169 43.7359C286.576 41.9625 283.779 40.5408 280.779 39.4709C273.935 37.0404 266.141 35.1913 257.395 33.9238C239.428 31.3246 221.452 30.1123 203.468 30.2867C185.28 30.1821 167.286 31.4526 149.488 34.0982C143.534 34.982 138.263 36.0257 133.675 37.2294C127.648 38.808 113.841 42.8027 113.824 50.7309C113.783 67.6979 113.78 86.2872 113.815 106.499C113.815 106.848 113.652 107.086 113.327 107.214C107.588 109.412 103.044 111.191 101.308 117.174C100.907 118.552 100.703 122.376 100.697 128.644C100.692 139.191 100.712 149.791 100.759 160.444L91.8535 157.888C91.807 146.788 91.7808 135.615 91.775 124.37C91.7692 118.579 92.1093 114.729 92.7954 112.822C94.8654 107.037 98.7496 103.025 104.448 100.786C104.75 100.664 104.901 100.44 104.901 100.114C104.971 84.8336 104.936 69.7185 104.797 54.7691C104.744 48.4894 104.265 43.6836 109.69 39.1046C112.987 36.3194 116.397 34.2843 119.921 32.9992C120.264 32.8713 120.415 32.6271 120.374 32.2666C118.761 17.5004 126.296 5.2025 140.391 0.972373C144.298 -0.196363 148.31 -0.248695 152.427 0.815379C162.553 3.43195 170.682 11.3602 172.732 21.7654C172.79 22.0678 172.973 22.2073 173.281 22.1841L183.573 21.5648C183.998 21.5357 184.219 21.3061 184.236 20.8758C184.283 19.4454 184.707 18.2098 185.509 17.169C190.35 10.8979 198.959 12.7644 200.851 20.492C200.938 20.8583 201.171 21.0415 201.549 21.0415L205.282 21.0502C205.59 21.0502 205.77 20.8961 205.823 20.588C206.608 16.1107 209.111 13.5988 213.332 13.0522C218.033 12.4417 222.141 16.0264 222.508 20.745C222.528 20.9691 222.627 21.1785 222.787 21.3353C222.947 21.4921 223.157 21.5859 223.38 21.5997L233.253 22.2015C233.614 22.2248 233.846 22.062 233.951 21.7131C237.381 9.79314 244.699 2.67896 255.904 0.370561C259.026 -0.274861 262.524 -0.0771639 266.396 0.963651C270.042 1.94051 273.197 3.46684 275.86 5.54266C284.209 12.0725 287.812 21.0764 286.666 32.5544C286.637 32.851 286.762 33.0545 287.041 33.165C292.091 35.2059 298.31 38.9737 300.743 43.8755C301.54 45.4745 301.935 47.623 301.929 50.321C301.883 66.9856 301.866 83.6939 301.877 100.446C301.877 100.789 302.037 101.021 302.357 101.144C307.666 103.184 311.413 106.97 313.599 112.499C314.344 114.395 314.727 117.506 314.751 121.832C314.809 133.752 314.806 145.547 314.742 157.217ZM135.742 26.8939C135.754 27.173 135.893 27.298 136.161 27.2689C137.888 27.0654 139.597 26.7776 141.289 26.4055C143.912 25.8298 145.607 25.481 146.374 25.3588C149.95 24.7716 153.544 24.2599 157.154 23.8238L164.655 22.8905C164.969 22.8498 165.08 22.6783 164.987 22.376C163.481 17.5033 160.646 13.6657 156.483 10.863C153.5 8.84826 148.816 7.40042 145.328 7.88013C133.841 9.49368 127.814 18.1807 127.718 29.3011C127.718 29.621 127.878 29.7634 128.198 29.7285C131.588 29.4029 134.102 28.458 135.742 26.8939ZM249.179 24.0069C249.203 23.9314 249.31 24.0244 249.502 24.286C249.506 24.2911 249.512 24.2949 249.519 24.2968C249.525 24.2988 249.532 24.2988 249.538 24.297C249.545 24.2951 249.55 24.2915 249.555 24.2864C249.559 24.2814 249.562 24.2752 249.563 24.2686C249.546 24.1349 249.604 24.0447 249.738 23.9982C249.813 23.9692 249.897 23.9604 249.99 23.9721C257.108 24.8559 264.169 26.1438 271.176 27.8359L278.45 29.8681C278.799 29.9669 278.968 29.8332 278.956 29.4669C278.828 26.6642 278.61 24.5942 278.302 23.2569C276.825 16.8782 273.057 12.2731 266.998 9.44135C262.783 7.46438 258.567 7.25215 254.351 8.80465C247.926 11.1712 243.69 15.7182 241.644 22.4457C241.545 22.7713 241.664 22.9574 242.001 23.0039L249.179 24.0069Z" fill="#7E3E12"/>
<path d="M157.154 23.8231C152.619 11.3508 136.893 14.0633 135.742 26.8932C134.102 28.4574 131.587 29.4022 128.197 29.7279C127.878 29.7627 127.718 29.6203 127.718 29.3005C127.814 18.18 133.841 9.49301 145.327 7.87946C148.816 7.39975 153.5 8.84759 156.483 10.8624C160.646 13.665 163.481 17.5026 164.987 22.3753C165.08 22.6776 164.969 22.8492 164.655 22.8899L157.154 23.8231Z" fill="#B95A1A"/>
<path d="M271.176 27.8368C270.746 22.1618 268.248 18.3793 263.684 16.4896C261.166 15.443 258.712 15.3935 256.322 16.3413C253.049 17.6438 250.668 20.1993 249.179 24.0079L242.001 23.0049C241.664 22.9584 241.545 22.7723 241.643 22.4467C243.69 15.7192 247.926 11.1721 254.351 8.80559C258.567 7.25309 262.782 7.46533 266.998 9.44229C273.057 12.274 276.825 16.8792 278.302 23.2578C278.61 24.5952 278.828 26.6652 278.956 29.4678C278.967 29.8341 278.799 29.9679 278.45 29.869L271.176 27.8368Z" fill="#B95A1A"/>
<path d="M271.175 27.8351C264.169 26.1431 257.107 24.8552 249.99 23.9713C249.897 23.9597 249.812 23.9684 249.737 23.9975C249.603 24.044 249.545 24.1342 249.562 24.2679C249.561 24.2745 249.559 24.2807 249.554 24.2857C249.55 24.2908 249.544 24.2944 249.538 24.2962C249.531 24.2981 249.524 24.298 249.518 24.2961C249.511 24.2942 249.506 24.2904 249.501 24.2853C249.31 24.0237 249.202 23.9306 249.179 24.0062C250.667 20.1977 253.048 17.6421 256.322 16.3397C258.712 15.3919 261.166 15.4413 263.683 16.4879C268.248 18.3777 270.745 22.1601 271.175 27.8351Z" fill="#4E2800"/>
<path d="M157.154 23.8243C153.543 24.2604 149.95 24.7721 146.374 25.3594C145.606 25.4815 143.911 25.8303 141.289 26.406C139.597 26.7781 137.887 27.066 136.16 27.2695C135.893 27.2985 135.753 27.1735 135.742 26.8944C136.893 14.0645 152.619 11.352 157.154 23.8243Z" fill="#4E2800"/>
<path d="M306.142 159.274L203.31 184.498L203.424 172.968C203.425 172.873 203.407 172.779 203.372 172.691C203.336 172.604 203.284 172.524 203.217 172.456C203.151 172.389 203.072 172.336 202.984 172.299C202.897 172.263 202.803 172.244 202.709 172.244C192.376 172.232 182.698 170.31 173.673 166.479C166.992 163.641 161.198 159.99 156.291 155.524C151.412 151.076 147.545 145.636 144.69 139.205C153.831 150.968 165.678 158.818 180.232 162.754C195.292 166.83 210.387 166.886 225.516 162.92C240.544 158.978 254.412 150.134 262.942 137.068C265.105 133.748 266.911 129.977 268.358 125.756C272.1 114.871 272.379 103.376 270.356 92.011C270.309 91.7486 270.173 91.5108 269.97 91.3388C269.768 91.1667 269.513 91.0713 269.248 91.069L256 91.0428L228.595 91.0603C220.123 88.1879 211.73 86.7662 203.415 86.7953L203.467 30.286C221.452 30.1115 239.428 31.3239 257.395 33.923C266.14 35.1906 273.935 37.0397 280.778 39.4702C283.779 40.54 286.576 41.9617 289.169 43.7352C290.303 44.5114 292.989 47.1891 293.137 48.8986C293.178 49.3812 293.201 49.8463 293.207 50.2941C293.422 69.5579 293.443 88.3013 293.268 106.524C293.262 106.879 293.425 107.12 293.757 107.248C294.809 107.655 295.87 108.03 296.94 108.373C300.499 109.525 303.543 112.185 305.113 115.49C305.81 116.95 306.171 119.311 306.194 122.573C306.287 134.812 306.27 147.046 306.142 159.274ZM211.212 43.8486C220.1 41.7379 231.412 43.3601 239.445 48.9334C239.765 49.1544 239.948 49.0701 239.995 48.6805C241.896 31.76 214.989 26.9193 210.733 43.3601C210.622 43.7846 210.782 43.9474 211.212 43.8486ZM237.867 71.3749C237.867 69.5125 237.5 67.6684 236.787 65.9478C236.074 64.2272 235.03 62.6638 233.713 61.3469C232.396 60.03 230.833 58.9853 229.112 58.2726C227.391 57.5599 225.547 57.1931 223.685 57.1931C219.924 57.1931 216.316 58.6872 213.657 61.3469C210.997 64.0065 209.503 67.6137 209.503 71.3749C209.503 75.1362 210.997 78.7434 213.657 81.403C216.316 84.0626 219.924 85.5568 223.685 85.5568C225.547 85.5568 227.391 85.1899 229.112 84.4772C230.833 83.7645 232.396 82.7199 233.713 81.403C235.03 80.0861 236.074 78.5227 236.787 76.8021C237.5 75.0815 237.867 73.2373 237.867 71.3749Z" fill="#B95A1A"/>
<path d="M203.468 30.2872L203.415 86.7965C194.659 86.9302 186.483 88.2618 178.889 90.7911C178.581 90.89 178.308 91.015 178.07 91.1662L150.639 91.0179L137.783 90.9569C137.114 90.9569 136.728 91.2883 136.623 91.9512C136.042 95.6783 135.6 99.2281 135.297 102.601C135.286 102.723 135.306 102.836 135.358 102.941C135.469 103.168 135.466 103.394 135.35 103.621C135.018 104.243 135.001 104.848 135.297 105.435C135.402 105.639 135.419 105.851 135.35 106.072C135.181 106.589 135.117 107.081 135.158 107.546C135.303 109.331 135.434 111.186 135.55 113.111C135.672 115.128 135.917 117.015 136.283 118.771C137.818 126.045 140.621 132.857 144.691 139.206C147.546 145.637 151.413 151.077 156.291 155.525C161.199 159.991 166.993 163.642 173.674 166.48C182.698 170.312 192.376 172.233 202.709 172.245C202.804 172.245 202.897 172.264 202.985 172.3C203.072 172.337 203.151 172.39 203.218 172.458C203.284 172.525 203.337 172.605 203.372 172.693C203.408 172.78 203.425 172.874 203.424 172.969L203.311 184.499C203.241 184.517 203.168 184.534 203.093 184.552C202.953 184.592 202.811 184.595 202.665 184.56L100.759 160.444C100.712 149.792 100.692 139.192 100.698 128.644C100.703 122.376 100.907 118.553 101.308 117.175C103.044 111.192 107.588 109.412 113.327 107.215C113.652 107.087 113.815 106.848 113.815 106.499C113.78 86.2877 113.783 67.6984 113.824 50.7314C113.841 42.8032 127.648 38.8085 133.675 37.2299C138.263 36.0262 143.534 34.9825 149.488 34.0987C167.286 31.4531 185.28 30.1826 203.468 30.2872ZM193.054 52.5892C193.098 52.5981 193.144 52.5954 193.188 52.5812C193.231 52.567 193.27 52.5418 193.301 52.5079C193.332 52.474 193.355 52.4326 193.367 52.3873C193.378 52.3421 193.379 52.2945 193.368 52.249C192.315 48.0683 190.167 45.1988 186.922 43.6405C182.811 41.6693 178.48 41.4658 173.927 43.0299C166.891 45.443 163.617 50.2284 164.106 57.3862C164.108 57.4437 164.126 57.4993 164.158 57.5476C164.189 57.5958 164.233 57.6351 164.285 57.6615C164.337 57.6878 164.395 57.7005 164.454 57.6981C164.513 57.6957 164.57 57.6784 164.62 57.6479C173.488 52.2461 182.966 50.5599 193.054 52.5892ZM197.458 71.3674C197.458 67.6039 195.963 63.9944 193.302 61.3332C190.641 58.672 187.031 57.1769 183.268 57.1769C179.504 57.1769 175.895 58.672 173.234 61.3332C170.572 63.9944 169.077 67.6039 169.077 71.3674C169.077 75.131 170.572 78.7404 173.234 81.4017C175.895 84.0629 179.504 85.558 183.268 85.558C187.031 85.558 190.641 84.0629 193.302 81.4017C195.963 78.7404 197.458 75.131 197.458 71.3674Z" fill="#E1762E"/>
<path d="M239.446 48.9344C231.413 43.3611 220.1 41.7388 211.213 43.8495C210.782 43.9484 210.623 43.7856 210.733 43.3611C214.989 26.9203 241.896 31.761 239.995 48.6815C239.949 49.0711 239.765 49.1554 239.446 48.9344Z" fill="#4E2800"/>
<path d="M193.054 52.5875C182.965 50.5582 173.488 52.2444 164.62 57.6462C164.57 57.6767 164.512 57.694 164.454 57.6964C164.395 57.6988 164.337 57.6862 164.285 57.6598C164.233 57.6334 164.189 57.5942 164.158 57.5459C164.126 57.4976 164.108 57.442 164.106 57.3845C163.617 50.2268 166.891 45.4413 173.927 43.0283C178.479 41.4641 182.811 41.6677 186.922 43.6388C190.167 45.1971 192.315 48.0666 193.368 52.2473C193.379 52.2928 193.378 52.3404 193.366 52.3856C193.355 52.4309 193.332 52.4724 193.301 52.5063C193.27 52.5401 193.231 52.5653 193.187 52.5795C193.144 52.5937 193.098 52.5965 193.054 52.5875Z" fill="#4E2800"/>
<path d="M197.458 71.3663C197.458 75.1299 195.963 78.7393 193.302 81.4006C190.64 84.0618 187.031 85.5569 183.267 85.5569C179.504 85.5569 175.894 84.0618 173.233 81.4006C170.572 78.7393 169.077 75.1299 169.077 71.3663C169.077 67.6028 170.572 63.9933 173.233 61.3321C175.894 58.6709 179.504 57.1758 183.267 57.1758C187.031 57.1758 190.64 58.6709 193.302 61.3321C195.963 63.9933 197.458 67.6028 197.458 71.3663ZM194.876 72.7793C194.876 69.9734 193.762 67.2824 191.778 65.2983C189.794 63.3142 187.103 62.1996 184.297 62.1996C181.491 62.1996 178.8 63.3142 176.816 65.2983C174.832 67.2824 173.717 69.9734 173.717 72.7793C173.717 75.5852 174.832 78.2762 176.816 80.2603C178.8 82.2443 181.491 83.359 184.297 83.359C187.103 83.359 189.794 82.2443 191.778 80.2603C193.762 78.2762 194.876 75.5852 194.876 72.7793Z" fill="white"/>
<path d="M237.867 71.3752C237.867 73.2376 237.5 75.0817 236.787 76.8023C236.075 78.523 235.03 80.0864 233.713 81.4033C232.396 82.7202 230.833 83.7648 229.112 84.4775C227.392 85.1902 225.547 85.557 223.685 85.557C219.924 85.557 216.317 84.0629 213.657 81.4033C210.997 78.7436 209.503 75.1364 209.503 71.3752C209.503 67.6139 210.997 64.0067 213.657 61.3471C216.317 58.6875 219.924 57.1934 223.685 57.1934C225.547 57.1934 227.392 57.5602 229.112 58.2729C230.833 58.9856 232.396 60.0302 233.713 61.3471C235.03 62.664 236.075 64.2274 236.787 65.948C237.5 67.6687 237.867 69.5128 237.867 71.3752ZM233.375 72.8143C233.375 70.013 232.262 67.3265 230.281 65.3457C228.301 63.3649 225.614 62.2521 222.813 62.2521C220.012 62.2521 217.325 63.3649 215.344 65.3457C213.363 67.3265 212.251 70.013 212.251 72.8143C212.251 75.6156 213.363 78.3021 215.344 80.2829C217.325 82.2637 220.012 83.3765 222.813 83.3765C225.614 83.3765 228.301 82.2637 230.281 80.2829C232.262 78.3021 233.375 75.6156 233.375 72.8143Z" fill="white"/>
<path d="M184.296 83.3586C190.139 83.3586 194.876 78.6219 194.876 72.7789C194.876 66.9359 190.139 62.1992 184.296 62.1992C178.453 62.1992 173.717 66.9359 173.717 72.7789C173.717 78.6219 178.453 83.3586 184.296 83.3586Z" fill="#1A1C22"/>
<path d="M222.813 83.3764C228.646 83.3764 233.375 78.6476 233.375 72.8142C233.375 66.9808 228.646 62.252 222.813 62.252C216.979 62.252 212.25 66.9808 212.25 72.8142C212.25 78.6476 216.979 83.3764 222.813 83.3764Z" fill="#1A1C22"/>
<path d="M203.415 86.7954C211.73 86.7663 220.123 88.188 228.595 91.0604C230.785 102.521 227.06 112.551 216.045 117.68C213.69 118.773 211.265 119.503 208.77 119.869C208.439 119.915 208.18 120.075 207.994 120.349C205.779 123.576 204.328 126.849 203.642 130.169C203.433 131.175 203.215 131.175 202.988 130.169C202.203 126.646 200.752 123.401 198.636 120.436C198.409 120.122 198.104 119.93 197.72 119.86C183.311 117.462 174.868 105.879 178.069 91.165C178.308 91.0139 178.581 90.8888 178.889 90.79C186.483 88.2606 194.658 86.9291 203.415 86.7954ZM221.156 93.2583C209.564 90.6417 198.06 90.2928 186.626 93.0228C185.905 93.1972 185.23 93.4415 184.602 93.7554C184.486 93.8123 184.385 93.8965 184.308 94.0011C184.231 94.1058 184.179 94.2278 184.157 94.3573C183.32 99.0933 188.841 101.256 192.391 102.163C196.577 103.227 201.203 103.614 206.267 103.323C210.663 103.079 223.511 101.448 222.499 94.6887C222.382 93.9154 221.935 93.4386 221.156 93.2583Z" fill="#4E2800"/>
<path d="M150.639 91.0161C148.057 101.378 148.964 112.803 154.581 121.839C157.093 125.886 160.204 129.332 163.914 132.175C168.193 135.454 172.322 137.87 176.299 139.423C189.428 144.557 203.145 145.796 217.449 143.138C220.566 146.621 224.636 148.621 229.66 149.139C235.48 152.273 241.213 152.433 246.859 149.619C253.279 146.418 255.058 139.519 254.098 132.829C254.063 132.62 253.95 132.471 253.758 132.384C253.613 132.32 253.491 132.338 253.392 132.437L253.505 130.509C254.011 127.23 253.68 123.968 252.511 120.723C254.662 116.85 256.093 112.771 256.802 108.486C257.756 102.759 257.488 96.9441 256 91.0423L269.248 91.0685C269.513 91.0708 269.768 91.1662 269.971 91.3382C270.173 91.5102 270.309 91.748 270.356 92.0104C272.38 103.375 272.1 114.871 268.359 125.756C266.911 129.977 265.105 133.748 262.942 137.068C254.412 150.133 240.545 158.977 225.517 162.92C210.387 166.885 195.292 166.83 180.233 162.754C165.679 158.817 153.831 150.968 144.691 139.205C140.62 132.855 137.818 126.043 136.283 118.769C135.916 117.013 135.672 115.126 135.55 113.109C135.434 111.184 135.303 109.329 135.158 107.544C135.117 107.079 135.181 106.588 135.35 106.07C135.419 105.849 135.402 105.637 135.297 105.433C135.001 104.846 135.018 104.241 135.35 103.619C135.466 103.393 135.469 103.166 135.358 102.939C135.306 102.834 135.286 102.721 135.297 102.599C135.6 99.2264 136.041 95.6765 136.623 91.9494C136.728 91.2865 137.114 90.9551 137.783 90.9551L150.639 91.0161Z" fill="#E5895A"/>
<path d="M178.069 91.1658C174.868 105.88 183.311 117.462 197.72 119.861C198.104 119.931 198.409 120.123 198.636 120.437C200.752 123.402 202.203 126.647 202.988 130.17C203.215 131.176 203.433 131.176 203.642 130.17C204.328 126.85 205.779 123.576 207.994 120.349C208.18 120.076 208.439 119.916 208.771 119.87C211.265 119.503 213.69 118.774 216.045 117.68C227.06 112.552 230.785 102.522 228.595 91.0612L256 91.0437C257.488 96.9456 257.756 102.76 256.802 108.488C256.093 112.773 254.662 116.852 252.511 120.724C251.639 121.858 251.397 122.547 251.787 122.792L245.821 129.446C241.914 133.069 237.248 136.075 231.823 138.465C231.456 138.628 231.16 138.895 230.933 139.267L230.724 139.215C230.532 139.174 230.346 139.186 230.165 139.25L223.755 141.631L217.449 143.14C203.145 145.797 189.428 144.559 176.299 139.424C172.322 137.872 168.193 135.456 163.914 132.176C160.204 129.333 157.093 125.888 154.581 121.841C148.964 112.805 148.057 101.379 150.639 91.0176L178.069 91.1658Z" fill="#FBD395"/>
<path d="M186.626 93.024C198.06 90.2941 209.564 90.643 221.156 93.2595C221.935 93.4398 222.383 93.9166 222.499 94.6899C223.511 101.449 210.663 103.08 206.267 103.325C201.203 103.615 196.577 103.229 192.391 102.165C188.841 101.258 183.32 99.0945 184.157 94.3585C184.179 94.2291 184.231 94.107 184.308 94.0023C184.386 93.8977 184.486 93.8135 184.602 93.7567C185.23 93.4427 185.905 93.1985 186.626 93.024Z" fill="#AD6050"/>
<path d="M78.7789 159.127C77.9009 159.796 76.6595 160.401 75.0546 160.941C74.5604 161.11 74.354 161.473 74.4354 162.032C74.4696 162.26 74.4425 162.495 74.3569 162.712L73.3888 165.285C72.7143 167.605 71.813 169.198 70.685 170.065C69.9233 179.827 66.4577 187.488 60.2884 193.047C64.4343 188.151 66.6351 182.546 66.8909 176.231C66.8926 176.198 66.8848 176.165 66.8685 176.136C66.8521 176.107 66.8279 176.084 66.7986 176.068C66.7693 176.052 66.7361 176.046 66.7031 176.048C66.67 176.051 66.6383 176.063 66.6118 176.083C62.4079 179.039 58.4132 181.926 52.9708 180.365C51.898 180.051 51.331 179.292 50.2844 179.004C49.6681 178.83 49.6477 178.6 50.2234 178.315C59.893 173.553 65.3588 165.64 66.6206 154.574C66.6613 154.214 66.8415 154.121 67.1613 154.295C70.2721 155.964 73.069 155.766 75.5518 153.702C78.9097 150.911 78.6742 145.399 75.2553 142.861C72.848 141.082 70.1762 140.945 67.2398 142.451C67.0479 142.55 66.9345 142.492 66.8997 142.277L65.7833 134.784C65.7309 134.453 65.5419 134.255 65.2163 134.191C56.1804 132.412 47.1358 131.511 38.0824 131.487C28.8721 131.586 19.7868 132.488 10.8265 134.191C10.5415 134.244 10.3584 134.409 10.277 134.688C6.38701 148.521 7.58191 164.116 18.964 174.059C18.4581 180.769 20.2461 186.529 24.328 191.337C30.5205 198.623 38.6639 201.382 48.7581 199.614C40.7572 202.039 33.1488 201.353 25.9328 197.556C17.9784 193.375 12.8499 186.799 10.5474 177.827C10.2217 176.559 9.09371 174.992 7.16326 173.126C5.32584 169.864 4.16001 167.707 3.66577 166.654C1.59577 162.229 0.397962 156.83 0.0723437 150.458C-0.230016 144.538 0.415406 138.497 2.00861 132.334C2.34004 131.069 1.56379 130.24 1.19747 129.106C-0.921955 122.521 0.142119 115.326 6.50039 111.715C12.6145 108.244 20.1327 109.561 24.3105 115.335C24.5896 115.712 24.7583 115.669 24.8164 115.204C25.5258 109.564 28.4447 105.81 33.5732 103.944C36.8701 102.74 40.1554 102.88 43.429 104.362C48.0923 106.485 50.6507 110.285 51.1043 115.762C51.1047 115.797 51.1169 115.831 51.1388 115.858C51.1608 115.885 51.1912 115.905 51.2253 115.913C51.2594 115.921 51.2952 115.917 51.327 115.902C51.3588 115.888 51.3848 115.863 51.4008 115.832C55.9885 108.392 67.6934 108.244 72.9788 114.925C76.3542 119.172 76.3368 124.527 74.5401 129.586C74.4412 129.877 74.4209 130.173 74.479 130.476L75.2378 134.287C75.2678 134.437 75.3455 134.573 75.459 134.673C75.5724 134.774 75.7153 134.835 75.8658 134.845C84.7796 135.465 88.1986 145.704 84.9017 152.76C83.6806 155.388 81.6397 157.511 78.7789 159.127ZM37.7336 111.113C36.3019 111.141 34.9078 111.644 33.7579 112.549C32.608 113.454 31.7634 114.712 31.3491 116.137C31.049 117.164 30.9819 118.245 31.1534 119.294C31.3248 120.344 31.73 121.332 32.337 122.183C32.9441 123.033 33.7364 123.723 34.6517 124.196C35.5669 124.669 36.5801 124.914 37.6115 124.911C39.292 124.906 40.9211 124.245 42.1739 123.062C43.4267 121.879 44.2112 120.259 44.3709 118.527C44.4583 117.569 44.3518 116.607 44.058 115.702C43.7643 114.798 43.2898 113.97 42.6651 113.272C42.0403 112.574 41.279 112.022 40.4298 111.65C39.5806 111.278 38.6623 111.095 37.7336 111.113ZM70.0832 123.28C70.0832 121.43 69.348 119.655 68.0395 118.346C66.7309 117.038 64.9562 116.303 63.1056 116.303C61.2551 116.303 59.4803 117.038 58.1718 118.346C56.8632 119.655 56.1281 121.43 56.1281 123.28C56.1281 125.131 56.8632 126.905 58.1718 128.214C59.4803 129.523 61.2551 130.258 63.1056 130.258C64.9562 130.258 66.7309 129.523 68.0395 128.214C69.348 126.905 70.0832 125.131 70.0832 123.28ZM13.1498 130.749C14.9251 130.92 16.6971 130.363 18.0761 129.199C19.4551 128.035 20.3281 126.361 20.503 124.544C20.5896 123.644 20.5023 122.737 20.2459 121.874C19.9895 121.01 19.5692 120.207 19.0089 119.512C18.4486 118.816 17.7592 118.24 16.9803 117.818C16.2013 117.395 15.3479 117.134 14.4689 117.05C12.6937 116.879 10.9216 117.436 9.54263 118.6C8.16364 119.764 7.29066 121.438 7.11573 123.255C7.0291 124.154 7.11647 125.062 7.37283 125.925C7.62919 126.789 8.04953 127.591 8.60985 128.287C9.17017 128.983 9.85949 129.559 10.6385 129.981C11.4174 130.404 12.2708 130.665 13.1498 130.749Z" fill="#7E3E12"/>
<path d="M37.6116 124.911L37.7337 111.113C38.6624 111.095 39.5808 111.278 40.4299 111.649C41.2791 112.021 42.0404 112.573 42.6652 113.271C43.29 113.969 43.7644 114.797 44.0581 115.702C44.3519 116.607 44.4584 117.569 44.3711 118.526C44.2113 120.259 43.4268 121.878 42.174 123.062C40.9212 124.245 39.2921 124.905 37.6116 124.911Z" fill="#B95A1A"/>
<path d="M37.7337 111.113L37.6116 124.911C36.5802 124.914 35.567 124.67 34.6518 124.196C33.7365 123.723 32.9442 123.034 32.3371 122.183C31.7301 121.333 31.3249 120.344 31.1535 119.295C30.982 118.245 31.0491 117.165 31.3492 116.137C31.7635 114.712 32.6081 113.454 33.758 112.549C34.9079 111.644 36.302 111.141 37.7337 111.113Z" fill="#E1762E"/>
<path d="M63.1057 130.258C66.9593 130.258 70.0832 127.134 70.0832 123.28C70.0832 119.427 66.9593 116.303 63.1057 116.303C59.2521 116.303 56.1282 119.427 56.1282 123.28C56.1282 127.134 59.2521 130.258 63.1057 130.258Z" fill="#B95A1A"/>
<path d="M7.11575 123.254C6.75148 127.037 9.45302 130.393 13.1498 130.749C16.8466 131.105 20.1388 128.326 20.503 124.543C20.8673 120.76 18.1658 117.405 14.469 117.049C10.7722 116.693 7.48002 119.471 7.11575 123.254Z" fill="#E1762E"/>
<path d="M252.511 120.725C253.679 123.969 254.011 127.231 253.505 130.511C244.143 132.546 239.329 138.404 239.061 148.085C236.061 148.87 232.927 149.222 229.659 149.141C224.635 148.623 220.565 146.623 217.448 143.14L223.754 141.631C225.185 144.265 226.973 145.015 229.118 143.881C230.816 142.986 231.421 141.448 230.933 139.267C231.159 138.895 231.456 138.628 231.822 138.465C237.247 136.075 241.913 133.069 245.821 129.447C252.013 131.319 254.002 129.101 251.787 122.792C251.397 122.547 251.638 121.858 252.511 120.725Z" fill="#4E2800"/>
<path d="M251.787 122.791C254.002 129.1 252.014 131.318 245.821 129.446L251.787 122.791Z" fill="white"/>
<path d="M253.505 130.51L253.392 132.437C251.63 140.456 246.853 145.671 239.062 148.084C239.329 138.403 244.144 132.545 253.505 130.51Z" fill="#AD6050"/>
<path d="M38.0825 131.486L38.0215 142.223C33.1488 142.275 28.4273 142.647 23.8571 143.339C22.9093 143.485 22.3075 144.075 22.0516 145.11C19.0949 156.946 24.7031 169.209 38.0738 169.793L38.0302 179.806C38.0303 179.932 38.0049 180.057 37.9557 180.173C37.9066 180.289 37.8345 180.394 37.744 180.482C37.6535 180.569 37.5464 180.637 37.4292 180.681C37.3119 180.725 37.187 180.745 37.062 180.739C32.0673 180.535 27.3691 179.12 22.9674 176.491C21.6475 175.706 20.3131 174.895 18.9641 174.058C7.58197 164.115 6.38707 148.52 10.277 134.687C10.3584 134.408 10.5416 134.242 10.8265 134.19C19.7868 132.486 28.8722 131.585 38.0825 131.486Z" fill="#E1762E"/>
<path d="M38.0825 131.486C47.1358 131.51 56.1804 132.411 65.2163 134.19C65.542 134.254 65.7309 134.452 65.7833 134.783L66.8997 142.275C66.9346 142.49 67.048 142.549 67.2398 142.45C70.1762 140.944 72.848 141.08 75.2553 142.86C78.6743 145.398 78.9098 150.91 75.5518 153.701C73.069 155.765 70.2721 155.963 67.1613 154.294C66.8415 154.12 66.6613 154.213 66.6206 154.573C65.3588 165.638 59.8931 173.552 50.2234 178.314C49.6477 178.599 49.6681 178.829 50.2844 179.003C51.3311 179.291 51.898 180.05 52.9708 180.364C58.4133 181.925 62.4079 179.038 66.6119 176.081C66.6384 176.062 66.67 176.05 66.7031 176.047C66.7362 176.044 66.7693 176.051 66.7986 176.067C66.8279 176.082 66.8521 176.106 66.8685 176.135C66.8849 176.164 66.8926 176.197 66.891 176.23C66.6351 182.544 64.4343 188.15 60.2885 193.046C56.8637 196.249 53.0202 198.439 48.7581 199.613C38.6639 201.381 30.5206 198.622 24.328 191.336C20.2462 186.527 18.4582 180.768 18.964 174.058C20.313 174.895 21.6475 175.706 22.9674 176.491C27.3691 179.12 32.0673 180.535 37.062 180.739C37.187 180.745 37.3119 180.725 37.4291 180.681C37.5463 180.637 37.6535 180.569 37.744 180.482C37.8345 180.394 37.9065 180.289 37.9557 180.173C38.0049 180.057 38.0302 179.932 38.0301 179.806L38.0738 169.793C46.0107 169.278 51.8544 164.525 53.5028 156.736C54.4273 152.364 54.3866 148.198 53.3807 144.238C53.3369 144.066 53.2415 143.912 53.1073 143.797C52.9731 143.682 52.8067 143.61 52.6306 143.592L38.0214 142.223L38.0825 131.486Z" fill="#B95A1A"/>
<path d="M253.392 132.44C253.49 132.341 253.612 132.323 253.758 132.387C253.95 132.475 254.063 132.623 254.098 132.832C255.057 139.522 253.278 146.421 246.859 149.622C241.213 152.436 235.48 152.276 229.659 149.142C232.927 149.224 236.061 148.872 239.061 148.087C246.853 145.674 251.63 140.458 253.392 132.44Z" fill="#FBD395"/>
<path d="M230.933 139.267C231.421 141.448 230.816 142.986 229.118 143.881C226.973 145.015 225.185 144.265 223.754 141.631L230.165 139.25C230.345 139.186 230.531 139.174 230.723 139.215L230.933 139.267Z" fill="white"/>
<path d="M38.0213 142.223L52.6305 143.592C52.8066 143.61 52.973 143.681 53.1071 143.797C53.2413 143.912 53.3368 144.066 53.3806 144.237C54.3865 148.197 54.4272 152.363 53.5027 156.736C51.8542 164.525 46.0105 169.278 38.0736 169.793C24.7029 169.208 19.0947 156.945 22.0514 145.11C22.3073 144.075 22.9091 143.484 23.8569 143.339C28.4272 142.647 33.1486 142.275 38.0213 142.223Z" fill="#7E3E12"/>
<path d="M314.742 157.215C318.358 158.11 321.867 159.355 325.269 160.948C334.88 165.454 342.407 172.196 347.85 181.174C351.251 186.785 353.848 193.225 355.639 200.493C355.804 201.182 356.206 201.714 356.171 202.455C356.153 202.758 356.194 203.069 356.293 203.389C357.805 208.372 358.418 212.933 358.133 217.073C357.191 231.011 350.65 241.71 338.509 249.17C340.771 245.629 342.21 243.213 342.826 241.922C343.983 239.492 345.033 236.413 345.975 232.686C350.336 226.383 352.042 219.329 351.094 211.526C350.525 205.88 348.597 200.813 345.312 196.324C338.544 187.07 326.961 181.357 315.099 183.084C314.779 183.131 314.622 183.314 314.628 183.634L314.715 189.25L314.611 197.144L314.585 231.778L314.619 254.7L314.576 262.541C315.303 271.199 311.689 276.685 303.734 278.999H102.389C97.7665 277.662 94.6092 275.112 92.9171 271.35C91.9693 269.245 91.5042 265.997 91.5216 261.607C91.603 244.576 91.6175 227.705 91.5652 210.994C91.5652 210.669 91.4402 210.61 91.1902 210.82C81.5844 218.815 70.0831 223.03 56.6863 223.466C53.308 223.577 49.6506 223.562 45.7141 223.423C41.987 223.289 38.7453 222.83 35.9892 222.045C24.9589 218.888 16.6847 212.515 11.1666 202.926C5.99161 193.925 4.65716 183.991 7.16326 173.124C9.09371 174.99 10.2217 176.557 10.5474 177.825C12.8499 186.797 17.9784 193.373 25.9328 197.554C33.1487 201.351 40.7572 202.037 48.7581 199.612C53.0202 198.438 56.8636 196.248 60.2884 193.044C66.4577 187.486 69.9232 179.825 70.685 170.062C72.8538 175.627 72.8771 181.703 70.7547 188.291C70.0279 190.535 69.2662 192.312 68.4696 193.62C64.1203 200.726 58.233 205.395 50.8077 207.628C45.1734 209.325 39.5652 209.372 33.9831 207.767C26.4765 205.604 20.4816 201.01 15.9986 193.986C15.859 193.765 15.8387 193.777 15.9375 194.021C20.6386 206.119 31.3578 214.343 44.1267 215.032C50.6856 215.387 56.5845 214.09 61.8235 211.142C72.9527 204.88 78.5056 195.013 78.4823 181.54C78.3719 176.069 76.674 170.649 73.3887 165.283L74.3569 162.71C74.4425 162.493 74.4696 162.258 74.4354 162.029C74.354 161.471 74.5604 161.108 75.0546 160.939C76.6595 160.398 77.9009 159.794 78.7789 159.125L82.1804 164.524C82.3258 164.762 82.5206 164.815 82.7648 164.681C86.1431 162.814 89.1725 160.55 91.853 157.886L100.758 160.442L202.665 184.558C202.81 184.593 202.953 184.59 203.092 184.549C203.168 184.532 203.241 184.514 203.31 184.497L306.142 159.273L314.742 157.215ZM315.029 176.237C323.873 175.435 331.392 177.406 339.067 181.575C339.602 181.86 339.695 181.755 339.346 181.261C333.595 173.086 325.568 167.774 315.265 165.326C314.852 165.227 314.643 165.393 314.637 165.823L314.619 175.862C314.619 175.915 314.63 175.966 314.651 176.014C314.672 176.062 314.703 176.105 314.741 176.141C314.78 176.176 314.825 176.203 314.875 176.219C314.925 176.236 314.977 176.242 315.029 176.237ZM86.1925 189.434C85.0005 196.626 82.0176 203.171 77.2438 209.067C76.5112 209.965 75.6216 210.715 74.8976 211.631C74.6185 211.991 74.6883 212.082 75.107 211.901C81.3577 209.203 86.6577 205.281 91.007 200.135C91.3336 199.752 91.513 199.267 91.5129 198.766L91.478 185.988L91.6001 168.693C91.5991 168.67 91.592 168.648 91.5797 168.628C91.5674 168.609 91.5502 168.593 91.5299 168.583C91.5096 168.572 91.4869 168.567 91.464 168.568C91.4411 168.569 91.4189 168.576 91.3995 168.588L85.582 172.286C85.3785 172.414 85.3087 172.594 85.3727 172.827C86.774 178.182 87.0473 183.718 86.1925 189.434ZM203.485 193.803L196.307 192.094C196.119 192.048 195.924 192.051 195.738 192.101C195.552 192.151 195.381 192.248 195.243 192.382L175.051 211.657C174.866 211.835 174.626 211.947 174.37 211.977C174.114 212.007 173.854 211.953 173.63 211.823C168.978 209.055 164.297 206.122 159.587 203.022C148.255 195.562 138.509 186.896 130.352 177.022C129.989 176.581 129.496 176.271 128.947 176.141L101.09 169.521C100.863 169.469 100.749 169.559 100.749 169.792C100.72 200.563 100.72 231.764 100.749 263.395C100.755 265.867 101.735 267.753 103.689 269.056C104.869 269.847 106.98 270.245 110.021 270.251C141.199 270.292 172.371 270.294 203.537 270.26C234.616 270.294 265.69 270.292 296.757 270.251C299.751 270.245 301.813 269.946 302.941 269.353C305.086 268.213 306.162 266.122 306.168 263.081C306.18 231.898 306.197 200.65 306.22 169.338C306.22 169.235 306.197 169.132 306.152 169.039C306.107 168.946 306.042 168.864 305.961 168.8C305.88 168.736 305.786 168.691 305.686 168.67C305.586 168.648 305.482 168.65 305.383 168.675L277.926 175.479C277.502 175.586 277.125 175.831 276.854 176.176C265.166 191.082 249.65 202.168 232.651 211.884C232.389 212.029 232.151 212 231.936 211.797L211.483 192.478C211.111 192.123 210.675 192.009 210.175 192.137L203.485 193.803ZM145.528 180.119C145.126 180.02 145.074 180.113 145.371 180.398C153.534 188.259 162.582 195.065 172.513 200.816C172.833 201.002 173.127 200.967 173.394 200.711L184.951 189.713C184.972 189.695 184.987 189.672 184.995 189.646C185.003 189.62 185.004 189.592 184.997 189.565C184.989 189.538 184.975 189.513 184.954 189.493C184.934 189.473 184.909 189.458 184.881 189.451L145.528 180.119ZM233.863 200.947C244.126 194.923 253.188 188.125 261.049 180.555C261.468 180.153 261.395 180.02 260.831 180.153L222.089 189.407C221.699 189.5 221.647 189.687 221.932 189.966L233.314 200.877C233.482 201.04 233.666 201.063 233.863 200.947Z" fill="#7EABBB"/>
<path d="M339.067 181.577C331.392 177.408 323.874 175.437 315.03 176.24C314.977 176.244 314.925 176.238 314.875 176.222C314.826 176.205 314.78 176.178 314.742 176.143C314.703 176.108 314.672 176.065 314.651 176.017C314.63 175.969 314.619 175.917 314.62 175.865L314.637 165.826C314.643 165.395 314.852 165.23 315.265 165.328C325.569 167.776 333.596 173.088 339.346 181.263C339.695 181.758 339.602 181.862 339.067 181.577Z" fill="white"/>
<path d="M73.3886 165.283C76.6739 170.65 78.3717 176.069 78.4822 181.541C75.9005 184.489 73.3246 186.739 70.7546 188.292C72.8769 181.704 72.8537 175.627 70.6848 170.063C71.8128 169.196 72.7141 167.603 73.3886 165.283Z" fill="white"/>
<path d="M91.4784 185.991L86.1929 189.436C87.0476 183.72 86.7744 178.185 85.373 172.829C85.3091 172.597 85.3789 172.417 85.5824 172.289L91.3999 168.591C91.4192 168.578 91.4415 168.571 91.4644 168.57C91.4873 168.569 91.51 168.575 91.5303 168.585C91.5506 168.596 91.5678 168.611 91.5801 168.631C91.5924 168.65 91.5994 168.672 91.6005 168.695L91.4784 185.991Z" fill="white"/>
<path d="M203.537 270.261L203.59 255.878C203.677 255.878 203.764 255.878 203.851 255.878L289.134 255.87C289.274 255.87 289.344 255.803 289.344 255.669L289.361 244.514C289.361 244.43 289.328 244.351 289.269 244.292C289.21 244.233 289.13 244.2 289.047 244.2L203.86 244.191C203.79 244.197 203.721 244.2 203.651 244.2L203.572 232.103C203.526 232.068 203.482 232.03 203.441 231.989H288.646C289.111 231.989 289.344 231.754 289.344 231.283L289.326 220.965C289.326 220.558 289.126 220.354 288.724 220.354L203.616 220.537C203.575 220.566 203.412 220.526 203.127 220.415C203.267 220.241 203.375 220.087 203.45 219.953C203.526 219.813 203.546 219.639 203.511 219.43C203.412 218.767 203.36 217.836 203.354 216.639C203.331 208.981 203.375 201.369 203.485 193.805L210.175 192.139C210.675 192.011 211.111 192.124 211.483 192.479L231.936 211.798C232.151 212.001 232.389 212.03 232.651 211.885C249.65 202.169 265.166 191.083 276.854 176.178C277.125 175.833 277.502 175.587 277.927 175.48L305.383 168.677C305.482 168.651 305.586 168.65 305.686 168.671C305.787 168.693 305.881 168.737 305.961 168.801C306.042 168.865 306.108 168.947 306.152 169.04C306.197 169.133 306.221 169.236 306.22 169.34C306.197 200.651 306.18 231.899 306.168 263.083C306.162 266.124 305.087 268.214 302.941 269.354C301.813 269.947 299.752 270.246 296.757 270.252C265.69 270.293 234.616 270.296 203.537 270.261Z" fill="#D3E9EF"/>
<path d="M203.485 193.804C203.375 201.369 203.331 208.98 203.354 216.638C203.36 217.836 203.412 218.766 203.511 219.429C203.546 219.638 203.526 219.813 203.45 219.952C203.375 220.086 203.267 220.24 203.127 220.415L163.329 220.406C163.103 220.4 162.989 220.513 162.989 220.746L162.98 231.64C162.98 231.948 163.135 232.102 163.443 232.102H203.572L203.651 244.199L163.574 244.208C163.184 244.208 162.989 244.403 162.989 244.792V255.294C162.989 255.677 163.181 255.869 163.565 255.869L203.59 255.878L203.537 270.26C172.371 270.295 141.199 270.292 110.021 270.252C106.98 270.246 104.869 269.848 103.689 269.057C101.735 267.754 100.755 265.867 100.75 263.396C100.721 231.765 100.721 200.564 100.75 169.793C100.75 169.56 100.863 169.47 101.09 169.522L128.948 176.142C129.496 176.272 129.99 176.582 130.352 177.023C138.51 186.896 148.255 195.563 159.588 203.023C164.297 206.122 168.978 209.056 173.63 211.824C173.854 211.954 174.114 212.008 174.37 211.978C174.627 211.948 174.866 211.836 175.052 211.658L195.243 192.382C195.381 192.249 195.552 192.152 195.738 192.102C195.924 192.051 196.12 192.049 196.307 192.095L203.485 193.804ZM152.13 220.737C152.13 220.661 152.1 220.588 152.046 220.534C151.992 220.48 151.919 220.449 151.843 220.449H117.478C117.402 220.449 117.329 220.48 117.275 220.534C117.221 220.588 117.19 220.661 117.19 220.737V231.832C117.19 231.908 117.221 231.981 117.275 232.035C117.329 232.089 117.402 232.119 117.478 232.119H151.843C151.919 232.119 151.992 232.089 152.046 232.035C152.1 231.981 152.13 231.908 152.13 231.832V220.737ZM152.165 244.566C152.165 244.48 152.131 244.398 152.071 244.337C152.01 244.277 151.928 244.243 151.843 244.243H117.513C117.428 244.243 117.345 244.277 117.285 244.337C117.224 244.398 117.19 244.48 117.19 244.566V255.573C117.19 255.658 117.224 255.74 117.285 255.801C117.345 255.861 117.428 255.895 117.513 255.895H151.843C151.928 255.895 152.01 255.861 152.071 255.801C152.131 255.74 152.165 255.658 152.165 255.573V244.566Z" fill="white"/>
<path d="M145.527 180.12L184.881 189.453C184.908 189.46 184.934 189.475 184.954 189.495C184.975 189.515 184.989 189.54 184.996 189.567C185.004 189.594 185.003 189.622 184.995 189.648C184.987 189.674 184.972 189.697 184.95 189.714L173.394 200.713C173.126 200.969 172.833 201.003 172.513 200.817C162.582 195.067 153.534 188.261 145.37 180.399C145.074 180.114 145.126 180.021 145.527 180.12Z" fill="white"/>
<path d="M233.863 200.949C233.666 201.065 233.482 201.042 233.314 200.879L221.932 189.968C221.647 189.689 221.699 189.503 222.089 189.41L260.831 180.156C261.395 180.022 261.468 180.156 261.05 180.557C253.188 188.127 244.126 194.925 233.863 200.949Z" fill="white"/>
<path d="M78.4825 181.541C78.5058 195.013 72.9529 204.881 61.8237 211.143C56.5847 214.091 50.6858 215.388 44.1269 215.033C31.358 214.344 20.6388 206.119 15.9377 194.022C15.8389 193.778 15.8592 193.766 15.9988 193.987C20.4818 201.011 26.4767 205.605 33.9833 207.768C39.5654 209.373 45.1736 209.326 50.8079 207.628C58.2332 205.395 64.1205 200.726 68.4698 193.621C69.2664 192.313 70.0281 190.536 70.7549 188.292C73.325 186.739 75.9009 184.489 78.4825 181.541Z" fill="#D3E9EF"/>
<path d="M351.094 211.528C349.49 212.215 347.888 213.378 346.289 215.017C345.666 215.651 345.196 215.68 344.876 215.104C339.904 200.835 329.851 192.218 314.715 189.253L314.628 183.636C314.622 183.316 314.779 183.133 315.099 183.086C326.961 181.359 338.544 187.072 345.312 196.326C348.597 200.815 350.525 205.883 351.094 211.528Z" fill="white"/>
<path d="M91.4783 185.99L91.5132 198.768C91.5133 199.269 91.3339 199.754 91.0073 200.137C86.658 205.283 81.358 209.205 75.1073 211.903C74.6886 212.083 74.6188 211.993 74.8979 211.633C75.6218 210.717 76.5115 209.967 77.2441 209.068C82.0179 203.172 85.0008 196.628 86.1928 189.435L91.4783 185.99Z" fill="#D3E9EF"/>
<path d="M314.715 189.252C329.851 192.217 339.904 200.835 344.876 215.104C346.44 220.535 346.806 226.396 345.975 232.687C345.033 236.414 343.983 239.493 342.826 241.924C342.21 243.214 340.771 245.63 338.509 249.171C336.511 251.116 334.497 253.323 332.421 254.911C327.159 258.94 321.21 261.484 314.576 262.542L314.619 254.701C326.999 251.968 334.811 244.514 338.055 232.338C338.561 230.419 338.773 227.62 338.692 223.939C337.541 210.359 328.06 199.5 314.611 197.145L314.715 189.252Z" fill="#7E3E12"/>
<path d="M314.611 197.146C328.06 199.501 337.541 210.36 338.692 223.94C331.383 228.528 323.347 231.142 314.584 231.781L314.611 197.146Z" fill="#E1762E"/>
<path d="M351.094 211.529C352.042 219.333 350.336 226.386 345.975 232.689C346.806 226.397 346.44 220.536 344.876 215.105C345.196 215.681 345.667 215.652 346.289 215.018C347.888 213.378 349.49 212.215 351.094 211.529Z" fill="#D3E9EF"/>
<path d="M151.843 220.449H117.478C117.319 220.449 117.19 220.578 117.19 220.737V231.831C117.19 231.99 117.319 232.119 117.478 232.119H151.843C152.002 232.119 152.13 231.99 152.13 231.831V220.737C152.13 220.578 152.002 220.449 151.843 220.449Z" fill="#0299ED"/>
<path d="M203.127 220.417C203.412 220.528 203.575 220.568 203.616 220.539L203.441 231.991C203.482 232.032 203.526 232.07 203.572 232.105H163.443C163.135 232.105 162.98 231.95 162.98 231.642L162.989 220.749C162.989 220.516 163.103 220.403 163.329 220.408L203.127 220.417Z" fill="#0299ED"/>
<path d="M203.441 231.991L203.616 220.539L288.724 220.355C289.125 220.355 289.326 220.559 289.326 220.966L289.343 231.284C289.343 231.755 289.111 231.991 288.646 231.991H203.441Z" fill="#036AAB"/>
<path d="M338.692 223.938C338.773 227.618 338.561 230.418 338.055 232.337C334.811 244.513 326.999 251.967 314.619 254.7L314.584 231.778C323.347 231.139 331.383 228.525 338.692 223.938Z" fill="#B95A1A"/>
<path d="M151.843 244.244H117.513C117.335 244.244 117.19 244.389 117.19 244.567V255.574C117.19 255.752 117.335 255.897 117.513 255.897H151.843C152.021 255.897 152.165 255.752 152.165 255.574V244.567C152.165 244.389 152.021 244.244 151.843 244.244Z" fill="#0299ED"/>
<path d="M203.651 244.2C203.72 244.2 203.79 244.197 203.86 244.191L203.851 255.879C203.764 255.879 203.677 255.879 203.59 255.879L163.565 255.87C163.181 255.87 162.989 255.678 162.989 255.294V244.793C162.989 244.404 163.184 244.209 163.573 244.209L203.651 244.2Z" fill="#0299ED"/>
<path d="M203.86 244.191L289.047 244.2C289.13 244.2 289.21 244.233 289.269 244.292C289.328 244.351 289.361 244.431 289.361 244.514L289.344 255.669C289.344 255.803 289.274 255.87 289.134 255.87L203.851 255.879L203.86 244.191Z" fill="#036AAB"/>
</svg>
