<svg xmlns="http://www.w3.org/2000/svg" xmlns:xlink="http://www.w3.org/1999/xlink" width="100" zoomAndPan="magnify" viewBox="0 0 75 37.5" height="50" preserveAspectRatio="xMidYMid meet" version="1.0"><defs><clipPath id="3f42a7d1e2"><path d="M 17 30 L 58 30 L 58 35.78125 L 17 35.78125 Z M 17 30 " clip-rule="nonzero"/></clipPath><clipPath id="54acdf1cda"><path d="M 14.960938 1 L 38 1 L 38 29 L 14.960938 29 Z M 14.960938 1 " clip-rule="nonzero"/></clipPath><clipPath id="1941672fe1"><path d="M 37 1 L 60.109375 1 L 60.109375 29 L 37 29 Z M 37 1 " clip-rule="nonzero"/></clipPath></defs><g clip-path="url(#3f42a7d1e2)"><path fill="#000000" d="M 23.144531 35.703125 L 23.144531 33.394531 C 23.144531 32.511719 22.601562 31.933594 21.671875 31.933594 C 21.207031 31.933594 20.699219 32.085938 20.351562 32.585938 C 20.082031 32.167969 19.691406 31.933594 19.109375 31.933594 C 18.71875 31.933594 18.332031 32.050781 18.023438 32.472656 L 18.023438 32.007812 L 17.210938 32.007812 L 17.210938 35.703125 L 18.023438 35.703125 L 18.023438 33.664062 C 18.023438 33.007812 18.371094 32.699219 18.914062 32.699219 C 19.457031 32.699219 19.726562 33.042969 19.726562 33.664062 L 19.726562 35.703125 L 20.542969 35.703125 L 20.542969 33.664062 C 20.542969 33.007812 20.929688 32.699219 21.429688 32.699219 C 21.972656 32.699219 22.246094 33.042969 22.246094 33.664062 L 22.246094 35.703125 Z M 35.207031 32.007812 L 33.890625 32.007812 L 33.890625 30.894531 L 33.074219 30.894531 L 33.074219 32.007812 L 32.339844 32.007812 L 32.339844 32.738281 L 33.074219 32.738281 L 33.074219 34.433594 C 33.074219 35.28125 33.421875 35.777344 34.355469 35.777344 C 34.703125 35.777344 35.089844 35.664062 35.363281 35.511719 L 35.125 34.816406 C 34.890625 34.96875 34.621094 35.007812 34.425781 35.007812 C 34.039062 35.007812 33.882812 34.773438 33.882812 34.394531 L 33.882812 32.738281 L 35.203125 32.738281 L 35.203125 32.007812 Z M 42.113281 31.929688 C 41.648438 31.929688 41.335938 32.160156 41.140625 32.464844 L 41.140625 32.003906 L 40.328125 32.003906 L 40.328125 35.699219 L 41.140625 35.699219 L 41.140625 33.617188 C 41.140625 33.003906 41.410156 32.65625 41.917969 32.65625 C 42.070312 32.65625 42.265625 32.695312 42.425781 32.730469 L 42.660156 31.960938 C 42.496094 31.929688 42.265625 31.929688 42.113281 31.929688 Z M 31.679688 32.3125 C 31.289062 32.046875 30.75 31.929688 30.164062 31.929688 C 29.234375 31.929688 28.617188 32.390625 28.617188 33.121094 C 28.617188 33.734375 29.082031 34.085938 29.894531 34.195312 L 30.28125 34.238281 C 30.707031 34.3125 30.941406 34.429688 30.941406 34.621094 C 30.941406 34.890625 30.632812 35.085938 30.089844 35.085938 C 29.546875 35.085938 29.117188 34.890625 28.847656 34.699219 L 28.457031 35.3125 C 28.882812 35.621094 29.464844 35.773438 30.046875 35.773438 C 31.132812 35.773438 31.757812 35.273438 31.757812 34.582031 C 31.757812 33.929688 31.25 33.582031 30.476562 33.464844 L 30.089844 33.425781 C 29.742188 33.386719 29.46875 33.308594 29.46875 33.082031 C 29.46875 32.8125 29.742188 32.660156 30.171875 32.660156 C 30.636719 32.660156 31.101562 32.851562 31.335938 32.96875 Z M 53.316406 31.929688 C 52.851562 31.929688 52.539062 32.160156 52.347656 32.464844 L 52.347656 32.003906 L 51.535156 32.003906 L 51.535156 35.699219 L 52.347656 35.699219 L 52.347656 33.617188 C 52.347656 33.003906 52.617188 32.65625 53.125 32.65625 C 53.277344 32.65625 53.472656 32.695312 53.628906 32.730469 L 53.863281 31.96875 C 53.707031 31.929688 53.476562 31.929688 53.316406 31.929688 Z M 42.925781 33.855469 C 42.925781 34.972656 43.703125 35.777344 44.90625 35.777344 C 45.445312 35.777344 45.835938 35.664062 46.222656 35.359375 L 45.835938 34.703125 C 45.523438 34.9375 45.214844 35.046875 44.863281 35.046875 C 44.203125 35.046875 43.738281 34.585938 43.738281 33.855469 C 43.738281 33.160156 44.203125 32.699219 44.863281 32.664062 C 45.210938 32.664062 45.523438 32.78125 45.835938 33.007812 L 46.222656 32.355469 C 45.835938 32.046875 45.445312 31.933594 44.90625 31.933594 C 43.703125 31.929688 42.925781 32.738281 42.925781 33.855469 Z M 50.449219 33.855469 L 50.449219 32.007812 L 49.636719 32.007812 L 49.636719 32.472656 C 49.363281 32.125 48.976562 31.933594 48.46875 31.933594 C 47.421875 31.933594 46.609375 32.738281 46.609375 33.855469 C 46.609375 34.972656 47.421875 35.777344 48.46875 35.777344 C 49.011719 35.777344 49.402344 35.585938 49.636719 35.242188 L 49.636719 35.703125 L 50.449219 35.703125 Z M 47.460938 33.855469 C 47.460938 33.203125 47.886719 32.664062 48.585938 32.664062 C 49.246094 32.664062 49.710938 33.164062 49.710938 33.855469 C 49.710938 34.511719 49.246094 35.046875 48.585938 35.046875 C 47.890625 35.007812 47.460938 34.507812 47.460938 33.855469 Z M 37.730469 31.929688 C 36.644531 31.929688 35.867188 32.699219 35.867188 33.851562 C 35.867188 35.007812 36.644531 35.773438 37.769531 35.773438 C 38.3125 35.773438 38.855469 35.621094 39.285156 35.273438 L 38.894531 34.695312 C 38.582031 34.925781 38.195312 35.078125 37.8125 35.078125 C 37.304688 35.078125 36.804688 34.847656 36.6875 34.195312 L 39.4375 34.195312 C 39.4375 34.082031 39.4375 34.003906 39.4375 33.886719 C 39.472656 32.699219 38.773438 31.929688 37.730469 31.929688 Z M 37.730469 32.625 C 38.234375 32.625 38.582031 32.933594 38.660156 33.507812 L 36.722656 33.507812 C 36.796875 33.007812 37.148438 32.625 37.730469 32.625 Z M 57.9375 33.855469 L 57.9375 30.546875 L 57.121094 30.546875 L 57.121094 32.472656 C 56.851562 32.125 56.460938 31.933594 55.957031 31.933594 C 54.910156 31.933594 54.09375 32.738281 54.09375 33.855469 C 54.09375 34.972656 54.910156 35.777344 55.957031 35.777344 C 56.5 35.777344 56.886719 35.585938 57.121094 35.242188 L 57.121094 35.703125 L 57.9375 35.703125 Z M 54.949219 33.855469 C 54.949219 33.203125 55.375 32.664062 56.074219 32.664062 C 56.734375 32.664062 57.199219 33.164062 57.199219 33.855469 C 57.199219 34.511719 56.734375 35.046875 56.074219 35.046875 C 55.375 35.007812 54.949219 34.507812 54.949219 33.855469 Z M 27.722656 33.855469 L 27.722656 32.007812 L 26.90625 32.007812 L 26.90625 32.472656 C 26.636719 32.125 26.25 31.933594 25.742188 31.933594 C 24.695312 31.933594 23.878906 32.738281 23.878906 33.855469 C 23.878906 34.972656 24.695312 35.777344 25.742188 35.777344 C 26.285156 35.777344 26.671875 35.585938 26.90625 35.242188 L 26.90625 35.703125 L 27.722656 35.703125 Z M 24.699219 33.855469 C 24.699219 33.203125 25.125 32.664062 25.824219 32.664062 C 26.484375 32.664062 26.949219 33.164062 26.949219 33.855469 C 26.949219 34.511719 26.484375 35.046875 25.824219 35.046875 C 25.125 35.007812 24.699219 34.507812 24.699219 33.855469 Z M 24.699219 33.855469 " fill-opacity="1" fill-rule="nonzero"/></g><path fill="#ff5a00" d="M 31.410156 3.960938 L 43.625 3.960938 L 43.625 25.734375 L 31.410156 25.734375 Z M 31.410156 3.960938 " fill-opacity="1" fill-rule="nonzero"/><g clip-path="url(#54acdf1cda)"><path fill="#eb001b" d="M 32.222656 14.847656 C 32.222656 10.425781 34.316406 6.496094 37.535156 3.960938 C 35.167969 2.113281 32.179688 1 28.921875 1 C 21.207031 1 14.960938 7.191406 14.960938 14.847656 C 14.960938 22.503906 21.207031 28.699219 28.921875 28.699219 C 32.179688 28.699219 35.167969 27.582031 37.535156 25.734375 C 34.3125 23.234375 32.222656 19.273438 32.222656 14.847656 Z M 32.222656 14.847656 " fill-opacity="1" fill-rule="nonzero"/></g><g clip-path="url(#1941672fe1)"><path fill="#f79e1b" d="M 60.109375 14.847656 C 60.109375 22.503906 53.863281 28.699219 46.148438 28.699219 C 42.890625 28.699219 39.902344 27.582031 37.535156 25.734375 C 40.792969 23.195312 42.847656 19.273438 42.847656 14.847656 C 42.847656 10.425781 40.753906 6.496094 37.535156 3.960938 C 39.898438 2.113281 42.886719 1 46.144531 1 C 53.863281 1 60.109375 7.234375 60.109375 14.847656 Z M 60.109375 14.847656 " fill-opacity="1" fill-rule="nonzero"/></g></svg>