<?xml version="1.0" encoding="utf-8" ?>
<svg xmlns="http://www.w3.org/2000/svg" xmlns:xlink="http://www.w3.org/1999/xlink" width="674" height="234">
	<path fill="#194F92" d="M116.29 134.985C117.091 135.03 118.059 135.044 118.82 135.299C120.819 135.968 133.819 149.4 134.681 151.412C134.972 152.09 134.798 152.629 134.549 153.286C133.383 156.363 121.45 168.586 118.404 170C117.634 169.994 116.836 169.945 116.096 169.717C112.345 168.564 100.863 156.126 98.9384 152.554Q99.3283 151.704 99.7909 150.892C101.723 147.463 112.746 135.948 116.29 134.985Z"/>
	<path fill="#194F92" d="M563.998 125.557C567.067 124.824 576.069 124.647 578.908 125.892C579.3 126.064 580.04 126.495 580.19 126.904C581.358 130.069 580.669 183.735 580.664 192.196C580.661 197.479 580.948 202.844 580.84 208.11C580.823 208.909 580.763 209.901 580.408 210.622C579.992 211.466 579.482 211.468 578.64 211.731C576.102 212.34 565.059 212.344 562.745 211.185Q562.644 210.773 562.586 210.352C561.911 205.158 562.327 199.514 562.334 194.261L562.336 165.703L562.329 140.015C562.328 136.246 561.917 131.956 562.383 128.251C562.514 127.213 563.379 126.361 563.998 125.557Z"/>
	<path fill="#194F92" d="M465.979 21.5568C470.314 20.5419 477.481 21.2067 482.081 21.3221C483.194 22.343 483.569 23.3619 483.673 24.848C483.978 29.2019 483.724 33.729 483.725 38.0987L483.732 64.2415L483.734 89.673C483.733 94.4121 483.961 99.291 483.573 104.011C483.46 105.395 483.26 106.378 482.318 107.456C482.214 107.496 482.108 107.534 482.001 107.566C479.873 108.207 467.472 108.03 465.605 107.074C465.124 101.901 465.28 96.6582 465.277 91.4671L465.27 68.3331L465.271 40.1122C465.269 34.869 465.071 29.5305 465.346 24.3003C465.398 23.317 465.573 22.4581 465.979 21.5568Z"/>
	<path fill="#194F92" d="M468.938 125.557C471.669 124.982 481.04 124.711 483.593 125.527C484.771 125.904 485.709 126.623 486.26 127.746C486.659 128.557 486.823 129.494 486.857 130.392C486.977 133.528 486.683 136.743 486.67 139.889L486.703 161.396C486.694 176.017 487.093 190.742 486.749 205.351C486.713 206.862 486.765 208.958 486.191 210.368C485.817 211.287 485.374 211.39 484.518 211.738C481.988 212.18 470.811 212.498 468.706 211.142C467.905 206.562 468.143 201.748 468.14 197.112L468.141 178.196L468.116 147.363C468.112 141.527 467.939 135.63 468.217 129.803C468.287 128.339 468.374 126.929 468.938 125.557Z"/>
	<path fill="#194F92" d="M499.913 125.557Q500.275 125.485 500.64 125.431C502.772 125.12 514.567 124.734 515.899 125.816C516.544 126.34 516.678 128.484 516.733 129.295C517.051 134.013 516.787 138.913 516.777 143.648L516.722 174.249C516.716 179.605 516.483 185.059 516.784 190.398C516.846 191.497 517.217 194.213 518.212 194.848C520.623 196.386 545.384 194.32 550.941 195.438C551.862 195.624 552.688 196.027 553.379 196.663C553.417 196.698 553.453 196.734 553.49 196.77C554.131 200.014 554.415 206.548 553.691 209.751C553.455 210.795 553.221 210.898 552.37 211.456C551.943 211.733 551.435 211.749 550.94 211.802C548.217 212.093 545.322 211.898 542.574 211.897L527.369 211.904L510.102 211.907C507.344 211.909 504.44 212.107 501.702 211.885C500.778 211.811 500.382 211.569 499.685 211.008C498.846 207.239 499.258 202.761 499.255 198.888L499.253 179.826L499.253 146.6C499.251 140.619 499.043 134.567 499.319 128.598C499.368 127.538 499.559 126.557 499.913 125.557Z"/>
	<path fill="#194F92" d="M388.968 125.557C392.647 124.895 454.843 124.891 457.605 125.593C458.619 126.441 459.224 127.545 459.52 128.834C460.212 131.86 460.35 139.769 458.611 142.341C458.109 143.083 457.588 143.428 456.721 143.65C451.419 145.008 440.338 142.614 434.778 143.948C434.075 144.116 433.46 144.362 433.161 145.05C432.076 147.549 432.643 152.145 432.653 154.923C432.672 159.662 433.42 185.037 432.139 187.101C432.389 187.471 432.566 187.855 432.628 188.301C433.209 192.458 433.236 208.979 431.115 211.723C427.839 212.136 418.048 212.512 415.141 211.55C413.161 208.093 414.129 166.182 414.13 159.068C414.131 155.22 414.533 150.709 413.947 146.939C412.845 139.857 392.752 146.509 387.935 142.946C386.772 141.287 386.825 130.608 387.222 128.298C387.465 126.888 387.796 126.378 388.968 125.557Z"/>
	<path fill="#194F92" d="M496.982 21.5569C501.704 20.557 515.787 21.2449 521.292 21.2638C529.951 21.2936 538.777 20.8569 547.413 21.1795C548.232 21.2101 548.965 21.3253 549.739 21.6102C549.94 21.8564 550.108 22.1165 550.222 22.4146C551.442 25.5912 551.421 34.1233 550.033 37.2385C548.583 38.4747 522.961 37.472 518.776 37.7912C517.637 37.878 515.59 38.0166 514.837 38.9577C513.538 40.5802 513.71 50.063 513.941 52.4614C514.078 53.8832 514.529 54.9231 515.831 55.6219C521.025 58.4098 539.697 53.8562 544.27 57.6134C544.394 57.9448 544.502 58.2815 544.569 58.6293C545.028 61.0035 545.199 70.1207 543.932 71.9117L543.671 72.4554C540.433 73.676 525.182 72.6484 520.54 72.8843C519.089 72.9581 516.05 73.1372 515.006 74.2829C511.634 77.9836 516.304 103.308 512.862 107.135C509.406 108.343 501.376 108.065 497.646 107.542C497.143 107.178 496.86 107.01 496.621 106.403C495.971 104.754 495.996 32.3772 496.254 25.3159C496.303 23.967 496.444 22.8046 496.982 21.5569Z"/>
	<path fill="#194F92" d="M285.897 78.8252C288.395 76.4937 297.876 41.7357 299.594 35.937C300.79 31.9026 301.779 25.8878 304.301 22.5909C304.988 21.6937 305.918 21.4627 306.994 21.319C309.922 20.928 319.504 20.5397 321.662 22.2944C322.268 22.7875 322.727 23.4981 322.796 24.2875C322.971 26.2916 317.264 45.0439 315.996 46.5882C316.033 46.7719 316.059 46.9259 316.05 47.1142C315.913 49.7674 310.736 63.5911 309.574 67.1467C305.471 79.696 302.024 92.6544 297.212 104.954C296.81 105.981 296.408 106.856 295.542 107.584C293.061 107.995 279.354 108.24 277.764 107.084C276.876 106.438 275.798 102.97 275.413 101.854C274.151 98.1949 273.177 94.4203 271.986 90.734L260.492 55.205C258.306 48.5014 251.733 31.1483 251.199 25.5378C251.036 23.8222 252.003 22.7973 253.031 21.5533C256.172 21.0095 265.399 20.6909 268.319 21.5011C269.21 21.7482 269.475 22.1716 269.905 22.9657C273.179 29.0089 275.381 39.9154 277.429 46.8386Q280.444 56.7492 283.266 66.7166C284.224 70.076 285.368 73.4976 286.022 76.9255C286.147 77.5851 286.089 78.1822 285.897 78.8252Z"/>
	<path fill="#194F92" d="M352.989 125.556C356.683 124.875 367.93 124.532 370.928 126.4C371.789 127.581 372.268 129.129 372.755 130.502C379.148 148.529 384.486 166.984 390.333 185.194C391.824 189.839 397.594 204.884 397.674 208.48C397.701 209.701 396.985 210.814 396.172 211.667C391.916 212.24 386.9 212.165 382.606 211.946C381.499 211.889 380.042 211.785 379.11 211.137C375.172 208.398 376.523 198.529 372.941 194.739C371.98 193.722 371.095 193.812 369.828 193.777C363.406 193.791 356.892 193.531 350.484 193.9C350.434 194.44 345.859 208.454 345.3 209.82C345.001 210.551 344.67 211.173 344.086 211.722C341.179 212.155 328.875 212.505 326.806 211.049C326.4 210.763 326.122 209.855 326.06 209.377C325.863 207.869 326.286 206.29 326.677 204.846C328.228 199.116 330.344 193.478 332.192 187.833L340.914 160.765C343.009 154.344 349.704 129.994 352.989 125.556ZM361.296 155.505C361.311 157.83 355.875 176.024 354.756 177.296L361.929 177.257C363.947 177.263 366.208 177.067 368.188 177.432C368.557 175.213 363.225 158.633 361.966 155.904L361.296 155.505Z"/>
	<path fill="#194F92" d="M339.117 21.5563C343.184 20.6888 353.082 20.9463 357.416 21.4284C357.56 21.545 357.7 21.6667 357.827 21.8026C358.928 22.978 384.684 102.702 384.616 104.657C384.588 105.474 384.29 106.108 383.683 106.657C383.074 107.209 382.381 107.542 381.572 107.69C379.429 108.083 370.722 107.891 368.354 107.783C362.016 107.495 363.579 94.392 359.836 90.5067C358.915 89.5514 358.028 89.6843 356.828 89.6868C351.399 89.6607 345.909 89.4734 340.486 89.6832C339.616 89.7169 338.166 89.7335 337.55 90.4163C337.52 90.4495 337.491 90.4839 337.461 90.5173C333.788 94.6168 334.806 103.812 330.902 107.169C328.935 107.931 316.595 108.219 314.599 107.495C313.9 107.242 313.042 106.262 312.749 105.595C312.283 104.539 312.728 103.307 313.009 102.238C315.439 92.9869 319.027 84.0313 321.838 74.8908C324.755 65.407 327.958 56.0316 330.92 46.5668C333.533 38.2188 335.865 29.6817 339.117 21.5563ZM348.196 50.846L348.175 51.069C347.778 55.0187 341.691 71.6791 342.104 73.1264C344.213 73.1905 346.327 73.1109 348.436 73.0628C350.615 73.0595 352.89 72.9146 355.057 73.0836C355.366 70.9978 350.012 54.3682 348.894 51.2734L348.196 50.846Z"/>
	<path fill="#194F92" d="M452.561 21.2278C454.324 21.2078 456.051 20.9924 457.473 22.2201C457.873 22.9218 458.012 23.3611 457.959 24.1768C457.87 25.5472 447.511 36.9532 445.976 38.7447C441.162 44.3654 436.244 49.928 431.564 55.6599C429.879 57.724 428.276 60.7994 426.343 62.496Q426.533 62.638 426.707 62.7981C427.79 63.7931 430.904 68.9808 432.195 70.6305C439.35 79.7733 446.805 88.6677 454.035 97.7495C455.453 99.5313 458.233 102.294 458.884 104.416C458.952 104.638 458.986 104.892 458.993 105.125C459.024 106.079 458.81 106.475 458.178 107.135C454.447 108.511 443.534 107.852 439.148 107.585C438.856 106.657 414.809 77.6464 413.63 76.8485C413.531 78.3088 409.678 81.4072 408.981 83.262C408.015 85.831 409.649 89.2673 408.134 91.6567C408.393 92.0724 408.59 92.4891 408.647 92.9807C409.074 96.6689 409.514 104.719 407.235 107.631C404.362 107.83 392.89 108.491 390.936 107.184C390.518 105.455 390.352 103.734 390.298 101.958C389.76 84.3757 390.29 66.6283 390.289 49.0282C390.289 43.62 389.605 26.7719 390.605 22.869C390.688 22.5454 390.811 22.0134 391.104 21.8389C392.8 20.8308 405.363 20.9263 407.525 21.4654C407.708 21.6491 407.881 21.855 407.965 22.1043C408.93 24.9406 409.39 52.7868 408.372 54.8447C408.343 54.9034 408.311 54.9607 408.281 55.0188C408.977 54.6604 409.675 54.2257 410.201 53.6376C417.24 45.7574 423.789 37.2704 430.566 29.1548C431.915 27.5391 436.449 22.8637 437.202 21.409C442.258 20.9817 447.484 21.2346 452.561 21.2278Z"/>
	<path fill="#194F92" d="M304.744 125.295C308.001 125.263 320.009 124.455 322.473 125.593C323.118 125.891 323.551 126.324 323.781 127.005C324.171 128.156 323.504 129.699 322.915 130.677C320.853 134.101 317.347 137.363 314.711 140.409L300.827 156.682C298.673 159.172 295.775 161.903 294.295 164.838C293.915 165.592 293.505 166.561 293.663 167.42C294.376 171.291 306.941 185.075 309.942 188.791C310.916 189.997 312.713 191.737 313.151 193.213C313.165 193.259 313.175 193.307 313.187 193.354C313.658 193.677 314.021 194.1 314.397 194.524C316.882 197.332 325.903 207.449 325.637 210.829C325.601 211.298 325.476 211.335 325.134 211.63C320.974 212.457 309.531 212.124 305.066 211.537C305.061 211.506 305.059 211.475 305.051 211.446C304.733 210.288 281.682 182.222 279.707 180.839C279.588 183.33 275.929 185.345 275.315 187.843C273.825 193.91 275.317 201.547 275.223 207.795C275.207 208.869 274.885 210.004 274.076 210.75C271.572 213.063 260.984 211.9 257.483 211.738C257.464 211.146 256.762 210.021 256.555 209.4C255.709 206.867 256.322 173.607 256.325 168.384C256.334 155.857 255.846 143.159 256.348 130.651C256.394 129.526 256.451 128.506 256.99 127.493C257.326 126.861 257.605 126.202 257.91 125.554C260.641 124.93 271.633 124.667 274.021 125.953C275.78 128.783 274.939 146.831 274.929 151.188C274.925 153.198 274.65 155.748 275.123 157.691C275.253 158.223 275.288 158.234 275.739 158.509C278.045 156.788 279.951 153.859 281.841 151.663C288.921 143.434 296.896 132.369 304.744 125.295Z"/>
	<path fill="#194F92" d="M659.033 125.346C662.362 125.268 668.848 124.214 671.83 125.791C672.862 126.336 673.284 127.243 673.637 128.301L673.902 128.301C674.177 134.219 674.009 140.196 674.006 146.121L674.003 176.613L674.011 197.581C674.013 201.337 674.241 205.256 673.892 208.986L673.57 208.986C673.159 210.099 672.84 210.879 671.924 211.687C668.928 212.185 659.003 212.435 656.339 211.502C655.587 210.819 655.48 209.542 655.375 208.575C654.966 204.8 655.233 200.768 655.238 196.959L655.272 175.223C655.276 171.896 655.924 166.93 654.671 163.868C654.718 164.417 654.658 164.957 654.422 165.459C651.727 171.201 647.75 176.749 644.415 182.17C641.991 186.112 639.81 190.361 637.158 194.139C636.512 195.06 636.121 195.54 634.979 195.722C634.009 195.877 632.286 195.926 631.481 195.262C629.676 193.775 628.258 190.434 627.042 188.366C624.487 184.023 614.368 165.987 611.594 164.064C611.565 164.045 611.536 164.026 611.507 164.006C611.86 164.588 612.301 165.273 612.448 165.944C613.25 169.597 613.069 204.127 612.506 208.765C612.37 209.89 611.988 210.74 611.383 211.686C608.405 212.141 597.023 212.503 594.903 211.048C594.378 209.958 594.294 208.751 594.256 207.558C593.81 193.735 594.291 179.743 594.282 165.9L594.273 141.833C594.273 137.009 593.535 130.616 594.814 125.955C596.36 124.514 604.744 125.274 606.999 125.328C607.891 125.769 608.592 126.251 609.21 127.04C612.988 131.861 617.86 141.972 621.122 147.818C624.664 154.167 629.942 162.486 632.755 168.897C632.975 169.397 633.005 169.843 632.937 170.381C633.455 170.001 633.812 169.564 634.151 169.023C640.379 159.092 645.86 148.509 651.612 138.286L656.873 128.994C657.567 127.784 658.498 126.629 659.033 125.346ZM673.637 128.301C673.974 146.56 673.549 164.91 673.568 183.18L673.62 200.63C673.635 203.326 673.969 206.336 673.57 208.986L673.892 208.986C674.241 205.256 674.013 201.337 674.011 197.581L674.003 176.613L674.006 146.121C674.009 140.196 674.177 134.219 673.902 128.301L673.637 128.301Z"/>
	<path fill="#194F92" fill-opacity="0.34509805" d="M673.637 128.301L673.902 128.301C674.177 134.219 674.009 140.196 674.006 146.121L674.003 176.613L674.011 197.581C674.013 201.337 674.241 205.256 673.892 208.986L673.57 208.986C673.969 206.336 673.635 203.326 673.62 200.63L673.568 183.18C673.549 164.91 673.974 146.56 673.637 128.301Z"/>
	<path fill="#E61994" d="M115.911 0L118.493 0C119.861 0.578338 121.429 1.12522 122.684 1.91977C125.367 3.61916 127.833 6.61091 130.083 8.85932L142.782 21.5801L155.558 34.3143C158.04 36.7887 160.713 39.2201 162.949 41.9168Q163.61 42.7037 164.066 43.6241Q164.522 44.5445 164.749 45.5466C165.365 48.3165 164.938 51.7153 163.388 54.1152C161.186 57.5267 127.792 91.0808 124.112 93.8281C121.843 95.5216 119.494 96.2378 116.761 96.8418C115.406 96.4982 114.07 96.1322 112.795 95.5516C111.35 94.8939 110.166 94.0045 108.98 92.9562C102.761 87.4587 97.0048 81.0681 91.1203 75.1992C84.712 68.808 77.7764 62.5715 71.8761 55.7367C70.9129 54.621 70.0822 53.4611 69.576 52.0671C68.6253 49.4494 68.8537 46.0334 70.0634 43.5358C71.364 40.8506 105.765 6.53228 109.968 3.09945C111.77 1.62788 113.721 0.734531 115.911 0ZM115.775 31.6019C111.192 35.5661 103.188 43.3269 99.4729 47.9779C100.818 50.6088 113.682 64.6337 116.359 65.463C116.868 65.6207 117.481 65.594 118.009 65.5693C123.198 61.0349 130.935 53.6832 134.723 48.0764C132.395 45.4417 119.915 31.7352 117.287 31.5425C116.802 31.5069 116.258 31.5518 115.775 31.6019Z"/>
	<path fill="#194F92" d="M0 116.511C0.743359 113.694 1.87365 111.595 3.69554 109.314C8.15365 103.734 16.3898 96.4867 21.6715 91.2288C26.2524 86.6687 38.415 73.1775 43.1851 70.3984C45.7578 68.8995 48.8902 68.6687 51.7496 69.4394C52.977 69.7702 54.0686 70.3507 55.0462 71.163C61.1119 76.2028 66.6066 82.5496 72.1958 88.1397C76.7142 92.6588 92.8236 107.638 95.3807 112.157C96.6535 114.407 97.1361 116.9 96.4057 119.416C94.0856 127.406 75.0947 140.524 70.048 148.557C69.4111 149.571 69.0925 150.934 68.7538 152.077C69.4323 153.603 70.1082 155.498 71.1627 156.789C76.4886 163.311 83.3072 169.205 89.2772 175.162C94.98 180.852 108.449 195.663 114.605 199.22C115.71 199.858 118.008 199.439 119.206 199.104C120.651 198.701 121.594 198.024 122.701 197.047C125.733 194.372 128.53 191.321 131.388 188.458L146.615 173.229C149.863 169.981 162.465 158.313 164.128 155.299C164.758 154.158 165.109 152.624 165.509 151.378C161.438 141.4 140.867 128.639 137.649 119.58C136.912 117.505 137.165 115.487 138.011 113.498C138.697 111.884 139.691 110.422 140.841 109.104C146.527 102.584 153.199 96.5781 159.34 90.4547C165.407 84.4049 171.318 77.904 177.687 72.1882C178.76 71.2249 179.803 70.3197 181.156 69.7758C183.034 69.0214 187.234 68.5523 189.027 69.3108C189.25 69.4049 189.448 69.5337 189.653 69.6592C194.117 72.3892 197.666 76.5635 201.331 80.2522L213.065 91.9793C218.6 97.5038 224.642 102.915 229.771 108.789C231.097 110.307 233.139 112.707 233.669 114.674C234.33 117.125 233.373 120.207 232.098 122.301C229.034 127.333 223.464 131.622 219.289 135.811L192.842 162.303L147.594 207.539C140.377 214.754 133.35 222.552 125.775 229.364C123.449 231.456 120.992 233.058 118.001 234L115.238 234L0 234L0 117.358L0 116.511ZM0 117.358L0 234L115.238 234C114.422 233.624 113.6 233.236 112.829 232.774C107.667 229.679 98.0086 218.882 93.3474 214.22L55.3419 176.209L20.8353 141.7C15.1821 136.049 9.02253 130.542 3.74171 124.562C1.76211 122.321 0.725352 120.245 0 117.358ZM185.555 99.638C182.237 101.615 169.42 113.532 168.582 116.86C168.441 117.418 168.692 117.988 168.985 118.469C170.416 120.824 183.414 133.567 185.599 134.36C188.736 132.421 201.577 120.329 202.526 117.494C202.054 113.988 190.005 102.415 186.78 99.99C186.405 99.7082 186.013 99.6561 185.555 99.638ZM48.5403 99.3436C45.8711 100.799 32.4262 114.081 31.45 116.536C31.3087 117.49 31.9869 118.373 32.5316 119.102C35.1324 122.583 44.7204 132.062 48.4072 134.424C51.7952 132.361 64.2127 120.659 65.4897 117.49C65.2708 114.202 53.1567 103.05 50.1312 100.395C49.6261 99.9515 49.1863 99.573 48.5403 99.3436Z"/>
</svg>
