<svg xmlns="http://www.w3.org/2000/svg" xmlns:xlink="http://www.w3.org/1999/xlink" width="100" zoomAndPan="magnify" viewBox="0 0 75 37.5" height="50" preserveAspectRatio="xMidYMid meet" version="1.0"><defs><clipPath id="b56bcd0590"><path d="M 27 8 L 37 8 L 37 29.929688 L 27 29.929688 Z M 27 8 " clip-rule="nonzero"/></clipPath><clipPath id="9d2cbf887b"><path d="M 36 7.726562 L 54 7.726562 L 54 29.929688 L 36 29.929688 Z M 36 7.726562 " clip-rule="nonzero"/></clipPath><clipPath id="20f8c8d2b0"><path d="M 52 8 L 72.582031 8 L 72.582031 29.929688 L 52 29.929688 Z M 52 8 " clip-rule="nonzero"/></clipPath><clipPath id="ce1a7e11fc"><path d="M 8 8 L 29 8 L 29 29.929688 L 8 29.929688 Z M 8 8 " clip-rule="nonzero"/></clipPath><clipPath id="742a4a8f2a"><path d="M 3.011719 8 L 17 8 L 17 20 L 3.011719 20 Z M 3.011719 8 " clip-rule="nonzero"/></clipPath></defs><g clip-path="url(#b56bcd0590)"><path fill="#00579f" d="M 33.15625 29.597656 L 27.523438 29.597656 L 31.046875 8.125 L 36.683594 8.125 Z M 33.15625 29.597656 " fill-opacity="1" fill-rule="nonzero"/></g><g clip-path="url(#9d2cbf887b)"><path fill="#00579f" d="M 53.589844 8.652344 C 52.476562 8.214844 50.714844 7.738281 48.535156 7.738281 C 42.96875 7.738281 39.046875 10.660156 39.023438 14.839844 C 38.976562 17.925781 41.832031 19.636719 43.964844 20.664062 C 46.144531 21.714844 46.886719 22.402344 46.886719 23.339844 C 46.863281 24.777344 45.125 25.441406 43.5 25.441406 C 41.25 25.441406 40.046875 25.097656 38.214844 24.296875 L 37.472656 23.957031 L 36.683594 28.777344 C 38.003906 29.367188 40.4375 29.894531 42.96875 29.917969 C 48.882812 29.917969 52.730469 27.039062 52.777344 22.585938 C 52.800781 20.140625 51.292969 18.269531 48.046875 16.738281 C 46.074219 15.753906 44.867188 15.09375 44.867188 14.085938 C 44.890625 13.171875 45.890625 12.238281 48.113281 12.238281 C 49.945312 12.191406 51.292969 12.625 52.3125 13.058594 L 52.820312 13.289062 Z M 53.589844 8.652344 " fill-opacity="1" fill-rule="nonzero"/></g><g clip-path="url(#20f8c8d2b0)"><path fill="#00579f" d="M 61.078125 21.992188 C 61.542969 20.757812 63.328125 15.984375 63.328125 15.984375 C 63.304688 16.03125 63.792969 14.726562 64.070312 13.925781 L 64.464844 15.777344 C 64.464844 15.777344 65.53125 20.917969 65.761719 21.992188 C 64.882812 21.992188 62.191406 21.992188 61.078125 21.992188 Z M 68.035156 8.125 L 63.675781 8.125 C 62.332031 8.125 61.308594 8.515625 60.730469 9.90625 L 52.359375 29.597656 L 58.273438 29.597656 C 58.273438 29.597656 59.246094 26.949219 59.457031 26.378906 C 60.105469 26.378906 65.855469 26.378906 66.691406 26.378906 C 66.851562 27.132812 67.363281 29.597656 67.363281 29.597656 L 72.582031 29.597656 Z M 68.035156 8.125 " fill-opacity="1" fill-rule="nonzero"/></g><g clip-path="url(#ce1a7e11fc)"><path fill="#00579f" d="M 22.816406 8.125 L 17.296875 22.769531 L 16.691406 19.796875 C 15.671875 16.371094 12.472656 12.648438 8.898438 10.796875 L 13.957031 29.574219 L 19.914062 29.574219 L 28.773438 8.125 Z M 22.816406 8.125 " fill-opacity="1" fill-rule="nonzero"/></g><g clip-path="url(#742a4a8f2a)"><path fill="#faa61a" d="M 12.171875 8.125 L 3.101562 8.125 L 3.011719 8.558594 C 10.082031 10.339844 14.765625 14.636719 16.691406 19.800781 L 14.722656 9.929688 C 14.398438 8.558594 13.398438 8.171875 12.171875 8.125 Z M 12.171875 8.125 " fill-opacity="1" fill-rule="nonzero"/></g></svg>