<svg height="28" viewBox="0 0 197 28" width="197"
    xmlns="http://www.w3.org/2000/svg"
    xmlns:xlink="http://www.w3.org/1999/xlink">
    <g fill="#000" fill-rule="evenodd">
        <g transform="translate(0 1)">
            <path class="logo-color" d="m20.7087656 15.9839943c3.6219746 1.2231649 4.4435954 1.2892177 4.4435954 1.2892177v-13.15329907c0-2.24508252-1.8019585-4.06414821-4.0277954-4.06414821h-17.09532084c-2.22631211 0-4.029221 1.81906569-4.029221 4.06414821v17.23978167c0 2.2436569 1.80290889 4.063673 4.029221 4.063673h17.09532084c2.2258369 0 4.0277954-1.8200161 4.0277954-4.063673v-.16632s-6.5420787-2.7502202-9.8459069-4.3528322c-2.2158577 2.7499825-5.0741858 4.4184098-8.04133478 4.4184098-5.01858745 0-6.72265473-4.4286266-4.34641701-7.3449292.51820562-.63558 1.39946407-1.2421728 2.76708973-1.5824161 2.13958811-.5300856 5.54558426.3309769 8.73726526 1.3928113.5735664-1.0665864 1.0568448-2.2405681 1.4168088-3.4915322h-9.83640284v-1.00528562h5.07180984v-1.80100809h-6.14243549v-1.00504805h6.14243549v-2.56964413s0-.43290722.434808-.43290722h2.4791186v3.00255135h6.0730563v1.00504805h-6.0730563v1.80100809h4.9575242c-.4742496 1.96020012-1.1953657 3.76405942-2.0991961 5.34790102 1.5042457.5488561 2.8552393 1.0687249 3.8612378 1.4084929" transform="translate(0 .181764)"></path>
            <path class="logo-color" d="m6.11351958 14.0176166c-.62868963.0632016-1.80789849.343332-2.45322012.9180865-1.93382649 1.7005032-.77695204 4.8092618 3.13632016 4.8092618 2.27406971 0 4.54742658-1.4664673 6.33227788-3.8146682-2.5392313-1.2500136-4.690937-2.1445777-7.01537792-1.9126801"></path>
            <path class="logo-color" d="m54.6161881 3.9511694c0 1.31226486.9589536 2.19566171 2.2966417 2.19566171s2.2966417-.88339685 2.2966417-2.19566171c0-1.28707927-.9589536-2.19542411-2.2966417-2.19542411s-2.2966417.90834484-2.2966417 2.19542411"></path>
            <path d="m48.205716 20.7346402h3.987641v-18.42398008h-3.987641z"></path>
            <path d="m35.4095773 14.349425 2.3721985-8.20218997h.1012176l2.2462705 8.20218997zm5.8050435-11.40788933h-5.3507523l-5.9815803 17.79315213h3.6849386l1.0095624-3.482741h6.3348916l.958716 3.482741h4.7199242z"></path>
            <path d="m54.9191043 20.7346402h3.987641v-13.52823184h-3.987641z"></path>
            <path d="m100.57694 7.23209292.024948-.024948h-3.760495l-2.3721985 8.22737558h-.1261656l-2.7257474-8.22737558h-4.467593l5.3761755 13.57812788-2.2462705 4.1389922v.1012176h3.5081641z"></path>
            <path d="m66.302212 18.4127654c-.4540536 0-.8833968-.0506088-1.362636-.20196v-7.3187932c.832788-.580932 1.5142248-.8584488 2.3721985-.8584488 1.4892768 0 2.6753761 1.1865744 2.6753761 3.7103618 0 3.2301721-1.7413705 4.6688402-3.6849386 4.6688402m2.5240249-11.48344617c-1.4638536 0-2.5995817.55527122-3.8866609 1.61520488v-1.33768807h-3.9881162v17.81833766h3.9881162v-4.4167466c.7569936.20196 1.463616.3031776 2.3218273.3031776 3.5585353 0 6.7639971-2.6250049 6.7639971-7.2943203 0-4.18912585-2.3223025-6.68796517-5.1991635-6.68796517"></path>
            <path d="m82.379892 17.4537642c-1.0599336.5804569-1.6660513.8073649-2.3721985.8073649-.9591912 0-1.5648337-.6308281-1.5648337-1.6403905 0-.3784968.0755568-.756756.3782592-1.0599337.4797145-.4792392 1.4137201-.8330256 3.558773-1.337688zm3.987641-.10098v-5.6534547c0-3.07905851-1.8169273-4.77005779-5.0221514-4.77005779-2.0445481 0-3.457793.35331121-6.0321891 1.13572805l.7063848 3.10471934c2.3472505-1.0604088 3.3822362-1.51470006 4.467593-1.51470006 1.3125025 0 1.8927217.93376806 1.8927217 2.37243616v.10098c-4.5683354.8579736-5.9815803 1.337688-6.8649771 2.2213225-.6560137.655776-.9335305 1.5895441-.9335305 2.6749009 0 2.5998193 2.0191249 3.9878786 3.9120842 3.9878786 1.4132449 0 2.5487354-.5303232 4.088621-1.6912369l.2775168 1.4137201h3.987641z"></path>
        </g>
        <path d="m111.13 10.8599999v-2.82999997h2.6v-1.14h-2.6v-1.83h2.8v-1.14h-4.11v6.93999997zm6.95.1c.5 0 .941667-.0533333 1.325-.16.383333-.1066666.706667-.295.97-.565.263333-.26999997.461667-.63499997.595-1.09499997s.2-1.04333333.2-1.75c0-.7-.066667-1.28-.2-1.74s-.331667-.825-.595-1.095-.586667-.46-.97-.57-.825-.165-1.325-.165-.943333.055-1.33.165-.71.3-.97.57-.458333.635-.595 1.095-.205 1.04-.205 1.74c0 .70666667.068333 1.29.205 1.75s.335.825.595 1.09499997c.26.27.583333.4583334.97.565.386667.1066667.83.16 1.33.16zm0-1.09999997c-.353333 0-.643333-.045-.87-.135s-.403333-.23166666-.53-.425c-.126667-.19333333-.213333-.44666666-.26-.76-.046667-.31333333-.07-.69666666-.07-1.15 0-.44.023333-.81833333.07-1.135.046667-.31666666.133333-.575.26-.775s.303333-.34666666.53-.44c.226667-.09333333.516667-.14.87-.14s.641667.04666667.865.14c.223333.09333334.398333.24.525.44s.213333.45833334.26.775c.046667.31666667.07.695.07 1.135 0 .45333334-.023333.83666667-.07 1.15-.046667.31333334-.133333.56666667-.26.76-.126667.19333334-.301667.335-.525.425s-.511667.135-.865.135zm5.86.99999997v-2.61999997h.9l1.73 2.61999997h1.54l-1.99-2.76999997c.46-.12666666.798333-.34833333 1.015-.665.216667-.31666666.325-.76833333.325-1.355 0-.39333333-.051667-.72666666-.155-1-.103333-.27333333-.261667-.495-.475-.665s-.49-.29333333-.83-.37c-.34-.07666666-.743333-.115-1.21-.115h-2.16v6.93999997zm.67-3.61999997h-.67v-2.26h.67c.28 0 .516667.015.71.045s.351667.085.475.165.213333.19.27.33.085.32333334.085.55c0 .24666667-.028333.44666667-.085.6-.056667.15333334-.146667.27166667-.27.355-.123333.08333334-.281667.14-.475.17s-.43.045-.71.045zm-11.62 17.57999997c.433333 0 .843333-.03 1.23-.09s.71-.13.97-.21v-3.71h-2.48v1.1h1.25v1.72c-.126667.0333333-.265.055-.415.065s-.301667.015-.455.015c-.36 0-.668333-.0333334-.925-.1-.256667-.0666667-.468333-.19-.635-.37s-.29-.43-.37-.75-.12-.7333334-.12-1.24c0-.48.043333-.8766667.13-1.19.086667-.3133334.218333-.5633334.395-.75.176667-.1866667.396667-.3166667.66-.39.263333-.0733334.571667-.11.925-.11.32 0 .628333.0233333.925.07.296667.0466666.571667.1166666.825.21v-1.16c-.1-.04-.221667-.075-.365-.105s-.298333-.055-.465-.075-.336667-.0366667-.51-.05c-.173333-.0133334-.34-.02-.5-.02-.533333 0-1.011667.06-1.435.18s-.783333.32-1.08.6-.523333.6483333-.68 1.105c-.156667.4566666-.235 1.0183333-.235 1.685 0 .7266666.076667 1.3216666.23 1.785.153333.4633333.375.8266666.665 1.09.29.2633333.641667.445 1.055.545s.883333.15 1.41.15zm7.89-.1v-1.15h-2.85v-5.79h-1.31v6.94zm3.96.1c.5 0 .941667-.0533334 1.325-.16.383333-.1066667.706667-.295.97-.565s.461667-.635.595-1.095.2-1.0433334.2-1.75c0-.7-.066667-1.28-.2-1.74s-.331667-.825-.595-1.095-.586667-.46-.97-.57-.825-.165-1.325-.165-.943333.055-1.33.165-.71.3-.97.57-.458333.635-.595 1.095-.205 1.04-.205 1.74c0 .7066666.068333 1.29.205 1.75s.335.825.595 1.095.583333.4583333.97.565c.386667.1066666.83.16 1.33.16zm0-1.1c-.353333 0-.643333-.045-.87-.135s-.403333-.2316667-.53-.425c-.126667-.1933334-.213333-.4466667-.26-.76-.046667-.3133334-.07-.6966667-.07-1.15 0-.44.023333-.8183334.07-1.135.046667-.3166667.133333-.575.26-.775s.303333-.3466667.53-.44c.226667-.0933334.516667-.14.87-.14s.641667.0466666.865.14c.223333.0933333.398333.24.525.44s.213333.4583333.26.775c.046667.3166666.07.695.07 1.135 0 .4533333-.023333.8366666-.07 1.15-.046667.3133333-.133333.5666666-.26.76-.126667.1933333-.301667.335-.525.425s-.511667.135-.865.135zm6.98 1c.486667 0 .891667-.045 1.215-.135s.581667-.22.775-.39.328333-.38.405-.63.115-.5316667.115-.845c0-.4266667-.095-.775-.285-1.045s-.501667-.455-.935-.555v-.04c.373333-.1133334.635-.2916667.785-.535.15-.2433334.225-.545.225-.905 0-.3133334-.038333-.5866667-.115-.82-.076667-.2333334-.21-.4266667-.4-.58-.19-.1533334-.446667-.2683334-.77-.345-.323333-.0766667-.728333-.115-1.215-.115h-2.23v6.94zm-.55-4.02h-.57v-1.86h.57c.28 0 .518333.01.715.03s.356667.0616666.48.125c.123333.0633333.215.155.275.275s.09.2833333.09.49c0 .1933333-.03.35-.09.47s-.153333.215-.28.285-.288333.1183333-.485.145c-.196667.0266666-.431667.04-.705.04zm.21 2.95h-.78v-1.98h.78c.3 0 .548333.0183333.745.055.196667.0366666.353333.0933333.47.17.116667.0766666.198333.1783333.245.305.046667.1266666.07.28.07.46 0 .2-.023333.3633333-.07.49-.046667.1266666-.128333.2283333-.245.305-.116667.0766666-.273333.1283333-.47.155-.196667.0266666-.445.04-.745.04zm4.88 1.07.66-1.84h2.9l.64 1.84h1.39l-2.58-6.94h-1.76l-2.6 6.94zm3.17-2.94h-2.12l1.01-2.83h.12zm7.45 2.94v-1.15h-2.85v-5.79h-1.31v6.94zm6.05 0c.486667 0 .891667-.045 1.215-.135s.581667-.22.775-.39.328333-.38.405-.63.115-.5316667.115-.845c0-.4266667-.095-.775-.285-1.045s-.501667-.455-.935-.555v-.04c.373333-.1133334.635-.2916667.785-.535.15-.2433334.225-.545.225-.905 0-.3133334-.038333-.5866667-.115-.82-.076667-.2333334-.21-.4266667-.4-.58-.19-.1533334-.446667-.2683334-.77-.345-.323333-.0766667-.728333-.115-1.215-.115h-2.23v6.94zm-.55-4.02h-.57v-1.86h.57c.28 0 .518333.01.715.03s.356667.0616666.48.125c.123333.0633333.215.155.275.275s.09.2833333.09.49c0 .1933333-.03.35-.09.47s-.153333.215-.28.285-.288333.1183333-.485.145c-.196667.0266666-.431667.04-.705.04zm.21 2.95h-.78v-1.98h.78c.3 0 .548333.0183333.745.055.196667.0366666.353333.0933333.47.17.116667.0766666.198333.1783333.245.305.046667.1266666.07.28.07.46 0 .2-.023333.3633333-.07.49-.046667.1266666-.128333.2283333-.245.305-.116667.0766666-.273333.1283333-.47.155-.196667.0266666-.445.04-.745.04zm7.06 1.17c.913333 0 1.611667-.185 2.095-.555s.725-.9783334.725-1.825v-4.66h-1.3v4.48c0 .24-.021667.45-.065.63s-.121667.33-.235.45-.268333.2083333-.465.265c-.196667.0566666-.445.085-.745.085-.293333 0-.535-.0283334-.725-.085-.19-.0566667-.343333-.1416667-.46-.255-.116667-.1133334-.198333-.26-.245-.44s-.07-.3966667-.07-.65v-4.48h-1.31v4.66c0 .4466666.061667.8216666.185 1.125.123333.3033333.303333.5483333.54.735.236667.1866666.528333.32.875.4s.746667.12 1.2.12zm6.2 0c.906667 0 1.566667-.1716667 1.98-.515.413333-.3433334.62-.855.62-1.535 0-.3266667-.031667-.6066667-.095-.84-.063333-.2333334-.171667-.4333334-.325-.6-.153333-.1666667-.361667-.3066667-.625-.42-.263333-.1133334-.598333-.22-1.005-.32-.273333-.0666667-.493333-.13-.66-.19s-.295-.125-.385-.195-.148333-.15-.175-.24-.04-.2016667-.04-.335c0-.3466667.098333-.5766667.295-.69.196667-.1133334.505-.17.925-.17.146667 0 .303333.0066666.47.02.166667.0133333.328333.0333333.485.06.156667.0266666.301667.055.435.085s.246667.0616666.34.095v-1.11c-.18-.0666667-.426667-.125-.74-.175s-.656667-.075-1.03-.075c-.806667 0-1.418333.155-1.835.465s-.625.8183333-.625 1.525c0 .3066666.031667.565.095.775s.17.39.32.54.346667.275.59.375.548333.1933333.915.28c.286667.0733333.518333.1416666.695.205.176667.0633333.315.1366666.415.22.1.0833333.168333.18.205.29s.055.245.055.405c0 .3533333-.103333.5983333-.31.735-.206667.1366666-.55.205-1.03.205-.186667 0-.375-.0083334-.565-.025-.19-.0166667-.373333-.0383334-.55-.065-.176667-.0266667-.341667-.0566667-.495-.09-.153333-.0333334-.283333-.07-.39-.11v1.17c.1.0333333.223333.0633333.37.09.146667.0266666.31.0533333.49.08.18.0266666.37.0466666.57.06.2.0133333.403333.02.61.02zm5.28-.1v-6.94h-1.31v6.94zm2.93 0v-5.56h.06l2.74 5.56h1.78v-6.94h-1.28v5.23h-.06l-2.52-5.23h-2.01v6.94zm10.51 0v-1.15h-2.98v-1.88h2.6v-1.09h-2.6v-1.68h2.8v-1.14h-4.11v6.94zm3.08.1c.906667 0 1.566667-.1716667 1.98-.515.413333-.3433334.62-.855.62-1.535 0-.3266667-.031667-.6066667-.095-.84-.063333-.2333334-.171667-.4333334-.325-.6-.153333-.1666667-.361667-.3066667-.625-.42-.263333-.1133334-.598333-.22-1.005-.32-.273333-.0666667-.493333-.13-.66-.19s-.295-.125-.385-.195-.148333-.15-.175-.24-.04-.2016667-.04-.335c0-.3466667.098333-.5766667.295-.69.196667-.1133334.505-.17.925-.17.146667 0 .303333.0066666.47.02.166667.0133333.328333.0333333.485.06.156667.0266666.301667.055.435.085s.246667.0616666.34.095v-1.11c-.18-.0666667-.426667-.125-.74-.175s-.656667-.075-1.03-.075c-.806667 0-1.418333.155-1.835.465s-.625.8183333-.625 1.525c0 .3066666.031667.565.095.775s.17.39.32.54.346667.275.59.375.548333.1933333.915.28c.286667.0733333.518333.1416666.695.205.176667.0633333.315.1366666.415.22.1.0833333.168333.18.205.29s.055.245.055.405c0 .3533333-.103333.5983333-.31.735-.206667.1366666-.55.205-1.03.205-.186667 0-.375-.0083334-.565-.025-.19-.0166667-.373333-.0383334-.55-.065-.176667-.0266667-.341667-.0566667-.495-.09-.153333-.0333334-.283333-.07-.39-.11v1.17c.1.0333333.223333.0633333.37.09.146667.0266666.31.0533333.49.08.18.0266666.37.0466666.57.06.2.0133333.403333.02.61.02zm5.74 0c.906667 0 1.566667-.1716667 1.98-.515.413333-.3433334.62-.855.62-1.535 0-.3266667-.031667-.6066667-.095-.84-.063333-.2333334-.171667-.4333334-.325-.6-.153333-.1666667-.361667-.3066667-.625-.42-.263333-.1133334-.598333-.22-1.005-.32-.273333-.0666667-.493333-.13-.66-.19s-.295-.125-.385-.195-.148333-.15-.175-.24-.04-.2016667-.04-.335c0-.3466667.098333-.5766667.295-.69.196667-.1133334.505-.17.925-.17.146667 0 .303333.0066666.47.02.166667.0133333.328333.0333333.485.06.156667.0266666.301667.055.435.085s.246667.0616666.34.095v-1.11c-.18-.0666667-.426667-.125-.74-.175s-.656667-.075-1.03-.075c-.806667 0-1.418333.155-1.835.465s-.625.8183333-.625 1.525c0 .3066666.031667.565.095.775s.17.39.32.54.346667.275.59.375.548333.1933333.915.28c.286667.0733333.518333.1416666.695.205.176667.0633333.315.1366666.415.22.1.0833333.168333.18.205.29s.055.245.055.405c0 .3533333-.103333.5983333-.31.735-.206667.1366666-.55.205-1.03.205-.186667 0-.375-.0083334-.565-.025-.19-.0166667-.373333-.0383334-.55-.065-.176667-.0266667-.341667-.0566667-.495-.09-.153333-.0333334-.283333-.07-.39-.11v1.17c.1.0333333.223333.0633333.37.09.146667.0266666.31.0533333.49.08.18.0266666.37.0466666.57.06.2.0133333.403333.02.61.02z" fill-rule="nonzero"></path>
    </g>
</svg>