<svg width="230" height="86" viewBox="0 0 230 86" fill="none" xmlns="http://www.w3.org/2000/svg">
<path d="M30.3183 14.4682L27.9207 7.49126C27.8195 7.18757 27.9021 6.95048 28.1685 6.77998C34.1384 2.87994 41.7786 0.818039 48.8275 0.210656C57.3415 -0.529925 65.8768 0.682178 74.4335 3.84696C75.3392 4.18262 75.3259 4.48365 74.3935 4.75005L69.4465 6.1726C69.1961 6.24719 68.943 6.25252 68.6873 6.18858C57.0192 3.31151 44.2881 4.46234 34.2583 11.4712C33.0995 12.2864 32.0285 13.5811 30.9097 14.62C30.638 14.8758 30.4408 14.8251 30.3183 14.4682Z" fill="#FF0000"/>
<path d="M150.093 30.476L150.109 46.0841C150.109 46.3505 149.973 46.4837 149.701 46.4837H141.957C141.851 46.4837 141.749 46.4416 141.674 46.3667C141.599 46.2917 141.557 46.1901 141.557 46.0841L141.549 2.89599C141.549 2.7287 141.608 2.5668 141.717 2.43937C141.825 2.31193 141.976 2.22731 142.141 2.2007C150.612 0.81011 164.502 -0.620436 169.121 9.00978C171.839 14.676 170.496 22.5001 165.437 26.3921C161.337 29.5489 156.366 30.3161 150.532 30.0524C150.476 30.0491 150.419 30.0577 150.366 30.0775C150.313 30.0973 150.264 30.128 150.223 30.1676C150.182 30.2073 150.149 30.2551 150.127 30.3081C150.104 30.3612 150.093 30.4183 150.093 30.476ZM150.093 9.32146L150.141 21.9646C150.143 22.1158 150.204 22.2602 150.312 22.3663C150.42 22.4725 150.565 22.5321 150.716 22.532L154.84 22.5161C156.679 22.509 158.441 21.8602 159.737 20.7122C161.033 19.5642 161.758 18.0111 161.753 16.3943V14.7959C161.75 13.9949 161.568 13.2024 161.216 12.4636C160.865 11.7248 160.352 11.0542 159.705 10.4902C159.059 9.92615 158.292 9.47969 157.449 9.17631C156.606 8.87293 155.703 8.71858 154.792 8.72207L150.668 8.73806C150.592 8.73805 150.516 8.75319 150.446 8.78261C150.376 8.81203 150.312 8.85513 150.258 8.90941C150.205 8.96369 150.163 9.02807 150.134 9.09881C150.106 9.16955 150.092 9.24523 150.093 9.32146Z" fill="black"/>
<path d="M13.1115 33.4648L8.85984 46.3078C8.84318 46.3584 8.81112 46.4026 8.76813 46.4341C8.72514 46.4656 8.67338 46.4829 8.62008 46.4836H0.260571C0.219729 46.4844 0.179295 46.4754 0.142656 46.4573C0.106016 46.4392 0.0742371 46.4127 0.0499782 46.3798C0.0257193 46.3469 0.00968676 46.3087 0.00322243 46.2684C-0.00324191 46.2281 5.01064e-05 46.1868 0.012823 46.148L15.1734 1.79301C15.1901 1.74237 15.2221 1.6982 15.2651 1.66668C15.3081 1.63515 15.3599 1.61785 15.4132 1.61719L23.7247 1.63317C23.778 1.63383 23.8298 1.65114 23.8728 1.68266C23.9158 1.71419 23.9478 1.75836 23.9645 1.80899L39.1571 46.148C39.1696 46.1861 39.173 46.2267 39.167 46.2664C39.1609 46.3061 39.1456 46.3438 39.1222 46.3765C39.0989 46.4092 39.0682 46.436 39.0326 46.4546C38.997 46.4732 38.9575 46.4831 38.9173 46.4836H30.35C30.2967 46.4829 30.2449 46.4656 30.202 46.4341C30.159 46.4026 30.1269 46.3584 30.1103 46.3078L25.7866 33.4648C25.77 33.4142 25.7379 33.37 25.6949 33.3385C25.652 33.307 25.6002 33.2897 25.5469 33.289H13.3513C13.298 33.2897 13.2462 33.307 13.2032 33.3385C13.1602 33.37 13.1282 33.4142 13.1115 33.4648ZM15.4451 25.6568C15.4324 25.6928 15.4285 25.7312 15.4336 25.7691C15.4388 25.8069 15.4529 25.8429 15.4748 25.8742C15.4967 25.9055 15.5257 25.931 15.5595 25.9488C15.5932 25.9666 15.6308 25.9761 15.6689 25.9764H23.2452C23.2834 25.9761 23.3209 25.9666 23.3547 25.9488C23.3884 25.931 23.4175 25.9055 23.4394 25.8742C23.4613 25.8429 23.4754 25.8069 23.4805 25.7691C23.4857 25.7312 23.4817 25.6928 23.469 25.6568L19.6808 14.604C19.6634 14.5588 19.6327 14.5199 19.5928 14.4924C19.5529 14.465 19.5055 14.4503 19.4571 14.4503C19.4086 14.4503 19.3613 14.465 19.3213 14.4924C19.2814 14.5199 19.2507 14.5588 19.2333 14.604L15.4451 25.6568Z" fill="black"/>
<path d="M76.9905 21.1495L77.0065 37.7166C77.0069 37.9887 77.066 38.2576 77.1797 38.5048C77.2934 38.752 77.459 38.9718 77.6653 39.1493C77.8716 39.3267 78.1137 39.4577 78.3751 39.5332C78.6365 39.6086 78.9111 39.6269 79.1803 39.5867L83.4559 38.9474C83.8928 38.8834 84.1219 39.0726 84.1432 39.5148L84.415 45.229C84.4416 45.8151 84.1725 46.18 83.6078 46.3239C74.7048 48.6096 68.591 45.9003 68.4951 36.2701C68.4472 31.2086 68.4338 26.1444 68.4552 21.0775C68.4552 20.7738 68.3033 20.622 67.9996 20.622L64.675 20.638C64.0889 20.638 63.7959 20.3423 63.7959 19.7509V14.2445C63.7959 13.6691 64.0836 13.384 64.659 13.3893L68.0716 13.4053C68.1733 13.4053 68.2709 13.3649 68.3428 13.293C68.4147 13.221 68.4552 13.1235 68.4552 13.0217L68.4232 8.65815C68.4237 8.53296 68.4635 8.41133 68.5367 8.31079C68.61 8.21025 68.713 8.136 68.8308 8.09872L76.5589 5.72513C76.852 5.63456 76.9985 5.74378 76.9985 6.0528V12.9498C76.9985 13.2535 77.1503 13.4053 77.454 13.4053L84.4549 13.3814C84.5721 13.3814 84.6307 13.44 84.6307 13.5572L84.6467 20.3902C84.6467 20.5661 84.5615 20.6513 84.391 20.646L77.5339 20.606C77.1716 20.606 76.9905 20.7872 76.9905 21.1495Z" fill="black"/>
<path d="M95.8353 15.4593C98.5472 13.0084 101.731 12.1826 105.386 12.9818C105.647 13.0404 105.777 13.2029 105.777 13.4693V21.1815C105.778 21.2652 105.748 21.3461 105.693 21.4082C105.638 21.4703 105.563 21.5092 105.482 21.5171C105.322 21.5384 105.178 21.4985 105.05 21.3972C104.917 21.2907 104.768 21.2241 104.602 21.1974C97.6015 20.1345 96.4027 24.8417 96.3868 30.7158C96.3761 35.8199 96.3708 40.9374 96.3708 46.0682C96.3708 46.3452 96.2322 46.4838 95.9552 46.4838H88.227C87.9713 46.4838 87.8434 46.3559 87.8434 46.1002C87.7955 35.399 88.1871 24.57 87.332 13.9168C87.3053 13.5759 87.4652 13.4027 87.8115 13.3974L94.8204 13.3814C95.188 13.3814 95.3718 13.5652 95.3718 13.9328L95.3878 15.2675C95.3931 15.6617 95.5423 15.7257 95.8353 15.4593Z" fill="black"/>
<path d="M52.8713 39.6025C55.5805 38.6035 55.5965 35.8463 53.159 34.3119C52.5143 33.9017 50.82 33.1131 48.0761 31.9463C40.9554 28.9094 38.6617 20.3581 45.3029 15.4031C50.2499 11.7109 57.5065 11.9986 62.4615 15.4031C62.5627 15.4724 62.5947 15.5683 62.5574 15.6908L60.2558 22.4839C60.247 22.5104 60.2318 22.5343 60.2114 22.5534C60.1911 22.5726 60.1663 22.5863 60.1394 22.5934C60.1124 22.6006 60.0841 22.6009 60.0569 22.5943C60.0298 22.5878 60.0048 22.5745 59.984 22.5558C57.8156 20.6271 55.3727 19.7827 52.6555 20.0224C49.7624 20.2782 48.5317 23.2511 51.4487 24.6417C54.6614 26.1602 59.025 27.5588 61.2947 30.4518C64.8031 34.9273 63.8041 41.2489 59.3766 44.6374C54.4776 48.3776 46.19 47.4346 40.9394 44.5335C40.5345 44.3097 40.4013 43.9794 40.5398 43.5425L42.4818 37.5007C42.6097 37.1011 42.8414 37.0291 43.1771 37.2849C45.4468 39.0351 49.8104 40.7454 52.8713 39.6025Z" fill="black"/>
<path d="M119.337 47.1764C115.018 46.6614 111.093 44.3508 108.425 40.7527C105.757 37.1547 104.564 32.564 105.109 27.9905C105.379 25.726 106.068 23.5339 107.136 21.5393C108.204 19.5447 109.63 17.7867 111.333 16.3658C113.036 14.9448 114.982 13.8887 117.061 13.2576C119.14 12.6266 121.311 12.4331 123.45 12.6881C127.768 13.2031 131.694 15.5137 134.362 19.1118C137.03 22.7098 138.223 27.3005 137.677 31.874C137.407 34.1385 136.719 36.3306 135.651 38.3252C134.583 40.3198 133.157 42.0778 131.454 43.4987C129.751 44.9197 127.804 45.9758 125.725 46.6069C123.646 47.2379 121.476 47.4314 119.337 47.1764ZM121.362 39.9617C123.369 39.9792 125.303 38.9368 126.739 37.0638C128.174 35.1908 128.994 32.6406 129.017 29.9743C129.041 27.308 128.266 24.7439 126.863 22.8462C125.46 20.9484 123.544 19.8724 121.537 19.8549C119.53 19.8374 117.596 20.8798 116.16 22.7528C114.724 24.6258 113.905 27.1759 113.881 29.8423C113.858 32.5086 114.633 35.0726 116.036 36.9704C117.439 38.8681 119.354 39.9441 121.362 39.9617Z" fill="black"/>
<path d="M189.46 45.045C189.46 44.5708 189.263 44.4669 188.869 44.7333C183.163 48.6813 173.804 48.01 171.055 40.6814C168.626 34.2 172.502 28.0063 178.719 25.9284C181.788 24.9001 184.527 24.3807 186.935 24.37C188.475 24.3593 188.805 23.7227 187.926 22.4599L187.574 21.9565C186.722 20.731 185.555 20.0704 184.074 19.9745C180.547 19.7454 177.417 20.7337 174.683 22.9395C174.666 22.9536 174.646 22.9632 174.624 22.9676C174.602 22.9721 174.58 22.9711 174.559 22.9648C174.537 22.9584 174.518 22.947 174.502 22.9315C174.486 22.9159 174.474 22.8967 174.468 22.8755L172.214 16.474C172.166 16.3302 172.206 16.2156 172.334 16.1304C179.023 11.7908 191.49 10.5121 195.494 18.9755C196.389 20.8616 196.856 24.2102 196.893 29.0213C196.933 34.184 196.437 40.5935 197.644 46.0759C197.708 46.353 197.599 46.4915 197.316 46.4915L189.884 46.4835C189.77 46.4835 189.66 46.4389 189.579 46.3595C189.498 46.28 189.452 46.1723 189.452 46.06L189.46 45.045ZM185.345 39.3548C188.765 37.7244 188.605 35.0232 188.589 31.7066C188.589 31.4615 188.467 31.3309 188.222 31.3149C184.929 31.0592 178.839 31.9623 178.911 36.4697C178.967 40.1779 182.651 40.6415 185.345 39.3548Z" fill="black"/>
<path d="M213.828 32.5138C214.067 33.1531 214.296 33.1505 214.515 32.5058L220.94 13.7089C221.02 13.4585 221.191 13.3333 221.452 13.3333H229.659C229.968 13.3386 230.067 13.4824 229.955 13.7648C226.423 23.0301 223.165 31.5601 220.181 39.3548C216.832 48.1059 212.789 57.3525 202.815 60.1177C202.069 60.3202 201.584 60.0538 201.36 59.3185L199.746 53.964C199.549 53.3193 199.77 52.8851 200.409 52.6613C204.693 51.1588 207.7 48.3004 209.432 44.086C209.517 43.8729 209.517 43.6598 209.432 43.4467L197.572 13.7728C197.46 13.4904 197.556 13.3492 197.86 13.3492L206.331 13.3333C206.624 13.3333 206.821 13.4718 206.923 13.7488L213.828 32.5138Z" fill="black"/>
<path d="M193.193 71.4584C190.316 75.4303 187.135 79.4263 184.122 83.4382C183.152 84.7329 181.81 85.3776 180.094 85.3722C160.013 85.3456 139.932 85.3269 119.851 85.3163C116.471 85.3163 115.64 82.3833 115.648 79.3863C115.658 73.1953 115.661 67.0069 115.656 60.8212C115.648 57.9121 116.487 55.067 119.755 55.067C140.135 55.0457 160.514 55.0457 180.893 55.067C182.033 55.067 183.046 55.6478 183.93 56.8092C186.935 60.7466 190.012 64.7638 193.161 68.861C193.445 69.2328 193.602 69.6864 193.607 70.1544C193.613 70.6223 193.468 71.0797 193.193 71.4584ZM140.83 63.6982C140.83 63.304 140.673 62.9259 140.395 62.6471C140.116 62.3684 139.738 62.2118 139.343 62.2118C138.949 62.2118 138.571 62.3684 138.292 62.6471C138.014 62.9259 137.857 63.304 137.857 63.6982C137.857 63.8935 137.895 64.0868 137.97 64.2671C138.045 64.4474 138.154 64.6113 138.292 64.7493C138.43 64.8874 138.594 64.9969 138.775 65.0716C138.955 65.1463 139.148 65.1847 139.343 65.1847C139.539 65.1847 139.732 65.1463 139.912 65.0716C140.093 64.9969 140.257 64.8874 140.395 64.7493C140.533 64.6113 140.642 64.4474 140.717 64.2671C140.791 64.0868 140.83 63.8935 140.83 63.6982ZM122.297 63.4185L122.329 78.1556C122.329 78.2679 122.373 78.3756 122.453 78.4551C122.532 78.5345 122.64 78.5791 122.752 78.5791L127.851 78.5711C129.785 78.5669 131.638 77.8078 133.003 76.4606C134.368 75.1134 135.134 73.2884 135.132 71.3864V70.1557C135.131 69.2125 134.941 68.2788 134.573 67.408C134.204 66.5372 133.665 65.7462 132.986 65.0804C132.307 64.4147 131.501 63.8871 130.615 63.5279C129.728 63.1686 128.778 62.9848 127.819 62.987L122.72 62.995C122.608 62.995 122.5 63.0396 122.421 63.119C122.341 63.1985 122.297 63.3062 122.297 63.4185ZM179.846 66.2237L179.878 64.6413C179.884 64.2523 179.689 64.0579 179.295 64.0579H178.695C178.168 64.0579 177.878 64.3189 177.824 64.8411C177.691 66.1518 176.988 67.0069 175.714 67.4065C175.609 67.4402 175.516 67.5043 175.447 67.5909C175.377 67.6775 175.334 67.7828 175.323 67.894C175.307 68.1018 175.355 68.2696 175.467 68.3975C175.563 68.4987 175.762 68.568 176.066 68.6053C176.269 68.6266 176.471 68.6612 176.674 68.7092C176.945 68.7731 177.084 68.9436 177.089 69.2206C177.145 72.793 175.683 80.1935 182.204 78.715C183.232 78.4806 183.549 77.7799 183.155 76.6131C183.132 76.5449 183.093 76.4832 183.041 76.4332C182.989 76.3832 182.926 76.3465 182.857 76.3261C182.788 76.3057 182.715 76.3023 182.645 76.3161C182.574 76.3299 182.508 76.3605 182.452 76.4053C181.141 77.4283 180.014 76.4932 179.926 75.0227C179.809 73.0461 179.806 71.0454 179.918 69.0208C179.934 68.7704 180.067 68.6479 180.318 68.6532L182.444 68.7171C183.014 68.7331 183.293 68.4561 183.283 67.886L183.275 67.4384C183.269 66.9216 183.008 66.6632 182.492 66.6632H180.278C179.985 66.6632 179.841 66.5167 179.846 66.2237ZM146.544 68.0219L146.336 67.1747C146.251 66.8284 146.03 66.6526 145.673 66.6473H144.746C144.357 66.6473 144.163 66.8391 144.163 67.2227L144.171 78.2515C144.171 78.3532 144.211 78.4508 144.283 78.5227C144.355 78.5947 144.452 78.6351 144.554 78.6351L146.344 78.6271C146.627 78.6271 146.765 78.4886 146.76 78.2115C146.688 74.9109 145.529 68.5893 150.86 69.0368C151.158 69.0635 151.31 68.9276 151.315 68.6292L151.347 66.9829C151.353 66.6739 151.201 66.5007 150.892 66.4634C149.277 66.2876 148.017 66.8417 147.112 68.1257C146.84 68.5147 146.651 68.4801 146.544 68.0219ZM156.542 73.3125L162.88 73.3684C163.045 73.3684 163.143 73.2885 163.175 73.1287C164.893 63.97 151.331 64.1858 152.938 74.0397C153.681 78.6191 158.132 79.714 161.992 78.3793C162.23 78.2985 162.438 78.1494 162.591 77.9505C162.745 77.7516 162.837 77.5117 162.856 77.2605L162.904 76.6771C162.946 76.123 162.701 75.9232 162.168 76.0777L159.547 76.8129C158.337 77.1539 157.365 76.8156 156.63 75.798L155.831 74.6871C155.159 73.7654 155.396 73.3071 156.542 73.3125ZM169.737 76.2295C167.323 75.0147 167.898 71.0907 169.241 69.3165C169.406 69.0951 169.643 68.9441 169.904 68.893C170.927 68.6905 171.926 68.7598 172.901 69.1008C173.37 69.2659 173.733 69.1354 173.988 68.7092L174.372 68.0778C174.468 67.9122 174.496 67.7153 174.448 67.5297C174.4 67.3441 174.281 67.185 174.116 67.0868C171.111 65.3126 167.179 66.8151 165.845 69.82C165.147 71.4024 165.069 73.0967 165.613 74.9029C166.788 78.7949 170.4 79.7539 173.916 78.2595C174.209 78.1316 174.361 77.9078 174.372 77.5881L174.404 76.4533C174.406 76.393 174.394 76.3331 174.37 76.2776C174.347 76.2222 174.311 76.1726 174.266 76.1323C174.221 76.092 174.168 76.062 174.111 76.0443C174.053 76.0265 173.992 76.0216 173.932 76.0297C172.238 76.2455 171.495 77.1166 169.737 76.2295ZM140.742 67.1028C140.742 66.9862 140.696 66.8744 140.613 66.792C140.531 66.7095 140.419 66.6632 140.302 66.6632H138.464C138.348 66.6632 138.236 66.7095 138.154 66.792C138.071 66.8744 138.025 66.9862 138.025 67.1028V78.1795C138.025 78.2961 138.071 78.4079 138.154 78.4903C138.236 78.5728 138.348 78.6191 138.464 78.6191H140.302C140.419 78.6191 140.531 78.5728 140.613 78.4903C140.696 78.4079 140.742 78.2961 140.742 78.1795V67.1028Z" fill="#FF0000"/>
<path d="M124.966 65.5283C124.968 65.447 125.002 65.3698 125.06 65.3131C125.118 65.2563 125.197 65.2246 125.278 65.2246L127.444 65.2326C128.707 65.237 129.916 65.7203 130.807 66.5761C131.697 67.4318 132.195 68.59 132.191 69.796V71.7939C132.185 72.9987 131.678 74.1517 130.782 74.9998C129.886 75.8479 128.674 76.3218 127.412 76.3173H125.246C125.204 76.3174 125.163 76.309 125.125 76.2929C125.086 76.2767 125.052 76.253 125.023 76.2232C124.994 76.1934 124.971 76.1581 124.956 76.1194C124.94 76.0807 124.933 76.0393 124.934 75.9977L124.966 65.5283Z" fill="#FF0000"/>
<path d="M155.743 71.3225C155.707 71.3225 155.672 71.3081 155.647 71.2827C155.621 71.2572 155.607 71.2226 155.607 71.1866V71.1466C155.599 70.4897 155.858 69.8562 156.327 69.3856C156.796 68.915 157.437 68.6458 158.109 68.6372H158.268C158.601 68.6329 158.932 68.6927 159.241 68.8133C159.55 68.9339 159.831 69.1128 160.069 69.3399C160.308 69.567 160.498 69.8378 160.629 70.1369C160.76 70.4359 160.83 70.7573 160.834 71.0827V71.1227C160.834 71.1587 160.82 71.1932 160.794 71.2187C160.769 71.2442 160.734 71.2585 160.698 71.2585L155.743 71.3225Z" fill="#FF0000"/>
</svg>
