<svg width="322" height="84" viewBox="0 0 322 84" fill="none" xmlns="http://www.w3.org/2000/svg">
<path d="M92.2911 7.86779C90.9728 7.67637 89.6564 7.47773 88.3417 7.27186C83.8126 6.55674 78.9855 6.69218 74.4185 6.90346C72.5657 6.99015 70.7616 7.38563 68.9088 7.69985C59.3035 9.31429 49.8389 13.3829 43.1428 20.4908C42.6949 20.9711 42.3735 20.8971 42.1785 20.2686C41.1853 17.0759 40.1198 13.9824 38.9821 10.9883C38.6715 10.1648 38.9279 9.51293 39.7514 9.03257C56.7897 -0.952033 78.0266 -2.16557 96.8202 2.97572C97.0116 3.02628 97.4216 3.19784 98.05 3.49038C98.6134 3.75043 99.2798 3.78835 99.7945 3.97797C101.38 4.55946 103.002 5.15719 104.659 5.77119C105.375 6.03845 105.367 6.28225 104.638 6.50256C102.37 7.18157 99.8902 7.91113 97.1994 8.69126C95.9642 9.04882 93.548 8.05199 92.2911 7.86779Z" fill="#FF0000"/>
<path d="M210.216 41.9714C210.173 41.9669 210.13 41.9713 210.089 41.9845C210.049 41.9977 210.011 42.0193 209.98 42.0479C209.948 42.0766 209.923 42.1116 209.905 42.1507C209.888 42.1898 209.879 42.2321 209.88 42.2748V64.3244C209.88 64.4709 209.821 64.6115 209.718 64.7151C209.614 64.8188 209.474 64.877 209.327 64.877L198.08 64.8824C197.885 64.8824 197.788 64.7867 197.788 64.5953V3.5066C197.788 3.28629 197.898 3.18155 198.118 3.19239C198.382 3.20322 198.647 3.18516 198.914 3.13821C202.996 2.41586 207.872 1.9969 213.542 1.88133C221.522 1.7188 229.112 3.09487 234.389 9.28175C234.833 9.80725 235.082 10.5549 235.694 11.0966C235.757 11.1502 235.805 11.2178 235.836 11.2941C235.867 11.3703 235.88 11.453 235.873 11.5355C235.837 11.8966 235.962 12.1765 236.247 12.3752C236.388 12.4727 236.491 12.5991 236.556 12.7544C240.451 22.4356 237.769 33.52 228.289 38.7371C222.974 41.6572 216.175 42.5836 210.216 41.9714ZM209.89 12.7165L209.858 30.9629C209.857 31.0224 209.868 31.0815 209.891 31.1367C209.913 31.1918 209.946 31.242 209.988 31.2844C210.03 31.3267 210.079 31.3603 210.134 31.3833C210.189 31.4062 210.248 31.418 210.308 31.418L216.446 31.4234C219.037 31.4282 221.524 30.5137 223.36 28.8811C225.196 27.2485 226.23 25.0315 226.235 22.7174V21.0271C226.238 19.8806 225.988 18.7448 225.499 17.6846C225.01 16.6244 224.292 15.6605 223.386 14.848C222.48 14.0355 221.403 13.3903 220.218 12.9493C219.033 12.5082 217.762 12.28 216.478 12.2777L210.34 12.2723C210.222 12.2722 210.108 12.3189 210.024 12.402C209.94 12.4852 209.892 12.5982 209.89 12.7165Z" fill="black"/>
<path d="M18.238 47.0154L12.5333 64.2596C12.4738 64.4421 12.3574 64.6012 12.2008 64.7141C12.0441 64.8269 11.8552 64.8878 11.6611 64.888L0.598348 64.8826C0.0710368 64.8826 -0.107743 64.6316 0.0620075 64.1295L20.9847 2.95419C20.9955 2.91807 20.9955 2.88196 20.9847 2.84584C20.9703 2.78805 20.945 2.72304 20.9089 2.65081C20.8869 2.60269 20.8772 2.5498 20.8808 2.49706C20.8843 2.44432 20.9008 2.39343 20.9289 2.34911C20.957 2.3048 20.9958 2.2685 21.0415 2.24358C21.0872 2.21866 21.1385 2.20593 21.1906 2.20657L33.158 2.23365C33.3711 2.23365 33.512 2.33298 33.5806 2.53162C35.5959 8.41873 37.6004 14.2914 39.5941 20.1496C40.0221 21.4065 40.8077 23.2647 41.1706 24.955C41.1882 25.0361 41.2298 25.1098 41.2898 25.1663C41.3404 25.2132 41.3765 25.2656 41.3982 25.3234C45.7431 38.0186 50.2017 51.0948 54.7742 64.5521C54.8536 64.7869 54.7706 64.9043 54.525 64.9043L42.1566 64.8447C41.9255 64.841 41.7864 64.7273 41.7395 64.5033C41.6365 64.0266 41.6799 63.5661 41.5228 63.111C39.6411 57.7223 37.8478 52.4384 36.1431 47.2592C36.0723 47.042 35.9346 46.8527 35.7497 46.7184C35.5648 46.5841 35.3423 46.5117 35.1138 46.5116L18.9477 46.5061C18.7903 46.5059 18.637 46.555 18.5095 46.6464C18.3821 46.7379 18.2871 46.867 18.238 47.0154ZM32.275 34.4899C32.2966 34.3094 32.2677 34.1432 32.1883 33.9915C32.0221 33.6881 31.9373 33.5274 31.9336 33.5094C30.7237 29.894 29.4795 26.2877 28.2009 22.6904C27.8975 21.8345 27.6881 21.067 27.5725 20.388C27.4244 19.5248 27.2095 19.5067 26.9278 20.3338L21.7269 35.4922C21.6963 35.5823 21.688 35.6784 21.7025 35.7724C21.7171 35.8664 21.7541 35.9555 21.8105 36.0321C21.8669 36.1087 21.941 36.1705 22.0264 36.2123C22.1118 36.2542 22.2061 36.2748 22.3012 36.2723C25.4362 36.1856 28.6416 36.2001 31.9174 36.3157C32.1811 36.3229 32.479 36.1604 32.8113 35.8281C32.9305 35.7089 32.9359 35.5879 32.8275 35.4651L32.4483 35.0317C32.3111 34.8764 32.2533 34.6958 32.275 34.4899Z" fill="black"/>
<path d="M95.6389 29.2347C95.6396 29.1913 95.6317 29.1482 95.6154 29.1079C95.5992 29.0675 95.5751 29.0307 95.5444 28.9995C95.5137 28.9683 95.4771 28.9434 95.4366 28.9261C95.3961 28.9088 95.3526 28.8996 95.3085 28.8988L89.5171 28.8826C89.2534 28.8826 89.1216 28.7508 89.1216 28.4871L89.1541 18.9413C89.1577 18.7102 89.2769 18.5946 89.5116 18.5946L95.1351 18.6325C95.2659 18.6325 95.3912 18.5806 95.4837 18.4881C95.5762 18.3957 95.6281 18.2703 95.6281 18.1395L95.6173 12.1206C95.6173 11.6366 95.8484 11.326 96.3107 11.1888L107.211 7.94905C107.262 7.93377 107.316 7.93074 107.369 7.9402C107.421 7.94965 107.471 7.97133 107.514 8.00348C107.556 8.03563 107.591 8.07736 107.615 8.12531C107.638 8.17325 107.65 8.22608 107.65 8.27952L107.596 17.9066C107.592 18.3869 107.832 18.6271 108.316 18.6271L118.149 18.5946C118.373 18.5946 118.485 18.7066 118.485 18.9305L118.496 28.7038C118.496 28.7294 118.491 28.7548 118.481 28.7784C118.471 28.8021 118.457 28.8236 118.439 28.8417C118.42 28.8598 118.399 28.8742 118.375 28.884C118.352 28.8938 118.326 28.8988 118.301 28.8988L108.045 28.8609C107.93 28.8609 107.82 28.9066 107.739 28.9879C107.657 29.0691 107.612 29.1794 107.612 29.2943C107.587 36.7417 107.601 44.2487 107.655 51.8152C107.662 52.6604 108.116 53.5994 109.015 54.6324C109.127 54.766 109.27 54.8418 109.443 54.8599C111.036 55.0441 114.167 55.1904 115.521 54.3019C115.659 54.2116 115.809 54.1827 115.971 54.2152C116.22 54.2658 116.442 54.1899 116.637 53.9877C116.711 53.9134 116.804 53.8618 116.905 53.8391C117.007 53.8163 117.113 53.8234 117.211 53.8594C117.309 53.8954 117.394 53.9589 117.457 54.0422C117.519 54.1255 117.556 54.225 117.564 54.329L118.122 63.8748C118.129 64.0445 118.051 64.1583 117.889 64.2161C112.287 66.2314 104.849 66.8761 100.081 62.71C96.7333 59.7899 95.7148 55.0766 95.6606 50.6667C95.5667 43.4649 95.5595 36.3209 95.6389 29.2347Z" fill="black"/>
<path d="M147.312 46.6035C145.557 34.7498 150.806 22.3706 162.909 18.7571C167.095 17.5074 171.475 17.4677 176.047 18.6379C182.422 20.274 187.05 24.0428 189.932 29.9444C191.077 32.2812 191.789 34.4789 192.067 36.5376C192.197 37.5182 192.451 38.5258 192.473 39.3168C192.553 42.6215 192.415 45.1479 192.061 46.896C190.487 54.6973 186.38 60.2088 179.742 63.4305C177.271 64.6296 174.671 65.3718 171.94 65.6571C159.485 66.9519 149.17 59.1397 147.312 46.6035ZM169.657 55.7048C172.449 55.7194 175.134 54.2602 177.121 51.6483C179.109 49.0364 180.237 45.4857 180.256 41.7773C180.276 38.0689 179.185 34.5066 177.225 31.874C175.265 29.2414 172.595 27.7543 169.803 27.7396C167.012 27.725 164.326 29.1842 162.339 31.7961C160.351 34.408 159.223 37.9587 159.204 41.6671C159.184 45.3755 160.275 48.9379 162.235 51.5704C164.195 54.203 166.865 55.6902 169.657 55.7048Z" fill="black"/>
<path d="M263.194 33.6014C262.972 29.5274 260.35 27.9292 256.466 27.8154C252.016 27.6818 247.992 29.029 244.395 31.8569C244.338 31.9014 244.271 31.9318 244.2 31.9455C244.128 31.9592 244.055 31.9559 243.985 31.9358C243.916 31.9157 243.852 31.8795 243.799 31.83C243.746 31.7805 243.705 31.7192 243.68 31.6511C243.055 29.9427 242.476 28.2236 241.941 26.4935C241.67 25.6105 240.95 24.2073 240.857 22.8908C240.847 22.6886 240.922 22.5279 241.085 22.4087C242.425 21.4552 243.866 20.6985 245.408 20.1387C245.452 20.1207 245.48 20.0918 245.495 20.052C245.513 20.0051 245.535 19.9635 245.56 19.9274C245.578 19.8985 245.609 19.8769 245.652 19.8624C247.765 19.2394 249.927 18.4593 252.007 18.1613C254.347 17.829 256.702 17.7207 259.071 17.8362C269.278 18.3238 275.167 25.8109 275.2 35.633C275.232 45.1138 274.723 55.1526 276.256 64.525C276.263 64.5697 276.26 64.6154 276.248 64.6589C276.236 64.7025 276.214 64.7429 276.185 64.7773C276.156 64.8118 276.119 64.8395 276.078 64.8586C276.037 64.8777 275.992 64.8877 275.947 64.888L265.361 64.8771C265.26 64.8775 265.16 64.8554 265.068 64.8122C264.976 64.7691 264.895 64.706 264.831 64.6277C264.767 64.5494 264.721 64.4577 264.696 64.3593C264.672 64.261 264.669 64.1584 264.689 64.0591C264.794 63.5462 264.78 63.0586 264.646 62.5963C264.62 62.5054 264.559 62.4283 264.476 62.3809C264.394 62.3335 264.295 62.3194 264.202 62.3417C263.602 62.4862 263.133 62.8238 262.793 63.3548C262.748 63.426 262.683 63.4827 262.606 63.5182C262.529 63.5537 262.444 63.5665 262.36 63.5552C261.591 63.4523 261.455 63.9399 260.924 64.162C255.48 66.4428 248.805 66.5186 243.826 62.916C237.482 58.3327 236.437 49.3882 240.532 42.963C241.724 41.0921 243.501 39.4668 245.863 38.0872C250.046 35.6384 252.738 35.1292 256.85 34.3599C258.876 33.9752 260.838 33.9969 262.912 33.9048C263.111 33.8976 263.205 33.7964 263.194 33.6014ZM252.641 55.2447C252.922 55.4505 253.298 55.5769 253.768 55.6239C256.874 55.9381 259.47 55.0749 261.558 53.0343C264.099 50.553 263.46 47.1291 263.47 43.9923C263.47 43.7431 263.346 43.6149 263.097 43.6077C259.857 43.521 255.669 43.9707 252.852 45.7964C251.678 46.5585 250.894 47.539 250.501 48.7381C249.862 50.6668 250.15 52.5774 251.368 54.4699C251.579 54.795 251.871 54.8708 252.218 54.9575C252.233 54.9633 252.283 54.9951 252.36 55.0475C252.437 55.0998 252.536 55.1695 252.641 55.2447Z" fill="black"/>
<path d="M76.1845 53.7547C77.5659 51.1217 76.4878 48.7434 73.8657 47.6653C73.7032 47.6003 73.5678 47.4992 73.4594 47.3619C73.091 46.8852 72.3542 47.2211 71.8937 46.7118C71.7745 46.5818 71.6319 46.4915 71.4657 46.4409C67.9299 45.3646 64.8744 43.7321 62.2992 41.5434C54.2703 34.7335 57.911 22.7444 67.0017 19.1959C72.4463 17.0668 78.0806 17.5002 83.7095 19.5155C84.7768 19.9002 85.5786 20.572 86.5429 21.0433C87.193 21.3575 87.4043 21.8559 87.1767 22.5386C86.3171 25.1462 85.4756 27.7683 84.6521 30.4049C84.6088 30.5385 84.5402 30.6631 84.4463 30.7787C84.2982 30.9629 84.2169 31.0785 84.2025 31.1254C84.0616 31.6347 83.8269 31.6545 83.4982 31.185C83.2418 30.813 82.9023 30.5602 82.4797 30.4266C82.2919 30.3688 82.1257 30.2731 81.9813 30.1394C81.7212 29.8974 81.4142 29.7439 81.0603 29.6789C80.9744 29.6634 80.8927 29.6309 80.8201 29.5834C80.7475 29.5359 80.6855 29.4744 80.6377 29.4026L80.5348 29.2618C80.4373 29.1209 80.3036 29.0342 80.1339 29.0017C79.7366 28.9295 79.1497 28.7272 78.3732 28.395C77.0368 27.8207 75.0233 27.7087 72.3326 28.0591C72.1664 28.0807 72.0165 28.1403 71.8829 28.2378C71.3574 28.6225 70.8156 28.7688 70.4418 29.2997C69.5028 30.6288 69.4901 31.9435 70.4039 33.2437C70.7506 33.7367 71.2924 33.9046 71.7691 34.2893C71.9822 34.4627 72.1755 34.5891 72.3488 34.6685C77.1813 36.9493 83.0323 38.4121 86.3045 43.2825C91.9388 51.6797 87.1442 62.4716 77.4305 64.9311C70.4454 66.7009 63.789 65.8485 57.4613 62.374C56.394 61.7889 56.432 61.361 56.7516 60.2829C57.38 58.1772 58.059 56.0878 58.7886 54.0147C58.9872 53.4441 59.1209 52.8951 59.1895 52.3678C59.2061 52.2412 59.2585 52.122 59.3404 52.0242C59.4224 51.9263 59.5305 51.8538 59.6521 51.8151C59.7737 51.7765 59.9039 51.7733 60.0273 51.8059C60.1507 51.8385 60.2622 51.9056 60.3489 51.9994C60.9123 52.6061 61.8766 52.8608 62.608 53.3104C65.9723 55.3799 71.2761 56.5122 74.9763 54.8219C75.3989 54.6323 75.4693 54.3831 75.8594 54.1231C76.0003 54.0292 76.1086 53.9064 76.1845 53.7547Z" fill="black"/>
<path d="M134.207 21.4173C134.76 20.8809 135.139 20.3933 135.941 20.0087C136.488 19.7432 136.883 19.3044 137.441 19.1094C138.552 18.7356 139.614 18.2209 140.741 18.0259C142.976 17.6394 144.536 17.5888 145.421 17.8742C146.046 18.0764 146.577 18.145 147.014 18.08C147.491 18.0114 147.729 18.2173 147.729 18.6976L147.74 29.8091C147.74 30.4773 147.569 30.517 147.225 29.9283C147.204 29.8886 147.032 29.8452 146.711 29.7983C143.975 29.4082 141.45 29.0669 138.909 30.4538C138.362 30.7463 138.146 31.2881 137.566 31.6186C137.423 31.7008 137.298 31.8114 137.197 31.9436C135.551 34.1396 134.722 36.3174 134.711 38.4772C134.675 46.9864 134.669 55.4975 134.695 64.0103C134.698 64.2126 134.709 64.3299 134.727 64.3624C134.758 64.4149 134.774 64.4746 134.776 64.5353C134.777 64.5961 134.762 64.6559 134.734 64.7086C134.705 64.7613 134.663 64.8051 134.613 64.8357C134.562 64.8662 134.504 64.8824 134.445 64.8825L122.505 64.8554C122.464 64.8553 122.424 64.8441 122.389 64.8231C122.354 64.802 122.325 64.7718 122.305 64.7358C122.286 64.6997 122.277 64.6591 122.278 64.6182C122.28 64.5773 122.293 64.5376 122.315 64.5033L122.424 64.3462C122.478 64.2631 122.505 64.1728 122.505 64.0753C122.563 52.6984 122.574 41.3215 122.537 29.9445C122.537 29.717 122.375 29.4678 122.38 29.2186C122.467 25.773 122.353 22.3635 122.039 18.9902C122.035 18.9391 122.041 18.8876 122.057 18.8391C122.073 18.7905 122.099 18.7459 122.133 18.7082C122.167 18.6705 122.209 18.6404 122.255 18.6199C122.301 18.5994 122.352 18.589 122.402 18.5893L132.647 18.5947C132.745 18.5947 132.842 18.6141 132.932 18.6519C133.023 18.6897 133.105 18.745 133.174 18.8147C133.242 18.8843 133.296 18.9669 133.332 19.0575C133.368 19.1481 133.386 19.2449 133.383 19.3423L133.346 21.0434C133.324 21.8778 133.611 22.0024 134.207 21.4173Z" fill="black"/>
<path d="M299.394 46.2026C299.43 46.2128 299.467 46.209 299.5 46.1918C299.532 46.1746 299.557 46.1454 299.568 46.1105L308.767 18.9034C308.799 18.8103 308.859 18.7294 308.94 18.672C309.02 18.6147 309.117 18.5839 309.217 18.5838L321.065 18.6217C321.513 18.6217 321.657 18.8312 321.498 19.2502C316.771 31.7359 312.005 44.1746 307.201 56.5665C305.56 60.803 303.534 65.2183 301.654 68.7669C297.78 76.0914 291.014 83.0205 282.345 83.9957C282.186 84.0137 282.024 83.9748 281.89 83.8858C281.755 83.7967 281.656 83.6631 281.609 83.5081L278.754 73.984C278.745 73.9503 278.75 73.9146 278.767 73.8843C278.784 73.8541 278.812 73.8316 278.846 73.8215C285.404 72.0012 290.022 67.9669 292.698 61.7186C292.817 61.4368 292.82 61.1201 292.709 60.8355C291.81 58.5656 290.943 56.2522 289.935 53.9931C289.657 53.3719 289.446 52.7272 289.302 52.059C289.262 51.887 289.194 51.7239 289.101 51.5769C288.982 51.3927 288.839 51.0911 288.673 50.6721C284.433 40.1151 280.204 29.5598 275.985 19.0064C275.968 18.9632 275.961 18.9164 275.965 18.8701C275.97 18.8237 275.985 18.7791 276.011 18.7402C276.037 18.7013 276.071 18.6692 276.112 18.6466C276.153 18.6241 276.199 18.6118 276.245 18.6109L288.7 18.5784C288.87 18.5784 288.984 18.6578 289.041 18.8167C292.397 27.846 295.739 36.8735 299.069 45.8992C299.127 46.0509 299.236 46.1521 299.394 46.2026Z" fill="black"/>
</svg>
