<svg width="483" height="124" viewBox="0 0 483 124" fill="none" xmlns="http://www.w3.org/2000/svg">
<path d="M93.0136 49.4426H95.7159C97.3748 49.4426 98.4454 48.4521 98.4454 46.7509C98.4454 45.0996 97.5759 44.0139 95.7159 44.0139H93.0136M93.0136 40.2621H95.4936C97.1298 40.2621 98.1671 39.5347 98.1671 37.9787C98.1671 36.4514 97.0496 35.6181 95.4936 35.6181H93.0136V40.2621ZM84.6738 54.2181V51.6036C85.6099 51.2421 86.1512 50.5269 86.186 49.736V35.1887C86.1512 34.3948 85.6099 33.681 84.6738 33.3241V30.7096H96.3964C98.4983 30.7096 100.85 30.6808 102.667 31.6713C104.676 32.7419 105.338 34.7154 105.338 36.6646C105.338 39.3487 104.11 41.1921 101.101 41.927V41.983C104.552 42.3686 105.742 44.7836 105.742 47.5282C105.742 49.4472 105.238 51.5839 103.486 52.8209C101.573 54.1894 99.1229 54.2212 96.7744 54.2212H84.6738V54.2181Z" fill="#1F4396"/>
<path d="M117.048 46.3791C115.731 46.8478 112.987 47.4225 112.987 48.9573C112.987 49.8117 113.401 50.7932 114.738 50.7932C115.928 50.7932 116.206 50.6495 117.047 50.1353M117.479 52.9012C115.911 54.0519 113.932 54.5736 111.893 54.5736C108.441 54.5736 106.723 52.4445 106.723 49.6409C106.723 46.181 108.662 45.1648 111.987 44.206L116.949 42.8617V41.286C116.949 40.4346 116.164 39.736 115.129 39.736C113.939 39.736 113.115 40.4361 113.115 41.286V42.9706H107.538V39.2052C110.082 37.6174 112.834 36.5815 115.907 36.5815C117.883 36.5815 119.534 36.8537 121.198 37.9531C123.268 39.3791 123.298 41.1922 123.268 43.1944V49.5758C123.268 50.4816 123.173 51.2755 124.175 51.9061L124.621 54.2213H117.927" fill="#1F4396"/>
<path d="M238.266 49.4426H240.968C242.63 49.4426 243.698 48.4521 243.698 46.7509C243.698 45.0996 242.825 44.0139 240.968 44.0139H238.266M238.266 40.2621H240.748C242.385 40.2621 243.42 39.5347 243.42 37.9787C243.42 36.4514 242.304 35.6181 240.748 35.6181H238.266V40.2621ZM229.925 54.2181V51.6036C230.867 51.2421 231.407 50.5269 231.437 49.736V35.1887C231.405 34.3948 230.865 33.681 229.925 33.3241V30.7096H241.652C243.754 30.7096 246.107 30.6808 247.924 31.6713C249.931 32.7419 250.593 34.7154 250.593 36.6646C250.593 39.3487 249.369 41.1921 246.356 41.927V41.983C249.806 42.3686 250.997 44.7836 250.997 47.5282C250.997 49.4472 250.494 51.5839 248.743 52.8209C246.827 54.1894 244.377 54.2212 242.028 54.2212H229.925V54.2181Z" fill="#1F4396"/>
<path d="M262.201 46.3791C260.889 46.8478 258.146 47.4225 258.146 48.9573C258.146 49.8117 258.555 50.7932 259.891 50.7932C261.082 50.7932 261.362 50.6495 262.2 50.1353M262.634 52.9012C261.066 54.0519 259.085 54.5736 257.043 54.5736C253.595 54.5736 251.876 52.4445 251.876 49.6409C251.876 46.181 253.813 45.1648 257.14 44.206L262.1 42.8617V41.286C262.1 40.4346 261.317 39.736 260.284 39.736C259.091 39.736 258.265 40.4361 258.265 41.286V42.9706H252.693V39.2052C255.23 37.6174 257.982 36.5815 261.06 36.5815C263.033 36.5815 264.686 36.8537 266.349 37.9531C268.418 39.3791 268.45 41.1922 268.418 43.1944V49.5758C268.418 50.4816 268.323 51.2755 269.327 51.9061L269.774 54.2213H263.075L262.634 52.9012Z" fill="#1F4396"/>
<path d="M133.066 38.006C135.106 36.8084 137.164 36.5422 138.171 36.58C139.713 36.633 140.835 37.076 141.59 37.7308C142.936 38.8574 143.093 40.1156 143.093 41.599V49.4337C143.093 50.282 143.442 51.2408 144.415 51.708V54.2183H136.99C136.55 52.4611 136.582 50.6238 136.582 48.8424V42.8194C136.582 42.712 136.672 41.9181 136.361 41.2845C135.857 40.6267 134.595 40.1352 133.373 40.6267V49.6288C133.373 50.4771 133.277 51.4389 134.283 51.9031V54.2183H125.508V51.9031C126.482 51.4117 126.861 50.6132 126.861 49.7361V41.968C126.861 41.038 126.451 40.4301 125.508 39.8282V36.9354H133.063" fill="#1F4396"/>
<path d="M278.495 38.006C280.533 36.8084 282.596 36.5422 283.608 36.58C285.144 36.633 286.269 37.076 287.025 37.7308C288.372 38.8574 288.528 40.1156 288.528 41.599V49.4337C288.528 50.282 288.878 51.2408 289.848 51.708V54.2183H282.42C281.983 52.4611 282.015 50.6238 282.015 48.8424V42.8194C282.015 42.712 282.109 41.9181 281.796 41.2845C281.292 40.6267 280.03 40.1352 278.806 40.6267V49.6288C278.806 50.4771 278.714 51.4389 279.72 51.9031V54.2183H270.943V51.9031C271.914 51.4117 272.295 50.6132 272.295 49.7361V41.968C272.295 41.038 271.882 40.4301 270.943 39.8282V36.9354H278.493" fill="#1F4396"/>
<path d="M156.14 40.8988C155.801 40.6946 154.649 40.5615 154.221 40.5615C152.078 40.5615 151.79 42.3958 151.79 43.3334V47.3256C151.79 48.2132 152.198 50.3848 154.251 50.3848C154.62 50.3848 155.801 50.2789 156.142 50.0974M164.011 39.2429C163.039 39.7676 162.658 40.5116 162.658 41.3857V53.4197C162.658 55.369 162.753 58.0002 161.028 59.4549C159.332 60.9127 157.147 61.1561 154.89 61.1561C151.596 61.1561 149.337 60.0356 146.451 58.6383V55.369H152.434C152.434 55.564 152.465 56.6362 152.655 57.0263C152.871 57.4074 153.662 57.6766 154.259 57.6766C155.888 57.6766 156.146 55.3962 156.146 54.4072V53.3109C154.828 54.1879 152.974 54.5735 151.566 54.5735C146.68 54.5735 145.475 51.4251 145.475 47.6386V44.2513C145.475 40.495 145.895 36.5769 151.216 36.5769C152.975 36.5769 154.921 36.9928 156.335 37.9228V36.9368H164.013L164.011 39.2429Z" fill="#1F4396"/>
<path d="M172.04 42.6772L174.418 40.9125C175.257 40.1065 175.456 39.1311 175.456 37.6235V36.9369H182.502V39.2476C182.254 39.3625 181.563 39.6075 181.03 40.1821L176.993 43.7358L181.03 49.5486C181.533 50.4484 181.91 51.4132 183.103 51.9077V54.2213H176.812L172.105 46.6997H172.041V49.6303C172.041 50.5603 172.393 51.2741 173.396 51.9077V54.2213H164.618V51.9077C165.56 51.2741 165.973 50.6692 165.973 49.7392V35.3007C165.973 34.3662 165.62 33.6555 164.618 33.0234V30.7097H172.041" fill="#1F4396"/>
<path d="M298.24 42.6772L300.617 40.9125C301.459 40.1065 301.654 39.1311 301.654 37.6235V36.9369H308.701V39.2476C308.452 39.3625 307.762 39.6075 307.227 40.1821L303.188 43.7358L307.227 49.5486C307.732 50.4484 308.11 51.4132 309.303 51.9077V54.2213H303.011L298.305 46.6997H298.24V49.6303C298.24 50.5603 298.591 51.2741 299.593 51.9077V54.2213H290.818V51.9077C291.757 51.2741 292.171 50.6692 292.171 49.7392V35.3007C292.171 34.3662 291.822 33.6555 290.818 33.0234V30.7097H298.24" fill="#1F4396"/>
<path d="M208.737 42.6772L211.114 40.9125C211.957 40.1065 212.153 39.1311 212.153 37.6235V36.9369H219.202V39.2476C218.954 39.3625 218.258 39.6075 217.729 40.1821L213.687 43.7358L217.729 49.5486C218.234 50.4484 218.61 51.4132 219.797 51.9077V54.2213H213.511L208.804 46.6997H208.737V49.6303C208.737 50.5603 209.09 51.2741 210.092 51.9077V54.2213H201.315V51.9077C202.255 51.2741 202.669 50.6692 202.669 49.7392V35.3007C202.669 34.3662 202.317 33.6555 201.315 33.0234V30.7097H208.736" fill="#1F4396"/>
<path d="M189.815 49.0572C189.815 49.9902 190.529 51.4162 191.922 51.4162C193.475 51.4162 194.06 49.9902 194.06 49.0572V42.3158C194.06 41.3828 193.537 39.7345 191.949 39.7345C190.358 39.7345 189.815 41.3556 189.815 42.3158M200.747 47.6327C200.747 49.5562 200.685 51.7202 198.894 53.066C197.107 54.4073 194.476 54.5737 192.218 54.5737C190.174 54.5737 187.29 54.4331 185.566 53.4199C183.149 52.0241 183.149 49.9101 183.149 47.6327V43.1354C183.149 41.2664 183.183 39.24 185.035 37.9789C186.821 36.7434 189.238 36.5801 191.463 36.5801C193.47 36.5801 196.481 36.7132 198.206 37.5948C200.59 38.8559 200.747 40.9412 200.747 43.137V47.6327Z" fill="#1F4396"/>
<path d="M472.671 94.6136C472.708 97.263 472.304 97.3174 470.997 97.6002H455.066C453.896 97.6667 452.816 96.953 452.75 95.6525L452.782 74.5785C452.518 74.1173 452.284 73.6243 451.724 73.5124C451.228 73.4776 450.72 73.5895 450.459 73.9313L450.082 74.7706L450.058 95.226C450.058 96.525 449.512 97.7423 447.43 97.5987H432.718C431.835 97.6652 429.666 97.6259 429.601 95.5874L429.737 74.7691C429.583 74.0432 429.784 73.3279 428.37 73.3279L426.43 73.2327C425.405 73.3279 425.322 72.6777 425.322 72.1197V67.7389C425.497 66.9056 425.781 66.7484 427.929 66.7484H437.239C438.727 66.7484 438.532 68.3936 438.532 68.3936L438.584 89.4555C438.7 89.9046 438.771 90.5488 439.299 90.7409C439.878 91.0811 440.394 90.9889 441.041 90.8407C441.041 90.8407 441.827 90.5564 441.827 89.3375L441.777 70.7013C441.808 69.3433 441.856 67.193 444.77 66.7741C447.182 66.7741 454.938 66.7423 457.875 66.7741C459.385 66.7741 460.843 67.0795 461.192 68.6432L461.201 90.0982C461.322 90.4747 461.62 90.8951 462.047 91.0781C462.803 91.2626 463.329 91.1582 463.678 90.6653L463.946 90.201L464.131 83.75L464.102 68.3558C464.102 67.2413 464.014 66.6833 465.505 66.6833H471.368C472.337 66.7469 472.671 67.1521 472.717 68.0791L472.671 94.6136Z" fill="#1F4396"/>
<path d="M422.739 96.2361C422.805 97.529 422.02 97.6001 421.515 97.529H415.048C415.048 97.529 413.827 97.6666 413.827 96.0864L413.759 74.6072C413.644 73.9267 413.395 73.845 412.82 73.3914C411.955 73.0844 411.524 73.2069 410.568 73.2795C408.94 73.8057 409.664 75.8577 409.474 77.2656L409.446 94.7284C409.446 96.8077 409.664 97.5305 407.866 97.5305H391.057C389.803 97.5502 388.459 97.4595 388.468 94.5817L388.409 74.527C388.244 73.8057 388.114 73.104 387.116 73.0919C387.116 73.0919 385.374 73.1645 384.584 73.095C383.731 73.0315 383.731 72.0258 383.731 72.0258L383.747 67.6193C383.747 66.6863 385.148 66.6863 385.148 66.6863L395.369 66.7105C395.369 66.7105 396.809 66.8587 396.95 68.4344L396.987 89.9196C396.95 90.4519 397.433 90.9116 397.819 91.1778C398.503 91.4787 399.531 91.4001 400.177 91.1037C400.673 90.7982 400.901 90.4928 400.828 89.7684L400.863 69.2918C401.019 68.3467 401.194 66.7785 403.14 66.7785H418.509C421.822 66.6863 422.758 67.3395 422.758 69.8558L422.739 96.2361Z" fill="#1F4396"/>
<path d="M384.308 97.0225C384.308 97.6667 383.812 97.6001 383.292 97.6213L372.245 97.5986C371.085 97.6652 370.819 97.2614 370.452 96.5174L370.411 67.4681C370.411 67.4681 370.334 66.7468 371.102 66.7468H378.546L379.375 67.3169L379.292 89.4388C379.371 90.3053 379.292 91.0901 380.134 91.3911C380.134 91.3911 382.958 91.4153 383.664 91.4153C384.39 91.4153 384.355 92.2636 384.355 92.2636L384.308 97.0225Z" fill="#1F4396"/>
<path d="M366.72 94.7163C366.457 95.9699 365.818 97.2644 364.532 97.6001C364.532 97.6001 343.025 97.5547 343.066 97.5487C341.344 97.5547 341.155 96.8697 340.727 95.7703C340.727 95.7703 340.748 88.4074 340.795 84.8477C340.795 84.4243 341.334 83.7484 341.666 83.6697C342.579 83.5866 348.324 83.6365 348.324 83.6365C349.449 83.6365 349.379 84.2852 349.537 85.1245V90.1465C349.794 90.3446 349.91 91.1748 351.212 91.1748L356.358 91.1899C357.362 91.267 357.613 90.5396 357.767 89.8198L357.805 74.7145C357.917 73.8359 357.371 72.9604 355.871 73.0224L352.115 73.0798C351.407 73.0224 350.482 73.2991 350.38 71.9986C350.38 71.9986 350.38 69.1073 350.364 67.0129L350.814 66.7437L364.358 66.6787C365.54 66.9509 366.576 67.2443 366.676 69.012L366.72 94.7163Z" fill="#1F4396"/>
<path d="M337.036 95.4542C337.148 97.0677 335.757 97.3233 334.768 97.5864L321.524 97.5426C320.91 97.6227 320.448 97.6106 320.377 96.8485C320.334 95.9744 320.377 93.9602 320.377 92.011C320.377 92.011 320.192 91.081 321.397 91.081L326.923 91.022C327.948 91.022 328.42 90.464 328.323 89.4402C328.323 89.4402 328.264 85.3331 328.323 84.0372C328.166 83.3158 327.688 82.8138 326.923 82.5461L314.093 82.5159C312.36 82.5159 311.615 81.7674 311.499 80.1523L311.541 69.942C311.391 67.5905 312.581 66.7815 314.627 66.7815H335.963C336.3 66.8616 337.259 66.7346 337.259 68.4585V72.177C337.259 73.5773 335.963 73.358 335.148 73.414L321.216 73.4881C320.528 73.7179 320.268 74.2427 320.191 74.9232C320.082 75.6142 320.495 75.9923 320.951 76.4142C321.821 76.7801 322.999 76.4852 323.954 76.6743L335.319 76.5881C336.928 76.6954 337.035 77.6633 337.035 79.6094L337.036 95.4542Z" fill="#1F4396"/>
<path d="M336.934 113.374C336.28 113.948 335.387 113.722 334.618 113.876L329.196 113.79C328.928 113.607 328.434 113.722 328.434 113.26C327.865 111.29 329.416 108.027 327.094 106.995C325.087 106.546 322.733 106.995 320.768 106.582C320.535 104.76 320.614 102.743 320.694 100.891L321.024 100.576C325.55 100.472 330.068 100.472 334.581 100.576C335.418 100.965 336.327 101.303 336.714 102.215C336.934 102.743 337.089 103.357 337.124 103.96L336.934 113.374Z" fill="#1F4396"/>
<path d="M308.453 96.5355C308.453 96.5355 308.503 97.6 307.584 97.6H300.77C299.645 97.6 299.92 96.6564 299.84 96.1982L299.844 75.7836C299.761 74.7931 298.91 73.7285 297.918 73.4261H291.964C290.661 73.4261 290.617 74.1096 290.508 74.5164L290.473 96.9785C290.473 96.9785 290.706 97.6 289.504 97.6C289.504 97.6 282.82 97.7603 282.12 97.6817C281.394 97.6001 281.522 96.6035 281.522 96.6035V67.9262C281.43 67.0915 281.997 66.7498 283.112 66.7498H304.158C307.319 66.7498 308.453 67.4741 308.453 71.3907V96.5355Z" fill="#1F4396"/>
<path d="M277.026 95.8293C277.026 97.042 276.747 97.6 275.257 97.6C275.257 97.6 261.387 97.6076 261.295 97.6C259.427 97.6 259.647 97.095 259.647 96.7941C259.647 96.7941 259.559 93.7182 259.559 92.4132C259.559 91.1203 260.478 90.9328 260.478 90.9328L266.069 90.9267C266.656 90.9479 268.023 91.3002 268.023 89.7124V85.3361C268.023 83.4777 267.745 83.2932 266.356 83.2009L253.696 83.2236C253.426 82.9197 252.933 83.148 252.632 82.9575C251.714 82.5764 251.262 81.7386 251.076 80.8343V70.0101C250.991 68.4842 251.454 66.7498 255.549 66.7498L273.964 66.7755C276.06 66.7755 276.969 66.4382 276.969 68.395V72.6851C276.969 73.9826 276.036 73.8903 274.642 73.7966L261.776 73.8102C261.253 73.9629 260.68 74.1111 260.376 74.6056C260.19 75.1742 260.105 76.015 260.413 76.579L261.129 77.0372L274.735 76.9601C276.405 77.1431 277.073 79.4643 277.039 80.5667L277.026 95.8293Z" fill="#1F4396"/>
<path d="M247.971 96.1423C247.971 96.1423 248.21 97.6 246.722 97.6H240.389C239.362 97.6 239.089 96.5733 239.089 96.5733L239.11 75.5946C239.075 74.9534 239.167 73.8162 237.875 73.659L232.048 73.6106C230.093 73.7043 230.835 74.7236 230.649 75.3768C230.649 75.3768 231.118 76.9601 229.438 76.6818H222.736C222.736 76.6818 221.72 76.7741 221.72 75.7518V68.4842C221.807 66.2507 223.294 66.7497 224.411 66.7497L245.482 66.78C246.579 66.9751 247.723 67.8899 247.997 69.0014L247.971 96.1423Z" fill="#1F4396"/>
<path d="M182.014 96.1423C182.014 96.1423 182.253 97.6 180.766 97.6H174.436C173.409 97.6 173.13 96.5733 173.13 96.5733L173.152 75.5946C173.113 74.9534 173.213 73.8162 171.915 73.659L166.092 73.6106C164.136 73.7043 164.88 74.7236 164.694 75.3768C164.694 75.3768 165.16 76.9601 163.48 76.6818H156.78C156.78 76.6818 155.754 76.7741 155.754 75.7518V68.4842C155.851 66.2507 157.341 66.7497 158.452 66.7497L179.523 66.78C180.621 66.9751 181.772 67.8899 182.039 69.0014L182.014 96.1423Z" fill="#1F4396"/>
<path d="M218.647 96.236C218.647 96.236 218.7 97.6 217.676 97.6C215.904 97.6 211.343 97.6272 210.791 97.6C209.891 97.5486 209.799 96.3313 209.799 96.3313L209.891 75.6339C209.801 75.0275 209.54 74.35 208.976 74.043L208.143 73.7769H194.937C194.245 73.9689 193.789 74.4241 193.561 75.026L193.599 89.2996C193.67 89.9529 194.205 90.4458 194.783 90.7377C195.615 90.6349 196.374 90.9328 197.015 90.4821L197.47 89.7578L197.547 79.6548C197.588 78.9804 197.233 77.5181 199.282 77.2338H206.171C207.75 77.2338 207.75 78.0776 207.75 78.0776C207.827 79.8151 207.75 82.7336 207.75 82.7336C207.845 83.4746 206.45 83.4746 205.787 83.4549C205.299 83.5321 204.774 83.9509 204.866 85.1531V95.9517C204.68 97.5471 202.633 97.5562 201.567 97.5985H188.539C187.473 97.3641 186.058 97.5471 185.778 95.672L185.819 68.5024C185.964 67.1762 187.104 66.7739 188.173 66.7739H216.327C217.268 67.0779 217.706 67.6676 218.198 68.6082C218.434 69.1874 218.508 69.8603 218.659 70.4682L218.647 96.236Z" fill="#1F4396"/>
<path d="M162.348 97.5487L147.569 97.6001C145.891 97.6001 145.576 96.2996 145.236 95.4634C145.118 92.69 145.236 89.8047 144.889 87.11C144.779 86.6185 144.403 86.3494 143.941 86.2344C143.447 86.1996 143.108 86.4628 142.763 86.6533L142.346 87.4986L142.304 95.2048C142.397 97.5502 141.052 97.5502 139.976 97.5502L125.494 97.5562C124.697 97.3612 124.009 96.9468 123.598 96.2557C122.837 94.0207 123.176 91.2942 123.065 88.9382C123.103 84.1446 123.026 79.4008 122.804 74.7372C122.311 73.3702 119.473 73.6348 119.473 73.6348C118.928 73.7936 118.37 73.5138 118.37 72.7744L118.435 68.2998C118.47 67.4953 118.592 66.8783 118.839 66.6863H129.079C130.401 66.8783 131.265 67.9369 131.646 69.2313C131.712 70.2611 131.83 72.7653 131.83 72.7653C131.906 76.1768 132.213 89.5839 132.213 89.5839C132.359 89.9983 132.703 90.3824 133.085 90.6455C133.649 90.7574 134.333 90.7574 134.755 90.3824L135.172 89.4675C135.284 86.5807 134.602 83.3159 135.473 80.6212C136.538 79.1392 138.697 79.4008 140.341 79.3691C141.548 79.3691 143.33 79.5173 144.586 78.988L144.85 78.2621C144.85 78.2621 144.858 68.6476 144.811 67.9278C144.722 66.4368 145.466 66.7528 145.466 66.7528H152.635C153.568 66.7528 153.845 66.9993 153.755 67.9278L153.819 78.6931C153.966 78.9124 154.12 79.1014 154.386 79.2451L161.619 79.5173C162.821 79.6609 163.654 80.0329 163.936 81.2457L163.943 95.4331C163.931 96.8803 163.461 97.5487 162.348 97.5487ZM156.921 89.7321C157.001 88.6691 157.267 87.296 156.352 86.5777C156.01 86.3161 155.439 86.3161 154.909 86.3161C154.264 86.3478 153.997 86.9603 153.89 87.4971C153.89 88.6675 153.695 90.1465 154.79 90.6425C155.251 90.9056 155.86 90.6712 156.352 90.5638C156.695 90.4051 156.81 90.1087 156.921 89.7321Z" fill="#1F4396"/>
<path d="M115.414 94.2294C115.3 95.2607 114.765 96.3178 113.859 96.8516C113.101 97.3098 112.519 97.5578 111.568 97.6001H90.2143C88.3573 97.3627 86.4384 97.1343 85.5613 95.2713C85.3012 92.38 85.0698 89.2936 85.3012 86.3282L86.1238 85.9214C88.7066 85.8413 92.0244 85.808 94.0976 85.9214C95.0065 87.3565 93.5638 90.0573 95.7263 90.6213C98.6508 90.8557 101.952 90.7831 104.985 90.7045C105.45 90.6667 105.834 90.5124 106.242 90.3597C107.23 89.0653 106.582 87.0208 106.773 85.4678C106.888 84.7026 106.393 84.0176 105.861 83.7166C103.664 83.3356 101.16 83.5276 98.8777 83.5639L87.949 83.7166C86.579 83.3356 85.6308 82.3496 85.4055 80.9418C85.2876 77.193 85.2876 73.7271 85.4055 69.9738C85.5915 68.1516 86.0467 67.1717 87.6466 66.7483H114.084C114.5 66.8602 115.299 67.1762 115.203 68.2045V73.0511C115.203 73.0511 115.203 73.8889 113.714 73.8889C112.506 73.8889 95.6522 73.9645 95.6522 73.9645C95.1607 73.9962 94.6299 74.4544 94.4772 74.9444C94.4772 75.5175 94.3623 76.1224 94.8522 76.5035L95.5403 76.8815C101.767 77.1416 106.833 76.6925 113.25 77.0358C114.468 77.3367 115.262 78.365 115.371 79.5853L115.414 94.2294Z" fill="#1F4396"/>
<path d="M78.8899 59.7755C78.0461 56.5848 76.8257 54.2228 74.8569 50.6147C74.2142 49.5909 73.384 48.4477 72.643 47.2349C64.0825 34.5415 47.1928 12.3894 45.6473 10.9664C45.6473 10.9664 45.5414 10.8848 45.4552 10.8848C45.3585 10.8848 45.2511 10.9664 45.2511 10.9664C43.7147 12.3879 26.8205 34.5415 18.2569 47.2349C17.5174 48.4492 16.6872 49.5924 16.0385 50.6147C14.0727 54.2228 12.8569 56.5848 12.0085 59.7755C10.9591 64.3832 10.9061 70.1129 11.8603 74.8234C12.7223 78.9577 16.651 83.1813 20.6023 86.3357L26.6496 91.1385C26.6496 91.1385 43.5514 103.325 45.1211 104.095C45.1211 104.095 45.2768 104.198 45.4537 104.198C45.6261 104.198 45.7758 104.095 45.7758 104.095C47.3515 103.324 64.2428 91.1385 64.2428 91.1385L70.29 86.3357C74.2459 83.1813 78.1701 78.9577 79.0305 74.8234C79.9862 70.1129 79.9424 64.3832 78.8899 59.7755ZM40.1565 91.5619C40.0371 91.7433 39.7633 91.6859 39.5668 91.6677C38.5793 90.9736 36.1311 89.2014 36.1311 89.2014C31.9226 86.0817 27.6779 83.2025 23.6433 79.9951C17.4524 73.1812 18.08 66.3823 19.9778 59.5502C20.0458 59.1102 20.25 58.4433 20.8322 58.3238C22.5772 60.8991 26.2791 66.2039 26.2791 66.2039C29.8812 71.3816 34.2559 76.0483 38.3918 80.91C41.2317 83.5185 40.0839 87.8993 40.1565 91.5619ZM45.4598 78.0519C45.3751 78.0489 45.239 77.9915 45.1105 77.8584C39.7528 71.5132 33.6752 64.3393 28.3432 57.9685C27.3785 56.3534 26.3955 54.8019 26.2851 52.7212C26.2216 51.0971 26.1203 49.6015 27.4647 47.5661C27.4647 47.5661 28.3523 46.2762 28.6064 45.8966C28.6064 45.8966 39.5305 30.5342 45.2829 23.2545C45.2829 23.2545 45.3585 23.1547 45.4552 23.1547C45.5369 23.1547 45.6095 23.2545 45.6095 23.2545C51.3619 30.5327 62.283 45.8966 62.283 45.8966C62.5415 46.2762 63.4307 47.5661 63.4307 47.5661C64.7705 49.603 64.6692 51.0971 64.5981 52.7212C64.4923 54.8019 63.5048 56.3519 62.5461 57.9685C57.2111 64.3393 51.1366 71.5132 45.7834 77.8584C45.6549 77.9915 45.5263 78.0489 45.4598 78.0519ZM67.2218 79.9951C63.1872 83.2025 58.9365 86.0802 54.7265 89.2014C54.7265 89.2014 52.2828 90.9736 51.2923 91.6677C51.0957 91.6859 50.822 91.7433 50.7071 91.5619C50.7812 87.8993 49.6304 83.52 52.4733 80.9115C56.6092 76.0498 60.981 71.3832 64.5815 66.2054C64.5815 66.2054 68.2833 60.9006 70.0299 58.3254C70.6031 58.4433 70.8117 59.1117 70.8813 59.5517C72.7882 66.3823 73.4097 73.1827 67.2218 79.9951Z" fill="#1F4396"/>
</svg>
