<svg width="137" height="114" viewBox="0 0 137 114" fill="none" xmlns="http://www.w3.org/2000/svg">
<path d="M136.842 94.0939C136.842 99.3733 134.745 104.437 131.012 108.17C127.279 111.903 122.215 114 116.936 114H19.9061C14.6267 114 9.56349 111.903 5.83037 108.17C2.09725 104.437 0 99.3733 0 94.0939V19.9061C0 14.6267 2.09725 9.56349 5.83037 5.83037C9.56349 2.09725 14.6267 0 19.9061 0H116.936C122.215 0 127.279 2.09725 131.012 5.83037C134.745 9.56349 136.842 14.6267 136.842 19.9061V94.0939ZM116.786 112.017C121.575 112.017 126.168 110.114 129.555 106.728C132.941 103.341 134.844 98.7481 134.844 93.9589L134.847 20.0449C134.847 15.2557 132.945 10.6627 129.558 7.27619C126.172 3.88973 121.579 1.98724 116.79 1.98724H20.0261C15.2369 1.98724 10.6439 3.88973 7.25745 7.27619C3.87098 10.6627 1.96849 15.2557 1.96849 20.0449V93.9551C1.96849 98.7443 3.87098 103.337 7.25745 106.724C10.6439 110.11 15.2369 112.013 20.0261 112.013L116.786 112.017Z" fill="#1B1414"/>
<path d="M36.1936 9.39258H31.8817C31.7575 9.39258 31.6567 9.4933 31.6567 9.61755V58.0987C31.6567 58.2229 31.7575 58.3236 31.8817 58.3236H36.1936C36.3179 58.3236 36.4186 58.2229 36.4186 58.0987V9.61755C36.4186 9.4933 36.3179 9.39258 36.1936 9.39258Z" fill="#1B1414"/>
<path d="M47.4088 9.39648H43.1268C42.9964 9.39648 42.8906 9.50224 42.8906 9.6327V58.0838C42.8906 58.2143 42.9964 58.3201 43.1268 58.3201H47.4088C47.5392 58.3201 47.645 58.2143 47.645 58.0838V9.6327C47.645 9.50224 47.5392 9.39648 47.4088 9.39648Z" fill="#1B1414"/>
<path d="M76.4711 9.40015H71.9866C71.9328 9.40015 71.8892 9.44379 71.8892 9.49763V58.2187C71.8892 58.2726 71.9328 58.3162 71.9866 58.3162H76.4711C76.5249 58.3162 76.5685 58.2726 76.5685 58.2187V9.49763C76.5685 9.44379 76.5249 9.40015 76.4711 9.40015Z" fill="#1B1414"/>
<path d="M24.6004 9.40381H18.1362C18.0783 9.40381 18.0312 9.45081 18.0312 9.50879V79.5346C18.0312 79.5926 18.0783 79.6396 18.1362 79.6396H24.6004C24.6584 79.6396 24.7054 79.5926 24.7054 79.5346V9.50879C24.7054 9.45081 24.6584 9.40381 24.6004 9.40381Z" fill="#1B1414"/>
<path d="M53.243 9.40381H51.4883C51.3785 9.40381 51.2896 9.49278 51.2896 9.60253V58.1212C51.2896 58.2309 51.3785 58.3199 51.4883 58.3199H53.243C53.3528 58.3199 53.4418 58.2309 53.4418 58.1212V9.60253C53.4418 9.49278 53.3528 9.40381 53.243 9.40381Z" fill="#1B1414"/>
<path d="M65.3727 9.40381H59.066C58.9646 9.40381 58.8823 9.48607 58.8823 9.58753V58.1362C58.8823 58.2376 58.9646 58.3199 59.066 58.3199H65.3727C65.4742 58.3199 65.5564 58.2376 65.5564 58.1362V9.58753C65.5564 9.48607 65.4742 9.40381 65.3727 9.40381Z" fill="#1B1414"/>
<path d="M83.2804 9.39648H81.5632C81.4493 9.39648 81.3569 9.48881 81.3569 9.60271V58.1138C81.3569 58.2277 81.4493 58.3201 81.5632 58.3201H83.2804C83.3943 58.3201 83.4867 58.2277 83.4867 58.1138V9.60271C83.4867 9.48881 83.3943 9.39648 83.2804 9.39648Z" fill="#1B1414"/>
<path d="M91.7467 9.40381H89.737C89.6811 9.40381 89.6357 9.44913 89.6357 9.50504V58.2111C89.6357 58.2671 89.6811 58.3124 89.737 58.3124H91.7467C91.8026 58.3124 91.8479 58.2671 91.8479 58.2111V9.50504C91.8479 9.44913 91.8026 9.40381 91.7467 9.40381Z" fill="#1B1414"/>
<path d="M103.456 9.39648H97.202C97.0778 9.39648 96.9771 9.49721 96.9771 9.62145V58.0951C96.9771 58.2193 97.0778 58.3201 97.202 58.3201H103.456C103.58 58.3201 103.681 58.2193 103.681 58.0951V9.62145C103.681 9.49721 103.58 9.39648 103.456 9.39648Z" fill="#1B1414"/>
<path d="M113.862 9.40381H109.377C109.303 9.40381 109.242 9.46424 109.242 9.53879V58.1849C109.242 58.2594 109.303 58.3199 109.377 58.3199H113.862C113.936 58.3199 113.997 58.2594 113.997 58.1849V9.53879C113.997 9.46424 113.936 9.40381 113.862 9.40381Z" fill="#1B1414"/>
<path d="M118.687 9.39258H116.887C116.781 9.39258 116.696 9.47819 116.696 9.5838V79.4596C116.696 79.5652 116.781 79.6508 116.887 79.6508H118.687C118.792 79.6508 118.878 79.5652 118.878 79.4596V9.5838C118.878 9.47819 118.792 9.39258 118.687 9.39258Z" fill="#1B1414"/>
<path d="M44.6078 74.5814C44.9353 74.7038 45.3265 74.8651 45.7814 75.065C49.0173 76.4861 48.5261 80.6893 45.6689 82.0954C44.2404 82.7965 42.5793 82.984 40.7983 82.9953C38.1362 83.0128 35.5015 83.0165 32.8944 83.0065C32.8135 83.0055 32.7362 82.9727 32.6794 82.9151C32.6225 82.8576 32.5907 82.7799 32.5907 82.699L32.5869 67.0486C32.5869 67.0178 32.5992 66.9882 32.621 66.9664C32.6428 66.9446 32.6723 66.9324 32.7031 66.9324C35.2353 66.9474 37.755 66.9511 40.2622 66.9436C42.3656 66.9361 44.7091 67.1648 46.1564 68.8634C46.8463 69.6758 47.1075 70.5456 46.94 71.473C46.7326 72.6079 45.9489 73.5715 44.5891 74.3639C44.4466 74.4489 44.4529 74.5214 44.6078 74.5814ZM35.2191 69.1146L35.2116 73.4415C35.2116 73.5171 35.2416 73.5896 35.295 73.643C35.3485 73.6965 35.421 73.7265 35.4965 73.7265L41.1058 73.7377C41.5364 73.7384 41.9628 73.6791 42.3607 73.563C42.7587 73.4469 43.1203 73.2764 43.425 73.0612C43.7297 72.846 43.9714 72.5904 44.1364 72.3088C44.3014 72.0273 44.3864 71.7255 44.3866 71.4205V71.1656C44.387 70.5503 44.0424 69.9598 43.4286 69.5239C42.8148 69.088 41.982 68.8423 41.1133 68.8409L35.504 68.8296C35.4285 68.8296 35.356 68.8596 35.3025 68.9131C35.2491 68.9665 35.2191 69.039 35.2191 69.1146ZM35.2191 75.8412L35.2266 80.918C35.2266 80.9837 35.2526 81.0466 35.299 81.093C35.3455 81.1394 35.4084 81.1655 35.474 81.1655L41.357 81.1542C42.3836 81.1526 43.3678 80.878 44.0934 80.3908C44.819 79.9035 45.2265 79.2436 45.2265 78.5558V78.1734C45.2265 77.8324 45.1262 77.4949 44.9313 77.1802C44.7364 76.8654 44.4508 76.5795 44.0907 76.3389C43.7307 76.0983 43.3032 75.9076 42.8329 75.7778C42.3625 75.648 41.8585 75.5817 41.3495 75.5825L35.4665 75.5937C35.4009 75.5937 35.338 75.6198 35.2916 75.6662C35.2451 75.7126 35.2191 75.7756 35.2191 75.8412Z" fill="#1B1414"/>
<path d="M69.7069 66.9475H67.5097C67.4248 66.9475 67.356 67.0163 67.356 67.1012V82.8492C67.356 82.9341 67.4248 83.0029 67.5097 83.0029H69.7069C69.7918 83.0029 69.8606 82.9341 69.8606 82.8492V67.1012C69.8606 67.0163 69.7918 66.9475 69.7069 66.9475Z" fill="#1B1414"/>
<path d="M92.6841 73.0966C92.6641 75.3913 92.6541 77.6848 92.6541 79.977C92.6541 81.3605 93.8652 81.5405 94.9525 81.2931C95.1275 81.2556 95.235 81.3231 95.275 81.4955L95.5412 82.6879C95.5812 82.8653 95.5125 82.9766 95.335 83.0216C93.4827 83.4678 90.2506 83.3928 90.2132 80.6331C90.1757 78.1335 90.1719 75.6326 90.2019 73.1304C90.2024 73.0999 90.1967 73.0696 90.185 73.0414C90.1732 73.0131 90.1558 72.9876 90.1337 72.9662C90.1116 72.9448 90.0853 72.928 90.0564 72.9169C90.0276 72.9058 89.9967 72.9007 89.9657 72.9017L88.6271 72.9392C88.5899 72.9402 88.5528 72.9337 88.5181 72.9203C88.4833 72.9068 88.4516 72.8866 88.4247 72.8608C88.3979 72.835 88.3764 72.8041 88.3616 72.7699C88.3468 72.7357 88.3389 72.6989 88.3384 72.6617L88.3271 71.5593C88.3271 71.4319 88.3909 71.3681 88.5184 71.3681L89.8719 71.3794C89.9161 71.3794 89.9598 71.3707 90.0005 71.3539C90.0413 71.3371 90.0782 71.3124 90.1093 71.2814C90.1403 71.2503 90.1648 71.2135 90.1813 71.1731C90.1979 71.1326 90.2062 71.0893 90.2057 71.0457L90.1794 68.9009C90.1769 68.641 90.2931 68.4522 90.5281 68.3348L92.3766 67.4236C92.5866 67.3186 92.6916 67.3836 92.6916 67.6186L92.6578 71.2294C92.6578 71.2731 92.6752 71.3151 92.7061 71.346C92.7371 71.377 92.779 71.3944 92.8228 71.3944L94.9938 71.3794C95.1563 71.3794 95.235 71.4606 95.23 71.6231L95.2037 72.7517C95.1987 72.8767 95.135 72.9379 95.0125 72.9354L92.8715 72.9129C92.7491 72.9104 92.6866 72.9717 92.6841 73.0966Z" fill="#1B1414"/>
<path d="M64.3767 77.6768C64.3818 79.1257 63.8111 80.5173 62.7901 81.5453C61.7692 82.5734 60.3816 83.1538 58.9328 83.1589L56.1057 83.1688C55.3883 83.1713 54.6774 83.0325 54.0136 82.7602C53.3499 82.488 52.7462 82.0877 52.2372 81.5822C51.7281 81.0767 51.3236 80.4758 51.0467 79.814C50.7699 79.1521 50.6261 78.4422 50.6236 77.7248L50.6202 76.7425C50.6151 75.2936 51.1858 73.902 52.2068 72.874C53.2277 71.8459 54.6152 71.2655 56.0641 71.2604L58.8912 71.2505C59.6086 71.248 60.3195 71.3868 60.9832 71.6591C61.647 71.9313 62.2507 72.3316 62.7597 72.8371C63.2688 73.3426 63.6733 73.9435 63.9501 74.6053C64.227 75.2672 64.3708 75.9771 64.3733 76.6945L64.3767 77.6768ZM61.8496 76.7149C61.8532 75.6718 61.4423 74.6699 60.7073 73.9297C59.9722 73.1895 58.9733 72.7716 57.9301 72.768L57.0902 72.7651C56.5737 72.7633 56.0619 72.8632 55.584 73.0592C55.1061 73.2552 54.6715 73.5434 54.305 73.9074C53.9385 74.2713 53.6473 74.7039 53.4479 75.1804C53.2486 75.6569 53.1451 76.168 53.1433 76.6845L53.1398 77.6894C53.1361 78.7326 53.547 79.7344 54.2821 80.4746C55.0171 81.2148 56.0161 81.6327 57.0593 81.6363L57.8991 81.6392C58.4157 81.6411 58.9275 81.5411 59.4054 81.3451C59.8833 81.1491 60.3179 80.8609 60.6844 80.497C61.0509 80.133 61.3421 79.7004 61.5414 79.2239C61.7408 78.7474 61.8443 78.2363 61.8461 77.7198L61.8496 76.7149Z" fill="#1B1414"/>
<path d="M75.5564 77.8923C76.01 82.073 81.7993 83.0328 83.6665 79.7783C83.839 79.4808 84.0952 79.3433 84.4352 79.3658L86.1825 79.4783C86.2421 79.4822 86.2997 79.5017 86.3494 79.5348C86.3992 79.5679 86.4393 79.6135 86.4659 79.6671C86.4925 79.7206 86.5046 79.7802 86.5009 79.8398C86.4972 79.8995 86.4779 79.9571 86.4449 80.007C84.8026 82.4967 82.9241 83.3178 79.9208 83.3103C78.6085 83.3078 77.3574 83.0491 76.1675 82.5342C72.3843 80.8956 71.9718 75.6313 74.6452 72.9992C76.49 71.1844 79.8195 70.7232 82.253 71.4281C85.1801 72.278 86.6499 74.2502 86.6624 77.3448C86.6649 77.5948 86.5412 77.7198 86.2912 77.7198H75.7101C75.5951 77.7198 75.5439 77.7773 75.5564 77.8923ZM75.7663 76.1487H83.9402C83.9491 76.1487 83.9579 76.147 83.9661 76.1436C83.9743 76.1402 83.9817 76.1352 83.988 76.129C83.9942 76.1227 83.9992 76.1153 84.0026 76.1071C84.006 76.0989 84.0077 76.0901 84.0077 76.0813V76.055C84.0077 75.6212 83.9057 75.1917 83.7075 74.7909C83.5093 74.3901 83.2187 74.026 82.8524 73.7192C82.4862 73.4125 82.0513 73.1692 81.5728 73.0031C81.0942 72.8371 80.5813 72.7517 80.0633 72.7517H79.6433C78.5972 72.7517 77.5939 73.0997 76.8542 73.7192C76.1144 74.3387 75.6988 75.1789 75.6988 76.055V76.0813C75.6988 76.0992 75.7059 76.1163 75.7186 76.129C75.7313 76.1416 75.7484 76.1487 75.7663 76.1487Z" fill="#1B1414"/>
<path d="M110.59 77.6126C110.6 78.3299 110.469 79.0422 110.204 79.7088C109.938 80.3754 109.544 80.9832 109.044 81.4975C108.544 82.0118 107.948 82.4226 107.289 82.7064C106.63 82.9902 105.921 83.1414 105.204 83.1514L102.385 83.1907C100.936 83.211 99.5385 82.6548 98.4997 81.6447C97.461 80.6346 96.8661 79.2533 96.8459 77.8045L96.8321 76.8148C96.8221 76.0974 96.9534 75.3851 97.2187 74.7185C97.4839 74.052 97.8779 73.4442 98.378 72.9298C98.8782 72.4155 99.4748 72.0047 100.134 71.721C100.793 71.4372 101.501 71.286 102.218 71.276L105.038 71.2366C106.486 71.2164 107.884 71.7725 108.923 72.7826C109.961 73.7927 110.556 75.1741 110.576 76.6228L110.59 77.6126ZM108.101 76.753C108.105 76.2345 108.006 75.7204 107.811 75.24C107.616 74.7596 107.328 74.3224 106.964 73.9532C106.6 73.584 106.167 73.2901 105.69 73.0884C105.212 72.8866 104.699 72.7809 104.181 72.7773L103.341 72.7714C102.294 72.7641 101.287 73.1731 100.541 73.9083C99.7955 74.6436 99.3725 75.6449 99.3652 76.692L99.3585 77.6593C99.3548 78.1778 99.4534 78.6919 99.6484 79.1723C99.8435 79.6527 100.131 80.09 100.495 80.4592C100.859 80.8283 101.293 81.1222 101.77 81.324C102.248 81.5257 102.761 81.6314 103.279 81.6351L104.119 81.6409C105.166 81.6482 106.173 81.2393 106.919 80.504C107.664 79.7688 108.087 78.7674 108.095 77.7203L108.101 76.753Z" fill="#1B1414"/>
<path d="M28.5599 95.234C33.9705 96.7525 32.7369 102.561 27.8813 103.404C24.3155 104.023 20.3035 103.738 16.6928 103.734C16.658 103.734 16.6246 103.72 16.6 103.696C16.5754 103.671 16.5615 103.638 16.5615 103.603V87.8512C16.5615 87.7932 16.5847 87.7375 16.6261 87.6961C16.6675 87.6547 16.7237 87.631 16.7827 87.63C19.6999 87.595 22.6495 87.6112 25.6316 87.6787C27.8625 87.7275 30.5397 88.7398 31.0309 91.1245C31.4321 93.0893 30.161 94.1654 28.5374 95.009C28.3575 95.104 28.365 95.179 28.5599 95.234ZM19.3362 89.5947L19.3137 94.2891C19.3137 94.312 19.3228 94.3339 19.3389 94.3501C19.3551 94.3663 19.377 94.3753 19.3999 94.3753L25.1254 94.4053C25.5619 94.4076 25.9944 94.3506 26.3982 94.2378C26.802 94.125 27.1692 93.9585 27.4787 93.7478C27.7883 93.5372 28.0342 93.2865 28.2023 93.01C28.3705 92.7336 28.4576 92.4369 28.4587 92.1369V91.8369C28.461 91.2317 28.1135 90.6495 27.4927 90.2186C26.8719 89.7876 26.0285 89.543 25.1479 89.5385L19.4224 89.5085C19.3995 89.5085 19.3776 89.5176 19.3614 89.5337C19.3452 89.5499 19.3362 89.5719 19.3362 89.5947ZM19.2912 96.5576L19.2837 101.552C19.2837 101.627 19.3137 101.7 19.3671 101.753C19.4206 101.807 19.4931 101.837 19.5686 101.837L25.3466 101.844C26.3994 101.846 27.4095 101.572 28.1549 101.082C28.9002 100.592 29.3197 99.9259 29.3211 99.231V98.9085C29.3218 98.5642 29.2198 98.2231 29.0208 97.9047C28.8218 97.5863 28.5297 97.2967 28.1613 97.0526C27.793 96.8086 27.3554 96.6147 26.8738 96.4822C26.3921 96.3496 25.8757 96.2809 25.3541 96.2801L19.5761 96.2726C19.5006 96.2726 19.4281 96.3026 19.3746 96.3561C19.3212 96.4095 19.2912 96.482 19.2912 96.5576Z" fill="#1B1414"/>
<path d="M91.2704 87.761L88.447 90.5731C88.4353 90.5852 88.4213 90.5947 88.4059 90.6011C88.3904 90.6076 88.3738 90.6108 88.357 90.6106L86.5835 90.6219C86.5611 90.6221 86.5391 90.6163 86.5198 90.605C86.5004 90.5937 86.4845 90.5773 86.4738 90.5577C86.463 90.5381 86.4577 90.5159 86.4586 90.4935C86.4594 90.4711 86.4663 90.4494 86.4785 90.4307L88.1883 87.6298C88.1992 87.6116 88.2146 87.5966 88.233 87.5861C88.2513 87.5756 88.2721 87.57 88.2933 87.5698L91.1804 87.551C91.2048 87.5508 91.2288 87.5578 91.2493 87.5711C91.2697 87.5845 91.2858 87.6036 91.2954 87.626C91.305 87.6485 91.3078 87.6733 91.3033 87.6973C91.2989 87.7213 91.2874 87.7435 91.2704 87.761Z" fill="#1B1414"/>
<path d="M109.567 87.5961L107.49 87.6106C107.374 87.6114 107.281 87.7061 107.282 87.822L107.295 89.7042C107.296 89.8202 107.39 89.9135 107.506 89.9127L109.583 89.8982C109.699 89.8974 109.793 89.8028 109.792 89.6868L109.779 87.8046C109.778 87.6886 109.683 87.5953 109.567 87.5961Z" fill="#1B1414"/>
<path d="M45.3616 102.418C45.3613 102.389 45.3532 102.361 45.3382 102.337C45.3231 102.312 45.3017 102.293 45.2763 102.279C45.2508 102.266 45.2223 102.26 45.1937 102.262C45.1652 102.264 45.1377 102.274 45.1142 102.29C42.6657 104.026 37.0565 105.181 35.1255 102.088C33.3107 99.1781 36.7715 97.4196 39.3699 97.1571C41.1822 96.9721 43.0007 96.7222 44.8254 96.4072C44.9804 96.3797 45.0629 96.2872 45.0729 96.1297C45.1429 94.7049 44.5055 93.8675 43.1607 93.6176C41.0459 93.2239 38.5 93.0739 37.5814 95.5223C37.57 95.5544 37.5479 95.5818 37.5187 95.6001C37.4896 95.6184 37.4549 95.6267 37.4202 95.6236L35.2117 95.3761C35.1442 95.3686 35.1192 95.3324 35.1367 95.2674C35.5367 93.845 36.3378 92.9264 37.5402 92.5115C40.1161 91.6228 47.4089 90.8017 47.5138 95.1211C47.5638 97.2284 47.5988 99.3356 47.6188 101.443C47.6263 102.21 47.8213 102.884 48.2037 103.464C48.3387 103.666 48.2837 103.765 48.0388 103.76L46.0403 103.711C45.8253 103.704 45.6728 103.603 45.5828 103.408C45.4429 103.098 45.3691 102.768 45.3616 102.418ZM39.7936 102.373C41.6796 102.481 43.7643 102.114 44.7017 100.374C45.0354 99.7443 44.9829 98.9006 45.1254 98.1545C45.1321 98.1205 45.13 98.0854 45.1196 98.0525C45.1091 98.0195 45.0905 97.9897 45.0655 97.9658C45.0404 97.9419 45.0098 97.9246 44.9764 97.9157C44.943 97.9067 44.9078 97.9063 44.8742 97.9145C43.1469 98.3245 41.3771 98.6232 39.5649 98.8107C36.3778 99.1406 36.7865 102.196 39.7936 102.373Z" fill="#1B1414"/>
<path d="M53.6817 93.1903C53.6967 93.6552 53.8505 93.7065 54.1429 93.344C55.6952 91.443 59.501 91.578 61.4507 92.3767C63.2205 93.1003 63.5092 94.5401 63.5279 96.4336C63.5529 98.8158 63.5604 101.167 63.5504 103.486C63.5504 103.646 63.4704 103.726 63.3105 103.726L61.3307 103.738C61.1532 103.738 61.0657 103.65 61.0682 103.475C61.0857 99.5632 61.0808 97.0735 61.0533 96.0062C60.9745 92.9691 56.8988 93.0553 55.174 94.2514C54.3291 94.8363 53.9154 95.7975 53.9329 97.1348C53.9604 99.2845 53.9854 101.403 54.0079 103.49C54.0084 103.521 54.0028 103.552 53.9913 103.58C53.9799 103.609 53.9628 103.635 53.9412 103.657C53.9195 103.679 53.8938 103.696 53.8653 103.708C53.8368 103.72 53.8063 103.726 53.7755 103.726L51.717 103.734C51.5745 103.736 51.5033 103.666 51.5033 103.524L51.4995 92.4554C51.4995 92.2079 51.6245 92.0829 51.8745 92.0804L53.4418 92.0729C53.7192 92.0729 53.828 92.2079 53.768 92.4779C53.703 92.7728 53.6742 93.0103 53.6817 93.1903Z" fill="#1B1414"/>
<path d="M79.5643 99.8792C77.8808 106.58 64.75 105.121 66.8985 96.0997C67.4159 93.9288 68.7507 92.8039 70.8879 92.1552C73.8051 91.2704 78.3045 91.8328 79.3168 95.2748C79.3618 95.4248 79.3068 95.5073 79.1519 95.5223L77.1196 95.7285C77.0593 95.735 76.9984 95.7213 76.9462 95.6895C76.8941 95.6576 76.8536 95.6095 76.8309 95.5523C76.0435 93.4713 73.8763 93.0289 71.9228 93.6363C69.5156 94.3824 69.0469 96.5647 69.2607 98.8219C69.4181 100.492 70.283 101.588 71.8553 102.11C73.9475 102.804 76.7259 102.084 77.0709 99.628C77.0783 99.5773 77.1051 99.5313 77.1457 99.4999C77.1862 99.4685 77.2373 99.4539 77.2883 99.4593L79.4331 99.688C79.4549 99.6905 79.4759 99.6977 79.4948 99.709C79.5136 99.7204 79.5298 99.7356 79.5422 99.7537C79.5547 99.7719 79.5631 99.7924 79.5669 99.8141C79.5707 99.8357 79.5698 99.8579 79.5643 99.8792Z" fill="#1B1414"/>
<path d="M91.2144 96.1973C91.3793 94.575 90.6457 93.6676 89.0134 93.4751C87.1836 93.2577 84.664 93.2502 83.9403 95.3199C83.8603 95.5449 83.7028 95.6424 83.4679 95.6124L81.6231 95.3874C81.4056 95.3599 81.3381 95.2449 81.4206 95.0424C82.0181 93.5701 83.1554 92.6228 84.8327 92.2003C87.0824 91.6379 92.133 91.3829 93.4153 93.6701C93.6453 94.0826 93.7628 94.6875 93.7678 95.4849C93.7753 97.6258 93.3591 101.627 94.4427 103.434C94.5702 103.646 94.5102 103.75 94.2627 103.745L92.3392 103.711C92.1592 103.706 92.0155 103.633 91.908 103.49C91.688 103.195 91.5618 102.87 91.5293 102.515C91.5118 102.315 91.4206 102.27 91.2556 102.38C88.7809 104.015 84.529 104.832 81.9868 102.845C80.3783 101.585 80.7382 99.2269 82.3018 98.207C83.1342 97.6646 84.1515 97.3334 85.3539 97.2134C87.2586 97.0284 89.1509 96.7572 91.0306 96.3998C91.1431 96.3773 91.2044 96.3098 91.2144 96.1973ZM91.2031 98.0045C91.2031 97.8921 91.1481 97.8521 91.0381 97.8846C89.2159 98.417 87.3224 98.6157 85.4439 98.8219C84.8564 98.8844 84.2878 99.2356 83.7378 99.8756C83.6603 99.963 83.6191 100.066 83.6141 100.183C83.4904 102.414 85.6801 102.433 87.2624 102.376C88.3235 102.339 89.0696 102.043 89.917 101.495C91.3531 100.562 91.2256 99.4406 91.2031 98.0045Z" fill="#1B1414"/>
<path d="M100.228 93.4304C101.61 91.6931 103.358 91.3319 105.47 92.3468C105.642 92.4267 105.688 92.553 105.608 92.7255L105.046 93.9365C104.954 94.134 104.805 94.1953 104.6 94.1203C101.878 93.1267 100.329 94.589 100.247 97.2286C100.182 99.3708 100.157 101.473 100.172 103.535C100.172 103.663 100.108 103.728 99.9805 103.73L97.8283 103.738C97.7825 103.738 97.7386 103.72 97.7063 103.687C97.674 103.655 97.6558 103.611 97.6558 103.565L97.6445 92.4405C97.6445 92.2005 97.7658 92.0805 98.0082 92.0805H99.6693C99.8992 92.0805 100 92.1943 99.973 92.4217L99.8717 93.2841C99.8167 93.7516 99.9355 93.8003 100.228 93.4304Z" fill="#1B1414"/>
<path d="M113.258 95.1702C113.76 94.0116 114.709 93.108 115.852 92.6168C120.592 90.5883 127.134 92.2493 126.598 98.6272C126.197 103.415 120.907 104.683 117.03 103.637C113.19 102.598 111.739 98.676 113.258 95.1702ZM124.022 97.4503C124.025 96.9284 123.926 96.4109 123.73 95.9273C123.534 95.4437 123.244 95.0035 122.877 94.6319C122.511 94.2603 122.075 93.9645 121.594 93.7614C121.113 93.5583 120.597 93.4519 120.075 93.4482L119.303 93.4428C118.781 93.4392 118.263 93.5384 117.78 93.7347C117.296 93.9311 116.856 94.2208 116.484 94.5873C116.113 94.9537 115.817 95.3898 115.614 95.8706C115.411 96.3514 115.304 96.8675 115.301 97.3894L115.294 98.3418C115.29 98.8637 115.39 99.3813 115.586 99.8649C115.782 100.348 116.072 100.789 116.439 101.16C116.805 101.532 117.241 101.828 117.722 102.031C118.203 102.234 118.719 102.34 119.241 102.344L120.013 102.349C120.535 102.353 121.053 102.254 121.536 102.057C122.02 101.861 122.46 101.571 122.832 101.205C123.203 100.838 123.499 100.402 123.702 99.9215C123.905 99.4407 124.012 98.9246 124.015 98.4027L124.022 97.4503Z" fill="#1B1414"/>
<path d="M109.564 92.0767H107.502C107.384 92.0767 107.288 92.1723 107.288 92.2904V103.524C107.288 103.642 107.384 103.738 107.502 103.738H109.564C109.682 103.738 109.778 103.642 109.778 103.524V92.2904C109.778 92.1723 109.682 92.0767 109.564 92.0767Z" fill="#1B1414"/>
</svg>
