<svg width="248" height="53" viewBox="0 0 248 53" fill="none" xmlns="http://www.w3.org/2000/svg">
<g clip-path="url(#clip0_140_402)">
<path d="M96.3784 0C97.2463 0.464652 97.8766 1.05801 98.2693 1.78008C98.5362 2.26436 98.5297 3.56343 98.5199 4.10661C98.4852 6.31425 98.4982 8.52408 98.559 10.7361" stroke="#7C345D" stroke-width="2"/>
<path d="M98.5591 20.2124L98.5623 30.9419" stroke="#7C345D" stroke-width="2"/>
<path d="M98.5558 40.3921C98.5081 43.012 98.4875 45.6363 98.494 48.265C98.4972 49.371 97.8398 50.405 96.7528 50.7453C96.4447 50.8413 96.1485 50.9657 95.8643 51.1184" stroke="#7C345D" stroke-width="2"/>
<path d="M135.642 0C136.577 0.571544 137.016 1.36342 136.957 2.37562C136.896 3.39218 136.906 5.04573 136.986 7.33627C137.016 8.15759 137.042 9.76097 136.316 10.2583C136.01 10.4678 135.84 10.627 135.805 10.7361" stroke="#7C345D" stroke-width="2"/>
<path d="M50.9798 0H60.8542C61.7568 0.26832 62.3893 0.643533 62.7516 1.12564C71.1506 12.3231 79.5204 23.4835 87.8608 34.6068C87.9823 34.7704 88.0431 34.7497 88.0431 34.5446C88.0474 24.2219 88.0648 13.8796 88.0951 3.51761C88.0984 2.20219 88.2156 1.26307 89.2961 0.536641C89.7289 0.242143 90.3278 0.212693 90.8453 0H96.3781C97.246 0.464652 97.8763 1.05801 98.269 1.78008C98.5359 2.26436 98.5294 3.56343 98.5196 4.10661C98.4849 6.31425 98.4979 8.52408 98.5587 10.7361V20.2124L98.5619 30.9419L98.5554 40.392C98.5077 43.012 98.4871 45.6363 98.4936 48.2649C98.4968 49.3709 97.8394 50.405 96.7524 50.7453C96.4443 50.8413 96.1481 50.9656 95.8639 51.1183C93.7158 51.1118 91.5656 51.1423 89.4133 51.2099C88.3175 51.2426 87.3433 50.6995 86.4906 49.5804C77.3344 37.543 68.1976 25.4904 59.0804 13.4226C58.9828 13.2917 58.9231 13.2164 58.9014 13.1968C58.691 13.0004 58.5857 13.0474 58.5857 13.3375C58.5814 24.5699 58.5803 35.8033 58.5825 47.0379C58.5847 48.2595 58.461 49.1114 58.2115 49.5935C57.5313 50.9154 56.3596 51.1216 54.869 51.1281C53.3231 51.1347 50.6315 51.4193 49.4045 50.6635C48.2947 49.9796 48.0864 49.0143 48.0864 47.6694C48.0908 33.2194 48.0908 18.7704 48.0864 4.32258C48.0864 1.92405 48.3924 0.320676 50.9798 0Z" fill="#E91C2B"/>
<path d="M96.3784 0H97.0684H128.762H135.642C136.577 0.571544 137.015 1.36342 136.957 2.37562C136.896 3.39218 136.906 5.04573 136.986 7.33627C137.015 8.15759 137.041 9.76097 136.316 10.2583C136.01 10.4678 135.839 10.627 135.805 10.7361H98.559C98.4982 8.52408 98.4852 6.31425 98.5199 4.10661C98.5297 3.56343 98.5362 2.26436 98.2693 1.78008C97.8766 1.05801 97.2463 0.464652 96.3784 0Z" fill="#0E4B8E"/>
<path d="M135.642 0H229.449C230.492 0.0894401 231.536 0.175608 232.58 0.258504C233.725 0.350125 234.816 0.68389 235.955 0.909671C237.237 1.16272 238.753 1.84661 240.501 2.96134C242.298 4.10879 243.647 5.5322 244.55 7.23156C245.533 9.08581 246.094 10.7088 246.233 12.1006C246.5 14.8263 247.398 18.9264 243.04 18.7203C241.656 18.6548 240.597 18.6559 239.863 18.7235C239.203 18.7857 237.999 18.5992 237.4 18.236C236.241 17.5292 236.039 16.1418 236.026 14.8558C236.017 13.8905 235.45 12.5652 234.643 12.0024C233.279 11.0535 230.324 10.7295 228.798 10.7263C220.798 10.7132 212.797 10.7285 204.795 10.7721C203.684 10.7764 202.603 10.9597 201.55 11.3218C199.822 11.9173 199.848 13.7629 199.913 15.4611C200.017 18.0691 202.563 18.8839 204.802 19.2733C206.416 19.5503 208.041 19.703 209.677 19.7314C215.807 19.8383 221.935 19.931 228.062 20.0095C230.045 20.0357 231.562 20.124 232.612 20.2745C238.506 21.1253 243.854 23.5926 245.891 29.7377C246.08 30.3049 246.26 30.8754 246.431 31.4491C246.607 32.0316 246.717 32.6184 246.76 33.2096C247.173 38.7363 246.36 44.5019 241.806 48.1635C241.366 48.5169 240.921 48.8594 240.472 49.191C238.745 50.4606 236.795 51.0987 234.624 51.1052C221.49 51.1357 212.144 51.1401 206.585 51.1183C203.471 51.1052 200.024 50.4344 197.319 48.9946C192.262 46.3016 189.502 40.9156 189.818 35.1663C189.857 34.4508 190.029 33.8967 190.335 33.504C190.895 32.7874 191.503 32.4668 192.467 32.4439C193.94 32.409 195.411 32.4046 196.88 32.4308C197.82 32.446 198.509 32.5998 198.95 32.8921C199.629 33.3437 200.006 34.0232 200.079 34.9307C200.19 36.3312 200.288 37.6696 201.049 38.612C202.133 39.9503 205.56 40.4182 207.168 40.4215C214.64 40.4258 222.113 40.4269 229.585 40.4248C231.258 40.4248 234.318 40.2939 235.532 38.9359C236.361 38.0066 236.563 36.1447 236.508 34.9504C236.423 33.0918 235.476 32.0087 233.758 31.292C232.434 30.7379 231.106 30.4511 229.774 30.4315C225.886 30.3747 220.36 30.3682 213.195 30.4118C204.935 30.4609 193.127 30.1631 190.137 20.2844C189.453 18.0287 189.221 15.6749 189.44 13.223C189.489 12.6765 189.788 11.6981 189.759 10.8899C189.755 10.7764 189.696 10.7197 189.583 10.7197H168.51C168.484 10.7197 168.459 10.7301 168.441 10.7485C168.422 10.7669 168.412 10.7919 168.412 10.8179C168.412 23.0145 168.412 35.222 168.412 47.4403C168.412 50.1465 167.374 51.1445 164.783 51.1248C163.162 51.115 160.721 51.3899 159.465 50.7518C158.508 50.2675 158.03 49.384 158.03 48.1013C158.023 35.9833 158.022 23.8652 158.027 11.7472C158.027 11.7101 158.058 11.5465 158.121 11.2564C158.147 11.1342 158.136 11.011 158.089 10.8866C158.071 10.8394 158.04 10.7987 157.999 10.77C157.959 10.7413 157.91 10.726 157.861 10.7263L135.804 10.7361C135.839 10.627 136.009 10.4678 136.315 10.2583C137.041 9.76097 137.015 8.15759 136.986 7.33627C136.905 5.04573 136.896 3.39218 136.956 2.37562C137.015 1.36342 136.577 0.571544 135.642 0Z" fill="#E91C2B"/>
<path d="M0 33.154V31.2529C0.130184 29.9833 0.136693 28.4453 0.589081 27.2641C0.816903 26.6685 0.777848 26.0272 1.19118 25.4186C1.2541 25.3269 1.27255 25.2266 1.24651 25.1175C1.22047 25.0084 1.23675 24.9081 1.29533 24.8165C1.38212 24.6812 1.42877 24.606 1.43528 24.5907C3.49869 19.8591 7.01039 16.1844 11.7003 14.0804C14.9256 12.6308 18.5056 12.3592 21.9815 12.7617C22.5478 12.8271 23.1879 12.9504 23.9017 13.1315C24.8456 13.3758 25.477 13.547 25.7959 13.6452C28.1034 14.3683 34.7298 17.9023 34.0886 21.2465C33.6297 23.6418 31.8527 25.0095 29.428 24.5874C28.9789 24.5089 28.2694 24.0835 27.9212 23.7661C26.7853 22.7255 25.2719 21.5148 23.8106 21.0109C23.4634 20.8909 23.1163 20.7699 22.7691 20.6477C21.2482 20.1176 19.815 19.9202 18.4698 20.0554C17.3285 20.171 16.0636 20.543 14.675 21.1712C10.5373 23.0473 8.15926 26.2726 7.54089 30.8471C7.36731 32.132 7.34779 33.0035 7.48231 33.4616C7.76871 34.4302 7.86635 35.5067 8.20157 36.3641C9.47521 39.6275 11.7306 41.9519 14.9679 43.3371C15.0243 43.3611 15.2022 43.4037 15.5016 43.4647C15.7587 43.5204 15.954 43.7036 16.2014 43.7658C19.5297 44.6056 22.6097 44.1541 25.4412 42.4111C26.3166 41.8744 27.2605 41.0139 28.188 40.2809C30.5997 38.3666 33.8771 40.4969 34.0886 43.2651C34.2123 44.8783 32.9886 46.2363 31.8202 47.2114C29.0472 49.515 25.7905 50.957 22.0499 51.5373C20.3401 51.8034 18.7909 51.8557 17.4023 51.6943C12.9088 51.1729 9.05319 49.3263 5.83549 46.1545C2.25543 42.6227 0.310271 38.2892 0 33.154Z" fill="#0E4B8E"/>
<path d="M98.5619 30.942L98.5586 20.2124C110.132 20.1971 121.65 20.1993 133.113 20.219C134.711 20.2222 135.573 20.7425 135.576 22.4179C135.583 24.5383 135.582 26.6619 135.573 28.7888C135.571 29.7269 135.244 30.3617 134.593 30.6933C134.268 30.8591 133.646 30.943 132.729 30.9452C121.374 30.9736 109.985 30.9725 98.5619 30.942Z" fill="#0E4B8E"/>
<path d="M24.8551 35.7455L24.6501 35.8535C24.572 35.8949 24.5015 35.8851 24.4385 35.824C24.3387 35.7259 24.2216 35.715 24.0871 35.7913C24.0111 35.835 23.9276 35.8568 23.8365 35.8568H16.8488C16.7512 35.8568 16.6601 35.8317 16.5755 35.7815C16.4756 35.7226 16.3769 35.727 16.2793 35.7946C16.1903 35.8557 16.0949 35.8677 15.9929 35.8306C15.1499 35.5361 13.1646 35.7619 12.2078 35.7717C8.90763 35.8044 8.43246 31.5407 9.99792 29.5022C10.5252 28.8183 11.6871 28.3831 12.5332 28.3831C18.7582 28.3874 24.9832 28.3874 31.2081 28.3831C35.4716 28.3765 36.2332 34.2043 32.5881 35.7226C32.1758 35.8949 31.2699 35.9397 29.8705 35.8568C29.8553 35.8546 29.7446 35.8262 29.5385 35.7717C29.4409 35.7477 29.3421 35.7706 29.2423 35.8404C29.149 35.9037 29.0622 35.896 28.982 35.8175C28.8691 35.7084 28.7541 35.7073 28.637 35.8142C28.5934 35.8533 28.5369 35.8747 28.4785 35.8741C28.4201 35.8735 28.364 35.851 28.3213 35.811C28.2106 35.7062 28.0989 35.7073 27.9861 35.8142C27.9438 35.8543 27.8879 35.8766 27.8298 35.8766C27.7718 35.8766 27.7159 35.8543 27.6736 35.8142C27.5608 35.7073 27.448 35.7073 27.3351 35.8142C27.2929 35.8543 27.237 35.8766 27.1789 35.8766C27.1208 35.8766 27.065 35.8543 27.0227 35.8142C26.9099 35.7073 26.797 35.7073 26.6842 35.8142C26.642 35.8543 26.5861 35.8766 26.528 35.8766C26.4699 35.8766 26.414 35.8543 26.3718 35.8142C26.2611 35.7095 26.1494 35.7084 26.0366 35.811C25.9346 35.9048 25.8304 35.9058 25.7241 35.8142C25.5961 35.7052 25.4637 35.7172 25.3271 35.8502C25.2641 35.9135 25.1969 35.9168 25.1253 35.86C25.0884 35.8317 25.0526 35.8011 25.0179 35.7684C24.9701 35.7226 24.9159 35.715 24.8551 35.7455Z" fill="#0E4B8E"/>
<path d="M95.8643 51.1183C96.1485 50.9656 96.4447 50.8413 96.7528 50.7453C97.8398 50.405 98.4972 49.371 98.494 48.265C98.4875 45.6363 98.5081 43.012 98.5558 40.392C110.756 40.3702 122.857 40.3713 134.858 40.3953C136.166 40.3953 137.015 40.8992 136.999 42.2899C136.969 44.803 136.969 47.1851 136.999 49.4364C137.002 49.6572 136.961 49.8763 136.878 50.0811C136.796 50.2858 136.674 50.4721 136.52 50.6292C136.365 50.7862 136.182 50.9109 135.979 50.996C135.776 51.0811 135.559 51.1249 135.339 51.1249L95.8643 51.1183Z" fill="#0E4B8E"/>
</g>
<defs>
<clipPath id="clip0_140_402">
<rect width="248" height="52.028" fill="white"/>
</clipPath>
</defs>
</svg>
