<svg width="266" height="51" viewBox="0 0 266 51" fill="none" xmlns="http://www.w3.org/2000/svg">
<path d="M23.5944 38.6841C22.1244 35.9841 16.1144 37.3441 13.3744 36.7041C7.89438 35.4341 1.66438 29.7541 2.04438 23.5441C2.07047 23.1555 2.23235 22.7887 2.50138 22.5087C2.77041 22.2287 3.12925 22.0535 3.51438 22.0141C6.75438 21.6841 12.5644 25.3541 16.0444 26.7541C18.2644 27.6474 19.9011 27.0174 20.9544 24.8641L21.3244 24.1041C21.6631 23.4074 21.72 22.6072 21.4833 21.8709C21.2466 21.1347 20.7346 20.5195 20.0544 20.1541C17.841 18.9474 14.3577 17.2108 9.60438 14.9441C6.94438 13.6741 7.57439 11.3741 9.74439 10.0841C15.3744 6.7041 23.7044 7.9541 27.9944 12.5441C28.4611 13.0374 29.3444 14.1574 30.6444 15.9041C33.1244 19.2341 38.9544 16.2741 36.6044 11.5641C33.3544 5.06411 28.0444 2.86411 21.5144 0.624105C20.361 0.224105 20.3944 0.0174357 21.6144 0.00410232C31.3477 -0.135898 38.781 3.30744 43.9144 10.3341C53.5044 23.4341 48.8744 41.5741 33.9744 48.3041C21.6344 53.8741 8.47438 49.7441 0.0643849 39.2341C0.0318995 39.1939 0.0107543 39.1457 0.00315142 39.0945C-0.00445149 39.0434 0.00176238 38.9912 0.0211415 38.9432C0.0405207 38.8953 0.0723637 38.8534 0.113373 38.8219C0.154383 38.7904 0.203064 38.7705 0.25438 38.7641C0.407713 38.7441 0.604384 38.8108 0.844384 38.9641C6.93438 42.6441 12.0244 45.6541 19.2544 44.7641C21.7644 44.4541 25.1544 41.5341 23.5944 38.6841Z" fill="#00AEF1"/>
<path d="M251.474 20.2942C256.954 16.6542 266.144 17.6542 265.944 26.0142C265.838 30.7808 265.784 35.3842 265.784 39.8242C265.784 41.3108 265.041 42.0375 263.554 42.0042L262.094 41.9742C260.548 41.9408 259.771 41.1475 259.764 39.5942L259.754 27.3142C259.753 26.8989 259.669 26.4881 259.507 26.106C259.345 25.7238 259.108 25.3781 258.811 25.0891C258.514 24.8002 258.162 24.5739 257.776 24.4237C257.39 24.2734 256.978 24.2021 256.564 24.2142L255.414 24.2442C252.414 24.3242 250.914 25.8642 250.914 28.8642V39.8042C250.908 41.2642 250.178 41.9975 248.724 42.0042H247.304C245.664 42.0108 244.844 41.1942 244.844 39.5542V11.7442C244.844 10.2842 245.574 9.58083 247.034 9.63417L248.834 9.69416C250.201 9.7475 250.888 10.4575 250.894 11.8242L250.904 19.9942C250.904 20.4475 251.094 20.5475 251.474 20.2942Z" fill="#00AEF1"/>
<path d="M130.784 18.7741L135.974 18.7641C137.447 18.7641 138.184 19.5007 138.184 20.9741L138.194 22.5041C138.194 23.9441 137.474 24.6607 136.034 24.6541L130.964 24.6041C130.491 24.6041 130.257 24.8407 130.264 25.3141L130.334 34.6741C130.337 34.9721 130.401 35.2662 130.524 35.5378C130.647 35.8093 130.825 36.0521 131.048 36.2507C131.27 36.4494 131.531 36.5994 131.814 36.6913C132.098 36.7831 132.397 36.8147 132.694 36.784L137.264 36.3241C137.464 36.3042 137.665 36.3269 137.855 36.3906C138.045 36.4544 138.22 36.5576 138.367 36.6937C138.515 36.8297 138.632 36.9955 138.71 37.18C138.789 37.3644 138.828 37.5635 138.824 37.7641L138.784 40.1441C138.775 40.6517 138.585 41.1393 138.25 41.5189C137.914 41.8984 137.455 42.145 136.954 42.2141C122.364 44.2341 124.314 35.4841 124.114 25.3041C124.107 24.9241 123.914 24.7241 123.534 24.7041L121.044 24.5741C120.914 24.5676 120.788 24.5251 120.678 24.4511C120.569 24.3772 120.481 24.2745 120.424 24.1541C119.254 21.5841 120.084 19.1641 123.034 18.9641C123.247 18.9507 123.451 18.9141 123.644 18.8541C123.971 18.7407 124.157 18.5141 124.204 18.1741C124.594 15.1041 124.324 12.0941 128.954 12.8341C129.315 12.8927 129.644 13.0781 129.884 13.3578C130.123 13.6374 130.258 13.9936 130.264 14.3641L130.294 18.2841C130.301 18.6107 130.464 18.7741 130.784 18.7741Z" fill="#00AEF1"/>
<path d="M79.1942 32.7641C77.9942 32.7641 77.6942 33.2874 78.2942 34.3341L78.4742 34.6341C79.0809 35.6941 79.9875 36.3174 81.1942 36.5041C83.9609 36.9374 86.7009 36.7841 89.4142 36.0441C91.2275 35.5507 92.1375 36.2441 92.1442 38.1241V38.7941C92.1442 40.7474 91.1775 41.8641 89.2442 42.1441C76.0842 44.0641 70.7442 40.4241 72.1842 26.5141C72.8842 19.6641 78.4142 17.8441 84.5142 18.3441C92.2642 18.9741 93.0542 24.9041 92.5942 31.2841C92.5639 31.6873 92.382 32.0641 92.0852 32.3386C91.7883 32.6132 91.3986 32.7652 90.9942 32.7641H79.1942ZM78.3642 27.7841L86.6642 27.7641C86.7045 27.7641 86.7443 27.756 86.7814 27.7403C86.8184 27.7246 86.852 27.7016 86.88 27.6727C86.908 27.6438 86.9298 27.6095 86.9443 27.5719C86.9588 27.5344 86.9655 27.4943 86.9642 27.4541V27.2641C86.9616 26.7874 86.8656 26.3159 86.6818 25.8764C86.4979 25.437 86.2298 25.0383 85.8927 24.7031C85.5557 24.3679 85.1562 24.1027 84.7172 23.9227C84.2782 23.7427 83.8083 23.6514 83.3342 23.6541H81.6542C81.1801 23.6567 80.7112 23.7532 80.2742 23.938C79.8372 24.1229 79.4407 24.3924 79.1074 24.7314C78.774 25.0703 78.5103 25.472 78.3313 25.9134C78.1523 26.3548 78.0616 26.8274 78.0642 27.3041V27.4941C78.0668 27.5719 78.0996 27.6457 78.1555 27.6998C78.2115 27.7539 78.2864 27.7841 78.3642 27.7841Z" fill="#00AEF1"/>
<path d="M109.044 24.2841L106.054 24.3041C104.121 24.3175 103.151 25.2908 103.144 27.2241L103.134 39.8941C103.134 41.3075 102.428 42.0141 101.014 42.0141H99.2342C97.7542 42.0141 97.0109 41.2741 97.0042 39.7941C96.9642 35.0041 96.0642 26.2641 98.2342 22.4641C101.874 16.0941 117.374 16.2741 117.764 25.7741C117.964 30.5675 118.051 35.2475 118.024 39.8141C118.018 41.2941 117.274 42.0308 115.794 42.0241L114.074 42.0141C113.495 42.0115 112.941 41.7796 112.532 41.3692C112.124 40.9588 111.894 40.4032 111.894 39.8241L111.844 27.0541C111.838 25.1941 110.904 24.2708 109.044 24.2841Z" fill="#00AEF1"/>
<path d="M147.524 33.1941C146.824 37.9141 155.704 36.8241 158.624 36.0941C160.471 35.6341 161.394 36.3541 161.394 38.2541V38.7341C161.394 40.6674 160.441 41.7874 158.534 42.0941C150.564 43.3941 141.154 42.9741 141.224 32.2841C141.251 28.8507 141.407 26.5307 141.694 25.3241C142.701 21.0174 145.427 18.6741 149.874 18.2941C158.754 17.5341 163.434 22.4341 161.714 31.3641C161.637 31.7582 161.427 32.1135 161.119 32.3689C160.81 32.6244 160.423 32.7641 160.024 32.7641H148.024C147.737 32.7641 147.571 32.9074 147.524 33.1941ZM147.764 27.8241L155.764 27.8041C155.878 27.8041 155.987 27.7588 156.068 27.6781C156.149 27.5975 156.194 27.4881 156.194 27.3741V27.0541C156.191 26.1513 155.805 25.2864 155.119 24.649C154.432 24.0117 153.503 23.6539 152.534 23.6541H150.994C150.513 23.6542 150.036 23.7428 149.591 23.9148C149.146 24.0869 148.743 24.339 148.403 24.6567C148.063 24.9744 147.793 25.3514 147.61 25.7663C147.426 26.1811 147.333 26.6255 147.334 27.0741V27.3941C147.334 27.5081 147.379 27.6175 147.46 27.6981C147.541 27.7788 147.65 27.8241 147.764 27.8241Z" fill="#00AEF1"/>
<path d="M173.854 24.3741C173.397 24.4045 172.968 24.6061 172.655 24.9382C172.341 25.2704 172.166 25.7085 172.164 26.1641L172.124 39.8341C172.124 41.2874 171.398 42.0141 169.944 42.0141H168.184C166.718 42.0208 165.988 41.2874 165.994 39.8141C166.001 35.4074 165.991 30.8908 165.964 26.2641C165.914 20.0441 171.224 17.8041 176.734 18.3641C178.008 18.4974 178.641 19.2041 178.634 20.4841V22.3641C178.635 22.8283 178.457 23.2753 178.137 23.6137C177.818 23.952 177.38 24.1561 176.914 24.1841L173.854 24.3741Z" fill="#00AEF1"/>
<path d="M189.004 24.2741C188.381 24.2605 187.778 24.4916 187.324 24.9179C186.869 25.3442 186.6 25.9317 186.574 26.5541C186.304 32.9341 185.464 38.3641 194.684 36.4341C196.491 36.0608 197.394 36.7941 197.394 38.6341V39.1141C197.394 41.0541 196.428 42.1341 194.494 42.3541C189.474 42.9341 183.844 42.4741 181.444 37.9241C179.624 34.4941 179.924 24.5341 182.194 21.7641C185.174 18.1241 191.034 17.6641 195.314 18.8541C195.74 18.9741 196.114 19.232 196.377 19.587C196.639 19.942 196.776 20.3738 196.764 20.8141L196.714 23.2041C196.694 24.0308 196.274 24.4341 195.454 24.4141L189.004 24.2741Z" fill="#00AEF1"/>
<path d="M211.314 28.0241C212.754 28.1041 213.247 27.4608 212.794 26.0941L212.614 25.5441C212.161 24.1508 211.201 23.4841 209.734 23.5441L203.194 23.7941C202.081 23.8408 201.524 23.3074 201.524 22.1941L201.514 20.6241C201.514 19.4241 202.107 18.7541 203.294 18.6141C207.714 18.0808 211.334 18.2508 214.154 19.1241C217.094 20.0374 218.614 22.0808 218.714 25.2541C218.864 29.7941 220.664 39.0641 215.364 41.3341C211.504 42.9741 205.984 43.2441 202.004 41.1241C198.854 39.4541 198.034 35.5641 199.264 32.4241C201.194 27.5241 207.304 27.8141 211.314 28.0241ZM212.324 32.6641L205.274 32.9741C205.214 32.9767 205.154 32.9911 205.099 33.0167C205.045 33.0422 204.995 33.0783 204.954 33.1229C204.914 33.1674 204.882 33.2197 204.861 33.2765C204.84 33.3333 204.831 33.3937 204.834 33.4541L204.894 34.8941C204.908 35.2211 204.986 35.5422 205.124 35.8388C205.261 36.1355 205.455 36.402 205.695 36.623C205.934 36.8441 206.215 37.0154 206.52 37.1271C206.825 37.2388 207.15 37.2888 207.474 37.2741L210.504 37.1441C211.158 37.1158 211.773 36.8271 212.216 36.3415C212.658 35.856 212.891 35.2131 212.864 34.5541L212.804 33.1041C212.801 33.0437 212.787 32.9844 212.761 32.9295C212.736 32.8747 212.7 32.8254 212.655 32.7846C212.611 32.7437 212.558 32.712 212.502 32.6914C212.445 32.6707 212.384 32.6614 212.324 32.6641Z" fill="#00AEF1"/>
<path d="M233.104 34.1342C228.854 32.1342 222.854 31.4242 222.754 25.2742C222.624 17.0142 232.504 17.7242 237.714 18.9842C239.094 19.3175 239.771 20.1942 239.744 21.6142L239.714 22.9942C239.681 24.3409 239.001 24.8975 237.674 24.6642C235.554 24.2975 233.421 24.0709 231.274 23.9842C230.234 23.9442 229.494 24.1809 229.054 24.6942C228.961 24.8029 228.896 24.9321 228.863 25.0712C228.83 25.2103 228.831 25.3552 228.865 25.494C228.899 25.6328 228.966 25.7614 229.06 25.8693C229.153 25.9771 229.271 26.0611 229.404 26.1142C234.824 28.3542 242.274 29.5342 240.424 37.5542C238.984 43.8542 228.904 42.9942 224.314 41.8042C223.798 41.6697 223.34 41.3683 223.013 40.9469C222.686 40.5256 222.507 40.0078 222.504 39.4742L222.494 37.4442C222.488 36.1775 223.101 35.6909 224.334 35.9842C228.074 36.8775 230.931 37.0542 232.904 36.5142C235.118 35.9075 235.184 35.1142 233.104 34.1342Z" fill="#00AEF1"/>
</svg>
