<svg width="292" height="105" viewBox="0 0 292 105" fill="none" xmlns="http://www.w3.org/2000/svg">
<path d="M24.3603 38.337C17.7248 38.4116 11.1148 38.3892 4.53018 38.2699C4.06894 38.261 3.32937 38.4071 2.31146 38.7083C2.16196 38.7531 2.10629 38.847 2.14446 38.9902C2.34168 39.7388 2.44028 40.5008 2.44028 41.2762C2.44506 48.2059 2.40212 55.1267 2.33055 62.0475C2.32101 63.1032 2.11106 64.5885 2.23512 65.8277C2.24452 65.9232 2.29158 66.012 2.3673 66.0772C2.44302 66.1424 2.54207 66.1794 2.64545 66.1811L24.2219 66.2303C24.2843 66.2315 24.3438 66.2551 24.3875 66.2961C24.4312 66.3371 24.4557 66.3922 24.4557 66.4495L24.4414 103.031C24.4414 103.069 24.457 103.105 24.4847 103.132C24.5125 103.159 24.5501 103.174 24.5893 103.174L53.7905 103.116C53.9559 103.116 54.0386 103.038 54.0386 102.883L54.0243 71.46" stroke="#899AB9" stroke-width="2"/>
<path d="M54.0244 71.46L54.0482 66.4048C54.0514 66.2646 54.1278 66.1945 54.2773 66.1945L109.597 66.2079C109.745 66.2079 109.887 66.1523 109.992 66.0533C110.097 65.9543 110.156 65.82 110.156 65.68L110.127 38.5965C110.127 38.5538 110.118 38.5115 110.1 38.4722C110.083 38.4328 110.057 38.3971 110.025 38.3671C109.992 38.3371 109.954 38.3135 109.912 38.2976C109.869 38.2817 109.824 38.2738 109.779 38.2744C94.2333 38.4414 78.6991 38.4772 63.176 38.3817C61.1147 38.3683 57.3978 38.6009 54.4538 38.3012C54.2789 38.2833 54.1818 38.1938 54.1627 38.0328C54.0737 37.2424 54.0291 36.1986 54.0291 34.9012C54.0196 23.9139 54.0355 12.9594 54.0769 2.03765C54.0769 1.97358 54.0497 1.91214 54.0014 1.86683C53.9531 1.82153 53.8875 1.79608 53.8192 1.79608L24.6657 1.73345C24.6359 1.73285 24.6062 1.73785 24.5784 1.74815C24.5507 1.75845 24.5254 1.77384 24.5041 1.79343C24.4827 1.81301 24.4658 1.83639 24.4542 1.8622C24.4426 1.888 24.4367 1.91572 24.4367 1.94371L24.3604 38.337" stroke="#8592AD" stroke-width="2"/>
<path d="M54.0243 71.4599L53.676 72.1355C53.6632 72.1563 53.6537 72.1563 53.6473 72.1355L52.9746 69.9926C52.93 69.8494 52.8298 69.7674 52.674 69.7465C52.0107 69.6526 51.6529 69.1471 51.4811 68.6236C51.4594 68.5615 51.4198 68.506 51.3668 68.4635C51.3138 68.4209 51.2494 68.3927 51.1805 68.3821C50.5348 68.2896 50.0799 67.9809 49.8159 67.456C49.7459 67.3188 49.6378 67.2144 49.4914 67.1429C49.3992 67.0981 49.3149 67.0385 49.2385 66.9639C49.1367 66.8655 49.0922 66.7477 49.1049 66.6105C49.124 66.4136 49.0477 66.2735 48.8759 66.19C48.8091 66.1572 48.6723 66.1437 48.4656 66.1497C47.621 66.181 46.9912 65.0313 46.3709 64.4587C45.5454 63.6937 44.7343 62.781 43.7562 62.0563C43.5367 61.8923 43.174 61.5657 42.6683 61.0766C42.312 60.7336 41.8921 60.4562 41.4086 60.2445C41.2209 60.1609 41.1112 60.0163 41.0794 59.8105C41.0635 59.7061 41.0078 59.6241 40.9124 59.5645L39.9867 58.9874C39.8277 58.886 39.7291 58.7458 39.6909 58.5668C39.6273 58.2507 39.4348 58.0956 39.1136 58.1016C39.0255 58.103 38.9381 58.0861 38.8573 58.0521C38.7765 58.0181 38.7043 57.9678 38.6459 57.9047C38.1815 57.3977 37.6694 56.9489 37.1095 56.5582C35.764 55.6142 34.824 54.7776 33.655 53.8919C33.566 53.8233 33.5087 53.7159 33.4832 53.5698C33.461 53.4296 33.3862 53.3222 33.259 53.2477C31.9134 52.4722 30.7269 51.5372 29.6995 50.4427C28.5035 49.1692 27.6796 48.3445 27.2279 47.9687C26.1018 47.0352 24.9646 46.1107 23.8163 45.1951C23.6891 45.0936 23.5412 45.034 23.3726 45.0161C23.0004 44.9714 22.7173 44.8014 22.5233 44.5061C22.431 44.36 22.299 44.266 22.1272 44.2243C21.7201 44.1288 21.3399 43.9737 20.9868 43.759C20.9307 43.7242 20.8897 43.6716 20.8713 43.6109C20.8529 43.5502 20.8584 43.4852 20.8867 43.4279C20.9535 43.2967 20.9312 43.1908 20.8199 43.1103C20.5336 42.9075 20.2791 42.6719 20.0564 42.4035C19.9622 42.2915 19.8431 42.2013 19.7081 42.1395C18.6966 41.6653 18.8636 40.5872 18.792 39.8267C18.7894 39.8214 18.7851 39.8173 18.7796 39.815C18.7741 39.8127 18.7678 39.8123 18.7614 39.8138C18.7551 39.8152 18.7492 39.8186 18.7444 39.8233C18.7396 39.828 18.7362 39.8339 18.7347 39.8401C18.7347 39.8818 18.7204 39.9116 18.6918 39.9295C18.66 39.9474 18.6123 39.946 18.5486 39.9251C17.8616 39.7103 17.1713 39.5135 16.4778 39.3345C16.2838 39.2838 16.2854 39.2406 16.4826 39.2048L17.7614 38.9766C17.895 38.9528 18.019 38.9737 18.1335 39.0393C18.5725 39.2809 18.9972 39.2928 19.4075 39.0751C19.5347 39.0095 19.6715 38.9766 19.8179 38.9766C21.3829 38.9766 22.897 38.7634 24.3603 38.3369" stroke="#24427D" stroke-width="2"/>
<path d="M111.957 81.9216C111.945 88.0273 109.348 93.8786 104.735 98.1884C100.122 102.498 93.8723 104.914 87.3602 104.903L24.511 104.8C21.2865 104.795 18.0947 104.194 15.1179 103.032C12.141 101.87 9.43741 100.17 7.16136 98.0288C4.88531 95.8873 3.08141 93.3465 1.85267 90.5513C0.623926 87.7562 -0.00559428 84.7616 3.74544e-05 81.7383L0.109393 22.9813C0.120759 16.8756 2.71857 11.0243 7.33133 6.71445C11.9441 2.40463 18.1939 -0.010617 24.706 3.50857e-05L87.5553 0.102887C90.7797 0.108163 93.9715 0.708853 96.9484 1.87067C99.9252 3.03248 102.629 4.73266 104.905 6.87413C107.181 9.01561 108.985 11.5564 110.214 14.3516C111.442 17.1467 112.072 20.1413 112.066 23.1645L111.957 81.9216ZM24.3603 38.337C17.7248 38.4116 11.1148 38.3892 4.53022 38.2699C4.06898 38.261 3.32942 38.4071 2.31151 38.7083C2.162 38.7531 2.10633 38.847 2.14451 38.9902C2.34172 39.7388 2.44033 40.5008 2.44033 41.2762C2.4451 48.2059 2.40217 55.1267 2.3306 62.0475C2.32106 63.1032 2.11111 64.5885 2.23516 65.8277C2.24457 65.9232 2.29163 66.012 2.36735 66.0772C2.44307 66.1424 2.54211 66.1794 2.6455 66.1811L24.2219 66.2303C24.2844 66.2315 24.3438 66.2551 24.3875 66.2961C24.4312 66.3371 24.4557 66.3922 24.4558 66.4495L24.4414 103.031C24.4414 103.069 24.457 103.105 24.4848 103.132C24.5125 103.159 24.5501 103.174 24.5894 103.174L53.7905 103.116C53.956 103.116 54.0387 103.038 54.0387 102.883L54.0244 71.4601L54.0482 66.4048C54.0514 66.2646 54.1277 66.1946 54.2772 66.1946L109.597 66.208C109.745 66.208 109.887 66.1524 109.992 66.0534C110.097 65.9544 110.156 65.8201 110.156 65.6801L110.127 38.5965C110.127 38.5538 110.118 38.5116 110.1 38.4722C110.083 38.4328 110.057 38.3971 110.025 38.3671C109.992 38.3372 109.954 38.3135 109.912 38.2976C109.869 38.2817 109.824 38.2738 109.779 38.2744C94.2333 38.4414 78.699 38.4772 63.176 38.3818C61.1147 38.3683 57.3978 38.601 54.4538 38.3012C54.2788 38.2833 54.1818 38.1939 54.1627 38.0328C54.0736 37.2425 54.0291 36.1986 54.0291 34.9013C54.0196 23.9139 54.0355 12.9594 54.0768 2.0377C54.0768 1.97363 54.0497 1.91218 54.0014 1.86688C53.953 1.82157 53.8875 1.79612 53.8192 1.79612L24.6657 1.73349C24.6358 1.7329 24.6062 1.7379 24.5784 1.7482C24.5506 1.7585 24.5254 1.77389 24.504 1.79347C24.4827 1.81306 24.4657 1.83644 24.4542 1.86224C24.4426 1.88805 24.4367 1.91576 24.4367 1.94375L24.3603 38.337Z" fill="#E9EAE9"/>
<path d="M174.026 13.4725C173.956 13.5471 173.924 13.6813 173.931 13.8751C173.972 15.6497 173.991 17.4257 173.988 19.2033C173.985 19.6715 173.733 19.9146 173.234 19.9325L172.17 19.9727C171.664 19.9906 171.411 19.761 171.411 19.2838L171.397 0.561502C171.397 0.505312 171.409 0.449678 171.432 0.397822C171.455 0.345965 171.489 0.298908 171.531 0.259385C171.574 0.219861 171.625 0.188651 171.68 0.167558C171.736 0.146465 171.795 0.135907 171.855 0.136498L173.578 0.154397C173.877 0.160362 174.023 0.303515 174.017 0.583865C173.947 3.56929 173.932 6.62034 173.974 9.73699C173.977 9.90102 173.939 10.1143 173.859 10.3767C173.776 10.6511 173.797 10.8733 173.921 11.0433C174.083 11.264 174.258 11.2729 174.446 11.0701L179.198 5.997C179.701 5.46315 180.331 5.1992 181.088 5.20516L182.033 5.20964C182.875 5.21561 183.006 5.5049 182.424 6.07753L176.502 11.9067C176.413 11.9948 176.362 12.1107 176.358 12.2321C176.355 12.3535 176.399 12.4718 176.483 12.5643L182.586 19.2793C182.99 19.7237 182.882 19.9444 182.262 19.9414L180.787 19.9325C180.215 19.9295 179.749 19.7207 179.389 19.3062L174.36 13.477C174.249 13.3517 174.137 13.3502 174.026 13.4725Z" fill="#484949"/>
<path d="M188.627 11.1058L194.047 5.34369C194.072 5.31756 194.102 5.29651 194.135 5.28188C194.169 5.26724 194.206 5.25935 194.243 5.2587L196.805 5.22291C196.857 5.22303 196.908 5.23731 196.951 5.26401C196.994 5.29071 197.029 5.32868 197.049 5.37327C197.07 5.41787 197.077 5.46717 197.068 5.51514C197.059 5.56312 197.036 5.6077 197.001 5.64344L190.583 12.0945C190.539 12.1391 190.513 12.1974 190.512 12.2583C190.51 12.3192 190.532 12.3787 190.574 12.4255L197.025 19.5655C197.059 19.6022 197.081 19.6476 197.089 19.6961C197.096 19.7446 197.088 19.794 197.066 19.8383C197.043 19.8826 197.008 19.9197 196.963 19.9452C196.918 19.9706 196.867 19.9833 196.815 19.9815L194.281 19.9323C194.243 19.9317 194.205 19.9235 194.17 19.908C194.136 19.8926 194.105 19.8704 194.081 19.8428L188.255 13.1592C188.219 13.1171 188.171 13.0866 188.116 13.0722C188.061 13.0579 188.003 13.0604 187.949 13.0794C187.896 13.0984 187.85 13.1329 187.82 13.1778C187.789 13.2228 187.774 13.2758 187.777 13.3292L188.073 19.6818C188.075 19.7147 188.069 19.7475 188.057 19.7784C188.044 19.8092 188.026 19.8375 188.002 19.8616C187.978 19.8857 187.949 19.9051 187.917 19.9188C187.885 19.9325 187.851 19.9401 187.816 19.9413L185.874 19.9815C185.838 19.9821 185.803 19.9761 185.77 19.9638C185.737 19.9514 185.707 19.9331 185.682 19.9098C185.656 19.8864 185.636 19.8586 185.622 19.8279C185.609 19.7972 185.602 19.7643 185.602 19.731L185.587 0.39135C185.587 0.324907 185.616 0.261184 185.666 0.214201C185.716 0.167219 185.784 0.140826 185.855 0.140826L187.954 0.131877C187.99 0.13127 188.026 0.137455 188.059 0.150055C188.092 0.162655 188.122 0.18141 188.148 0.205211C188.173 0.229012 188.193 0.257369 188.207 0.288581C188.22 0.319792 188.227 0.353225 188.226 0.386879L188.159 10.9358C188.158 10.987 188.174 11.0373 188.205 11.0799C188.235 11.1224 188.279 11.1552 188.33 11.1737C188.381 11.1922 188.437 11.1957 188.49 11.1835C188.543 11.1714 188.591 11.1442 188.627 11.1058Z" fill="#484949"/>
<path d="M263.362 13.2889C263.343 13.2823 263.322 13.2802 263.302 13.2827C263.282 13.2852 263.263 13.2923 263.246 13.3033C263.23 13.3144 263.217 13.329 263.208 13.346C263.199 13.363 263.194 13.3818 263.195 13.4007L263.285 19.4133C263.288 19.7682 263.101 19.9457 262.722 19.9457L261.381 19.9546C261.301 19.9552 261.221 19.9409 261.146 19.9123C261.072 19.8838 261.004 19.8417 260.946 19.7885C260.889 19.7353 260.844 19.672 260.813 19.6022C260.782 19.5324 260.766 19.4576 260.766 19.382L260.756 0.476303C260.756 0.26455 260.868 0.160166 261.09 0.163148L262.937 0.167619C263.188 0.167619 263.309 0.285423 263.3 0.521036C263.22 3.40208 263.217 6.32935 263.29 9.30285C263.304 9.92468 263.161 10.4347 263.028 11.0297C263.013 11.0946 263.022 11.1623 263.052 11.2221C263.083 11.2819 263.134 11.3304 263.197 11.3601C263.261 11.3898 263.333 11.3989 263.402 11.3861C263.472 11.3732 263.534 11.3391 263.581 11.2892L268.539 5.98786C269.054 5.4361 269.703 5.16918 270.485 5.18707L271.382 5.20497C272.219 5.21988 272.348 5.51216 271.769 6.08181L265.914 11.8349C265.809 11.9382 265.748 12.0746 265.743 12.2176C265.739 12.3606 265.791 12.5001 265.89 12.6089L271.874 19.2254C272.36 19.7623 272.228 20.0188 271.478 19.9949L270.256 19.9546C269.569 19.9338 269.009 19.6713 268.577 19.1673C266.9 17.2048 265.261 15.314 263.657 13.4947C263.575 13.3992 263.476 13.3306 263.362 13.2889Z" fill="#484949"/>
<path d="M277.962 13.5708C277.926 13.5291 277.877 13.499 277.822 13.4845C277.767 13.4701 277.708 13.4721 277.654 13.4903C277.6 13.5085 277.554 13.5419 277.521 13.586C277.488 13.6301 277.471 13.6826 277.471 13.7363L277.595 19.2658C277.608 19.7489 277.355 19.986 276.836 19.9771L275.691 19.9592C275.208 19.9503 274.966 19.7191 274.966 19.2658L274.933 0.476394C274.933 0.389364 274.97 0.305828 275.036 0.243871C275.102 0.181914 275.192 0.146517 275.286 0.14534L277.232 0.140869C277.325 0.140869 277.413 0.175274 277.479 0.236519C277.544 0.297764 277.581 0.380831 277.581 0.467445C277.578 2.74603 277.576 5.08725 277.576 7.4911C277.576 8.51109 277.247 9.56688 277.175 10.6227C277.147 11.0134 277.275 11.2356 277.562 11.2892C277.65 11.3067 277.742 11.3014 277.827 11.2739C277.913 11.2463 277.989 11.1975 278.048 11.1327L282.667 5.98795C283.167 5.43023 283.806 5.15137 284.585 5.15137H285.597C286.491 5.15137 286.631 5.45558 286.017 6.064L279.938 12.1034C279.894 12.1481 279.868 12.2063 279.866 12.2673C279.865 12.3282 279.887 12.3877 279.928 12.4345L286.083 19.2345C286.586 19.7892 286.449 20.0472 285.673 20.0084L284.49 19.9458C283.79 19.907 283.221 19.6341 282.782 19.1271L277.962 13.5708Z" fill="#484949"/>
<path d="M291.952 2.75335C291.951 2.798 291.94 2.84199 291.921 2.8828C291.902 2.92361 291.874 2.96043 291.839 2.99118C291.805 3.02192 291.764 3.04598 291.72 3.06198C291.675 3.07797 291.628 3.08559 291.58 3.0844L290.234 3.05756C289.975 3.05196 289.727 2.96973 289.547 2.82888C289.366 2.68802 289.267 2.5 289.271 2.30598L289.304 0.793881C289.306 0.697539 289.333 0.602603 289.384 0.514489C289.435 0.426375 289.509 0.346809 289.602 0.280341C289.695 0.213873 289.804 0.1618 289.924 0.127098C290.044 0.0923965 290.172 0.0757495 290.301 0.078099L291.647 0.10494C291.694 0.1061 291.741 0.116044 291.785 0.134211C291.828 0.152378 291.868 0.17841 291.9 0.210815C291.933 0.243221 291.959 0.281366 291.976 0.323073C291.993 0.36478 292.001 0.409232 292 0.453885L291.952 2.75335Z" fill="#484949"/>
<path d="M136.57 17.9507C136.648 17.9244 136.718 17.8806 136.775 17.823C136.831 17.7654 136.872 17.6956 136.895 17.6196L141.886 0.758359C141.931 0.603382 142.03 0.466747 142.167 0.369671C142.304 0.272595 142.472 0.220513 142.644 0.221521L144.19 0.239419C144.582 0.245384 144.722 0.424329 144.61 0.776258C142.959 6.04624 141.323 11.3967 139.7 16.8278C139.056 18.9841 138.145 20.6572 135.482 20.022C133.836 19.6328 133.521 18.2638 133.001 16.5549C131.395 11.2819 129.774 6.04027 128.139 0.82994C128.018 0.451169 128.168 0.25582 128.588 0.24389L130.014 0.203629C130.469 0.191699 130.759 0.391521 130.883 0.803099C132.543 6.34448 134.191 11.9351 135.826 17.5749C135.934 17.9536 136.182 18.0789 136.57 17.9507Z" fill="#484949"/>
<path d="M54.0243 71.46L53.676 72.1355C53.6632 72.1564 53.6537 72.1564 53.6473 72.1355L52.9746 69.9926C52.93 69.8495 52.8298 69.7675 52.674 69.7466C52.0107 69.6526 51.6529 69.1471 51.4811 68.6237C51.4593 68.5615 51.4198 68.5061 51.3668 68.4635C51.3138 68.4209 51.2494 68.3928 51.1805 68.3821C50.5348 68.2897 50.0799 67.981 49.8159 67.4561C49.7459 67.3189 49.6377 67.2145 49.4914 67.1429C49.3992 67.0982 49.3149 67.0385 49.2385 66.964C49.1367 66.8656 49.0922 66.7477 49.1049 66.6106C49.124 66.4137 49.0477 66.2735 48.8759 66.19C48.8091 66.1572 48.6723 66.1438 48.4656 66.1498C47.621 66.1811 46.9912 65.0313 46.3709 64.4587C45.5454 63.6937 44.7343 62.7811 43.7561 62.0564C43.5367 61.8923 43.174 61.5658 42.6683 61.0766C42.312 60.7336 41.8921 60.4563 41.4086 60.2445C41.2209 60.161 41.1112 60.0164 41.0794 59.8106C41.0635 59.7062 41.0078 59.6242 40.9124 59.5645L39.9867 58.9874C39.8277 58.886 39.7291 58.7458 39.6909 58.5669C39.6273 58.2508 39.4348 58.0957 39.1135 58.1016C39.0255 58.1031 38.9381 58.0862 38.8573 58.0522C38.7765 58.0182 38.7043 57.9679 38.6459 57.9048C38.1815 57.3978 37.6694 56.9489 37.1095 56.5582C35.764 55.6143 34.824 54.7777 33.655 53.8919C33.566 53.8233 33.5087 53.716 33.4832 53.5698C33.461 53.4296 33.3862 53.3223 33.259 53.2477C31.9134 52.4723 30.7269 51.5373 29.6995 50.4427C28.5035 49.1692 27.6796 48.3446 27.2279 47.9688C26.1018 47.0353 24.9646 46.1107 23.8163 45.1951C23.6891 45.0937 23.5412 45.0341 23.3726 45.0162C23.0004 44.9714 22.7173 44.8014 22.5232 44.5062C22.431 44.36 22.299 44.2661 22.1272 44.2243C21.7201 44.1289 21.3399 43.9738 20.9868 43.7591C20.9307 43.7242 20.8897 43.6717 20.8713 43.611C20.8529 43.5502 20.8584 43.4853 20.8867 43.428C20.9535 43.2968 20.9312 43.1909 20.8199 43.1104C20.5336 42.9076 20.2791 42.672 20.0564 42.4035C19.9622 42.2916 19.8431 42.2014 19.7081 42.1396C18.6966 41.6654 18.8636 40.5872 18.792 39.8267C18.7894 39.8215 18.7851 39.8174 18.7796 39.8151C18.7741 39.8128 18.7678 39.8123 18.7614 39.8138C18.7551 39.8153 18.7492 39.8186 18.7444 39.8233C18.7396 39.8281 18.7362 39.8339 18.7347 39.8401C18.7347 39.8819 18.7204 39.9117 18.6918 39.9296C18.66 39.9475 18.6123 39.946 18.5486 39.9251C17.8616 39.7104 17.1713 39.5136 16.4778 39.3346C16.2838 39.2839 16.2854 39.2407 16.4826 39.2049L17.7614 38.9767C17.895 38.9528 18.019 38.9737 18.1335 39.0393C18.5725 39.2809 18.9972 39.2928 19.4075 39.0751C19.5347 39.0095 19.6715 38.9767 19.8179 38.9767C21.3829 38.9767 22.897 38.7635 24.3603 38.337L24.4366 1.94371C24.4366 1.91572 24.4426 1.888 24.4541 1.8622C24.4657 1.83639 24.4826 1.81301 24.504 1.79343C24.5253 1.77384 24.5506 1.75845 24.5783 1.74815C24.6061 1.73785 24.6358 1.73285 24.6656 1.73345L53.8191 1.79608C53.8874 1.79608 53.953 1.82153 54.0013 1.86683C54.0496 1.91214 54.0768 1.97358 54.0768 2.03765C54.0354 12.9594 54.0195 23.9139 54.0291 34.9012C54.0291 36.1986 54.0736 37.2424 54.1627 38.0328C54.1817 38.1938 54.2788 38.2833 54.4537 38.3012C57.3977 38.6009 61.1146 38.3683 63.1759 38.3817C78.699 38.4772 94.2332 38.4414 109.779 38.2744C109.824 38.2738 109.869 38.2817 109.911 38.2976C109.954 38.3135 109.992 38.3371 110.025 38.3671C110.057 38.3971 110.083 38.4328 110.1 38.4722C110.118 38.5115 110.127 38.5538 110.127 38.5965L110.155 65.68C110.155 65.82 110.097 65.9543 109.992 66.0533C109.887 66.1523 109.745 66.2079 109.597 66.2079L54.2772 66.1945C54.1277 66.1945 54.0513 66.2646 54.0481 66.4048L54.0243 71.46Z" fill="#203A71"/>
<path d="M148.112 13.544C147.506 16.0447 149.324 18.0713 152.092 18.0355C154.341 18.0087 156.015 17.9401 157.116 17.8297C157.615 17.779 157.848 17.9878 157.813 18.456L157.774 18.9303C157.743 19.3806 157.488 19.6416 157.011 19.7131C152.178 20.4692 146.38 20.7958 145.564 14.895C145.469 14.215 145.494 12.7998 145.641 10.6495C145.922 6.52477 149.238 4.55636 153.342 5.20057C156.333 5.67031 158.104 7.93846 158.204 10.8374C158.226 11.416 158.253 12.005 158.285 12.6045C158.317 13.1533 158.04 13.4262 157.455 13.4232L148.384 13.3426C148.235 13.3426 148.144 13.4097 148.112 13.544ZM148.718 11.5755L154.969 11.5487C155.057 11.5481 155.143 11.5313 155.224 11.4993C155.305 11.4673 155.378 11.4207 155.44 11.3621C155.501 11.3035 155.55 11.2342 155.583 11.1579C155.616 11.0817 155.633 11.0002 155.632 10.9179L155.627 10.4124C155.625 9.9735 155.528 9.53937 155.343 9.1348C155.158 8.73022 154.887 8.36312 154.548 8.05446C154.208 7.7458 153.805 7.50162 153.362 7.33587C152.92 7.17012 152.446 7.08605 151.968 7.08846H151.662C150.697 7.09329 149.773 7.44996 149.094 8.08002C148.414 8.71008 148.036 9.56193 148.041 10.4482L148.045 10.9537C148.046 11.036 148.064 11.1173 148.098 11.193C148.132 11.2688 148.182 11.3375 148.244 11.3953C148.307 11.453 148.381 11.4987 148.462 11.5296C148.544 11.5605 148.631 11.5761 148.718 11.5755Z" fill="#484949"/>
<path d="M164.431 8.10413C164.35 8.14465 164.283 8.20516 164.236 8.27921C164.189 8.35327 164.164 8.43809 164.164 8.52465L164.169 19.2793C164.169 19.7715 163.906 20.0071 163.381 19.9862L162.413 19.9504C161.971 19.9325 161.749 19.7178 161.749 19.3062L161.726 5.78677C161.726 5.50046 161.877 5.33344 162.179 5.28572C162.618 5.21713 163.057 5.22011 163.496 5.29467C163.652 5.32151 163.769 5.39905 163.849 5.5273L164.149 6.02387C164.185 6.08298 164.244 6.12694 164.314 6.14687C164.384 6.1668 164.46 6.16122 164.526 6.13125C165.81 5.54967 166.936 4.87415 168.491 5.25888C168.666 5.30362 168.757 5.41099 168.763 5.58099L168.806 6.67256C168.819 6.94992 168.676 7.09308 168.377 7.10203C166.984 7.14975 165.668 7.48379 164.431 8.10413Z" fill="#484949"/>
<path d="M211.077 14.6056C211.076 15.3253 210.924 16.0376 210.629 16.702C210.334 17.3665 209.902 17.9699 209.358 18.4779C208.815 18.9859 208.169 19.3885 207.46 19.6628C206.75 19.937 205.99 20.0775 205.222 20.0762L204.268 20.0747C202.718 20.0721 201.232 19.4923 200.138 18.4628C199.044 17.4333 198.43 16.0383 198.433 14.5849L198.44 10.6391C198.442 9.91946 198.594 9.20708 198.889 8.54266C199.184 7.87825 199.616 7.27482 200.16 6.76682C200.703 6.25882 201.348 5.85621 202.058 5.58196C202.768 5.30771 203.528 5.16721 204.296 5.16847L205.25 5.17003C206.8 5.17257 208.286 5.75238 209.38 6.78191C210.474 7.81144 211.087 9.20636 211.085 10.6598L211.077 14.6056ZM208.675 10.6161C208.68 10.1696 208.592 9.72661 208.414 9.31233C208.236 8.89806 207.973 8.52065 207.64 8.20164C207.307 7.88263 206.91 7.62827 206.472 7.4531C206.034 7.27792 205.563 7.18535 205.087 7.18067L204.582 7.17571C204.105 7.17103 203.633 7.25434 203.191 7.42088C202.749 7.58741 202.347 7.83392 202.006 8.14631C201.666 8.45871 201.395 8.83087 201.208 9.24157C201.021 9.65226 200.922 10.0934 200.917 10.5399L200.871 14.6912C200.866 15.1377 200.955 15.5807 201.133 15.995C201.31 16.4093 201.573 16.7867 201.906 17.1057C202.24 17.4247 202.636 17.6791 203.074 17.8542C203.513 18.0294 203.983 18.122 204.459 18.1267L204.965 18.1316C205.441 18.1363 205.914 18.053 206.355 17.8865C206.797 17.7199 207.2 17.4734 207.54 17.161C207.88 16.8486 208.152 16.4765 208.338 16.0658C208.525 15.6551 208.624 15.2139 208.629 14.7674L208.675 10.6161Z" fill="#484949"/>
<path d="M216.969 20.2322L217.031 24.2854C217.041 24.855 216.743 25.1473 216.139 25.1622L215.361 25.1846C214.731 25.1995 214.416 24.9132 214.416 24.3256L214.407 6.35937C214.407 6.25231 214.443 6.1478 214.511 6.0604C214.579 5.973 214.674 5.90705 214.784 5.87174C216.619 5.2842 218.587 5.03367 220.686 5.12016C226.192 5.33937 226.774 9.49541 226.56 13.7857C226.259 19.8654 222.909 20.3441 217.346 19.9056C217.091 19.8848 216.966 19.9936 216.969 20.2322ZM216.816 8.21147L216.797 17.0425C216.797 17.3344 216.921 17.6143 217.141 17.8207C217.361 18.0271 217.66 18.143 217.971 18.143L220.92 18.1475C221.745 18.1485 222.536 17.804 223.121 17.1899C223.705 16.5758 224.034 15.7423 224.035 14.8728L224.045 10.3991C224.046 9.96839 223.966 9.5418 223.81 9.14368C223.655 8.74555 223.426 8.38369 223.138 8.07876C222.849 7.77383 222.506 7.53181 222.129 7.36652C221.752 7.20123 221.347 7.1159 220.939 7.11542L217.99 7.11095C217.679 7.11095 217.38 7.2269 217.16 7.43329C216.94 7.63967 216.816 7.91959 216.816 8.21147Z" fill="#484949"/>
<path d="M238.522 10.9134C238.693 9.21346 238.106 7.11083 235.821 7.10188C234.211 7.09592 232.572 7.16302 230.902 7.3032C230.807 7.31138 230.711 7.30084 230.621 7.27225C230.531 7.24367 230.448 7.19769 230.378 7.13731C230.308 7.07694 230.253 7.00352 230.216 6.92187C230.179 6.84022 230.16 6.75217 230.162 6.66347L230.167 6.44425C230.183 5.85671 230.499 5.51373 231.116 5.41531C234.036 4.95452 238.541 4.48479 240.249 7.15109C240.707 7.86688 240.939 9.03749 240.945 10.6629C240.958 13.6364 240.958 16.6114 240.945 19.5879C240.945 19.7519 240.86 19.8563 240.688 19.901C240.277 20.0084 239.864 20.0397 239.447 19.995C239.272 19.9771 239.121 19.91 238.994 19.7937L238.378 19.2166C238.322 19.1635 238.25 19.1272 238.171 19.1121C238.092 19.097 238.01 19.1037 237.935 19.1316C237.512 19.2867 237.093 19.4462 236.68 19.6103C232.075 21.4445 228.125 18.465 229.666 13.884C230.716 10.7658 235.687 11.3071 238.211 11.1908C238.29 11.1869 238.364 11.1568 238.421 11.1059C238.478 11.0551 238.514 10.9868 238.522 10.9134ZM234.223 12.9848C231.87 13.5842 231.737 14.904 232.109 16.9305C232.476 18.966 236.79 17.9863 237.973 17.3466C238.075 17.2904 238.16 17.2106 238.219 17.1149C238.278 17.0193 238.31 16.9111 238.312 16.8008L238.321 13.0832C238.321 13.0265 238.293 12.9922 238.235 12.9803C236.864 12.6522 235.527 12.6537 234.223 12.9848Z" fill="#484949"/>
<path d="M247.831 6.07295C248.828 5.70164 249.735 5.28111 250.765 5.1648C256.806 4.49822 256.901 8.5782 256.882 13.0832C256.876 15.1381 256.877 17.2676 256.887 19.4716C256.887 19.5395 256.872 19.6067 256.844 19.6693C256.816 19.7318 256.774 19.7883 256.722 19.8355C256.67 19.8827 256.609 19.9196 256.541 19.9439C256.473 19.9682 256.401 19.9795 256.329 19.9771L254.916 19.9324C254.77 19.9277 254.631 19.8693 254.531 19.7697C254.43 19.6701 254.375 19.5373 254.377 19.4C254.428 16.2177 254.396 13.0936 254.282 10.0277C254.134 6.14453 249.892 6.82453 247.54 8.18452C247.422 8.25312 247.365 8.35154 247.368 8.47979L247.401 19.3061C247.405 19.7296 247.182 19.9428 246.733 19.9458L245.397 19.9547C245.317 19.9553 245.238 19.9411 245.164 19.9128C245.09 19.8845 245.023 19.8427 244.966 19.7899C244.909 19.7371 244.864 19.6743 244.833 19.605C244.802 19.5358 244.787 19.4616 244.787 19.3866V5.8269C244.786 5.71169 244.826 5.59948 244.899 5.50683C244.972 5.41419 245.075 5.34603 245.192 5.31243C246.178 5.0291 246.916 5.24085 247.406 5.94769C247.511 6.09681 247.653 6.13857 247.831 6.07295Z" fill="#484949"/>
<path d="M291.337 5.16479H290.039C289.686 5.16479 289.399 5.43319 289.399 5.76426V19.4C289.399 19.7311 289.686 19.9995 290.039 19.9995H291.337C291.69 19.9995 291.976 19.7311 291.976 19.4V5.76426C291.976 5.43319 291.69 5.16479 291.337 5.16479Z" fill="#484949"/>
<path d="M147.063 30.0931L145.851 30.109C145.453 30.1142 145.135 30.4208 145.14 30.7939L145.168 32.6547C145.174 33.0278 145.501 33.326 145.899 33.3208L147.11 33.3049C147.508 33.2997 147.826 32.993 147.821 32.62L147.793 30.7591C147.788 30.3861 147.46 30.0879 147.063 30.0931Z" fill="#203A71"/>
<path d="M186.01 30.072L184.846 30.0853C184.44 30.09 184.115 30.4022 184.12 30.7826L184.144 32.6346C184.149 33.0151 184.482 33.3197 184.888 33.3151L186.052 33.3017C186.458 33.2971 186.783 32.9849 186.778 32.6044L186.754 30.7525C186.749 30.372 186.416 30.0673 186.01 30.072Z" fill="#203A71"/>
<path d="M206.792 38.3772L206.763 49.3333C206.76 49.9566 206.426 50.2802 205.761 50.304L205.193 50.3264C204.557 50.3503 204.239 50.0625 204.239 49.463L204.229 30.8436C204.229 30.7606 204.247 30.6784 204.282 30.6022C204.317 30.5259 204.368 30.4572 204.433 30.4002C204.497 30.3432 204.573 30.2992 204.656 30.2708C204.74 30.2424 204.828 30.2303 204.917 30.2352L206.181 30.3068C206.598 30.3306 206.804 30.5379 206.801 30.9286L206.763 35.8273C206.763 35.879 206.777 35.9299 206.803 35.9756C206.828 36.0213 206.865 36.0604 206.911 36.0895C206.956 36.1186 207.008 36.1368 207.062 36.1426C207.116 36.1483 207.171 36.1415 207.221 36.1225C211.802 34.4181 216.311 35.5365 216.311 40.9407C216.311 43.78 216.328 46.5879 216.363 49.3646C216.37 49.9521 216.058 50.2533 215.428 50.2683L214.626 50.2862C213.981 50.3011 213.661 50.0058 213.667 49.4004C213.702 46.5074 213.709 43.6159 213.686 40.7259C213.677 38.9588 213.271 37.742 211.143 37.5765C209.731 37.4691 208.354 37.6391 207.011 38.0865C206.947 38.107 206.892 38.1461 206.852 38.1982C206.813 38.2503 206.792 38.3129 206.792 38.3772Z" fill="#203A71"/>
<path d="M131.951 38.5561C131.955 38.6266 131.987 38.6931 132.041 38.7421C132.095 38.7911 132.167 38.819 132.242 38.8201L140.798 38.9587C141.195 38.9647 141.391 39.1541 141.385 39.5269L141.365 40.5916C141.363 40.7364 141.3 40.8746 141.189 40.9766C141.079 41.0786 140.929 41.1363 140.774 41.1374L132.347 41.1419C132.231 41.1419 132.119 41.1852 132.037 41.2624C131.955 41.3396 131.908 41.4443 131.908 41.5535L131.923 49.199C131.926 49.8581 131.576 50.207 130.873 50.2458L130.32 50.2771C129.645 50.3129 129.308 50.0147 129.308 49.3824C129.302 44.8938 129.303 40.3948 129.313 35.8853C129.318 32.7582 130.267 30.7943 133.726 30.3782C134.964 30.2291 137.319 30.2366 140.793 30.4006C141.203 30.4185 141.407 30.6198 141.404 31.0046L141.399 31.9798C141.396 32.3675 141.187 32.5524 140.774 32.5345C138.118 32.4361 135.926 32.451 134.199 32.5793C131.937 32.7448 131.975 34.2569 131.928 36.0732C131.908 36.9232 131.916 37.7508 131.951 38.5561Z" fill="#203A71"/>
<path d="M195.383 48.5012C197.516 48.6176 200.068 46.7207 197.215 45.07C195.758 44.2259 194.317 43.3729 192.892 42.511C191.227 41.5 190.091 40.1489 190.382 38.2342C190.945 34.4987 197.325 35.4426 200.002 35.7513C200.457 35.805 200.678 36.0466 200.665 36.476L200.651 37.0397C200.641 37.4394 200.423 37.6362 199.997 37.6302C198.607 37.6094 197.11 37.5631 195.507 37.4916C192.367 37.3484 191.914 39.2676 194.524 40.7305C197.373 42.3186 202.063 44.1305 200.603 48.0763C199.472 51.1362 193.961 50.5144 191.174 50.067C190.596 49.9716 190.319 49.648 190.344 49.0963L190.363 48.7518C190.389 48.2418 190.67 48.0256 191.208 48.1031C192.483 48.282 193.875 48.4148 195.383 48.5012Z" fill="#203A71"/>
<path d="M154.573 38.565L154.554 49.3734C154.551 49.8983 154.269 50.1742 153.709 50.201L152.803 50.2413C152.205 50.2681 151.906 50.0012 151.906 49.4405V36.44C151.906 35.9509 152.165 35.6735 152.684 35.6079C153.476 35.5125 154.159 35.7183 154.735 36.2253C154.796 36.2803 154.875 36.3156 154.96 36.326C155.044 36.3365 155.131 36.3216 155.208 36.2835C159.216 34.324 164.02 35.4514 164.011 40.4932C164.008 43.6576 164.017 46.7026 164.04 49.6284C164.043 50.0221 163.836 50.2189 163.419 50.2189L162.241 50.2234C161.776 50.2264 161.536 50.0102 161.52 49.5747C161.393 46.2881 161.352 42.9626 161.396 39.5984C161.434 36.525 156.525 37.4242 154.783 38.2429C154.72 38.2739 154.667 38.3203 154.63 38.3771C154.593 38.4339 154.573 38.4989 154.573 38.565Z" fill="#203A71"/>
<path d="M170.715 38.337C170.641 38.3738 170.579 38.4285 170.535 38.4953C170.492 38.5622 170.468 38.6389 170.467 38.7173L170.366 49.4943C170.36 50.061 170.053 50.3473 169.445 50.3533H168.93C168.291 50.3592 167.969 50.0625 167.966 49.463L167.857 36.042C167.855 35.9645 167.88 35.8884 167.929 35.8247C167.978 35.7611 168.048 35.7134 168.128 35.6886C168.943 35.441 169.678 35.5648 170.333 36.0599C170.485 36.1749 170.669 36.2469 170.864 36.2675C171.058 36.2881 171.254 36.2564 171.43 36.1762C173.997 34.9907 177.781 34.9952 179.275 37.6078C179.688 38.3295 179.898 39.615 179.904 41.4641C179.917 44.2139 179.912 46.8996 179.89 49.5212C179.887 50.058 179.599 50.3279 179.026 50.3309H178.339C177.722 50.3309 177.417 50.0416 177.423 49.463C177.458 46.5253 177.481 43.6472 177.49 40.8288C177.493 39.7641 177.147 38.8261 176.45 38.0149C176.329 37.8756 176.163 37.7767 175.978 37.733C174.148 37.3066 172.394 37.5079 170.715 38.337Z" fill="#203A71"/>
<path d="M147.124 35.6091L145.817 35.6069C145.487 35.6064 145.22 35.8563 145.219 36.1652L145.194 49.6488C145.193 49.9576 145.46 50.2084 145.789 50.209L147.097 50.2111C147.426 50.2116 147.694 49.9617 147.694 49.6529L147.719 36.1693C147.72 35.8604 147.453 35.6096 147.124 35.6091Z" fill="#203A71"/>
<path d="M186.007 35.5903H184.871C184.484 35.5903 184.17 35.8848 184.17 36.248V49.6242C184.17 49.9874 184.484 50.2818 184.871 50.2818H186.007C186.394 50.2818 186.708 49.9874 186.708 49.6242V36.248C186.708 35.8848 186.394 35.5903 186.007 35.5903Z" fill="#203A71"/>
<path d="M24.3603 38.337C22.897 38.7635 21.3829 38.9768 19.8179 38.9768C19.6715 38.9768 19.5348 39.0096 19.4075 39.0752C18.9972 39.2929 18.5725 39.281 18.1336 39.0394C18.019 38.9738 17.895 38.9529 17.7614 38.9768L16.4826 39.2049C16.2854 39.2407 16.2838 39.284 16.4779 39.3347C17.1713 39.5136 17.8616 39.7104 18.5487 39.9252C18.6123 39.9461 18.66 39.9475 18.6918 39.9296C18.7204 39.9118 18.7347 39.8819 18.7347 39.8402C18.7362 39.834 18.7396 39.8281 18.7444 39.8234C18.7492 39.8187 18.7552 39.8153 18.7615 39.8139C18.7678 39.8124 18.7741 39.8128 18.7796 39.8151C18.7851 39.8175 18.7894 39.8215 18.792 39.8268C18.8636 40.5873 18.6966 41.6654 19.7081 42.1396C19.8431 42.2014 19.9622 42.2916 20.0564 42.4036C20.2791 42.672 20.5336 42.9076 20.8199 43.1104C20.9312 43.191 20.9535 43.2968 20.8867 43.4281C20.8584 43.4854 20.8529 43.5503 20.8713 43.611C20.8897 43.6717 20.9307 43.7243 20.9869 43.7591C21.3399 43.9738 21.7201 44.1289 22.1272 44.2244C22.299 44.2661 22.431 44.3601 22.5233 44.5062C22.7173 44.8015 23.0004 44.9715 23.3726 45.0162C23.5412 45.0341 23.6891 45.0938 23.8163 45.1952C24.9647 46.1108 26.1019 47.0353 27.2279 47.9688C27.6796 48.3446 28.5035 49.1693 29.6995 50.4428C30.727 51.5373 31.9135 52.4723 33.259 53.2478C33.3862 53.3223 33.461 53.4297 33.4833 53.5699C33.5087 53.716 33.566 53.8234 33.655 53.892C34.824 54.7778 35.764 55.6143 37.1096 56.5583C37.6694 56.949 38.1815 57.3978 38.646 57.9048C38.7044 57.9679 38.7765 58.0182 38.8573 58.0522C38.9381 58.0862 39.0256 58.1031 39.1136 58.1017C39.4348 58.0957 39.6273 58.2508 39.6909 58.5669C39.7291 58.7459 39.8277 58.8861 39.9867 58.9875L40.9124 59.5646C41.0078 59.6242 41.0635 59.7062 41.0794 59.8106C41.1112 60.0164 41.2209 60.1611 41.4086 60.2446C41.8921 60.4563 42.312 60.7337 42.6683 61.0767C43.174 61.5658 43.5367 61.8924 43.7562 62.0564C44.7343 62.7811 45.5455 63.6938 46.3709 64.4588C46.9912 65.0314 47.621 66.1811 48.4656 66.1498C48.6723 66.1438 48.8091 66.1573 48.8759 66.1901C49.0477 66.2736 49.124 66.4138 49.105 66.6106C49.0922 66.7478 49.1368 66.8656 49.2386 66.964C49.3149 67.0386 49.3992 67.0982 49.4914 67.143C49.6378 67.2145 49.7459 67.3189 49.8159 67.4561C50.0799 67.981 50.5348 68.2897 51.1805 68.3822C51.2494 68.3928 51.3138 68.421 51.3668 68.4636C51.4198 68.5062 51.4594 68.5616 51.4811 68.6237C51.6529 69.1472 52.0108 69.6527 52.674 69.7466C52.8298 69.7675 52.9301 69.8495 52.9746 69.9927L53.6474 72.1356C53.6537 72.1565 53.6633 72.1565 53.676 72.1356L54.0243 71.46L54.0386 102.883C54.0386 103.038 53.9559 103.116 53.7905 103.116L24.5893 103.174C24.5501 103.174 24.5125 103.159 24.4847 103.132C24.457 103.105 24.4414 103.069 24.4414 103.031L24.4557 66.4495C24.4557 66.3922 24.4312 66.3371 24.3875 66.2961C24.3438 66.2551 24.2843 66.2315 24.2219 66.2303L2.64545 66.1811C2.54207 66.1794 2.44302 66.1424 2.3673 66.0772C2.29158 66.012 2.24452 65.9232 2.23512 65.8277C2.11106 64.5885 2.32101 63.1032 2.33055 62.0475C2.40212 55.1267 2.44506 48.2059 2.44028 41.2762C2.44028 40.5008 2.34168 39.7388 2.14446 38.9902C2.10629 38.847 2.16196 38.7531 2.31146 38.7083C3.32937 38.4071 4.06894 38.261 4.53018 38.2699C11.1148 38.3892 17.7248 38.4116 24.3603 38.337Z" fill="#284989"/>
<path d="M173.168 54.7267L171.908 54.7041C171.542 54.6975 171.239 54.9705 171.232 55.3139L171.19 57.3893C171.183 57.7326 171.474 58.0163 171.84 58.0229L173.1 58.0456C173.466 58.0522 173.768 57.7792 173.776 57.4358L173.818 55.3604C173.825 55.017 173.534 54.7333 173.168 54.7267Z" fill="#203A71"/>
<path d="M166.091 54.8412L165.012 54.8394C164.654 54.8389 164.363 55.1108 164.362 55.4468L164.327 74.2988C164.326 74.6348 164.616 74.9077 164.975 74.9083L166.053 74.91C166.412 74.9106 166.703 74.6387 166.703 74.3027L166.738 55.4507C166.739 55.1147 166.449 54.8418 166.091 54.8412Z" fill="#203A71"/>
<path d="M144.329 68.2747C144.329 70.0639 143.571 71.7799 142.221 73.0451C140.872 74.3102 139.042 75.021 137.134 75.021H136.036C134.128 75.021 132.298 74.3102 130.948 73.0451C129.599 71.7799 128.841 70.0639 128.841 68.2747V61.8505C128.841 60.0613 129.599 58.3454 130.948 57.0802C132.298 55.815 134.128 55.1042 136.036 55.1042H137.134C139.042 55.1042 140.872 55.815 142.221 57.0802C143.571 58.3454 144.329 60.0613 144.329 61.8505V68.2747ZM141.672 61.57C141.67 61.0037 141.549 60.4433 141.316 59.9208C141.083 59.3983 140.742 58.924 140.314 58.5249C139.885 58.1259 139.377 57.8099 138.818 57.595C138.259 57.3801 137.661 57.2705 137.057 57.2724L136.093 57.2756C135.489 57.2776 134.891 57.3911 134.334 57.6096C133.777 57.8282 133.271 58.1475 132.845 58.5494C132.42 58.9512 132.083 59.4277 131.853 59.9517C131.624 60.4757 131.507 61.0369 131.509 61.6032L131.535 68.6179C131.538 69.1842 131.659 69.7446 131.892 70.2671C132.125 70.7896 132.465 71.2639 132.894 71.6629C133.323 72.062 133.831 72.378 134.39 72.5929C134.949 72.8078 135.547 72.9174 136.151 72.9154L137.115 72.9123C137.719 72.9103 138.317 72.7968 138.874 72.5783C139.431 72.3597 139.937 72.0404 140.363 71.6385C140.788 71.2367 141.125 70.7601 141.355 70.2362C141.584 69.7122 141.701 69.151 141.699 68.5846L141.672 61.57Z" fill="#203A71"/>
<path d="M157.517 64.4276C157.56 60.9918 152.707 62.0789 150.775 63.0542C150.643 63.1203 150.541 63.2284 150.489 63.3584C150.349 63.7014 150.277 64.0578 150.274 64.4276C150.242 67.3027 150.261 70.649 150.331 74.4665C150.338 74.7886 150.171 74.9348 149.83 74.9049L148.604 74.7976C148.453 74.7842 148.313 74.718 148.212 74.612C148.11 74.506 148.054 74.3679 148.055 74.2249C148.071 69.8676 148.063 65.6474 148.031 61.5645C148.012 59.3992 149.759 60.1329 150.899 60.9113C150.962 60.954 151.035 60.9817 151.112 60.9918C151.188 61.0019 151.266 60.9943 151.338 60.9695C152.35 60.6474 153.38 60.1508 154.401 60.0881C159.578 59.775 160.127 63.2242 160.117 67.2684C160.111 69.5708 160.1 71.8673 160.084 74.1578C160.081 74.6231 159.831 74.8512 159.335 74.8423L158.28 74.8244C157.771 74.8184 157.514 74.5754 157.507 74.0952C157.472 70.9099 157.476 67.6874 157.517 64.4276Z" fill="#203A71"/>
<path d="M181.15 61.0811C185.883 58.6295 190.182 60.4816 190.125 65.7695C190.093 68.4447 190.077 71.2467 190.077 74.1755C190.077 74.7392 189.777 75.0165 189.175 75.0076L188.455 74.9942C187.86 74.9822 187.569 74.6974 187.582 74.1397C187.658 70.9872 187.658 67.8259 187.582 64.6555C187.491 61.0229 182.872 61.7969 180.778 63.0003C180.705 63.0412 180.645 63.0995 180.604 63.1694C180.563 63.2393 180.542 63.3183 180.544 63.3984L180.606 74.1755C180.609 74.7929 180.282 75.0851 179.623 75.0523L178.926 75.0165C178.347 74.9867 178.058 74.6989 178.058 74.1531L178.053 60.7366C178.053 60.627 178.091 60.5205 178.162 60.4332C178.233 60.3459 178.332 60.2828 178.444 60.2534C178.836 60.1491 179.232 60.1043 179.633 60.1192C179.782 60.1252 179.908 60.1819 180.01 60.2892L180.682 61.005C180.816 61.1482 180.972 61.1735 181.15 61.0811Z" fill="#203A71"/>
<path d="M195.979 68.5076C195.898 70.6281 196.5 72.7933 199.205 73.0126C200.624 73.1259 202.572 73.0573 205.05 72.8068C205.479 72.762 205.688 72.9425 205.675 73.3481L205.661 73.9386C205.651 74.377 205.416 74.6335 204.955 74.7081C202.712 75.0779 200.717 75.1957 198.971 75.0615C193.293 74.6275 193.346 69.9436 193.479 65.546C193.637 60.4416 200.36 58.3076 204.196 61.4839C205.999 62.9781 206.353 65.886 206.061 68.0423C206.039 68.1914 205.949 68.266 205.79 68.266L196.27 68.2481C196.083 68.2481 195.986 68.3346 195.979 68.5076ZM196.39 66.7136L203.327 66.7852C203.382 66.7858 203.436 66.7763 203.487 66.7573C203.537 66.7383 203.583 66.7101 203.622 66.6744C203.661 66.6387 203.692 66.5961 203.714 66.5491C203.735 66.5021 203.747 66.4516 203.747 66.4005L203.752 65.6086C203.757 65.1726 203.688 64.7399 203.549 64.3355C203.41 63.931 203.204 63.5627 202.941 63.2515C202.679 62.9403 202.366 62.6924 202.02 62.5219C201.675 62.3514 201.304 62.2617 200.927 62.2579L198.885 62.24C198.127 62.2336 197.396 62.5762 196.853 63.1927C196.31 63.8091 195.999 64.649 195.989 65.5281L195.979 66.32C195.979 66.3711 195.989 66.4218 196.009 66.4692C196.029 66.5167 196.06 66.5599 196.098 66.5965C196.136 66.633 196.181 66.6622 196.231 66.6823C196.281 66.7024 196.335 66.713 196.39 66.7136Z" fill="#203A71"/>
<path d="M173.268 60.1865H171.827C171.524 60.1865 171.278 60.4169 171.278 60.701V74.3546C171.278 74.6388 171.524 74.8691 171.827 74.8691H173.268C173.571 74.8691 173.816 74.6388 173.816 74.3546V60.701C173.816 60.4169 173.571 60.1865 173.268 60.1865Z" fill="#203A71"/>
<path d="M193.806 79.3728L192.776 79.3846C192.32 79.3898 191.955 79.7405 191.96 80.1679L191.983 81.8767C191.988 82.3041 192.362 82.6464 192.818 82.6412L193.849 82.6294C194.304 82.6241 194.669 82.2734 194.664 81.846L194.642 80.1372C194.636 79.7098 194.262 79.3676 193.806 79.3728Z" fill="#203A71"/>
<path d="M180.425 93.4615C180.32 93.4883 180.223 93.5569 180.134 93.6673C180.07 93.7418 180.035 93.8418 180.029 93.967C179.949 95.494 179.939 97.0882 180 98.7494C180.019 99.2773 179.747 99.5531 179.184 99.577L178.502 99.5994C177.916 99.6232 177.624 99.3608 177.624 98.812L177.59 80.2597C177.59 79.7646 177.854 79.5216 178.382 79.5305L179.275 79.5484C179.799 79.5603 180.06 79.8109 180.057 80.3L179.99 89.5963C179.981 90.7505 180.409 90.916 181.274 90.0928C182.701 88.7373 183.75 87.2834 185.105 85.7936C185.592 85.2568 186.212 84.9735 186.966 84.9436L188.068 84.9034C188.959 84.8676 189.096 85.1509 188.479 85.7534L182.567 91.5155C182.473 91.6072 182.418 91.7284 182.414 91.8556C182.409 91.9829 182.455 92.1072 182.543 92.2044L188.426 98.736C188.935 99.3026 188.797 99.5934 188.011 99.6083L187.362 99.6217C186.631 99.6367 186.034 99.3802 185.573 98.8523L181.035 93.6539C180.962 93.5686 180.865 93.505 180.756 93.4708C180.648 93.4366 180.532 93.4334 180.425 93.4615Z" fill="#203A71"/>
<path d="M141.156 88.876C141.083 88.9158 141.021 88.9707 140.975 89.0365C140.928 89.1023 140.899 89.1773 140.888 89.2555C140.877 89.3338 140.886 89.4133 140.914 89.4879C140.941 89.5625 140.986 89.6302 141.046 89.6858C141.829 90.4105 142.726 91.1442 143.06 92.1329C143.985 94.8752 143.045 97.9844 139.992 99.0581C137.129 100.065 132.973 99.8723 129.967 99.4428C129.791 99.4163 129.631 99.3324 129.516 99.2062C129.401 99.0799 129.337 98.9196 129.337 98.7539V80.8682C129.337 80.6522 129.417 80.443 129.564 80.277C129.712 80.111 129.917 79.9988 130.143 79.96C133.173 79.4411 137.906 79.2308 140.636 80.6668C142.788 81.8032 143.212 83.105 143.169 85.2345C143.136 86.8808 142.64 88.0529 141.156 88.876ZM131.899 82.085L131.909 88.0081C131.91 88.1046 131.952 88.1968 132.025 88.2647C132.098 88.3325 132.197 88.3705 132.3 88.3705L137.329 88.366C137.749 88.3653 138.165 88.303 138.553 88.1828C138.941 88.0625 139.293 87.8866 139.59 87.6652C139.886 87.4437 140.121 87.181 140.281 86.8921C140.441 86.6032 140.522 86.2938 140.521 85.9816V84.0758C140.519 83.4464 140.18 82.8436 139.58 82.3999C138.98 81.9562 138.167 81.7078 137.32 81.7092L132.29 81.7137C132.239 81.7137 132.187 81.7233 132.14 81.742C132.092 81.7608 132.048 81.7882 132.012 81.8227C131.976 81.8573 131.947 81.8982 131.928 81.9432C131.908 81.9883 131.899 82.0365 131.899 82.085ZM131.894 90.7147L131.847 97.1299C131.846 97.1934 131.859 97.2563 131.884 97.3152C131.909 97.374 131.947 97.4276 131.994 97.4729C132.042 97.5182 132.098 97.5543 132.16 97.5791C132.223 97.6039 132.29 97.617 132.357 97.6176L137.062 97.6489C137.558 97.6526 138.05 97.5685 138.51 97.4017C138.97 97.2348 139.389 96.9883 139.743 96.6763C140.096 96.3643 140.378 95.9929 140.571 95.5833C140.765 95.1737 140.866 94.734 140.869 94.2892V93.6808C140.877 92.7827 140.486 91.9186 139.783 91.2785C139.079 90.6384 138.121 90.2747 137.119 90.2673L132.414 90.236C132.347 90.2354 132.28 90.2473 132.217 90.2711C132.154 90.2948 132.097 90.3299 132.049 90.3744C132 90.4188 131.962 90.4717 131.935 90.5301C131.909 90.5885 131.895 90.6513 131.894 90.7147Z" fill="#203A71"/>
<path d="M208.266 88.8134C208.261 85.8116 203.452 86.7913 201.801 87.4892C201.668 87.5465 201.556 87.6381 201.477 87.7531C201.398 87.8681 201.357 88.0016 201.357 88.1379L201.3 98.6331C201.297 99.2594 200.963 99.58 200.298 99.5949L199.93 99.6039C199.199 99.6218 198.831 99.2892 198.828 98.6062L198.747 85.6729C198.744 85.312 198.928 85.0853 199.301 84.9929C200.02 84.8109 200.657 84.9496 201.214 85.4089C201.358 85.527 201.537 85.6027 201.727 85.6266C201.917 85.6505 202.11 85.6214 202.283 85.5431C205.995 83.8521 210.723 84.7245 210.762 89.3994C210.79 92.5936 210.797 95.7237 210.781 98.7897C210.778 99.3384 210.483 99.6068 209.898 99.5949L209.244 99.5815C208.675 99.5696 208.385 99.2967 208.376 98.7628C208.306 95.4851 208.269 92.1686 208.266 88.8134Z" fill="#203A71"/>
<path d="M155.103 90.5178C155.308 88.8536 155.131 86.7331 152.803 86.7375C151.028 86.7405 149.281 86.7659 147.564 86.8136C147.477 86.8157 147.391 86.8008 147.311 86.7699C147.232 86.739 147.159 86.6928 147.1 86.6343C147.04 86.5757 146.994 86.5061 146.965 86.4299C146.935 86.3537 146.923 86.2726 146.929 86.1918L146.943 86.0173C146.997 85.3313 147.39 84.9734 148.122 84.9436C150.369 84.8541 154 84.456 155.799 85.6504C157.837 87.0104 157.598 88.7283 157.598 91.3141C157.598 93.9059 157.611 96.4976 157.636 99.0893C157.636 99.2772 157.546 99.4055 157.364 99.4741C156.96 99.6321 156.544 99.6814 156.114 99.6217C156.022 99.6101 155.94 99.5668 155.885 99.5009L155.145 98.6241C155.031 98.4869 154.894 98.466 154.735 98.5614C152.316 100.024 147.731 100.566 146.442 97.2149C145.331 94.3294 146.657 91.8465 149.892 91.0636C151.424 90.6967 153.127 90.8444 154.778 90.7952C154.972 90.7892 155.08 90.6967 155.103 90.5178ZM148.714 94.4859C148.174 98.7001 152.373 98.6778 154.936 96.8838C154.99 96.8463 155.034 96.7966 155.064 96.7389C155.094 96.6813 155.109 96.6174 155.107 96.5528L155.069 92.8307C155.069 92.7084 155.004 92.6443 154.874 92.6383C152.803 92.5399 149.038 91.9181 148.714 94.4859Z" fill="#203A71"/>
<path d="M164.006 88.12L164.02 98.6242C164.02 99.2088 163.71 99.5309 163.09 99.5905L162.632 99.6397C162.021 99.6994 161.716 99.4414 161.716 98.8658L161.687 85.4224C161.687 85.3204 161.72 85.2208 161.78 85.1363C161.84 85.0519 161.926 84.9864 162.026 84.9482C163.357 84.4427 164.025 85.8385 164.965 85.5298C167.398 84.7335 170.414 84.2145 172.327 86.165C173.243 87.0956 173.7 88.126 173.697 89.2564C173.69 92.3283 173.694 95.4106 173.706 98.5034C173.709 99.3355 173.267 99.7143 172.38 99.6397L172.074 99.6129C171.818 99.5907 171.58 99.4799 171.406 99.3021C171.233 99.1243 171.136 98.8922 171.134 98.651C171.106 95.6567 171.095 92.6012 171.101 89.4845C171.106 85.7445 166.301 86.5587 164.249 87.7174C164.087 87.8099 164.006 87.9441 164.006 88.12Z" fill="#203A71"/>
<path d="M193.858 84.9606L192.837 84.9539C192.421 84.9512 192.081 85.2654 192.078 85.6558L191.979 98.8796C191.976 99.27 192.312 99.5887 192.728 99.5914L193.749 99.5981C194.165 99.6008 194.505 99.2866 194.508 98.8962L194.607 85.6723C194.609 85.282 194.274 84.9633 193.858 84.9606Z" fill="#203A71"/>
<path d="M215.876 96.9242C215.681 96.6602 215.328 96.4589 215.142 96.2263C214.28 95.1615 214.38 94.1908 215.442 93.3139C215.507 93.2607 215.559 93.1959 215.597 93.1234C215.634 93.0509 215.656 92.9721 215.66 92.8916C215.665 92.8112 215.652 92.7307 215.623 92.6549C215.593 92.5792 215.548 92.5097 215.49 92.4505C213.362 90.2897 214.421 86.7868 217.069 85.5834C219.374 84.5366 224.303 84.9616 227.261 84.9929C227.411 84.9946 227.556 85.0486 227.666 85.1445C227.776 85.2405 227.845 85.3714 227.858 85.5118C227.915 86.0934 227.622 86.5154 226.98 86.7779C226.649 86.9121 226.544 87.1388 226.665 87.4579C227.538 89.7797 227.586 91.8823 225.458 93.3139C222.914 95.0229 220.166 94.3205 217.399 93.9581C217.319 93.9476 217.237 93.9537 217.16 93.9759C217.082 93.9981 217.011 94.0359 216.951 94.0866C216.891 94.1374 216.844 94.1998 216.812 94.2696C216.781 94.3393 216.766 94.4148 216.769 94.4905L216.774 94.6739C216.789 95.1869 217.065 95.4986 217.599 95.6089C220.304 96.1815 224.422 96.8436 226.226 98.2081C227.843 99.4339 227.776 101.935 226.512 103.25C223.554 106.328 212.799 105.523 214.431 99.4205C214.65 98.6107 215.28 97.9576 215.857 97.3223C215.907 97.2672 215.936 97.1983 215.939 97.1263C215.943 97.0543 215.921 96.9832 215.876 96.9242ZM224.778 89.4806C224.787 88.7925 224.504 88.1292 223.992 87.6367C223.479 87.1442 222.779 86.8628 222.045 86.8544L219.66 86.827C218.926 86.8186 218.218 87.0839 217.693 87.5646C217.168 88.0452 216.867 88.7018 216.858 89.3899L216.851 89.9357C216.842 90.6238 217.125 91.287 217.638 91.7796C218.151 92.2721 218.851 92.5535 219.585 92.5619L221.97 92.5892C222.704 92.5976 223.412 92.3323 223.937 91.8517C224.462 91.3711 224.762 90.7145 224.771 90.0264L224.778 89.4806ZM223.568 99.0492C222.051 98.5436 220.281 98.0023 218.682 97.8055C216.635 97.5549 216.759 100.217 216.917 101.447C217.184 103.474 221.488 103.245 223 102.937C225.281 102.476 226.04 99.8813 223.568 99.0492Z" fill="#203A71"/>
</svg>