<svg width="311" height="108" viewBox="0 0 311 108" fill="none" xmlns="http://www.w3.org/2000/svg">
<g clip-path="url(#clip0_140_749)">
<path d="M80.7747 7.13256C80.697 7.12738 80.6245 7.13515 80.5572 7.15587C80.381 7.19731 80.2878 7.30609 80.2774 7.4822C79.775 17.5674 78.0423 27.435 75.0795 37.0851C73.339 42.7493 70.8605 48.6387 66.2374 52.5003C66.1739 52.5528 66.099 52.5898 66.0187 52.6082C65.9384 52.6266 65.8549 52.6259 65.7749 52.6063C65.6949 52.5867 65.6205 52.5486 65.5578 52.4951C65.4952 52.4417 65.4458 52.3743 65.4139 52.2983C58.7241 36.2226 55.9347 18.0957 54.7459 0.846806C54.7391 0.762935 54.7092 0.682808 54.6598 0.615515C54.6104 0.548222 54.5433 0.496455 54.4662 0.466086L54.0389 0.287381C53.8213 0.194144 53.7048 0.266662 53.6892 0.504935C52.6403 17.7305 49.8199 36.3003 43.0369 52.3139C43.0026 52.3949 42.9494 52.4666 42.8817 52.5229C42.8141 52.5792 42.7339 52.6185 42.648 52.6375C42.5621 52.6565 42.4728 52.6547 42.3877 52.6322C42.3026 52.6097 42.2242 52.5671 42.1589 52.5081C35.9431 46.8672 33.0993 37.7144 31.289 29.7193C29.6521 22.4882 28.6032 15.1717 28.1422 7.76968C28.1318 7.59357 28.0567 7.44853 27.9169 7.33458L27.7615 7.19472" stroke="#FFE294" stroke-width="2"/>
<path d="M81.5285 7.33447C81.1866 27.5903 87.4801 52.1506 108.124 60.7129" stroke="#FFE294" stroke-width="2"/>
<path d="M105.288 72.3755C94.1855 67.5971 82.9581 55.282 81.0778 43.13C81.0705 43.0916 81.0502 43.0569 81.0204 43.0317C80.9906 43.0064 80.953 42.9922 80.9139 42.9913C80.8749 42.9903 80.8367 43.0029 80.8057 43.0267C80.7747 43.0505 80.7529 43.0842 80.7437 43.1222C79.2053 50.7833 76.0275 57.6699 71.2102 63.7821C71.0496 63.9789 71.0263 64.1913 71.1403 64.4192C74.5797 71.3033 78.8246 77.2938 83.875 82.3907C86.7291 85.2707 90.2462 87.9228 94.4263 90.347" stroke="#FFE294" stroke-width="2"/>
<path d="M80.6117 101.232C70.4799 90.7354 63.2462 76.4701 58.5688 62.7719C56.4554 56.5768 55.075 50.4491 54.4275 44.3886C54.2617 42.8399 54.0934 42.8399 53.9224 44.3886C51.7624 64.3026 41.5219 86.2911 28.0024 101.24" stroke="#FFE294" stroke-width="2"/>
<path d="M14.1411 90.3237C20.4812 86.5839 25.7932 81.8443 30.0769 76.105C32.8689 72.3755 35.3241 68.4492 37.4427 64.326C37.5152 64.1862 37.5022 64.0541 37.4038 63.9298C32.5089 57.7813 29.2792 50.8429 27.7149 43.1145C27.7055 43.0804 27.6847 43.0506 27.656 43.0299C27.6274 43.0092 27.5925 42.9989 27.5572 43.0007C27.5218 43.0025 27.4882 43.0163 27.4618 43.0398C27.4354 43.0634 27.4178 43.0952 27.4119 43.1301C25.7103 55.6006 14.1022 67.0998 3.30225 72.4377" stroke="#FFE294" stroke-width="2"/>
<path d="M0.505127 60.6042C20.7843 52.3216 27.0778 27.8778 26.9923 8.15037C26.9923 7.7567 27.1115 7.51842 27.3497 7.43555" stroke="#FFE294" stroke-width="2"/>
<path d="M51.0087 0H57.4887C65.3672 0.616403 72.7848 2.71942 79.7413 6.30906C79.933 6.41266 80.2774 6.68719 80.7747 7.13266C80.697 7.12748 80.6245 7.13525 80.5572 7.15597C80.381 7.19741 80.2878 7.30619 80.2774 7.4823C79.775 17.5675 78.0423 27.4351 75.0795 37.0852C73.339 42.7493 70.8605 48.6388 66.2374 52.5004C66.1739 52.5529 66.099 52.5899 66.0187 52.6083C65.9384 52.6267 65.8549 52.626 65.7749 52.6064C65.6949 52.5868 65.6205 52.5487 65.5578 52.4952C65.4952 52.4417 65.4458 52.3743 65.4139 52.2984C58.7241 36.2227 55.9347 18.0958 54.7459 0.846906C54.7391 0.763035 54.7092 0.682909 54.6598 0.615615C54.6104 0.548322 54.5433 0.496555 54.4662 0.466187L54.0389 0.287482C53.8213 0.194245 53.7048 0.266763 53.6892 0.505036C52.6403 17.7306 49.8199 36.3004 43.0369 52.314C43.0026 52.395 42.9494 52.4667 42.8817 52.523C42.8141 52.5793 42.7339 52.6186 42.648 52.6376C42.5621 52.6566 42.4728 52.6548 42.3877 52.6323C42.3026 52.6098 42.2242 52.5672 42.1589 52.5082C35.9431 46.8673 33.0993 37.7145 31.289 29.7194C29.6521 22.4883 28.6032 15.1718 28.1422 7.76978C28.1318 7.59367 28.0567 7.44863 27.9169 7.33468L27.7615 7.19482C28.1759 6.66647 28.7275 6.23396 29.4164 5.89727C36.2072 2.55108 43.4046 0.585324 51.0087 0Z" fill="#FFC428"/>
<path d="M80.7748 7.13256C81.474 7.53141 81.7253 7.59875 81.5284 7.33457C81.1866 27.5904 87.4801 52.1507 108.124 60.713C107.586 64.6134 106.64 68.5009 105.288 72.3754C94.1854 67.597 82.9581 55.2819 81.0778 43.13C81.0704 43.0916 81.0502 43.0569 81.0203 43.0316C80.9905 43.0064 80.9529 42.9921 80.9139 42.9912C80.8748 42.9903 80.8366 43.0028 80.8056 43.0266C80.7747 43.0505 80.7528 43.0842 80.7437 43.1222C79.2053 50.7832 76.0274 57.6698 71.2102 63.7821C71.0496 63.9789 71.0263 64.1913 71.1402 64.4192C74.5797 71.3032 78.8245 77.2937 83.8749 82.3907C86.729 85.2707 90.2461 87.9228 94.4263 90.3469C90.2513 94.8172 85.6464 98.4456 80.6116 101.232C70.4798 90.7354 63.2461 76.4701 58.5687 62.772C56.4553 56.5769 55.0749 50.4491 54.4274 44.3887C54.2617 42.8399 54.0933 42.8399 53.9224 44.3887C51.7624 64.3026 41.5218 86.2911 28.0024 101.24C23.0297 98.4431 18.4093 94.8042 14.1411 90.3236C20.4812 86.5838 25.7932 81.8442 30.0769 76.1049C32.8689 72.3754 35.3241 68.4491 37.4427 64.3259C37.5152 64.1861 37.5022 64.054 37.4038 63.9297C32.5089 57.7812 29.2792 50.8428 27.7149 43.1144C27.7055 43.0803 27.6847 43.0505 27.6561 43.0298C27.6274 43.0091 27.5925 42.9988 27.5572 43.0006C27.5218 43.0024 27.4882 43.0162 27.4618 43.0397C27.4354 43.0633 27.4178 43.0951 27.4119 43.13C25.7103 55.6005 14.1022 67.0998 3.30225 72.4376L0.505127 60.6042C20.7843 52.3216 27.0778 27.8779 26.9923 8.1504C26.9923 7.75673 27.1115 7.51846 27.3497 7.43558C27.5258 7.38896 27.6631 7.30868 27.7615 7.19472L27.9169 7.33457C28.0568 7.44853 28.1319 7.59357 28.1422 7.76968C28.6033 15.1717 29.6522 22.4882 31.289 29.7193C33.0994 37.7144 35.9431 46.8672 42.1589 52.5081C42.2242 52.5671 42.3027 52.6097 42.3878 52.6322C42.4729 52.6547 42.5621 52.6565 42.6481 52.6375C42.734 52.6185 42.8141 52.5792 42.8818 52.5229C42.9494 52.4666 43.0026 52.3949 43.0369 52.3139C49.8199 36.3003 52.6404 17.7305 53.6893 0.504935C53.7048 0.266662 53.8214 0.194144 54.0389 0.287381L54.4663 0.466086C54.5434 0.496455 54.6104 0.548222 54.6599 0.615515C54.7093 0.682808 54.7391 0.762935 54.746 0.846806C55.9348 18.0957 58.7241 36.2226 65.4139 52.2983C65.4459 52.3742 65.4952 52.4416 65.5579 52.4951C65.6206 52.5486 65.6949 52.5867 65.7749 52.6063C65.855 52.6259 65.9385 52.6266 66.0188 52.6082C66.0991 52.5898 66.174 52.5528 66.2375 52.5003C70.8605 48.6387 73.3391 42.7492 75.0795 37.0851C78.0424 27.435 79.7751 17.5674 80.2775 7.4822C80.2879 7.30609 80.3811 7.19731 80.5572 7.15587C80.6246 7.13515 80.6971 7.12738 80.7748 7.13256Z" fill="white"/>
<path d="M27.3496 7.43579C27.1114 7.51867 26.9922 7.75694 26.9922 8.15061C27.0777 27.8781 20.7842 52.3218 0.505036 60.6044L0 56.4243V52.1043C1.44 32.6487 10.2535 17.824 26.4406 7.63004C26.6322 7.50572 26.9353 7.44097 27.3496 7.43579Z" fill="#FFC428"/>
<path d="M81.5285 7.33472C100.463 18.4844 110.308 38.9033 108.124 60.7131C87.4801 52.1508 81.1866 27.5905 81.5285 7.33472Z" fill="#FFC428"/>
<path d="M310.791 12.5249V17.5597L304.327 17.6762C304.275 17.6773 304.224 17.6682 304.176 17.6495C304.128 17.6309 304.084 17.603 304.047 17.5675C304.01 17.5321 303.981 17.4897 303.961 17.443C303.941 17.3963 303.931 17.3462 303.931 17.2955L303.923 11.8567C303.923 11.5718 304.065 11.419 304.35 11.3983C306.021 11.2662 307.683 11.3672 309.338 11.3361C310.183 11.3206 310.667 11.7168 310.791 12.5249Z" fill="#776764"/>
<path d="M127.409 30.6363C127.41 30.6608 127.418 30.6845 127.433 30.7047C127.447 30.7248 127.466 30.7407 127.489 30.7504C127.511 30.7601 127.536 30.7632 127.561 30.7595C127.585 30.7559 127.608 30.7454 127.626 30.7295L136.453 22.5634C137.073 21.9937 137.881 21.6752 138.722 21.6699L145.101 21.6544C145.893 21.6492 145.999 21.916 145.419 22.4547L132.933 34.1016C132.7 34.3139 132.7 34.5263 132.933 34.7387L145.45 46.4167C146.015 46.945 145.911 47.2092 145.14 47.2092H138.698C137.807 47.2092 137.038 46.9036 136.391 46.2924L128.302 38.7091C128.228 38.6391 128.135 38.5924 128.035 38.5748C127.935 38.5572 127.831 38.5694 127.738 38.6099C127.644 38.6505 127.565 38.7175 127.509 38.8028C127.453 38.8881 127.424 38.9879 127.424 39.0898L127.401 46.4322C127.401 46.6328 127.321 46.8253 127.179 46.9679C127.036 47.1105 126.842 47.1916 126.64 47.1937L121.411 47.2247C120.877 47.2299 120.61 46.9657 120.61 46.4322V12.455C120.61 11.5847 120.955 11.4164 121.644 11.9499L126.267 15.524C127.028 16.1145 127.409 16.8915 127.409 17.855V30.6363Z" fill="#776764"/>
<path d="M156.538 24.0707C158.366 22.0868 160.666 21.1156 163.437 21.157C164.1 21.1674 164.432 21.5041 164.432 22.1671L164.416 26.5959C164.416 27.378 164.025 27.7277 163.243 27.6448C159.343 27.2408 156.033 30.6828 156.056 34.5677C156.067 38.1573 156.012 41.9283 155.893 45.8805C155.881 46.2337 155.733 46.5685 155.479 46.8148C155.226 47.061 154.887 47.1995 154.533 47.2013L150.454 47.2169C149.672 47.2221 149.281 46.8336 149.281 46.0514L149.265 22.0816C149.265 21.9662 149.311 21.8556 149.393 21.774C149.474 21.6924 149.585 21.6465 149.7 21.6465L154.992 21.6854C155.13 21.6856 155.266 21.7232 155.385 21.7943C155.504 21.8654 155.602 21.9674 155.668 22.0894C155.978 22.6437 156.111 23.2367 156.064 23.8687C156.028 24.3867 156.186 24.454 156.538 24.0707Z" fill="#776764"/>
<path d="M205.736 23.4882C211.626 19.2459 221.952 20.2559 222.029 29.3388C222.076 34.7155 222.048 40.3848 221.944 46.3469C221.934 46.9166 221.641 47.2041 221.066 47.2093H215.953C215.43 47.2145 215.169 46.9555 215.169 46.4323C215.189 42.4749 215.205 38.3155 215.215 33.9541C215.22 31.6956 215.073 30.1857 214.772 29.4243C213.32 25.7414 207.189 26.9302 205.822 30.31C205.475 31.1647 205.296 32.7342 205.286 35.0185C205.26 38.7687 205.247 42.5526 205.247 46.3702C205.247 46.5831 205.163 46.7875 205.013 46.9388C204.863 47.0901 204.659 47.1762 204.446 47.1782L199.303 47.2482C198.749 47.2533 198.471 46.9788 198.471 46.4246L198.479 21.9031C198.479 21.8684 198.486 21.8341 198.499 21.802C198.512 21.77 198.53 21.7409 198.554 21.7163C198.578 21.6918 198.606 21.6723 198.637 21.6591C198.669 21.6458 198.702 21.6389 198.736 21.6389L204.431 21.6933C204.809 21.6933 205.034 21.8798 205.107 22.2528L205.317 23.325C205.374 23.5995 205.513 23.6539 205.736 23.4882Z" fill="#776764"/>
<path d="M292.237 24.366C294.076 22.2008 296.446 21.126 299.346 21.1415C299.989 21.1467 300.31 21.4704 300.31 22.1127V26.5959C300.31 27.3366 299.94 27.6889 299.199 27.6526C298.064 27.6008 296.938 27.8209 295.819 28.313C292.525 29.7582 291.957 32.6874 291.942 36.2926C291.931 39.5145 291.903 42.7441 291.856 45.9815C291.852 46.3031 291.723 46.6102 291.496 46.8368C291.27 47.0635 290.964 47.1916 290.644 47.1936L286.231 47.2325C285.501 47.2376 285.135 46.875 285.135 46.1447V22.105C285.135 21.8149 285.283 21.6699 285.578 21.6699L291.126 21.6776C291.258 21.6799 291.386 21.7223 291.492 21.7988C291.598 21.8754 291.676 21.9824 291.717 22.105C291.95 22.7939 292.02 23.5009 291.926 24.2261C291.874 24.625 291.978 24.6716 292.237 24.366Z" fill="#776764"/>
<path d="M245.199 43.8138C235.028 50.2782 224.5 41.8402 226.606 30.4963C228.253 21.5689 238.113 18.5464 245.315 23.3093C245.585 23.4854 245.717 23.4129 245.712 23.0917L245.696 22.206C245.686 21.833 245.867 21.6466 246.24 21.6466L251.873 21.701C252.038 21.701 252.196 21.7664 252.313 21.883C252.429 21.9996 252.495 22.1577 252.495 22.3225C252.546 34.9769 252.557 43.0756 252.526 46.6187C252.409 59.0658 229.955 60.208 227.204 48.0561C227.116 47.6572 227.277 47.4578 227.686 47.4578L233.653 47.45C233.922 47.45 234.135 47.564 234.29 47.7919C237.546 52.7645 247.009 51.3504 245.595 43.9769C245.548 43.7283 245.416 43.6739 245.199 43.8138ZM239.69 40.0998C241.353 40.0998 242.948 39.4024 244.124 38.1609C245.3 36.9194 245.96 35.2356 245.96 33.4799C245.96 32.6106 245.798 31.7498 245.483 30.9466C245.168 30.1435 244.706 29.4137 244.124 28.799C243.542 28.1843 242.85 27.6967 242.09 27.364C241.329 27.0313 240.513 26.8601 239.69 26.8601C238.027 26.8601 236.432 27.5575 235.256 28.799C234.08 30.0405 233.42 31.7242 233.42 33.4799C233.42 35.2356 234.08 36.9194 235.256 38.1609C236.432 39.4024 238.027 40.0998 239.69 40.0998Z" fill="#776764"/>
<path d="M274.048 40.061C274.095 38.9214 273.393 38.1833 271.942 37.8466C267.817 36.8987 260.824 36.7277 258.306 32.6641C255.626 28.3597 258.944 23.0063 263.551 21.7476C268.765 20.3257 276.107 20.9162 280.031 24.9798C280.132 25.0856 280.212 25.2109 280.264 25.3483C280.316 25.4856 280.339 25.6321 280.334 25.7792C280.328 25.9263 280.292 26.071 280.23 26.2046C280.167 26.3382 280.078 26.4581 279.969 26.5571L276.931 29.2843C276.376 29.7815 275.882 29.7297 275.447 29.1289C273.52 26.4561 267.949 25.0109 265.004 27.5205C264.849 27.6511 264.726 27.8146 264.642 27.9991C264.559 28.1836 264.518 28.3845 264.521 28.5875C264.525 28.7904 264.574 28.9902 264.664 29.1725C264.754 29.3548 264.884 29.5151 265.043 29.6417C265.659 30.1338 266.473 30.4497 267.483 30.5896C271.818 31.1956 275.283 32.0218 277.879 33.0682C280.248 34.0316 281.561 36.6656 281.414 39.2451C281.072 45.2201 275.687 47.5743 270.35 47.7919C265.501 47.9939 260.871 47.0615 257.017 43.9692C256.896 43.8722 256.799 43.7486 256.733 43.6082C256.668 43.4678 256.636 43.3144 256.64 43.16C256.643 43.0056 256.683 42.8545 256.755 42.7186C256.827 42.5826 256.93 42.4654 257.056 42.3764L260.233 40.0687C260.907 39.5767 261.541 39.6259 262.137 40.2164C264.825 42.9047 270.008 43.3243 273.481 41.0477C273.647 40.9398 273.785 40.7941 273.883 40.6226C273.982 40.4511 274.038 40.2586 274.048 40.061Z" fill="#776764"/>
<path d="M185.255 45.4145C180.554 48.8565 171.619 49.0507 168.837 43.0369C168.247 41.7627 167.944 39.3178 167.928 35.7022C167.913 31.1854 167.892 26.8033 167.866 22.5558C167.861 21.9549 168.162 21.6545 168.768 21.6545L173.655 21.67C174.302 21.67 174.626 21.9938 174.626 22.6412C174.636 26.8473 174.649 31.0974 174.665 35.3915C174.673 39.5794 175.644 42.2755 180.461 41.514C183.683 41.0064 185.338 39.1132 185.426 35.8343C185.555 31.0896 185.6 26.7152 185.558 22.7112C185.553 21.9912 185.91 21.6363 186.63 21.6467L191.269 21.6933C191.577 21.6974 191.872 21.822 192.088 22.0401C192.305 22.2583 192.427 22.5524 192.427 22.8588L192.419 46.1293C192.419 46.4157 192.305 46.6904 192.102 46.893C191.9 47.0955 191.625 47.2093 191.339 47.2093H186.172C186.085 47.2092 186 47.1903 185.921 47.1538C185.842 47.1174 185.772 47.0642 185.715 46.9979C185.659 46.9316 185.617 46.8538 185.592 46.7696C185.568 46.6855 185.561 46.5969 185.574 46.51L185.698 45.6786C185.76 45.2435 185.612 45.1555 185.255 45.4145Z" fill="#776764"/>
<path d="M310.791 22.8275V23.6977L310.683 46.2767C310.683 46.5172 310.588 46.7481 310.42 46.9196C310.251 47.0911 310.022 47.1895 309.781 47.1936L304.801 47.3023C304.226 47.3179 303.938 47.0382 303.938 46.4632L303.931 22.1438C303.931 21.8796 304.06 21.7372 304.319 21.7164C305.883 21.5973 307.391 21.5895 308.841 21.6931C309.965 21.776 310.615 22.1541 310.791 22.8275Z" fill="#776764"/>
<path d="M14.1411 90.3237C9.41707 85.2941 5.80412 79.3321 3.30225 72.4377C14.1022 67.0998 25.7103 55.6006 27.4119 43.1301C27.4178 43.0952 27.4354 43.0634 27.4618 43.0398C27.4882 43.0163 27.5218 43.0025 27.5572 43.0007C27.5925 42.9989 27.6274 43.0092 27.656 43.0299C27.6847 43.0506 27.7055 43.0804 27.7149 43.1145C29.2792 50.8429 32.5089 57.7813 37.4038 63.9298C37.5022 64.0541 37.5152 64.1862 37.4427 64.326C35.3241 68.4492 32.8689 72.3755 30.0769 76.105C25.7932 81.8443 20.4812 86.5839 14.1411 90.3237Z" fill="#FFC428"/>
<path d="M105.288 72.3755C102.766 79.2077 99.1449 85.1982 94.4261 90.347C90.2459 87.9228 86.7288 85.2707 83.8747 82.3907C78.8244 77.2938 74.5795 71.3033 71.14 64.4192C71.0261 64.1913 71.0494 63.9789 71.21 63.7821C76.0272 57.6699 79.2051 50.7833 80.7435 43.1222C80.7526 43.0842 80.7745 43.0505 80.8055 43.0267C80.8364 43.0029 80.8746 42.9903 80.9137 42.9913C80.9528 42.9922 80.9903 43.0064 81.0202 43.0317C81.05 43.0569 81.0703 43.0916 81.0776 43.13C82.9579 55.282 94.1852 67.5971 105.288 72.3755Z" fill="#FFC428"/>
<path d="M80.6114 101.233C73.5513 105.097 65.9395 107.353 57.776 108H50.7366C42.599 107.358 35.0209 105.105 28.0022 101.24C41.5216 86.2913 51.7622 64.3028 53.9222 44.3889C54.0931 42.8401 54.2615 42.8401 54.4272 44.3889C55.0747 50.4493 56.4551 56.5771 58.5685 62.7722C63.2459 76.4703 70.4796 90.7356 80.6114 101.233Z" fill="#FFC428"/>
<path d="M202.154 61.9641C201.849 59.8248 202.781 58.605 204.951 58.3045C205.247 58.2683 205.394 58.3978 205.394 58.693L205.34 64.9088C205.338 65.0517 205.28 65.1881 205.18 65.2884C205.08 65.3887 204.945 65.445 204.804 65.445H193.281C192.717 65.445 192.618 65.23 192.986 64.8001L194.214 63.3549C194.428 63.1038 194.694 62.9018 194.993 62.7623C195.292 62.6229 195.617 62.5494 195.946 62.5468H201.641C201.715 62.5463 201.789 62.5302 201.856 62.4996C201.923 62.469 201.983 62.4247 202.031 62.3695C202.08 62.3144 202.116 62.2497 202.137 62.1798C202.158 62.1099 202.164 62.0363 202.154 61.9641Z" fill="#776764"/>
<path d="M187.345 71.2179C189.334 75.6156 188.666 81.8392 188.58 86.8274C188.574 87.0788 188.471 87.3179 188.292 87.4936C188.114 87.6692 187.874 87.7675 187.625 87.7675L185.713 87.7753C185.175 87.7805 184.908 87.5137 184.913 86.975C184.923 83.8153 184.882 80.4665 184.789 76.9287C184.711 74.0772 184.455 71.8239 181.277 71.5364C178.148 71.2515 176.47 72.7485 176.242 76.0274C176.201 76.6697 176.501 76.9934 177.143 76.9986L181.075 77.0141C181.738 77.0193 181.893 77.3042 181.541 77.8688L180.834 79.0032C180.674 79.2603 180.452 79.4733 180.189 79.6226C179.926 79.7719 179.629 79.8528 179.327 79.8579L176.778 79.889C176.643 79.891 176.515 79.9467 176.42 80.0442C176.326 80.1416 176.273 80.2728 176.273 80.4095L176.281 86.874C176.281 87.4904 175.973 87.796 175.356 87.7908L173.406 87.7675C172.826 87.7572 172.536 87.4645 172.536 86.8895C172.52 83.5123 172.531 79.9951 172.567 76.3382C172.637 69.4697 177.912 67.6749 183.872 69.0734C184.141 69.1408 184.395 69.0993 184.633 68.9491C185.856 68.1825 187.203 67.9597 188.674 68.2809C189.047 68.3638 189.111 68.5502 188.868 68.8403L187.438 70.5341C187.262 70.7413 187.231 70.9692 187.345 71.2179Z" fill="#675D53"/>
<path d="M132.7 74.7919C132.677 70.6506 124.324 69.7648 124.332 75.9496C124.332 79.6273 124.324 83.3179 124.309 87.0215C124.304 87.5447 124.039 87.8037 123.516 87.7985L121.349 87.7752C120.836 87.77 120.579 87.511 120.579 86.9982C120.579 83.1029 120.587 79.0316 120.603 74.7841C120.642 67.6126 133.034 66.5559 135.8 72.3133C136.251 73.2509 136.494 74.8488 136.531 77.1073C136.588 80.4068 136.585 83.7763 136.523 87.2158C136.521 87.3669 136.459 87.5111 136.352 87.6173C136.244 87.7235 136.099 87.783 135.948 87.783L133.431 87.7752C132.944 87.7752 132.7 87.5317 132.7 87.0448C132.726 83.1081 132.726 79.0238 132.7 74.7919Z" fill="#776764"/>
<path d="M145.233 72.9815C144.533 75.6154 149.358 77.1539 151.099 78.1251C153.966 79.7179 154.961 83.0278 153.127 85.755C150.811 89.197 144.86 88.4667 141.752 87.0293C141.643 86.9826 141.589 86.8998 141.589 86.7806L141.612 83.4085C141.613 83.3862 141.62 83.3643 141.631 83.3452C141.643 83.3262 141.659 83.3106 141.679 83.3003C141.698 83.2899 141.719 83.2851 141.74 83.2864C141.761 83.2877 141.781 83.295 141.798 83.3075C144.052 84.7061 147.952 86.0658 150.034 83.8048C150.119 83.7153 150.183 83.6074 150.22 83.4891C150.258 83.3707 150.269 83.245 150.252 83.1211C149.739 78.9875 141.581 79.9821 141.301 74.1159C141.014 68.2186 149.04 68.2963 152.637 69.3996C152.833 69.4614 153.003 69.5866 153.119 69.7554C153.236 69.9242 153.293 70.127 153.282 70.332L153.205 71.8859C153.199 71.9714 153.172 72.0544 153.128 72.1278C153.084 72.2012 153.024 72.2629 152.951 72.3078C152.879 72.3527 152.797 72.3795 152.713 72.3858C152.628 72.3922 152.544 72.378 152.466 72.3444C150.441 71.4586 148.374 71.3188 146.266 71.9248C146.017 71.9983 145.791 72.1341 145.61 72.3192C145.429 72.5043 145.299 72.7324 145.233 72.9815Z" fill="#776764"/>
<path d="M197.112 73.8052C197.138 74.6443 197.539 75.2504 198.316 75.6233C200.036 76.4573 201.719 77.356 203.366 78.3195C206.451 80.122 206.948 84.2556 204.407 86.6409C201.937 88.9563 196.847 88.3813 194.004 87.1226C193.842 87.0511 193.705 86.9342 193.61 86.7864C193.515 86.6386 193.465 86.4664 193.468 86.2912L193.506 83.8826C193.512 83.4889 193.693 83.375 194.05 83.5407C196.265 84.5897 198.666 85.592 201.105 84.5897C201.509 84.4227 201.831 84.1027 202 83.6994C202.169 83.2962 202.171 82.8425 202.007 82.4374C201.284 80.6892 197.671 79.2829 196.063 78.3738C193.071 76.68 192.085 73.0671 194.687 70.5885C197.174 68.2265 201.704 68.4751 204.703 69.4541C205.003 69.5525 205.153 69.7597 205.153 70.0757L205.146 72.0725C205.145 72.1264 205.132 72.1792 205.106 72.2268C205.081 72.2744 205.045 72.3154 205 72.3464C204.955 72.3774 204.904 72.3977 204.849 72.4054C204.795 72.4132 204.739 72.4083 204.687 72.3911C203.087 71.8084 197.011 70.4564 197.112 73.8052Z" fill="#675D53"/>
<path d="M164.129 69.524L167.415 69.5784C167.482 69.5805 167.545 69.6084 167.592 69.6562C167.638 69.7041 167.664 69.7682 167.664 69.8348L167.672 87.4956C167.672 87.5292 167.665 87.5626 167.652 87.5937C167.639 87.6248 167.621 87.653 167.597 87.6769C167.573 87.7007 167.545 87.7195 167.514 87.7324C167.482 87.7453 167.449 87.752 167.415 87.752L162.357 87.7675C162.306 87.7685 162.256 87.7543 162.213 87.7266C162.17 87.6989 162.137 87.659 162.116 87.6121L156.965 75.4835C156.95 75.4451 156.945 75.4036 156.949 75.3626C156.953 75.3216 156.968 75.2822 156.991 75.2479C157.013 75.2136 157.044 75.1853 157.08 75.1655C157.117 75.1456 157.157 75.1347 157.198 75.1338L160.617 75.095C160.669 75.0946 160.72 75.11 160.763 75.1391C160.806 75.1682 160.839 75.2097 160.858 75.2581L163.461 81.5672C163.481 81.6252 163.522 81.6737 163.576 81.7038C163.63 81.734 163.693 81.7439 163.753 81.7317C163.813 81.7194 163.867 81.6858 163.905 81.6371C163.942 81.5883 163.961 81.5277 163.958 81.4662L163.865 69.7804C163.865 69.7461 163.872 69.7121 163.885 69.6805C163.898 69.6489 163.918 69.6202 163.942 69.5963C163.967 69.5724 163.996 69.5537 164.028 69.5413C164.06 69.5289 164.095 69.523 164.129 69.524Z" fill="#776764"/>
<path d="M149.794 95.949L149.762 90.5102C149.761 90.4252 149.777 90.3409 149.809 90.2622C149.841 90.1834 149.889 90.1119 149.949 90.0518C150.009 89.9917 150.081 89.9443 150.159 89.9122C150.238 89.8802 150.322 89.8642 150.407 89.8653L152.435 89.8808C152.604 89.8808 152.766 89.9479 152.886 90.0674C153.005 90.1869 153.072 90.349 153.072 90.5179L153.057 94.8457C153.056 94.9583 153.025 95.0687 152.968 95.1656C152.911 95.2625 152.829 95.3424 152.731 95.3974L150.741 96.5084C150.644 96.5628 150.535 96.5907 150.423 96.5893C150.312 96.588 150.203 96.5576 150.107 96.501C150.011 96.4444 149.932 96.3636 149.877 96.2668C149.822 96.1699 149.793 96.0604 149.794 95.949Z" fill="#776764"/>
</g>
<defs>
<clipPath id="clip0_140_749">
<rect width="310.791" height="108" fill="white"/>
</clipPath>
</defs>
</svg>
