<svg width="233" height="68" viewBox="0 0 233 68" fill="none" xmlns="http://www.w3.org/2000/svg">
<path d="M10.9631 6.39558L10.8431 9.29558C10.7765 10.9889 9.89646 11.8289 8.20312 11.8156H7.79312C7.312 11.8146 6.84772 11.6384 6.48701 11.32C6.12631 11.0017 5.89387 10.5628 5.83312 10.0856C5.47312 7.21892 5.45979 5.31558 5.79312 4.37558C7.51312 -0.544417 10.6431 0.0255823 15.7231 0.0155823C30.2431 -0.00441769 44.7631 -0.00441769 59.2831 0.0155823C65.2631 0.0155823 64.9731 5.70559 64.8031 9.92559C64.7863 10.3674 64.6236 10.7905 64.3409 11.1276C64.0582 11.4647 63.6717 11.6964 63.2431 11.7856C61.9831 12.0456 60.9031 11.7089 60.0031 10.7756C59.7964 10.5556 59.6931 10.2956 59.6931 9.99559V7.30558C59.6944 7.07493 59.6501 6.84629 59.5628 6.63282C59.4754 6.41934 59.3467 6.22524 59.1841 6.06168C59.0215 5.89811 58.8281 5.76831 58.6151 5.67974C58.4022 5.59117 58.1738 5.54558 57.9431 5.54558H11.8531C11.6222 5.54536 11.4002 5.63391 11.2342 5.79251C11.0681 5.95112 10.9709 6.16737 10.9631 6.39558Z" fill="#2466FA"/>
<path d="M9.37328 27.0157L7.18328 48.0757C6.98995 49.8957 5.98328 50.7424 4.16328 50.6157L3.57328 50.5657C3.07324 50.5335 2.60327 50.3157 2.25549 49.9549C1.90771 49.5942 1.7072 49.1166 1.69328 48.6157C1.55328 43.6257 2.53329 37.6057 2.85329 33.9557C3.20662 29.9957 3.58995 26.0424 4.00328 22.0957C4.40328 18.2691 6.54329 16.6091 10.4233 17.1157C11.57 17.2624 12.4733 18.1124 13.1333 19.6657C15.72 25.7191 18.1299 31.6124 20.3633 37.3457C20.6899 38.1724 21.0133 38.1724 21.3333 37.3457C23.4799 31.7924 25.6466 26.2357 27.8333 20.6757C28.4133 19.2257 29.2333 18.5357 30.3233 17.5157C30.5633 17.2891 30.8466 17.1557 31.1733 17.1157C38.6433 16.1357 37.5533 23.6757 38.2533 28.5657C38.9733 33.6124 39.6066 40.1891 40.1533 48.2957C40.1727 48.5768 40.1333 48.8588 40.0377 49.124C39.9422 49.3893 39.7924 49.6319 39.5979 49.8367C39.4035 50.0415 39.1685 50.2041 38.9078 50.314C38.6471 50.424 38.3664 50.4791 38.0833 50.4757H37.4133C35.6533 50.449 34.68 49.5624 34.4933 47.8157L32.2533 26.7957C32.1799 26.0957 32.01 26.0724 31.7433 26.7257C28.9833 33.4324 26.3366 40.1457 23.8033 46.8657C22.1833 51.1757 18.9133 49.4757 17.6233 46.2257C15.05 39.7657 12.5366 33.3291 10.0833 26.9157C10.052 26.8397 9.99637 26.7762 9.92506 26.7353C9.85374 26.6945 9.77084 26.6785 9.68945 26.69C9.60805 26.7014 9.53278 26.7397 9.47553 26.7987C9.41828 26.8576 9.38231 26.934 9.37328 27.0157Z" fill="#222130"/>
<path d="M64.3235 33.4756C70.2235 37.0456 70.9835 44.8556 65.0135 48.5956C63.5268 49.5289 61.3468 50.0156 58.4735 50.0556C53.8268 50.1156 49.3368 50.1156 45.0035 50.0556C44.3527 50.0451 43.7322 49.7802 43.2757 49.3181C42.8192 48.856 42.5634 48.2338 42.5635 47.5856V20.0556C42.5634 19.4083 42.8185 18.7871 43.2734 18.3266C43.7282 17.8661 44.3463 17.6035 44.9935 17.5956C49.7035 17.5456 58.1835 16.5756 61.9435 18.8856C66.9735 21.9856 68.1135 28.3556 64.2335 32.9356C64.2 32.9754 64.1756 33.022 64.1619 33.0722C64.1481 33.1224 64.1455 33.175 64.154 33.2263C64.1626 33.2776 64.1822 33.3265 64.2114 33.3695C64.2407 33.4126 64.2789 33.4487 64.3235 33.4756ZM50.5035 33.6756C50.4887 33.3582 50.5369 33.041 50.6451 32.7423C50.7534 32.4436 50.9197 32.1693 51.1343 31.9351C51.349 31.7009 51.6079 31.5115 51.8961 31.3777C52.1842 31.2439 52.496 31.1684 52.8135 31.1556C55.0035 31.0656 57.6735 31.5056 59.4635 30.3456C61.7535 28.8556 61.9935 25.7156 60.3835 23.6056C58.6535 21.3556 50.8835 22.1556 48.1335 22.1356C48.0194 22.1356 47.9101 22.1809 47.8294 22.2615C47.7488 22.3422 47.7035 22.4515 47.7035 22.5656V45.0456C47.7034 45.1155 47.7305 45.1827 47.779 45.233C47.8275 45.2834 47.8936 45.313 47.9635 45.3156C51.2235 45.3556 60.2135 46.1856 62.6335 44.1956C64.9235 42.3256 64.6235 38.4156 62.0735 36.8656C59.8335 35.5156 55.1635 36.0856 52.4735 36.0256C51.9686 36.0136 51.487 35.811 51.1253 35.4586C50.7636 35.1062 50.5486 34.6299 50.5235 34.1256L50.5035 33.6756Z" fill="#222130"/>
<path d="M79.9133 31.0757L78.5633 42.3657C78.5156 42.7698 78.3138 43.1403 77.9994 43.4008C77.685 43.6612 77.282 43.7918 76.8732 43.7657L76.2833 43.7257C76.1137 43.7148 75.9482 43.6692 75.797 43.5917C75.6459 43.5143 75.5122 43.4065 75.4044 43.2753C75.2965 43.144 75.2168 42.992 75.1702 42.8286C75.1236 42.6653 75.111 42.4941 75.1333 42.3257C75.8399 37.0657 76.3999 32.0857 76.8133 27.3857C77.0733 24.5657 81.3333 23.8057 82.5733 26.8857C83.7866 29.879 85.1766 33.0223 86.7433 36.3157C86.7785 36.3845 86.833 36.4417 86.9001 36.4803C86.9672 36.5189 87.044 36.5371 87.1213 36.5329C87.1985 36.5287 87.2729 36.5021 87.3354 36.4564C87.3979 36.4108 87.4458 36.348 87.4733 36.2757C88.5999 33.2223 89.8899 30.159 91.3433 27.0857C92.5333 24.5757 96.1533 23.9557 96.7733 27.0957C97.4933 30.7357 98.1633 35.769 98.7833 42.1957C98.8633 43.0757 98.4666 43.579 97.5933 43.7057L97.1232 43.7757C96.1699 43.9157 95.6333 43.509 95.5133 42.5557L94.0533 31.0357C93.9533 30.249 93.7433 30.219 93.4233 30.9457C91.9699 34.259 90.4666 37.779 88.9133 41.5057C88.4599 42.6057 87.7099 43.1057 86.6633 43.0057C86.3809 42.9782 86.1114 42.8766 85.8828 42.7113C85.6542 42.546 85.4748 42.3231 85.3633 42.0657L80.5733 30.9757C80.2333 30.189 80.0133 30.2223 79.9133 31.0757Z" fill="#1F1D1F"/>
<path d="M131.393 28.4557L126.203 28.4257C126.09 28.425 125.978 28.4004 125.874 28.3536C125.771 28.3068 125.678 28.2387 125.603 28.1538C125.528 28.069 125.471 27.9692 125.436 27.861C125.402 27.7528 125.391 27.6385 125.403 27.5257L125.623 25.5857C125.645 25.3885 125.739 25.2063 125.887 25.0736C126.034 24.9409 126.225 24.8669 126.423 24.8657L141.603 24.8257C141.711 24.8257 141.817 24.847 141.916 24.8883C142.015 24.9296 142.104 24.9902 142.18 25.0665C142.255 25.1427 142.315 25.2332 142.355 25.3326C142.395 25.4321 142.415 25.5385 142.413 25.6457L142.403 27.6257C142.401 27.8388 142.314 28.0422 142.163 28.192C142.011 28.3417 141.807 28.4257 141.593 28.4257L136.503 28.4357C136.289 28.4357 136.083 28.521 135.931 28.6729C135.779 28.8248 135.693 29.0309 135.693 29.2457L135.703 42.9157C135.704 43.1254 135.622 43.327 135.477 43.4781C135.331 43.6292 135.133 43.7179 134.923 43.7257L133.033 43.8057C132.924 43.8111 132.814 43.7942 132.711 43.7559C132.608 43.7176 132.514 43.6588 132.435 43.5831C132.355 43.5073 132.292 43.4162 132.249 43.3152C132.206 43.2142 132.183 43.1055 132.183 42.9957L132.193 29.2657C132.193 29.0526 132.109 28.8481 131.96 28.6964C131.81 28.5448 131.607 28.4583 131.393 28.4557Z" fill="#1F1D1F"/>
<path d="M161.723 33.8756C162.163 34.4256 162.743 34.8356 163.043 35.4456C165.163 39.7056 162.243 43.7056 157.673 43.7456C154.94 43.7656 152.107 43.7622 149.173 43.7356C149.016 43.7343 148.86 43.7019 148.715 43.6404C148.57 43.5789 148.438 43.4894 148.328 43.377C148.217 43.2647 148.13 43.1316 148.071 42.9856C148.012 42.8395 147.982 42.6832 147.983 42.5256L148.003 26.5256C148.003 26.3024 148.048 26.0815 148.134 25.8757C148.22 25.6698 148.347 25.4833 148.506 25.3269C148.665 25.1705 148.854 25.0474 149.061 24.9647C149.269 24.8821 149.49 24.8416 149.713 24.8456C155.333 24.9356 163.883 23.8256 161.523 32.9656C161.443 33.2989 161.51 33.6022 161.723 33.8756ZM154.463 33.3856C154.557 33.2789 154.66 33.1789 154.773 33.0856C155.053 32.8656 155.373 32.7556 155.733 32.7556C156.78 32.7556 157.613 32.3456 158.233 31.5256C158.444 31.243 158.572 30.9078 158.603 30.5571C158.635 30.2063 158.569 29.8536 158.413 29.538C158.257 29.2224 158.016 28.9561 157.718 28.7686C157.42 28.5811 157.076 28.4797 156.723 28.4756L151.993 28.4456C151.919 28.4442 151.845 28.4577 151.776 28.4853C151.707 28.5128 151.644 28.5539 151.591 28.606C151.538 28.6581 151.496 28.7203 151.467 28.7889C151.438 28.8575 151.423 28.9312 151.423 29.0056L151.433 39.8356C151.433 39.9761 151.49 40.1109 151.592 40.2103C151.693 40.3097 151.83 40.3656 151.973 40.3656L158.603 40.3456C159 40.3467 159.382 40.1979 159.673 39.9289C159.964 39.66 160.143 39.2908 160.173 38.8956L160.243 38.0656C160.343 36.7722 159.747 36.1022 158.453 36.0556L155.593 35.9556C155.301 35.9447 155.017 35.8516 154.775 35.6869C154.532 35.5223 154.341 35.2927 154.223 35.0245C154.105 34.7564 154.065 34.4604 154.108 34.1706C154.15 33.8807 154.274 33.6087 154.463 33.3856Z" fill="#1F1D1F"/>
<path d="M188.063 31.5456C187.623 31.0256 187.407 31.1056 187.413 31.7856L187.443 42.3056C187.443 42.4933 187.406 42.6791 187.333 42.8522C187.26 43.0252 187.154 43.182 187.02 43.3134C186.886 43.4447 186.727 43.5479 186.552 43.617C186.378 43.686 186.191 43.7196 186.003 43.7156L185.633 43.7056C184.5 43.6789 183.93 43.0989 183.923 41.9656C183.897 37.5056 183.897 33.0522 183.923 28.6056C183.933 26.2156 184.803 25.0956 187.293 25.5656C187.687 25.6389 188.007 25.8356 188.253 26.1556L196.643 36.9656C197.25 37.7389 197.55 37.6356 197.543 36.6556L197.513 26.3856C197.513 26.1917 197.552 25.9999 197.628 25.8217C197.705 25.6434 197.816 25.4826 197.957 25.3488C198.097 25.2151 198.263 25.1113 198.445 25.0437C198.626 24.976 198.82 24.9461 199.013 24.9556L199.353 24.9756C199.814 24.9962 200.249 25.1938 200.568 25.5273C200.886 25.8608 201.064 26.3044 201.063 26.7656L201.073 41.0756C201.074 41.4958 200.953 41.9078 200.724 42.2624C200.495 42.617 200.169 42.8993 199.783 43.0756C198.47 43.6822 197.38 43.4056 196.513 42.2456C193.707 38.5056 190.89 34.9389 188.063 31.5456Z" fill="#1F1D1F"/>
<path d="M206.083 37.6756C206.176 38.4235 206.541 39.1113 207.109 39.6088C207.676 40.1064 208.407 40.3792 209.163 40.3756L214.443 40.3556C215.57 40.3556 216.167 40.9189 216.233 42.0456L216.253 42.3756C216.263 42.5405 216.239 42.7056 216.184 42.861C216.129 43.0165 216.043 43.1591 215.932 43.2804C215.821 43.4017 215.687 43.4992 215.538 43.5671C215.389 43.635 215.227 43.6719 215.063 43.6756C211.923 43.7456 207.573 44.3456 205.213 42.2656C202.043 39.4656 202.693 36.1356 202.733 32.3556C202.823 24.6056 208.903 24.5256 214.963 24.9656C215.305 24.9911 215.623 25.1462 215.854 25.3991C216.084 25.6519 216.21 25.9834 216.203 26.3256V26.6956C216.19 27.7489 215.653 28.3023 214.593 28.3556C211.393 28.5256 206.363 27.2756 205.993 31.9456C205.833 34.0389 205.863 35.9489 206.083 37.6756Z" fill="#1F1D1F"/>
<path d="M102.873 35.8956C102.933 40.1956 108.383 42.0356 110.653 38.8656C112.363 36.4856 111.633 29.8256 111.593 26.8256C111.58 25.6789 112.147 25.0923 113.293 25.0656L113.693 25.0556C113.844 25.0529 113.994 25.0801 114.135 25.1354C114.275 25.1908 114.404 25.2733 114.512 25.3782C114.621 25.4832 114.708 25.6085 114.768 25.747C114.828 25.8855 114.861 26.0346 114.863 26.1856C114.963 30.0156 115.653 36.7756 114.003 40.0256C111.453 45.0656 103.183 44.8456 100.673 40.2556C98.8232 36.8556 99.5232 31.0556 99.4832 26.8256C99.4699 25.7323 100.013 25.1656 101.113 25.1256L101.533 25.1156C101.704 25.1088 101.874 25.1367 102.033 25.1976C102.192 25.2586 102.338 25.3512 102.46 25.4699C102.583 25.5887 102.68 25.7311 102.746 25.8885C102.812 26.0459 102.845 26.215 102.843 26.3856C102.823 29.5589 102.833 32.7289 102.873 35.8956Z" fill="#1F1D1F"/>
<path d="M122.863 40.3856L128.113 40.3356C128.341 40.3343 128.566 40.3779 128.776 40.464C128.986 40.5501 129.176 40.6769 129.336 40.837C129.496 40.9971 129.623 41.1874 129.708 41.3966C129.794 41.6058 129.836 41.8298 129.833 42.0556V42.3356C129.83 42.6613 129.706 42.9739 129.486 43.2124C129.266 43.4509 128.966 43.5982 128.643 43.6256C122.453 44.1456 116.843 44.0256 116.773 36.6556C116.733 33.1222 116.73 29.6956 116.763 26.3756C116.765 26.2023 116.801 26.031 116.869 25.8718C116.937 25.7125 117.037 25.5686 117.162 25.4484C117.287 25.3282 117.434 25.2342 117.596 25.1719C117.758 25.1096 117.93 25.0802 118.103 25.0856L118.533 25.1056C119.633 25.1389 120.183 25.7089 120.183 26.8156L120.193 37.7256C120.193 38.0766 120.263 38.4241 120.397 38.7482C120.532 39.0722 120.728 39.3663 120.977 39.6136C121.225 39.8609 121.519 40.0564 121.843 40.1889C122.167 40.3214 122.514 40.3882 122.863 40.3856Z" fill="#1F1D1F"/>
<path d="M144.874 25.0557H144.774C143.873 25.0557 143.144 25.7854 143.144 26.6857V42.1257C143.144 43.0259 143.873 43.7557 144.774 43.7557H144.874C145.774 43.7557 146.504 43.0259 146.504 42.1257V26.6857C146.504 25.7854 145.774 25.0557 144.874 25.0557Z" fill="#1F1D1F"/>
<path d="M177.554 37.5557H172.114C170.887 37.5557 170.33 36.9457 170.444 35.7257L170.494 35.1757C170.526 34.8467 170.678 34.5412 170.922 34.3179C171.165 34.0945 171.483 33.9691 171.814 33.9657L176.754 33.9357C177.18 33.9357 177.41 33.7257 177.444 33.3057C177.764 29.8757 174.304 27.0857 171.234 29.1057C168.464 30.9257 168.504 39.1957 168.264 42.4557C168.233 42.8299 168.056 43.177 167.772 43.4221C167.487 43.6672 167.118 43.7906 166.744 43.7657L166.304 43.7357C165.11 43.649 164.597 43.0124 164.764 41.8257C165.11 39.3724 165.41 36.9157 165.664 34.4557C165.957 31.6224 166.46 29.619 167.174 28.4457C169.584 24.4957 174.984 23.7957 178.324 27.0157C181.644 30.2057 181.674 37.9757 182.044 42.3357C182.059 42.5159 182.036 42.6973 181.978 42.8685C181.92 43.0397 181.827 43.1969 181.704 43.3303C181.582 43.4637 181.434 43.5704 181.268 43.6436C181.103 43.7168 180.924 43.755 180.744 43.7557H180.334C179.891 43.755 179.464 43.5893 179.138 43.2912C178.813 42.9932 178.611 42.5845 178.574 42.1457L178.224 38.1757C178.211 38.0068 178.135 37.849 178.01 37.734C177.886 37.6189 177.723 37.5552 177.554 37.5557Z" fill="#1F1D1F"/>
<path d="M232.636 36.39C232.618 37.3603 232.408 38.3174 232.02 39.2068C231.631 40.0961 231.071 40.9001 230.372 41.5731C229.673 42.246 228.848 42.7746 227.944 43.1287C227.041 43.4828 226.076 43.6555 225.106 43.6368L223.766 43.611C221.807 43.5734 219.942 42.7589 218.583 41.3466C217.224 39.9344 216.482 38.0401 216.519 36.0805L216.59 32.4012C216.609 31.4309 216.818 30.4738 217.207 29.5845C217.595 28.6952 218.155 27.8911 218.854 27.2182C219.554 26.5453 220.379 26.0167 221.282 25.6626C222.186 25.3085 223.15 25.1358 224.121 25.1544L225.46 25.1802C227.42 25.2179 229.284 26.0324 230.643 27.4447C232.002 28.8569 232.745 30.7512 232.707 32.7107L232.636 36.39ZM229.388 32.8895C229.397 32.321 229.294 31.7562 229.084 31.2275C228.875 30.6988 228.564 30.2165 228.168 29.8082C227.772 29.3998 227.3 29.0734 226.778 28.8476C226.256 28.6218 225.695 28.501 225.126 28.492L224.406 28.4807C223.258 28.4627 222.15 28.9015 221.325 29.7007C220.5 30.4999 220.027 31.5939 220.009 32.7421L219.959 35.9417C219.95 36.5103 220.053 37.075 220.262 37.6037C220.471 38.1324 220.783 38.6147 221.179 39.0231C221.574 39.4314 222.047 39.7578 222.568 39.9837C223.09 40.2095 223.652 40.3303 224.22 40.3392L224.94 40.3505C226.088 40.3686 227.197 39.9298 228.021 39.1306C228.846 38.3314 229.319 37.2374 229.338 36.0891L229.388 32.8895Z" fill="#1F1D1F"/>
<path d="M6.88358 62.0957L63.5736 62.0757C63.8235 62.0757 64.0709 62.0264 64.3015 61.9307C64.5321 61.8349 64.7414 61.6946 64.9171 61.5179C65.0929 61.3413 65.2317 61.1316 65.3255 60.9012C65.4193 60.6708 65.4662 60.4242 65.4636 60.1757L65.4436 57.5457C65.4302 56.199 66.1002 55.5423 67.4536 55.5757L68.2136 55.5957C69.3669 55.6223 69.9969 56.209 70.1036 57.3557C70.5836 62.4357 70.0336 67.7457 63.6936 67.7457C44.5269 67.7523 25.3602 67.7557 6.19358 67.7557C0.443575 67.7557 -1.10642 60.5457 0.733577 56.2757C0.873577 55.949 1.11691 55.759 1.46357 55.7057C2.38357 55.5457 3.30024 55.5723 4.21357 55.7857C4.50024 55.8523 4.67358 56.029 4.73358 56.3157C4.98691 57.4823 5.04357 58.669 4.90357 59.8757C4.87109 60.1548 4.89811 60.4377 4.98283 60.7056C5.06755 60.9736 5.20806 61.2205 5.39511 61.4302C5.58217 61.64 5.81151 61.8077 6.06806 61.9224C6.32462 62.0371 6.60256 62.0961 6.88358 62.0957Z" fill="#2466FA"/>
</svg>
