<svg width="303" height="78" viewBox="0 0 303 78" fill="none" xmlns="http://www.w3.org/2000/svg">
<path d="M202.308 16.9733C196.186 15.0065 189.831 13.7076 183.438 12.4298C183.425 12.4269 183.412 12.4218 183.402 12.4147C183.391 12.4076 183.383 12.3988 183.378 12.3888C183.372 12.3789 183.369 12.368 183.37 12.3571C183.37 12.3462 183.373 12.3356 183.38 12.3258L191.46 0.109706C191.502 0.0468423 191.567 0.0147689 191.656 0.0134859C196.743 -0.0442463 201.525 0.0923848 207.303 0.252111C212.514 0.396441 218.992 0.881393 224.971 1.5915C234.009 2.66532 242.965 4.0804 251.836 5.83674C252.439 5.95606 253.005 6.07537 253.533 6.19468C253.678 6.22804 253.684 6.27166 253.55 6.32554L215 21.8382C214.928 21.8677 214.857 21.8658 214.787 21.8324C210.77 19.976 206.611 18.3563 202.308 16.9733Z" fill="#B3B2B1"/>
<path d="M180.329 0.286871L175.68 11.3195C175.65 11.3901 175.588 11.4234 175.496 11.4196C175.019 11.4003 174.362 11.3387 173.523 11.2348C172.4 11.095 169.624 10.9462 165.193 10.7884C162.052 10.6767 157.428 10.7749 153.752 11.0616C146.975 11.5928 140.196 12.5607 133.573 13.8001C133.534 13.8078 133.511 13.7962 133.505 13.7654L131.898 6.64127C131.88 6.56686 131.918 6.52003 132.012 6.50078C142.109 4.47246 151.953 2.67314 162.106 1.6455C168.144 1.03354 174.173 0.534478 180.193 0.148313C180.327 0.139333 180.372 0.185519 180.329 0.286871Z" fill="#B3B2B1"/>
<path d="M86.0147 20.7126C93.5085 17.5912 101.325 14.8874 109.24 12.5511C114.23 11.079 119.196 9.64528 124.31 8.38287C124.319 8.38061 124.328 8.37987 124.337 8.3807C124.347 8.38153 124.356 8.38392 124.364 8.38771C124.372 8.3915 124.379 8.39661 124.385 8.40273C124.391 8.40885 124.395 8.41585 124.397 8.42329L126.363 15.3531C126.384 15.4236 126.351 15.4705 126.263 15.4936C121.62 16.6828 117.001 17.9773 112.408 19.377C110.692 19.9005 109.078 20.5105 107.742 20.9666C103.518 22.4157 100.36 23.7069 95.6509 25.7237C95.5766 25.7558 95.5047 25.7539 95.4353 25.7179L86.0075 20.8376C85.9943 20.8306 85.9836 20.8211 85.9765 20.8098C85.9693 20.7986 85.9659 20.7861 85.9667 20.7735C85.9674 20.7609 85.9722 20.7487 85.9806 20.738C85.989 20.7273 86.0008 20.7186 86.0147 20.7126Z" fill="#B3B2B1"/>
<path d="M270.639 10.9153C276.196 12.834 282.076 15.0875 287.165 17.7528C291.133 19.8292 295.279 22.5118 297.941 25.4523C299.088 26.7173 299.904 28.2786 300.388 30.1363C300.403 30.1902 300.375 30.2171 300.306 30.2171H230.332C230.25 30.2171 230.171 30.1961 230.107 30.1575L221.724 25.2676C221.715 25.2624 221.708 25.2555 221.704 25.2477C221.7 25.2398 221.699 25.2312 221.701 25.2228C221.702 25.2144 221.706 25.2065 221.713 25.1998C221.719 25.1931 221.728 25.188 221.738 25.1848L270.418 10.9096C270.493 10.8878 270.566 10.8897 270.639 10.9153Z" fill="#B3B2B1"/>
<path d="M77.2338 24.5766L88.8574 28.6814C88.8708 28.6864 88.8824 28.6943 88.8909 28.7041C88.8993 28.7138 88.9043 28.7252 88.9053 28.7368C88.9063 28.7485 88.9032 28.7601 88.8965 28.7703C88.8898 28.7805 88.8796 28.789 88.8671 28.7949C85.6049 30.3934 82.4114 32.0253 79.2866 33.6906C77.91 34.4244 75.3499 35.9421 71.6063 38.2437C71.5449 38.2809 71.4754 38.2996 71.3978 38.2996H50.8046C50.6996 38.2996 50.6883 38.2739 50.7707 38.2226C51.5963 37.712 52.4284 37.2193 53.2669 36.7446C57.9267 34.1018 62.1341 31.8464 65.889 29.9784C68.235 28.8122 72.3043 26.7531 77.0351 24.5843C77.0997 24.5548 77.166 24.5522 77.2338 24.5766Z" fill="#B3B2B1"/>
<path d="M238.041 64.1868C238.04 64.1922 238.04 64.1978 238.042 64.2031C238.043 64.2085 238.047 64.2135 238.051 64.2178C238.055 64.222 238.061 64.2254 238.067 64.2277C238.074 64.23 238.081 64.2312 238.088 64.231H264.01C264.024 64.2311 264.038 64.2337 264.051 64.2385C264.064 64.2433 264.075 64.2502 264.084 64.2589C264.093 64.2675 264.099 64.2775 264.103 64.2883C264.107 64.2992 264.107 64.3105 264.105 64.3215L263.041 69.1479C263.029 69.2056 262.987 69.2345 262.912 69.2345H230.15C230.069 69.2345 230.035 69.2031 230.046 69.1402C230.518 66.6218 231.036 64.1175 231.602 61.6273C232.171 59.1192 233.542 57.0812 235.717 55.5135C237.07 54.5397 238.926 53.8796 240.86 53.3966C243.962 52.6217 247.093 51.9283 250.251 51.3163C253.859 50.6171 256.39 50.0777 257.842 49.6979C259.576 49.2437 260.596 48.2527 260.903 46.7247C261.32 44.6502 261.564 43.203 261.635 42.3832C261.73 41.2594 261.035 40.6134 259.548 40.4454C255.642 40.0027 251.718 39.8834 247.777 40.0874C247.459 40.1041 246.737 40.1945 245.613 40.3588C244.296 40.5486 243.345 41.1946 242.76 42.2966C241.822 44.0594 241.657 45.5527 241.328 47.2885C241.315 47.3578 241.264 47.3925 241.175 47.3925H234.513C234.434 47.3925 234.399 47.361 234.408 47.2982C234.741 45.2737 235.349 43.0933 236.5 41.2632C236.834 40.7321 237.135 40.1086 237.469 39.6544C238.846 37.7685 240.902 36.5465 243.638 35.9884C246.024 35.5022 248.454 35.2392 250.928 35.1994C252.624 35.1725 254.321 35.1359 256.017 35.0897C259.364 34.9954 263.867 35.2052 266.516 37.095C267.859 38.0533 268.71 39.3658 268.651 40.8514C268.576 42.7797 268.433 44.8792 267.903 46.6612C267.401 48.3393 266.601 50.2829 265.372 51.5954C263.913 53.158 260.38 54.3935 258.14 54.8592C251.844 56.169 246.963 57.2191 243.497 58.0094C240.984 58.5829 239.391 59.2603 238.812 61.3637C238.552 62.3053 238.295 63.2464 238.041 64.1868Z" fill="#B3B2B1"/>
<path d="M9.42677 56.8625L6.739 69.0055C6.72608 69.062 6.68407 69.0902 6.61298 69.0902H0.100792C0.0860734 69.0901 0.0715605 69.0874 0.0582554 69.0825C0.0449503 69.0775 0.0331691 69.0702 0.0237234 69.0613C0.0142777 69.0523 0.00739258 69.0418 0.00354283 69.0305C-0.000306913 69.0193 -0.00102917 69.0074 0.00142474 68.9959L7.25765 35.6556C7.27058 35.5927 7.31824 35.5606 7.40065 35.5593C14.1091 35.5542 20.8031 35.5536 27.4825 35.5574C28.0028 35.5587 28.5958 35.5953 29.2614 35.6671C31.4499 35.9019 33.6287 35.9808 35.4222 37.043C37.109 38.0437 38.2796 40.4858 37.7997 42.1523C37.1478 44.4135 36.8909 46.7671 36.3092 49.0533C35.9457 50.4863 35.5571 51.5345 35.1435 52.1978C34.1256 53.8316 32.3782 55.2691 30.1315 55.8522C28.0327 56.3962 25.8741 56.672 23.6557 56.6797C18.9717 56.6964 14.2877 56.7176 9.60369 56.7432C9.5019 56.7445 9.44292 56.7843 9.42677 56.8625ZM26.896 40.7302C23.6048 40.6892 18.9838 40.6853 13.0331 40.7187C12.9571 40.7187 12.9127 40.7488 12.8998 40.8091L10.5683 51.7186C10.5554 51.7853 10.5909 51.8187 10.6749 51.8187C14.7029 51.8187 18.7503 51.7628 22.7735 51.8475C25.0686 51.8956 28.641 51.7321 29.3487 49.4651C29.6944 48.3605 30.163 46.4592 30.7544 43.7612C30.8634 43.257 30.8804 42.3371 30.6623 41.9022C30.1412 40.8668 28.0157 40.7437 26.896 40.7302Z" fill="#D13239"/>
<path d="M114.921 69.1652L122.376 35.6074C122.379 35.5933 122.388 35.5805 122.402 35.5713C122.416 35.5621 122.433 35.5572 122.451 35.5574H128.675C128.686 35.5573 128.697 35.5591 128.707 35.5626C128.717 35.5662 128.726 35.5715 128.733 35.5781C128.74 35.5847 128.745 35.5925 128.748 35.6009C128.751 35.6093 128.752 35.6181 128.75 35.6267L121.477 69.1845C121.474 69.1983 121.465 69.2108 121.452 69.22C121.438 69.2291 121.422 69.2343 121.404 69.2345H114.996C114.985 69.2346 114.974 69.2328 114.964 69.2293C114.954 69.2257 114.945 69.2204 114.938 69.2138C114.931 69.2072 114.926 69.1994 114.923 69.191C114.92 69.1826 114.919 69.1738 114.921 69.1652Z" fill="#D13239"/>
<path d="M288.486 61.7293H266.415C266.403 61.7294 266.392 61.7276 266.382 61.7239C266.372 61.7202 266.362 61.7148 266.355 61.708C266.348 61.7013 266.342 61.6933 266.339 61.6847C266.336 61.676 266.335 61.667 266.337 61.6581L267.413 56.4584C267.416 56.4459 267.424 56.4345 267.435 56.4257L292.938 35.5766C292.946 35.5706 292.954 35.5658 292.964 35.5625C292.973 35.5592 292.984 35.5574 292.994 35.5574H301.062C301.074 35.5573 301.085 35.5591 301.095 35.5628C301.105 35.5665 301.115 35.5719 301.122 35.5787C301.129 35.5855 301.135 35.5934 301.138 35.6021C301.141 35.6107 301.142 35.6197 301.14 35.6286L296.605 56.6547C296.604 56.6635 296.604 56.6726 296.607 56.6812C296.61 56.6898 296.616 56.6978 296.623 56.7046C296.631 56.7114 296.64 56.7168 296.65 56.7205C296.66 56.7241 296.672 56.726 296.683 56.7259H302.887C302.898 56.726 302.909 56.7281 302.919 56.7319C302.929 56.7357 302.938 56.7411 302.945 56.7479C302.952 56.7546 302.958 56.7625 302.961 56.771C302.964 56.7795 302.964 56.7884 302.962 56.7971L301.896 61.6774C301.893 61.692 301.884 61.7053 301.869 61.7148C301.855 61.7244 301.837 61.7295 301.819 61.7293H295.566C295.547 61.7291 295.53 61.734 295.515 61.7431C295.501 61.7523 295.492 61.7651 295.488 61.7794L293.869 69.0402C293.866 69.0544 293.856 69.0673 293.842 69.0764C293.828 69.0856 293.81 69.0904 293.792 69.0902H287.03C287.018 69.0901 287.007 69.088 286.997 69.0841C286.987 69.0802 286.978 69.0745 286.971 69.0675C286.964 69.0606 286.958 69.0524 286.956 69.0437C286.953 69.035 286.953 69.0259 286.955 69.0171L288.561 61.8025C288.564 61.7936 288.563 61.7845 288.56 61.7758C288.558 61.7671 288.553 61.7589 288.545 61.752C288.538 61.745 288.529 61.7394 288.519 61.7355C288.509 61.7315 288.498 61.7295 288.486 61.7293ZM289.613 56.7259C289.63 56.7256 289.647 56.7207 289.659 56.7119C289.672 56.7031 289.681 56.691 289.684 56.6778L292.74 42.6527C292.742 42.6406 292.74 42.6281 292.733 42.6171C292.726 42.6061 292.715 42.5972 292.701 42.5916C292.687 42.586 292.672 42.5841 292.656 42.5861C292.641 42.5881 292.627 42.5939 292.616 42.6026L275.37 56.6277C275.36 56.6358 275.353 56.646 275.35 56.6571C275.348 56.6682 275.349 56.6797 275.355 56.6901C275.36 56.7006 275.369 56.7095 275.381 56.7159C275.393 56.7222 275.407 56.7257 275.421 56.7259H289.613Z" fill="#B3B2B1"/>
<path d="M92.791 58.7638C92.3435 60.3277 92.1803 61.7184 92.3015 62.9359C92.4469 64.4177 94.8293 64.7795 96.2931 64.793C98.77 64.8141 101.128 64.868 103.089 64.666C105.51 64.4196 106.712 62.7935 107.039 61.023C107.052 60.9486 107.106 60.9114 107.202 60.9114H113.685C113.764 60.9114 113.795 60.9416 113.777 61.0019C113.561 61.7255 113.413 62.4875 113.067 63.1515C111.617 65.9341 109.373 68.0452 105.646 68.9632C105.033 69.1133 103.937 69.2512 102.357 69.3769C100.021 69.5642 97.6794 69.6123 95.3334 69.5212C91.9573 69.3885 88.1717 68.7649 86.7127 66.117C85.8499 64.5466 85.5906 62.8936 85.925 60.8133C86.1237 59.5778 86.371 58.3481 86.6666 57.1242C87.367 54.2087 87.7791 50.9449 89.9603 48.4163C91.5599 46.5611 94.8341 45.368 97.5146 44.9138C100.28 44.4462 103.731 44.5674 106.693 44.7214C113.685 45.0851 116.438 47.9371 115.338 53.3466C114.981 55.0965 114.599 56.8214 114.191 58.5213C114.17 58.6073 114.105 58.6503 113.995 58.6503H92.9704C92.8718 58.6503 92.812 58.6881 92.791 58.7638ZM106.664 49.4535C103.833 48.9936 99.6958 48.9551 96.9814 49.8172C94.9093 50.4754 94.5821 52.292 94.1216 53.87C94.1194 53.8778 94.1195 53.8859 94.1218 53.8937C94.124 53.9015 94.1285 53.9088 94.1347 53.9151C94.141 53.9214 94.1489 53.9264 94.158 53.93C94.167 53.9335 94.177 53.9354 94.187 53.9355H108.595C108.666 53.9355 108.708 53.9079 108.721 53.8527C109.099 52.2112 109.487 49.9115 106.664 49.4535Z" fill="#D13239"/>
<path d="M133.095 58.7175C132.774 59.9119 132.61 61.1256 132.603 62.3585C132.601 63.2976 132.921 64 133.99 64.3868C134.447 64.5523 135.014 64.6549 135.691 64.6947C138.927 64.8897 141.511 64.8794 143.442 64.6639C145.831 64.4003 147.058 62.7664 147.358 61.0095C147.369 60.944 147.417 60.9113 147.501 60.9113H154.045C154.054 60.9114 154.064 60.9132 154.072 60.9165C154.081 60.9198 154.088 60.9246 154.094 60.9305C154.1 60.9365 154.104 60.9433 154.106 60.9507C154.108 60.958 154.108 60.9656 154.105 60.9729C153.868 61.7369 153.713 62.5432 153.34 63.2418C151.871 65.9802 149.668 68.0451 145.984 68.9573C145.328 69.1202 144.217 69.2626 142.652 69.3845C138.728 69.6905 134.222 69.804 130.504 68.7302C128.646 68.1933 127.538 67.1387 126.806 65.6357C125.994 63.9654 125.965 62.4162 126.285 60.5245C126.472 59.4148 126.698 58.3095 126.961 57.2088C127.645 54.3529 128.006 51.5972 129.86 49.0089C131.532 46.6688 135.029 45.287 138.228 44.8598C140.519 44.5539 142.736 44.5596 145.179 44.6385C147.331 44.7078 149.944 44.8502 151.837 45.5488C155.729 46.9863 156.335 50.1539 155.705 53.1675C155.33 54.9662 154.927 56.761 154.496 58.552C154.489 58.5795 154.471 58.6044 154.444 58.6224C154.417 58.6403 154.383 58.6501 154.348 58.6501H133.2C133.175 58.6502 133.151 58.6569 133.132 58.6691C133.113 58.6814 133.1 58.6985 133.095 58.7175ZM146.893 49.4399C144.04 49.03 140.657 49.0089 137.85 49.642C135.449 50.1827 134.789 52.1091 134.484 53.8353C134.473 53.902 134.509 53.9353 134.593 53.9353H148.895C148.975 53.9353 149.023 53.9039 149.038 53.841C149.442 52.1745 149.787 49.8575 146.893 49.4399Z" fill="#D13239"/>
<path d="M47.889 46.4918C50.3635 45.6046 52.3218 44.9984 54.8593 44.9041C54.9006 44.9023 54.9408 44.894 54.9775 44.8798C55.0141 44.8655 55.0465 44.8457 55.0726 44.8214L55.1186 44.7791C55.1412 44.7572 55.1703 44.7463 55.2059 44.7463H58.5722C58.6659 44.7463 58.7039 44.7829 58.6861 44.856L57.6367 49.363C57.63 49.3912 57.611 49.4166 57.5831 49.4349C57.5552 49.4532 57.5202 49.4631 57.484 49.4631C56.3773 49.4618 55.281 49.4554 54.1952 49.4438C50.4241 49.4034 47.6806 51.2354 46.2434 53.87C45.9429 54.4216 45.6513 55.3043 45.3685 56.5179C44.412 60.649 43.4539 64.7814 42.4941 68.915C42.4812 68.9676 42.4408 68.9939 42.373 68.9939H35.6475C35.6356 68.9938 35.6239 68.9916 35.6132 68.9875C35.6025 68.9835 35.5931 68.9777 35.5856 68.9705C35.5782 68.9633 35.5729 68.9549 35.5702 68.946C35.5675 68.937 35.5674 68.9278 35.5699 68.9188L41.1854 44.9927C41.2016 44.9247 41.2533 44.8907 41.3405 44.8907H48.0102C48.091 44.8907 48.1241 44.9221 48.1096 44.985L47.7848 46.4263C47.7671 46.502 47.8018 46.5239 47.889 46.4918Z" fill="#D13239"/>
<path d="M84.0563 64.5889L83.1693 69.1844C83.1664 69.1985 83.1572 69.2113 83.1434 69.2204C83.1296 69.2296 83.1122 69.2346 83.0942 69.2344H57.3508C57.34 69.2342 57.3294 69.2322 57.3197 69.2285C57.31 69.2248 57.3014 69.2195 57.2945 69.2129C57.2876 69.2064 57.2826 69.1987 57.2797 69.1904C57.2769 69.1822 57.2763 69.1736 57.2781 69.1651L58.3517 64.3964C58.3551 64.3837 58.3636 64.3722 58.376 64.3637L78.2833 49.8537C78.2946 49.8456 78.3026 49.8349 78.3061 49.8232C78.3096 49.8114 78.3085 49.7991 78.303 49.7878C78.2975 49.7765 78.2878 49.7669 78.2752 49.7601C78.2626 49.7533 78.2477 49.7497 78.2324 49.7498H62.4597C62.4487 49.7496 62.4379 49.7476 62.428 49.7438C62.418 49.74 62.4093 49.7345 62.4024 49.7277C62.3954 49.7209 62.3905 49.713 62.3878 49.7045C62.3852 49.696 62.3849 49.6871 62.387 49.6786L63.451 45.0407C63.4544 45.027 63.4638 45.0146 63.4775 45.0058C63.4913 44.997 63.5085 44.9924 63.5261 44.9926L88.3582 44.8906C88.3692 44.8905 88.3801 44.8923 88.3901 44.8959C88.4001 44.8995 88.409 44.9048 88.4161 44.9114C88.4233 44.918 88.4285 44.9257 88.4315 44.9341C88.4345 44.9425 88.4351 44.9513 88.4333 44.9599L87.5415 49.2937C87.5386 49.3071 87.53 49.3193 87.5172 49.3283L66.6962 64.4157C66.6849 64.4238 66.6769 64.4344 66.6734 64.4462C66.6699 64.458 66.671 64.4703 66.6765 64.4816C66.682 64.4928 66.6917 64.5025 66.7043 64.5093C66.7169 64.5161 66.7318 64.5197 66.747 64.5196H83.9812C83.9922 64.5195 84.0031 64.5213 84.0131 64.5249C84.0231 64.5284 84.032 64.5337 84.0391 64.5403C84.0463 64.5469 84.0515 64.5547 84.0545 64.5631C84.0575 64.5715 84.0581 64.5803 84.0563 64.5889Z" fill="#D13239"/>
<path d="M185.474 61.8408C185.492 61.9704 185.534 61.9755 185.6 61.8562L195.122 44.9868C195.158 44.9227 195.22 44.8906 195.309 44.8906H201.659C201.667 44.8907 201.675 44.8924 201.682 44.8955C201.689 44.8986 201.694 44.903 201.699 44.9083C201.703 44.9136 201.706 44.9197 201.706 44.926C201.707 44.9324 201.706 44.9387 201.702 44.9445L187.924 68.9938C187.887 69.058 187.824 69.0901 187.735 69.0901H180.128C180.066 69.0901 180.032 69.0657 180.026 69.0169L177.878 52.5055C177.856 52.3272 177.798 52.3195 177.704 52.4824L168.218 68.9938C168.184 69.0554 168.125 69.0868 168.041 69.0881L160.596 69.2325C160.574 69.233 160.552 69.2267 160.535 69.2149C160.518 69.2031 160.508 69.1866 160.506 69.169L157.239 45.0484C157.238 45.0413 157.239 45.0341 157.242 45.0272C157.244 45.0204 157.249 45.014 157.255 45.0086C157.261 45.0032 157.268 44.9988 157.276 44.9957C157.284 44.9926 157.293 44.9909 157.302 44.9907L163.553 44.8926C163.588 44.8913 163.608 44.9054 163.613 44.9349L165.773 61.8331C165.789 61.964 165.831 61.9691 165.899 61.8485L175.421 44.9888C175.438 44.9596 175.465 44.9348 175.499 44.9174C175.532 44.9 175.572 44.8907 175.612 44.8906H183.007C183.088 44.8906 183.132 44.9227 183.14 44.9868L185.474 61.8408Z" fill="#D13239"/>
<path d="M213.386 62.5935C213.388 62.6012 213.393 62.6083 213.4 62.6137C213.407 62.6192 213.416 62.6228 213.426 62.624C213.436 62.6253 213.446 62.6242 213.455 62.6208C213.464 62.6174 213.471 62.6119 213.476 62.6051L225.216 45.0795C225.235 45.0516 225.263 45.0283 225.297 45.0121C225.331 44.9958 225.37 44.9872 225.41 44.9871H231.951C231.958 44.9871 231.965 44.9885 231.971 44.9912C231.977 44.9938 231.982 44.9977 231.985 45.0024C231.988 45.0071 231.99 45.0124 231.99 45.0179C231.99 45.0233 231.988 45.0286 231.985 45.0333C226.312 53.4378 220.635 61.8449 214.954 70.2546C213.735 72.0578 212.371 73.8975 210.72 75.3581C209.615 76.3357 207.315 77.4846 205.708 77.7733C203.76 78.1235 201.81 78.0683 199.858 77.6078C199.779 77.5898 199.746 77.5481 199.759 77.4827L200.641 73.0835C200.642 73.0763 200.645 73.0694 200.65 73.0632C200.654 73.057 200.661 73.0515 200.668 73.0472C200.676 73.0429 200.685 73.0398 200.694 73.0381C200.704 73.0364 200.714 73.0361 200.723 73.0373C203.787 73.5261 205.815 73.0335 207.434 70.83C207.899 70.1949 208.231 69.7421 208.43 69.4714C208.472 69.4124 208.485 69.3495 208.469 69.2828L202.313 44.9814C202.311 44.9704 202.311 44.9591 202.315 44.9484C202.318 44.9376 202.324 44.9277 202.333 44.9192C202.342 44.9107 202.353 44.904 202.365 44.8994C202.378 44.8948 202.391 44.8926 202.405 44.8928L209.172 44.991C209.184 44.9916 209.196 44.9954 209.205 45.0016C209.214 45.0079 209.221 45.0164 209.223 45.0256L213.386 62.5935Z" fill="#D13239"/>
</svg>
