<svg width="197" height="98" viewBox="0 0 197 98" fill="none" xmlns="http://www.w3.org/2000/svg">
<path d="M182.512 20.529L170.779 20.5249C169.499 20.5249 168.461 21.5592 168.461 22.8352L168.46 24.4671H169.274C174.572 24.4671 176.542 25.3383 176.542 30.1497V36.9896L182.506 36.9916C183.786 36.9923 184.823 35.9587 184.824 34.6827L184.828 22.84C184.828 21.564 183.791 20.5297 182.512 20.529ZM118.475 38.9155C117.934 38.2377 116.91 38.144 115.883 38.144H115.114C112.556 38.144 111.553 38.9304 110.987 41.3772L103.88 70.8295C102.993 74.449 101.746 75.1105 99.6135 75.1105C97.002 75.1105 95.9565 74.4891 94.9157 70.8152L86.866 41.3629C86.1998 38.8965 85.2169 38.144 82.6586 38.144H81.9733C80.9407 38.144 79.9122 38.2391 79.3843 38.9257C78.8557 39.6129 79.0342 40.639 79.3067 41.6475L87.4415 71.3551C88.9673 77.0405 90.7812 81.7466 97.5586 81.7466C98.8234 81.7466 99.9936 81.5714 100.967 81.2441C98.9113 87.6893 96.8202 90.532 90.6538 91.1636C89.4025 91.2675 88.5893 91.4461 88.1363 92.0518C87.6656 92.68 87.7726 93.5798 87.9408 94.3832L88.1104 95.1451C88.4782 96.9066 89.1055 97.9986 91.089 97.9986C91.2975 97.9986 91.5216 97.9878 91.762 97.9674C100.97 97.3664 105.903 92.424 108.79 80.9086L118.641 41.6264C118.874 40.6186 119.015 39.5925 118.475 38.9155ZM68.9274 61.5435V67.489C68.9274 72.3357 67.1251 75.1417 57.9119 75.1417C51.8253 75.1417 48.8664 72.9455 48.8664 68.4282C48.8664 63.4742 51.8348 61.5435 59.4534 61.5435H68.9274ZM57.9119 36.8938C52.8892 36.8938 49.7417 37.522 48.5476 37.7603C46.434 38.218 45.5499 38.7966 45.5499 41.1932V41.8763C45.5499 42.8155 45.6895 43.4661 45.9886 43.9238C46.3366 44.4569 46.8979 44.7271 47.6567 44.7271C48.0265 44.7271 48.4557 44.6654 48.9672 44.5377C50.1749 44.2368 54.0336 43.6148 58.2546 43.6148C65.8357 43.6148 68.9274 45.7084 68.9274 50.8404V55.4202H59.3676C47.0784 55.4202 41.3541 59.5531 41.3541 68.4282C41.3541 77.0364 47.265 81.7771 57.9978 81.7771C70.7522 81.7771 76.4397 77.45 76.4397 67.745V50.8404C76.4397 41.456 70.3796 36.8938 57.9119 36.8938ZM33.82 42.5873C33.82 49.6546 32.0102 53.4847 22.4619 53.4847H7.76423V35.245C7.76423 32.716 8.7076 31.7755 11.2442 31.7755H22.4619C29.6554 31.7755 33.82 33.5452 33.82 42.5873ZM22.4619 24.4569H9.78789C3.01529 24.4569 -0.00488281 27.468 -0.00488281 34.2209V77.5912C-0.00488281 80.1996 0.834953 81.0369 3.4519 81.0369H4.30811C6.92438 81.0369 7.76423 80.1996 7.76423 77.5912V60.7178H22.4619C35.5112 60.7178 41.5891 54.9563 41.5891 42.5873C41.5891 30.2176 35.5112 24.4569 22.4619 24.4569ZM183.654 8.30669L177.736 8.30464C177.09 8.30396 176.567 7.78243 176.567 7.13865L176.569 1.16466C176.57 0.520883 177.094 0 177.739 0L183.657 0.0020517C184.303 0.0020517 184.826 0.524277 184.826 1.16738L184.824 7.14136C184.823 7.78514 184.3 8.30669 183.654 8.30669ZM195.266 20.5365L186.552 20.5331C185.602 20.5331 184.831 19.7644 184.832 18.817L184.835 10.0214C184.835 9.07338 185.606 8.30532 186.557 8.30532L195.27 8.30872C196.221 8.30872 196.992 9.07746 196.992 10.0248L196.988 18.8211C196.988 19.7684 196.217 20.5365 195.266 20.5365ZM170.773 36.9882C169.493 36.9882 168.456 35.9539 168.457 34.6779L168.46 24.4671H167.606C162.308 24.4671 160.337 25.339 160.337 30.1504V41.4091C160.337 41.4329 160.334 41.4566 160.334 41.4804V43.9482C160.333 44.0338 160.327 44.1133 160.327 44.2015V59.9327C160.327 61.8539 159.956 63.3839 159.19 64.5723C157.745 66.7916 154.885 67.8 150.309 67.8062C145.735 67.8 142.876 66.7923 141.431 64.575C140.663 63.3859 140.291 61.8553 140.291 59.9327V44.2015C140.291 44.1133 140.286 44.0338 140.285 43.9482V41.4804C140.285 41.4566 140.282 41.4329 140.281 41.4091V30.1504C140.281 25.339 138.311 24.4671 133.013 24.4671H131.345C126.046 24.4671 124.076 25.339 124.076 30.1504V59.9327C124.076 64.7238 125.16 68.78 127.254 72.0498C131.298 78.3857 139.131 81.7602 150.268 81.7602C150.282 81.7602 150.295 81.7595 150.309 81.7595C150.323 81.7595 150.336 81.7602 150.351 81.7602C161.487 81.7602 169.321 78.3857 173.365 72.0498C175.459 68.78 176.542 64.7238 176.542 59.9327V36.9896L170.773 36.9882Z" fill="#9DC53B"/>
</svg>
