<svg width="214" height="75" viewBox="0 0 214 75" fill="none" xmlns="http://www.w3.org/2000/svg">
<path d="M69.3905 53.5854C69.3595 53.5544 69.3286 53.5533 69.2976 53.5821L69.2943 53.5854C69.2633 53.6142 69.2622 53.644 69.291 53.675C74.8525 60.4445 83.9017 62.7275 92.1811 60.3482C98.7349 58.4634 104.379 53.6119 107.827 47.755C112.207 40.3053 112.526 30.5559 106.437 23.8428C104.598 21.8164 103.423 20.5322 102.909 19.9902C102.887 19.9681 102.887 19.9449 102.909 19.9205C102.929 19.8962 102.953 19.894 102.979 19.9139C109.384 24.8052 113.356 31.4087 112.131 39.6914C109.417 58.0652 84.3364 70.2005 69.7423 56.3828C69.7334 56.3739 69.7257 56.3739 69.719 56.3828L69.656 56.4425C69.6095 56.489 69.6095 56.5365 69.656 56.5852C70.8793 57.9081 72.1127 58.9446 73.356 59.6945C82.7735 65.359 94.942 63.0992 103.095 56.3031C110.525 50.1111 114.656 40.7234 112.48 31.1101C111.219 25.5452 107.711 21.9613 103.912 18.0058C103.892 17.9837 103.892 17.9627 103.912 17.9428V17.9395C103.931 17.9195 103.952 17.9173 103.975 17.9328C110.18 22.5918 114.271 28.5085 113.963 36.5953C113.724 42.9036 111.029 49.0359 106.848 53.7148C101.771 59.3959 94.3413 62.8602 86.7954 63.6533C81.9793 64.1599 77.38 63.3005 72.9976 61.075C72.9578 61.0528 72.9268 61.0617 72.9047 61.1015H72.9013C72.8792 61.1413 72.887 61.1734 72.9246 61.1977C80.8555 66.3479 91.3979 64.7019 99.2293 60.3814C105.581 56.8739 110.937 51.1364 113.203 44.2044C115.453 37.3254 115.23 28.9498 110.708 22.9004C108.783 20.332 106.513 18.4074 104.121 16.3201C103.992 16.2073 104.007 16.1863 104.164 16.257C104.686 16.4871 105.215 16.7802 105.75 17.1364C112.151 21.4005 115.503 27.9311 115.506 35.5202C115.509 46.8823 108.59 56.2865 98.7913 61.5993C93.1014 64.6853 87.0265 65.9065 80.5668 65.2627C79.9595 65.203 79.193 64.9442 78.3866 65.0835C78.3357 65.0924 78.3136 65.1212 78.3202 65.1698L78.3236 65.1731C78.3302 65.224 78.359 65.2473 78.4098 65.2428C79.2228 65.1532 79.9861 65.4353 80.59 65.5216C95.6853 67.7316 109.676 58.1847 114.739 44.3205C115.529 42.1569 116.003 39.8064 116.16 37.269C116.545 31.047 114.783 25.2498 110.754 20.4548C108.673 17.9793 106.712 16.4827 104.681 14.5215C104.323 14.1786 104.361 14.1267 104.794 14.3656C113.405 19.1507 117.769 28.1634 116.963 37.77C115.97 49.5868 108.119 59.7808 97.152 64.2307C91.1148 66.6819 84.78 67.4164 78.1477 66.4341C77.6787 66.3633 77.6643 66.4153 78.1045 66.5901C79.7903 67.2604 81.4163 67.2504 83.6296 67.2704C86.0697 67.2925 88.1205 67.1586 89.7819 66.8688C100.018 65.0835 107.767 59.9666 113.03 51.518C116.85 45.3824 118.26 39.0742 117.567 31.714C116.817 23.7599 112.144 18.2082 106.005 13.6654C105.565 13.3402 105.228 13.0803 104.993 12.8856C104.838 12.7551 104.857 12.7208 105.05 12.7827C107.041 13.4066 109.344 15.2284 110.771 16.6088C121.194 26.6966 120.653 42.1536 112.645 53.4128C106.643 61.8548 97.5734 67.8478 87.2234 68.5214C87.1947 68.5236 87.1803 68.5391 87.1803 68.5678V68.5712C87.1803 68.5999 87.1958 68.6143 87.2267 68.6143C88.1028 68.6453 88.845 68.6198 89.4534 68.538C96.683 67.5734 102.912 64.5692 108.139 59.5253C112.997 54.8397 116.847 48.724 118.37 42.1271C119.544 37.0367 119.584 31.3457 118.054 26.3117C116.15 20.0499 111.358 15.2516 106.095 11.6047C106.06 11.5804 106.053 11.5505 106.075 11.5151H106.078C106.101 11.4797 106.129 11.472 106.165 11.4919C114.056 15.8721 119.359 23.4513 120.112 32.4142C121.064 43.7929 115.629 54.7468 106.835 61.8747C103.209 64.8126 99.2028 67.11 94.8159 68.7669C94.7738 68.7824 94.7595 68.8112 94.7727 68.8532L94.8026 68.9461C94.8225 68.997 94.859 69.0147 94.9121 68.9992C99.1596 67.7316 103.014 65.7339 106.477 63.0062C116.339 55.2313 122.01 43.5341 120.633 30.8844C119.611 21.4934 113.379 15.1188 106.205 9.81609C105.839 9.5462 105.862 9.50969 106.271 9.70658C114.218 13.5393 119.408 20.3353 121.17 28.9067C124.426 44.7287 115.659 58.8682 102.631 67.0945C102.593 67.1166 102.592 67.1409 102.627 67.1675L102.777 67.267C102.795 67.28 102.816 67.2877 102.838 67.2895C102.861 67.2913 102.883 67.2869 102.903 67.277C105.414 65.974 107.871 64.1809 110.276 61.8979C115.639 56.8075 119.81 50.5059 121.598 43.388C123.928 34.1364 122.149 23.6869 115.914 16.2006C113.127 12.8557 110.14 10.6191 106.477 8.33278C106.452 8.3195 106.451 8.30402 106.473 8.28632L106.589 8.19009C106.608 8.17611 106.629 8.16721 106.652 8.16429C106.675 8.16137 106.698 8.16455 106.719 8.1735C107.843 8.6447 108.585 8.99424 108.945 9.2221C116.817 14.1997 121.774 21.2379 123.015 30.5791C124.572 42.3029 120.218 53.0744 111.962 61.3603C111.101 62.2209 110.23 63.0704 109.347 63.9088C109.339 63.9171 109.332 63.9271 109.328 63.9381C109.323 63.949 109.321 63.9608 109.321 63.9726C109.322 63.9844 109.324 63.9961 109.329 64.0068C109.334 64.0175 109.341 64.0271 109.35 64.0349C109.379 64.0615 109.409 64.0659 109.44 64.0482C110.188 63.6345 110.87 63.1312 111.487 62.5384C114.337 59.7996 116.776 56.7345 118.804 53.3432C125.799 41.6359 126.297 25.8405 117.049 15.0658C114.155 11.6943 110.722 8.93561 106.749 6.78974C106.693 6.75876 106.679 6.71452 106.706 6.657L106.739 6.58068C106.743 6.57404 106.75 6.57183 106.759 6.57404C108.155 7.08728 109.235 7.56845 110.001 8.01753C129.221 19.29 128.295 44.3105 115.357 59.5817C108.282 67.9307 98.33 73.2003 87.5221 74.6969C85.2258 75.0154 83.0213 75.0829 80.9086 74.8993C67.0544 73.6881 55.2377 65.3158 52.1084 51.372C49.5035 39.7611 53.1604 27.7851 60.7528 18.862C68.2855 10.0052 77.7627 4.40051 89.5197 3.54105C89.6436 3.5322 89.7188 3.46694 89.7454 3.34527L90.4987 0.0633992C90.5141 -0.009605 90.5495 -0.0195614 90.6049 0.0335325L103.653 13.0283C103.772 13.1477 103.758 13.2484 103.61 13.3302L86.865 22.3429C86.85 22.3519 86.8327 22.3564 86.8152 22.3559C86.7977 22.3554 86.7807 22.35 86.7661 22.3403C86.7516 22.3306 86.74 22.317 86.7329 22.301C86.7257 22.285 86.7232 22.2674 86.7257 22.25L87.1239 19.3464C87.1438 19.1982 87.0807 19.1374 86.9347 19.1639C78.5658 20.7003 71.0729 26.2951 68.2423 34.4384C64.1043 46.3447 70.6349 58.7753 83.8951 59.4987C93.7009 60.0363 102.783 54.3121 106.994 45.608C110.213 38.9547 109.812 30.8778 104.9 25.054C104.212 24.2377 103.568 23.5331 102.966 22.9402C102.66 22.6372 102.683 22.6117 103.032 22.8639C105.37 24.5452 107.244 26.7342 108.653 29.431C112.075 35.9848 109.928 44.2342 105.733 49.9086C98.0048 60.3681 83.6396 64.3867 72.6259 56.416C71.6813 55.7346 70.6028 54.7911 69.3905 53.5854Z" fill="#2F4398"/>
<path d="M172.764 52.6729V71.8033C172.764 71.8464 172.747 71.8878 172.717 71.9183C172.686 71.9488 172.645 71.9659 172.602 71.9659H130.435C130.392 71.9659 130.351 71.9488 130.32 71.9183C130.29 71.8878 130.273 71.8464 130.273 71.8033V7.24439C130.273 7.20126 130.29 7.15991 130.32 7.12941C130.351 7.09892 130.392 7.08179 130.435 7.08179L151.076 7.08843C151.119 7.08843 151.16 7.10556 151.191 7.13605C151.221 7.16654 151.238 7.2079 151.238 7.25102L151.241 52.351C151.241 52.3724 151.246 52.3935 151.254 52.4132C151.262 52.433 151.274 52.4509 151.289 52.466C151.304 52.4811 151.322 52.4931 151.342 52.5012C151.362 52.5094 151.383 52.5136 151.404 52.5136L172.602 52.5103C172.645 52.5103 172.686 52.5274 172.717 52.5579C172.747 52.5884 172.764 52.6298 172.764 52.6729Z" fill="black"/>
<path d="M196.477 7.38037H176.275C176.185 7.38037 176.113 7.45317 176.113 7.54297V24.8317C176.113 24.9215 176.185 24.9943 176.275 24.9943H196.477C196.567 24.9943 196.64 24.9215 196.64 24.8317V7.54297C196.64 7.45317 196.567 7.38037 196.477 7.38037Z" fill="black"/>
<path d="M18.8616 52.6199L18.8683 72.1154C18.8683 72.1418 18.8578 72.1671 18.8391 72.1858C18.8204 72.2044 18.7951 72.2149 18.7687 72.2149L0.189147 72.2182C0.0630493 72.2182 0 72.1552 0 72.0291V7.64939C0 7.54099 0.0530941 7.48678 0.159282 7.48678C9.41975 7.46687 18.6924 7.47241 27.9772 7.50338C32.5798 7.51997 38.5794 9.37494 42.057 12.2354C48.6506 17.6543 49.3973 27.6758 48.3686 35.5303C48.0257 38.1563 47.3244 40.5676 46.2647 42.7644C43.9186 47.6358 39.837 49.8425 34.7666 51.0504C30.7425 52.006 27.4562 52.4684 24.9077 52.4374C22.9521 52.4109 20.9953 52.4131 19.0375 52.4441C18.9202 52.4441 18.8616 52.5027 18.8616 52.6199ZM18.8384 19.7946L18.8052 40.6141C18.8052 40.639 18.8149 40.663 18.8322 40.681C18.8495 40.6989 18.8732 40.7095 18.8981 40.7103L22.4189 40.7169C23.3288 40.7187 24.2301 40.5417 25.0714 40.1961C25.9128 39.8505 26.6776 39.3431 27.3222 38.7028C27.9668 38.0625 28.4786 37.3018 28.8285 36.4643C29.1783 35.6267 29.3592 34.7287 29.3609 33.8214L29.3742 26.6271C29.3777 24.7948 28.6511 23.0361 27.3542 21.738C26.0573 20.4398 24.2963 19.7085 22.4587 19.705L18.9379 19.6984C18.925 19.6979 18.9122 19.7001 18.9001 19.7047C18.888 19.7094 18.877 19.7164 18.8677 19.7254C18.8584 19.7344 18.8511 19.7451 18.846 19.757C18.841 19.7689 18.8384 19.7817 18.8384 19.7946Z" fill="black"/>
<path d="M196.345 29.4741H176.534C176.455 29.4741 176.391 29.538 176.391 29.6168V71.9128C176.391 71.9916 176.455 72.0555 176.534 72.0555H196.345C196.424 72.0555 196.487 71.9916 196.487 71.9128V29.6168C196.487 29.538 196.424 29.4741 196.345 29.4741Z" fill="black"/>
<path d="M203.353 67.1742L203.356 71.5411C203.356 71.5925 203.336 71.6418 203.3 71.6784C203.264 71.715 203.215 71.736 203.164 71.7369L202.012 71.7535C201.986 71.754 201.96 71.7491 201.936 71.7393C201.911 71.7294 201.889 71.7148 201.871 71.6962C201.852 71.6776 201.837 71.6555 201.828 71.6311C201.818 71.6068 201.813 71.5807 201.813 71.5544L201.857 67.1775C201.857 67.1515 201.852 67.1257 201.843 67.1015C201.833 67.0774 201.819 67.0554 201.8 67.0369C201.782 67.0184 201.76 67.0036 201.736 66.9936C201.712 66.9835 201.687 66.9784 201.661 66.9784L199.806 66.9817C199.779 66.9817 199.753 66.9764 199.729 66.9662C199.705 66.9559 199.683 66.9409 199.665 66.922C199.647 66.9031 199.632 66.8808 199.623 66.8562C199.613 66.8317 199.609 66.8055 199.61 66.7793L199.633 65.9497C199.635 65.8989 199.656 65.8508 199.693 65.8155C199.729 65.7802 199.778 65.7605 199.829 65.7605L205.391 65.7373C205.416 65.7373 205.442 65.7424 205.466 65.7522C205.489 65.7621 205.511 65.7765 205.529 65.7947C205.547 65.8128 205.562 65.8344 205.571 65.8582C205.581 65.8819 205.586 65.9074 205.586 65.9331L205.593 66.7892C205.593 66.8412 205.572 66.891 205.536 66.9277C205.499 66.9644 205.449 66.985 205.397 66.985L203.549 66.9784C203.497 66.9784 203.447 66.999 203.41 67.0357C203.374 67.0724 203.353 67.1222 203.353 67.1742Z" fill="black"/>
<path d="M211.327 69.225C211.071 69.5602 210.939 70.194 210.534 70.3798C209.747 70.7349 209.459 69.9816 209.187 69.4507C208.974 69.0458 208.868 69.0724 208.868 69.5303L208.861 71.7071C208.861 71.789 208.82 71.8299 208.739 71.8299L207.491 71.8432C207.387 71.8432 207.335 71.7923 207.335 71.6906V65.9C207.335 65.7938 207.388 65.7407 207.494 65.7407L208.626 65.7474C208.763 65.7474 208.863 65.8093 208.924 65.9332L210.066 68.2229C210.076 68.2409 210.09 68.256 210.107 68.2665C210.125 68.277 210.145 68.2826 210.166 68.2826C210.186 68.2826 210.206 68.277 210.224 68.2665C210.241 68.256 210.255 68.2409 210.265 68.2229L211.436 65.8934C211.485 65.7982 211.563 65.7496 211.669 65.7474L212.794 65.7407C212.94 65.7407 213.013 65.8137 213.013 65.9597L213.016 71.6275C213.016 71.6554 213.01 71.683 213 71.7088C212.989 71.7345 212.973 71.758 212.953 71.7777C212.933 71.7974 212.909 71.813 212.883 71.8237C212.857 71.8344 212.829 71.8399 212.8 71.8399L211.742 71.8432C211.598 71.8432 211.526 71.7713 211.526 71.6275L211.533 69.2947C211.533 69.0668 211.464 69.0436 211.327 69.225Z" fill="black"/>
</svg>
