<svg width="323" height="60" viewBox="0 0 323 60" fill="none" xmlns="http://www.w3.org/2000/svg">
<path d="M210.175 30.3782H201.924" stroke="#1475B6" stroke-width="2"/>
<path d="M189.073 29.8904C189.073 30.2423 188.911 30.4183 188.586 30.4183C183.745 30.4082 178.885 30.3965 174.005 30.3831" stroke="#1475B6" stroke-width="2"/>
<path d="M70.5627 17.5924C70.3947 17.5924 70.2336 17.6591 70.1148 17.7779C69.9959 17.8967 69.9292 18.0579 69.9292 18.2259L69.9191 46.467C69.9191 46.6145 69.8454 46.6883 69.6979 46.6883L64.288 46.6531C64.1822 46.6518 64.0812 46.6088 64.0068 46.5335C63.9325 46.4582 63.8908 46.3567 63.8908 46.2509V18.2108C63.8908 17.7147 63.6428 17.4701 63.1467 17.4768L60.0998 17.517C59.8686 17.5203 59.7529 17.4064 59.7529 17.1751L59.758 12.7607C59.758 12.678 59.7908 12.5987 59.8493 12.5403C59.9077 12.4818 59.987 12.449 60.0697 12.449L63.7299 12.4339C63.7735 12.4339 63.7953 12.4121 63.7953 12.3685C64.0316 7.81332 65.007 4.04247 68.9739 1.65427C71.5649 0.0922987 74.6486 -0.363556 78.2251 0.286706C78.3793 0.313521 78.4564 0.405699 78.4564 0.563237L78.4513 5.30445C78.4514 5.34141 78.4439 5.37799 78.4293 5.41195C78.4147 5.44592 78.3934 5.47655 78.3665 5.50197C78.3397 5.52739 78.308 5.54706 78.2733 5.55978C78.2386 5.5725 78.2016 5.57801 78.1647 5.57595C73.6196 5.33462 70.0499 7.00887 69.9744 12.087C69.9731 12.1466 69.9837 12.2058 70.0056 12.2613C70.0275 12.3167 70.0602 12.3673 70.1019 12.4099C70.1436 12.4525 70.1934 12.4864 70.2483 12.5095C70.3033 12.5326 70.3623 12.5445 70.4219 12.5445L77.0586 12.5545C77.5346 12.5545 77.7742 12.7925 77.7776 13.2685L77.7927 17.1047C77.7927 17.2327 77.7424 17.3555 77.6528 17.446C77.5632 17.5365 77.4417 17.5874 77.315 17.5874L70.5627 17.5924Z" fill="#284F9B"/>
<path d="M117.176 17.728L114.275 17.718C113.661 17.718 113.354 17.4113 113.354 16.7979V13.6806C113.354 13.0538 113.668 12.7421 114.295 12.7455L117.347 12.7555C117.411 12.7555 117.474 12.7429 117.533 12.7184C117.592 12.6939 117.646 12.658 117.691 12.6127C117.737 12.5674 117.773 12.5136 117.797 12.4545C117.822 12.3953 117.834 12.3319 117.834 12.2678V0.739093C117.834 0.610138 117.885 0.486311 117.975 0.394191C118.065 0.302071 118.188 0.248999 118.317 0.246367L123.827 0.10056C123.859 0.0992023 123.89 0.104181 123.919 0.115194C123.948 0.126208 123.975 0.143026 123.997 0.164639C124.02 0.186252 124.038 0.212211 124.05 0.240947C124.062 0.269683 124.069 0.300602 124.069 0.331839L124.059 12.1069C124.059 12.2523 124.116 12.3917 124.219 12.4945C124.322 12.5972 124.461 12.655 124.607 12.655L131.51 12.6701C131.761 12.6701 131.887 12.7941 131.887 13.0421L131.872 17.3157C131.872 17.4064 131.836 17.4934 131.772 17.5575C131.708 17.6216 131.621 17.6576 131.53 17.6576L124.235 17.6828C124.193 17.6841 124.153 17.7011 124.124 17.7302C124.095 17.7593 124.079 17.7982 124.079 17.8386C124.079 22.8731 124.07 27.9144 124.054 32.9623C124.047 35.1812 124.28 36.7951 124.753 37.804C125.966 40.3749 128.394 41.5397 132.038 41.2983C132.262 41.2849 132.375 41.3889 132.375 41.6101L132.35 46.4921C132.349 46.5588 132.325 46.6231 132.281 46.673C132.238 46.7229 132.178 46.7551 132.113 46.7636C128.373 47.2412 124.32 46.5323 121.389 44.1843C118.976 42.2536 117.755 39.6693 117.729 36.4314C117.685 30.4383 117.677 24.3815 117.704 18.261C117.704 18.1196 117.648 17.9841 117.549 17.8841C117.45 17.7842 117.316 17.728 117.176 17.728Z" fill="#284F9B"/>
<path d="M210.175 30.3781H201.924C201.361 17.9544 193.312 9.99034 181.074 8.65295C181.04 8.65041 181.008 8.63446 180.984 8.60833C180.961 8.5822 180.948 8.54783 180.948 8.51217L180.958 0.849806C180.958 0.69562 181.035 0.615174 181.19 0.60847C182.369 0.558192 183.409 0.60344 184.307 0.744219C199.124 3.10226 210.366 15.1589 210.175 30.3781Z" fill="#284F9B"/>
<path d="M48.4805 40.8408C47.6559 41.8765 46.8666 43.0882 45.9214 43.8926C42.784 46.554 39.1037 47.3685 34.8803 46.3362C27.0772 44.4206 24.1409 34.913 30.4609 29.5282C34.5636 26.0339 42.4622 25.4155 47.6861 25.6015C47.7455 25.6035 47.8048 25.5938 47.8605 25.5729C47.9161 25.552 47.9671 25.5203 48.0106 25.4797C48.054 25.4391 48.089 25.3903 48.1135 25.3362C48.1381 25.282 48.1517 25.2235 48.1537 25.1641C48.5408 15.199 37.359 17.2604 32.2709 20.7296C32.2264 20.7602 32.1761 20.7812 32.123 20.7912C32.07 20.8012 32.0155 20.8 31.9629 20.7877C31.9103 20.7754 31.8609 20.7523 31.8179 20.7197C31.7748 20.6872 31.739 20.646 31.7128 20.5988L29.6313 16.8582C29.5464 16.7054 29.5241 16.5256 29.5691 16.3561C29.6141 16.1866 29.7228 16.0405 29.8726 15.9481C34.9809 12.8259 40.9187 11.5689 46.6856 13.2935C52.6636 15.0783 54.3982 20.1262 54.4033 25.868C54.41 32.7427 54.4083 39.619 54.3982 46.4971C54.3982 46.6948 54.301 46.792 54.1066 46.7887L48.8174 46.7484C48.7846 46.7478 48.7522 46.7406 48.7223 46.7273C48.6923 46.714 48.6653 46.6949 48.6428 46.671C48.6203 46.6471 48.6028 46.619 48.5914 46.5882C48.5799 46.5575 48.5747 46.5248 48.576 46.492L48.752 40.9413C48.7621 40.633 48.6716 40.5994 48.4805 40.8408ZM36.3937 41.1575C43.3069 44.2295 48.5609 36.899 48.2894 30.6947C48.2827 30.5237 48.1939 30.4349 48.023 30.4282C44.2169 30.2422 36.3082 30.212 34.0457 34.1538C32.6278 36.6325 33.7189 39.971 36.3937 41.1575Z" fill="#284F9B"/>
<path d="M149.404 38.2214C149.535 38.5801 149.649 38.5767 149.746 38.2113C150.098 36.9108 150.518 35.5868 151.008 34.2394C153.562 27.1636 156.126 20.0979 158.7 13.0422C158.754 12.8992 158.849 12.776 158.975 12.6888C159.101 12.6017 159.251 12.5548 159.404 12.5545L165.292 12.5444C165.536 12.5444 165.615 12.6584 165.528 12.8863C160.825 24.8424 156.118 36.7281 151.405 48.5435C149.54 53.2193 148.499 56.4522 144.321 58.4784C140.751 60.208 137.16 60.0002 133.546 57.855C133.459 57.8024 133.393 57.7201 133.362 57.623C133.33 57.526 133.335 57.4208 133.375 57.327L135.039 53.4808C135.076 53.3971 135.13 53.322 135.198 53.2604C135.265 53.1988 135.345 53.152 135.431 53.1231C135.518 53.0942 135.61 53.0838 135.701 53.0926C135.792 53.1014 135.88 53.1291 135.96 53.1741C142.204 56.7237 144.808 50.4088 146.598 45.8385C146.643 45.7193 146.643 45.5932 146.598 45.4866L132.812 12.9919C132.791 12.9436 132.783 12.891 132.787 12.8386C132.792 12.7862 132.809 12.7358 132.838 12.6919C132.867 12.648 132.907 12.612 132.953 12.5871C132.999 12.5623 133.051 12.5493 133.104 12.5495H139.429C139.541 12.5493 139.651 12.5834 139.743 12.6472C139.836 12.7109 139.907 12.8014 139.947 12.9064C142.558 19.7409 145.186 26.6072 147.83 33.5053C148.373 34.9181 148.841 36.6829 149.404 38.2214Z" fill="#284F9B"/>
<path d="M276.029 40.9565C276.036 40.9268 276.031 40.8957 276.017 40.8687C276.004 40.8417 275.981 40.8204 275.953 40.8085C275.925 40.7966 275.893 40.7948 275.864 40.8035C275.835 40.8121 275.81 40.8307 275.793 40.8559C272.198 45.7782 265.878 48.4982 260.166 45.7832C256.235 43.9179 254.445 40.4638 255.47 36.1751C257.723 26.753 270.373 25.5463 278.05 25.6167C278.202 25.6185 278.349 25.5626 278.462 25.4601C278.574 25.3576 278.645 25.216 278.659 25.0636C278.799 23.4799 278.975 21.5542 278.196 20.2118C275.511 15.5913 267.11 18.6431 263.746 20.6995C263.692 20.7328 263.631 20.7532 263.568 20.7593C263.504 20.7655 263.44 20.7571 263.381 20.7349C263.321 20.7126 263.266 20.6771 263.222 20.6309C263.177 20.5848 263.143 20.5292 263.123 20.4682L261.72 16.3102C261.69 16.2228 261.692 16.1273 261.726 16.0401C261.76 15.9529 261.824 15.8795 261.906 15.8326C266.931 12.9634 272.235 11.9913 277.819 12.9165C281.714 13.56 284.109 15.9449 285.004 20.071C285.391 21.8609 285.079 24.4603 284.662 26.5971C283.378 33.1835 282.099 39.7482 280.826 46.291C280.799 46.4312 280.724 46.5577 280.614 46.6485C280.503 46.7394 280.365 46.789 280.222 46.7888L275.411 46.8038C275.082 46.8072 274.948 46.648 275.008 46.3262L276.029 40.9565ZM277.165 30.2423C272.585 30.3026 262.188 30.202 261.549 36.8538C261.066 41.8213 267.562 42.5151 270.524 40.6749C274.278 38.3387 276.622 35.0203 277.558 30.7199C277.571 30.6618 277.57 30.6014 277.556 30.5435C277.543 30.4855 277.516 30.4315 277.478 30.3855C277.44 30.3394 277.392 30.3026 277.338 30.2778C277.284 30.253 277.225 30.2408 277.165 30.2423Z" fill="#009BD0"/>
<path d="M300.862 38.4728C300.976 38.9119 301.143 38.932 301.364 38.5332L315.271 13.2433C315.386 13.0332 315.554 12.8575 315.759 12.7346C315.964 12.6117 316.199 12.546 316.438 12.5445L322.325 12.5193C322.359 12.5193 322.392 12.528 322.421 12.5448C322.45 12.5615 322.474 12.5856 322.491 12.6147C322.508 12.6437 322.517 12.6767 322.517 12.7103C322.517 12.7439 322.508 12.7768 322.491 12.8059C314.889 25.6637 307.301 38.4846 299.725 51.2686C295.748 57.9757 289.599 62.2996 281.806 57.7545C281.754 57.7238 281.708 57.6829 281.672 57.6341C281.635 57.5854 281.609 57.53 281.595 57.4711C281.581 57.4123 281.579 57.3514 281.59 57.292C281.6 57.2327 281.622 57.1762 281.655 57.126L284.159 53.3149C284.203 53.2494 284.27 53.2031 284.348 53.1854C284.425 53.1677 284.507 53.1798 284.577 53.2194C288.312 55.3864 291.631 53.8026 294.004 50.3686C295.019 48.9005 296.006 47.4123 296.965 45.9039C297.059 45.7564 297.089 45.6123 297.056 45.4715L289.519 13.0221C289.505 12.9608 289.504 12.897 289.518 12.8355C289.532 12.774 289.559 12.7164 289.598 12.6671C289.638 12.6177 289.687 12.5779 289.744 12.5506C289.801 12.5232 289.863 12.5091 289.926 12.5093L295.432 12.5394C295.753 12.5428 295.944 12.702 296.005 13.0171C297.667 21.4403 299.246 29.4111 300.741 36.9293C300.837 37.417 300.761 38.0907 300.862 38.4728Z" fill="#009BD0"/>
<path d="M85.9581 30.705C85.7603 31.9687 85.9363 33.2189 86.486 34.4557C90.2116 42.8522 99.8549 43.1237 106.321 37.8244C106.362 37.7902 106.41 37.7654 106.462 37.7518C106.514 37.7383 106.568 37.7362 106.621 37.7458C106.673 37.7553 106.723 37.7764 106.767 37.8073C106.811 37.8383 106.847 37.8784 106.874 37.9249L109.176 41.9723C109.205 42.0244 109.215 42.0849 109.204 42.1429C109.193 42.201 109.162 42.2528 109.116 42.2891C105.067 45.4867 100.426 46.9599 95.1941 46.7085C81.3174 46.0448 75.098 30.5039 82.0666 19.5584C85.1737 14.6781 89.9703 12.3435 96.4561 12.5546C105.934 12.8613 110.72 21.4991 109.513 30.1419C109.501 30.2294 109.458 30.3096 109.391 30.3678C109.325 30.426 109.24 30.4583 109.151 30.4586L86.2396 30.4637C86.1717 30.464 86.1061 30.4885 86.0546 30.5327C86.003 30.5769 85.9688 30.6379 85.9581 30.705ZM86.3553 26.0141L103.394 25.7727C103.416 25.7727 103.436 25.7643 103.451 25.7492C103.466 25.7341 103.475 25.7136 103.475 25.6923V25.637C103.46 24.5625 103.23 23.5015 102.797 22.5147C102.364 21.5278 101.736 20.6344 100.951 19.8855C100.166 19.1366 99.2376 18.5469 98.2196 18.15C97.2016 17.7531 96.1137 17.5568 95.0182 17.5724L94.4953 17.5824C92.2834 17.6135 90.1742 18.5049 88.6316 20.0607C87.0891 21.6165 86.2395 23.7091 86.2698 25.8783V25.9336C86.2698 25.9446 86.272 25.9555 86.2764 25.9656C86.2807 25.9757 86.2871 25.9848 86.2951 25.9924C86.3031 25.9999 86.3126 26.0057 86.3229 26.0094C86.3333 26.0132 86.3443 26.0148 86.3553 26.0141Z" fill="#284F9B"/>
<path d="M230.955 17.7784C234.471 13.3405 239.036 11.7249 244.65 12.9316C256.149 15.4052 254.978 30.0412 250.709 37.5728C247.883 42.5554 242.207 46.6731 236.415 46.8089C232.755 46.8994 228.401 45.3005 226.56 41.6705C226.396 41.342 226.279 41.3588 226.208 41.7208L222.865 59.3532C222.857 59.3969 222.833 59.4364 222.798 59.4648C222.763 59.4933 222.719 59.5089 222.674 59.5091L217.259 59.5946C216.894 59.5979 216.744 59.4203 216.811 59.0616L225.525 13.012C225.582 12.707 225.766 12.5545 226.078 12.5545L231.005 12.5444C231.062 12.5445 231.118 12.5573 231.169 12.582C231.22 12.6067 231.265 12.6427 231.3 12.6871C231.335 12.7316 231.36 12.7835 231.373 12.8388C231.385 12.8942 231.385 12.9517 231.372 13.007L230.382 17.5069C230.18 18.4186 230.371 18.5091 230.955 17.7784ZM232.307 40.5842C234.44 41.6431 237.059 41.5029 239.589 40.1943C242.119 38.8857 244.351 36.516 245.795 33.6065C247.24 30.6969 247.777 27.4859 247.29 24.6798C246.803 21.8737 245.331 19.7023 243.198 18.6434C241.065 17.5845 238.445 17.7247 235.916 19.0333C233.386 20.3419 231.153 22.7116 229.709 25.6211C228.265 28.5307 227.727 31.7417 228.214 34.5478C228.701 37.3539 230.173 39.5253 232.307 40.5842Z" fill="#009BD0"/>
<path d="M7.37856 22.8163C8.12267 24.8375 9.96285 25.5062 12.3661 26.552C16.494 28.3419 21.5167 29.7446 23.4223 34.3853C24.1898 36.2623 24.2468 38.1226 23.5932 39.9661C22.2508 43.7621 18.8319 46.0598 14.9303 46.6179C9.63437 47.3821 4.78086 46.0866 0.369806 42.7314C0.179823 42.588 0.0520398 42.3773 0.0127578 42.1425C-0.0265242 41.9078 0.0256847 41.6669 0.158638 41.4695L2.59712 37.8746C2.6212 37.8395 2.6523 37.8099 2.68838 37.7876C2.72447 37.7652 2.76472 37.7508 2.80649 37.7451C2.84827 37.7394 2.89063 37.7426 2.9308 37.7545C2.97097 37.7664 3.00803 37.7868 3.03957 37.8142C6.29758 40.5896 13.4723 43.4303 16.8761 39.4583C18.9827 36.9997 16.5744 34.5361 14.0957 33.43C10.164 31.6803 4.35182 30.0111 1.9787 26.1145C-0.193307 22.5398 0.711696 17.8187 4.01496 15.2545C8.98746 11.3982 17.8112 11.8808 22.653 15.6618C22.8121 15.7851 22.9226 15.9607 22.9649 16.1576C23.0072 16.3544 22.9786 16.5598 22.8843 16.7377L20.843 20.5739C20.821 20.6162 20.7899 20.653 20.7519 20.6819C20.7139 20.7108 20.6699 20.7309 20.623 20.741C20.576 20.7511 20.5273 20.7508 20.4802 20.7401C20.4331 20.7295 20.3888 20.7088 20.3503 20.6795C17.5146 18.5075 12.7231 16.9941 9.31929 18.784C7.81095 19.5784 6.76517 21.1571 7.37856 22.8163Z" fill="#284F9B"/>
<path d="M189.073 29.8903C189.073 30.2422 188.911 30.4182 188.586 30.4182C183.745 30.4081 178.885 30.3964 174.005 30.383L174.01 18.3062C174.01 18.2863 174.015 18.2666 174.026 18.2494C174.036 18.2323 174.051 18.2184 174.068 18.2094C174.086 18.2005 174.105 18.1968 174.124 18.1988C174.143 18.2008 174.161 18.2084 174.176 18.2208L189.073 29.8903Z" fill="#284F9B"/>
<path d="M189.073 29.8904C189.264 29.9876 189.398 30.0932 189.476 30.2071C189.573 30.3546 189.551 30.482 189.41 30.5892L174.352 42.304C174.318 42.3307 174.278 42.3473 174.235 42.3519C174.193 42.3565 174.15 42.3488 174.111 42.3298C174.073 42.3109 174.04 42.2814 174.018 42.2447C173.996 42.2081 173.984 42.1659 173.985 42.123L174.005 30.3831C178.885 30.3965 183.746 30.4082 188.586 30.4183C188.911 30.4183 189.073 30.2423 189.073 29.8904Z" fill="#009BD0"/>
<path d="M210.175 30.3779C210.115 45.2099 199.617 56.8543 185.323 59.69C183.868 59.9783 182.482 60.0654 181.165 59.9514C181.004 59.938 180.923 59.8492 180.923 59.685L180.918 52.3846C180.918 52.2363 180.975 52.0937 181.077 51.9861C181.179 51.8785 181.318 51.8141 181.466 51.8064C190.833 51.2433 198.284 45.0993 201.1 36.2253C201.683 34.3951 201.769 32.3438 201.925 30.3779H210.175Z" fill="#009BD0"/>
</svg>
