<svg width="339" height="93" viewBox="0 0 339 93" fill="none" xmlns="http://www.w3.org/2000/svg">
<g clip-path="url(#clip0_139_199)">
<path d="M78.8591 32.0707H56.5338C56.5338 28.419 56.1042 25.9687 55.245 24.7198C53.9171 22.8744 50.252 21.9512 44.2498 21.9502C38.4219 21.9502 34.5633 22.4818 32.674 23.5451C30.789 24.6134 29.846 26.935 29.8451 30.5097C29.8451 33.745 30.6816 35.8744 32.3547 36.898C33.5552 37.6225 35.1418 38.0484 37.1146 38.1756L41.6161 38.4921C51.2664 39.1288 57.2924 39.5768 59.6941 39.8362C67.3254 40.603 72.8572 42.6255 76.2895 45.9036C78.9895 48.4616 80.5976 51.804 81.1139 55.931C81.432 58.7095 81.5822 61.5045 81.5639 64.301C81.5639 71.4588 80.879 76.6979 79.5091 80.0183C77.0249 86.1128 71.4392 89.9666 62.7522 91.5796C59.1114 92.261 53.5451 92.6024 46.0531 92.6039C33.55 92.6039 24.8388 91.8596 19.9194 90.3709C13.8828 88.5443 9.90143 84.8452 7.97523 79.2736C6.90119 76.1703 6.36649 71.0021 6.37112 63.7692H28.6943V65.6196C28.6943 69.4795 29.8059 71.9618 32.0292 73.0664C33.777 73.8745 35.6823 74.2878 37.6089 74.2769H45.8173C50.0049 74.2769 52.6759 74.0625 53.8305 73.6337C55.8834 72.8306 57.2311 71.5339 57.8736 69.7435C58.2519 68.3492 58.4246 66.9075 58.3862 65.4637C58.3862 61.5514 56.9553 59.1689 54.0934 58.3161C53.0194 57.9793 48.0417 57.5115 39.1603 56.9126C32.025 56.4047 27.0698 55.9143 24.2946 55.4414C16.986 54.0786 12.1162 51.2712 9.68516 47.0192C7.54659 43.4035 6.47853 37.9348 6.48097 30.613C6.48097 25.0415 7.05827 20.5744 8.21286 17.2116C9.36746 13.8488 11.2282 11.2952 13.7952 9.55079C17.5614 6.86919 22.375 5.29476 28.2358 4.8275C33.1161 4.40357 38.5296 4.18977 44.4761 4.18612C53.8444 4.18612 60.5206 4.72054 64.5046 5.78939C74.2198 8.39142 79.0774 15.6801 79.0774 27.6555C79.0774 28.6374 79.0049 30.1098 78.8599 32.0725M177.025 92.605V3.71704H221.732C227.864 3.71704 232.54 4.21593 235.759 5.21372C243.111 7.50935 248.049 12.2112 250.571 19.3193C251.875 23.0506 252.528 28.6666 252.529 36.1675C252.529 45.1841 251.81 51.6641 250.372 55.6075C247.504 63.4075 241.61 67.8939 232.689 69.0667C231.641 69.2426 227.181 69.395 219.308 69.5237L215.326 69.6558H201.021V92.605H177.025ZM201.023 49.0371H215.983C220.726 48.8668 223.614 48.4994 224.648 47.9351C226.066 47.1579 227.019 45.5988 227.492 43.2658C227.796 41.7134 227.948 39.4025 227.947 36.3333C227.947 32.5733 227.645 29.7845 227.04 27.9668C226.178 25.4157 224.11 23.8599 220.838 23.2994C220.189 23.2147 218.637 23.1713 216.183 23.1691H201.024L201.023 49.0371ZM303.75 77.2433H271.667L267.355 92.605H242.53L269.32 3.71704H305.517L332.633 92.605H308.328L303.75 77.2433ZM298.985 59.9278L287.741 21.3964L276.829 59.9278H298.985Z" fill="#10298E"/>
<path d="M143.906 16.2229C148.609 16.2207 153.253 17.267 157.499 19.2852C161.744 21.3035 165.483 24.2426 168.442 27.8875L173.614 16.8307C165.168 8.88396 153.985 4.47182 142.371 4.50433C123.463 4.50433 107.289 15.8911 100.653 32.0081H90.5658L84.6089 44.7372H97.5838C97.4808 45.9236 97.427 47.1126 97.4223 48.3044C97.4227 49.7489 97.496 51.1926 97.642 52.6298H91.1227L85.1676 65.3625H100.96C107.786 81.0714 123.758 92.0993 142.369 92.0993C151.368 92.1209 160.17 89.4795 167.661 84.5097V68.9059C164.451 72.5651 160.433 75.4328 155.924 77.2843C151.415 79.1358 146.537 79.9207 141.673 79.5774C136.808 79.2341 132.09 77.772 127.887 75.3057C123.685 72.8394 120.113 69.436 117.451 65.3625H150.518L156.472 52.6298H112.586C112.198 50.0161 112.136 47.3647 112.4 44.7357H160.165L166.119 32.0081H116.526C119.298 27.212 123.288 23.2281 128.094 20.4569C132.901 17.6857 138.354 16.2249 143.906 16.2215" fill="#FFBE00"/>
<path d="M143.906 16.6041C148.553 16.5998 153.142 17.6327 157.336 19.6271C161.531 21.6215 165.224 24.5267 168.145 28.1296L168.531 28.6042L168.792 28.0504L173.964 16.9933L174.079 16.741L173.88 16.5516C166.278 9.44992 156.487 5.12433 146.103 4.27955C135.719 3.43478 125.355 6.12061 116.698 11.8995C109.368 16.7873 103.66 23.7364 100.299 31.8644L100.653 31.6275H90.3195L90.2177 31.8465L84.2627 44.5781L84.0063 45.1216H97.5847L97.2028 44.707C97.0998 45.9041 97.046 47.1038 97.0413 48.3063C97.0413 49.7351 97.1146 51.2062 97.261 52.6707L97.6429 52.2509H90.8816L90.7798 52.47L84.821 65.2016L84.568 65.7451H100.961L100.61 65.5148C107.728 81.8957 124.121 92.4816 142.371 92.4816C151.444 92.5055 160.319 89.8428 167.873 84.831L168.041 84.7193V67.8934L167.372 68.6552C164.199 72.2696 160.23 75.1022 155.776 76.9309C151.321 78.7597 146.503 79.5348 141.697 79.1957C136.892 78.8565 132.231 77.4122 128.079 74.976C123.928 72.5398 120.399 69.178 117.769 65.1541L117.449 65.7466H150.763L150.864 65.5275L156.82 52.793L157.076 52.2513H112.585L112.965 52.5798C112.581 49.9966 112.519 47.3759 112.78 44.7774L112.398 45.1209H160.41L160.512 44.9019L166.465 32.171L166.722 31.6275H116.526L116.856 32.2013C119.605 27.4726 123.55 23.5444 128.296 20.808C133.041 18.0715 138.424 16.6221 143.906 16.6041ZM116.526 32.3908H166.117L165.769 31.8472L159.817 44.5781L160.164 44.3591H112.051L112.015 44.7044C111.753 47.3641 111.817 50.0457 112.205 52.6901L112.256 53.0186H156.472L156.126 52.4736L150.172 65.2045L150.517 64.9855H116.738L117.129 65.5746C119.824 69.6966 123.44 73.1403 127.694 75.6359C131.947 78.1315 136.722 79.6111 141.645 79.9587C146.568 80.3064 151.505 79.5127 156.069 77.6398C160.633 75.767 164.7 72.8658 167.951 69.1637L167.278 68.9115V84.5153L167.448 84.2002C160.021 89.1265 151.294 91.7443 142.373 91.7219C124.427 91.7219 108.313 81.3153 101.316 65.2136L101.214 64.9851H85.1692L85.5189 65.5327L91.47 52.7923L91.1218 53.0157H98.068L98.0241 52.5926C97.8798 51.1536 97.8044 49.7088 97.8044 48.3059C97.8044 47.2276 97.8586 46.0697 97.9659 44.7712L97.9999 44.358H84.6105L84.955 44.9015L90.9105 32.1707L90.5659 32.3897H100.907L101.004 32.1528C104.31 24.1649 109.921 17.3358 117.125 12.5313C125.638 6.85122 135.829 4.21167 146.039 5.04256C156.248 5.87344 165.875 10.1258 173.351 17.1072L173.266 16.6669L168.097 27.7266L168.742 27.6452C165.474 23.6258 161.274 20.4598 156.505 18.4207C151.735 16.3816 146.539 15.5308 141.366 15.9416C136.193 16.3524 131.197 18.0126 126.812 20.7788C122.426 23.5449 118.782 27.3339 116.193 31.8184L115.86 32.3922L116.526 32.3908Z" fill="#10298E"/>
</g>
<defs>
<clipPath id="clip0_139_199">
<rect width="339" height="92.6049" fill="white"/>
</clipPath>
</defs>
</svg>
