<svg width="247" height="97" viewBox="0 0 247 97" fill="none" xmlns="http://www.w3.org/2000/svg">
<path d="M134.714 0.0871582C108.211 0.0866442 86.7261 21.763 86.726 48.5023C86.7261 75.2417 108.211 96.918 134.714 96.9175C147.773 96.917 159.606 91.6479 168.258 83.1099C169.162 82.2212 168.961 80.5761 168.258 79.8647L158.399 69.8894C157.445 68.924 155.893 69.1437 155.393 69.6396C150.381 74.6128 143.604 77.6642 136.145 77.6638C120.708 77.6633 108.195 64.5902 108.196 48.4648C108.196 32.4034 120.615 19.358 135.99 19.2684C136.042 19.2682 136.093 19.2682 136.145 19.2684C143.399 19.268 150.008 22.1543 154.976 26.8879C155.551 27.4354 156.986 27.3598 157.83 26.5056L167.574 16.6378C168.037 16.1688 168.913 14.6021 167.921 13.57C159.299 5.22507 147.605 0.0875792 134.714 0.0871582ZM36.3383 2.45796C35.6315 2.51968 34.113 2.94447 33.2651 5.34838C32.1346 8.55359 1.29943 91.0742 1.29943 91.0742C1.29943 91.0742 -0.270812 94.3343 2.1158 94.3343H19.9511C19.9511 94.3343 21.8865 94.2318 22.9669 90.8843L28.6265 73.3494H61.451L67.243 91.5138C67.243 91.5138 67.9355 94.3343 70.5734 94.3343H89.3523C89.3523 94.3343 91.3624 94.2146 90.1063 91.3864C88.8502 88.5583 58.4502 4.97115 58.4502 4.97115C58.4502 4.97115 57.9496 2.45796 54.5581 2.45796H36.7203C36.7203 2.45796 36.5739 2.43732 36.3383 2.45796ZM177.463 2.45796C177.463 2.45796 175.246 2.38744 175.246 4.7538V92.061C175.246 92.061 175.248 94.3343 177.415 94.3343H214.017C214.017 94.3343 230.471 94.3769 239.142 85.7005C247.813 77.0241 245.448 64.1086 245.448 64.1086C245.448 64.1086 243.38 49.3186 227.024 45.5719C227.024 45.5719 241.706 41.4316 240.77 24.1773C239.388 9.07209 225.762 2.45796 211.605 2.45796H177.463ZM195.445 18.5089H208.894C208.894 18.5089 220.225 18.5084 220.373 29.0088C220.521 39.5094 208.5 39.264 208.5 39.264H195.445V18.5089ZM45.1361 22.1913L56.2807 57.1361H33.8593L45.1361 22.1913ZM195.445 54.3981H210.669C210.669 54.3981 224.511 54.4949 224.61 66.4744C224.708 78.4538 211.308 78.4558 211.308 78.4558H195.445V54.3981Z" fill="#1F419B"/>
<path d="M153.381 48.4465C153.381 50.614 152.954 52.7604 152.125 54.7629C151.296 56.7655 150.081 58.585 148.55 60.1177C147.018 61.6504 145.2 62.8662 143.198 63.6957C141.197 64.5252 139.052 64.9521 136.886 64.9521C134.72 64.9521 132.575 64.5252 130.574 63.6957C128.573 62.8662 126.754 61.6504 125.223 60.1177C123.691 58.585 122.476 56.7655 121.647 54.7629C120.818 52.7604 120.392 50.614 120.392 48.4465C120.392 46.279 120.818 44.1326 121.647 42.1301C122.476 40.1275 123.691 38.308 125.223 36.7753C126.754 35.2426 128.573 34.0268 130.574 33.1973C132.575 32.3678 134.72 31.9409 136.886 31.9409C139.052 31.9409 141.197 32.3678 143.198 33.1973C145.2 34.0268 147.018 35.2426 148.55 36.7753C150.081 38.308 151.296 40.1275 152.125 42.1301C152.954 44.1326 153.381 46.279 153.381 48.4465Z" fill="#00AEEF"/>
</svg>