<svg width="320" height="116" viewBox="0 0 320 116" fill="none" xmlns="http://www.w3.org/2000/svg">
<path d="M195.517 73.1255C192.598 77.0371 189.688 80.9816 186.787 84.9591C185.947 86.1091 183.779 89.0922 182.013 88.7613C180.707 88.5132 179.451 87.1177 179.931 85.7035C180.288 84.6522 180.933 83.5467 181.867 82.3869C184.34 79.3184 186.85 76.234 189.397 73.1335" stroke="#722D62" stroke-width="2"/>
<path d="M195.517 73.1255C192.598 77.0371 189.688 80.9816 186.787 84.9591C185.947 86.1091 183.779 89.0921 182.013 88.7613C180.707 88.5131 179.451 87.1177 179.931 85.7035C180.288 84.6522 180.933 83.5467 181.867 82.3869C184.339 79.3184 186.85 76.2339 189.397 73.1335L212.997 44.0551C213.036 44.0066 213.057 43.946 213.057 43.8837C213.056 43.8214 213.034 43.7612 212.994 43.7134C212.954 43.6656 212.899 43.6331 212.838 43.6215C212.777 43.6098 212.713 43.6198 212.659 43.6495C211.517 44.2668 210.491 44.9241 209.581 45.6214C205.227 48.9513 200.881 52.2928 196.541 55.6459C194.705 57.0636 192.792 58.3693 190.803 59.5629C188.811 60.7555 183.8 62.8208 182.595 59.4188C182.187 58.2634 182.504 57.5377 182.869 56.4464C182.901 56.3467 182.874 56.3254 182.787 56.3823C179.979 58.2101 177.035 60.0618 173.872 61.1958C173.209 61.4342 172.531 61.5774 171.837 61.6254C168.52 61.8602 167.019 59.1946 167.792 56.1955C167.801 56.1595 167.799 56.1216 167.787 56.0865C167.774 56.0513 167.752 56.0206 167.723 55.9982C167.694 55.9757 167.659 55.9624 167.622 55.96C167.585 55.9577 167.549 55.9663 167.517 55.9848C163.665 58.1656 159.907 60.4354 156.243 62.7941C155.912 63.0058 155.647 63.2833 155.448 63.6266C147.288 77.5761 136.709 89.7085 123.616 99.1487C121.003 101.034 118.165 102.675 115.104 104.072C113.28 104.904 111.005 105.643 109.013 105.555C104.739 105.363 104.837 101.713 106.139 98.7244C106.903 96.9705 108.227 95.0725 110.112 93.0304C113.045 89.8535 116.216 86.9327 119.624 84.268C129.347 76.6662 138.875 70.7587 150.461 63.6959C150.52 63.6604 150.614 63.5385 150.744 63.3304C152.042 61.2545 153.16 59.0852 154.099 56.8226C154.235 56.4935 154.314 56.1724 154.333 55.8594C154.335 55.8295 154.328 55.7997 154.313 55.7735C154.299 55.7473 154.277 55.7258 154.251 55.7115C154.225 55.6972 154.196 55.6907 154.166 55.6928C154.137 55.6949 154.109 55.7054 154.085 55.7233C150.957 58.0766 147.789 60.4247 144.224 62.0656C143.419 62.4356 142.586 62.6482 141.725 62.7034C137.147 63.0022 137.539 58.138 139.085 55.5098C139.581 54.6702 140.111 53.8786 140.675 53.1351C140.886 52.8558 140.841 52.8033 140.539 52.9777C136.635 55.2056 132.776 57.495 128.856 59.6963C127.27 60.5857 125.807 61.3141 124.467 61.8815C120.851 63.4104 119.52 61.5854 121.085 58.3141C122.296 55.7793 124.517 53.2018 126.035 50.5416C126.2 50.2552 126.265 50.0586 126.229 49.9519C126.107 49.5819 125.864 49.4681 125.501 49.6104C122.387 50.8377 119.416 53.039 116.795 55.0936C114.245 57.093 111.723 59.1262 109.229 61.1931C108.527 61.7748 107.845 62.2293 107.184 62.5566C106.365 62.9595 105.421 62.023 105.219 61.3319C104.677 59.4828 107.664 55.9154 108.803 54.5733C110.683 52.3586 112.53 50.1155 114.341 47.844C114.896 47.1503 115.736 46.1257 115.829 45.2238C115.949 44.0578 113.739 45.0237 113.173 45.3252C111.166 46.3943 109.206 47.5452 107.293 48.7779C100.435 53.1911 95.1279 57.0227 89.0212 61.1078C87.8132 61.9162 86.1172 63.1409 84.7732 62.6954C83.7999 62.3752 83.0879 61.3506 82.9812 60.3607C82.8346 59.0239 84.1066 57.1508 84.9306 56.1609C87.7146 52.8096 90.9439 49.8585 94.0559 46.8194C94.6603 46.227 95.2061 45.5876 95.6932 44.9009C95.7343 44.8424 95.759 44.774 95.7646 44.7027C95.7703 44.6314 95.7568 44.5599 95.7255 44.4956C95.6942 44.4313 95.6462 44.3766 95.5866 44.3372C95.527 44.2977 95.4579 44.2749 95.3866 44.2712C95.1448 44.2606 94.887 44.2917 94.6132 44.3646C92.9386 44.8129 91.2959 45.359 89.6852 46.0029C84.3377 48.1393 79.0381 50.4402 73.7866 52.9056C73.7279 52.9323 73.7012 52.9777 73.7066 53.0417C73.9386 56.1822 73.9946 59.5388 73.3759 62.5166C70.8346 74.7131 59.1412 82.9339 47.7332 85.7862C43.8239 86.7654 39.3999 87.2697 35.5092 86.4373C31.6639 85.6128 26.3812 82.3175 29.1092 77.5574C30.5519 75.0466 32.9466 72.8533 35.2319 71.1083C39.7892 67.6236 45.0719 64.4297 49.9572 61.7295C55.8346 58.4813 61.8106 55.428 67.8852 52.5694C67.9688 52.5303 68.0043 52.4645 67.9919 52.372C67.6132 49.7482 67.3732 47.1227 67.2719 44.4954C67.215 43.0243 67.2346 41.5843 67.3306 40.1755C67.3359 40.0901 67.3021 40.0697 67.2292 40.1141C56.7955 46.5837 46.7688 53.474 37.1492 60.7849C31.5315 65.0541 26.2497 69.3971 21.3039 73.8139C17.5812 77.1411 13.7386 81.1221 11.0026 85.2232C10.2479 86.3572 9.67991 87.5392 9.31991 88.78C9.00257 89.8686 8.96257 91.6296 10.6639 91.4295C11.6986 91.3094 12.3759 90.7331 13.2239 90.2155C13.4817 90.0571 13.7261 90.0349 13.9572 90.1488C14.0713 90.2038 14.1629 90.2964 14.2168 90.4111C14.2707 90.5257 14.2836 90.6554 14.2532 90.7785C13.8479 92.4194 11.6159 93.6121 10.1306 93.991C8.92791 94.2979 7.67724 94.2445 6.54124 93.7162C3.41591 92.262 3.42657 88.868 4.74391 86.053C6.69324 81.8906 10.2612 78.075 13.5999 74.9772C17.6337 71.2328 21.0061 68.2915 23.7172 66.1534C31.319 60.1605 38.7635 54.8463 46.0506 50.2107C55.4692 44.2179 60.6932 41.008 68.0346 36.4347C68.111 36.3866 68.1635 36.319 68.1919 36.2319C69.7546 31.4504 72.5786 27.36 76.1332 23.6805C82.6417 16.9459 90.1963 11.7197 98.7972 8.00201C101.109 7.00409 107.344 4.57868 109.232 7.30294C110.253 8.77847 109.675 10.0992 108.613 11.356C106.357 14.0295 103.453 16.2015 100.635 18.24C91.9012 24.5584 82.7279 30.3004 73.6026 36.0291C73.5279 36.0771 73.4772 36.1429 73.4506 36.2265C72.1839 40.3596 72.9786 45.4266 73.4479 49.8772C73.4508 49.9025 73.4596 49.9267 73.4735 49.948C73.4875 49.9693 73.5062 49.987 73.5283 49.9998C73.5503 50.0125 73.5751 50.0198 73.6005 50.0213C73.6259 50.0227 73.6512 50.0181 73.6746 50.0079C80.8461 46.8398 88.0692 43.9199 95.3439 41.2481C97.2035 40.5651 98.7101 40.0875 99.8639 39.8153C101.451 39.4444 102.827 40.4156 102.664 42.078C102.501 43.7669 100.515 45.8775 99.3572 47.0515C97.4781 48.9531 95.5723 50.8262 93.6399 52.6708C93.0337 53.2489 92.495 53.8742 92.0239 54.5466C92.001 54.5793 91.9856 54.6166 91.9786 54.6559C91.9715 54.6952 91.9732 54.7355 91.9833 54.7741C91.9935 54.8127 92.0119 54.8486 92.0373 54.8794C92.0628 54.9101 92.0946 54.935 92.1306 54.9522C92.2586 55.0126 92.4141 54.9984 92.5972 54.9095C93.8968 54.278 95.1564 53.5718 96.3759 52.7909C103.136 48.455 107.661 45.4506 113.648 42.5449C115.459 41.667 120.613 39.2283 121.779 42.0379C122.813 44.5301 117.963 49.7358 116.349 51.5768C116.179 51.7725 116.118 51.9726 116.168 52.1772C116.195 52.2893 116.257 52.3168 116.355 52.2599C119.843 50.2374 123.181 47.9987 126.795 46.2084C127.856 45.6854 129.187 45.3279 130.451 46.0002C132.291 46.9822 132.069 48.7378 131.064 50.2961C130.195 51.6462 129.308 52.9848 128.405 54.3118C127.928 55.0135 127.261 56.0888 127.411 56.9667C127.425 57.0485 127.473 57.0992 127.555 57.1188C128.581 57.3642 131.403 55.6832 132.707 54.9361C135.84 53.1404 140.725 50.0426 144.76 47.8253C150.397 44.7328 156.821 40.7919 163.515 42.5556C164.147 42.7228 164.7 43.0172 165.173 43.4387C166.051 44.2179 165.611 45.0877 164.496 45.0797C163.408 45.0717 162.312 45.0397 161.264 45.2105C155.872 46.0936 150.821 49.2341 146.816 52.8496C145.523 54.0183 142.288 57.1881 142.981 59.0452C142.996 59.086 143.02 59.123 143.052 59.1534C143.083 59.1839 143.121 59.2071 143.163 59.2213C145.608 60.0565 153.888 52.8656 155.251 51.4141C156.694 49.8772 158.106 48.31 159.485 46.7127C160.213 45.8695 161.589 45.8215 161.952 47.0675C162.158 47.7773 162.177 48.4959 162.008 49.2235C161.213 52.6655 159.645 55.7766 158.059 58.9065C158.005 59.0114 158.029 59.0337 158.131 58.9732C161.043 57.2299 163.931 55.4538 166.795 53.6447C173.955 49.1247 179.584 42.9985 187.739 42.6329C188.803 42.5867 189.701 42.6178 190.432 42.7263C191.536 42.8891 194.12 43.6149 193.819 45.1891C193.637 46.1497 192.763 46.1363 191.933 45.9762C185.88 44.8102 179.224 49.0233 175.379 53.3459C174.403 54.4425 173.131 56.2009 173.613 57.7218C173.626 57.763 173.649 57.8005 173.68 57.8312C173.711 57.8618 173.748 57.8847 173.789 57.8979C175.635 58.4876 179.403 55.8994 180.912 54.8694C183.696 52.9661 186.454 50.723 189.187 48.1402C190.136 47.2436 192.099 46.3871 192.808 48.1802C193.093 48.8979 192.667 49.5783 192.245 50.1467C191.627 50.9765 187.155 56.3823 188.963 57.0627C189.046 57.093 189.13 57.0938 189.213 57.0654C191.376 56.321 193.648 54.5519 195.496 53.1965C201.045 49.1194 206.323 44.7462 211.664 40.4076C213.448 38.9615 215.501 37.2378 217.555 36.2425C219.085 35.5008 220.848 36.8589 219.843 38.6413C218.517 40.9893 216.904 43.2013 215.344 45.504C215.227 45.6783 215.251 45.8277 215.419 45.9522C215.516 46.0269 215.688 46.0065 215.933 45.8909C218.755 44.5727 221.133 43.3213 223.741 43.4948C225.837 43.6362 227.152 45.029 226.891 47.233C226.541 50.192 224.216 52.9617 222.104 55.0002C222.038 55.0642 222.051 55.0927 222.144 55.0856C222.354 55.066 222.488 55.0393 222.547 55.0055C229.64 50.9872 237.027 46.9555 244.669 44.0818C246.949 43.2253 250.992 41.7444 252.509 43.4441C253.157 44.1698 252.627 44.7302 252.283 45.3172C252.232 45.4045 252.216 45.5078 252.238 45.6062C252.261 45.7047 252.319 45.7911 252.403 45.8482C253.679 46.7251 253.919 47.8716 253.123 49.2875C253.055 49.4085 253.081 49.4325 253.2 49.3595C256.883 47.1093 260.411 44.7604 263.781 42.3128C264.389 41.8698 264.208 41.4216 264.381 40.7972C264.683 39.7068 265.285 38.9019 266.187 38.3825C267.669 37.5286 269.472 37.8835 269.741 39.8206C269.813 40.3489 269.301 41.1254 269.064 41.6244C267.589 44.7302 272.635 43.8016 273.288 46.219C273.749 47.9267 272.72 49.066 271.496 50.12C270.193 51.2442 268.878 52.3542 267.552 53.4499C266.309 54.4763 265.399 55.3657 264.821 56.1182C264.045 57.1294 263.568 58.7384 265.133 59.2373C265.499 59.3547 266.1 59.3298 266.936 59.1626C269.989 58.5543 272.955 57.4523 275.808 56.2249C275.888 56.1893 275.936 56.1288 275.952 56.0435C276.035 55.5578 275.981 55.0295 276.064 54.5999C277.323 48.0575 283.251 42.8624 289.12 40.3916C291.533 39.3777 294.464 39.7593 296.2 41.7071C298.36 44.1325 296.187 47.2463 294.141 49.1034C290.243 52.6441 285.077 55.187 280.248 57.1935C280.036 57.2806 279.948 57.4372 279.984 57.6631C280.195 59.0256 280.874 60.0538 282.019 60.7475C284.085 62.0043 287.92 62.3832 290.133 62.167C291.584 62.0256 293.107 61.9402 294.48 61.7481C301.069 60.8356 306.864 59.264 313.011 57.6551C314.213 57.3402 315.261 57.3376 316.237 57.9939C316.515 58.1789 316.63 58.4751 316.584 58.8825C316.469 59.8857 313.464 61.0651 312.613 61.3399C304.816 63.8427 296.531 65.1448 288.336 64.7712C284.275 64.5871 279.312 63.5545 276.875 59.9231C276.693 59.6536 276.544 59.2427 276.371 58.9065C276.324 58.8157 276.253 58.7882 276.157 58.8238C272.112 60.3233 267.827 61.7188 263.635 62.3351C260.968 62.7274 258.248 61.3532 258.536 58.2981C258.901 54.4212 263.325 51.2913 266.061 48.9566C266.955 48.1909 268.331 46.7847 266.883 46.0269C266.358 45.7512 265.945 45.4568 265.643 45.1437C265.564 45.0625 265.462 45.0076 265.35 44.9866C265.239 44.9656 265.124 44.9795 265.021 45.0263C263.99 45.4977 263.058 45.9798 262.224 46.4725C258.537 48.6498 255.733 50.442 253.813 51.849C249.952 54.6747 246.237 57.6657 242.08 60.0565C239.864 61.3319 236.363 62.9942 233.92 61.3185C232.693 60.4772 232.163 59.2462 232.331 57.6257C232.603 54.9922 234.176 52.9617 235.915 51.2113C236.549 50.5709 236.461 50.4482 235.651 50.8431C230.784 53.2125 226.013 55.7793 221.227 58.3061C218.363 59.8163 215.536 61.2225 212.405 62.1137C210.341 62.7007 207.595 62.9221 207.248 60.0378C207.12 58.9838 207.741 58.8905 208.611 58.9465C214.064 59.2854 219.128 53.6821 221.376 49.2555C221.696 48.6258 222.611 46.3098 221.203 46.3098C219.44 46.3071 217.525 47.3877 216.117 48.3616C212.461 50.8884 210.043 53.586 207.208 57.3776C203.304 62.5984 199.407 67.8477 195.517 73.1255ZM101.869 11.1799C100.808 10.785 96.8559 12.9116 95.7679 13.5092C88.3119 17.6263 81.2746 23.2269 76.4186 30.1029C76.1608 30.4658 75.8595 30.971 75.5146 31.6185C75.4577 31.7235 75.4808 31.7448 75.5839 31.6825C83.3012 26.8691 91.1786 22.0236 98.3599 16.4363C99.6532 15.4304 101.72 13.7947 102.272 12.2125C102.4 11.8389 102.28 11.332 101.869 11.1799ZM280.717 53.7941C280.65 53.9311 280.684 53.9667 280.821 53.9009C284.421 52.1612 292.061 48.2042 293.053 44.1592C293.323 43.0652 291.968 43.3 291.432 43.5241C286.923 45.4079 282.813 49.4556 280.717 53.7941ZM237.909 58.8051C239.413 58.8077 241.037 57.9326 242.28 57.1241C245.107 55.2883 248.299 52.5294 249.853 49.485C250.704 47.828 250.163 46.3471 248.021 47.3157C244.768 48.7912 241.699 51.5235 239.365 54.1997C238.621 55.0509 236.968 57.1508 237.301 58.3435C237.338 58.4761 237.417 58.5931 237.527 58.6764C237.637 58.7598 237.771 58.805 237.909 58.8051ZM66.7279 66.3081C67.7128 63.8142 68.2239 61.5222 68.2612 59.4321C68.2843 58.1442 68.2843 56.859 68.2612 55.5765C68.2595 55.5196 68.2328 55.5036 68.1812 55.5285C58.2372 60.4247 48.3492 66.0146 39.5492 72.7946C37.5012 74.3715 30.2559 80.5591 33.8746 83.4702C35.2079 84.5401 37.9759 84.4761 39.6639 84.364C46.2488 83.93 52.215 81.8132 57.5626 78.0137C61.7759 75.0199 64.831 71.1181 66.7279 66.3081ZM147.205 68.7255C137.52 75.0199 128.101 81.533 119.589 89.375C117.08 91.6883 109.539 98.7992 109.707 102.263C109.885 105.902 120.667 97.4117 121.565 96.6886C131.504 88.7106 140.016 79.249 147.229 68.7496C147.232 68.7464 147.234 68.7421 147.234 68.7376C147.234 68.733 147.232 68.7287 147.229 68.7255C147.226 68.7224 147.222 68.7206 147.217 68.7206C147.213 68.7206 147.208 68.7224 147.205 68.7255Z" fill="#0055A3"/>
<path d="M105.843 29.1985C106.44 27.7283 108.307 26.5196 109.691 25.7111C110.459 25.2628 111.288 25.0867 112.099 25.543C113.205 26.162 113.416 27.6909 112.251 28.4807C110.75 29.5 109.261 30.5379 107.784 31.5946C105.651 33.1181 105.317 30.4846 105.843 29.1985Z" fill="#0055A3"/>
<path d="M189.397 73.1335C186.85 76.2339 184.34 79.3184 181.867 82.3869C180.933 83.5467 180.288 84.6522 179.931 85.7035C179.451 87.1176 180.707 88.5131 182.013 88.7613C183.779 89.0921 185.947 86.1091 186.787 84.959C189.688 80.9816 192.598 77.0371 195.517 73.1255C233.377 73.1343 271.227 73.1326 309.067 73.1201C311.208 73.1175 313.077 74.7024 312.344 76.981C309.096 87.0936 305.816 97.1902 302.509 107.281C302.095 108.546 301.666 109.464 301.221 110.035C300.457 111.015 299.491 111.713 298.323 112.13C297.612 112.382 296.516 112.509 295.037 112.509C251.692 112.507 208.346 112.507 165 112.509C163.253 112.509 161.589 111.887 161.395 109.92C161.348 109.438 161.483 108.703 161.797 107.714C164.9 97.9764 168.052 88.2552 171.256 78.55C171.718 77.15 172.181 76.1548 172.645 75.5642C173.397 74.6019 174.354 73.9135 175.515 73.499C176.206 73.2517 177.233 73.1281 178.595 73.1281C182.147 73.1263 185.748 73.1281 189.397 73.1335ZM224.909 94.7061C224.008 97.7158 222.28 102.988 226.957 104.013C228.772 104.411 230.587 104.408 232.4 104.002C236.251 103.143 238.24 100.357 239.613 96.9127C240.785 93.9741 241.759 90.9697 242.536 87.8994C243.243 85.1005 243.093 82.0533 239.725 81.3356C234.525 80.2283 230.04 82.096 227.691 86.9495C226.889 88.6074 225.962 91.1929 224.909 94.7061ZM259.781 87.2884C260.11 85.7213 261.05 84.7936 262.6 84.5054C265.104 84.0385 264.72 86.1464 264.299 87.6513C264.274 87.742 264.308 87.7874 264.4 87.7874H268.656C268.734 87.7874 268.791 87.7518 268.827 87.6806C269.488 86.3652 269.957 84.2813 269.235 82.9365C268.096 80.8153 264.624 80.922 262.656 81.1488C259.32 81.5357 256.595 83.19 255.28 86.3599C254.227 88.908 254.344 91.3068 256.592 93.0731C257.952 94.1431 260.179 95.3305 260.893 96.9341C261.229 97.6865 260.867 98.5243 260.493 99.186C259.744 100.507 258.453 101.163 256.925 100.872C255 100.504 255.739 98.4096 256.096 97.1822C256.121 97.0933 256.088 97.0488 255.997 97.0488H251.667C251.578 97.0488 251.514 97.0897 251.475 97.1715C249.808 100.672 250.28 103.933 254.733 104.269C260.376 104.696 265.203 102.503 266.115 96.4538C266.907 91.1867 259.067 90.6744 259.781 87.2884ZM284.661 85.1778C284.675 85.178 284.688 85.1813 284.7 85.1875C284.712 85.1938 284.722 85.2027 284.73 85.2136C284.737 85.2245 284.743 85.2371 284.745 85.2504C284.747 85.2636 284.745 85.2772 284.741 85.2899L278.637 103.823C278.633 103.836 278.632 103.85 278.634 103.863C278.636 103.876 278.641 103.889 278.649 103.9C278.657 103.911 278.667 103.92 278.679 103.926C278.691 103.932 278.704 103.935 278.717 103.935H283.277C283.295 103.935 283.312 103.929 283.327 103.919C283.341 103.908 283.352 103.894 283.357 103.877L289.432 85.2365C289.438 85.2196 289.448 85.2049 289.463 85.1944C289.477 85.1838 289.494 85.1781 289.512 85.1778H294.717C294.735 85.1776 294.752 85.1718 294.767 85.1613C294.781 85.1508 294.792 85.136 294.797 85.1191L295.973 81.5277C295.977 81.515 295.979 81.5014 295.977 81.4882C295.975 81.4749 295.969 81.4623 295.962 81.4514C295.954 81.4405 295.944 81.4316 295.932 81.4253C295.92 81.4191 295.907 81.4158 295.893 81.4156H280.747C280.729 81.4159 280.712 81.4216 280.697 81.4322C280.683 81.4427 280.672 81.4574 280.667 81.4743L279.493 85.0658C279.489 85.0785 279.488 85.0921 279.49 85.1053C279.492 85.1186 279.497 85.1312 279.505 85.1421C279.513 85.153 279.523 85.1619 279.535 85.1681C279.547 85.1743 279.56 85.1777 279.573 85.1778H284.661ZM204.419 94.8528C204.431 94.8149 204.455 94.7819 204.488 94.7584C204.52 94.7349 204.56 94.7222 204.6 94.7221C207.224 94.7621 210.299 95.0343 212.624 93.5134C213.634 92.8552 214.511 91.9347 215.256 90.7518C216.019 89.5422 216.568 88.2205 216.904 86.7868C217.725 83.2887 216.176 81.4397 212.664 81.4236C209.875 81.4094 207.08 81.4085 204.28 81.421C204.18 81.421 204.116 81.4681 204.085 81.5624L196.797 103.815C196.771 103.895 196.8 103.935 196.885 103.935L201.384 103.933C201.469 103.933 201.524 103.893 201.549 103.813L204.419 94.8528Z" fill="#E30520"/>
<path d="M231.688 88.748C232.451 86.9016 233.384 84.7884 235.592 84.3881C237.752 83.9933 238.144 85.7223 237.768 87.51C236.975 91.2775 235.852 94.7729 234.4 97.9961C233.573 99.8292 231.853 101.574 229.696 100.835C228.627 100.47 228.723 98.8073 228.923 97.828C229.555 94.7542 230.493 91.6484 231.688 88.748Z" fill="#E30520"/>
<path d="M205.622 91.1894L207.654 84.9778C207.665 84.9441 207.687 84.9149 207.716 84.8939C207.744 84.8729 207.778 84.8612 207.814 84.8604C208.766 84.8391 210.707 84.6469 211.427 85.1886C211.866 85.5212 212.056 86.0531 211.998 86.7842C211.848 88.668 210.547 91.1387 208.398 91.2802C207.471 91.3424 206.577 91.3575 205.715 91.3255C205.624 91.322 205.593 91.2766 205.622 91.1894Z" fill="#E30520"/>
</svg>
