<svg width="317" height="68" viewBox="0 0 317 68" fill="none" xmlns="http://www.w3.org/2000/svg">
<g clip-path="url(#clip0_140_424)">
<path d="M48.7207 23.8895V53.2718C48.7207 53.3166 48.7029 53.3595 48.6713 53.3911C48.6396 53.4227 48.5967 53.4405 48.5519 53.4405H25.083C25.0382 53.4405 24.9953 53.4227 24.9636 53.3911C24.932 53.3595 24.9142 53.3166 24.9142 53.2718V43.2352C24.9145 43.1919 24.9315 43.1504 24.9617 43.1193L44.3064 23.7841C44.3227 23.7683 44.3356 23.7495 44.3445 23.7287C44.3533 23.7079 44.3579 23.6855 44.3579 23.6628C44.3579 23.6402 44.3533 23.6178 44.3445 23.597C44.3356 23.5762 44.3227 23.5573 44.3064 23.5416L25.2517 4.45943C25.2281 4.43502 25.1977 4.41829 25.1644 4.41144C25.1312 4.40459 25.0966 4.40794 25.0653 4.42103C25.0339 4.43413 25.0073 4.45637 24.9888 4.48485C24.9703 4.51334 24.9609 4.54673 24.9617 4.58067L24.9986 23.5521C24.9986 23.5969 24.9808 23.6398 24.9492 23.6714C24.9175 23.7031 24.8746 23.7208 24.8298 23.7208H0.495914C0.451155 23.7208 0.408228 23.7031 0.376579 23.6714C0.344929 23.6398 0.327148 23.5969 0.327148 23.5521V0.627178C0.327148 0.582441 0.344929 0.539536 0.376579 0.507902C0.408228 0.476268 0.451155 0.458496 0.495914 0.458496H70.5706C70.6153 0.458496 70.6583 0.476268 70.6899 0.507902C70.7216 0.539536 70.7394 0.582441 70.7394 0.627178V23.5521C70.7394 23.5969 70.7216 23.6398 70.6899 23.6714C70.6583 23.7031 70.6153 23.7208 70.5706 23.7208H48.8895C48.8447 23.7208 48.8018 23.7386 48.7701 23.7702C48.7385 23.8019 48.7207 23.8448 48.7207 23.8895Z" fill="#0EE06E"/>
<path d="M105.426 10.7428L90.4899 10.7376C90.4423 10.7376 90.3967 10.7187 90.3631 10.6851C90.3294 10.6515 90.3105 10.6059 90.3105 10.5583V0.637721C90.3105 0.590188 90.3294 0.544601 90.3631 0.51099C90.3967 0.477379 90.4423 0.458496 90.4899 0.458496H131.869C131.917 0.458496 131.962 0.477379 131.996 0.51099C132.03 0.544601 132.048 0.590188 132.048 0.637721L132.043 10.5742C132.043 10.6217 132.024 10.6673 131.991 10.7009C131.957 10.7345 131.911 10.7534 131.864 10.7534L116.801 10.7165C116.778 10.7165 116.755 10.7211 116.733 10.7301C116.711 10.7391 116.691 10.7523 116.675 10.769C116.658 10.7856 116.645 10.8054 116.636 10.8271C116.627 10.8489 116.622 10.8722 116.622 10.8957V53.256C116.622 53.3035 116.603 53.3491 116.57 53.3827C116.536 53.4164 116.49 53.4352 116.443 53.4352L105.784 53.4405C105.737 53.4405 105.691 53.4216 105.657 53.388C105.624 53.3544 105.605 53.3088 105.605 53.2613V10.9221C105.605 10.8745 105.586 10.8289 105.552 10.7953C105.519 10.7617 105.473 10.7428 105.426 10.7428Z" fill="#0EE06E"/>
<path d="M273.253 0.463867H262.905C262.829 0.463867 262.768 0.525228 262.768 0.600921V53.3036C262.768 53.3792 262.829 53.4406 262.905 53.4406H273.253C273.328 53.4406 273.39 53.3792 273.39 53.3036V0.600921C273.39 0.525228 273.328 0.463867 273.253 0.463867Z" fill="#0EE06E"/>
<path d="M238.313 14.5278L238.318 6.60499C238.318 6.54861 238.337 6.49361 238.371 6.44807C238.405 6.40253 238.453 6.36885 238.508 6.35197L248.36 3.516C248.434 3.49423 248.512 3.49195 248.586 3.50939C248.661 3.52683 248.73 3.56338 248.786 3.61546C248.843 3.66755 248.885 3.73338 248.908 3.80651C248.931 3.87963 248.935 3.95754 248.919 4.03259C248.908 4.08882 248.891 4.14329 248.866 4.196C248.824 4.2863 248.803 4.38343 248.803 4.48065V14.6279C248.803 14.6964 248.83 14.7621 248.879 14.8106C248.927 14.859 248.993 14.8862 249.061 14.8862H256.276C256.434 14.8862 256.513 14.9653 256.513 15.1234V24.1163C256.513 24.2499 256.447 24.3166 256.313 24.3166H249.077C248.894 24.3166 248.803 24.408 248.803 24.5907C248.796 29.848 248.81 35.0912 248.845 40.3203C248.852 41.7752 249.409 42.9384 250.517 43.81C250.654 43.9189 250.809 43.9751 250.981 43.9786L256.735 44.1262C256.918 44.1297 257.011 44.2229 257.014 44.4056C257.06 47.0588 257.081 49.6945 257.078 52.3126C257.078 52.5797 257.12 52.7642 257.204 52.8661C257.247 52.9152 257.273 52.9756 257.28 53.04C257.286 53.1044 257.272 53.1701 257.24 53.2294C257.208 53.2888 257.159 53.3392 257.098 53.3747C257.038 53.4103 256.968 53.4295 256.898 53.4301C250.411 53.4512 242.211 54.7163 239.157 47.289C238.623 45.9852 238.347 43.8556 238.329 40.9002C238.301 35.4813 238.299 30.0676 238.324 24.6593C238.324 24.5684 238.288 24.4812 238.223 24.417C238.159 24.3527 238.072 24.3166 237.981 24.3166L232.053 24.3113C231.919 24.3113 231.853 24.2463 231.853 24.1163V15.1182C231.853 14.9635 231.932 14.8862 232.09 14.8862H237.954C238.194 14.8862 238.313 14.7667 238.313 14.5278Z" fill="#0EE06E"/>
<path d="M210.815 45.4282C213.067 45.9923 217.233 45.9026 218.641 43.6781C220.065 41.4326 217.534 39.8406 215.662 39.4189C212.972 38.818 210.286 38.2065 207.603 37.5845C202.777 36.467 198.616 34.0738 197.83 28.5495C196.064 16.0828 208.858 12.9147 218.214 14.7597C223.557 15.8087 227.702 19.4143 228.994 24.7752C229.004 24.8161 229.005 24.8585 228.998 24.8999C228.991 24.9412 228.976 24.9807 228.954 25.0161C228.932 25.0514 228.903 25.0819 228.869 25.1057C228.835 25.1295 228.797 25.1462 228.757 25.1547L220.171 27.0735C220.058 27.0983 219.939 27.0795 219.84 27.0209C219.74 26.9622 219.666 26.868 219.633 26.7572C218.478 22.8301 215.282 22.3399 211.627 22.614C209.57 22.7668 207.355 24.4484 208.241 26.6887C208.561 27.497 209.161 28.0048 210.04 28.2121C213.555 29.045 217.077 29.8603 220.603 30.658C221.732 30.9145 222.998 31.4522 224.4 32.271C231.019 36.1612 231.019 45.3702 225.735 50.2199C224.086 51.7345 221.994 52.8081 219.459 53.4406C210.683 55.6335 199.766 53.3774 196.976 43.3566C196.95 43.2624 196.943 43.164 196.956 43.0671C196.969 42.9703 197.001 42.877 197.051 42.7929C197.101 42.7087 197.167 42.6355 197.245 42.5775C197.324 42.5194 197.414 42.4779 197.509 42.4552L205.841 40.5154C205.889 40.5045 205.939 40.5033 205.987 40.5118C206.036 40.5203 206.082 40.5385 206.123 40.5651C206.163 40.5917 206.198 40.6262 206.225 40.6666C206.252 40.707 206.271 40.7524 206.279 40.8C206.75 43.2459 208.262 44.7886 210.815 45.4282Z" fill="#0EE06E"/>
<path d="M296.163 44.163C296.177 44.1647 296.192 44.1609 296.205 44.1522C296.217 44.1436 296.227 44.1306 296.231 44.1156L304.838 15.1655C304.895 14.9757 305.021 14.8809 305.218 14.8809L315.566 14.8861C315.639 14.8862 315.711 14.9035 315.777 14.9365C315.842 14.9696 315.899 15.0175 315.942 15.0764C315.986 15.1354 316.015 15.2037 316.028 15.2759C316.04 15.3481 316.035 15.4222 316.014 15.4923L311.658 29.6774C311.598 29.8672 311.568 30.006 311.568 30.0939C311.568 30.1642 311.557 30.2345 311.536 30.3047C308.356 40.3044 305.397 50.3726 302.233 60.3829C301.78 61.8219 301.046 64.7633 300.208 66.8877C300.138 67.0599 300.011 67.146 299.828 67.146H289.159C288.948 67.146 288.876 67.0458 288.943 66.8455L293.22 53.7726C293.294 53.5477 293.213 53.4353 292.977 53.4353L287.851 53.4458C287.633 53.4458 287.494 53.3404 287.434 53.1295L277.061 15.3764C277.044 15.3192 277.042 15.259 277.052 15.2006C277.063 15.1421 277.088 15.087 277.123 15.0395C277.159 14.992 277.205 14.9535 277.259 14.9269C277.312 14.9002 277.37 14.8863 277.43 14.8861H287.83C288.08 14.8861 288.236 15.0056 288.299 15.2446C291.056 25.5834 293.601 35.1631 295.936 43.9838C295.947 44.0365 295.968 44.0752 295.999 44.0998C296.045 44.1419 296.1 44.163 296.163 44.163Z" fill="#0EE06E"/>
<path d="M140.592 20.363C142.839 17.0315 143.946 15.4185 148.334 15.0179C149.79 14.8843 151.228 14.8439 152.648 14.8966C152.78 14.9021 152.905 14.9584 152.997 15.0537C153.088 15.149 153.139 15.2759 153.139 15.408L153.144 24.928C153.144 25.1564 153.032 25.2724 152.807 25.2759C150.338 25.3497 147.717 25.0492 145.386 26.2669C144.342 26.8151 142.665 28.3912 142.137 29.5035C141.188 31.5031 140.712 33.3094 140.708 34.9224C140.691 41.009 140.684 47.0956 140.687 53.1822C140.687 53.3544 140.601 53.4405 140.429 53.4405L130.53 53.4353C130.308 53.4353 130.197 53.3263 130.197 53.1084L130.203 15.118C130.203 14.9634 130.28 14.8861 130.435 14.8861H140.123C140.278 14.8861 140.355 14.9652 140.355 15.1233L140.339 20.2839C140.336 20.5897 140.42 20.616 140.592 20.363Z" fill="#0EE06E"/>
<path d="M182.198 49.1552C180.073 52.3232 176.181 54.0944 172.462 54.321C166.549 54.683 162.254 52.4708 159.578 47.6845C158.865 46.4123 158.362 44.8555 158.07 43.0141C157.898 41.9387 157.812 40.3187 157.812 38.1539C157.819 30.623 157.82 23.0094 157.817 15.3133C157.817 15.2001 157.862 15.0915 157.942 15.0114C158.022 14.9313 158.131 14.8863 158.244 14.8863H168.08C168.228 14.8863 168.301 14.9619 168.301 15.113C168.305 22.1238 168.307 29.1206 168.307 36.1034C168.307 38.1434 168.528 40.3995 169.651 42.0705C172.13 45.7657 178.074 45.481 180.526 42.081C181.834 40.273 182.072 37.9378 182.072 35.4445C182.061 29.2384 182.065 23.0305 182.082 16.8209C182.082 16.7295 182.022 16.4168 181.903 15.8826C181.829 15.5558 181.915 15.2957 182.161 15.1024C182.319 14.983 182.555 14.9197 182.868 14.9127C186.029 14.8494 189.179 14.8494 192.319 14.9127C192.484 14.9162 192.567 14.9988 192.567 15.1604V53.1086C192.567 53.33 192.456 53.4407 192.234 53.4407H182.81C182.634 53.4407 182.548 53.3529 182.552 53.1772L182.631 49.2922C182.641 48.7545 182.497 48.7089 182.198 49.1552Z" fill="#0EE06E"/>
</g>
<defs>
<clipPath id="clip0_140_424">
<rect width="316.436" height="68" fill="white"/>
</clipPath>
</defs>
</svg>
