<svg width="282" height="55" viewBox="0 0 282 55" fill="none" xmlns="http://www.w3.org/2000/svg">
<g clip-path="url(#clip0_140_378)">
<path d="M240.917 13.489C240.19 13.3605 239.507 13.0738 238.868 12.6289C238.764 12.5585 238.641 12.5224 238.515 12.5255C237.98 12.5412 237.488 12.408 237.04 12.126C236.902 12.0414 236.753 12.0007 236.593 12.0038L230.685 12.0367C230.597 12.0367 230.536 11.9975 230.502 11.9192C230.467 11.844 230.474 11.8001 230.521 11.7876" stroke="#282725" stroke-opacity="0.996" stroke-width="2"/>
<path d="M244.099 22.0713C243.792 22.4222 243.64 22.8969 243.643 23.4954C243.643 23.6489 243.609 23.7931 243.54 23.9278L242.548 25.8736" stroke="#282725" stroke-opacity="0.996" stroke-width="2"/>
<path d="M240.4 27.8757L237.486 29.2387" stroke="#282725" stroke-opacity="0.996" stroke-width="2"/>
<path d="M230.328 29.7415C230.256 29.3561 229.957 29.2167 229.43 29.3232C229.332 29.3428 229.244 29.3961 229.18 29.4741C229.117 29.5521 229.082 29.6499 229.082 29.7509L229.143 42.8404C229.143 42.8708 229.131 42.9 229.109 42.9219C229.087 42.9438 229.058 42.9567 229.026 42.9579L227.484 42.9673C227.415 42.9673 227.381 42.9329 227.381 42.8639L227.372 12.798C227.372 12.5975 227.472 12.4831 227.672 12.4549C228.218 12.3797 228.708 12.2278 229.143 11.999" stroke="#282725" stroke-opacity="0.996" stroke-width="2"/>
<path d="M152.764 11.811L156.731 11.8815" stroke="#282725" stroke-opacity="0.996" stroke-width="2"/>
<path d="M157.459 14.2082C157.754 13.8134 157.332 13.7304 156.195 13.9591" stroke="#282725" stroke-opacity="0.996" stroke-width="2"/>
<path d="M152.745 13.9308C151.896 13.8243 151.385 13.9026 151.213 14.1658" stroke="#282725" stroke-opacity="0.996" stroke-width="2"/>
<path d="M143.293 19.3782C141.733 21.3741 141.059 23.6567 141.272 26.2261" stroke="#282725" stroke-opacity="0.996" stroke-width="2"/>
<path d="M141.292 29.7932C141.317 33.055 142.479 35.8061 144.779 38.0464C145.23 38.4882 148.393 40.7207 149.441 40.6831C149.72 40.6737 149.781 40.6189 149.625 40.5186" stroke="#282725" stroke-opacity="0.996" stroke-width="2"/>
<path d="M150.118 40.6362C150.954 41.3835 152.632 41.266 153.591 41.0545" stroke="#282725" stroke-opacity="0.996" stroke-width="2"/>
<path d="M155.664 41.045C156.877 41.2957 158.088 41.0497 159.297 40.3071" stroke="#282725" stroke-opacity="0.996" stroke-width="2"/>
<path d="M161.172 41.158C161.11 41.5214 160.906 41.7611 160.561 41.8771C159.007 42.3847 157.419 42.7231 155.796 42.8923C155.617 42.9111 155.537 42.9408 155.556 42.9816" stroke="#282725" stroke-opacity="0.996" stroke-width="2"/>
<path d="M155.105 42.9815C152.241 43.1005 150.32 42.9642 149.343 42.5726C148.547 42.2498 147.752 41.9224 146.96 41.5903C144.619 40.6064 142.667 38.9802 141.104 36.7117" stroke="#282725" stroke-opacity="0.996" stroke-width="2"/>
<path d="M140.375 35.5273C140.215 34.7001 140.008 33.8932 139.754 33.1068C139.425 32.0822 139.346 31.0106 139.078 29.845C138.584 27.7112 139.167 25.6714 139.458 23.3872C139.646 21.9067 140.469 19.975 141.484 18.4992C141.954 17.8161 142.396 17.1142 142.809 16.3936" stroke="#282725" stroke-opacity="0.996" stroke-width="2"/>
<path d="M165.055 11.811C165.647 12.0304 166.321 12.0445 167.076 11.8533" stroke="#282725" stroke-opacity="0.996" stroke-width="2"/>
<path d="M167.179 13.4844C166.629 16.8355 166.967 20.8164 166.906 24.2521C166.903 24.4338 166.958 24.556 167.071 24.6187C167.168 24.6751 167.234 24.6484 167.268 24.5388C167.284 24.4792 167.267 24.4291 167.216 24.3884" stroke="#282725" stroke-opacity="0.996" stroke-width="2"/>
<path d="M172.09 20.7928C172.711 20.9087 173.32 20.8069 173.919 20.4873" stroke="#282725" stroke-opacity="0.996" stroke-width="2"/>
<path d="M175.502 20.5249C175.712 20.7254 175.954 20.8508 176.226 20.9009C178.44 21.3286 180.184 22.9689 181.016 24.9194C181.388 25.7936 181.556 27.0704 181.518 28.7499C181.418 33.1773 181.443 37.5687 181.594 41.924C181.606 42.2906 181.429 42.4833 181.063 42.5021L180.39 42.5303C180.027 42.5491 179.847 42.3752 179.85 42.0086C179.894 37.7285 179.917 33.5063 179.92 29.3421C179.92 27.495 179.427 26.0239 178.445 24.6092C178.385 24.5246 178.299 24.5074 178.186 24.5575" stroke="#282725" stroke-opacity="0.996" stroke-width="2"/>
<path d="M177.806 24.0735C177.408 23.3936 176.82 22.9549 176.043 22.7575C175.984 22.7418 175.934 22.7544 175.893 22.7951L175.799 22.8891" stroke="#282725" stroke-opacity="0.996" stroke-width="2"/>
<path d="M174.995 22.6539C173.867 22.1901 173.102 22.1948 172.701 22.668" stroke="#282725" stroke-opacity="0.996" stroke-width="2"/>
<path d="M168.749 25.0227C167.583 25.922 166.989 27.0594 166.967 28.4349C166.936 30.3619 166.936 34.9068 166.967 42.0696C166.97 42.2451 166.886 42.35 166.713 42.3845L165.195 42.6947" stroke="#282725" stroke-opacity="0.996" stroke-width="2"/>
<path d="M83.7586 12.4833C81.9507 12.3329 81.2002 12.5804 81.5073 13.2259" stroke="#282725" stroke-opacity="0.996" stroke-width="2"/>
<path d="M117.161 13.5876C116.77 14.1548 116.419 14.9522 116.108 15.9799C114.824 20.2695 113.549 24.5621 112.283 28.8579C111.178 32.6179 110.196 36.0395 109.049 39.6068C108.607 40.9839 109.035 42.314 107.122 42.6712" stroke="#282725" stroke-opacity="0.996" stroke-width="2"/>
<path d="M105.834 41.5339C105.766 40.7098 105.509 39.4392 105.064 37.7222C103.958 33.4546 102.866 29.1838 101.788 24.91C101.539 23.9324 101.2 22.1652 100.556 20.8633C100.497 20.7411 100.469 20.611 100.472 20.4732C100.484 19.8872 100.373 19.2512 100.138 18.565C99.8561 17.7378 99.6618 16.6897 99.5553 15.4207C99.5531 15.3891 99.5431 15.3586 99.5263 15.3317C99.5095 15.3049 99.4863 15.2824 99.4587 15.2663C99.431 15.2502 99.3997 15.2408 99.3675 15.2391C99.3352 15.2373 99.3029 15.2432 99.2733 15.2562L99.1558 15.3126C98.9427 15.4097 98.833 15.5758 98.8268 15.8108C98.786 17.2208 98.4837 18.6543 97.9197 20.1113C97.2993 21.7187 96.9938 23.5564 96.4204 25.1403C95.8689 26.6787 95.3754 28.236 94.9399 29.8121C93.9466 33.4248 92.9048 37.0234 91.8144 40.608C91.7078 40.9558 91.7251 41.2832 91.8661 41.5903" stroke="#282725" stroke-opacity="0.996" stroke-width="2"/>
<path d="M91.7438 41.7312C91.0717 42.9297 90.1458 42.1636 89.375 42.7229" stroke="#282725" stroke-opacity="0.996" stroke-width="2"/>
<path d="M89.1775 42.0696C87.9461 36.4672 86.6333 31.2769 85.2389 26.4985C84.5057 23.984 83.9793 21.3144 83.2132 18.7764C82.737 17.2098 82.4095 15.9423 82.2309 14.9741C82.1087 14.3349 81.916 13.9856 81.6528 13.926" stroke="#282725" stroke-opacity="0.996" stroke-width="2"/>
<path d="M83.9702 13.3479C83.8981 14.1438 83.9858 14.9835 84.2334 15.8671C85.0042 18.6213 85.7609 21.3943 86.4518 24.1673C87.7302 29.2903 89.0352 34.4023 90.3669 39.5034C90.3787 39.5447 90.4036 39.5813 90.4379 39.6077C90.4722 39.634 90.5138 39.6485 90.5565 39.649C90.5992 39.6496 90.6406 39.6361 90.6742 39.6106C90.7079 39.5852 90.732 39.5491 90.7429 39.5081L97.5908 14.6592" stroke="#282725" stroke-opacity="0.996" stroke-width="2"/>
<path d="M97.6284 14.241C98.0044 14.3036 98.1031 13.948 97.9245 13.1741" stroke="#282725" stroke-opacity="0.996" stroke-width="2"/>
<path d="M100.871 13.6394C100.815 15.3079 101.576 17.0375 101.816 18.1561C102.61 21.902 103.442 24.1204 104.213 27.1237C104.357 27.6877 104.465 27.7754 104.537 27.3869" stroke="#282725" stroke-opacity="0.996" stroke-width="2"/>
<path d="M104.636 27.9039C104.537 29.6758 105.374 31.5511 105.656 32.8389C105.907 33.992 106.215 35.1294 106.582 36.2511C106.906 37.2522 106.812 38.3661 107.179 39.4565C107.189 39.4874 107.207 39.5153 107.23 39.538C107.254 39.5608 107.282 39.5776 107.313 39.5872C107.345 39.5969 107.378 39.599 107.41 39.5934C107.442 39.5879 107.472 39.5748 107.498 39.5552C107.78 39.3453 107.935 39.0445 107.964 38.6528C108.036 37.5875 108.23 36.5488 108.546 35.5367C110.163 30.3385 111.559 25.0698 113.148 19.8575C113.26 19.4909 113.22 19.2826 113.025 19.2324" stroke="#282725" stroke-opacity="0.996" stroke-width="2"/>
<path d="M113.171 18.7012C113.209 18.7294 113.247 18.7419 113.284 18.7388C113.344 18.7294 113.384 18.6949 113.406 18.6354C113.908 17.0719 114.379 15.4974 114.821 13.9119C114.99 13.304 115.042 12.8356 114.976 12.5066" stroke="#282725" stroke-opacity="0.996" stroke-width="2"/>
<path d="M116.964 12.2529C116.4 12.4879 115.77 12.5381 115.075 12.4033" stroke="#282725" stroke-opacity="0.996" stroke-width="2"/>
<path d="M100.613 12.8122C99.9142 12.5114 99.1575 12.4158 98.3428 12.5255C98.2457 12.5411 98.2018 12.4706 98.2112 12.314" stroke="#282725" stroke-opacity="0.996" stroke-width="2"/>
<path d="M210.001 17.1128L209.719 20.7506C209.714 20.8154 209.726 20.8804 209.753 20.9396C209.779 20.9988 209.821 21.0504 209.872 21.0896C209.924 21.1288 209.985 21.1545 210.049 21.1642C210.114 21.174 210.179 21.1675 210.24 21.1454C210.381 21.0953 210.416 21.0263 210.344 20.9386" stroke="#282725" stroke-opacity="0.996" stroke-width="2"/>
<path d="M210.231 22.8984C210.24 22.8107 210.214 22.7605 210.151 22.748C210.111 22.7397 210.069 22.7403 210.03 22.7499C209.99 22.7594 209.953 22.7776 209.921 22.8032C209.889 22.8289 209.863 22.8612 209.845 22.898C209.827 22.9347 209.818 22.975 209.817 23.0159C209.761 27.7754 209.74 32.5491 209.756 37.3368C209.761 38.8878 210.358 40.4341 211.782 40.9699" stroke="#282725" stroke-opacity="0.996" stroke-width="2"/>
<path d="M214.334 43.0567C209.846 43.3528 207.914 41.4258 208.013 37.0877C208.116 32.5318 208.083 27.9149 207.914 23.2368C207.911 23.1621 207.887 23.0897 207.845 23.0282C207.802 22.9666 207.743 22.9183 207.674 22.889C207.483 22.8075 207.441 22.8326 207.547 22.9642" stroke="#282725" stroke-opacity="0.996" stroke-width="2"/>
<path d="M207.444 21.0232C207.983 21.0858 208.034 20.5438 207.599 19.397" stroke="#282725" stroke-opacity="0.996" stroke-width="2"/>
<path d="M135.205 27.0862C134.882 28.3238 134.992 29.0273 135.534 29.1965" stroke="#282725" stroke-opacity="0.996" stroke-width="2"/>
<path d="M121.189 31.7392C120.832 31.4822 120.429 31.4055 119.981 31.5089C119.677 31.5809 119.5 31.7329 119.45 31.9648C119.397 32.1966 119.455 32.463 119.624 32.7638" stroke="#282725" stroke-opacity="0.996" stroke-width="2"/>
<path d="M119.657 33.1631C119.065 37.0171 123.182 41.8863 127.295 41.0544" stroke="#282725" stroke-opacity="0.996" stroke-width="2"/>
<path d="M129.377 41.0451C130.402 41.3083 131.448 41.1046 132.517 40.4341" stroke="#282725" stroke-opacity="0.996" stroke-width="2"/>
<path d="M128.404 43.0849C127.865 43.0003 127.324 43.0144 126.782 43.1272" stroke="#282725" stroke-opacity="0.996" stroke-width="2"/>
<path d="M125.937 43.066L122.397 41.938" stroke="#282725" stroke-opacity="0.996" stroke-width="2"/>
<path d="M121.476 41.3976C121.122 40.8398 120.712 40.3307 120.245 39.8701C119.65 39.2779 119.244 38.7828 119.028 38.3849C118.147 36.743 117.585 34.8943 117.34 32.8389" stroke="#282725" stroke-opacity="0.996" stroke-width="2"/>
<path d="M117.429 29.7933C117.774 29.3671 117.879 28.8298 117.744 28.1812" stroke="#282725" stroke-opacity="0.996" stroke-width="2"/>
<path d="M117.895 27.7301L117.998 27.6784C118.001 27.6752 118.003 27.6737 118.003 27.6737L119.563 24.3179" stroke="#282725" stroke-opacity="0.996" stroke-width="2"/>
<path d="M121.147 22.5507L125.767 20.5767" stroke="#282725" stroke-opacity="0.996" stroke-width="2"/>
<path d="M194.913 20.5295C194.845 20.5389 194.782 20.5577 194.725 20.5859C194.591 20.6549 194.57 20.7473 194.664 20.8632C194.771 20.9854 194.937 21.0246 195.163 20.9807C196.803 20.6564 198.556 22.4659 199.576 24.078C199.957 24.6796 199.665 25.6102 200.488 26.0896" stroke="#282725" stroke-opacity="0.996" stroke-width="2"/>
<path d="M200.666 26.541C200.619 26.5473 200.579 26.552 200.544 26.5551C200.507 26.5582 200.486 26.5786 200.483 26.6162C200.402 31.2974 200.428 35.9755 200.563 40.6504C200.576 41.1016 200.668 41.5089 200.84 41.8724C200.86 41.9144 200.871 41.9601 200.873 42.0066C200.874 42.0531 200.866 42.0994 200.849 42.1427C200.832 42.1859 200.806 42.2251 200.773 42.2578C200.74 42.2906 200.7 42.3162 200.657 42.333C200.181 42.5179 199.681 42.6119 199.158 42.615" stroke="#282725" stroke-opacity="0.996" stroke-width="2"/>
<path d="M198.594 41.5809C198.769 41.02 198.81 40.4764 198.716 39.95C198.684 39.7839 198.586 39.715 198.42 39.7432C198.119 39.7996 197.99 39.9986 198.034 40.3401" stroke="#282725" stroke-opacity="0.996" stroke-width="2"/>
<path d="M192.705 43.0989L188.644 42.5537" stroke="#282725" stroke-opacity="0.996" stroke-width="2"/>
<path d="M186.435 40.8947C186.297 40.2524 186.05 39.6461 185.692 39.0758C185.605 38.9379 185.559 38.7875 185.556 38.6246L185.467 35.1748" stroke="#282725" stroke-opacity="0.996" stroke-width="2"/>
<path d="M186.205 33.5815C187.251 32.3156 188.439 31.3866 189.767 30.7944C189.864 30.7505 189.974 30.6205 190.096 30.4043" stroke="#282725" stroke-opacity="0.996" stroke-width="2"/>
<path d="M191.487 29.9391C192.571 30.1083 193.511 29.9312 194.307 29.408" stroke="#282725" stroke-opacity="0.996" stroke-width="2"/>
<path d="M195.689 29.22C196.588 29.4801 197.451 29.5192 198.279 29.3375C198.382 29.3141 198.474 29.2542 198.537 29.1688C198.6 29.0833 198.63 28.978 198.622 28.8722C198.575 28.2769 198.518 27.6627 198.453 27.0298C198.443 26.9452 198.423 26.8716 198.391 26.8089C198.291 26.6272 198.227 26.5755 198.199 26.6538" stroke="#282725" stroke-opacity="0.996" stroke-width="2"/>
<path d="M198.067 26.0757C198.189 26.0193 198.214 25.883 198.142 25.6668C197.066 22.4708 193.795 21.4039 190.669 22.6729" stroke="#282725" stroke-opacity="0.996" stroke-width="2"/>
<path d="M260.69 35.4663C260.58 37.3494 260.551 39.2388 260.601 41.1345C260.604 41.2097 260.618 41.2802 260.643 41.346C260.772 41.6719 260.855 41.6891 260.892 41.3977" stroke="#282725" stroke-opacity="0.996" stroke-width="2"/>
<path d="M258.622 42.2107L258.716 40.1004C258.723 39.9438 258.657 39.8294 258.519 39.7573C258.412 39.7041 258.296 39.7354 258.171 39.8513C258.052 39.9641 258.014 40.113 258.058 40.2978" stroke="#282725" stroke-opacity="0.996" stroke-width="2"/>
<path d="M253.269 42.9955C251.821 43.0378 250.801 43.1177 249.373 42.5913C248.777 42.372 248.163 42.1715 247.53 41.9897" stroke="#282725" stroke-opacity="0.996" stroke-width="2"/>
<path d="M246.116 40.4483L245.284 38.0137" stroke="#282725" stroke-opacity="0.996" stroke-width="2"/>
<path d="M245.236 36.3028C245.584 35.9048 245.709 35.3612 245.612 34.6719" stroke="#282725" stroke-opacity="0.996" stroke-width="2"/>
<path d="M245.721 34.3475C246.109 34.0154 246.372 33.5767 246.51 33.0315" stroke="#282725" stroke-opacity="0.996" stroke-width="2"/>
<path d="M246.632 32.8247C248.136 31.4899 249.264 31.0246 251.102 30.2867C252.296 29.8073 253.682 29.8872 254.98 29.2903" stroke="#282725" stroke-opacity="0.996" stroke-width="2"/>
<path d="M229.463 14.4478C229.31 14.4634 229.23 14.5433 229.224 14.6875C229.045 18.4631 229.012 22.5756 229.125 27.025C229.131 27.2412 229.244 27.3587 229.463 27.3775" stroke="#282725" stroke-opacity="0.996" stroke-width="2"/>
<path d="M229.632 27.4715C229.711 27.5749 229.853 27.683 230.06 27.7958C230.207 27.8741 230.377 27.9164 230.568 27.9227C232.053 27.9838 234.972 28.3175 236.297 27.7065C236.685 27.5247 237.079 27.3461 237.477 27.1707" stroke="#282725" stroke-opacity="0.996" stroke-width="2"/>
<path d="M240.786 24.6374C241.582 23.8258 241.901 22.9297 241.744 21.949" stroke="#282725" stroke-opacity="0.996" stroke-width="2"/>
<path d="M230.676 13.9026C230.033 13.6832 229.628 13.7412 229.458 14.0765" stroke="#282725" stroke-opacity="0.996" stroke-width="2"/>
<path d="M132.742 29.8027C132.532 30.1787 132.67 30.2053 133.156 29.8826C133.3 29.7855 133.361 29.6507 133.339 29.4784C133.255 28.7593 133.25 28.3081 132.987 27.5279C132.573 26.3012 132.695 25.4082 131.45 24.4729" stroke="#282725" stroke-opacity="0.996" stroke-width="2"/>
<path d="M130.533 23.5659C130.119 22.9486 129.571 22.5711 128.888 22.4332C123.652 21.3757 120.621 24.6422 119.441 29.2435C119.328 29.6853 119.497 29.9485 119.949 30.0331C120.547 30.1459 120.965 30.0676 121.204 29.7981" stroke="#282725" stroke-opacity="0.996" stroke-width="2"/>
<path d="M188.507 33.8823C187.392 35.2109 187.132 36.7697 187.727 38.5588C188.117 39.7432 189.034 40.8054 190.223 41.1062C192.435 41.6702 194.315 41.3083 195.863 40.0205" stroke="#282725" stroke-opacity="0.996" stroke-width="2"/>
<path d="M197.315 38.5916C198.227 37.849 198.677 37.0484 198.664 36.1899C198.646 34.6013 198.583 32.925 198.476 31.1609" stroke="#282725" stroke-opacity="0.996" stroke-width="2"/>
<path d="M196.76 31.0811C194.451 30.8147 192.306 31.2581 190.326 32.4112" stroke="#282725" stroke-opacity="0.996" stroke-width="2"/>
<path d="M248.616 33.7366C247.591 34.8332 247.201 36.121 247.446 37.6C247.765 39.5458 248.848 40.6988 250.693 41.0592" stroke="#282725" stroke-opacity="0.996" stroke-width="2"/>
<path d="M253.555 40.9463C253.536 41.0685 253.646 41.1202 253.884 41.1014C254.213 41.0732 254.434 40.8147 254.777 40.7254C256.131 40.3776 258.378 37.8913 258.246 36.5471" stroke="#282725" stroke-opacity="0.996" stroke-width="2"/>
<path d="M254.18 31.3866C252.821 31.2111 251.86 31.4148 251.299 31.9976" stroke="#282725" stroke-opacity="0.996" stroke-width="2"/>
<path d="M265.747 21.6152C266.346 23.8587 267.162 26.016 268.196 28.0871C268.497 28.6934 268.572 29.3796 268.901 30.0235C269.126 30.4622 269.317 30.9259 269.474 31.4147C269.662 31.9944 269.958 32.5271 270.362 33.0127" stroke="#282725" stroke-opacity="0.996" stroke-width="2"/>
<path d="M270.466 33.2524C270.378 33.431 270.399 33.6645 270.527 33.9527C271.273 35.6604 271.852 37.3085 272.266 38.8971C272.416 39.4768 272.645 39.5097 272.952 38.9958C273.212 38.5666 273.313 38.0104 273.253 37.3273" stroke="#282725" stroke-opacity="0.996" stroke-width="2"/>
<path d="M273.526 36.5518C273.545 36.6051 273.578 36.6317 273.625 36.6317C273.687 36.6348 273.73 36.6066 273.751 36.5471L277.526 26.0896" stroke="#282725" stroke-opacity="0.996" stroke-width="2"/>
<path d="M278.973 22.1323C279.312 21.9975 279.5 21.6529 279.537 21.0983C279.547 20.9385 279.631 20.857 279.791 20.8539L281.506 20.7975C281.635 20.7943 281.704 20.857 281.713 20.9855C281.723 21.1139 281.763 21.2032 281.835 21.2534" stroke="#282725" stroke-opacity="0.996" stroke-width="2"/>
<path d="M281.285 22.4331C279.076 27.155 277.079 31.9522 275.293 36.8245C273.728 41.0968 271.923 45.3597 269.155 49.021" stroke="#282725" stroke-opacity="0.996" stroke-width="2"/>
<path d="M266.353 51.3757C266.078 51.3789 265.804 51.4901 265.531 51.7094C265.402 51.8128 265.257 51.8661 265.094 51.8692C264.824 51.8755 264.603 51.9256 264.431 52.0196" stroke="#282725" stroke-opacity="0.996" stroke-width="2"/>
<path d="M268.713 46.5207C269.885 45.33 270.782 43.9075 271.406 42.2531C271.707 41.4541 270.767 39.8279 270.461 39.0242C270.377 38.7986 270.259 38.75 270.109 38.8785" stroke="#282725" stroke-opacity="0.996" stroke-width="2"/>
<path d="M270.048 38.648C270.113 38.4459 270.142 38.2438 270.062 38.037C268.301 33.5783 266.457 29.1462 264.53 24.7407" stroke="#282725" stroke-opacity="0.996" stroke-width="2"/>
<path d="M28.6183 0H33.0269C41.9287 0.9212 49.6555 3.8822 55.7232 10.6784C55.7478 10.7064 55.7656 10.7399 55.775 10.776C55.7845 10.8121 55.7854 10.8499 55.7776 10.8865C55.7698 10.923 55.7537 10.9572 55.7303 10.9863C55.707 11.0155 55.6772 11.0388 55.6433 11.0544C45.3942 15.6103 35.1591 20.1755 24.9382 24.7502C23.9825 25.1763 23.1036 25.1199 22.3015 24.581C20.6283 23.4561 18.4616 21.9224 15.8014 19.9797C15.1293 19.4862 14.4384 19.2888 14.0577 20.2241C14.0013 20.362 14.0029 20.4983 14.0624 20.633L19.7729 33.1397C19.8799 33.3738 20.0345 33.5829 20.2271 33.7537C20.4196 33.9245 20.6456 34.0532 20.8908 34.1316C21.136 34.2099 21.3948 34.2361 21.6506 34.2086C21.9065 34.181 22.1538 34.1003 22.3767 33.9716L57.4857 13.7616C57.7395 13.6143 57.9416 13.6676 58.092 13.9214C64.8318 25.2531 60.8086 38.1922 50.2101 45.2751C41.4399 51.1407 30.5641 52.5084 20.4262 49.6273C19.8215 49.455 19.3154 49.4753 18.9081 49.6884C17.5796 50.3903 15.0243 51.8441 11.2424 54.05H10.6596C10.293 53.8526 10.0016 53.5581 9.7854 53.1664C9.71333 53.0317 9.69923 52.8907 9.7431 52.7434C10.2006 51.2175 10.6189 49.6774 10.998 48.1233C11.4022 46.4595 11.8487 45.731 10.4105 44.7064C4.4697 40.4858 0.1645 33.4499 0 25.9064V24.7831C0.7849 9.7807 14.9601 0.8507 28.6183 0Z" fill="#0CC902"/>
<path d="M240.918 13.4889C240.191 13.3604 239.508 13.0737 238.868 12.6288C238.765 12.5584 238.641 12.5223 238.516 12.5254C237.98 12.5411 237.488 12.4079 237.04 12.1259C236.902 12.0413 236.753 12.0006 236.594 12.0037L230.686 12.0366C230.598 12.0366 230.537 11.9974 230.502 11.9191C230.468 11.8439 230.474 11.8 230.521 11.7875C234.3 11.4444 237.609 11.5055 240.918 13.4889Z" fill="#514F4B" fill-opacity="0.992"/>
<path d="M152.764 11.811L156.731 11.8815C158.388 12.0069 159.897 12.4032 161.257 13.0706C161.401 13.1427 161.434 13.2477 161.356 13.3855L160.547 14.8331C160.514 14.8933 160.461 14.9403 160.397 14.9668C160.333 14.9932 160.262 14.9975 160.195 14.9788L157.459 14.208C157.754 13.8132 157.332 13.7302 156.195 13.9589L152.745 13.9307C151.896 13.8242 151.385 13.9025 151.213 14.1657C147.879 14.7861 145.239 16.5236 143.294 19.378C141.733 21.374 141.059 23.6566 141.273 26.2259L141.291 29.7932C141.316 33.055 142.479 35.8061 144.779 38.0464C145.23 38.4882 148.393 40.7207 149.441 40.6831C149.72 40.6737 149.781 40.6189 149.624 40.5186L150.118 40.6361C150.955 41.3834 152.632 41.2659 153.591 41.0544L155.664 41.045C156.877 41.2957 158.088 41.0497 159.297 40.3071L160.087 39.9217C160.231 39.8528 160.359 39.8763 160.472 39.9922C160.773 40.2993 161.006 40.6878 161.172 41.1578C161.11 41.5213 160.906 41.761 160.561 41.8769C159.007 42.3845 157.419 42.7229 155.796 42.8921C155.617 42.9109 155.537 42.9407 155.556 42.9814C155.393 43.019 155.243 43.019 155.105 42.9814C152.241 43.1005 150.32 42.9642 149.342 42.5725C148.547 42.2498 147.752 41.9224 146.96 41.5902C144.619 40.6064 142.667 38.9802 141.103 36.7116C140.762 36.4453 140.519 36.0505 140.375 35.5272C140.215 34.7 140.008 33.8932 139.754 33.1067C139.425 32.0821 139.346 31.0105 139.078 29.8449C138.584 27.7111 139.167 25.6713 139.458 23.3871C139.646 21.9066 140.469 19.9749 141.484 18.4991C141.954 17.8161 142.396 17.1142 142.809 16.3935C145.488 13.5861 148.807 12.0586 152.764 11.811Z" fill="black"/>
<path d="M165.055 11.8111C165.647 12.0304 166.321 12.0445 167.076 11.8534C167.239 12.2764 167.273 12.82 167.179 13.4843C166.629 16.8354 166.968 20.8163 166.906 24.252C166.903 24.4337 166.958 24.5559 167.071 24.6186C167.168 24.675 167.234 24.6484 167.268 24.5387C167.284 24.4792 167.267 24.429 167.217 24.3883C168.451 22.5396 170.076 21.3411 172.091 20.7928C172.711 20.9087 173.32 20.8069 173.919 20.4873C174.483 20.387 175.011 20.3996 175.503 20.5249C175.713 20.7254 175.954 20.8508 176.227 20.9009C178.44 21.3286 180.184 22.9689 181.016 24.9194C181.389 25.7936 181.556 27.0704 181.519 28.7499C181.418 33.1773 181.444 37.5687 181.594 41.924C181.606 42.2906 181.429 42.4833 181.063 42.5021L180.391 42.5303C180.027 42.5491 179.847 42.3752 179.85 42.0086C179.894 37.7285 179.918 33.5063 179.921 29.3421C179.921 27.495 179.427 26.0239 178.445 24.6092C178.385 24.5246 178.299 24.5074 178.186 24.5575C178.024 24.4071 177.897 24.2457 177.806 24.0734C177.408 23.3935 176.82 22.9548 176.043 22.7574C175.984 22.7417 175.934 22.7543 175.893 22.795L175.799 22.889C175.398 22.8483 175.13 22.7699 174.995 22.654C173.867 22.1903 173.103 22.195 172.702 22.6681C171.201 23.0566 169.883 23.8415 168.749 25.0228C167.583 25.9221 166.989 27.0595 166.968 28.435C166.936 30.362 166.936 34.9069 166.968 42.0697C166.971 42.2452 166.886 42.3501 166.714 42.3846L165.196 42.6948C165.117 42.8076 164.997 42.8092 164.834 42.6995C164.805 42.6794 164.781 42.6518 164.765 42.619C164.748 42.5863 164.74 42.5494 164.74 42.5115V12.0226C164.74 11.9286 164.782 11.8597 164.867 11.8158C164.942 11.7782 165.005 11.7766 165.055 11.8111Z" fill="black"/>
<path d="M165.055 11.8112C165.706 11.6827 166.38 11.6968 167.076 11.8535C166.321 12.0446 165.647 12.0305 165.055 11.8112Z" fill="#514F4B" fill-opacity="0.992"/>
<path d="M230.521 11.7876C230.474 11.8001 230.468 11.844 230.502 11.9192C230.537 11.9975 230.598 12.0367 230.686 12.0367L236.593 12.0038C236.753 12.0007 236.902 12.0414 237.04 12.126C237.488 12.408 237.98 12.5412 238.516 12.5255C238.641 12.5224 238.764 12.5585 238.868 12.6289C239.507 13.0738 240.191 13.3605 240.917 13.489C243.789 15.5617 244.64 18.6778 244.099 22.0712C243.792 22.4221 243.64 22.8968 243.643 23.4953C243.643 23.6488 243.609 23.793 243.54 23.9277L242.548 25.8735C241.991 26.7164 241.275 27.3838 240.4 27.8757L237.486 29.2387C235.284 29.9625 232.898 30.1301 230.328 29.7416C230.256 29.3562 229.957 29.2168 229.431 29.3233C229.333 29.3429 229.244 29.3962 229.181 29.4741C229.118 29.5521 229.083 29.65 229.083 29.751L229.144 42.8405C229.144 42.8709 229.132 42.9001 229.11 42.922C229.088 42.9439 229.058 42.9568 229.026 42.958L227.485 42.9674C227.416 42.9674 227.381 42.9329 227.381 42.864L227.372 12.7981C227.372 12.5976 227.472 12.4832 227.673 12.455C228.218 12.3798 228.708 12.2278 229.144 11.9991L230.521 11.7876ZM229.459 14.0765L229.464 14.4478C229.31 14.4635 229.23 14.5434 229.224 14.6875C229.045 18.4632 229.012 22.5757 229.125 27.025C229.131 27.2412 229.244 27.3587 229.464 27.3775C229.717 27.4276 229.774 27.459 229.633 27.4715C229.711 27.5749 229.854 27.683 230.06 27.7958C230.208 27.8741 230.377 27.9164 230.568 27.9227C232.053 27.9838 234.972 28.3175 236.297 27.7065C236.686 27.5248 237.079 27.3462 237.477 27.1707C238.821 26.5785 239.924 25.7341 240.786 24.6374C241.582 23.8259 241.901 22.9297 241.745 21.949C242.487 14.6123 236.471 13.0848 230.676 13.9026C230.034 13.6833 229.628 13.7412 229.459 14.0765Z" fill="black"/>
<path d="M229.144 11.9991C228.708 12.2278 228.218 12.3798 227.673 12.455C227.472 12.4832 227.372 12.5976 227.372 12.7981L227.381 42.864C227.381 42.9329 227.416 42.9674 227.485 42.9674L229.026 42.958C229.058 42.9568 229.088 42.9439 229.11 42.9219C229.131 42.9 229.144 42.8708 229.144 42.8405L229.083 29.751C229.083 29.6499 229.117 29.5521 229.181 29.4741C229.244 29.3962 229.332 29.3428 229.43 29.3233C229.957 29.2168 230.256 29.3562 230.328 29.7416L229.755 29.6805C229.57 29.6586 229.477 29.7416 229.477 29.9296L229.482 42.8029C229.482 43.1381 229.313 43.3042 228.974 43.3011L227.499 43.2917C227.167 43.2885 227 43.1209 227 42.7888V12.8122C227 12.7019 227.032 12.5942 227.093 12.5023C227.153 12.4104 227.238 12.3384 227.339 12.2952C227.862 12.0696 228.464 11.9709 229.144 11.9991Z" fill="#514F4B" fill-opacity="0.992"/>
<path d="M83.7585 12.4831C81.9505 12.3327 81.2001 12.5802 81.5072 13.2257C81.2972 12.9844 81.2346 12.7557 81.3192 12.5395C81.385 12.3734 81.5432 12.2591 81.7939 12.1964C82.5114 12.0178 83.1663 12.1134 83.7585 12.4831Z" fill="#514F4B" fill-opacity="0.992"/>
<path d="M100.613 12.8121C99.9142 12.5113 99.1575 12.4158 98.3428 12.5254C98.2457 12.5411 98.2018 12.4706 98.2112 12.3139C98.4775 12.2168 98.9538 12.162 99.64 12.1494C100.289 12.1369 100.613 12.3578 100.613 12.8121Z" fill="#514F4B" fill-opacity="0.992"/>
<path d="M116.964 12.2529C116.4 12.4879 115.77 12.538 115.075 12.4033C115.607 12.09 116.237 12.0398 116.964 12.2529Z" fill="#514F4B" fill-opacity="0.992"/>
<path d="M116.964 12.2529C117.14 12.1495 117.281 12.1715 117.387 12.3187C117.484 12.4441 117.506 12.5835 117.453 12.737L117.161 13.5877C116.77 14.1549 116.419 14.9523 116.109 15.98C114.824 20.2696 113.549 24.5622 112.283 28.858C111.178 32.618 110.196 36.0396 109.049 39.6069C108.608 40.984 109.035 42.3141 107.122 42.6713C106.912 42.8061 106.673 42.8343 106.403 42.7559C106.25 42.7121 106.138 42.6181 106.069 42.4739C105.919 42.1637 105.841 41.8504 105.834 41.5339C105.766 40.7099 105.509 39.4393 105.064 37.7222C103.958 33.4546 102.866 29.1839 101.788 24.91C101.539 23.9324 101.2 22.1652 100.556 20.8633C100.497 20.7411 100.469 20.6111 100.472 20.4732C100.484 19.8873 100.373 19.2512 100.138 18.565C99.8561 17.7378 99.6618 16.6897 99.5553 15.4207C99.5531 15.3892 99.5432 15.3587 99.5263 15.3318C99.5095 15.3049 99.4863 15.2825 99.4587 15.2664C99.431 15.2502 99.3998 15.2409 99.3675 15.2391C99.3352 15.2374 99.3029 15.2432 99.2733 15.2562L99.1558 15.3126C98.9427 15.4098 98.8331 15.5758 98.8268 15.8108C98.7861 17.2208 98.4837 18.6543 97.9197 20.1113C97.2993 21.7187 96.9938 23.5564 96.4204 25.1403C95.8689 26.6788 95.3754 28.2361 94.9399 29.8121C93.9466 33.4249 92.9048 37.0235 91.8144 40.608C91.7079 40.9558 91.7251 41.2833 91.8661 41.5903C91.841 41.6499 91.8003 41.6969 91.7439 41.7313C91.0718 42.9298 90.1459 42.1637 89.3751 42.723C89.1746 42.7638 89.1088 42.546 89.1777 42.0697C87.9463 36.4673 86.6334 31.277 85.2391 26.4986C84.5059 23.9841 83.9795 21.3145 83.2134 18.7765C82.7371 17.2099 82.4097 15.9424 82.2311 14.9742C82.1089 14.335 81.9162 13.9857 81.653 13.9261C81.5496 13.8165 81.501 13.583 81.5073 13.2258C81.2002 12.5804 81.9507 12.3328 83.7586 12.4832L83.9701 13.348C83.898 14.1439 83.9858 14.9836 84.2333 15.8672C85.0041 18.6214 85.7608 21.3944 86.4517 24.1674C87.7301 29.2904 89.0351 34.4025 90.3668 39.5035C90.3786 39.5449 90.4036 39.5815 90.4378 39.6078C90.4721 39.6341 90.5138 39.6486 90.5565 39.6492C90.5992 39.6497 90.6405 39.6362 90.6742 39.6108C90.7078 39.5853 90.7319 39.5493 90.7428 39.5082L97.5907 14.6593C97.4998 14.5089 97.5124 14.3695 97.6283 14.241C98.0043 14.3037 98.103 13.9481 97.9244 13.1741C97.9213 12.8796 98.0168 12.5929 98.2111 12.314C98.2017 12.4707 98.2456 12.5412 98.3427 12.5255C99.1574 12.4159 99.9141 12.5114 100.613 12.8122C100.773 13.0284 100.859 13.3042 100.871 13.6394C100.815 15.3079 101.576 17.0375 101.816 18.1561C102.61 21.902 103.442 24.1204 104.213 27.1237C104.357 27.6877 104.465 27.7755 104.537 27.3869L104.636 27.9039C104.537 29.6758 105.374 31.5511 105.656 32.8389C105.907 33.992 106.215 35.1294 106.582 36.2511C106.906 37.2522 106.812 38.3661 107.179 39.4565C107.189 39.4874 107.207 39.5153 107.23 39.5381C107.254 39.5608 107.282 39.5776 107.313 39.5873C107.345 39.5969 107.378 39.599 107.41 39.5934C107.442 39.5879 107.472 39.5748 107.498 39.5552C107.78 39.3453 107.935 39.0445 107.964 38.6528C108.036 37.5875 108.23 36.5488 108.546 35.5367C110.163 30.3385 111.559 25.0698 113.148 19.8575C113.261 19.4909 113.22 19.2826 113.025 19.2324L113.171 18.7013C113.209 18.7295 113.246 18.7421 113.284 18.7389C113.344 18.7295 113.384 18.6951 113.406 18.6355C113.908 17.072 114.379 15.4975 114.821 13.912C114.99 13.3042 115.042 12.8357 114.976 12.5067C115.264 12.6039 115.297 12.5694 115.075 12.4033C115.77 12.5381 116.4 12.4879 116.964 12.2529Z" fill="black"/>
<path d="M114.976 12.5066C115.042 12.8356 114.99 13.304 114.821 13.9119C114.379 15.4974 113.908 17.0719 113.406 18.6354C113.384 18.6949 113.344 18.7294 113.284 18.7388C113.247 18.7419 113.209 18.7294 113.171 18.7012L114.976 12.5066Z" fill="#514F4B" fill-opacity="0.992"/>
<path d="M97.9245 13.1741C98.1031 13.948 98.0044 14.3036 97.6284 14.241L97.9245 13.1741Z" fill="#514F4B" fill-opacity="0.992"/>
<path d="M83.9702 13.3479L90.4703 38.5164C90.5141 38.6981 90.5627 38.6981 90.616 38.5164L97.5908 14.6592L90.7429 39.5081C90.732 39.5491 90.7079 39.5852 90.6742 39.6106C90.6406 39.6361 90.5992 39.6496 90.5565 39.649C90.5138 39.6485 90.4722 39.634 90.4379 39.6077C90.4036 39.5813 90.3787 39.5447 90.3669 39.5034C89.0352 34.4023 87.7302 29.2903 86.4518 24.1673C85.7609 21.3943 85.0042 18.6213 84.2334 15.8671C83.9858 14.9835 83.8981 14.1438 83.9702 13.3479Z" fill="#514F4B" fill-opacity="0.992"/>
<path d="M167.179 13.4844L167.216 24.3884C167.267 24.4291 167.284 24.4792 167.268 24.5388C167.234 24.6484 167.168 24.6751 167.071 24.6187C166.958 24.556 166.903 24.4338 166.906 24.2521C166.967 20.8164 166.629 16.8355 167.179 13.4844Z" fill="#514F4B" fill-opacity="0.992"/>
<path d="M100.872 13.6394L104.538 27.3869C104.466 27.7754 104.357 27.6877 104.213 27.1237C103.443 24.1204 102.611 21.902 101.816 18.1561C101.577 17.0375 100.815 15.3079 100.872 13.6394Z" fill="#514F4B" fill-opacity="0.992"/>
<path d="M117.162 13.5876C114.307 23.1192 111.462 32.6211 108.627 42.0931C108.423 42.7731 107.922 42.9658 107.123 42.6712C109.035 42.314 108.608 40.9839 109.05 39.6068C110.196 36.0395 111.179 32.6179 112.283 28.8579C113.549 24.5621 114.824 20.2695 116.109 15.9799C116.419 14.9522 116.77 14.1548 117.162 13.5876Z" fill="#514F4B" fill-opacity="0.992"/>
<path d="M230.676 13.9026L229.458 14.0765C229.628 13.7412 230.033 13.6832 230.676 13.9026Z" fill="#514F4B" fill-opacity="0.992"/>
<path d="M89.178 42.0696L81.6533 13.926C81.9165 13.9856 82.1092 14.3349 82.2314 14.9741C82.41 15.9423 82.7375 17.2098 83.2137 18.7764C83.9798 21.3144 84.5062 23.984 85.2394 26.4985C86.6338 31.2769 87.9466 36.4672 89.178 42.0696Z" fill="#514F4B" fill-opacity="0.992"/>
<path d="M152.745 13.9308L151.213 14.1658C151.385 13.9026 151.896 13.8243 152.745 13.9308Z" fill="#514F4B" fill-opacity="0.992"/>
<path d="M157.46 14.2082L156.195 13.9591C157.333 13.7304 157.754 13.8134 157.46 14.2082Z" fill="#514F4B" fill-opacity="0.992"/>
<path d="M229.463 14.4478V27.3775C229.244 27.3587 229.131 27.2412 229.125 27.025C229.012 22.5756 229.045 18.4631 229.224 14.6875C229.23 14.5433 229.31 14.4634 229.463 14.4478Z" fill="#514F4B" fill-opacity="0.992"/>
<path d="M105.834 41.5339L99.372 16.3466C99.3659 16.3189 99.3505 16.2942 99.3283 16.2767C99.3061 16.2592 99.2785 16.2499 99.2502 16.2505C99.2219 16.251 99.1947 16.2614 99.1732 16.2798C99.1517 16.2981 99.1372 16.3234 99.1323 16.3513C98.8174 17.7143 98.5072 19.2089 98.1641 20.3886C96.0804 27.4542 93.9811 34.5215 91.8661 41.5903C91.7251 41.2832 91.7078 40.9558 91.8144 40.608C92.9048 37.0234 93.9466 33.4248 94.9399 29.8121C95.3754 28.236 95.8689 26.6787 96.4204 25.1403C96.9938 23.5564 97.2993 21.7187 97.9197 20.1113C98.4837 18.6543 98.786 17.2208 98.8268 15.8108C98.833 15.5758 98.9427 15.4097 99.1558 15.3126L99.2733 15.2562C99.3029 15.2432 99.3352 15.2373 99.3675 15.2391C99.3997 15.2408 99.431 15.2502 99.4587 15.2663C99.4863 15.2824 99.5095 15.3049 99.5263 15.3317C99.5431 15.3586 99.5531 15.3891 99.5553 15.4207C99.6618 16.6897 99.8561 17.7378 100.138 18.565C100.373 19.2512 100.484 19.8872 100.472 20.4732C100.469 20.611 100.497 20.7411 100.556 20.8633C101.2 22.1652 101.539 23.9324 101.788 24.91C102.866 29.1838 103.958 33.4546 105.064 37.7222C105.509 39.4392 105.766 40.7098 105.834 41.5339Z" fill="#514F4B" fill-opacity="0.992"/>
<path d="M210.001 17.1128L209.719 20.7506C209.714 20.8154 209.725 20.8804 209.752 20.9396C209.779 20.9988 209.82 21.0504 209.872 21.0896C209.924 21.1288 209.985 21.1545 210.049 21.1642C210.113 21.174 210.179 21.1675 210.24 21.1454C210.381 21.0953 210.416 21.0263 210.344 20.9386L215.965 20.9433C216.121 20.9433 216.2 21.0201 216.2 21.1736L216.214 22.6729C216.214 22.8358 216.132 22.9173 215.97 22.9173L210.231 22.8985C210.24 22.8108 210.214 22.7606 210.151 22.7481C210.111 22.7398 210.069 22.7404 210.03 22.75C209.99 22.7595 209.953 22.7777 209.921 22.8033C209.889 22.829 209.863 22.8613 209.845 22.8981C209.827 22.9348 209.818 22.9751 209.817 23.016C209.761 27.7755 209.74 32.5492 209.756 37.3369C209.761 38.8879 210.358 40.4342 211.782 40.97L214.771 40.9653C214.84 40.9652 214.908 40.9828 214.969 41.0165C215.03 41.0502 215.082 41.0989 215.119 41.158L215.857 42.3001C215.877 42.3315 215.89 42.3666 215.897 42.4032C215.903 42.4398 215.902 42.4772 215.894 42.5131C215.885 42.5491 215.87 42.5829 215.848 42.6125C215.826 42.6421 215.799 42.6669 215.767 42.6855C215.326 42.9456 214.848 43.0693 214.334 43.0568C209.845 43.3529 207.914 41.4259 208.012 37.0878C208.116 32.5319 208.083 27.915 207.914 23.2369C207.911 23.1622 207.887 23.0898 207.844 23.0282C207.802 22.9667 207.743 22.9184 207.674 22.8891C207.483 22.8076 207.441 22.8327 207.547 22.9643L204.224 22.9267C204.14 22.9255 204.06 22.8917 204.001 22.8328C203.942 22.7739 203.909 22.6945 203.909 22.6118L203.9 21.2488C203.9 21.0483 204 20.9496 204.201 20.9527L207.444 21.0232C207.983 21.0859 208.034 20.5438 207.599 19.397L207.561 16.5206C207.558 16.3169 207.657 16.2151 207.857 16.2151L209.728 16.2198C209.881 16.2198 209.99 16.2903 210.052 16.4313C210.149 16.6538 210.132 16.8809 210.001 17.1128Z" fill="black"/>
<path d="M142.81 16.3936C142.396 17.1142 141.954 17.8161 141.484 18.4992C140.469 19.975 139.647 21.9067 139.459 23.3872C139.167 25.6714 138.584 27.7112 139.078 29.845C139.346 31.0106 139.426 32.0822 139.755 33.1068C140.008 33.8932 140.215 34.7001 140.375 35.5273C137.395 29.4126 138.363 21.5025 142.81 16.3936Z" fill="#514F4B" fill-opacity="0.992"/>
<path d="M210.001 17.1128C210.129 18.2659 210.15 19.4111 210.062 20.5485C210.052 20.655 210.07 20.7365 210.114 20.7929C210.17 20.8618 210.247 20.9104 210.344 20.9386C210.416 21.0263 210.381 21.0953 210.24 21.1454C210.179 21.1675 210.114 21.174 210.049 21.1642C209.985 21.1545 209.924 21.1288 209.872 21.0896C209.821 21.0504 209.779 20.9988 209.753 20.9396C209.726 20.8804 209.714 20.8154 209.719 20.7506L210.001 17.1128Z" fill="#514F4B" fill-opacity="0.992"/>
<path d="M113.025 19.2324C113.22 19.2826 113.26 19.4909 113.148 19.8575C111.559 25.0698 110.163 30.3385 108.546 35.5367C108.23 36.5488 108.036 37.5875 107.964 38.6528C107.935 39.0445 107.78 39.3453 107.498 39.5552C107.472 39.5748 107.442 39.5879 107.41 39.5934C107.378 39.599 107.345 39.5969 107.313 39.5872C107.282 39.5776 107.254 39.5608 107.23 39.538C107.207 39.5153 107.189 39.4874 107.179 39.4565C106.812 38.3661 106.906 37.2522 106.582 36.2511C106.215 35.1294 105.907 33.992 105.656 32.8389C105.374 31.5511 104.537 29.6758 104.636 27.9039L107.291 38.4695C107.367 38.7641 107.447 38.7656 107.531 38.4742L113.025 19.2324Z" fill="#514F4B" fill-opacity="0.992"/>
<path d="M143.294 19.3782C142.216 21.4744 141.542 23.757 141.273 26.2261C141.06 23.6567 141.733 21.3741 143.294 19.3782Z" fill="#514F4B" fill-opacity="0.992"/>
<path d="M207.444 21.0232L207.599 19.397C208.034 20.5438 207.983 21.0858 207.444 21.0232Z" fill="#514F4B" fill-opacity="0.992"/>
<path d="M135.205 27.0861C134.882 28.3238 134.992 29.0272 135.534 29.1964L135.642 31.4618C135.644 31.4988 135.639 31.5357 135.626 31.5705C135.613 31.6052 135.593 31.6369 135.568 31.6637C135.542 31.6906 135.511 31.7119 135.477 31.7265C135.443 31.7411 135.407 31.7486 135.37 31.7485L121.19 31.7391C120.833 31.4822 120.43 31.4054 119.982 31.5088C119.678 31.5809 119.501 31.7328 119.451 31.9647C119.397 32.1966 119.455 32.4629 119.625 32.7637C119.741 32.8514 119.752 32.9846 119.658 33.1632C119.065 37.0172 123.183 41.8864 127.295 41.0545L129.377 41.0451C130.402 41.3083 131.448 41.1046 132.517 40.4341C132.67 40.2367 132.882 40.1176 133.151 40.0769C133.33 40.0518 133.469 40.1145 133.57 40.2649L134.218 41.2472C134.26 41.3122 134.287 41.3857 134.297 41.4622C134.307 41.5388 134.3 41.6165 134.277 41.6898C134.254 41.7631 134.214 41.8302 134.162 41.8861C134.109 41.9421 134.045 41.9855 133.974 42.0133C132.087 42.7496 130.231 43.1068 128.404 43.0849C127.865 43.0003 127.325 43.0144 126.783 43.1272C126.457 43.0238 126.175 43.0034 125.937 43.0661L122.398 41.9381C122.019 41.7971 121.711 41.6169 121.476 41.3976C121.122 40.8399 120.712 40.3307 120.245 39.8701C119.65 39.2779 119.244 38.7828 119.028 38.3849C118.147 36.743 117.585 34.8944 117.34 32.8389C117.14 31.8143 117.17 30.7991 117.43 29.7933C117.774 29.3672 117.879 28.8298 117.745 28.1812C117.729 28.0371 117.779 27.8867 117.895 27.73L117.998 27.6783C118.002 27.6752 118.003 27.6736 118.003 27.6736L119.564 24.3178C119.958 23.6379 120.486 23.0488 121.147 22.5506L125.768 20.5766C130.425 19.7635 134.228 22.5835 135.205 27.0861ZM121.204 29.798L132.742 29.8027C132.532 30.1787 132.67 30.2053 133.156 29.8826C133.3 29.7855 133.361 29.6507 133.339 29.4784C133.255 28.7593 133.25 28.3081 132.987 27.5279C132.573 26.3012 132.695 25.4082 131.45 24.4729L130.533 23.5658C130.12 22.9485 129.571 22.571 128.888 22.4331C123.653 21.3756 120.621 24.6421 119.441 29.2434C119.329 29.6852 119.498 29.9484 119.949 30.033C120.547 30.1458 120.966 30.0675 121.204 29.798Z" fill="black"/>
<path d="M173.919 20.4873C173.32 20.8069 172.711 20.9087 172.09 20.7928C172.607 20.539 173.217 20.4371 173.919 20.4873Z" fill="#514F4B" fill-opacity="0.992"/>
<path d="M194.914 20.5296C194.845 20.539 194.782 20.5578 194.726 20.586C194.591 20.6549 194.571 20.7474 194.665 20.8633C194.771 20.9855 194.937 21.0247 195.163 20.9808C196.803 20.6565 198.556 22.466 199.576 24.0781C199.957 24.6797 199.666 25.6103 200.488 26.0897L200.667 26.5409C200.62 26.5472 200.579 26.5519 200.544 26.555C200.507 26.5581 200.486 26.5785 200.483 26.6161C200.402 31.2973 200.428 35.9754 200.563 40.6503C200.576 41.1015 200.668 41.5088 200.841 41.8723C200.86 41.9143 200.872 41.96 200.873 42.0065C200.875 42.053 200.866 42.0993 200.849 42.1426C200.832 42.1858 200.806 42.225 200.773 42.2577C200.74 42.2905 200.701 42.3161 200.657 42.3329C200.181 42.5178 199.681 42.6118 199.158 42.6149C198.76 42.7778 198.572 42.4332 198.594 41.5809C198.769 41.02 198.81 40.4764 198.716 39.95C198.685 39.7839 198.586 39.715 198.42 39.7432C198.119 39.7996 197.991 39.9986 198.035 40.3401C196.662 41.9945 194.886 42.9141 192.705 43.099L188.644 42.5538C187.764 42.2812 187.027 41.7282 186.435 40.8947C186.297 40.2524 186.05 39.6461 185.692 39.0758C185.605 38.9379 185.559 38.7875 185.556 38.6246L185.467 35.1748C185.523 34.5231 185.769 33.992 186.205 33.5815C187.251 32.3156 188.439 31.3866 189.767 30.7944C189.864 30.7505 189.974 30.6205 190.096 30.4043C190.557 30.1442 191.021 29.9891 191.488 29.939C192.572 30.1082 193.512 29.9312 194.308 29.4079C194.693 29.2418 195.153 29.1792 195.689 29.2199C196.589 29.48 197.452 29.5191 198.279 29.3374C198.383 29.314 198.474 29.2541 198.537 29.1687C198.6 29.0832 198.63 28.978 198.622 28.8721C198.575 28.2768 198.519 27.6626 198.453 27.0297C198.443 26.9451 198.423 26.8715 198.392 26.8088C198.292 26.6271 198.227 26.5754 198.199 26.6537C198.13 26.5002 198.086 26.3075 198.068 26.0756C198.19 26.0192 198.215 25.8829 198.143 25.6667C197.066 22.4707 193.795 21.4038 190.67 22.6728L187.549 24.1204C187.486 24.1517 187.439 24.1345 187.408 24.0687L186.675 22.5318C186.628 22.4347 186.65 22.3579 186.741 22.3015C189.257 20.7066 191.981 20.116 194.914 20.5296ZM190.327 32.4112L188.508 33.8823C187.392 35.2108 187.132 36.7697 187.728 38.5588C188.118 39.7432 189.034 40.8054 190.223 41.1062C192.435 41.6702 194.315 41.3083 195.863 40.0205L197.316 38.5917C198.227 37.8491 198.677 37.0485 198.664 36.19C198.646 34.6014 198.583 32.9251 198.476 31.161C197.608 31.2863 197.037 31.2597 196.761 31.0811C194.452 30.8148 192.307 31.2581 190.327 32.4112Z" fill="black"/>
<path d="M260.69 35.4661C260.58 37.3493 260.551 39.2387 260.601 41.1343C260.604 41.2095 260.618 41.28 260.643 41.3458C260.771 41.6717 260.854 41.6889 260.892 41.3975L261.301 42.3375C261.364 42.4879 261.315 42.5757 261.155 42.6007C259.761 42.8138 258.917 42.6838 258.622 42.2106L258.716 40.1003C258.722 39.9437 258.656 39.8293 258.519 39.7572C258.412 39.704 258.296 39.7353 258.171 39.8512C258.052 39.964 258.014 40.1129 258.058 40.2977C256.729 41.8738 255.133 42.7731 253.269 42.9955C251.821 43.0378 250.801 43.1177 249.372 42.5913C248.777 42.372 248.163 42.1715 247.53 41.9897C246.903 41.573 246.432 41.0591 246.115 40.4481L245.283 38.0135C245.086 37.4057 245.07 36.8354 245.236 36.3027C245.584 35.9048 245.71 35.3612 245.612 34.6718C245.6 34.5559 245.636 34.4478 245.72 34.3475C246.109 34.0154 246.372 33.5767 246.51 33.0315C246.463 33.0033 246.504 32.9344 246.632 32.8247C248.136 31.4899 249.264 31.0246 251.102 30.2867C252.296 29.8073 253.682 29.8872 254.979 29.2903C256.013 29.0553 256.989 29.0036 257.908 29.1352C258.186 29.176 258.324 29.0538 258.321 28.7686C258.298 26.6959 257.87 24.3882 256.023 23.2508C253.668 21.8079 250.007 22.5834 247.854 23.9464C247.566 24.1282 247.356 24.0608 247.224 23.7443L246.816 22.7573C246.681 22.4315 246.77 22.1839 247.083 22.0147C252.752 18.9973 260.046 19.7587 260.699 27.5748C260.812 28.9566 260.809 31.5871 260.69 35.4661ZM251.299 31.9975L248.616 33.7365C247.591 34.8332 247.201 36.121 247.445 37.5999C247.765 39.5457 248.848 40.6988 250.693 41.0591C251.668 41.1876 252.622 41.15 253.555 40.9463C253.537 41.0685 253.646 41.1202 253.884 41.1014C254.213 41.0732 254.434 40.8147 254.777 40.7254C256.131 40.3776 258.378 37.8913 258.246 36.5471L258.269 31.5087C258.269 31.3239 258.177 31.2346 257.992 31.2408L254.18 31.3865C252.821 31.2111 251.86 31.4147 251.299 31.9975Z" fill="black"/>
<path d="M125.767 20.5767L121.147 22.5507C122.497 21.3631 124.037 20.7051 125.767 20.5767Z" fill="#514F4B" fill-opacity="0.992"/>
<path d="M175.503 20.5249C180.02 21.3568 182.036 24.9523 182.036 29.2293C182.036 33.4781 182.044 37.7426 182.059 42.0227C182.059 42.4833 181.831 42.7261 181.373 42.7512L180.269 42.8123C179.777 42.8405 179.531 42.6071 179.531 42.112C179.543 37.3556 179.537 32.6775 179.512 28.0778C179.506 27.166 179.064 25.9926 178.187 24.5575C178.299 24.5074 178.386 24.5246 178.445 24.6092C179.427 26.0239 179.921 27.495 179.921 29.3421C179.918 33.5063 179.894 37.7285 179.85 42.0086C179.847 42.3752 180.027 42.5491 180.391 42.5303L181.063 42.5021C181.43 42.4833 181.607 42.2906 181.594 41.924C181.444 37.5687 181.419 33.1773 181.519 28.7499C181.557 27.0704 181.389 25.7936 181.016 24.9194C180.184 22.9689 178.44 21.3286 176.227 20.9009C175.954 20.8508 175.713 20.7254 175.503 20.5249Z" fill="#514F4B" fill-opacity="0.992"/>
<path d="M194.913 20.5295C198.003 21.1249 199.861 22.9782 200.488 26.0896C199.665 25.6102 199.957 24.6796 199.576 24.078C198.556 22.4659 196.803 20.6564 195.163 20.9807C194.937 21.0246 194.771 20.9854 194.664 20.8632C194.57 20.7473 194.591 20.6549 194.725 20.5859C194.782 20.5577 194.845 20.5389 194.913 20.5295Z" fill="#514F4B" fill-opacity="0.992"/>
<path d="M265.748 21.6154C266.346 23.8588 267.162 26.0161 268.196 28.0873C268.497 28.6936 268.572 29.3798 268.901 30.0237C269.127 30.4623 269.318 30.9261 269.475 31.4149C269.663 31.9945 269.959 32.5272 270.363 33.0129C270.429 33.0693 270.463 33.1492 270.466 33.2526C270.379 33.4312 270.399 33.6646 270.528 33.9529C271.273 35.6605 271.853 37.3087 272.267 38.8973C272.417 39.4769 272.646 39.5098 272.953 38.996C273.213 38.5667 273.313 38.0105 273.254 37.3275C273.232 37.1207 273.322 36.8622 273.526 36.552C273.545 36.6052 273.578 36.6319 273.625 36.6319C273.688 36.635 273.73 36.6068 273.752 36.5473L277.526 26.0898L278.973 22.1324C279.312 21.9976 279.5 21.653 279.537 21.0984C279.547 20.9386 279.631 20.8571 279.791 20.854L281.507 20.7976C281.635 20.7944 281.704 20.8571 281.714 20.9856C281.723 21.114 281.764 21.2033 281.836 21.2535C281.701 21.7235 281.518 22.1167 281.286 22.4332C279.077 27.1551 277.079 31.9522 275.293 36.8246C273.728 41.0969 271.923 45.3598 269.155 49.0211C268.51 49.9924 267.576 50.7773 266.354 51.3758C266.078 51.3789 265.804 51.4901 265.531 51.7095C265.403 51.8129 265.257 51.8661 265.094 51.8693C264.825 51.8755 264.604 51.9257 264.432 52.0197C264.059 51.5935 263.797 51.1329 263.647 50.6379C263.597 50.4687 263.651 50.348 263.811 50.276C265.754 49.408 267.388 48.1563 268.713 46.5207C269.885 45.33 270.783 43.9075 271.406 42.2531C271.707 41.4541 270.767 39.8279 270.462 39.0242C270.377 38.7986 270.26 38.75 270.109 38.8785C270.059 38.8221 270.039 38.7453 270.048 38.6482C270.114 38.4461 270.142 38.244 270.062 38.0372C268.301 33.5784 266.457 29.1463 264.53 24.7409L262.946 20.9809C262.837 20.7239 262.923 20.5955 263.205 20.5955L264.949 20.6002C265.115 20.6002 265.257 20.6566 265.376 20.7694C265.636 21.0169 265.76 21.2989 265.748 21.6154Z" fill="black"/>
<path d="M282 20.6895V21.0326C281.928 20.9824 281.873 21.0561 281.835 21.2535C281.763 21.2033 281.723 21.114 281.713 20.9856C281.704 20.8571 281.635 20.7944 281.506 20.7976L279.791 20.854C279.631 20.8571 279.547 20.9386 279.537 21.0984C279.5 21.653 279.312 21.9976 278.973 22.1324L279.406 20.8822C279.465 20.7161 279.583 20.6346 279.758 20.6378L282 20.6895Z" fill="#514F4B" fill-opacity="0.992"/>
<path d="M265.748 21.6152L270.363 33.0127C269.959 32.5271 269.663 31.9944 269.475 31.4147C269.318 30.9259 269.127 30.4622 268.901 30.0235C268.572 29.3796 268.497 28.6934 268.196 28.0871C267.162 26.016 266.346 23.8587 265.748 21.6152Z" fill="#514F4B" fill-opacity="0.992"/>
<path d="M241.744 21.949C241.901 22.9297 241.582 23.8258 240.786 24.6374L241.744 21.949Z" fill="#514F4B" fill-opacity="0.992"/>
<path d="M244.099 22.0713C243.927 23.5502 243.41 24.8177 242.548 25.8736L243.54 23.9278C243.609 23.7931 243.643 23.6489 243.643 23.4954C243.64 22.8969 243.792 22.4222 244.099 22.0713Z" fill="#514F4B" fill-opacity="0.992"/>
<path d="M130.533 23.5659C125.419 20.5767 120.48 24.1346 119.812 29.502C119.794 29.643 119.856 29.7182 120 29.7276L121.204 29.7981C120.965 30.0676 120.547 30.1459 119.949 30.0331C119.497 29.9485 119.328 29.6853 119.441 29.2435C120.621 24.6422 123.652 21.3757 128.888 22.4332C129.571 22.5711 130.119 22.9486 130.533 23.5659Z" fill="#514F4B" fill-opacity="0.992"/>
<path d="M198.067 26.0757C196.883 22.3016 194.002 22.4144 190.669 22.6729C193.795 21.4039 197.066 22.4708 198.142 25.6668C198.214 25.883 198.189 26.0193 198.067 26.0757Z" fill="#514F4B" fill-opacity="0.992"/>
<path d="M174.995 22.6539L172.702 22.668C173.103 22.1948 173.867 22.1901 174.995 22.6539Z" fill="#514F4B" fill-opacity="0.992"/>
<path d="M281.285 22.4331C279.076 28.2611 276.777 34.0327 274.386 39.7479C273.032 42.9815 271.27 47.5687 269.155 49.021C271.923 45.3597 273.728 41.0968 275.293 36.8245C277.079 31.9522 279.076 27.155 281.285 22.4331Z" fill="#514F4B" fill-opacity="0.992"/>
<path d="M177.806 24.0735L175.799 22.8891L175.893 22.7951C175.934 22.7544 175.984 22.7418 176.043 22.7575C176.82 22.9549 177.408 23.3936 177.806 24.0735Z" fill="#514F4B" fill-opacity="0.992"/>
<path d="M210.231 22.8984C210.146 22.9799 210.104 23.0629 210.104 23.1475C210.088 28.164 210.093 33.1757 210.118 38.1828C210.124 39.3359 210.679 40.2649 211.782 40.9699C210.358 40.4341 209.761 38.8878 209.756 37.3368C209.74 32.5491 209.761 27.7754 209.817 23.0159C209.818 22.975 209.827 22.9347 209.845 22.898C209.863 22.8612 209.889 22.8289 209.921 22.8032C209.953 22.7776 209.99 22.7594 210.03 22.7499C210.069 22.7403 210.111 22.7397 210.151 22.748C210.214 22.7605 210.24 22.8107 210.231 22.8984Z" fill="#514F4B" fill-opacity="0.992"/>
<path d="M214.334 43.0567C209.047 44.2411 207.557 40.373 207.557 36.0725C207.56 31.7422 207.557 27.3728 207.547 22.9642C207.441 22.8326 207.483 22.8075 207.674 22.889C207.743 22.9183 207.802 22.9666 207.845 23.0282C207.887 23.0897 207.911 23.1621 207.914 23.2368C208.083 27.9149 208.116 32.5318 208.013 37.0877C207.914 41.4258 209.846 43.3528 214.334 43.0567Z" fill="#514F4B" fill-opacity="0.992"/>
<path d="M119.564 24.3179L118.003 27.6737C118.003 27.6737 118.002 27.6752 117.998 27.6784L117.895 27.7301C118.186 26.3984 118.743 25.261 119.564 24.3179Z" fill="#514F4B" fill-opacity="0.992"/>
<path d="M132.742 29.8027C133.262 28.2078 132.832 26.4312 131.45 24.4729C132.695 25.4082 132.573 26.3012 132.987 27.5279C133.25 28.3081 133.255 28.7593 133.339 29.4784C133.361 29.6507 133.3 29.7855 133.156 29.8826C132.67 30.2053 132.532 30.1787 132.742 29.8027Z" fill="#514F4B" fill-opacity="0.992"/>
<path d="M270.048 38.648L264.53 24.7407C266.457 29.1462 268.301 33.5783 270.062 38.037C270.142 38.2438 270.114 38.4459 270.048 38.648Z" fill="#514F4B" fill-opacity="0.992"/>
<path d="M168.749 25.0227C167.731 26.417 167.22 27.4808 167.217 28.214C167.207 32.9516 167.204 37.6453 167.207 42.2952C167.208 42.3651 167.193 42.4344 167.165 42.4986C167.137 42.5627 167.096 42.6205 167.044 42.6681C166.993 42.7158 166.932 42.7523 166.865 42.7755C166.799 42.7987 166.728 42.808 166.657 42.8028L165.196 42.6947L166.714 42.3845C166.886 42.35 166.971 42.2451 166.968 42.0696C166.936 34.9068 166.936 30.3619 166.968 28.4349C166.99 27.0594 167.583 25.922 168.749 25.0227Z" fill="#514F4B" fill-opacity="0.992"/>
<path d="M277.526 26.0896L273.751 36.5471C273.73 36.6066 273.687 36.6348 273.625 36.6317C273.578 36.6317 273.545 36.6051 273.526 36.5518L277.526 26.0896Z" fill="#514F4B" fill-opacity="0.992"/>
<path d="M195.689 29.22L198.015 29.1213C198.061 29.1195 198.106 29.1086 198.148 29.0893C198.19 29.07 198.227 29.0426 198.257 29.0089C198.288 28.9751 198.312 28.9357 198.327 28.8928C198.342 28.85 198.348 28.8046 198.344 28.7594L198.199 26.6538C198.227 26.5755 198.291 26.6272 198.391 26.8089C198.423 26.8716 198.443 26.9452 198.453 27.0298C198.518 27.6627 198.575 28.2769 198.622 28.8722C198.63 28.978 198.6 29.0833 198.537 29.1688C198.474 29.2542 198.382 29.3141 198.279 29.3375C197.451 29.5192 196.588 29.4801 195.689 29.22Z" fill="#514F4B" fill-opacity="0.992"/>
<path d="M200.666 26.541L200.906 41.1533C200.906 41.1845 200.911 41.2162 200.92 41.2473L201.306 42.3847C201.365 42.5602 201.302 42.6463 201.118 42.6432L199.158 42.615C199.681 42.6119 200.181 42.5179 200.657 42.333C200.7 42.3162 200.74 42.2906 200.773 42.2578C200.806 42.2251 200.832 42.1859 200.849 42.1427C200.866 42.0994 200.874 42.0531 200.873 42.0066C200.871 41.9601 200.86 41.9144 200.84 41.8724C200.668 41.5089 200.576 41.1016 200.563 40.6504C200.428 35.9755 200.402 31.2974 200.483 26.6162C200.486 26.5786 200.507 26.5582 200.544 26.5551C200.579 26.552 200.619 26.5473 200.666 26.541Z" fill="#514F4B" fill-opacity="0.992"/>
<path d="M135.205 27.0862C135.428 27.7316 135.537 28.4351 135.534 29.1965C134.992 29.0273 134.882 28.3238 135.205 27.0862Z" fill="#514F4B" fill-opacity="0.992"/>
<path d="M237.477 27.1707C237.079 27.3461 236.686 27.5247 236.297 27.7065C234.972 28.3175 232.053 27.9838 230.568 27.9227C230.377 27.9164 230.208 27.8741 230.061 27.7958C229.854 27.683 229.711 27.5749 229.633 27.4715C232.346 27.9853 234.961 27.8851 237.477 27.1707Z" fill="#514F4B" fill-opacity="0.992"/>
<path d="M240.4 27.8757C239.545 28.5306 238.574 28.9849 237.486 29.2387L240.4 27.8757Z" fill="#514F4B" fill-opacity="0.992"/>
<path d="M117.745 28.1812C117.879 28.8298 117.774 29.3671 117.43 29.7933C117.398 29.1917 117.503 28.6543 117.745 28.1812Z" fill="#514F4B" fill-opacity="0.992"/>
<path d="M254.98 29.2903C253.682 29.8872 252.296 29.8073 251.102 30.2867C249.264 31.0246 248.136 31.4899 246.632 32.8247C248.714 30.4136 251.873 29.4689 254.98 29.2903Z" fill="#514F4B" fill-opacity="0.992"/>
<path d="M194.307 29.4079C193.511 29.9312 192.571 30.1082 191.487 29.939C192.418 29.5568 193.358 29.3797 194.307 29.4079Z" fill="#514F4B" fill-opacity="0.992"/>
<path d="M141.292 29.7932C142.097 35.3831 144.874 38.9582 149.625 40.5186C149.781 40.6189 149.72 40.6737 149.441 40.6831C148.393 40.7207 145.23 38.4882 144.779 38.0464C142.479 35.8061 141.317 33.055 141.292 29.7932Z" fill="#514F4B" fill-opacity="0.992"/>
<path d="M190.096 30.4043C189.974 30.6205 189.864 30.7505 189.767 30.7944C188.439 31.3866 187.251 32.3156 186.205 33.5815C187.054 32.0493 188.351 30.9902 190.096 30.4043Z" fill="#514F4B" fill-opacity="0.992"/>
<path d="M196.761 31.0811C194.436 31.2534 192.291 31.6968 190.327 32.4112C192.307 31.2581 194.452 30.8147 196.761 31.0811Z" fill="#514F4B" fill-opacity="0.992"/>
<path d="M198.476 31.1609C198.583 32.925 198.646 34.6013 198.664 36.1899C198.677 37.0484 198.227 37.849 197.315 38.5916C197.894 37.5388 198.298 36.7539 198.288 35.4755C198.279 34.1 198.342 32.6618 198.476 31.1609Z" fill="#514F4B" fill-opacity="0.992"/>
<path d="M254.181 31.3866L251.3 31.9976C251.861 31.4148 252.821 31.2111 254.181 31.3866Z" fill="#514F4B" fill-opacity="0.992"/>
<path d="M121.189 31.7392L119.887 31.7909C119.718 31.7971 119.634 31.8849 119.634 32.0541L119.624 32.7638C119.455 32.463 119.397 32.1966 119.45 31.9648C119.5 31.7329 119.677 31.5809 119.981 31.5089C120.429 31.4055 120.832 31.4822 121.189 31.7392Z" fill="#514F4B" fill-opacity="0.992"/>
<path d="M117.34 32.8389C117.584 34.8943 118.147 36.743 119.027 38.3849C119.244 38.7828 119.649 39.2779 120.245 39.8701C120.712 40.3307 121.122 40.8398 121.476 41.3976C118.618 39.2857 117.24 36.4328 117.34 32.8389Z" fill="#514F4B" fill-opacity="0.992"/>
<path d="M246.51 33.0315C246.372 33.5767 246.109 34.0154 245.721 34.3475C245.796 33.89 246.059 33.4514 246.51 33.0315Z" fill="#514F4B" fill-opacity="0.992"/>
<path d="M119.657 33.1631C120.329 37.6375 122.327 40.8194 127.295 41.0544C123.182 41.8863 119.065 37.0171 119.657 33.1631Z" fill="#514F4B" fill-opacity="0.992"/>
<path d="M270.466 33.2524L272.426 38.6574C272.532 38.9457 272.639 38.9473 272.745 38.6621L273.253 37.3273C273.313 38.0104 273.212 38.5666 272.952 38.9958C272.645 39.5097 272.416 39.4768 272.266 38.8971C271.852 37.3085 271.273 35.6604 270.527 33.9527C270.399 33.6645 270.378 33.431 270.466 33.2524Z" fill="#514F4B" fill-opacity="0.992"/>
<path d="M248.616 33.7366C246.985 36.2793 247.413 40.138 250.693 41.0592C248.848 40.6988 247.765 39.5458 247.446 37.6C247.201 36.121 247.591 34.8332 248.616 33.7366Z" fill="#514F4B" fill-opacity="0.992"/>
<path d="M188.507 33.8823C185.786 39.9312 190.928 42.958 195.863 40.0205C194.315 41.3083 192.435 41.6702 190.223 41.1062C189.034 40.8054 188.117 39.7432 187.727 38.5588C187.132 36.7697 187.392 35.2109 188.507 33.8823Z" fill="#514F4B" fill-opacity="0.992"/>
<path d="M245.613 34.6719C245.71 35.3612 245.585 35.9048 245.237 36.3028C245.187 35.7356 245.312 35.192 245.613 34.6719Z" fill="#514F4B" fill-opacity="0.992"/>
<path d="M185.467 35.1748L185.556 38.6246C185.559 38.7875 185.604 38.9379 185.692 39.0758C186.049 39.6461 186.297 40.2524 186.435 40.8947C185.16 39.234 184.837 37.3274 185.467 35.1748Z" fill="#514F4B" fill-opacity="0.992"/>
<path d="M260.69 35.4663L260.892 41.3977C260.855 41.6891 260.772 41.6719 260.643 41.346C260.618 41.2802 260.604 41.2097 260.601 41.1345C260.551 39.2388 260.58 37.3494 260.69 35.4663Z" fill="#514F4B" fill-opacity="0.992"/>
<path d="M258.246 36.5471C258.378 37.8913 256.131 40.3776 254.778 40.7254C254.435 40.8147 254.214 41.0732 253.885 41.1014C253.647 41.1202 253.537 41.0685 253.556 40.9463C255.862 40.3479 257.425 38.8815 258.246 36.5471Z" fill="#514F4B" fill-opacity="0.992"/>
<path d="M141.104 36.7117C142.667 38.9802 144.619 40.6064 146.96 41.5903C147.752 41.9224 148.547 42.2498 149.343 42.5726C150.32 42.9642 152.241 43.1005 155.105 42.9815C154.16 43.1742 153.474 43.3293 152.459 43.1554C151.914 43.0614 151.364 43.1413 150.828 43.0332C146.56 42.1731 143.303 40.5986 141.104 36.7117Z" fill="#514F4B" fill-opacity="0.992"/>
<path d="M245.284 38.0137L246.116 40.4483C245.574 39.6555 245.296 38.844 245.284 38.0137Z" fill="#514F4B" fill-opacity="0.992"/>
<path d="M268.713 46.5207L271.124 41.9899C271.202 41.8395 271.21 41.6844 271.147 41.5246L270.109 38.8785C270.259 38.75 270.377 38.7986 270.461 39.0242C270.767 39.8279 271.707 41.4541 271.406 42.2531C270.782 43.9075 269.885 45.33 268.713 46.5207Z" fill="#514F4B" fill-opacity="0.992"/>
<path d="M198.594 41.5809C198.491 41.3428 198.422 41.0717 198.387 40.7678C198.34 40.373 198.223 40.2304 198.035 40.3401C197.991 39.9986 198.119 39.7996 198.42 39.7432C198.586 39.715 198.685 39.7839 198.716 39.95C198.81 40.4764 198.77 41.02 198.594 41.5809Z" fill="#514F4B" fill-opacity="0.992"/>
<path d="M258.622 42.2107C258.509 41.7501 258.345 40.3636 258.312 40.326C258.249 40.254 258.165 40.2446 258.058 40.2978C258.014 40.113 258.052 39.9641 258.171 39.8513C258.296 39.7354 258.412 39.7041 258.519 39.7573C258.657 39.8294 258.723 39.9438 258.716 40.1004L258.622 42.2107Z" fill="#514F4B" fill-opacity="0.992"/>
<path d="M159.297 40.3071C158.088 41.0497 156.877 41.2957 155.664 41.045L159.297 40.3071Z" fill="#514F4B" fill-opacity="0.992"/>
<path d="M132.517 40.4341C131.448 41.1046 130.402 41.3083 129.377 41.0451L132.517 40.4341Z" fill="#514F4B" fill-opacity="0.992"/>
<path d="M150.118 40.6362L153.591 41.0545C152.633 41.266 150.955 41.3835 150.118 40.6362Z" fill="#514F4B" fill-opacity="0.992"/>
<path d="M161.172 41.158C161.58 41.5308 161.309 41.8583 160.359 42.1403C158.902 42.5727 157.423 42.8923 155.923 43.0991C155.8 43.1179 155.678 43.0787 155.556 42.9816C155.537 42.9408 155.617 42.9111 155.796 42.8923C157.419 42.7231 159.007 42.3847 160.561 41.8771C160.906 41.7611 161.11 41.5214 161.172 41.158Z" fill="#514F4B" fill-opacity="0.992"/>
<path d="M91.7438 41.7312C91.7908 43.1976 90.3103 42.8357 89.375 42.7229C90.1458 42.1636 91.0717 42.9297 91.7438 41.7312Z" fill="#514F4B" fill-opacity="0.992"/>
<path d="M122.397 41.938L125.937 43.066C124.611 42.9783 123.431 42.6023 122.397 41.938Z" fill="#514F4B" fill-opacity="0.992"/>
<path d="M247.53 41.9897C248.163 42.1715 248.777 42.372 249.373 42.5913C250.801 43.1177 251.821 43.0378 253.269 42.9955C251.179 43.547 249.266 43.2117 247.53 41.9897Z" fill="#514F4B" fill-opacity="0.992"/>
<path d="M192.705 43.0989C191.448 43.4248 190.095 43.243 188.644 42.5537L192.705 43.0989Z" fill="#514F4B" fill-opacity="0.992"/>
<path d="M128.404 43.0849C127.759 43.3042 127.218 43.3183 126.783 43.1272C127.325 43.0144 127.865 43.0003 128.404 43.0849Z" fill="#514F4B" fill-opacity="0.992"/>
<path d="M266.354 51.3757C265.812 51.8175 265.27 52.1121 264.728 52.2593C264.546 52.3063 264.447 52.2264 264.432 52.0196C264.604 51.9256 264.825 51.8755 265.094 51.8692C265.257 51.8661 265.403 51.8128 265.531 51.7094C265.804 51.4901 266.078 51.3789 266.354 51.3757Z" fill="#514F4B" fill-opacity="0.992"/>
</g>
<defs>
<clipPath id="clip0_140_378">
<rect width="282" height="54.05" fill="white"/>
</clipPath>
</defs>
</svg>
