<svg width="252" height="67" viewBox="0 0 252 67" fill="none" xmlns="http://www.w3.org/2000/svg">
<g clip-path="url(#clip0_140_439)">
<path d="M52.6219 0H56.2759C57.2755 0.63 58.2037 1.2138 58.6699 2.331C60.4507 6.573 55.9483 11.3778 51.6307 10.3488C48.3379 9.5676 47.0149 6.2202 48.6907 3.234C49.5335 1.7332 50.8439 0.6552 52.6219 0Z" fill="#1FCDC0"/>
<path d="M43.6127 34.7549C43.7807 33.8645 43.5749 33.7665 42.9953 34.4609C40.2569 37.7397 37.4695 41.0353 34.6331 44.3477C31.5797 47.9135 27.5435 51.7019 22.9823 52.8695C22.0163 53.1159 20.6835 53.2405 18.9839 53.2433C12.8715 53.2517 6.76052 53.2489 0.650923 53.2349C0.516523 53.2349 0.436723 53.1677 0.411523 53.0333C0.277123 52.3529 0.621523 51.9161 0.671923 51.3491C0.797923 49.9631 1.00512 48.5925 1.29352 47.2373C1.41952 46.6353 1.69392 46.0851 2.11672 45.5867C8.80872 37.7103 15.5273 29.8423 22.2725 21.9827C22.299 21.9515 22.316 21.9134 22.3215 21.8728C22.327 21.8323 22.3207 21.791 22.3035 21.7539C22.2863 21.7168 22.2588 21.6854 22.2242 21.6634C22.1897 21.6414 22.1496 21.6298 22.1087 21.6299H6.42592C6.26072 21.6299 6.19212 21.5473 6.22012 21.3821L7.43812 14.5109C7.46052 14.3877 7.53472 14.3261 7.66072 14.3261C16.3155 14.3289 24.9689 14.3331 33.6209 14.3387C33.6713 14.3387 33.9331 14.2967 34.4063 14.2127C34.6835 14.1623 34.8963 14.2323 35.0447 14.4227C35.1483 14.5543 35.1763 14.7433 35.1287 14.9897C34.7899 16.8461 34.4819 18.6997 34.2047 20.5505C34.1851 20.6849 34.1305 20.8025 34.0409 20.9033L12.6041 45.1331C12.5641 45.1789 12.538 45.2352 12.5289 45.2954C12.5198 45.3556 12.5281 45.4171 12.5528 45.4728C12.5775 45.5284 12.6176 45.5758 12.6684 45.6094C12.7192 45.6429 12.7785 45.6613 12.8393 45.6623C16.6445 45.6833 21.5165 46.1201 24.8891 45.0407C28.1693 43.9907 30.0425 42.3485 32.4575 39.5219C36.4279 34.8739 40.4263 30.2511 44.4527 25.6535C45.6623 24.2717 46.1957 21.8987 46.4519 19.6769C46.6367 18.0809 47.0987 16.3631 47.2793 14.6621C47.2905 14.5445 47.3563 14.4857 47.4767 14.4857H56.1623C56.3107 14.4857 56.3723 14.5571 56.3471 14.6999C54.6363 24.1751 52.9213 33.6433 51.2021 43.1045C51.0397 43.9865 51.1615 44.7341 51.5675 45.3473C51.6404 45.4608 51.7543 45.5432 51.8867 45.5783C52.8443 45.8247 53.6227 45.6623 54.2219 45.0911C54.7455 44.5927 55.8725 43.3719 57.6029 41.4287C58.5353 40.3815 60.7543 37.7593 64.2599 33.5621C64.7261 33.0077 65.0747 32.1929 65.1965 31.4873C66.1429 26.1365 67.0963 20.7871 68.0567 15.4391C68.0651 15.3915 68.0805 15.3453 68.1029 15.3005C68.1337 15.2389 68.1337 15.1773 68.1029 15.1157C68.0357 14.9869 68.0203 14.8525 68.0567 14.7125C68.0931 14.5585 68.1911 14.4815 68.3507 14.4815H73.6133C73.7729 14.4815 73.8849 14.5543 73.9493 14.6999L76.0619 19.5845C76.0927 19.656 76.1408 19.7186 76.2019 19.7667C76.2631 19.8149 76.3354 19.847 76.4124 19.8604C76.4894 19.8737 76.5687 19.8677 76.6431 19.843C76.7175 19.8183 76.7848 19.7757 76.8389 19.7189C79.3253 17.0771 83.3699 14.1287 87.0365 13.7927C90.4217 13.4777 94.3697 14.7923 96.1253 17.9339C96.4193 18.4631 96.7063 18.9727 96.9863 19.4627C97.0038 19.4936 97.0281 19.5201 97.0574 19.5403C97.0867 19.5605 97.1203 19.5739 97.1556 19.5796C97.191 19.5852 97.2273 19.5829 97.262 19.5729C97.2966 19.5628 97.3287 19.5453 97.3559 19.5215C99.4727 17.5867 101.839 16.0103 104.454 14.7923C107.146 13.5407 109.515 13.5869 112.669 14.2379C114.979 14.7167 117.445 16.6445 118.285 18.8831C119.097 21.0391 119.391 23.2847 119.167 25.6199C118.971 27.6751 118.671 29.7079 118.268 31.7183C118.161 32.2587 118.063 32.7991 117.974 33.3395C117.52 36.0639 116.987 39.0081 116.374 42.1721C116.206 43.0373 116.243 43.8647 116.235 44.7425C116.235 44.8119 116.249 44.881 116.277 44.9459C116.304 45.0107 116.344 45.0701 116.395 45.1205C117.541 46.2503 118.726 45.6203 119.725 44.5997C120.805 43.4951 121.947 42.3653 122.867 41.1221C123.021 40.9149 123.234 40.6573 123.505 40.3493C126.045 37.4877 127.739 35.5067 128.587 34.4063C129.398 33.3563 129.465 31.7057 129.688 30.6851C129.912 29.6491 130.108 28.6089 130.276 27.5645C130.939 23.4261 131.673 19.3003 132.476 15.1871C132.51 15.0149 132.481 14.8679 132.497 14.6831C132.511 14.5515 132.584 14.4857 132.716 14.4857L137.945 14.4815C138.096 14.4815 138.207 14.5501 138.277 14.6873L140.549 19.1729C140.569 19.2127 140.598 19.2472 140.634 19.2735C140.669 19.2998 140.711 19.3171 140.756 19.3241C140.8 19.3311 140.845 19.3275 140.888 19.3136C140.931 19.2997 140.97 19.276 141.002 19.2443C143.559 16.6767 146.468 14.9491 149.73 14.0615C150.242 13.9215 151.224 13.8753 152.674 13.9229C159.596 14.1455 162.767 21.7601 162.763 27.6611C162.763 28.0097 162.964 28.3751 162.784 28.7489C162.725 28.8665 162.701 28.9603 162.712 29.0303C162.721 29.0919 162.737 29.1535 162.763 29.2151C162.807 29.3075 162.827 29.4055 162.821 29.5091L162.653 33.3983C162.645 33.5579 162.589 33.7007 162.485 33.8267C162.46 33.8575 162.435 33.8897 162.41 33.9233C162.289 34.0941 162.334 34.1893 162.544 34.2089C162.819 34.2369 163.048 34.1585 163.233 33.9737C164.627 32.5919 166.186 30.8111 167.735 29.2445C169.667 27.2901 171.542 25.2811 173.359 23.2175C173.775 22.7471 173.754 22.1213 173.918 21.6635C174.191 20.8823 174.271 19.8407 174.384 19.2527C175.496 13.2663 176.578 7.27428 177.631 1.27668C177.656 1.13948 177.738 1.07088 177.878 1.07088C180.544 1.07928 183.212 1.09608 185.884 1.12128C185.976 1.12408 186.075 1.10308 186.182 1.05828C186.311 1.00508 186.416 0.981284 186.497 0.986884C186.626 0.998084 186.679 1.06808 186.656 1.19688C185.189 9.61088 183.707 17.8905 182.209 26.0357C181.831 28.0769 181.595 30.0215 181.159 32.1635C180.466 35.5655 179.907 39.0053 179.336 42.4325C178.214 49.1945 184.569 45.7631 187.013 43.9025C187.954 43.1885 188.926 42.5137 189.928 41.8781C190.483 41.5253 190.751 41.1053 190.701 40.4039C189.827 28.2995 195.594 15.1745 209.034 13.8431C212.029 13.5449 215.599 14.2043 218.06 15.9011C219.899 17.1723 221.171 18.9041 221.873 21.0965C222.195 22.1045 222.221 23.0537 221.949 23.9441C221.525 25.3301 220.916 26.2331 219.66 27.1109C213.188 31.6595 206.543 36.0233 199.987 40.4207C199.718 40.6027 199.633 40.8477 199.731 41.1557C200.714 44.2721 202.667 45.4271 205.699 45.8975C207.875 46.2335 210.916 45.4943 212.755 44.2931C218.072 40.8239 222.923 36.9389 227.892 33.0119C229.803 31.5083 229.543 28.2113 230.315 25.2209C230.467 24.6371 230.445 24.0365 230.546 23.5157C231.115 20.5953 231.623 17.6973 232.071 14.8217C232.107 14.5977 232.239 14.4857 232.466 14.4857H237.619C237.81 14.4857 237.912 14.5795 237.926 14.7671C237.929 14.8119 237.93 14.8567 237.93 14.9015C237.933 15.0671 237.992 15.2271 238.098 15.3551C238.476 15.7975 238.69 16.3113 238.741 16.8965C238.752 17.0225 238.806 17.1247 238.904 17.2031C239.182 17.4257 239.602 18.9419 239.921 19.4333C239.951 19.479 239.99 19.5177 240.037 19.5467C240.083 19.5756 240.135 19.5941 240.19 19.6009C240.244 19.6077 240.299 19.6026 240.351 19.586C240.404 19.5694 240.452 19.5416 240.492 19.5047C243.423 16.8545 247.393 14.0825 251.378 13.7213C251.53 13.7073 251.608 13.7773 251.614 13.9313C251.628 14.3345 251.586 14.8357 251.488 15.4349C251.065 17.9997 250.615 20.5589 250.139 23.1125C250.111 23.2609 250.026 23.3099 249.883 23.2595C248.27 22.7051 247.174 22.4027 245.175 22.7723C244.331 22.9277 242.903 23.8265 242.231 24.4061C241.06 25.4169 240.111 26.5817 239.383 27.9005C238.848 28.8693 238.42 30.2749 238.098 32.1173C236.855 39.2629 235.613 46.4043 234.373 53.5415C234.363 53.5923 234.336 53.6381 234.296 53.671C234.256 53.704 234.206 53.722 234.154 53.7221L225.632 53.7515C225.338 53.7515 225.218 53.6073 225.271 53.3189L227.631 39.9881C227.741 39.3805 227.557 39.2741 227.081 39.6689C223.175 42.9057 219.171 46.0361 215.069 49.0601C213.319 50.3509 211.471 51.4765 209.525 52.4369C204.628 54.8603 198.656 53.6507 194.817 50.0723C193.746 49.0769 192.944 47.6741 192.196 46.3553C192.115 46.2097 192.009 46.1873 191.877 46.2881C187.958 49.3037 184.006 52.2353 179.441 53.4785C177.82 53.9209 176.039 53.9013 174.098 53.4197C167.614 51.8027 169.882 44.3267 170.633 39.8285C171.041 37.3673 171.679 34.8347 171.948 32.4155C172.007 31.9031 171.856 31.8317 171.494 32.2013C166.828 36.9641 162.28 41.8571 157.584 46.5989C154.035 50.1815 148.882 53.1971 143.888 53.2391C140.935 53.2643 138.541 52.1387 136.441 50.1773C136.335 50.0765 136.255 49.9561 136.202 49.8161C136.115 49.5921 135.95 49.4577 135.706 49.4129C135.547 49.3821 135.453 49.4479 135.425 49.6103L132.531 66.1709C132.506 66.3137 132.422 66.3851 132.279 66.3851L123.572 66.3767C123.435 66.3767 123.378 66.3095 123.4 66.1751C124.414 60.4379 125.425 54.6923 126.433 48.9383C126.483 48.6527 126.344 48.2999 126.588 47.9555C126.646 47.8754 126.683 47.7846 126.697 47.6909L127.256 44.0915C127.415 43.0807 127.173 42.9729 126.529 43.7681C123.908 47.0063 120.116 51.9329 116.42 53.5079C115.275 53.9979 113.75 54.0959 111.846 53.8019C111.723 53.7823 111.609 53.7389 111.506 53.6717C111.346 53.5625 111.163 53.5247 110.956 53.5583C110.816 53.5779 110.68 53.5625 110.548 53.5121C106.445 51.9539 106.239 47.8295 106.945 44.0159C107.776 39.4995 108.601 34.9803 109.418 30.4583C109.956 27.4847 110.338 22.9697 106.26 22.3313C102.753 21.7853 99.6659 23.7425 97.9775 26.7035C97.5351 27.4819 97.1795 28.6215 96.9107 30.1223C95.5247 37.9343 94.1373 45.7421 92.7485 53.5457C92.7261 53.6689 92.6533 53.7305 92.5301 53.7305L83.9747 53.7095C83.7787 53.7095 83.6975 53.6129 83.7311 53.4197C85.1003 45.5517 86.4723 37.7201 87.8471 29.9249C88.4855 26.3045 87.7589 22.7261 83.3111 22.6337C82.5971 22.6169 81.8411 22.5497 81.1691 22.7807C78.5483 23.6753 76.5197 25.7879 75.2429 28.1903C74.7949 29.0331 74.4491 30.1643 74.2055 31.5839C72.9511 38.8891 71.6785 46.1915 70.3877 53.4911C70.3625 53.6423 70.2729 53.7179 70.1189 53.7179L61.5467 53.7305C61.5133 53.7303 61.4803 53.7229 61.45 53.7087C61.4197 53.6946 61.3928 53.674 61.3713 53.6484C61.3497 53.6229 61.3339 53.593 61.3251 53.5607C61.3162 53.5285 61.3144 53.4947 61.3199 53.4617L63.1091 43.0541C63.2771 42.0853 63.0447 41.9761 62.4119 42.7265C60.6871 44.7817 58.9441 46.8355 57.1829 48.8879C54.2681 52.2857 50.9543 54.6587 46.4183 53.7137C41.3111 52.6511 41.1683 47.7077 41.9915 43.5749C42.5879 40.5719 43.0793 37.5605 43.6127 34.7549ZM213.36 24.6665C212.894 21.1721 208.471 20.9537 205.943 22.4195C200.999 25.2881 200.189 29.2655 199.37 34.4987C199.353 34.6079 199.395 34.6835 199.496 34.7255C199.625 34.7759 199.749 34.7605 199.87 34.6793C204.162 31.7701 208.457 28.8637 212.755 25.9601C213.228 25.6409 213.43 25.2097 213.36 24.6665ZM136.975 40.7945C136.924 41.0941 136.849 41.3937 136.748 41.6933C136.706 41.8277 136.717 41.9565 136.781 42.0797C137.567 43.5203 138.86 44.3141 140.36 44.8433C147.134 47.2331 152.317 40.7063 153.073 34.9565C153.227 33.7833 153.35 32.9405 153.443 32.4281C153.523 31.9745 153.355 31.6763 153.413 31.2101C153.733 28.7237 152.977 24.1373 150.209 23.0915C146.013 21.5039 141.91 24.0911 139.831 27.6947C139.285 28.6411 138.858 29.9739 138.55 31.6931C138.004 34.7227 137.479 37.7565 136.975 40.7945Z" fill="#1FCDC0"/>
</g>
<defs>
<clipPath id="clip0_140_439">
<rect width="252" height="66.78" fill="white"/>
</clipPath>
</defs>
</svg>
