<svg width="479" height="83" viewBox="0 0 479 83" fill="none" xmlns="http://www.w3.org/2000/svg">
<path d="M83 41.5C83 52.5065 78.6277 63.0622 70.8449 70.8449C63.0622 78.6277 52.5065 83 41.5 83C30.4935 83 19.9378 78.6277 12.1551 70.8449C4.37231 63.0622 0 52.5065 0 41.5C0 30.4935 4.37231 19.9378 12.1551 12.1551C19.9378 4.3723 30.4935 0 41.5 0C52.5065 0 63.0622 4.3723 70.8449 12.1551C78.6277 19.9378 83 30.4935 83 41.5ZM62.7 41.8C64.36 38.31 60.96 34.95 58.96 31.74C57.41 29.24 52.23 23.28 49.26 22.38C47.9133 21.98 46.93 21.6167 46.31 21.29C42.05 19.0567 37.5167 18.7267 32.71 20.3C31.0967 20.8267 30.2133 21.9233 30.06 23.59C30.0546 23.6393 30.0594 23.6893 30.0742 23.7368C30.089 23.7844 30.1135 23.8286 30.1461 23.8669C30.1788 23.9051 30.219 23.9366 30.2643 23.9595C30.3096 23.9823 30.3592 23.9961 30.41 24C33.4833 24.1867 36.5367 24.4933 39.57 24.92C46.77 25.93 52.83 31.29 55.27 37.98C56.02 40.02 56.2 42.65 56.98 44.98C57.0867 45.3 57.08 45.62 56.96 45.94C56.33 47.64 56.05 49.68 55.4 51.1C52.5 57.44 46.39 60.59 39.49 59.28C32.8767 58.02 29.5367 53.5567 29.47 45.89C29.45 43.73 31.75 40.16 33.62 39.23C36.94 37.58 40.3 38.26 43.79 39.5C44.3367 39.6933 44.7733 39.7333 45.1 39.62C45.58 39.4467 45.87 39.0867 45.97 38.54C46.03 38.2067 45.92 37.94 45.64 37.74L41.14 34.55C40.8533 34.3433 40.5333 34.2467 40.18 34.26C32.92 34.5 29.09 36.66 25.61 42.36C24.6833 43.8667 24.0867 45.7067 23.82 47.88C23.4667 50.78 23.47 52.7467 23.83 53.78C30.07 71.76 59.07 63.78 61.3 47.34C61.49 45.9 62.28 45.12 63.01 43.96C63.1833 43.68 63.1833 43.4 63.01 43.12L62.76 42.72C62.5733 42.42 62.5533 42.1133 62.7 41.8Z" fill="#EF6023"/>
<path d="M171.95 58.69C171.95 57.33 171.53 57.1867 170.69 58.26C168.15 61.53 164.64 63.09 160.39 63.08C142.48 63.05 138.47 39.73 146.93 27.66C152.29 20.01 164.49 18.19 170.45 25.86C171.243 26.8867 171.64 26.75 171.64 25.45L171.61 5.66005C171.609 5.57912 171.624 5.49872 171.654 5.42357C171.685 5.34841 171.73 5.27999 171.788 5.22229C171.846 5.16459 171.915 5.11875 171.99 5.08746C172.066 5.05617 172.148 5.04005 172.23 5.04004L181.48 5.08005C181.601 5.08005 181.721 5.10384 181.832 5.15007C181.944 5.1963 182.045 5.26407 182.131 5.3495C182.216 5.43493 182.284 5.53636 182.33 5.64798C182.376 5.7596 182.4 5.87923 182.4 6.00005V61.19C182.4 61.4447 182.299 61.6888 182.119 61.8689C181.939 62.0489 181.695 62.15 181.44 62.15L173.2 62.2C172.869 62.2 172.551 62.0694 172.316 61.8369C172.082 61.6043 171.95 61.2889 171.95 60.96V58.69ZM163.125 54.6798C165.594 54.6669 167.955 53.3534 169.689 51.0282C171.423 48.703 172.387 45.5567 172.37 42.2813C172.361 40.6595 172.112 39.0549 171.637 37.559C171.161 36.0631 170.468 34.7052 169.597 33.5629C168.727 32.4207 167.696 31.5164 166.563 30.9016C165.43 30.2869 164.218 29.9738 162.995 29.9802C160.526 29.9932 158.165 31.3067 156.431 33.6319C154.697 35.957 153.733 39.1034 153.75 42.3787C153.759 44.0005 154.008 45.6052 154.484 47.1011C154.959 48.597 155.652 49.9549 156.523 51.0972C157.393 52.2394 158.424 53.1437 159.557 53.7584C160.69 54.3732 161.902 54.6863 163.125 54.6798Z" fill="#EF6023"/>
<path d="M338 32.0701L337.98 61.2801C337.977 61.5021 337.888 61.7142 337.731 61.8712C337.574 62.0281 337.362 62.1175 337.14 62.1201L328.11 62.1801C327.884 62.1801 327.668 62.0905 327.509 61.9311C327.349 61.7717 327.26 61.5555 327.26 61.3301V32.0801C327.26 31.8546 327.17 31.6384 327.011 31.479C326.851 31.3196 326.635 31.2301 326.41 31.2301L321.65 31.2201C321.426 31.2201 321.211 31.1319 321.052 30.9747C320.893 30.8174 320.802 30.6038 320.8 30.3801L320.74 22.8501C320.738 22.7359 320.76 22.6226 320.803 22.517C320.847 22.4114 320.911 22.3156 320.992 22.2353C321.073 22.1551 321.17 22.092 321.276 22.0498C321.382 22.0077 321.496 21.9874 321.61 21.9901L326.39 22.1001C326.503 22.1027 326.616 22.0827 326.721 22.0412C326.827 21.9997 326.923 21.9375 327.004 21.8583C327.085 21.7791 327.149 21.6845 327.193 21.58C327.237 21.4756 327.26 21.3634 327.26 21.2501L327.21 5.88006C327.208 5.76676 327.23 5.65434 327.273 5.54939C327.315 5.44445 327.379 5.34909 327.459 5.26897C327.539 5.18884 327.634 5.12555 327.739 5.08281C327.844 5.04006 327.957 5.01874 328.07 5.02008L337.19 5.06007C337.415 5.06007 337.631 5.14963 337.791 5.30903C337.95 5.46844 338.04 5.68464 338.04 5.91008L337.96 21.2701C337.96 21.3825 337.982 21.4939 338.025 21.5977C338.069 21.7015 338.132 21.7956 338.212 21.8747C338.292 21.9537 338.387 22.0161 338.491 22.0583C338.596 22.1004 338.707 22.1214 338.82 22.1201L344.35 22.0801C344.462 22.0788 344.574 22.0998 344.678 22.1419C344.782 22.184 344.877 22.2464 344.957 22.3255C345.037 22.4045 345.101 22.4987 345.144 22.6025C345.188 22.7062 345.21 22.8176 345.21 22.9301L345.16 30.3501C345.157 30.572 345.068 30.7842 344.911 30.9412C344.754 31.0981 344.542 31.1875 344.32 31.1901L338.84 31.2301C338.618 31.2327 338.406 31.322 338.249 31.479C338.092 31.6359 338.002 31.8481 338 32.0701Z" fill="#EF6023"/>
<path d="M125.12 25.87C125.913 26.47 126.27 26.2733 126.19 25.28C126.11 24.3667 126.183 23.48 126.41 22.62C126.448 22.4768 126.531 22.3501 126.647 22.2597C126.762 22.1692 126.904 22.1201 127.05 22.12L135.49 22.03C135.617 22.0287 135.743 22.0528 135.86 22.1009C135.978 22.1491 136.085 22.2203 136.175 22.3106C136.266 22.4008 136.337 22.5081 136.386 22.6265C136.435 22.7448 136.46 22.8718 136.46 23L136.45 61.55C136.45 61.6301 136.434 61.7094 136.404 61.7834C136.373 61.8574 136.328 61.9247 136.271 61.9813C136.215 62.038 136.148 62.0829 136.074 62.1136C135.999 62.1442 135.92 62.16 135.84 62.16L127.18 62.18C127.029 62.1797 126.88 62.1461 126.743 62.0816C126.606 62.0171 126.485 61.9233 126.389 61.8068C126.293 61.6904 126.223 61.5542 126.185 61.4078C126.147 61.2615 126.142 61.1086 126.17 60.96C126.337 60.1067 126.343 59.25 126.19 58.39C126.173 58.2969 126.129 58.2108 126.064 58.1421C125.999 58.0733 125.915 58.025 125.823 58.0027C125.731 57.9805 125.635 57.9854 125.545 58.0169C125.456 58.0484 125.378 58.105 125.32 58.18C121.78 62.87 115.95 63.84 110.51 62.7C97.6901 60.03 95.0401 44.21 97.8301 33.83C100.6 23.53 111.32 18.02 121.2 22.66C122.79 23.4 123.78 24.86 125.12 25.87ZM116.892 54.44C118.105 54.4379 119.306 54.1156 120.426 53.4915C121.546 52.8674 122.563 51.9537 123.419 50.8026C124.275 49.6515 124.953 48.2856 125.415 46.7828C125.877 45.2799 126.113 43.6697 126.11 42.0439C126.107 40.4181 125.865 38.8087 125.398 37.3075C124.931 35.8063 124.248 34.4427 123.388 33.2946C122.528 32.1465 121.508 31.2364 120.386 30.6162C119.264 29.996 118.062 29.6779 116.848 29.68C115.635 29.6821 114.434 30.0044 113.314 30.6285C112.194 31.2526 111.177 32.1663 110.321 33.3174C109.465 34.4685 108.787 35.8344 108.325 37.3373C107.863 38.8401 107.627 40.4503 107.63 42.0761C107.633 43.7019 107.875 45.3113 108.342 46.8125C108.809 48.3137 109.492 49.6773 110.352 50.8254C111.212 51.9735 112.232 52.8836 113.354 53.5038C114.476 54.124 115.678 54.4421 116.892 54.44Z" fill="#EF6023"/>
<path d="M259.32 57.96C257.28 60.2933 255.73 61.6267 254.67 61.96C227.13 70.65 222.4 26.01 244.33 21.37C248.98 20.39 255.39 21.33 258.41 25.59C259.223 26.7234 259.72 26.6 259.9 25.22L260.25 22.62C260.297 22.2467 260.51 22.06 260.89 22.06L269.48 22.08C269.721 22.08 269.953 22.1759 270.123 22.3465C270.294 22.5172 270.39 22.7487 270.39 22.99L270.38 61.27C270.38 61.85 270.087 62.1433 269.5 62.15L261.16 62.2C260.885 62.2027 260.62 62.0963 260.422 61.9036C260.223 61.711 260.108 61.4476 260.1 61.17L260.02 58.22C260.019 58.1392 259.994 58.0605 259.947 57.9943C259.901 57.9282 259.835 57.8778 259.759 57.8496C259.683 57.8214 259.601 57.8169 259.522 57.8366C259.444 57.8563 259.373 57.8994 259.32 57.96ZM250.828 54.4495C253.276 54.4281 255.612 53.1023 257.323 50.7638C259.033 48.4252 259.978 45.2654 259.95 41.9795C259.921 38.6936 258.921 35.5508 257.17 33.2424C255.419 30.934 253.06 29.6492 250.612 29.6705C248.164 29.6919 245.828 31.0177 244.117 33.3563C242.407 35.6948 241.462 38.8546 241.49 42.1405C241.519 45.4264 242.519 48.5692 244.27 50.8776C246.021 53.186 248.38 54.4708 250.828 54.4495Z" fill="#EF6023"/>
<path d="M290.15 26.7699C294.877 21.0366 300.78 19.4666 307.86 22.0599C314.92 24.6399 315.87 30.4199 315.91 37.7799C315.957 45.6999 315.96 53.5833 315.92 61.4299C315.917 61.6218 315.839 61.8049 315.703 61.9397C315.566 62.0744 315.382 62.1499 315.19 62.1499H305.96C305.42 62.1499 305.15 61.8799 305.15 61.3399C305.163 54.0866 305.177 46.7066 305.19 39.1999C305.2 36.7399 304.96 33.7099 303.29 31.8999C299.71 28.0199 292.32 30.1899 290.5 34.7799C289.927 36.2133 289.65 38.2699 289.67 40.9499C289.71 47.7766 289.733 54.5899 289.74 61.3899C289.74 61.5994 289.657 61.8004 289.509 61.9485C289.36 62.0967 289.159 62.1799 288.95 62.1799L279.93 62.1699C279.67 62.1699 279.421 62.0667 279.237 61.8829C279.053 61.6991 278.95 61.4498 278.95 61.1899L278.94 22.6799C278.94 22.3266 279.113 22.1466 279.46 22.1399L288.23 22.0199C288.583 22.0133 288.85 22.1666 289.03 22.4799C289.83 23.8999 288.76 25.5099 289.58 26.7399C289.753 27.0066 289.943 27.0166 290.15 26.7699Z" fill="#EF6023"/>
<path d="M376.72 25.72L376.9 22.67C376.92 22.31 377.11 22.1266 377.47 22.12L386.3 22.06C386.416 22.0587 386.532 22.0804 386.64 22.1241C386.748 22.1677 386.846 22.2323 386.929 22.3142C387.011 22.396 387.077 22.4935 387.122 22.6009C387.167 22.7083 387.19 22.8236 387.19 22.94L387.18 61.19C387.18 61.4499 387.077 61.6992 386.893 61.8829C386.709 62.0667 386.46 62.17 386.2 62.17L377.91 62.2C377.744 62.1999 377.58 62.1632 377.429 62.0925C377.279 62.0218 377.146 61.9188 377.04 61.7908C376.934 61.6629 376.858 61.5131 376.816 61.3522C376.775 61.1913 376.769 61.0232 376.8 60.86C376.947 60.0466 376.95 59.2433 376.81 58.45C376.792 58.3426 376.743 58.243 376.669 58.1636C376.594 58.0843 376.498 58.0288 376.392 58.0041C376.286 57.9795 376.175 57.9869 376.073 58.0253C375.971 58.0637 375.883 58.1315 375.82 58.22C370.95 64.83 360.5 64.25 354.8 59.85C347.4 54.14 346.11 42.08 348.56 33.58C352.1 21.27 366.51 16.48 375.96 26.01C376.427 26.4766 376.68 26.38 376.72 25.72ZM377.144 38.7145C377.151 37.5956 376.939 36.4862 376.518 35.4495C376.097 34.4129 375.476 33.4693 374.69 32.6726C373.905 31.8759 372.97 31.2418 371.939 30.8064C370.908 30.3711 369.802 30.143 368.683 30.1352L367.283 30.1254C366.165 30.1176 365.055 30.3302 364.018 30.7511C362.982 31.1721 362.038 31.7931 361.242 32.5787C360.445 33.3643 359.811 34.2991 359.375 35.3298C358.94 36.3605 358.712 37.4668 358.704 38.5857L358.656 45.4255C358.648 46.5443 358.861 47.6537 359.282 48.6904C359.703 49.7271 360.324 50.6707 361.11 51.4674C361.895 52.264 362.83 52.8981 363.861 53.3335C364.891 53.7689 365.998 53.997 367.117 54.0048L368.517 54.0146C369.635 54.0224 370.745 53.8098 371.781 53.3888C372.818 52.9679 373.762 52.3469 374.558 51.5613C375.355 50.7756 375.989 49.8408 376.425 48.8101C376.86 47.7794 377.088 46.6731 377.096 45.5543L377.144 38.7145Z" fill="#EF6023"/>
<path d="M422.86 26.7201C422.917 26.8051 423 26.8692 423.097 26.9026C423.194 26.936 423.299 26.9369 423.396 26.9052C423.493 26.8736 423.578 26.811 423.636 26.7271C423.695 26.6431 423.724 26.5424 423.72 26.4401L423.7 23.0301C423.699 22.9098 423.721 22.7904 423.767 22.6788C423.812 22.5672 423.879 22.4657 423.963 22.3802C424.048 22.2946 424.149 22.2267 424.26 22.1803C424.371 22.134 424.49 22.1101 424.61 22.1101L433.34 22.0901C433.534 22.0901 433.719 22.167 433.856 22.3039C433.993 22.4408 434.07 22.6265 434.07 22.8201C434.097 35.8334 434.06 48.8768 433.96 61.9501C433.89 71.9301 427.69 79.8501 417.2 79.8001C412.94 79.7801 409.014 79.7501 405.42 79.7101C404.9 79.7034 404.637 79.4368 404.63 78.9101L404.56 71.2301C404.559 71.1173 404.58 71.0053 404.623 70.9009C404.666 70.7965 404.729 70.7018 404.81 70.6224C404.89 70.5431 404.985 70.4808 405.09 70.4391C405.195 70.3975 405.307 70.3774 405.42 70.3801C409.154 70.4668 412.654 70.4334 415.92 70.2801C423.18 69.9401 423.37 63.4201 423.44 57.8701C423.441 57.7792 423.415 57.6897 423.366 57.6131C423.316 57.5364 423.246 57.476 423.163 57.4396C423.081 57.4031 422.99 57.3923 422.902 57.4084C422.814 57.4245 422.734 57.4669 422.67 57.5301C421.07 59.0901 419.6 60.7301 417.45 61.4201C410.29 63.6801 404.29 62.1868 399.45 56.9401C393.48 50.4601 393.57 37.3101 397.28 29.8001C402.1 20.0201 416.21 17.4201 422.86 26.7201ZM415.21 53.6955C416.436 53.6613 417.642 53.3218 418.758 52.6963C419.874 52.0709 420.879 51.1719 421.715 50.0505C422.552 48.9291 423.203 47.6074 423.632 46.1607C424.061 44.7141 424.26 43.1709 424.217 41.6193C424.173 40.0677 423.889 38.538 423.38 37.1176C422.87 35.6972 422.146 34.4139 421.249 33.3409C420.351 32.268 419.297 31.4264 418.148 30.8643C416.999 30.3022 415.776 30.0305 414.55 30.0647C413.324 30.0989 412.119 30.4385 411.002 31.0639C409.886 31.6893 408.881 32.5884 408.045 33.7097C407.209 34.8311 406.557 36.1529 406.128 37.5995C405.699 39.0461 405.5 40.5893 405.544 42.1409C405.587 43.6925 405.872 45.2222 406.381 46.6426C406.89 48.063 407.614 49.3463 408.512 50.4193C409.409 51.4922 410.463 52.3338 411.612 52.8959C412.761 53.4581 413.984 53.7298 415.21 53.6955Z" fill="#EF6023"/>
<path d="M452.12 49.0499L452.7 50.3299C453.993 53.1766 456.203 54.6266 459.33 54.6799C464.29 54.7599 465.14 53.1399 467.46 50.1099C467.568 49.9652 467.714 49.8532 467.881 49.7861C468.049 49.719 468.232 49.6996 468.41 49.7299L477.44 51.1899C477.525 51.2054 477.606 51.2391 477.677 51.2888C477.748 51.3385 477.807 51.4029 477.85 51.4773C477.893 51.5518 477.919 51.6346 477.926 51.7197C477.933 51.8048 477.92 51.8903 477.89 51.9699C474.08 62.1199 463.2 64.7699 453.31 62.3199C443.1 59.7899 439.78 49.6699 440.2 40.2499C440.76 27.4799 449.12 19.8799 462.47 21.1699C475.24 22.3999 479.23 32.6099 478.9 44.0499C478.887 44.6499 478.577 44.9499 477.97 44.9499L454.76 44.9599C451.76 44.9599 450.88 46.3233 452.12 49.0499ZM452.38 38.0699L467.06 38.0899C467.187 38.0899 467.309 38.0393 467.399 37.9493C467.489 37.8593 467.54 37.7372 467.54 37.6099V37.4399C467.543 35.3915 466.765 33.4257 465.377 31.9745C463.99 30.5232 462.106 29.7051 460.14 29.6999H459.34C458.365 29.6973 457.399 29.895 456.497 30.2817C455.595 30.6684 454.775 31.2365 454.084 31.9535C453.393 32.6705 452.844 33.5223 452.47 34.4603C452.095 35.3983 451.901 36.404 451.9 37.4199V37.5899C451.9 37.7172 451.95 37.8393 452.04 37.9293C452.13 38.0194 452.253 38.0699 452.38 38.0699Z" fill="#EF6023"/>
<path d="M209.62 44.34L217.34 22.84C217.425 22.6084 217.579 22.4086 217.779 22.2674C217.979 22.1261 218.217 22.0503 218.46 22.05L229.47 22.08C229.548 22.0791 229.625 22.0981 229.694 22.1354C229.763 22.1727 229.822 22.2269 229.864 22.293C229.906 22.3591 229.93 22.4349 229.935 22.5131C229.939 22.5914 229.924 22.6695 229.89 22.74L212.22 61.43C212.066 61.77 211.8 61.9667 211.42 62.02C209.78 62.25 205.88 62.89 204.88 60.73C199.213 48.3967 193.566 36.0534 187.94 23.7C187.78 23.3467 187.693 23.0434 187.68 22.79C187.674 22.6922 187.689 22.5942 187.723 22.5022C187.756 22.4102 187.809 22.326 187.876 22.2549C187.943 22.1837 188.025 22.1271 188.115 22.0884C188.205 22.0497 188.302 22.0299 188.4 22.03L198.84 22.06C199.181 22.0598 199.514 22.1617 199.796 22.3526C200.078 22.5434 200.295 22.8143 200.42 23.13L208.86 44.35C208.891 44.4253 208.945 44.4894 209.013 44.5341C209.081 44.5789 209.162 44.6022 209.243 44.6011C209.325 44.6001 209.404 44.5746 209.471 44.5281C209.539 44.4816 209.59 44.4161 209.62 44.34Z" fill="#EF6023"/>
</svg>
