<?xml version="1.0" encoding="UTF-8" standalone="no"?>
<!DOCTYPE svg PUBLIC "-//W3C//DTD SVG 1.1//EN" "http://www.w3.org/Graphics/SVG/1.1/DTD/svg11.dtd">
<svg xmlns="http://www.w3.org/2000/svg" version="1.1" viewBox="0.00 0.00 428.00 90.00">
<path fill="#000000" d="
  M 41.89 0.00
  L 49.28 0.00
  Q 64.35 1.68 75.74 11.47
  A 0.29 0.28 20.5 0 0 76.21 11.26
  L 76.20 2.75
  Q 76.20 2.21 76.75 2.21
  L 90.75 2.20
  Q 91.29 2.20 91.29 2.75
  L 91.29 87.50
  A 0.29 0.29 0.0 0 1 91.00 87.79
  L 76.75 87.79
  Q 76.21 87.79 76.21 87.25
  L 76.20 79.03
  Q 76.20 78.42 75.73 78.81
  Q 64.25 88.48 49.21 90.00
  L 41.73 90.00
  Q 39.65 89.64 37.57 89.32
  C 16.72 86.06 2.67 69.24 0.00 48.68
  L 0.00 41.44
  C 2.49 18.60 19.20 2.72 41.89 0.00
  Z
  M 76.0298 45.0137
  A 30.45 29.98 -0.2 0 0 45.4754 15.1402
  A 30.45 29.98 -0.2 0 0 15.1302 45.2263
  A 30.45 29.98 -0.2 0 0 45.6846 75.0998
  A 30.45 29.98 -0.2 0 0 76.0298 45.0137
  Z"
/>
<path fill="#000000" d="
  M 236.05 0.00
  L 243.49 0.00
  C 269.50 2.94 288.17 24.62 284.98 50.94
  A 0.50 0.49 -86.7 0 1 284.49 51.38
  L 210.48 51.37
  A 0.41 0.41 0.0 0 0 210.08 51.88
  C 216.40 78.22 250.22 82.82 265.21 61.66
  Q 265.53 61.21 266.00 61.50
  L 277.81 68.92
  A 0.60 0.60 0.0 0 1 277.98 69.78
  Q 265.29 87.67 243.38 90.00
  L 235.92 90.00
  C 202.51 86.25 182.85 51.08 200.80 21.80
  Q 212.36 2.96 236.05 0.00
  Z
  M 253.52 18.49
  C 235.83 9.51 216.68 18.83 210.33 36.99
  A 0.48 0.48 0.0 0 0 210.78 37.63
  L 268.81 37.63
  A 0.36 0.35 81.3 0 0 269.14 37.17
  Q 265.35 24.50 253.52 18.49
  Z"
/>
<path fill="#000000" d="
  M 319.06 0.00
  L 326.08 0.00
  C 338.43 2.02 347.31 6.17 353.46 17.40
  A 0.35 0.35 0.0 0 1 353.33 17.87
  L 341.50 24.46
  Q 340.98 24.74 340.73 24.21
  C 336.45 15.36 328.03 12.91 318.72 14.18
  C 313.34 14.91 308.35 18.03 307.42 23.61
  C 306.18 31.11 314.34 34.92 320.26 36.72
  C 327.93 39.06 335.15 40.09 342.73 44.00
  Q 357.81 51.80 354.75 68.96
  C 352.30 82.65 338.14 89.36 325.34 90.00
  L 321.18 90.00
  C 307.30 89.35 294.75 82.72 289.14 70.10
  A 0.55 0.54 -27.4 0 1 289.37 69.40
  L 301.39 62.60
  Q 301.92 62.30 302.15 62.87
  C 307.07 74.75 320.25 77.45 331.49 74.50
  C 338.78 72.58 343.88 63.83 337.45 57.80
  Q 334.31 54.85 328.69 53.25
  Q 317.32 50.01 311.24 47.99
  C 280.04 37.60 289.55 2.45 319.06 0.00
  Z"
/>
<path fill="#000000" d="
  M 391.59 0.00
  L 398.66 0.00
  Q 416.88 1.77 425.97 17.06
  A 0.66 0.66 0.0 0 1 425.72 17.98
  L 413.98 24.51
  A 0.50 0.50 0.0 0 1 413.28 24.27
  Q 410.64 18.19 404.51 15.49
  C 397.85 12.56 383.32 12.96 380.44 21.73
  C 377.75 29.88 385.40 34.53 392.25 36.54
  C 406.40 40.71 425.31 42.78 428.00 61.06
  L 428.00 66.80
  C 425.95 81.97 411.41 89.53 397.43 90.00
  L 393.43 90.00
  C 379.64 89.16 367.52 82.78 361.71 70.13
  Q 361.50 69.67 361.95 69.42
  L 374.04 62.56
  Q 374.44 62.33 374.62 62.76
  C 379.82 75.02 394.42 78.14 405.89 73.90
  C 413.53 71.08 415.57 61.14 408.30 56.42
  Q 404.67 54.06 400.46 52.91
  C 385.25 48.73 362.95 44.47 364.77 23.25
  C 365.96 9.33 378.42 1.12 391.59 0.00
  Z"
/>
<rect fill="#000000" x="97.04" y="2.19" width="7.96" height="85.62" rx="0.34"/>
<path fill="#000000" d="
  M 159.83 57.53
  L 137.04 87.67
  A 0.32 0.32 0.0 0 1 136.78 87.80
  L 111.03 87.79
  A 0.32 0.32 0.0 0 1 110.71 87.47
  L 110.71 2.53
  A 0.32 0.32 0.0 0 1 111.03 2.21
  L 136.78 2.20
  A 0.32 0.32 0.0 0 1 137.04 2.33
  L 159.84 32.47
  A 0.32 0.32 0.0 0 0 160.36 32.47
  L 183.14 2.33
  A 0.32 0.32 0.0 0 1 183.40 2.20
  L 201.05 2.21
  A 0.32 0.32 0.0 0 1 201.30 2.72
  L 169.46 44.81
  A 0.32 0.32 0.0 0 0 169.46 45.19
  L 201.30 87.28
  A 0.32 0.32 0.0 0 1 201.05 87.79
  L 183.41 87.80
  A 0.32 0.32 0.0 0 1 183.15 87.67
  L 160.35 57.53
  A 0.32 0.32 0.0 0 0 159.83 57.53
  Z
  M 119.28 3.24
  A 0.36 0.36 0.0 0 0 118.63 3.46
  L 118.63 86.54
  A 0.36 0.36 0.0 0 0 119.28 86.76
  L 150.71 45.22
  A 0.36 0.36 0.0 0 0 150.71 44.78
  L 119.28 3.24
  Z"
/>
</svg>
