<?xml version="1.0" encoding="UTF-8" standalone="no"?>
<!DOCTYPE svg PUBLIC "-//W3C//DTD SVG 1.1//EN" "http://www.w3.org/Graphics/SVG/1.1/DTD/svg11.dtd">
<svg xmlns="http://www.w3.org/2000/svg" version="1.1" viewBox="0.00 0.00 300.00 83.00">
<path fill="#e3000f" d="
  M 16.46 5.17
  L 17.00 6.91
  Q 17.19 7.53 16.56 7.39
  Q 15.11 7.08 14.97 5.70
  C 14.89 4.92 15.38 4.36 15.49 3.51
  A 1.01 1.00 -66.7 0 0 15.14 2.61
  Q 14.39 1.99 14.30 1.00
  A 0.46 0.46 0.0 0 1 15.00 0.56
  Q 16.24 1.29 17.15 2.39
  Q 17.57 2.91 17.32 3.52
  Q 17.11 4.03 16.69 4.39
  A 0.75 0.73 61.9 0 0 16.46 5.17
  Z"
/>
<path fill="#e3000f" d="
  M 20.11 4.86
  L 21.27 4.51
  A 0.41 0.41 0.0 0 1 21.74 5.11
  Q 20.74 6.79 19.07 7.85
  Q 18.55 8.19 18.52 7.56
  C 18.37 4.23 17.84 2.57 20.94 0.57
  A 0.46 0.45 -15.0 0 1 21.64 0.97
  C 21.56 2.85 19.35 2.93 19.58 4.52
  Q 19.65 5.00 20.11 4.86
  Z"
/>
<path fill="#e3000f" d="
  M 12.96 19.50
  L 11.81 20.35
  A 0.31 0.31 0.0 0 0 11.81 20.85
  L 17.12 24.92
  A 0.31 0.31 0.0 0 1 17.24 25.16
  L 17.35 29.82
  A 0.31 0.31 0.0 0 1 16.85 30.07
  L 10.88 25.36
  A 0.31 0.31 0.0 0 1 10.76 25.12
  L 10.75 20.18
  A 0.31 0.31 0.0 0 1 10.85 19.95
  L 11.97 18.94
  A 0.31 0.31 0.0 0 0 11.95 18.46
  L 10.88 17.65
  A 0.31 0.31 0.0 0 1 10.76 17.41
  L 10.75 12.80
  A 0.31 0.31 0.0 0 1 11.26 12.56
  L 14.92 15.65
  A 0.31 0.31 0.0 0 0 15.30 15.66
  L 16.49 14.83
  A 0.31 0.31 0.0 0 0 16.51 14.33
  L 10.88 9.95
  A 0.31 0.31 0.0 0 1 10.76 9.71
  L 10.76 5.13
  A 0.31 0.31 0.0 0 1 11.26 4.89
  L 17.19 9.64
  A 0.31 0.31 0.0 0 1 17.31 9.88
  L 17.34 15.15
  A 0.31 0.31 0.0 0 1 17.24 15.38
  L 16.33 16.23
  A 0.31 0.31 0.0 0 0 16.35 16.70
  L 17.17 17.33
  A 0.31 0.31 0.0 0 1 17.29 17.57
  L 17.33 22.20
  A 0.31 0.31 0.0 0 1 16.82 22.44
  L 13.35 19.51
  A 0.31 0.31 0.0 0 0 12.96 19.50
  Z"
/>
<path fill="#e3000f" d="
  M 18.84 25.11
  C 19.52 24.16 19.55 23.27 18.79 22.36
  Q 18.58 22.11 18.58 21.79
  L 18.63 18.17
  Q 18.64 17.65 18.94 17.23
  Q 19.81 16.04 18.93 14.82
  Q 18.61 14.38 18.60 13.84
  L 18.60 10.73
  Q 18.60 9.83 19.30 9.26
  L 24.45 5.08
  Q 25.21 4.46 25.21 5.44
  L 25.20 24.77
  A 1.06 1.03 71.3 0 1 24.81 25.59
  L 19.13 30.07
  A 0.33 0.33 0.0 0 1 18.59 29.81
  L 18.63 25.73
  A 1.14 1.11 -26.9 0 1 18.84 25.11
  Z
  M 20.2819 15.3309
  A 2.75 1.04 135.4 0 0 22.9702 14.1405
  A 2.75 1.04 135.4 0 0 24.1981 11.4691
  A 2.75 1.04 135.4 0 0 21.5098 12.6595
  A 2.75 1.04 135.4 0 0 20.2819 15.3309
  Z
  M 23.57 19.06
  Q 20.66 20.12 20.21 22.98
  A 0.48 0.47 74.5 0 0 20.98 23.42
  L 23.63 21.20
  Q 24.22 20.70 24.23 19.94
  L 24.23 19.52
  Q 24.23 18.82 23.57 19.06
  Z"
/>
<path fill="#000000" d="
  M 38.98 9.81
  L 33.20 9.87
  A 0.34 0.34 0.0 0 1 32.87 9.44
  L 33.32 7.73
  A 0.72 0.72 0.0 0 1 34.02 7.19
  L 42.98 7.19
  Q 43.37 7.19 43.42 7.58
  Q 43.71 9.55 43.28 10.25
  Q 39.93 15.74 36.59 21.05
  A 0.46 0.46 0.0 0 0 36.99 21.76
  L 42.70 21.75
  Q 43.45 21.75 43.20 22.46
  L 42.74 23.75
  Q 42.49 24.45 41.75 24.45
  L 32.76 24.45
  Q 32.29 24.45 32.20 23.99
  Q 31.86 22.24 32.80 20.76
  Q 36.10 15.54 39.22 10.22
  Q 39.46 9.81 38.98 9.81
  Z"
/>
<path fill="#000000" d="
  M 96.92 15.37
  C 100.12 17.09 100.35 21.80 97.34 23.68
  C 95.29 24.97 91.02 24.47 88.44 24.43
  Q 87.99 24.43 87.99 23.98
  L 88.00 7.98
  Q 88.00 7.45 88.53 7.38
  C 91.32 7.02 95.92 6.76 97.89 9.02
  C 99.83 11.24 98.31 12.81 96.80 14.75
  Q 96.50 15.14 96.92 15.37
  Z
  M 90.31 9.77
  L 90.31 13.93
  A 0.54 0.54 0.0 0 0 90.85 14.47
  L 93.58 14.47
  A 2.95 2.49 -0.0 0 0 96.53 11.98
  L 96.53 11.72
  A 2.95 2.49 0.0 0 0 93.58 9.23
  L 90.85 9.23
  A 0.54 0.54 0.0 0 0 90.31 9.77
  Z
  M 90.26 16.92
  L 90.28 21.94
  A 0.46 0.46 0.0 0 0 90.74 22.40
  L 94.37 22.39
  A 2.95 2.84 -0.2 0 0 97.31 19.54
  L 97.31 19.28
  A 2.95 2.84 -0.2 0 0 94.35 16.45
  L 90.72 16.46
  A 0.46 0.46 0.0 0 0 90.26 16.92
  Z"
/>
<path fill="#000000" d="
  M 123.43 24.41
  L 121.69 24.50
  A 0.35 0.35 0.0 0 1 121.32 24.15
  L 121.33 7.60
  A 0.35 0.35 0.0 0 1 121.68 7.25
  L 123.42 7.24
  A 0.35 0.35 0.0 0 1 123.77 7.59
  L 123.73 16.07
  A 0.35 0.35 0.0 0 0 124.35 16.29
  L 128.22 11.38
  A 0.35 0.35 0.0 0 1 128.48 11.25
  L 130.76 11.18
  A 0.35 0.35 0.0 0 1 131.03 11.76
  L 126.27 16.87
  A 0.35 0.35 0.0 0 0 126.26 17.34
  L 131.62 23.81
  A 0.35 0.35 0.0 0 1 131.33 24.39
  L 128.76 24.18
  A 0.35 0.35 0.0 0 1 128.50 24.03
  L 124.32 17.92
  A 0.35 0.35 0.0 0 0 123.69 18.12
  L 123.77 24.05
  A 0.35 0.35 0.0 0 1 123.43 24.41
  Z"
/>
<circle fill="#000000" cx="46.17" cy="9.15" r="1.67"/>
<path fill="#000000" d="
  M 81.24 11.83
  Q 82.14 11.96 83.03 11.78
  Q 83.97 11.59 83.69 12.51
  L 83.55 12.97
  A 1.18 1.16 -86.2 0 1 82.63 13.79
  Q 82.00 13.90 81.38 13.78
  Q 80.79 13.68 80.79 14.28
  L 80.81 21.79
  A 0.63 0.63 0.0 0 0 81.39 22.42
  L 82.81 22.54
  Q 83.52 22.60 83.53 23.32
  L 83.54 23.72
  Q 83.55 24.39 82.88 24.41
  C 80.17 24.51 78.03 24.58 78.04 21.13
  Q 78.05 17.83 78.10 14.53
  A 0.70 0.68 8.9 0 0 77.60 13.86
  Q 76.55 13.56 76.79 12.32
  A 0.63 0.62 -87.4 0 1 77.33 11.82
  L 77.79 11.77
  Q 78.28 11.71 78.24 11.21
  L 78.08 9.25
  A 0.66 0.66 0.0 0 1 78.75 8.54
  L 80.20 8.54
  Q 80.85 8.55 80.83 9.20
  L 80.74 11.23
  Q 80.72 11.75 81.24 11.83
  Z"
/>
<path fill="#000000" d="
  M 61.88 16.40
  A 0.84 0.84 0.0 0 0 62.53 15.22
  L 62.32 14.77
  Q 61.75 13.53 60.42 13.83
  L 58.20 14.33
  Q 57.46 14.50 57.63 13.76
  L 57.89 12.60
  Q 58.01 12.08 58.52 11.91
  C 61.51 10.90 65.21 11.38 65.28 15.27
  Q 65.36 19.53 65.29 23.79
  Q 65.28 24.34 64.74 24.41
  Q 63.56 24.55 62.47 24.10
  A 1.03 1.01 -45.7 0 0 61.65 24.12
  C 54.99 27.13 52.67 17.75 59.72 16.71
  Q 60.95 16.53 61.88 16.40
  Z
  M 58.32 21.17
  C 59.35 23.69 63.59 22.52 62.27 18.92
  Q 62.12 18.51 61.69 18.47
  Q 60.56 18.34 59.51 18.66
  A 1.88 1.88 0.0 0 0 58.32 21.17
  Z"
/>
<path fill="#000000" d="
  M 72.61 16.43
  Q 73.73 16.28 73.20 15.29
  L 72.78 14.51
  A 1.40 1.40 0.0 0 0 71.26 13.79
  L 68.35 14.37
  A 0.24 0.24 0.0 0 1 68.07 14.06
  L 68.66 12.18
  Q 68.76 11.87 69.07 11.80
  C 72.97 10.92 75.87 11.52 75.93 16.05
  Q 75.99 19.91 76.00 23.78
  A 0.58 0.58 0.0 0 1 75.49 24.36
  Q 74.19 24.53 72.95 24.11
  A 1.07 1.04 42.1 0 0 72.17 24.14
  C 69.16 25.46 65.81 24.22 66.20 20.55
  C 66.59 16.85 69.72 16.80 72.61 16.43
  Z
  M 73.12 18.87
  A 0.40 0.39 89.3 0 0 72.71 18.46
  L 70.27 18.56
  A 1.81 1.81 0.0 0 0 69.24 21.81
  Q 70.85 23.04 72.50 21.93
  Q 73.00 21.59 73.02 20.99
  L 73.12 18.87
  Z"
/>
<path fill="#000000" d="
  M 106.47 16.48
  Q 107.50 16.51 107.37 15.49
  L 107.26 14.63
  A 1.49 1.48 -1.0 0 0 105.92 13.34
  Q 103.83 13.15 101.99 14.21
  Q 101.16 14.68 101.31 13.74
  L 101.39 13.23
  Q 101.49 12.53 102.13 12.23
  C 111.28 7.79 109.30 19.99 109.29 24.12
  Q 109.29 24.75 108.66 24.67
  Q 108.00 24.58 107.42 24.23
  Q 106.94 23.94 106.43 24.16
  C 102.77 25.69 98.86 23.44 100.56 19.03
  C 101.62 16.27 103.80 16.43 106.47 16.48
  Z
  M 103.52 18.26
  C 98.70 20.75 105.35 26.59 107.36 20.39
  Q 107.83 18.95 106.53 18.19
  Q 105.17 17.40 103.52 18.26
  Z"
/>
<path fill="#000000" d="
  M 113.30 12.53
  Q 117.08 9.91 119.65 13.52
  A 1.44 1.38 28.6 0 1 119.91 14.33
  L 119.95 23.76
  A 0.70 0.69 -89.6 0 1 119.24 24.47
  L 118.28 24.45
  Q 117.61 24.44 117.62 23.78
  L 117.66 15.62
  Q 117.67 13.04 115.25 13.92
  L 114.49 14.19
  Q 112.76 14.82 112.77 16.66
  L 112.84 23.82
  A 0.65 0.65 0.0 0 1 112.18 24.48
  L 111.48 24.47
  Q 110.76 24.46 110.75 23.73
  L 110.71 12.45
  A 0.76 0.75 83.8 0 1 111.30 11.71
  L 112.23 11.50
  A 0.38 0.38 0.0 0 1 112.68 11.75
  Q 112.76 12.00 112.75 12.24
  Q 112.73 12.93 113.30 12.53
  Z"
/>
<path fill="#000000" d="
  M 137.65 16.50
  Q 139.67 15.82 138.37 14.12
  Q 137.02 12.36 133.38 14.18
  Q 132.65 14.55 132.71 13.74
  L 132.75 13.20
  A 1.19 1.18 82.3 0 1 133.52 12.18
  C 142.90 8.66 140.76 19.34 140.73 24.16
  Q 140.73 24.68 140.21 24.73
  Q 139.48 24.80 138.95 24.28
  A 0.92 0.91 -33.1 0 0 137.97 24.08
  C 129.99 27.24 129.18 15.93 136.03 16.56
  Q 137.16 16.67 137.65 16.50
  Z
  M 138.55 20.04
  Q 138.75 17.78 136.48 17.84
  Q 133.73 17.91 133.23 20.65
  A 2.00 1.99 9.6 0 0 134.90 22.99
  Q 138.25 23.48 138.55 20.04
  Z"
/>
<rect fill="#000000" x="-1.38" y="-6.30" transform="translate(46.15,18.10) rotate(-0.1)" width="2.76" height="12.60" rx="0.45"/>
<path fill="#000000" d="
  M 53.04 12.58
  Q 54.16 12.03 55.40 11.92
  A 0.65 0.64 87.6 0 1 56.10 12.57
  L 56.08 14.00
  Q 56.07 14.66 55.42 14.56
  C 50.83 13.86 52.24 21.39 52.29 23.90
  Q 52.30 24.43 51.76 24.42
  L 50.24 24.39
  Q 49.84 24.39 49.85 23.99
  L 49.85 12.48
  Q 49.85 12.02 50.28 11.85
  Q 51.43 11.41 52.18 12.38
  Q 52.53 12.83 53.04 12.58
  Z"
/>
<path fill="#000000" d="
  M 144.57 15.01
  A 1.39 1.38 14.5 0 0 145.41 16.43
  C 147.50 17.32 152.14 18.29 150.35 21.95
  C 148.91 24.89 145.65 24.89 142.83 23.82
  A 0.95 0.94 16.3 0 1 142.24 22.76
  L 142.31 22.35
  A 0.66 0.66 0.0 0 1 143.28 21.89
  C 144.96 22.82 147.44 23.22 148.58 21.30
  A 1.12 1.12 0.0 0 0 147.98 19.67
  C 146.44 19.12 144.02 18.64 143.04 17.22
  C 139.92 12.69 146.00 10.94 149.22 12.09
  Q 149.99 12.36 149.84 13.17
  L 149.78 13.48
  A 0.63 0.62 18.4 0 1 148.89 13.92
  C 147.69 13.33 144.78 13.04 144.57 15.01
  Z"
/>
<rect fill="#000000" x="-1.08" y="-6.29" transform="translate(152.93,18.08) rotate(-0.1)" width="2.16" height="12.58" rx="0.37"/>
<path fill="#e3000f" d="
  M 23.07 83.00
  L 19.59 83.00
  Q 14.04 81.93 11.61 78.33
  Q 10.32 76.39 10.30 78.72
  L 10.28 83.00
  L 0.00 83.00
  L 0.00 82.47
  Q 0.05 82.47 0.10 82.47
  Q 0.21 82.47 0.21 82.37
  L 0.00 32.63
  L 0.00 31.63
  L 9.76 31.56
  Q 10.40 31.56 10.40 32.20
  L 10.35 44.76
  Q 10.35 46.34 11.25 45.05
  C 16.71 37.26 28.87 38.84 32.79 47.12
  C 35.15 52.12 34.17 60.96 34.16 67.03
  Q 34.16 73.19 32.74 76.01
  Q 30.00 81.48 23.07 83.00
  Z
  M 24.55 56.82
  A 7.15 7.15 0.0 0 0 17.40 49.67
  L 16.50 49.67
  A 7.15 7.15 0.0 0 0 9.35 56.82
  L 9.35 67.52
  A 7.15 7.15 0.0 0 0 16.50 74.67
  L 17.40 74.67
  A 7.15 7.15 0.0 0 0 24.55 67.52
  L 24.55 56.82
  Z"
/>
<path fill="#e3000f" d="
  M 132.00 58.29
  Q 131.99 59.13 132.59 58.54
  L 158.76 32.38
  Q 158.99 32.15 159.31 32.14
  L 172.64 32.08
  A 0.08 0.08 0.0 0 1 172.70 32.22
  Q 153.88 51.70 135.16 70.93
  C 131.34 74.86 127.01 78.70 122.94 82.61
  A 0.29 0.29 0.0 0 1 122.45 82.40
  L 122.46 41.72
  A 0.32 0.32 0.0 0 1 122.78 41.40
  L 131.75 41.42
  A 0.33 0.32 -90.0 0 1 132.07 41.75
  L 132.00 58.29
  Z"
/>
<path fill="#e3000f" d="
  M 177.15 58.04
  Q 177.15 59.10 177.90 58.35
  L 203.93 32.31
  Q 204.10 32.15 204.33 32.14
  L 217.67 32.08
  A 0.11 0.11 0.0 0 1 217.75 32.27
  Q 198.75 51.97 180.35 70.86
  C 176.57 74.74 172.22 78.60 168.14 82.53
  A 0.37 0.36 -22.1 0 1 167.52 82.27
  L 167.52 41.70
  Q 167.52 41.42 167.80 41.42
  L 176.87 41.41
  Q 177.21 41.41 177.21 41.75
  L 177.15 58.04
  Z"
/>
<path fill="#e3000f" d="
  M 300.00 41.79
  L 300.00 50.61
  L 292.91 50.71
  Q 292.39 50.72 292.39 51.24
  L 292.25 70.19
  Q 292.25 70.63 292.54 70.95
  Q 295.36 74.13 300.00 73.43
  L 300.00 82.26
  C 295.99 82.24 290.26 83.06 286.98 80.99
  C 283.54 78.83 282.35 75.94 282.36 71.70
  Q 282.39 61.25 282.38 50.82
  Q 282.38 50.23 281.80 50.24
  L 277.31 50.24
  Q 276.44 50.24 276.62 49.39
  L 278.08 42.72
  Q 278.30 41.76 279.28 41.76
  L 282.07 41.76
  Q 282.65 41.76 282.64 41.18
  L 282.48 32.49
  Q 282.47 31.96 283.01 31.96
  L 292.29 31.95
  A 0.34 0.33 89.2 0 1 292.63 32.29
  L 292.60 41.26
  A 0.48 0.47 -90.0 0 0 293.07 41.74
  L 300.00 41.79
  Z"
/>
<path fill="#e3000f" d="
  M 117.24 83.00
  L 106.73 83.00
  Q 106.75 70.93 106.74 58.84
  Q 106.73 54.95 105.87 53.28
  C 103.76 49.22 96.82 49.21 94.62 53.16
  Q 93.62 54.95 93.63 59.01
  Q 93.64 71.00 93.61 83.00
  L 83.43 83.00
  L 83.43 41.93
  Q 83.43 41.34 84.02 41.34
  L 92.94 41.34
  A 0.78 0.77 -87.3 0 1 93.71 42.19
  L 93.52 44.19
  A 0.35 0.35 0.0 0 0 94.16 44.41
  C 99.68 35.88 112.86 40.75 116.18 48.59
  Q 117.19 50.98 117.23 55.57
  Q 117.34 69.29 117.24 83.00
  Z"
/>
<path fill="#e3000f" d="
  M 260.00 83.00
  L 249.76 83.00
  L 249.76 41.83
  Q 249.76 41.33 250.27 41.33
  L 259.47 41.35
  A 0.61 0.61 0.0 0 1 260.08 42.03
  L 259.93 43.44
  Q 259.81 44.47 260.59 43.78
  Q 265.94 39.02 273.26 40.49
  Q 273.46 40.53 273.46 40.73
  L 273.49 50.13
  Q 273.49 50.40 273.22 50.37
  Q 264.47 49.22 261.35 52.28
  Q 259.98 53.62 260.00 57.11
  Q 260.07 70.07 260.00 83.00
  Z"
/>
<path fill="#e3000f" d="
  M 76.30 83.00
  L 66.12 83.00
  L 66.22 76.75
  Q 66.23 75.97 65.71 76.55
  C 62.51 80.11 60.31 82.11 55.32 83.00
  L 51.82 83.00
  Q 43.34 81.27 40.37 74.44
  Q 39.06 71.41 39.11 64.67
  C 39.16 59.65 38.44 53.61 40.29 49.28
  C 44.87 38.55 58.99 37.47 65.68 46.93
  Q 66.31 47.81 66.26 46.73
  L 66.08 42.28
  Q 66.04 41.34 66.98 41.34
  L 76.00 41.33
  A 0.31 0.31 0.0 0 1 76.31 41.64
  L 76.30 83.00
  Z
  M 66.19 58.35
  A 7.95 7.95 0.0 0 0 58.24 50.40
  L 57.06 50.40
  A 7.95 7.95 0.0 0 0 49.11 58.35
  L 49.11 66.49
  A 7.95 7.95 0.0 0 0 57.06 74.44
  L 58.24 74.44
  A 7.95 7.95 0.0 0 0 66.19 66.49
  L 66.19 58.35
  Z"
/>
<path fill="#e3000f" d="
  M 243.49 83.00
  L 233.28 83.00
  L 233.41 76.87
  Q 233.44 75.54 232.71 76.65
  Q 229.25 81.92 222.33 83.00
  L 219.01 83.00
  Q 210.73 81.36 207.63 74.59
  Q 206.27 71.63 206.28 65.71
  C 206.28 60.54 205.61 53.96 207.33 49.58
  C 211.54 38.83 226.15 37.24 232.63 46.77
  Q 233.43 47.95 233.38 46.52
  L 233.23 41.95
  Q 233.21 41.35 233.80 41.35
  L 242.95 41.33
  Q 243.49 41.33 243.49 41.87
  L 243.49 83.00
  Z
  M 233.4071 58.3849
  A 7.97 7.97 0.0 0 0 225.4510 50.4010
  L 224.3110 50.3990
  A 7.97 7.97 0.0 0 0 216.3271 58.3551
  L 216.3129 66.4551
  A 7.97 7.97 0.0 0 0 224.2690 74.4390
  L 225.4090 74.4410
  A 7.97 7.97 0.0 0 0 233.3929 66.4849
  L 233.4071 58.3849
  Z"
/>
<path fill="#e3000f" d="
  M 160.77 83.00
  L 147.94 83.00
  L 140.51 71.29
  Q 140.25 70.88 140.59 70.54
  L 147.19 63.73
  Q 147.55 63.36 147.84 63.79
  L 160.77 83.00
  Z"
/>
<path fill="#e3000f" d="
  M 205.92 83.00
  L 193.02 83.00
  L 185.64 71.31
  Q 185.34 70.84 185.73 70.44
  L 192.52 63.56
  Q 192.73 63.35 192.90 63.60
  L 205.92 83.00
  Z"
/>
</svg>
