<svg width="628" height="143" viewBox="0 0 628 143" fill="none" xmlns="http://www.w3.org/2000/svg">
<path d="M186.972 43.3363C186.972 44.3357 187.435 44.6508 188.363 44.2817C203.123 38.3937 217.303 36.8541 229.579 46.9286C251.362 64.8222 252.28 108.145 237.006 129.185C225.838 144.554 211.658 141.704 195.169 141.555C193.539 141.546 191.275 140.889 188.376 139.584C187.917 139.377 187.53 139.471 187.215 139.867C186.35 140.934 185.608 141.61 184.122 141.623C176.433 141.758 168.808 141.781 161.245 141.691C161 141.687 160.767 141.587 160.595 141.413C160.423 141.239 160.327 141.004 160.327 140.759L160.394 1.35046C160.394 0.995879 160.535 0.65582 160.786 0.405091C161.037 0.154363 161.377 0.0134972 161.731 0.0134972L185.229 0C185.638 0 186.029 0.17642 186.318 0.490464C186.607 0.804507 186.769 1.23045 186.769 1.67457L186.972 43.3363ZM219.653 79.002C218.41 63.0531 195.642 61.3515 188.822 73.7893C187.642 75.941 187.062 79.0381 187.08 83.0805C187.107 92.2231 185.54 107.834 192.184 114.384C203.164 125.188 218.235 115.951 219.491 102.068C220.193 94.3793 220.247 86.6907 219.653 79.002Z" fill="#71C33D"/>
<path d="M0.0540094 85.4033L0 58.4075C0 57.9706 0.173573 57.5515 0.482551 57.2425C0.791529 56.9335 1.21059 56.7599 1.64756 56.7599L51.4661 56.8275C51.9031 56.8275 52.3221 56.6539 52.6311 56.3449C52.9401 56.0359 53.1137 55.6169 53.1137 55.1799L52.9787 4.6456C52.9787 4.20864 53.1522 3.78958 53.4612 3.4806C53.7702 3.17162 54.1892 2.99805 54.6262 2.99805L82.3917 3.02505C82.8287 3.02505 83.2477 3.19863 83.5567 3.50761C83.8657 3.81659 84.0393 4.23566 84.0393 4.67262L83.8232 55.2609C83.8214 55.4796 83.8631 55.6964 83.946 55.8987C84.0288 56.1011 84.1511 56.2849 84.3057 56.4395C84.4603 56.5941 84.6441 56.7164 84.8465 56.7992C85.0488 56.8821 85.2656 56.9238 85.4843 56.922L137.518 56.814C137.955 56.814 138.374 56.9876 138.683 57.2965C138.992 57.6055 139.165 58.0246 139.165 58.4615L139.138 85.4438C139.138 85.8807 138.965 86.2998 138.656 86.6088C138.347 86.9178 137.928 87.0913 137.491 87.0913H85.5383C85.1013 87.0913 84.6823 87.2649 84.3733 87.5739C84.0643 87.8829 83.8907 88.302 83.8907 88.7389L83.7287 138.828C83.7287 139.265 83.5551 139.684 83.2461 139.993C82.9371 140.302 82.5181 140.475 82.0811 140.475L54.5992 140.462C54.1622 140.462 53.7432 140.288 53.4342 139.979C53.1252 139.67 52.9516 139.251 52.9516 138.814L53.0732 88.7659C53.0732 88.329 52.8996 87.9099 52.5906 87.6009C52.2816 87.2919 51.8626 87.1184 51.4256 87.1184L1.70158 87.0508C1.26461 87.0508 0.845549 86.8773 0.536571 86.5683C0.227592 86.2593 0.0540094 85.8402 0.0540094 85.4033Z" fill="#FEC013"/>
<path d="M332.916 118.53C324.881 134.952 307.851 142.339 290.187 140.489C269.012 138.26 254.954 122.946 253.63 101.258C253.387 97.2062 253.405 88.8513 253.684 76.193C253.901 66.4561 256.102 57.8942 262.53 51.466C284.894 29.1024 327.163 33.8425 336.157 67.4015C337.148 71.0747 337.701 76.3595 337.818 83.2559C338.034 96.9091 338.629 106.862 332.916 118.53ZM311.074 77.2387C311.051 75.3731 310.661 73.5303 309.926 71.8155C309.191 70.1007 308.126 68.5474 306.79 67.2444C305.455 65.9414 303.876 64.9142 302.144 64.2213C300.412 63.5285 298.56 63.1836 296.695 63.2064L294.966 63.2275C293.101 63.2502 291.258 63.6403 289.543 64.3752C287.828 65.1102 286.275 66.1757 284.972 67.511C283.669 68.8463 282.642 70.4251 281.949 72.1574C281.256 73.8896 280.911 75.7414 280.934 77.6069L281.212 100.374C281.235 102.239 281.625 104.082 282.36 105.797C283.095 107.512 284.16 109.065 285.496 110.368C286.831 111.671 288.41 112.698 290.142 113.391C291.874 114.084 293.726 114.429 295.591 114.406L297.32 114.385C299.185 114.362 301.028 113.972 302.743 113.237C304.458 112.502 306.011 111.437 307.314 110.102C308.617 108.766 309.644 107.188 310.337 105.455C311.03 103.723 311.375 101.871 311.352 100.006L311.074 77.2387Z" fill="#71C33D"/>
<path d="M504.006 137.247C493.243 143.824 477.038 142.352 466.261 137.788C455.849 133.385 448.732 122.001 447.273 110.643C447.048 108.834 446.94 103.261 446.949 93.9246C446.976 75.6214 446.99 57.4531 446.99 39.42C446.99 39.2362 447.026 39.0542 447.097 38.8845C447.168 38.7149 447.271 38.5609 447.402 38.4316C447.533 38.3023 447.687 38.2001 447.858 38.131C448.028 38.0619 448.21 38.0272 448.394 38.029L472.311 38.056C473.31 38.056 473.814 38.5557 473.823 39.555C474.013 60.7753 474.08 81.685 474.026 102.284C473.985 117.558 496.97 121.204 503.79 108.631C504.853 106.669 505.415 103.468 505.478 99.0294C505.757 79.2676 505.843 59.4203 505.735 39.4875C505.733 39.3002 505.768 39.1143 505.839 38.9407C505.909 38.7671 506.014 38.6092 506.145 38.4761C506.277 38.343 506.434 38.2373 506.607 38.1652C506.78 38.0931 506.965 38.056 507.153 38.056L531.029 38.0425C531.391 38.0425 531.738 38.1876 531.994 38.4459C532.249 38.7043 532.393 39.0546 532.393 39.42L532.38 140.772C532.38 141.292 532.173 141.79 531.806 142.157C531.439 142.524 530.941 142.73 530.421 142.73H506.451C506.193 142.731 505.945 142.634 505.757 142.458C505.569 142.282 505.455 142.042 505.438 141.785L505.141 137.828C505.132 137.7 505.091 137.576 505.02 137.469C504.949 137.362 504.852 137.275 504.738 137.216C504.624 137.158 504.496 137.13 504.368 137.135C504.24 137.141 504.115 137.18 504.006 137.247Z" fill="#71C33D"/>
<path d="M570.719 62.54C565.033 67.0236 566.532 73.2222 572.38 76.4903C575.126 78.0208 578.034 79.1282 581.104 79.8124C599.821 83.9989 631.463 87.4831 626.236 115.762C623.414 131.022 613.528 139.125 598.336 141.866C577.647 145.607 557.255 140.327 544.763 122.514C544.585 122.263 544.507 121.955 544.545 121.648C544.582 121.341 544.732 121.058 544.966 120.853L559.605 108.186C559.794 108.019 560.041 107.934 560.293 107.946C560.545 107.959 560.783 108.069 560.955 108.253C571.192 119.165 581.752 124.553 596.945 119.935C598.466 119.467 599.929 118.4 601.334 116.734C608.059 108.699 596.202 103.797 590.287 102.784C574.554 100.083 547.018 96.2206 545.263 75.3154C542.332 40.0818 580.118 31.709 606.033 41.7969C614.721 45.1821 621.784 50.9351 627.222 59.0558C627.51 59.488 627.456 59.8751 627.06 60.2172L613.218 71.9122C613.122 71.9957 613.01 72.0586 612.889 72.0972C612.768 72.1358 612.64 72.1491 612.514 72.1365C612.387 72.1238 612.264 72.0854 612.153 72.0236C612.042 71.9619 611.945 71.878 611.867 71.7772C602.05 59.3934 584.939 51.3447 570.719 62.54Z" fill="#71C33D"/>
<path d="M378.778 43.9575C390.891 36.557 410.784 38.2315 422.195 46.6044C432.121 53.9104 435.902 65.5919 435.916 77.476C435.952 98.7413 435.938 120.083 435.875 141.501C435.875 141.856 435.734 142.196 435.484 142.447C435.233 142.698 434.893 142.838 434.538 142.838L410.23 142.798C409.892 142.798 409.568 142.665 409.328 142.427C409.087 142.189 408.951 141.866 408.947 141.528C408.785 120.56 408.605 99.7091 408.407 78.975C408.344 72.0066 404.986 67.5996 398.332 65.754C388.798 63.1206 377.144 68.1848 377.144 79.3261C377.117 98.9438 377.112 119.552 377.13 141.15C377.13 141.367 377.088 141.581 377.006 141.781C376.924 141.981 376.803 142.162 376.651 142.315C376.5 142.468 376.32 142.59 376.121 142.672C375.923 142.755 375.711 142.798 375.496 142.798L351.958 142.906C351.567 142.906 351.193 142.751 350.917 142.475C350.641 142.199 350.486 141.824 350.486 141.434L350.377 40.1897C350.377 38.8032 351.075 38.11 352.471 38.11L376.401 38.1235C376.56 38.1237 376.717 38.1582 376.861 38.2245C377.006 38.2909 377.134 38.3876 377.238 38.508C377.342 38.6284 377.419 38.7698 377.463 38.9225C377.507 39.0752 377.518 39.2356 377.495 39.3929C377.279 40.7884 377.342 42.1614 377.684 43.5118C377.711 43.6238 377.765 43.7277 377.84 43.8149C377.915 43.9022 378.01 43.9703 378.117 44.0138C378.224 44.0573 378.339 44.0749 378.454 44.0651C378.569 44.0553 378.68 44.0184 378.778 43.9575Z" fill="#71C33D"/>
</svg>
