<?xml version="1.0" encoding="UTF-8" standalone="no"?>
<!DOCTYPE svg PUBLIC "-//W3C//DTD SVG 1.1//EN" "http://www.w3.org/Graphics/SVG/1.1/DTD/svg11.dtd">
<svg xmlns="http://www.w3.org/2000/svg" version="1.1" viewBox="0.00 0.00 564.00 89.00">
<path fill="#114c8d" d="
  M 264.11 36.71
  A 0.61 0.60 90.0 0 0 264.71 37.32
  L 297.72 37.41
  A 0.56 0.56 0.0 0 1 298.28 37.97
  L 298.20 48.27
  Q 298.20 48.74 297.73 48.74
  L 264.81 48.81
  Q 264.18 48.81 264.18 49.44
  L 264.14 80.96
  Q 264.14 84.31 260.79 84.29
  L 251.03 84.23
  Q 250.46 84.22 250.40 83.65
  Q 250.06 80.21 250.06 78.63
  Q 250.18 40.85 250.12 3.30
  A 0.88 0.87 90.0 0 1 250.99 2.42
  L 319.00 2.19
  A 0.47 0.47 0.0 0 1 319.48 2.64
  Q 320.19 14.18 308.43 14.12
  Q 286.58 14.02 264.76 14.08
  Q 264.08 14.09 264.08 14.76
  L 264.11 36.71
  Z"
/>
<path fill="#011f5f" d="
  M 46.87 22.13
  Q 59.17 26.77 62.89 39.62
  A 1.26 1.25 -8.2 0 1 61.69 41.22
  L 52.56 41.28
  A 0.81 0.80 -8.9 0 1 51.79 40.73
  C 47.59 27.95 31.41 25.88 21.79 33.30
  Q 17.30 36.76 15.31 44.03
  C 11.88 56.54 14.61 73.32 29.49 76.44
  Q 31.00 76.75 36.22 76.56
  Q 48.31 76.10 52.87 64.87
  C 54.29 61.37 60.01 60.82 63.25 61.17
  Q 63.70 61.22 63.64 61.66
  Q 62.15 74.19 52.73 80.66
  C 40.24 89.24 20.66 86.91 10.68 75.58
  C -0.50 62.89 -0.19 40.57 12.15 28.53
  C 21.06 19.85 35.41 17.80 46.87 22.13
  Z"
/>
<path fill="#2280c2" d="
  M 555.52 34.37
  C 547.97 30.52 540.79 27.38 532.26 30.17
  C 530.30 30.80 528.73 32.13 527.93 34.13
  Q 525.09 41.23 532.10 44.66
  C 543.25 50.11 561.88 50.68 560.44 68.25
  C 559.12 84.19 538.41 89.25 525.97 84.65
  C 521.10 82.84 516.50 81.09 512.63 77.48
  Q 512.24 77.12 512.59 76.71
  L 518.31 70.11
  A 0.69 0.68 -50.6 0 1 519.25 70.01
  C 526.33 75.49 534.73 78.47 543.51 75.56
  C 548.61 73.87 550.53 67.95 548.23 63.28
  C 547.33 61.45 543.65 59.53 541.33 58.68
  C 529.87 54.51 512.62 51.09 515.49 34.50
  C 516.59 28.14 522.28 23.27 528.26 21.55
  Q 540.01 18.17 551.99 23.10
  C 556.70 25.05 560.05 28.15 557.71 33.58
  A 1.60 1.60 0.0 0 1 555.52 34.37
  Z"
/>
<path fill="#062b6b" d="
  M 103.11 67.73
  A 1.50 1.49 78.8 0 0 101.73 66.80
  L 79.79 66.83
  A 0.95 0.94 10.2 0 0 78.90 67.44
  L 72.86 83.45
  A 1.35 1.33 10.7 0 1 71.57 84.32
  L 61.38 84.01
  Q 60.71 83.99 60.95 83.36
  L 84.83 21.81
  Q 85.08 21.15 85.52 21.15
  L 96.66 21.16
  Q 97.30 21.16 97.53 21.76
  L 121.17 83.10
  A 0.69 0.69 0.0 0 1 120.53 84.03
  C 115.36 84.06 109.69 85.01 107.43 78.94
  Q 105.26 73.12 103.11 67.73
  Z
  M 82.83 56.73
  A 0.53 0.53 0.0 0 0 83.32 57.45
  L 98.45 57.47
  A 0.53 0.53 0.0 0 0 98.95 56.76
  L 91.42 36.28
  A 0.53 0.53 0.0 0 0 90.43 36.27
  L 82.83 56.73
  Z"
/>
<path fill="#093776" d="
  M 136.07 30.28
  A 0.46 0.46 0.0 0 0 135.63 30.74
  L 135.60 83.71
  Q 135.60 84.27 135.04 84.24
  L 125.14 83.74
  A 0.84 0.84 0.0 0 1 124.34 82.90
  L 124.21 22.03
  Q 124.21 21.20 125.03 21.21
  Q 140.12 21.22 155.00 21.28
  Q 158.64 21.29 165.02 23.02
  C 171.04 24.65 174.12 30.00 175.07 36.06
  Q 177.25 49.80 164.01 56.04
  A 0.76 0.76 0.0 0 0 163.68 57.12
  L 179.24 83.04
  A 0.98 0.98 0.0 0 1 178.76 84.45
  C 169.88 88.01 166.11 83.27 161.78 75.88
  Q 156.64 67.10 151.60 58.49
  A 2.08 2.05 -12.1 0 0 150.00 57.47
  L 145.12 57.03
  A 4.53 4.53 0.0 0 1 141.32 54.20
  L 140.00 50.91
  Q 139.01 48.43 141.67 48.52
  Q 148.30 48.74 156.24 48.43
  C 163.02 48.16 165.85 40.83 163.84 35.18
  C 162.43 31.20 159.40 30.39 155.23 30.20
  Q 145.59 29.74 136.07 30.28
  Z"
/>
<path fill="#0c4282" d="
  M 195.94 74.73
  A 0.45 0.45 0.0 0 0 196.38 75.18
  C 203.88 75.33 216.03 76.38 222.08 73.29
  C 233.20 67.60 232.71 49.47 229.53 39.53
  C 226.83 31.09 218.28 29.98 210.50 30.05
  Q 202.24 30.13 192.73 30.36
  Q 188.30 30.47 186.03 26.66
  L 185.05 25.00
  Q 182.78 21.18 187.22 21.21
  Q 198.60 21.30 212.75 21.54
  C 217.78 21.63 223.08 21.99 227.54 24.11
  C 243.57 31.69 245.90 53.07 240.02 67.79
  C 235.55 79.00 226.29 83.40 214.75 83.78
  Q 199.88 84.27 185.03 83.93
  A 0.49 0.47 87.9 0 1 184.57 83.49
  Q 184.32 80.70 184.30 77.75
  Q 184.13 56.59 184.28 35.34
  A 0.85 0.84 -89.7 0 1 185.12 34.50
  L 194.09 34.47
  Q 194.38 34.47 194.62 34.30
  L 195.00 34.04
  A 0.55 0.55 0.0 0 1 195.86 34.49
  L 195.94 74.73
  Z"
/>
<path fill="#175d9e" d="
  M 318.86 83.43
  C 313.78 83.90 308.19 80.73 308.19 75.00
  Q 308.19 48.54 308.22 22.10
  A 0.71 0.71 0.0 0 1 308.93 21.39
  L 318.52 21.46
  Q 319.58 21.47 319.58 22.53
  L 319.32 82.93
  A 0.50 0.50 0.0 0 1 318.86 83.43
  Z"
/>
<path fill="#175d9e" d="
  M 341.89 39.17
  Q 340.01 36.38 340.01 39.75
  L 340.06 82.57
  A 1.86 1.85 -89.5 0 1 338.18 84.43
  L 329.96 84.29
  A 0.84 0.83 0.7 0 1 329.14 83.46
  L 329.12 22.21
  Q 329.12 21.57 329.76 21.51
  C 333.30 21.19 339.73 20.93 342.93 23.33
  Q 344.86 24.77 348.68 30.80
  Q 359.36 47.63 370.46 64.31
  A 0.92 0.86 82.3 0 0 370.88 64.65
  Q 371.80 65.02 371.82 64.00
  Q 372.09 42.99 371.98 22.19
  A 0.86 0.86 0.0 0 1 372.85 21.33
  L 381.23 21.42
  A 1.34 1.34 0.0 0 1 382.56 22.76
  Q 382.41 52.04 382.30 80.00
  Q 382.29 81.24 381.94 83.10
  Q 381.84 83.57 381.38 83.70
  C 371.62 86.33 369.30 79.55 364.97 73.19
  Q 353.00 55.61 341.89 39.17
  Z"
/>
<path fill="#1b69aa" d="
  M 428.79 67.00
  C 421.86 66.31 414.53 66.96 407.62 66.87
  A 2.33 2.31 -78.8 0 0 405.44 68.34
  L 399.39 83.61
  Q 399.14 84.24 398.46 84.23
  L 389.29 84.05
  Q 388.72 84.04 388.83 83.47
  Q 389.54 79.99 390.09 78.61
  Q 401.34 50.43 411.86 22.29
  A 1.67 1.66 -78.7 0 1 413.47 21.21
  L 423.30 21.57
  A 1.20 1.18 -9.3 0 1 424.37 22.33
  L 447.69 82.44
  Q 448.25 83.87 446.78 83.99
  C 440.86 84.47 436.58 84.28 434.08 77.86
  Q 432.44 73.63 431.26 69.25
  C 430.90 67.92 430.27 67.14 428.79 67.00
  Z
  M 409.65 56.43
  A 0.93 0.93 0.0 0 0 410.51 57.69
  L 425.23 57.77
  A 0.93 0.93 0.0 0 0 426.10 56.52
  L 418.85 37.07
  A 0.93 0.93 0.0 0 0 417.11 37.06
  L 409.65 56.43
  Z"
/>
<path fill="#1e75b7" d="
  M 465.77 37.80
  Q 464.09 36.51 464.10 38.62
  Q 464.16 59.19 463.85 79.75
  Q 463.81 81.79 463.61 83.66
  A 0.66 0.65 -86.5 0 1 462.96 84.24
  L 454.29 84.29
  A 0.75 0.74 -90.0 0 1 453.55 83.54
  L 453.55 23.95
  Q 453.55 21.27 456.23 21.35
  C 462.39 21.54 466.37 21.00 470.17 26.77
  Q 482.73 45.80 494.97 65.16
  A 0.45 0.44 -50.6 0 0 495.76 65.08
  Q 496.13 64.16 496.14 63.00
  Q 496.33 42.70 496.22 22.21
  A 0.82 0.81 -0.3 0 1 497.04 21.39
  L 505.26 21.42
  A 1.45 1.45 0.0 0 1 506.70 22.87
  Q 506.75 49.53 506.78 76.00
  Q 506.78 79.01 506.47 82.01
  Q 506.31 83.57 505.24 83.88
  C 503.79 84.31 500.65 84.13 499.14 83.89
  C 495.16 83.25 491.38 76.53 488.64 72.59
  C 481.12 61.81 474.32 50.61 466.65 39.90
  Q 466.33 39.45 466.18 38.87
  Q 465.94 37.93 465.77 37.80
  Z"
/>
</svg>
