<?xml version="1.0" encoding="UTF-8" standalone="no"?>
<!DOCTYPE svg PUBLIC "-//W3C//DTD SVG 1.1//EN" "http://www.w3.org/Graphics/SVG/1.1/DTD/svg11.dtd">
<svg xmlns="http://www.w3.org/2000/svg" version="1.1" viewBox="0.00 0.00 1889.00 487.00">
<path fill="#e6007e" d="
  M 862.62 0.00
  L 872.50 0.00
  Q 888.60 2.52 896.90 16.34
  C 910.20 38.48 896.44 60.28 882.36 77.63
  Q 823.43 150.23 763.85 222.33
  Q 760.54 226.34 759.75 229.34
  Q 757.99 236.04 762.19 242.26
  Q 798.43 295.94 834.12 349.12
  Q 834.93 350.33 835.14 348.89
  L 868.58 118.05
  Q 868.65 117.50 869.21 117.50
  L 933.99 117.50
  Q 934.49 117.50 934.42 117.99
  L 895.72 383.06
  Q 895.65 383.50 895.20 383.50
  L 858.03 383.50
  A 0.26 0.25 -17.4 0 0 857.82 383.90
  L 891.01 433.27
  Q 891.39 433.84 890.86 434.27
  L 824.55 487.00
  L 824.17 487.00
  Q 768.70 390.18 713.23 293.55
  C 711.10 289.84 707.68 291.97 705.80 294.30
  Q 660.68 350.22 615.42 406.01
  A 0.24 0.24 0.0 0 1 615.02 405.95
  L 592.23 350.22
  A 1.08 1.07 -38.8 0 1 592.35 349.18
  Q 632.71 293.84 672.81 238.64
  C 676.92 232.98 676.53 227.93 673.07 221.99
  Q 648.42 179.67 623.83 137.30
  Q 619.47 129.80 618.31 125.59
  C 615.09 113.95 618.29 95.94 624.60 85.61
  C 629.42 77.73 640.16 69.94 649.27 75.64
  Q 652.22 77.49 655.32 82.13
  Q 684.32 125.60 713.35 169.06
  C 715.49 172.26 718.64 175.67 721.90 171.16
  Q 775.57 97.08 829.34 23.08
  C 837.20 12.26 848.66 1.37 862.62 0.00
  Z"
/>
<ellipse fill="#e6007e" cx="0.00" cy="0.00" transform="translate(728.98,55.89) rotate(111.6)" rx="52.86" ry="34.89"/>
<path fill="#e6007e" d="
  M 0.00 383.23
  L 0.00 381.30
  Q 13.41 291.93 26.53 202.64
  Q 28.38 190.10 30.60 183.11
  C 36.90 163.33 48.82 144.98 65.58 132.51
  C 90.65 113.85 119.60 107.22 150.76 109.92
  C 172.33 111.79 193.47 118.97 209.37 134.13
  Q 209.73 134.47 210.11 134.16
  Q 218.88 126.84 229.27 122.06
  C 241.89 116.26 254.80 111.71 268.66 110.13
  C 289.67 107.75 310.72 109.45 330.71 116.78
  C 353.09 124.98 366.68 144.88 368.45 168.51
  Q 369.42 181.34 367.87 192.01
  Q 354.01 287.47 340.06 382.95
  A 0.35 0.34 -86.2 0 1 339.72 383.25
  L 271.01 383.25
  Q 270.46 383.25 270.54 382.70
  Q 283.55 293.59 296.49 204.51
  C 297.51 197.45 298.02 188.31 297.18 180.13
  C 295.35 162.37 275.66 157.40 260.98 159.86
  C 241.77 163.06 234.96 178.85 232.31 196.00
  Q 217.94 289.34 204.25 382.79
  Q 204.18 383.25 203.71 383.25
  L 135.48 383.25
  A 0.48 0.48 0.0 0 1 135.01 382.70
  Q 148.43 291.75 161.35 201.23
  C 163.22 188.09 163.29 169.48 149.47 162.31
  Q 140.08 157.43 127.52 159.77
  Q 114.96 162.11 108.23 171.23
  C 99.10 183.61 96.87 196.37 94.61 211.51
  Q 81.83 297.11 69.46 382.95
  A 0.33 0.32 -85.9 0 1 69.14 383.23
  L 0.00 383.23
  Z"
/>
<path fill="#e6007e" d="
  M 1130.83 134.17
  C 1140.94 125.64 1152.90 120.23 1165.24 115.78
  C 1200.85 102.93 1269.97 105.58 1284.95 149.75
  C 1286.97 155.70 1288.73 162.17 1289.17 168.57
  Q 1290.11 182.19 1288.12 195.76
  Q 1274.43 289.41 1260.76 383.00
  A 0.28 0.28 0.0 0 1 1260.48 383.25
  L 1191.51 383.25
  Q 1191.14 383.25 1191.19 382.87
  Q 1203.98 295.66 1216.78 208.53
  Q 1218.67 195.71 1218.00 182.77
  C 1217.34 169.94 1209.87 162.59 1197.48 160.14
  C 1183.37 157.34 1168.17 161.24 1160.30 173.80
  Q 1155.42 181.58 1153.71 192.51
  Q 1138.89 287.57 1124.94 382.86
  Q 1124.89 383.25 1124.50 383.25
  L 1056.25 383.25
  A 0.56 0.55 4.0 0 1 1055.70 382.62
  Q 1068.95 293.06 1081.83 204.08
  C 1083.52 192.42 1084.54 173.68 1074.45 165.11
  C 1063.61 155.90 1041.95 157.58 1032.02 167.68
  Q 1028.72 171.04 1024.88 177.68
  C 1017.70 190.12 1015.98 206.21 1014.13 218.74
  Q 1002.01 300.76 990.21 382.83
  Q 990.15 383.25 989.73 383.25
  L 921.24 383.25
  A 0.58 0.58 0.0 0 1 920.67 382.58
  Q 933.99 292.51 947.18 203.02
  Q 949.04 190.42 951.22 183.48
  C 957.52 163.46 969.59 144.85 986.58 132.29
  C 1012.25 113.30 1042.17 106.88 1073.76 110.12
  C 1094.43 112.23 1114.96 119.56 1130.08 134.15
  Q 1130.45 134.50 1130.83 134.17
  Z"
/>
<path fill="#e6007e" d="
  M 1889.00 165.38
  L 1889.00 188.52
  L 1860.77 382.60
  Q 1860.68 383.25 1860.03 383.25
  L 1791.52 383.25
  Q 1791.13 383.25 1791.19 382.87
  Q 1803.04 301.78 1814.81 221.00
  C 1816.50 209.42 1818.46 197.74 1818.27 186.00
  C 1818.13 177.34 1816.22 169.52 1808.27 164.39
  C 1799.11 158.48 1785.61 157.97 1775.62 161.42
  C 1763.18 165.71 1756.31 177.76 1754.06 190.51
  Q 1751.89 202.73 1750.03 215.00
  Q 1737.26 298.79 1724.93 382.65
  Q 1724.85 383.25 1724.24 383.25
  L 1656.24 383.25
  Q 1655.58 383.25 1655.68 382.60
  Q 1668.65 294.68 1680.65 212.12
  C 1682.58 198.82 1685.72 180.43 1677.64 168.73
  C 1669.02 156.25 1646.16 156.88 1635.04 165.05
  Q 1631.87 167.38 1628.71 171.67
  C 1619.60 184.01 1617.38 197.13 1615.18 211.94
  Q 1602.46 297.35 1590.17 382.83
  Q 1590.11 383.25 1589.70 383.25
  L 1520.78 383.25
  Q 1520.53 383.25 1520.57 383.00
  Q 1533.86 293.12 1547.07 203.39
  Q 1548.94 190.70 1551.06 183.83
  C 1557.23 163.89 1569.60 144.56 1586.66 132.12
  Q 1614.91 111.51 1650.00 109.57
  C 1678.60 107.98 1708.56 113.99 1730.04 134.05
  Q 1730.39 134.38 1730.77 134.07
  Q 1739.15 127.21 1751.94 121.21
  C 1771.78 111.91 1790.05 108.68 1812.00 109.18
  C 1829.82 109.58 1851.67 114.19 1866.21 124.78
  C 1879.54 134.49 1886.25 148.72 1889.00 165.38
  Z"
/>
<path fill="#e6007e" d="
  M 537.03 205.90
  C 539.53 193.21 538.73 179.34 527.03 171.13
  C 517.87 164.70 505.41 165.27 494.23 167.10
  C 482.48 169.02 469.93 170.85 459.02 173.50
  Q 433.60 179.67 409.67 189.78
  Q 408.90 190.11 409.02 189.28
  L 416.66 135.23
  Q 416.74 134.67 417.22 134.36
  C 426.22 128.56 437.30 124.55 447.51 121.46
  Q 472.52 113.89 498.47 110.72
  Q 515.08 108.70 531.74 110.12
  C 550.38 111.71 564.98 119.09 579.73 130.24
  Q 589.63 137.72 594.56 146.89
  C 602.48 161.62 603.51 178.71 601.15 194.99
  Q 590.02 271.62 578.73 348.22
  A 1.30 1.27 -16.2 0 1 578.27 349.03
  Q 565.66 359.22 559.58 363.59
  C 544.44 374.49 524.80 381.55 506.26 385.54
  C 475.10 392.24 443.11 394.28 413.02 382.28
  C 393.46 374.48 379.03 359.83 371.47 340.35
  C 363.09 318.74 362.92 293.73 372.64 272.42
  C 382.62 250.55 400.74 235.28 422.79 226.13
  C 458.19 211.45 498.30 206.49 536.38 206.44
  Q 536.92 206.44 537.03 205.90
  Z
  M 476.12 342.61
  Q 498.73 339.39 518.55 326.71
  Q 519.34 326.20 519.48 325.28
  L 530.63 252.01
  A 0.17 0.16 -87.1 0 0 530.46 251.82
  C 501.05 253.55 476.60 255.44 451.76 265.72
  C 436.19 272.16 426.33 285.91 424.86 302.59
  C 422.08 333.99 449.47 346.41 476.12 342.61
  Z"
/>
<path fill="#e6007e" d="
  M 1507.66 299.73
  C 1504.36 322.87 1494.98 348.76 1477.12 364.87
  C 1454.34 385.42 1423.23 390.23 1393.37 391.04
  Q 1377.13 391.48 1370.01 391.13
  C 1341.08 389.69 1310.86 375.33 1301.18 345.99
  Q 1299.16 339.85 1298.27 330.84
  C 1296.78 315.56 1297.98 300.28 1300.27 285.13
  Q 1312.88 201.82 1325.17 118.25
  A 0.60 0.59 4.5 0 1 1325.76 117.75
  L 1393.75 117.75
  A 0.54 0.54 0.0 0 1 1394.28 118.37
  Q 1380.80 210.43 1367.34 302.14
  C 1365.17 316.90 1364.41 341.08 1383.21 346.13
  C 1393.30 348.84 1408.26 349.04 1417.01 342.28
  C 1429.92 332.30 1435.14 318.87 1437.74 303.25
  C 1447.98 241.70 1456.63 179.76 1465.61 118.06
  A 0.65 0.65 0.0 0 1 1466.25 117.50
  L 1533.48 117.50
  A 0.30 0.30 0.0 0 1 1533.78 117.84
  Q 1520.60 209.08 1507.66 299.73
  Z"
/>
</svg>
