<svg width="399" height="256" viewBox="0 0 399 256" fill="none" xmlns="http://www.w3.org/2000/svg">
<path d="M38.6553 101.401C38.7021 101.43 38.7551 101.447 38.8098 101.452C38.8645 101.457 38.9193 101.449 38.9695 101.428C39.0197 101.407 39.0637 101.375 39.0978 101.333C39.132 101.292 39.1551 101.243 39.1653 101.191C43.7953 78.6006 51.6453 57.3106 63.8553 37.7006C70.3653 27.2606 78.9054 16.5806 88.7554 9.95058C111.245 -5.17942 140.385 -4.40942 154.055 21.7006C166.365 45.2106 156.605 75.8606 140.535 94.8806C120.315 118.821 86.4653 130.941 55.2753 127.481C54.9287 127.441 54.732 127.594 54.6853 127.941C51.2653 157.441 51.3753 187.691 51.7153 217.331C51.7167 217.397 51.7047 217.463 51.6802 217.525C51.6557 217.587 51.6191 217.643 51.5725 217.691C51.5259 217.738 51.4704 217.776 51.409 217.802C51.3477 217.827 51.2819 217.841 51.2153 217.841L32.7953 217.811C32.5087 217.804 32.3654 217.661 32.3654 217.381C31.8654 184.471 32.0454 153.481 35.7654 122.511C35.8054 122.164 35.672 121.904 35.3654 121.731C31.7854 119.751 27.8554 117.761 24.7454 115.511C13.832 107.617 5.59202 97.4773 0.0253544 85.0906C0.010355 85.0592 0.00182194 85.025 0.000261302 84.9902C-0.00129934 84.9555 0.00414269 84.9207 0.0162678 84.8881C0.0283929 84.8554 0.0469563 84.8255 0.0708485 84.8002C0.0947406 84.7749 0.123473 84.7546 0.155352 84.7406L16.9754 76.9806C17.0653 76.9385 17.1626 76.9147 17.2617 76.9106C17.3607 76.9065 17.4593 76.9222 17.5517 76.9567C17.644 76.9912 17.7283 77.0439 17.7993 77.1115C17.8704 77.1792 17.9269 77.2605 17.9654 77.3506C22.4254 87.4839 29.322 95.5006 38.6553 101.401ZM92.2953 32.3906C73.6453 52.7106 62.8954 80.7406 57.9754 107.681C57.964 107.742 57.9655 107.805 57.9798 107.866C57.9942 107.927 58.021 107.984 58.0586 108.034C58.0962 108.084 58.1439 108.125 58.1984 108.155C58.2529 108.186 58.3132 108.205 58.3754 108.211C75.0554 110.061 92.6154 105.701 106.945 97.7806C123.605 88.5806 134.282 74.5173 138.975 55.5906C141.255 46.4106 140.485 37.1906 135.595 28.9106C125.345 11.5506 102.625 21.1306 92.2953 32.3906Z" fill="#032852"/>
<path d="M341.245 168.561C344.092 167.274 346.929 165.984 349.755 164.691C358.495 160.697 367.642 158.941 377.195 159.421C377.25 159.423 377.303 159.436 377.352 159.46C377.401 159.483 377.444 159.516 377.48 159.556C377.516 159.596 377.542 159.643 377.559 159.694C377.575 159.744 377.581 159.798 377.575 159.851L375.985 178.331C375.952 178.684 375.755 178.854 375.395 178.841C362.685 178.371 349.635 185.221 339.635 192.541C339.362 192.741 339.222 193.007 339.215 193.341C338.582 213.414 338.982 233.467 340.415 253.501C340.421 253.559 340.415 253.618 340.397 253.674C340.379 253.73 340.35 253.782 340.312 253.827C340.274 253.872 340.227 253.909 340.174 253.935C340.122 253.961 340.064 253.977 340.005 253.981L321.495 255.361C321.444 255.365 321.393 255.359 321.344 255.343C321.295 255.327 321.25 255.301 321.211 255.268C321.172 255.234 321.139 255.194 321.116 255.148C321.093 255.102 321.079 255.052 321.075 255.001C319.982 239.121 319.452 223.221 319.485 207.301C319.485 206.914 319.305 206.801 318.945 206.961C305.655 213.091 295.395 210.261 290.185 196.431C290.052 196.071 289.845 196.024 289.565 196.291C280.105 205.351 267.365 217.011 253.235 214.341C247.649 213.287 242.835 210.227 238.795 205.161C238.582 204.887 238.342 204.861 238.075 205.081C229.905 211.851 219.835 215.321 209.695 209.671C191.815 199.701 196.715 179.311 204.665 164.171C206.272 161.111 207.862 158.051 209.435 154.991C209.463 154.938 209.479 154.881 209.482 154.821C209.485 154.762 209.475 154.703 209.453 154.647C209.432 154.592 209.398 154.541 209.356 154.498C209.313 154.456 209.262 154.423 209.205 154.401L196.435 149.571C196.162 149.471 195.982 149.557 195.895 149.831C190.455 166.851 182.115 186.171 171.295 199.101C165.885 205.561 156.935 213.381 148.625 212.501C140.205 211.611 133.845 205.291 131.415 197.281C130.875 195.501 130.379 193.707 129.925 191.901C129.825 191.507 129.635 191.457 129.355 191.751C119.055 202.541 102.965 214.181 87.5454 206.511C69.4554 197.521 74.9354 172.161 81.9854 158.091C90.4754 141.161 112.975 115.501 134.535 121.621C140.425 123.301 147.285 128.431 153.035 132.151C153.315 132.331 153.452 132.584 153.445 132.911C153.419 137.571 153.269 140.794 152.995 142.581C151.362 153.214 149.972 163.877 148.825 174.571C148.205 180.344 148.485 185.984 149.665 191.491C149.69 191.611 149.745 191.722 149.826 191.815C149.906 191.908 150.008 191.979 150.123 192.021C150.239 192.063 150.363 192.075 150.484 192.056C150.605 192.036 150.719 191.986 150.815 191.911C153.929 189.497 156.552 186.707 158.685 183.541C167.145 170.987 173.399 157.397 177.445 142.771C177.532 142.471 177.429 142.264 177.135 142.151C171.875 140.051 165.525 138.031 161.385 134.901C140.215 118.891 157.405 83.8506 183.755 93.7206C196.545 98.5106 200.285 114.341 199.625 126.581C199.579 127.507 199.562 128.441 199.575 129.381C199.582 129.741 199.759 129.987 200.105 130.121L237.675 144.231C237.71 144.243 237.741 144.263 237.766 144.289C237.792 144.315 237.812 144.346 237.824 144.38C237.837 144.415 237.841 144.451 237.838 144.488C237.835 144.524 237.824 144.559 237.805 144.591C232.835 153.341 213.825 182.981 217.335 190.521C218.529 193.081 220.399 193.581 222.945 192.021C234.625 184.871 236.105 172.661 242.455 161.021C251.075 145.201 272.305 122.211 292.615 126.711C299.155 128.161 307.005 133.911 312.855 137.831C313.142 138.017 313.275 138.284 313.255 138.631C312.405 153.501 309.785 168.451 308.385 183.331C308.172 185.584 308.205 187.714 308.485 189.721C308.565 190.314 308.852 190.441 309.345 190.101L319.935 182.741C320.222 182.541 320.375 182.267 320.395 181.921C321.889 148.247 327.752 115.381 337.985 83.3206C343.615 65.6806 356.545 44.9906 378.695 53.1206C389.335 57.0206 394.005 69.2306 394.405 79.8306C394.912 93.3039 392.572 106.234 387.385 118.621C387.219 119.021 386.939 119.134 386.545 118.961L369.625 111.731C369.553 111.7 369.495 111.641 369.465 111.568C369.435 111.495 369.435 111.414 369.465 111.341C373.825 100.601 377.005 86.3006 373.995 74.8306C372.335 68.5406 366.455 70.5206 363.695 74.5406C357.815 83.1006 354.725 94.4106 352.065 104.341C346.452 125.307 342.689 146.604 340.775 168.231C340.742 168.611 340.899 168.721 341.245 168.561ZM171.565 114.421C170.355 119.461 176.035 120.911 179.655 122.201C180.015 122.334 180.192 122.204 180.185 121.811C180.105 119.381 179.275 113.031 176.765 111.961C173.972 110.774 172.239 111.594 171.565 114.421ZM128.645 140.011C110.995 142.641 94.6154 168.941 94.6854 185.071C94.7354 196.241 110.145 183.401 112.755 180.841C123.205 170.621 131.175 156.301 130.295 141.351C130.284 141.151 130.231 140.956 130.139 140.778C130.048 140.6 129.921 140.443 129.766 140.317C129.61 140.191 129.431 140.099 129.238 140.046C129.045 139.993 128.843 139.981 128.645 140.011ZM279.415 148.461C266.895 156.611 256.865 170.871 254.285 185.321C251.395 201.491 263.535 193.371 268.865 188.951C281.085 178.801 290.085 163.361 289.585 147.001C289.575 146.62 289.414 146.26 289.139 145.997C288.864 145.735 288.496 145.592 288.115 145.601C285.162 145.661 282.262 146.614 279.415 148.461Z" fill="#032852"/>
<path d="M388.235 210.891C393.918 210.891 398.525 206.284 398.525 200.601C398.525 194.918 393.918 190.311 388.235 190.311C382.552 190.311 377.945 194.918 377.945 200.601C377.945 206.284 382.552 210.891 388.235 210.891Z" fill="#032852"/>
</svg>
