<svg width="431" height="267" viewBox="0 0 431 267" fill="none" xmlns="http://www.w3.org/2000/svg">
<path d="M194.061 38.4998C187.174 58.0415 180.288 77.5678 173.805 97.2491C172.637 100.785 171.453 100.79 170.254 97.2646C163.595 77.7849 156.761 57.9588 149.75 37.7863C148.169 33.2111 148.789 29.675 151.844 25.6735C158.296 17.1951 164.701 8.80973 171.06 0.517404C171.183 0.353993 171.342 0.222051 171.525 0.132205C171.709 0.0423597 171.911 -0.00287631 172.116 0.000141679C172.322 0.00315967 172.524 0.0543472 172.707 0.14958C172.89 0.244814 173.048 0.38143 173.17 0.548423C179.032 8.63396 185.086 16.6213 191.331 24.5103C194.867 28.977 195.777 33.6402 194.061 38.4998Z" fill="#006547"/>
<path d="M109.907 69.1151C102.835 64.8966 89.8223 65.3308 82.0986 65.6721C78.7072 65.8271 78.4694 65.0362 81.3852 63.2991C91.6524 57.1884 101.826 51.145 111.908 45.1687C118.835 41.0639 124.961 40.8519 130.286 44.5328C132.933 46.3629 136.164 50.7055 139.979 57.5607C148.086 72.1394 156.362 86.8009 164.81 101.545C165.172 102.176 165.048 102.688 164.438 103.081C164.065 103.329 163.502 103.199 162.747 102.693C139.08 87.2042 121.466 76.0116 109.907 69.1151Z" fill="#006547"/>
<path d="M178.458 102.926C187.309 87.3852 195.978 71.9896 204.467 56.7387C208.076 50.2455 211.25 46.1407 213.99 44.4243C221.853 39.4924 228.553 43.044 236.447 47.7588C245.174 52.97 253.926 58.1397 262.705 63.2682C265.476 64.8915 265.259 65.6721 262.053 65.6101C249.584 65.3619 240.247 65.0517 228.801 72.2636C212.682 82.4274 196.614 92.6739 180.598 103.003C179.937 103.427 179.285 103.551 178.644 103.375C178.396 103.303 178.334 103.153 178.458 102.926Z" fill="#006547"/>
<path d="M115.909 87.1372C129.599 93.9406 143.919 101.235 158.87 109.021C161.279 110.282 161.134 111.104 158.436 111.487C157.691 111.595 154.868 111.037 153.55 111.022C124.103 110.742 94.8008 110.753 65.6433 111.053C65.0229 111.063 64.8885 110.81 65.24 110.293C68.6418 105.34 72.4105 100.563 76.5464 95.962C84.8749 86.7029 90.5978 79.8788 103.052 82.624C107.518 83.6062 111.804 85.1106 115.909 87.1372Z" fill="#006547"/>
<path d="M185.128 109.176C199.613 101.158 217.914 91.9915 229.95 86.16C241.876 80.3751 253.462 80.1269 262.643 90.4716C267.854 96.3548 272.936 102.403 277.889 108.618C279.078 110.106 278.716 110.851 276.803 110.851L185.593 110.959C183.132 110.959 182.977 110.365 185.128 109.176Z" fill="#006547"/>
<path d="M171.975 118.187C175.735 118.187 178.783 115.138 178.783 111.378C178.783 107.618 175.735 104.569 171.975 104.569C168.214 104.569 165.166 107.618 165.166 111.378C165.166 115.138 168.214 118.187 171.975 118.187Z" fill="#006547"/>
<path d="M19.7197 149.95C19.761 151.522 20.5727 152.307 22.1546 152.307C29.5888 152.287 37.1315 152.276 44.7827 152.276C53.1113 152.276 58.493 154.525 58.5395 163.552C58.5809 171.244 58.6067 178.937 58.6171 186.63C58.6326 196.618 56.0425 200.743 45.8994 200.836C30.9898 200.96 16.0284 200.95 1.01541 200.805C0.77953 200.801 0.554694 200.704 0.389337 200.536C0.22398 200.368 0.131339 200.141 0.131374 199.906L0.146882 182.442C0.150955 182.157 0.265498 181.885 0.465749 181.684C0.666001 181.484 0.935873 181.372 1.21703 181.372L37.5089 181.465C38.2947 181.465 38.7031 181.067 38.7341 180.271L38.9823 173.292C38.9864 173.13 38.9582 172.969 38.8992 172.819C38.8403 172.669 38.7518 172.532 38.6391 172.416C38.5263 172.3 38.3916 172.208 38.2427 172.146C38.0939 172.083 37.934 172.051 37.7725 172.051C30.7623 172.051 23.6952 172.009 16.5713 171.927C7.11057 171.803 0.332995 172.066 0.131374 161.039C0.00729931 154.608 -0.0288901 145.897 0.0228076 134.906C0.0538263 127.679 3.64165 123.987 10.7863 123.832C26.0992 123.501 41.4431 123.367 56.818 123.429C57.2966 123.429 57.7558 123.62 58.0957 123.96C58.4355 124.299 58.6285 124.761 58.6326 125.244L58.7101 141.528C58.7122 141.723 58.6756 141.916 58.6025 142.097C58.5293 142.278 58.4211 142.442 58.2841 142.58C58.1471 142.719 57.984 142.829 57.8042 142.904C57.6244 142.979 57.4315 143.017 57.2367 143.017L21.922 143.064C20.3297 143.064 19.5594 143.86 19.6111 145.452L19.7197 149.95Z" fill="#006547"/>
<path d="M109.333 173.043C109.329 172.754 109.213 172.478 109.01 172.275C108.807 172.072 108.533 171.958 108.248 171.958L91.3269 171.803C91.1687 171.8 91.0118 171.83 90.8651 171.89C90.7185 171.95 90.585 172.039 90.4724 172.151C90.3599 172.264 90.2705 172.398 90.2096 172.546C90.1486 172.694 90.1171 172.852 90.1171 173.012V199.192C90.1171 199.653 89.9341 200.095 89.6084 200.42C89.2826 200.746 88.8408 200.929 88.3801 200.929L72.2969 201.007C72.0634 201.009 71.8318 200.964 71.6155 200.877C71.3992 200.789 71.2025 200.659 71.0366 200.494C70.8708 200.33 70.7392 200.134 70.6494 199.919C70.5596 199.703 70.5133 199.472 70.5133 199.239C70.4823 178.187 70.4668 157.296 70.4668 136.565C70.4668 128.376 72.9793 123.755 81.4939 123.615C93.4051 123.429 105.321 123.413 117.243 123.569C125.727 123.677 129.03 127.803 129.015 135.79C128.973 157.1 128.984 178.379 129.046 199.626C129.046 199.949 128.917 200.258 128.688 200.487C128.458 200.717 128.147 200.847 127.82 200.852L111.101 201.084C110.896 201.086 110.693 201.048 110.503 200.972C110.313 200.896 110.14 200.783 109.994 200.64C109.849 200.497 109.733 200.327 109.654 200.14C109.575 199.953 109.535 199.752 109.535 199.549L109.333 173.043ZM109.621 145.083C109.622 144.823 109.572 144.564 109.473 144.323C109.374 144.082 109.229 143.863 109.045 143.678C108.861 143.493 108.643 143.346 108.402 143.245C108.162 143.144 107.904 143.092 107.643 143.091L91.9168 143.036C91.6561 143.035 91.3978 143.086 91.1566 143.185C90.9154 143.284 90.696 143.429 90.511 143.613C90.326 143.796 90.179 144.015 90.0784 144.255C89.9778 144.496 89.9256 144.754 89.9246 145.015L89.9065 150.226C89.9056 150.486 89.956 150.745 90.0549 150.986C90.1539 151.227 90.2993 151.446 90.483 151.631C90.6667 151.816 90.885 151.963 91.1255 152.064C91.366 152.165 91.624 152.217 91.8847 152.218L107.611 152.273C107.872 152.274 108.13 152.223 108.371 152.124C108.612 152.025 108.832 151.88 109.017 151.696C109.202 151.513 109.349 151.294 109.449 151.054C109.55 150.813 109.602 150.555 109.603 150.295L109.621 145.083Z" fill="#006547"/>
<path d="M162.871 181.387L178.303 181.573C178.544 181.575 178.784 181.53 179.008 181.439C179.232 181.347 179.435 181.213 179.607 181.043C179.778 180.873 179.915 180.67 180.008 180.447C180.101 180.224 180.148 179.985 180.148 179.743L180.179 153.238C180.179 152.95 180.292 152.674 180.493 152.47C180.693 152.267 180.966 152.152 181.25 152.152H198.713C198.941 152.152 199.159 152.241 199.322 152.401C199.484 152.561 199.577 152.778 199.582 153.005L199.876 199.347C199.876 199.723 199.73 200.083 199.468 200.351C199.207 200.618 198.852 200.77 198.48 200.774C183.157 200.898 167.762 200.945 152.294 200.914C142.476 200.898 141.049 194.834 141.049 186.164C141.049 170.314 141.044 154.473 141.034 138.644C141.018 128.826 142.724 123.537 153.457 123.444C168.428 123.3 183.405 123.315 198.387 123.491C198.726 123.495 199.05 123.634 199.288 123.878C199.526 124.122 199.659 124.451 199.659 124.794L199.768 141.978C199.77 142.116 199.744 142.253 199.692 142.38C199.64 142.508 199.562 142.625 199.464 142.723C199.366 142.821 199.249 142.899 199.12 142.952C198.991 143.005 198.853 143.033 198.713 143.033L161.847 143.048C161.506 143.048 161.179 143.184 160.937 143.425C160.696 143.667 160.56 143.994 160.56 144.335L160.7 179.2C160.71 180.638 161.434 181.367 162.871 181.387Z" fill="#006547"/>
<path d="M233.439 181.418H268.8C269.158 181.418 269.501 181.561 269.754 181.814C270.007 182.067 270.149 182.41 270.149 182.768L269.979 199.921C269.977 200.084 269.942 200.245 269.878 200.395C269.814 200.544 269.721 200.68 269.604 200.794C269.488 200.908 269.35 200.997 269.198 201.058C269.047 201.118 268.885 201.148 268.722 201.146L214.021 200.433C213.662 200.429 213.315 200.303 213.038 200.074C212.762 199.845 212.572 199.528 212.501 199.177C212.274 198.081 212.144 196.814 212.113 195.377C211.607 171.637 211.395 147.882 211.477 124.111C211.481 123.969 211.54 123.833 211.641 123.732C211.742 123.631 211.877 123.572 212.02 123.569L229.856 123.46C230.035 123.46 230.213 123.495 230.378 123.564C230.544 123.632 230.694 123.733 230.821 123.86C230.948 123.986 231.048 124.137 231.117 124.302C231.185 124.468 231.221 124.646 231.221 124.825L231.205 179.201C231.205 179.789 231.441 180.353 231.859 180.769C232.278 181.185 232.846 181.418 233.439 181.418Z" fill="#006547"/>
<path d="M301.866 172.981L302.052 199.052C302.062 200.273 301.452 200.883 300.222 200.883L283.363 200.821C283.059 200.821 282.767 200.7 282.552 200.484C282.336 200.269 282.216 199.977 282.216 199.673C282.257 180.172 282.247 160.574 282.185 140.877C282.138 126.795 283.782 123.615 297.989 123.476C307.398 123.393 316.827 123.377 326.278 123.429C334.311 123.46 340.655 124.949 340.655 134.115C340.675 155.704 340.65 177.422 340.577 199.27C340.577 200.417 340.003 200.986 338.856 200.976L322.431 200.774C322.109 200.77 321.801 200.641 321.575 200.414C321.349 200.188 321.222 199.882 321.222 199.564L321.035 173.431C321.031 173.042 320.875 172.669 320.599 172.394C320.324 172.118 319.952 171.962 319.562 171.958L303.045 171.803C302.891 171.801 302.738 171.83 302.595 171.888C302.452 171.946 302.322 172.033 302.212 172.142C302.102 172.252 302.015 172.383 301.956 172.527C301.897 172.671 301.866 172.825 301.866 172.981ZM321.209 145.009C321.211 144.764 321.165 144.522 321.073 144.295C320.981 144.069 320.845 143.863 320.673 143.689C320.502 143.515 320.298 143.376 320.072 143.281C319.847 143.186 319.606 143.136 319.361 143.135L303.573 143.024C303.079 143.021 302.605 143.214 302.253 143.56C301.902 143.907 301.702 144.379 301.699 144.872L301.661 150.3C301.659 150.545 301.706 150.787 301.798 151.014C301.89 151.24 302.025 151.446 302.197 151.62C302.368 151.794 302.573 151.933 302.798 152.028C303.023 152.123 303.265 152.173 303.509 152.175L319.297 152.285C319.791 152.288 320.266 152.096 320.617 151.749C320.968 151.402 321.168 150.93 321.171 150.437L321.209 145.009Z" fill="#006547"/>
<path d="M373.27 155.425C372.712 154.546 372.433 154.628 372.433 155.673L372.65 199.347C372.652 199.53 372.618 199.711 372.549 199.88C372.481 200.049 372.38 200.203 372.251 200.333C372.123 200.463 371.97 200.566 371.802 200.636C371.633 200.707 371.452 200.743 371.27 200.743L354.147 200.882C354.012 200.885 353.877 200.86 353.751 200.809C353.625 200.759 353.51 200.683 353.414 200.588C353.317 200.493 353.24 200.379 353.188 200.254C353.135 200.129 353.108 199.995 353.108 199.859L352.891 124.67C352.891 124.361 353.014 124.065 353.232 123.847C353.45 123.629 353.746 123.506 354.054 123.506L375.442 123.336C376.004 123.331 376.558 123.485 377.038 123.782C377.518 124.078 377.905 124.504 378.156 125.011L390.362 149.345C391.385 151.372 392.404 151.366 393.417 149.329L405.576 124.871C405.781 124.452 406.1 124.098 406.497 123.849C406.894 123.6 407.354 123.465 407.825 123.46L429.523 123.336C429.669 123.336 429.815 123.364 429.95 123.42C430.086 123.475 430.209 123.556 430.312 123.658C430.416 123.761 430.498 123.882 430.554 124.016C430.611 124.149 430.639 124.292 430.639 124.437L430.67 198.665C430.67 198.963 430.611 199.259 430.495 199.535C430.38 199.81 430.211 200.061 429.997 200.271C429.784 200.482 429.531 200.648 429.252 200.761C428.974 200.874 428.676 200.931 428.375 200.929L412.757 200.82C412.302 200.816 411.866 200.632 411.544 200.307C411.222 199.982 411.04 199.543 411.036 199.083C410.994 187.027 410.958 175.297 410.927 163.893C410.927 161.768 411.765 158.604 410.617 155.921C410.571 155.81 410.494 155.715 410.395 155.647C410.297 155.58 410.181 155.542 410.061 155.538C409.941 155.535 409.823 155.567 409.721 155.629C409.619 155.691 409.537 155.782 409.485 155.89L392.766 189.638C392.687 189.792 392.568 189.921 392.421 190.011C392.274 190.102 392.105 190.15 391.933 190.152C391.76 190.154 391.591 190.108 391.442 190.02C391.294 189.932 391.172 189.806 391.091 189.654C385.228 178.316 380.079 165.893 373.27 155.425Z" fill="#006547"/>
<path d="M130.844 245.162L131.325 265.169C131.346 266.203 130.839 266.72 129.805 266.72L117.863 266.797C117.452 266.797 117.057 266.634 116.766 266.343C116.476 266.052 116.312 265.658 116.312 265.246L116.266 212.778C116.266 211.475 116.917 210.819 118.22 210.808L129.449 210.638C130.689 210.617 131.299 211.227 131.279 212.468L130.782 234.615C130.751 236.001 131.186 236.161 132.085 235.096C133.285 233.669 134.401 231.86 135.435 229.668C138.299 223.567 141.122 217.767 143.903 212.266C144.155 211.771 144.539 211.356 145.013 211.066C145.486 210.775 146.031 210.622 146.586 210.622L157.598 210.684C158.797 210.684 159.123 211.222 158.575 212.297L146.23 236.492C145.874 237.183 145.689 237.95 145.689 238.73C145.689 239.509 145.874 240.278 146.23 240.974L159.025 266.208C159.055 266.263 159.07 266.325 159.068 266.388C159.067 266.451 159.048 266.512 159.015 266.566C158.982 266.62 158.935 266.663 158.88 266.693C158.824 266.723 158.762 266.737 158.699 266.735L145.346 266.937C145.159 266.936 144.976 266.884 144.817 266.785C144.658 266.687 144.53 266.546 144.446 266.378L133.636 244.479C131.672 240.488 130.741 240.716 130.844 245.162Z" fill="#006547"/>
<path d="M196.604 247.442C196.604 246.656 196.211 246.258 195.425 246.247L183.979 246.077C183.799 246.075 183.62 246.108 183.452 246.176C183.285 246.244 183.132 246.344 183.004 246.471C182.876 246.598 182.774 246.749 182.704 246.916C182.635 247.082 182.599 247.261 182.599 247.442L182.707 265.324C182.709 265.521 182.672 265.716 182.599 265.898C182.525 266.081 182.415 266.247 182.277 266.387C182.138 266.527 181.974 266.638 181.792 266.713C181.61 266.789 181.415 266.828 181.219 266.828L169.695 266.813C168.713 266.813 168.217 266.316 168.206 265.324C168.134 250.238 168.144 234.946 168.237 219.447C168.268 213.698 170.884 210.783 176.085 210.7C185.763 210.566 195.404 210.659 205.01 210.979C209.833 211.134 210.562 215.709 210.624 220.192C210.852 235.06 210.991 250.063 211.043 265.2C211.045 265.434 211 265.666 210.911 265.882C210.822 266.099 210.691 266.295 210.524 266.46C210.358 266.625 210.16 266.755 209.943 266.842C209.726 266.929 209.493 266.972 209.259 266.968L198.465 266.797C197.162 266.777 196.511 266.115 196.511 264.812L196.604 247.442ZM196.821 226.678C196.815 226.135 196.594 225.616 196.206 225.237C195.818 224.857 195.295 224.646 194.752 224.652L184.64 224.758C184.098 224.764 183.579 224.985 183.199 225.373C182.819 225.761 182.609 226.284 182.615 226.827L182.646 229.773C182.651 230.316 182.872 230.835 183.26 231.214C183.648 231.594 184.171 231.804 184.714 231.799L194.826 231.693C195.369 231.687 195.887 231.466 196.267 231.078C196.647 230.69 196.857 230.167 196.851 229.624L196.821 226.678Z" fill="#006547"/>
<path d="M235.098 246.092C234.724 246.273 234.409 246.558 234.192 246.913C233.975 247.268 233.864 247.677 233.873 248.093L234.183 264.921C234.204 266.13 233.615 266.745 232.415 266.766L221.559 266.999C220.297 267.03 219.666 266.409 219.666 265.138C219.682 247.674 220.457 229.528 218.891 211.863C218.839 211.274 219.108 210.969 219.698 210.948C231.505 210.69 243.422 210.648 255.447 210.824C259.675 210.886 261.878 212.861 262.053 216.749C262.374 224.245 262.369 231.736 262.038 239.222C261.842 243.606 259.525 245.767 255.09 245.704C254.733 245.698 254.381 245.784 254.068 245.956C253.755 246.127 253.493 246.377 253.306 246.681C253.12 246.985 253.016 247.332 253.005 247.689C252.994 248.045 253.077 248.398 253.244 248.713L261.542 264.44C262.4 266.073 261.909 266.885 260.068 266.875L250.639 266.828C248.767 266.818 247.428 265.97 246.622 264.285C244.047 258.949 241.24 253.34 238.2 247.457C237.414 245.927 236.38 245.472 235.098 246.092ZM248.398 227.098C248.402 226.49 248.164 225.904 247.737 225.471C247.309 225.037 246.727 224.791 246.118 224.787L235.975 224.716C235.367 224.712 234.781 224.95 234.348 225.377C233.914 225.805 233.668 226.387 233.664 226.995L233.648 229.322C233.644 229.93 233.881 230.516 234.309 230.949C234.736 231.383 235.318 231.629 235.927 231.633L246.07 231.704C246.679 231.708 247.264 231.47 247.698 231.043C248.131 230.615 248.377 230.033 248.381 229.424L248.398 227.098Z" fill="#006547"/>
<path d="M284.123 224.751L272.507 224.72C272.298 224.718 272.092 224.675 271.901 224.592C271.71 224.51 271.537 224.39 271.392 224.24C271.248 224.089 271.135 223.912 271.06 223.717C270.985 223.523 270.95 223.316 270.956 223.107L271.344 212.204C271.359 211.802 271.529 211.422 271.818 211.142C272.107 210.862 272.492 210.704 272.894 210.7L312.815 210.653C313.021 210.653 313.225 210.694 313.415 210.773C313.605 210.851 313.778 210.967 313.923 211.112C314.069 211.258 314.184 211.43 314.263 211.62C314.341 211.81 314.382 212.014 314.382 212.22L314.413 223.107C314.413 223.523 314.248 223.921 313.954 224.215C313.66 224.509 313.262 224.674 312.846 224.674L301.618 224.72C301.202 224.72 300.804 224.885 300.51 225.179C300.216 225.473 300.051 225.871 300.051 226.287L300.129 265.2C300.131 265.408 300.091 265.615 300.013 265.807C299.934 266 299.817 266.176 299.67 266.323C299.523 266.47 299.348 266.587 299.155 266.665C298.962 266.744 298.755 266.784 298.547 266.782L287.07 266.735C286.864 266.735 286.661 266.695 286.471 266.616C286.28 266.537 286.108 266.422 285.962 266.276C285.817 266.131 285.702 265.958 285.623 265.768C285.544 265.578 285.504 265.374 285.504 265.169L285.69 226.318C285.69 225.902 285.525 225.504 285.231 225.21C284.937 224.916 284.539 224.751 284.123 224.751Z" fill="#006547"/>
</svg>
