<?xml version="1.0" encoding="UTF-8" standalone="no"?>
<!DOCTYPE svg PUBLIC "-//W3C//DTD SVG 1.1//EN" "http://www.w3.org/Graphics/SVG/1.1/DTD/svg11.dtd">
<svg xmlns="http://www.w3.org/2000/svg" version="1.1" viewBox="0.00 0.00 93.00 22.00">
<path fill="#782b90" d="
  M 41.07 12.75
  A 5.18 5.18 0.0 0 1 35.89 17.93
  L 29.49 17.93
  A 5.18 5.18 0.0 0 1 24.31 12.75
  L 24.31 9.25
  A 5.18 5.18 0.0 0 1 29.49 4.07
  L 35.89 4.07
  A 5.18 5.18 0.0 0 1 41.07 9.25
  L 41.07 12.75
  Z
  M 35.4528 10.1674
  A 1.77 1.77 0.0 0 0 33.6491 8.4317
  L 31.6895 8.4693
  A 1.77 1.77 0.0 0 0 29.9538 10.2730
  L 29.9872 12.0126
  A 1.77 1.77 0.0 0 0 31.7909 13.7483
  L 33.7505 13.7107
  A 1.77 1.77 0.0 0 0 35.4862 11.9070
  L 35.4528 10.1674
  Z"
/>
<path fill="#782b90" d="
  M 55.15 13.04
  A 0.21 0.20 -34.2 0 0 55.08 13.39
  L 59.22 17.06
  A 0.36 0.35 -24.3 0 1 58.98 17.68
  L 53.51 17.71
  Q 52.91 17.71 52.48 17.29
  L 48.43 13.33
  A 0.24 0.23 -67.4 0 0 48.03 13.50
  L 47.99 16.73
  Q 47.98 17.69 47.02 17.69
  L 43.73 17.70
  Q 42.75 17.71 42.75 16.73
  L 42.75 4.77
  Q 42.75 4.30 43.22 4.27
  Q 51.44 3.64 55.41 4.33
  C 59.83 5.10 59.21 11.65 55.15 13.04
  Z
  M 52.8911 8.6656
  A 0.70 0.70 0.0 0 0 52.1814 7.9754
  L 48.6417 8.0248
  A 0.70 0.70 0.0 0 0 47.9516 8.7345
  L 47.9689 9.9744
  A 0.70 0.70 0.0 0 0 48.6786 10.6646
  L 52.2183 10.6152
  A 0.70 0.70 0.0 0 0 52.9084 9.9055
  L 52.8911 8.6656
  Z"
/>
<path fill="#782b90" d="
  M 75.22 5.38
  A 1.16 1.16 0.0 0 1 76.38 4.22
  L 85.37 4.21
  A 5.61 5.19 -0.1 0 1 90.99 9.39
  L 90.99 12.61
  A 5.61 5.19 -0.1 0 1 85.39 17.81
  L 76.40 17.82
  A 1.16 1.16 0.0 0 1 75.24 16.66
  L 75.22 5.38
  Z
  M 85.4003 9.6726
  A 0.87 0.87 0.0 0 0 84.5243 8.8087
  L 81.2643 8.8314
  A 0.87 0.87 0.0 0 0 80.4004 9.7075
  L 80.4197 12.4674
  A 0.87 0.87 0.0 0 0 81.2957 13.3313
  L 84.5557 13.3086
  A 0.87 0.87 0.0 0 0 85.4196 12.4325
  L 85.4003 9.6726
  Z"
/>
<path fill="#782b90" d="
  M 9.60 9.25
  L 10.46 4.72
  Q 10.55 4.26 11.03 4.25
  L 14.78 4.25
  A 0.64 0.64 0.0 0 1 15.41 4.78
  L 16.26 9.75
  Q 16.51 11.25 16.82 9.76
  L 17.83 4.78
  Q 17.94 4.24 18.48 4.25
  L 23.31 4.26
  Q 23.87 4.26 23.73 4.81
  L 20.53 17.16
  Q 20.39 17.70 19.84 17.70
  L 14.95 17.69
  Q 14.43 17.69 14.31 17.19
  L 13.13 12.22
  Q 12.90 11.25 12.67 12.22
  L 11.51 17.16
  Q 11.38 17.70 10.84 17.70
  L 5.89 17.70
  A 0.71 0.71 0.0 0 1 5.20 17.17
  L 2.04 4.79
  A 0.44 0.44 0.0 0 1 2.47 4.24
  L 7.46 4.25
  Q 7.92 4.25 8.01 4.71
  L 8.85 9.25
  Q 9.22 11.26 9.60 9.25
  Z"
/>
<path fill="#782b90" d="
  M 66.41 13.07
  L 73.54 13.04
  A 0.47 0.47 0.0 0 1 74.01 13.51
  L 73.99 17.23
  A 0.47 0.47 0.0 0 1 73.52 17.70
  L 61.19 17.70
  A 0.47 0.47 0.0 0 1 60.72 17.23
  L 60.73 4.72
  A 0.47 0.47 0.0 0 1 61.20 4.25
  L 65.48 4.26
  A 0.47 0.47 0.0 0 1 65.95 4.73
  L 65.94 12.60
  A 0.47 0.47 0.0 0 0 66.41 13.07
  Z"
/>
</svg>
